<svg height="186" viewBox="0 0 1141 186" width="1141" xmlns="http://www.w3.org/2000/svg" xmlns:xlink="http://www.w3.org/1999/xlink"><defs><linearGradient id="a"><stop offset="0" stop-color="#406ae7"/><stop offset="1" stop-color="#c63ad6"/></linearGradient><linearGradient id="b" x1="0%" xlink:href="#a" y1="51.022%" y2="48.978%"/><path id="c" d="m10 0h1120c5.523 0 10 4.477 10 10v175h-1140v-175c0-5.523 4.477-10 10-10z"/><linearGradient id="d" x1="0%" xlink:href="#a" y1="63.146%" y2="36.854%"/><linearGradient id="e" x1="0%" xlink:href="#a" y1="56.986%" y2="43.014%"/><linearGradient id="f" x1="0%" x2="99.393%" y1="32.569%" y2="32.569%"><stop offset="0" stop-color="#5269ff"/><stop offset="1" stop-color="#4890ff"/></linearGradient><linearGradient id="g" x1="0%" xlink:href="#a" y1="62.893%" y2="37.107%"/><linearGradient id="h" x1="0%" xlink:href="#a" y1="62.053%" y2="37.947%"/><linearGradient id="i" x1="0%" xlink:href="#a" y1="62.922%" y2="37.078%"/><linearGradient id="j" x1="0%" xlink:href="#a" y1="79.938%" y2="20.062%"/><linearGradient id="k" x1="0%" xlink:href="#a" y1="56.771%" y2="43.229%"/><linearGradient id="l" x1="0%" xlink:href="#a" y1="56.823%" y2="43.177%"/><mask id="m" fill="#fff"><use fill="#fff" fill-rule="evenodd" xlink:href="#c"/></mask></defs><g fill="none" fill-rule="evenodd" transform="translate(.404 .75)"><use fill="url(#b)" xlink:href="#c"/><path d="m313.269 70.25c-.223 0-.447-.237-.67-.473-.223-.473 0-.946.223-.946l137.7-83.483c.446-.237.892 0 .892.236.223.473 0 .946-.223.946l-137.7 83.483c0 .237-.222.237-.222.237z" fill="#fff" fill-rule="nonzero" mask="url(#m)" opacity=".275"/><g mask="url(#m)"><g fill-rule="nonzero"><g opacity=".403"><g fill="#fff"><g opacity=".4"><path d="m858.982 221.335c-.31 0-.622-.311-.934-.622-.311-.623 0-1.245.312-1.245l123.912-71.278c.623-.31 1.246 0 1.246.312.311.622 0 1.245-.312 1.245l-124.224 71.588c.623 0 .312 0 0 0z"/><path d="m978.848 151.303c-2.18-1.245-2.18-3.424 0-4.669 2.179-1.245 5.604-1.245 7.783 0 2.18 1.245 2.18 3.424 0 4.669-1.868 1.245-5.604 1.245-7.783 0z"/></g><path d="m1118.639 35.828-98.383 56.96c-.623.31-.623.933-.312 1.244.312.312.623.623.934.623h.623l98.072-56.648c-.623-.623-.934-1.245-.934-2.18zm23.039 89.33-104.921 61.005c-.623.312-.623.934-.312 1.245.312.312.623.623.934.623h.623l104.61-60.383c-.623-.934-.623-1.557-.934-2.49z" opacity=".4"/><path d="m667.314 67.594c-.311 0-.623-.311-.934-.623-.311-.622 0-1.245.311-1.245l125.354-69.116c.622-.312 1.245 0 1.245.311.311.622 0 1.245-.311 1.245l-125.354 69.117c0 .31-.311.31-.311.31z" opacity=".7"/><g opacity=".4"><path d="m922.807 80.96c-.312 0-.623-.312-.934-.623-.312-.622 0-1.245.311-1.245l104.298-60.072c.623-.311 1.246 0 1.246.311.311.623 0 1.245-.312 1.245l-104.61 60.384c.312 0 .312 0 0 0z"/><path d="m1023.058 22.133c-2.18-1.245-2.18-3.424 0-4.67 2.18-1.244 5.604-1.244 7.783 0 2.18 1.246 2.18 3.425 0 4.67s-5.604 1.245-7.783 0z"/></g><path d="m886.023 11.888h.623l161.273-92.443-1.556-1.556-160.651 92.131c-.623.311-.623.934-.311 1.245-.312.311.31.623.622.623zm-260.093 206.421c-.312 0-.624-.312-.935-.623-.311-.622 0-1.245.311-1.245l192.096-109.873c.623-.31 1.246 0 1.246.312.31.622 0 1.245-.312 1.245l-192.096 109.872c0 .312-.31.312-.31.312zm-608.27-173.19c-.312 0-.623-.311-.935-.623-.311-.622 0-1.245.312-1.245l192.095-109.871c.623-.312 1.246 0 1.246.31.311.623 0 1.246-.312 1.246l-192.095 109.872c0 .31-.312.31-.312.31zm594.12 227.884c-.312 0-.623-.31-.934-.622-.312-.623 0-1.245.311-1.245l152.245-87.463c.622-.31 1.245 0 1.245.312.311.622 0 1.245-.311 1.245l-152.246 87.462c0 .311-.311.311-.311.311zm130.402-150.447c-.311 0-.622-.31-.934-.622-.311-.623 0-1.245.312-1.245l39.85-23.344c.624-.311 1.246 0 1.246.311.312.623 0 1.245-.311 1.245l-39.54 23.344c-.311.311-.311.311-.623.311zm-736.765 62.61c-.312 0-.623-.311-.934-.623-.312-.622 0-1.245.311-1.245l39.851-23.344c.623-.311 1.246 0 1.246.312.311.622 0 1.245-.312 1.245l-39.539 23.344c-.311.31-.311.31-.622.31zm4.243-65.576c-.312 0-.623-.311-.935-.622-.311-.623 0-1.245.312-1.245l39.85-23.344c.624-.312 1.246 0 1.246.31.312.623 0 1.246-.311 1.246l-39.54 23.344c-.311.311-.311.311-.623.311z" opacity=".4"/><path d="m788.309.656c-2.18-1.245-2.18-3.424 0-4.669 2.179-1.245 5.604-1.245 7.783 0 2.18 1.245 2.18 3.424 0 4.669s-5.604 1.245-7.783 0z"/><path d="m909.673 55.862c-.311 0-.622-.312-.934-.623-.311-.622 0-1.245.312-1.245l46.078-26.457c.622-.31 1.245 0 1.245.312.311.622 0 1.245-.311 1.245l-46.39 26.768c.312 0 .312 0 0 0zm55.828-32.472c-.311 0-.622-.31-.934-.622-.311-.622 0-1.245.312-1.245l22.105-12.761c.622-.312 1.245 0 1.245.31.311.623 0 1.246-.311 1.246l-22.418 13.072c.623 0 .312 0 0 0z" opacity=".4"/></g><path d="m810.809 193.337c-.311 0-.623-.311-.934-.622-.311-.623 0-1.245.311-1.245l22.105-12.762c.623-.31 1.246 0 1.246.312.31.622 0 1.245-.312 1.245l-22.416 13.072c.623 0 .311 0 0 0z" fill="#63a0ff"/><path d="m1090.848 98.302c-.311 0-.623-.311-.934-.623-.311-.622 0-1.245.311-1.245l46.079-26.456c.622-.312 1.245 0 1.245.311.311.622 0 1.245-.311 1.245l-46.39 26.768c.311 0 .311 0 0 0z" fill="#fff" opacity=".4"/><path d="m689.65 22.903c-.312-.622 0-1.245.31-1.245l51.96-28.472c.622-.311 1.245 0 1.245.311.31.623 0 1.245-.312 1.245l-52.27 28.784c-.311 0-.622-.312-.934-.623z" fill="#63a0ff"/><path d="m744.343 75.39c-.31 0-.622-.311-.934-.623-.31-.622 0-1.245.312-1.245l49.814-30.191c.623-.312 1.245 0 1.245.311.312.622 0 1.245-.311 1.245z" fill="#fff" opacity=".4"/></g><g fill="#fff" opacity=".4"><path d="m346.516 134.54c-.311 0-.623-.311-.934-.623-.311-.622 0-1.245.311-1.245l123.913-71.277c.623-.311 1.245 0 1.245.312.312.622 0 1.245-.31 1.245l-124.226 71.588c.623 0 .311 0 0 0z"/><path d="m466.381 64.508c-2.179-1.245-2.179-3.424 0-4.669 2.18-1.245 5.605-1.245 7.784 0 2.18 1.245 2.18 3.424 0 4.669-1.868 1.245-5.604 1.245-7.784 0zm117.114-105.258-98.383 56.96c-.622.31-.622.933-.311 1.244.311.312.623.623.934.623h.623l98.071-56.648c-.623-.623-.934-1.245-.934-2.18zm45.716 79.112-104.92 61.006c-.623.312-.623.934-.312 1.245.311.312.623.623.934.623h.623l104.61-60.383c-.623-.934-.623-1.557-.935-2.49zm-280.827 164.654c-.311 0-.623-.311-.934-.623-.311-.622 0-1.245.311-1.245l162.83-93.687c.623-.311 1.246 0 1.246.311.311.623 0 1.245-.312 1.245l-162.518 93.688c0 .31-.311.31-.623.31zm-178.724-105.897c-.312 0-.623-.311-.935-.623-.311-.622 0-1.245.312-1.245l192.095-109.871c.623-.312 1.246 0 1.246.31.311.623 0 1.246-.312 1.246l-192.095 109.872c0 .31-.312.31-.312.31zm-70.347 89.089c-.31 0-.622-.311-.934-.622-.31-.623 0-1.245.312-1.245l152.244-87.463c.623-.311 1.246 0 1.246.311.311.623 0 1.246-.312 1.246l-152.244 87.462c0 .311-.312.311-.312.311zm66.347-165.618c-.312 0-.623-.311-.935-.622-.311-.623 0-1.245.312-1.245l39.85-23.344c.624-.312 1.246 0 1.246.31.312.623 0 1.246-.311 1.246l-39.54 23.344c-.311.311-.311.311-.623.311zm-38.015 226.935c-.311 0-.622-.311-.934-.622-.311-.623 0-1.245.312-1.245l116.751-67.542c.623-.312 1.246 0 1.246.31.311.623 0 1.246-.312 1.246l-117.063 67.853c.312 0 .312 0 0 0zm119.015-111.103c-.31 0-.622-.31-.934-.622-.31-.623 0-1.245.312-1.245l46.078-26.457c.623-.31 1.245 0 1.245.312.312.622 0 1.245-.311 1.245l-46.39 26.767c.312 0 .312 0 0 0zm51.683-29.88c-.312 0-.623-.311-.934-.622-.312-.623 0-1.245.311-1.245l22.105-12.762c.623-.311 1.245 0 1.245.311.312.623 0 1.245-.311 1.245l-22.416 13.073c.622 0 .311 0 0 0zm280.039-95.035c-.311 0-.623-.312-.934-.623-.311-.622 0-1.245.311-1.245l46.078-26.456c.623-.312 1.246 0 1.246.31.311.623 0 1.246-.312 1.246l-46.39 26.768c.312 0 .312 0 0 0zm-18.288 118.987-106.477 60.383c-.623.311-.623.934-.312 1.245.312.311.623.622.934.622h.623l105.544-59.76c-.312-.934-.312-1.557-.312-2.49zm-383.766 49.824c-.312 0-.623-.311-.934-.622-.312-.623 0-1.245.311-1.245l49.814-30.192c.623-.311 1.246 0 1.246.311.311.623 0 1.245-.312 1.245z"/></g><path d="m594.352 161.874c-.311 0-.623-.311-.934-.623-.311-.622 0-1.245.311-1.245l125.354-69.116c.622-.311 1.245 0 1.245.311.311.623 0 1.245-.311 1.245l-125.354 69.117c0 .311-.311.311-.311.311z" fill="#fff" opacity=".17"/><path d="m700.062 11.728c-3.114-1.868-8.095-1.868-11.208 0l-27.087 15.562c-3.113 1.868-3.113 4.67 0 6.537l27.087 15.562c3.113 1.868 8.094 1.868 11.208 0l27.086-15.562c3.114-1.868 3.114-4.669 0-6.537z" fill="#d9e6ff"/><g fill="#3c55f9" opacity=".21"><path d="m665.503-1.967v32.681l28.332 16.497v-32.682z"/><path d="m665.503-1.345v32.06l28.332 16.496v-32.061z"/><path d="m665.503-.722v31.436l28.332 16.497v-31.748z"/><path d="m665.503-.1v30.814l28.332 16.497v-31.126z"/><path d="m665.503.211v30.503l28.332 16.497v-30.503z"/><path d="m665.503.834v29.88l28.332 16.497v-29.881z"/><path d="m665.503 1.456v29.258l28.332 16.497v-29.258z"/><path d="m665.503 2.079v28.635l28.332 16.497v-28.636z"/><path d="m665.503 2.701v28.013l28.332 16.497v-28.013z"/><path d="m665.503 3.324v27.39l28.332 16.497v-27.702z"/><path d="m665.503 3.635v27.08l28.332 16.496v-27.081z"/><path d="m665.503 4.258v26.456l28.332 16.497v-26.457z"/><path d="m665.503 4.88v25.834l28.332 16.497v-25.834z"/><path d="m665.503 5.503v25.211l28.332 16.497v-25.212z"/><path d="m665.503 6.125v24.59l28.332 16.496v-24.591z"/><path d="m665.503 6.748v23.966l28.332 16.497v-24.278z"/><path d="m665.503 7.37v23.344l28.332 16.497v-23.656z"/><path d="m665.503 7.681v23.033l28.332 16.497v-23.033z"/><path d="m665.503 8.304v22.41l28.332 16.497v-22.411z"/><path d="m665.503 8.926v21.788l28.332 16.497v-21.788z"/><path d="m665.503 9.549v21.165l28.332 16.497v-21.166z"/><path d="m665.503 10.171v20.543l28.332 16.497v-20.543z"/><path d="m665.503 10.794v19.92l28.332 16.497v-20.232z"/><path d="m665.503 11.105v19.61l28.332 16.496v-19.611z"/><path d="m665.503 11.728v18.986l28.332 16.497v-18.987z"/><path d="m665.503 12.35v18.364l28.332 16.497v-18.364z"/><path d="m665.503 12.973v17.741l28.332 16.497v-17.742z"/><path d="m665.503 13.595v17.12l28.332 16.496v-17.121z"/><path d="m665.503 14.218v16.496l28.332 16.497v-16.808z"/><path d="m665.503 14.529v16.185l28.332 16.497v-16.185z"/><path d="m665.503 15.152v15.562l28.332 16.497v-15.563z"/><path d="m665.503 15.774v14.94l28.332 16.497v-14.941z"/><path d="m665.503 16.397v14.317l28.332 16.497v-14.318z"/><path d="m665.503 17.02v13.694l28.332 16.497v-13.695z"/><path d="m665.503 17.642v13.072l28.332 16.497v-13.384z"/><path d="m665.503 18.264v12.45l28.332 16.497v-12.762z"/><path d="m665.503 18.575v12.14l28.332 16.496v-12.141z"/><path d="m665.503 19.198v11.516l28.332 16.497v-11.517z"/><path d="m665.503 19.82v10.894l28.332 16.497v-10.894z"/><path d="m665.503 20.443v10.271l28.332 16.497v-10.272z"/><path d="m665.503 21.065v9.65l28.332 16.496v-9.65z"/><path d="m665.503 21.688v9.026l28.332 16.497v-9.338z"/><path d="m665.503 22v8.714l28.332 16.497v-8.715z"/><path d="m665.503 22.622v8.092l28.332 16.497v-8.093z"/><path d="m665.503 23.244v7.47l28.332 16.497v-7.47z"/><path d="m665.503 23.867v6.847l28.332 16.497v-6.848z"/><path d="m665.503 24.49v6.224l28.332 16.497v-6.225z"/><path d="m665.503 25.112v5.602l28.332 16.497v-5.914z"/><path d="m665.503 25.423v5.291l28.332 16.497v-5.292z"/><path d="m665.503 26.045v4.67l28.332 16.496v-4.67z"/><path d="m665.503 26.668v4.046l28.332 16.497v-4.047z"/><path d="m665.503 27.29v3.424l28.332 16.497v-3.424z"/></g><g fill="#5269ff" opacity=".21"><path d="m722.79-1.967v32.681l-28.644 16.497v-32.682z"/><path d="m722.79-1.345v32.06l-28.645 16.495v-32.06z"/><path d="m722.79-.722v31.436l-28.644 16.497v-31.748z"/><path d="m722.79-.1v30.814l-28.644 16.497v-31.126z"/><path d="m722.79.211v30.503l-28.644 16.497v-30.503z"/><path d="m722.79.834v29.88l-28.644 16.497v-29.881z"/><path d="m722.79 1.456v29.258l-28.644 16.497v-29.258z"/><path d="m722.79 2.079v28.635l-28.644 16.497v-28.636z"/><path d="m722.79 2.701v28.013l-28.644 16.497v-28.013z"/><path d="m722.79 3.324v27.39l-28.644 16.497v-27.702z"/><path d="m722.79 3.635v27.08l-28.645 16.495v-27.08z"/><path d="m722.79 4.258v26.456l-28.644 16.497v-26.457z"/><path d="m722.79 4.88v25.834l-28.644 16.497v-25.834z"/><path d="m722.79 5.503v25.211l-28.644 16.497v-25.212z"/><path d="m722.79 6.125v24.59l-28.645 16.495v-24.59z"/><path d="m722.79 6.748v23.966l-28.644 16.497v-24.278z"/><path d="m722.79 7.37v23.344l-28.644 16.497v-23.656z"/><path d="m722.79 7.681v23.033l-28.644 16.497v-23.033z"/><path d="m722.79 8.304v22.41l-28.644 16.497v-22.411z"/><path d="m722.79 8.926v21.788l-28.644 16.497v-21.788z"/><path d="m722.79 9.549v21.165l-28.644 16.497v-21.166z"/><path d="m722.79 10.171v20.543l-28.644 16.497v-20.543z"/><path d="m722.79 10.794v19.92l-28.644 16.497v-20.232z"/><path d="m722.79 11.105v19.61l-28.645 16.495v-19.61z"/><path d="m722.79 11.728v18.986l-28.644 16.497v-18.987z"/><path d="m722.79 12.35v18.364l-28.644 16.497v-18.364z"/><path d="m722.79 12.973v17.741l-28.644 16.497v-17.742z"/><path d="m722.79 13.595v17.12l-28.645 16.495v-17.12z"/><path d="m722.79 14.218v16.496l-28.644 16.497v-16.808z"/><path d="m722.79 14.529v16.185l-28.644 16.497v-16.185z"/><path d="m722.79 15.152v15.562l-28.644 16.497v-15.563z"/><path d="m722.79 15.774v14.94l-28.644 16.497v-14.941z"/><path d="m722.79 16.397v14.317l-28.644 16.497v-14.318z"/><path d="m722.79 17.02v13.694l-28.644 16.497v-13.695z"/><path d="m722.79 17.642v13.072l-28.644 16.497v-13.384z"/><path d="m722.79 18.264v12.45l-28.644 16.497v-12.762z"/><path d="m722.79 18.575v12.14l-28.645 16.495v-12.14z"/><path d="m722.79 19.198v11.516l-28.644 16.497v-11.517z"/><path d="m722.79 19.82v10.894l-28.644 16.497v-10.894z"/><path d="m722.79 20.443v10.271l-28.644 16.497v-10.272z"/><path d="m722.79 21.065v9.65l-28.645 16.495v-9.65z"/><path d="m722.79 21.688v9.026l-28.644 16.497v-9.338z"/><path d="m722.79 22v8.714l-28.644 16.497v-8.715z"/><path d="m722.79 22.622v8.092l-28.644 16.497v-8.093z"/><path d="m722.79 23.244v7.47l-28.644 16.497v-7.47z"/><path d="m722.79 23.867v6.847l-28.644 16.497v-6.848z"/><path d="m722.79 24.49v6.224l-28.644 16.497v-6.225z"/><path d="m722.79 25.112v5.602l-28.644 16.497v-5.914z"/><path d="m722.79 25.423v5.291l-28.644 16.497v-5.292z"/><path d="m722.79 26.045v4.67l-28.645 16.495v-4.67z"/><path d="m722.79 26.668v4.046l-28.644 16.497v-4.047z"/><path d="m722.79 27.29v3.424l-28.644 16.497v-3.424z"/></g></g><path d="m40.901 10.583c-3.113-1.868-8.095-1.868-11.208 0l-29.577 9.96v6.847c0 2.18 1.245 4.047 2.802 5.292l26.464 15.874c3.113 1.867 8.095 1.867 11.208 0l26.464-15.252c1.868-.934 3.113-3.112 3.113-5.291v-7.781l-29.266-9.65z" fill="url(#d)" transform="translate(659.16 -20.954)"/><path d="m700.062-19.398c-3.114-1.867-8.095-1.867-11.208 0l-27.087 15.563c-3.113 1.868-3.113 4.669 0 6.536l27.087 15.563c3.113 1.868 8.094 1.868 11.208 0l27.086-15.563c3.114-1.867 3.114-4.668 0-6.536z" fill="#d9e6ff" fill-rule="nonzero"/><path d="m67.988 54.78-27.088 15.564c-3.113 1.868-8.095 1.868-11.208 0l-27.085-15.563c-1.557-.934-2.18-2.181-2.18-3.113v6.848c0 2.179 1.246 4.046 2.802 5.291l26.464 15.874c3.113 1.868 8.095 1.868 11.208 0l26.464-15.251c1.868-.934 3.113-3.113 3.113-5.292v-7.781c-.31 1.245-.934 2.49-2.49 3.424z" fill="url(#e)" transform="translate(659.16 -20.954)"/><path d="m721.233 19.51-22.417 13.072c-2.49 1.556-6.85 1.556-9.34 0l-22.416-13.073c-1.246-.622-1.868-1.556-1.868-2.801v5.602c0 1.868.934 3.424 2.49 4.358l21.794 13.073c2.49 1.556 6.85 1.556 9.34 0l21.794-12.45c1.557-.934 2.49-2.49 2.49-4.358v-6.225c.312 1.245-.31 2.179-1.867 2.801z" fill="#5269ff" fill-opacity=".4" fill-rule="nonzero"/><path d="m696.326-6.947c-.934-.623-2.802-.623-3.736 0l-9.34 5.29c-.935.623-.935 1.557 0 2.18l9.34 5.29c.934.623 2.802.623 3.736 0l9.34-5.29c.934-.623.934-1.557 0-2.18z" fill="#6b8bf5" fill-rule="nonzero"/><path d="m683.25.523 9.34-4.67c.934-.622 2.802-.622 3.736 0l9.028 4.98.312-.31c.934-.623.934-1.557 0-2.18l-9.34-5.29c-.934-.623-2.802-.623-3.736 0l-9.34 5.29c-.935.623-.935 1.557 0 2.18z" fill="#fff" fill-rule="nonzero"/><path d="m15.75 4.122c-1.246-.622-3.114-.622-4.36 0l-11.208 3.736v2.49c0 .933.312 1.556 1.246 1.867l9.962 5.914c1.246.622 3.114.622 4.36 0l9.962-5.603c.623-.31 1.245-1.245 1.245-1.867v-2.801z" fill="url(#f)" transform="translate(680.577 -17.918)"/><path d="m1008.705 99.213c-3.114-1.868-8.095-1.868-11.208 0l-27.087 15.562c-3.113 1.868-3.113 4.67 0 6.537l27.087 15.562c3.113 1.868 8.094 1.868 11.208 0l27.086-15.562c3.114-1.868 3.114-4.67 0-6.537z" fill="#d9e6ff" fill-rule="nonzero"/><g fill="#5269ff" fill-rule="nonzero" opacity=".21"><path d="m974.146 85.829v32.681l28.643 16.497v-32.682z"/><path d="m974.146 86.451v32.06l28.643 16.496v-32.06z"/><path d="m974.146 87.074v31.436l28.643 16.497v-31.748z"/><path d="m974.146 87.385v31.125l28.643 16.497v-31.125z"/><path d="m974.146 88.008v30.502l28.643 16.497v-30.503z"/><path d="m974.146 88.63v29.88l28.643 16.497v-29.88z"/><path d="m974.146 89.253v29.257l28.643 16.497v-29.258z"/><path d="m974.146 89.875v28.635l28.643 16.497v-28.635z"/><path d="m974.146 90.498v28.012l28.643 16.497v-28.324z"/><path d="m974.146 91.12v27.39l28.643 16.497v-27.702z"/><path d="m974.146 91.431v27.08l28.643 16.496v-27.08z"/><path d="m974.146 92.054v26.456l28.643 16.497v-26.457z"/><path d="m974.146 92.676v25.834l28.643 16.497v-25.834z"/><path d="m974.146 93.299v25.211l28.643 16.497v-25.212z"/><path d="m974.146 93.921v24.59l28.643 16.496v-24.59z"/><path d="m974.146 94.544v23.966l28.643 16.497v-24.278z"/><path d="m974.146 94.855v23.655l28.643 16.497v-23.655z"/><path d="m974.146 95.478v23.032l28.643 16.497v-23.033z"/><path d="m974.146 96.1v22.41l28.643 16.497v-22.41z"/><path d="m974.146 96.723v21.787l28.643 16.497v-21.788z"/><path d="m974.146 97.345v21.165l28.643 16.497v-21.165z"/><path d="m974.146 97.968v20.542l28.643 16.497v-20.854z"/><path d="m974.146 98.279v20.231l28.643 16.497v-20.232z"/><path d="m974.146 98.901v19.61l28.643 16.496v-19.61z"/><path d="m974.146 99.524v18.986l28.643 16.497v-18.987z"/><path d="m974.146 100.146v18.364l28.643 16.497v-18.364z"/><path d="m974.146 100.769v17.741l28.643 16.497v-17.742z"/><path d="m974.146 101.391v17.12l28.643 16.496v-17.43z"/><path d="m974.146 102.014v16.496l28.643 16.497v-16.808z"/><path d="m974.146 102.325v16.185l28.643 16.497v-16.185z"/><path d="m974.146 102.948v15.562l28.643 16.497v-15.563z"/><path d="m974.146 103.57v14.94l28.643 16.497v-14.94z"/><path d="m974.146 104.193v14.317l28.643 16.497v-14.318z"/><path d="m974.146 104.815v13.695l28.643 16.497v-13.695z"/><path d="m974.146 105.438v13.072l28.643 16.497v-13.384z"/><path d="m974.146 105.749v12.761l28.643 16.497v-12.761z"/><path d="m974.146 106.372v12.138l28.643 16.497v-12.139z"/><path d="m974.146 106.994v11.516l28.643 16.497v-11.517z"/><path d="m974.146 107.617v10.893l28.643 16.497v-10.894z"/><path d="m974.146 108.24v10.27l28.643 16.497v-10.271z"/><path d="m974.146 108.862v9.648l28.643 16.497v-9.96z"/><path d="m974.146 109.173v9.337l28.643 16.497v-9.338z"/><path d="m974.146 109.795v8.715l28.643 16.497v-8.715z"/><path d="m974.146 110.418v8.092l28.643 16.497v-8.093z"/><path d="m974.146 111.04v7.47l28.643 16.497v-7.47z"/><path d="m974.146 111.663v6.847l28.643 16.497v-6.848z"/><path d="m974.146 112.285v6.225l28.643 16.497v-6.536z"/><path d="m974.146 112.908v5.602l28.643 16.497v-5.914z"/><path d="m974.146 113.22v5.29l28.643 16.497v-5.291z"/><path d="m974.146 113.842v4.668l28.643 16.497v-4.669z"/><path d="m974.146 114.464v4.046l28.643 16.497v-4.046z"/><path d="m974.146 115.087v3.423l28.643 16.497v-3.424z"/></g><g fill="#5269ff" fill-rule="nonzero" opacity=".21"><path d="m1031.433 85.829v32.681l-28.332 16.497v-32.682z"/><path d="m1031.433 86.451v32.06l-28.332 16.496v-32.06z"/><path d="m1031.433 87.074v31.436l-28.332 16.497v-31.748z"/><path d="m1031.433 87.385v31.125l-28.332 16.497v-31.125z"/><path d="m1031.433 88.008v30.502l-28.332 16.497v-30.503z"/><path d="m1031.433 88.63v29.88l-28.332 16.497v-29.88z"/><path d="m1031.433 89.253v29.257l-28.332 16.497v-29.258z"/><path d="m1031.433 89.875v28.635l-28.332 16.497v-28.635z"/><path d="m1031.433 90.498v28.012l-28.332 16.497v-28.324z"/><path d="m1031.433 91.12v27.39l-28.332 16.497v-27.702z"/><path d="m1031.433 91.431v27.08l-28.332 16.496v-27.08z"/><path d="m1031.433 92.054v26.456l-28.332 16.497v-26.457z"/><path d="m1031.433 92.676v25.834l-28.332 16.497v-25.834z"/><path d="m1031.433 93.299v25.211l-28.332 16.497v-25.212z"/><path d="m1031.433 93.921v24.59l-28.332 16.496v-24.59z"/><path d="m1031.433 94.544v23.966l-28.332 16.497v-24.278z"/><path d="m1031.433 94.855v23.655l-28.332 16.497v-23.655z"/><path d="m1031.433 95.478v23.032l-28.332 16.497v-23.033z"/><path d="m1031.433 96.1v22.41l-28.332 16.497v-22.41z"/><path d="m1031.433 96.723v21.787l-28.332 16.497v-21.788z"/><path d="m1031.433 97.345v21.165l-28.332 16.497v-21.165z"/><path d="m1031.433 97.968v20.542l-28.332 16.497v-20.854z"/><path d="m1031.433 98.279v20.231l-28.332 16.497v-20.232z"/><path d="m1031.433 98.901v19.61l-28.332 16.496v-19.61z"/><path d="m1031.433 99.524v18.986l-28.332 16.497v-18.987z"/><path d="m1031.433 100.146v18.364l-28.332 16.497v-18.364z"/><path d="m1031.433 100.769v17.741l-28.332 16.497v-17.742z"/><path d="m1031.433 101.391v17.12l-28.332 16.496v-17.43z"/><path d="m1031.433 102.014v16.496l-28.332 16.497v-16.808z"/><path d="m1031.433 102.325v16.185l-28.332 16.497v-16.185z"/><path d="m1031.433 102.948v15.562l-28.332 16.497v-15.563z"/><path d="m1031.433 103.57v14.94l-28.332 16.497v-14.94z"/><path d="m1031.433 104.193v14.317l-28.332 16.497v-14.318z"/><path d="m1031.433 104.815v13.695l-28.332 16.497v-13.695z"/><path d="m1031.433 105.438v13.072l-28.332 16.497v-13.384z"/><path d="m1031.433 105.749v12.761l-28.332 16.497v-12.761z"/><path d="m1031.433 106.372v12.138l-28.332 16.497v-12.139z"/><path d="m1031.433 106.994v11.516l-28.332 16.497v-11.517z"/><path d="m1031.433 107.617v10.893l-28.332 16.497v-10.894z"/><path d="m1031.433 108.24v10.27l-28.332 16.497v-10.271z"/><path d="m1031.433 108.862v9.648l-28.332 16.497v-9.96z"/><path d="m1031.433 109.173v9.337l-28.332 16.497v-9.338z"/><path d="m1031.433 109.795v8.715l-28.332 16.497v-8.715z"/><path d="m1031.433 110.418v8.092l-28.332 16.497v-8.093z"/><path d="m1031.433 111.04v7.47l-28.332 16.497v-7.47z"/><path d="m1031.433 111.663v6.847l-28.332 16.497v-6.848z"/><path d="m1031.433 112.285v6.225l-28.332 16.497v-6.536z"/><path d="m1031.433 112.908v5.602l-28.332 16.497v-5.914z"/><path d="m1031.433 113.22v5.29l-28.332 16.497v-5.291z"/><path d="m1031.433 113.842v4.668l-28.332 16.497v-4.669z"/><path d="m1031.433 114.464v4.046l-28.332 16.497v-4.046z"/><path d="m1031.433 115.087v3.423l-28.332 16.497v-3.424z"/></g><path d="m40.785 11.107c-3.113-1.867-8.094-1.867-11.208 0l-29.577 9.96v6.848c0 2.179 1.245 4.046 2.802 5.292l26.464 15.873c3.113 1.868 8.095 1.868 11.208 0l26.464-15.25c1.868-.934 3.113-3.113 3.113-5.291v-7.782l-29.266-9.649z" fill="url(#d)" transform="translate(967.92 66.317)"/><path d="m1008.705 68.399c-3.114-1.868-8.095-1.868-11.208 0l-27.087 15.561c-3.113 1.868-3.113 4.67 0 6.537l27.087 15.562c3.113 1.868 8.094 1.868 11.208 0l27.086-15.562c3.114-1.868 3.114-4.67 0-6.537l-27.086-15.56z" fill="#d9e6ff" fill-rule="nonzero"/><path d="m1004.969 80.849c-.934-.623-2.802-.623-3.736 0l-9.34 5.291c-.934.623-.934 1.556 0 2.179l9.34 5.291c.934.623 2.802.623 3.736 0l9.34-5.291c.934-.623.934-1.556 0-2.179z" fill="#6b8bf5" fill-rule="nonzero"/><path d="m991.893 88.319.31.311 9.03-4.98c.934-.623 2.802-.623 3.736 0l9.029 4.98.31-.311c.935-.623.935-1.556 0-2.179l-9.34-5.291c-.933-.623-2.801-.623-3.735 0l-9.34 5.291c-.934.623-.934 1.556 0 2.179z" fill="#fff" fill-rule="nonzero"/><path d="m67.872 55.306-27.087 15.562c-3.113 1.868-8.094 1.868-11.208 0l-27.086-15.562c-1.557-.934-2.181-2.18-2.181-3.113v6.848c0 2.178 1.246 4.046 2.802 5.29l26.464 15.875c3.114 1.867 8.095 1.867 11.208 0l26.466-15.252c1.868-.933 3.113-3.112 3.113-5.29v-7.782c0 1.245-.934 2.49-2.49 3.424z" fill="url(#e)" transform="translate(967.92 66.317)"/><path d="m62.268 40.988-22.418 13.072c-2.49 1.556-6.85 1.556-9.34 0l-22.415-13.072c-1.246-.623-1.868-1.556-1.868-2.801v5.602c0 1.868.934 3.424 2.49 4.358l21.794 13.072c2.49 1.557 6.85 1.557 9.34 0l21.794-12.45c1.557-.934 2.49-2.49 2.49-4.357v-6.225c0 1.245-.622 2.178-1.867 2.8z" fill="url(#f)" fill-opacity=".4" transform="translate(967.92 66.317)"/><path d="m15.567 4.571c-1.245-.622-3.113-.622-4.359 0l-11.208 3.735v2.49c0 .934.311 1.556 1.245 1.868l9.963 5.914c1.246.622 3.114.622 4.359 0l9.963-5.603c.622-.311 1.245-1.245 1.245-1.868v-2.8l-11.208-3.737z" fill="url(#f)" transform="translate(989.713 69.43)"/><path d="m1005.28 70.577c-1.245-.622-3.113-.622-4.359 0l-10.274 5.914c-1.245.623-1.245 1.868 0 2.49l10.274 5.914c1.246.623 3.114.623 4.36 0l10.273-5.914c1.246-.622 1.246-1.867 0-2.49z" fill="#fff" fill-rule="nonzero"/><path d="m68.201 54.897-27.086 15.562c-3.114 1.868-8.095 1.868-11.208 0l-27.087-15.562c-1.556-.934-2.18-2.18-2.18-3.113v6.848c0 2.178 1.246 4.046 2.803 5.291l26.464 15.874c3.113 1.867 8.094 1.867 11.208 0l26.464-15.252c1.868-.933 3.113-3.112 3.113-5.29v-7.782c0 1.245-.934 2.49-2.49 3.424z" fill="url(#f)" transform="translate(788.913 -80.075)"/><g fill="#5269ff" fill-rule="nonzero" opacity=".21"><path d="m1057.792 172.268v41.589l35.911 20.67v-41.34z"/><path d="m1057.792 173.016v40.84l35.911 20.67v-40.592z"/><path d="m1057.792 173.763v40.094l35.911 20.67v-39.847z"/><path d="m1057.792 174.51v39.347l35.911 20.67v-39.099z"/><path d="m1057.792 175.257v38.6l35.911 20.67v-38.6z"/><path d="m1057.792 176.004v37.853l35.911 20.67v-37.853z"/><path d="m1057.792 176.751v37.106l35.911 20.67v-37.107z"/><path d="m1057.792 177.498v36.359l35.911 20.67v-36.36z"/><path d="m1057.792 178.245v35.612l35.911 20.67v-35.612z"/><path d="m1057.792 178.992v34.865l35.911 20.67v-34.865z"/><path d="m1057.792 179.74v34.117l35.911 20.67v-34.118z"/><path d="m1057.792 180.237v33.62l35.911 20.67v-33.37z"/><path d="m1057.792 180.985v32.872l35.911 20.67v-32.624z"/><path d="m1057.792 181.732v32.125l35.911 20.67v-31.877z"/><path d="m1057.792 182.479v31.378l35.911 20.67v-31.13z"/><path d="m1057.792 183.226v30.63l35.911 20.67v-30.63z"/><path d="m1057.792 183.973v29.884l35.911 20.67v-29.884z"/><path d="m1057.792 184.72v29.137l35.911 20.67v-29.137z"/></g><g fill="#5269ff" fill-rule="nonzero" opacity=".21"><path d="m1130.114 172.268v41.589l-35.912 20.67v-41.34z"/><path d="m1130.114 173.016v40.84l-35.912 20.67v-40.592z"/><path d="m1130.114 173.763v40.094l-35.912 20.67v-39.847z"/><path d="m1130.114 174.51v39.347l-35.912 20.67v-39.099z"/><path d="m1130.114 175.257v38.6l-35.912 20.67v-38.6z"/><path d="m1130.114 176.004v37.853l-35.912 20.67v-37.853z"/><path d="m1130.114 176.751v37.106l-35.912 20.67v-37.107z"/><path d="m1130.114 177.498v36.359l-35.912 20.67v-36.36z"/><path d="m1130.114 178.245v35.612l-35.912 20.67v-35.612z"/><path d="m1130.114 178.992v34.865l-35.912 20.67v-34.865z"/><path d="m1130.114 179.74v34.117l-35.912 20.67v-34.118z"/><path d="m1130.114 180.237v33.62l-35.912 20.67v-33.37z"/><path d="m1130.114 180.985v32.872l-35.912 20.67v-32.624z"/><path d="m1130.114 181.732v32.125l-35.912 20.67v-31.877z"/><path d="m1130.114 182.479v31.378l-35.912 20.67v-31.13z"/><path d="m1130.114 183.226v30.63l-35.912 20.67v-30.63z"/><path d="m1130.114 183.973v29.884l-35.912 20.67v-29.884z"/><path d="m1130.114 184.72v29.137l-35.912 20.67v-29.137z"/></g><path d="m52.136 13.37c-3.99-2.242-10.225-2.242-14.215 0l-37.408 12.45v8.716c0 2.74 1.497 5.23 3.741 6.475l33.667 20.171c3.99 2.242 10.225 2.242 14.215 0l33.417-19.175c2.245-1.245 3.741-3.984 3.741-6.475v-9.712z" fill="url(#g)" transform="translate(1049.298 148.19)"/><path d="m1101.434 150.105c-3.99-2.242-10.224-2.242-14.215 0l-34.415 19.922c-3.99 2.241-3.99 5.977 0 8.218l34.415 19.923c3.99 2.241 10.225 2.241 14.215 0l34.415-19.923c3.99-2.241 3.99-5.977 0-8.218z" fill="#d9e6ff" fill-rule="nonzero"/><path d="m1097.557 168.09c-1.496-.997-4.489-.997-5.985 0l-14.963 8.466c-1.497.996-1.497 2.49 0 3.487l14.963 8.467c1.496.996 4.489.996 5.985 0l14.963-8.467c1.496-.996 1.496-2.49 0-3.487l-14.963-8.467z" fill="#6b8bf5" fill-rule="nonzero"/><path d="m1076.609 180.043 14.963-7.471c1.496-.996 4.489-.996 5.985 0l14.464 7.969.499-.498c1.496-.996 1.496-2.49 0-3.487l-14.963-8.467c-1.496-.996-4.489-.996-5.985 0l-14.963 8.467c-1.497.996-1.497 2.49 0 3.487z" fill="#fff" fill-rule="nonzero"/><path d="m25.23 6.597c-1.995-.996-4.987-.996-6.982 0l-17.956 5.976v3.985c0 1.494.499 2.49 1.995 2.988l15.96 9.463c1.996.997 4.988.997 6.983 0l15.96-8.965c.998-.498 1.996-1.992 1.996-2.988v-4.483z" fill="url(#h)" transform="translate(1072.327 150.535)"/><path d="m1097.557 151.653c-1.995-.996-4.988-.996-6.983 0l-16.46 9.463c-1.994.997-1.994 2.989 0 3.985l16.46 9.463c1.995.996 4.988.996 6.983 0l16.46-9.463c1.994-.996 1.994-2.988 0-3.985z" fill="#e9f3ff" fill-rule="nonzero"/><path d="m872.059 112.67c-4.982-2.801-12.765-2.801-17.747 0l-42.964 24.9c-4.982 2.802-4.982 7.47 0 10.272l42.964 24.9c4.982 2.801 12.765 2.801 17.747 0l42.964-24.9c4.982-2.801 4.982-7.47 0-10.272z" fill="#d9e6ff" fill-rule="nonzero"/><g fill="#5269ff" fill-rule="nonzero" opacity=".21"><path d="m817.574 91.505v51.668l44.833 25.834v-51.667z"/><path d="m817.574 92.127v51.046l44.833 25.834v-50.734z"/><path d="m817.574 93.061v50.112l44.833 25.834v-49.8z"/><path d="m817.574 93.995v49.178l44.833 25.834v-48.867z"/><path d="m817.574 94.929v48.244l44.833 25.834v-47.933z"/><path d="m817.574 95.862v47.311l44.833 25.834v-47z"/><path d="m817.574 96.796v46.377l44.833 25.834v-46.377z"/><path d="m817.574 97.73v45.443l44.833 25.834v-45.443z"/><path d="m817.574 98.664v44.509l44.833 25.834v-44.51z"/><path d="m817.574 99.597v43.576l44.833 25.834v-43.575z"/><path d="m817.574 100.531v42.642l44.833 25.834v-42.642z"/><path d="m817.574 101.465v41.708l44.833 25.834v-41.707z"/><path d="m817.574 102.087v41.086l44.833 25.834v-40.774z"/><path d="m817.574 103.021v40.152l44.833 25.834v-39.84z"/><path d="m817.574 103.955v39.218l44.833 25.834v-38.907z"/><path d="m817.574 104.889v38.284l44.833 25.834v-37.973z"/><path d="m817.574 105.823v37.35l44.833 25.834v-37.04z"/><path d="m817.574 106.756v36.417l44.833 25.834v-36.417z"/><path d="m817.574 107.69v35.483l44.833 25.834v-35.483z"/><path d="m817.574 108.624v34.549l44.833 25.834v-34.55z"/><path d="m817.574 109.558v33.615l44.833 25.834v-33.615z"/><path d="m817.574 110.491v32.682l44.833 25.834v-32.682z"/><path d="m817.574 111.425v31.748l44.833 25.834v-31.747z"/><path d="m817.574 112.359v30.814l44.833 25.834v-30.814z"/><path d="m817.574 112.981v30.192l44.833 25.834v-29.88z"/><path d="m817.574 113.915v29.258l44.833 25.834v-28.947z"/><path d="m817.574 114.849v28.324l44.833 25.834v-28.013z"/><path d="m817.574 115.783v27.39l44.833 25.834v-27.079z"/><path d="m817.574 116.716v26.457l44.833 25.834v-26.456z"/><path d="m817.574 117.65v25.523l44.833 25.834v-25.523z"/><path d="m817.574 118.584v24.589l44.833 25.834v-24.589z"/><path d="m817.574 119.518v23.655l44.833 25.834v-23.655z"/><path d="m817.574 120.451v22.722l44.833 25.834v-22.721z"/><path d="m817.574 121.385v21.788l44.833 25.834v-21.787z"/><path d="m817.574 122.319v20.854l44.833 25.834v-20.854z"/><path d="m817.574 122.942v20.231l44.833 25.834v-19.92z"/><path d="m817.574 123.875v19.298l44.833 25.834v-18.986z"/><path d="m817.574 124.809v18.364l44.833 25.834v-18.053z"/><path d="m817.574 125.743v17.43l44.833 25.834v-17.119z"/><path d="m817.574 126.677v16.496l44.833 25.834v-16.496z"/><path d="m817.574 127.61v15.563l44.833 25.834v-15.563z"/><path d="m817.574 128.544v14.629l44.833 25.834v-14.629z"/><path d="m817.574 129.478v13.695l44.833 25.834v-13.695z"/><path d="m817.574 130.412v12.761l44.833 25.834v-12.761z"/><path d="m817.574 131.345v11.828l44.833 25.834v-11.827z"/><path d="m817.574 132.28v10.893l44.833 25.834v-10.894z"/><path d="m817.574 132.902v10.271l44.833 25.834v-9.96z"/><path d="m817.574 133.835v9.338l44.833 25.834v-9.026z"/><path d="m817.574 134.77v8.403l44.833 25.834v-8.093z"/><path d="m817.574 135.703v7.47l44.833 25.834v-7.159z"/><path d="m817.574 136.637v6.536l44.833 25.834v-6.536z"/><path d="m817.574 137.57v5.603l44.833 25.834v-5.602z"/></g><g fill="#5269ff" fill-rule="nonzero" opacity=".21"><path d="m907.863 91.505v51.668l-44.833 25.834v-51.667z"/><path d="m907.863 92.127v51.046l-44.833 25.834v-50.734z"/><path d="m907.863 93.061v50.112l-44.833 25.834v-49.8z"/><path d="m907.863 93.995v49.178l-44.833 25.834v-48.867z"/><path d="m907.863 94.929v48.244l-44.833 25.834v-47.933z"/><path d="m907.863 95.862v47.311l-44.833 25.834v-47z"/><path d="m907.863 96.796v46.377l-44.833 25.834v-46.377z"/><path d="m907.863 97.73v45.443l-44.833 25.834v-45.443z"/><path d="m907.863 98.664v44.509l-44.833 25.834v-44.51z"/><path d="m907.863 99.597v43.576l-44.833 25.834v-43.575z"/><path d="m907.863 100.531v42.642l-44.833 25.834v-42.642z"/><path d="m907.863 101.465v41.708l-44.833 25.834v-41.707z"/><path d="m907.863 102.087v41.086l-44.833 25.834v-40.774z"/><path d="m907.863 103.021v40.152l-44.833 25.834v-39.84z"/><path d="m907.863 103.955v39.218l-44.833 25.834v-38.907z"/><path d="m907.863 104.889v38.284l-44.833 25.834v-37.973z"/><path d="m907.863 105.823v37.35l-44.833 25.834v-37.04z"/><path d="m907.863 106.756v36.417l-44.833 25.834v-36.417z"/><path d="m907.863 107.69v35.483l-44.833 25.834v-35.483z"/><path d="m907.863 108.624v34.549l-44.833 25.834v-34.55z"/><path d="m907.863 109.558v33.615l-44.833 25.834v-33.615z"/><path d="m907.863 110.491v32.682l-44.833 25.834v-32.682z"/><path d="m907.863 111.425v31.748l-44.833 25.834v-31.747z"/><path d="m907.863 112.359v30.814l-44.833 25.834v-30.814z"/><path d="m907.863 112.981v30.192l-44.833 25.834v-29.88z"/><path d="m907.863 113.915v29.258l-44.833 25.834v-28.947z"/><path d="m907.863 114.849v28.324l-44.833 25.834v-28.013z"/><path d="m907.863 115.783v27.39l-44.833 25.834v-27.079z"/><path d="m907.863 116.716v26.457l-44.833 25.834v-26.456z"/><path d="m907.863 117.65v25.523l-44.833 25.834v-25.523z"/><path d="m907.863 118.584v24.589l-44.833 25.834v-24.589z"/><path d="m907.863 119.518v23.655l-44.833 25.834v-23.655z"/><path d="m907.863 120.451v22.722l-44.833 25.834v-22.721z"/><path d="m907.863 121.385v21.788l-44.833 25.834v-21.787z"/><path d="m907.863 122.319v20.854l-44.833 25.834v-20.854z"/><path d="m907.863 122.942v20.231l-44.833 25.834v-19.92z"/><path d="m907.863 123.875v19.298l-44.833 25.834v-18.986z"/><path d="m907.863 124.809v18.364l-44.833 25.834v-18.053z"/><path d="m907.863 125.743v17.43l-44.833 25.834v-17.119z"/><path d="m907.863 126.677v16.496l-44.833 25.834v-16.496z"/><path d="m907.863 127.61v15.563l-44.833 25.834v-15.563z"/><path d="m907.863 128.544v14.629l-44.833 25.834v-14.629z"/><path d="m907.863 129.478v13.695l-44.833 25.834v-13.695z"/><path d="m907.863 130.412v12.761l-44.833 25.834v-12.761z"/><path d="m907.863 131.345v11.828l-44.833 25.834v-11.827z"/><path d="m907.863 132.28v10.893l-44.833 25.834v-10.894z"/><path d="m907.863 132.902v10.271l-44.833 25.834v-9.96z"/><path d="m907.863 133.835v9.338l-44.833 25.834v-9.026z"/><path d="m907.863 134.77v8.403l-44.833 25.834v-8.093z"/><path d="m907.863 135.703v7.47l-44.833 25.834v-7.159z"/><path d="m907.863 136.637v6.536l-44.833 25.834v-6.536z"/><path d="m907.863 137.57v5.603l-44.833 25.834v-5.602z"/></g><path d="m82.465 67.883c-4.981-2.801-12.765-2.801-17.746 0l-46.7 15.563v10.894c0 3.423 1.867 6.536 4.67 8.092l42.03 25.212c4.981 2.801 12.765 2.801 17.746 0l41.72-23.967c2.802-1.556 4.67-4.98 4.67-8.092v-12.14z" fill="url(#i)" transform="translate(789.593 10.238)"/><path d="m872.059 63.803c-4.982-2.801-12.765-2.801-17.747 0l-42.964 24.9c-4.982 2.802-4.982 7.47 0 10.272l42.964 24.9c4.982 2.802 12.765 2.802 17.747 0l42.964-24.9c4.982-2.801 4.982-7.47 0-10.271l-42.964-24.9z" fill="#d9e6ff" fill-rule="nonzero"/><path d="m120.672 97.41c.107-20.62-20.724-32.566-20.724-32.566s.86-7.624-6.57-17.447c-7.443-9.837-15.698-11.052-15.818-11.129-.12-.17-4.612-17.992-19.386-26.614h-.001c-14.826-8.651-18.642 5.795-18.642 5.795s-9.52-11.254-18.2-8.722c-8.682 2.533-5.464 15.49-5.464 15.49s-15.784-7.56-15.867 8.322c-.054 10.377 9.082 24.18 18.47 29.658 9.39 5.479 76.615 44.97 85.893 50.385 7.355 4.292 16.234 1.112 16.31-13.172" fill="url(#j)" transform="translate(789.596 10.25)"/><path d="m805.309 32.736s-.93-3.72-.471-7.568a6.587 6.587 0 0 0 -1.418.886l-.012-.07-9.559 5.79c4.684-2.238 11.46.962 11.46.962" fill="#5474d9"/><path d="m878.009 39.878-10.936 6.584c-.055-.084-1.236-4.575-4.247-10.118-3.025-5.531-7.87-12.115-15.28-16.384-14.864-8.58-18.611 5.89-18.611 5.89s-9.577-11.213-18.237-8.635a7.65 7.65 0 0 0 -1.123.458l9.77-5.919a7.765 7.765 0 0 1 2.276-1.123c5.954-1.76 12.338 2.967 15.752 6.1l6.842-4.145c1.444-1.123 3.317-1.927 5.731-1.927 2.318 0 5.136.748 8.536 2.717 14.823 8.538 19.402 26.335 19.527 26.502" fill="#748eed"/><path d="m921.435 100.797c0 8.012-2.79 12.544-6.538 14.234l-8.95 5.31c2.706-2.26 4.552-6.445 4.552-12.96 0-20.612-20.888-32.449-20.888-32.449l10.936-6.709c-.013.083-.013.125-.013.125s20.9 11.837 20.9 32.449" fill="#8faeff"/><path d="m900.547 68.223-10.936 6.71s.819-7.639-6.662-17.424c-7.493-9.8-15.751-10.964-15.876-11.047l10.936-6.584c.11.083 8.383 1.247 15.863 11.047 6.911 9.052 6.732 16.26 6.675 17.298" fill="#8faeff"/><path d="m809.714 19.497c8.629-2.599 18.123 8.558 18.123 8.558s.273-1.035.948-2.383c-1.24-1.389-10.056-10.844-18.094-8.455-3.117.928-4.673 3.2-5.407 5.723.912-1.539 2.31-2.804 4.43-3.443" fill="#e9ebf1"/><path d="m889.609 74.927s.82-7.628-6.66-17.412c-7.492-9.799-15.755-10.971-15.875-11.048-.12-.169-4.704-17.967-19.524-26.513-12.177-7.021-16.888 1.402-18.197 4.686 2.204-3.655 7.154-8.21 17.014-2.524 14.716 8.485 19.22 26.238 19.34 26.406.119.076 8.333 1.221 15.755 10.979 7.411 9.744 6.571 17.361 6.571 17.361s20.745 11.752 20.681 32.337c-.016 5.216-1.215 8.943-3.077 11.385 2.87-2.186 4.864-6.442 4.864-13.198 0-20.621-20.892-32.459-20.892-32.459" fill="#d0d9e6"/><path d="m805.72 35.514s-.286-1.166-.46-2.853c-3.397-1.213-12.897-4.597-15.26 4.156 3.9-6.723 15.72-1.303 15.72-1.303" fill="#e9ebf1"/><path d="m125.43 137.604-42.965 24.9c-4.981 2.802-12.765 2.802-17.746 0l-42.965-24.9c-2.49-1.556-3.736-3.113-3.736-4.98v10.894c0 3.424 1.868 6.536 4.67 8.092l42.031 25.212c4.981 2.801 12.765 2.801 17.746 0l41.72-23.967c2.802-1.556 4.67-4.98 4.67-8.092v-12.14c0 1.557-1.246 3.425-3.425 4.981z" fill="url(#k)" transform="translate(789.593 10.238)"/><path d="m1067.268-33.893c-4.048-2.49-10.897-2.49-14.944 0l-35.804 20.853c-4.048 2.49-4.048 6.225 0 8.715l35.804 20.854c4.047 2.49 10.896 2.49 14.944 0l35.804-20.854c4.047-2.49 4.047-6.225 0-8.715l-35.804-20.854z" fill="#d9e6ff" fill-rule="nonzero"/><g fill="#3c55f9" fill-rule="nonzero" opacity=".21"><path d="m1021.812-51.946v43.264l37.672 21.788v-43.264z"/><path d="m1021.812-51.323v42.641l37.672 21.788v-42.642z"/><path d="m1021.812-50.39v41.708l37.672 21.788v-41.708z"/><path d="m1021.812-49.767v41.085l37.672 21.788v-41.085z"/><path d="m1021.812-48.833v40.151l37.672 21.788v-40.463z"/><path d="m1021.812-48.21v39.528l37.672 21.788v-39.53z"/><path d="m1021.812-47.277v38.595l37.672 21.788v-38.906z"/><path d="m1021.812-46.655v37.973l37.672 21.788v-37.973z"/><path d="m1021.812-46.032v37.35l37.672 21.788v-37.35z"/><path d="m1021.812-45.098v36.416l37.672 21.788v-36.416z"/><path d="m1021.812-44.476v35.794l37.672 21.788v-35.794z"/><path d="m1021.812-43.542v34.86l37.672 21.788v-34.86z"/><path d="m1021.812-42.92v34.238l37.672 21.788v-34.238z"/><path d="m1021.812-41.986v33.304l37.672 21.788v-33.615z"/><path d="m1021.812-41.363v32.681l37.672 21.788v-32.681z"/><path d="m1021.812-40.43v31.748l37.672 21.788v-32.059z"/><path d="m1021.812-39.807v31.125l37.672 21.788v-31.125z"/><path d="m1021.812-39.184v30.502l37.672 21.788v-30.503z"/><path d="m1021.812-38.25v29.568l37.672 21.788v-29.569z"/><path d="m1021.812-37.628v28.946l37.672 21.788v-28.946z"/><path d="m1021.812-36.694v28.012l37.672 21.788v-28.324z"/><path d="m1021.812-36.072v27.39l37.672 21.788v-27.39z"/><path d="m1021.812-35.138v26.456l37.672 21.788v-26.768z"/><path d="m1021.812-34.516v25.834l37.672 21.788v-25.834z"/><path d="m1021.812-33.893v25.211l37.672 21.788v-25.211z"/><path d="m1021.812-32.96v24.278l37.672 21.788v-24.278z"/><path d="m1021.812-32.337v23.655l37.672 21.788v-23.655z"/><path d="m1021.812-31.403v22.721l37.672 21.788v-22.721z"/><path d="m1021.812-30.78v22.098l37.672 21.788v-22.099z"/><path d="m1021.812-29.847v21.165l37.672 21.788v-21.476z"/><path d="m1021.812-29.224v20.542l37.672 21.788v-20.543z"/><path d="m1021.812-28.602v19.92l37.672 21.788v-19.92z"/><path d="m1021.812-27.668v18.986l37.672 21.788v-18.986z"/><path d="m1021.812-27.046v18.364l37.672 21.788v-18.364z"/><path d="m1021.812-26.112v17.43l37.672 21.788v-17.43z"/><path d="m1021.812-25.49v16.808l37.672 21.788v-16.808z"/><path d="m1021.812-24.556v15.874l37.672 21.788v-16.185z"/><path d="m1021.812-23.933v15.251l37.672 21.788v-15.251z"/><path d="m1021.812-23v14.318l37.672 21.788v-14.629z"/><path d="m1021.812-22.377v13.695l37.672 21.788v-13.695z"/><path d="m1021.812-21.754v13.072l37.672 21.788v-13.072z"/><path d="m1021.812-20.82v12.138l37.672 21.788v-12.139z"/><path d="m1021.812-20.198v11.516l37.672 21.788v-11.516z"/><path d="m1021.812-19.264v10.582l37.672 21.788v-10.894z"/><path d="m1021.812-18.642v9.96l37.672 21.788v-9.96z"/><path d="m1021.812-17.708v9.026l37.672 21.788v-9.336z"/><path d="m1021.812-17.085v8.403l37.672 21.788v-8.404z"/><path d="m1021.812-16.463v7.781l37.672 21.788v-7.781z"/><path d="m1021.812-15.53v6.848l37.672 21.788v-6.846z"/><path d="m1021.812-14.907v6.225l37.672 21.788v-6.225z"/><path d="m1021.812-13.973v5.291l37.672 21.788v-5.291z"/><path d="m1021.812-13.35v4.668l37.672 21.788v-4.669z"/></g><g fill="#5269ff" fill-rule="nonzero" opacity=".21"><path d="m1097.468-51.946v43.264l-37.672 21.788v-43.264z"/><path d="m1097.468-51.323v42.641l-37.672 21.788v-42.642z"/><path d="m1097.468-50.39v41.708l-37.672 21.788v-41.708z"/><path d="m1097.468-49.767v41.085l-37.672 21.788v-41.085z"/><path d="m1097.468-48.833v40.151l-37.672 21.788v-40.463z"/><path d="m1097.468-48.21v39.528l-37.672 21.788v-39.53z"/><path d="m1097.468-47.277v38.595l-37.672 21.788v-38.906z"/><path d="m1097.468-46.655v37.973l-37.672 21.788v-37.973z"/><path d="m1097.468-46.032v37.35l-37.672 21.788v-37.35z"/><path d="m1097.468-45.098v36.416l-37.672 21.788v-36.416z"/><path d="m1097.468-44.476v35.794l-37.672 21.788v-35.794z"/><path d="m1097.468-43.542v34.86l-37.672 21.788v-34.86z"/><path d="m1097.468-42.92v34.238l-37.672 21.788v-34.238z"/><path d="m1097.468-41.986v33.304l-37.672 21.788v-33.615z"/><path d="m1097.468-41.363v32.681l-37.672 21.788v-32.681z"/><path d="m1097.468-40.43v31.748l-37.672 21.788v-32.059z"/><path d="m1097.468-39.807v31.125l-37.672 21.788v-31.125z"/><path d="m1097.468-39.184v30.502l-37.672 21.788v-30.503z"/><path d="m1097.468-38.25v29.568l-37.672 21.788v-29.569z"/><path d="m1097.468-37.628v28.946l-37.672 21.788v-28.946z"/><path d="m1097.468-36.694v28.012l-37.672 21.788v-28.324z"/><path d="m1097.468-36.072v27.39l-37.672 21.788v-27.39z"/><path d="m1097.468-35.138v26.456l-37.672 21.788v-26.768z"/><path d="m1097.468-34.516v25.834l-37.672 21.788v-25.834z"/><path d="m1097.468-33.893v25.211l-37.672 21.788v-25.211z"/><path d="m1097.468-32.96v24.278l-37.672 21.788v-24.278z"/><path d="m1097.468-32.337v23.655l-37.672 21.788v-23.655z"/><path d="m1097.468-31.403v22.721l-37.672 21.788v-22.721z"/><path d="m1097.468-30.78v22.098l-37.672 21.788v-22.099z"/><path d="m1097.468-29.847v21.165l-37.672 21.788v-21.476z"/><path d="m1097.468-29.224v20.542l-37.672 21.788v-20.543z"/><path d="m1097.468-28.602v19.92l-37.672 21.788v-19.92z"/><path d="m1097.468-27.668v18.986l-37.672 21.788v-18.986z"/><path d="m1097.468-27.046v18.364l-37.672 21.788v-18.364z"/><path d="m1097.468-26.112v17.43l-37.672 21.788v-17.43z"/><path d="m1097.468-25.49v16.808l-37.672 21.788v-16.808z"/><path d="m1097.468-24.556v15.874l-37.672 21.788v-16.185z"/><path d="m1097.468-23.933v15.251l-37.672 21.788v-15.251z"/><path d="m1097.468-23v14.318l-37.672 21.788v-14.629z"/><path d="m1097.468-22.377v13.695l-37.672 21.788v-13.695z"/><path d="m1097.468-21.754v13.072l-37.672 21.788v-13.072z"/><path d="m1097.468-20.82v12.138l-37.672 21.788v-12.139z"/><path d="m1097.468-20.198v11.516l-37.672 21.788v-11.516z"/><path d="m1097.468-19.264v10.582l-37.672 21.788v-10.894z"/><path d="m1097.468-18.642v9.96l-37.672 21.788v-9.96z"/><path d="m1097.468-17.708v9.026l-37.672 21.788v-9.336z"/><path d="m1097.468-17.085v8.403l-37.672 21.788v-8.404z"/><path d="m1097.468-16.463v7.781l-37.672 21.788v-7.781z"/><path d="m1097.468-15.53v6.848l-37.672 21.788v-6.846z"/><path d="m1097.468-14.907v6.225l-37.672 21.788v-6.225z"/><path d="m1097.468-13.973v5.291l-37.672 21.788v-5.291z"/><path d="m1097.468-13.35v4.668l-37.672 21.788v-4.669z"/></g><path d="m90.306 76.035-35.804 20.855c-4.047 2.49-10.896 2.49-14.944 0l-35.804-20.855c-2.18-1.245-3.113-2.8-3.113-4.357v9.026c0 2.801 1.557 5.292 3.736 6.848l35.181 21.165c4.048 2.49 10.897 2.49 14.944 0l34.87-19.92c2.491-1.556 4.048-4.046 4.048-6.848v-9.96c-.312 1.245-1.246 2.801-3.114 4.046z" fill="url(#l)" transform="translate(1013.077 -80.67)"/></g></g></svg>