<svg height="18" viewBox="0 0 18 18" width="18" xmlns="http://www.w3.org/2000/svg"><g fill="none" fill-rule="evenodd"><path d="m15.508.024a2.5 2.5 0 0 1 2.492 2.502l-.024 12.982a2.5 2.5 0 0 1 -2.502 2.492l-12.982-.024a2.5 2.5 0 0 1 -2.492-2.502l.024-12.982a2.5 2.5 0 0 1 2.502-2.492z" fill="#42c47f" fill-rule="nonzero"/><path d="m12.496 8.507-2.996-.005.006-2.996a.5.5 0 0 0 -.999-.002l-.005 2.996-2.996-.006a.5.5 0 0 0 -.002.999l2.996.005-.006 2.996a.5.5 0 0 0 .999.002l.005-2.996 2.996.006a.5.5 0 1 0 .002-.999z" fill="#fff" stroke="#fff" stroke-width=".5"/></g></svg>