<svg height="20" viewBox="0 0 20 20" width="20" xmlns="http://www.w3.org/2000/svg" xmlns:xlink="http://www.w3.org/1999/xlink"><linearGradient id="a" x1="0%" x2="99.393%" y1="32.569%" y2="32.569%"><stop offset="0" stop-color="#5269ff"/><stop offset="1" stop-color="#4890ff"/></linearGradient><g fill="none" fill-rule="evenodd"><circle cx="9.879" cy="9.879" fill="#f2f5ff" fill-rule="nonzero" r="9.375"/><path d="m16.846 2.72-.085-.08a9.961 9.961 0 0 0 -6.761-2.64c-5.514 0-10 4.486-10 10s4.486 10 10 10 10-4.486 10-10a9.971 9.971 0 0 0 -3.154-7.28zm2.258 7.28a9.056 9.056 0 0 1 -1.858 5.504l-1.805.057a9.31 9.31 0 0 1 -.645-.983l1.714.146.051-.595-2.09-.178a9.29 9.29 0 0 1 -.498-1.296l1.631.764.253-.54-2.075-.972a9.235 9.235 0 0 1 -.166-1.113l1.254.956.362-.475-1.65-1.258v-.017c0-.442.032-.88.094-1.314l.846 1.3.5-.325-1.184-1.82c.09-.369.2-.73.333-1.085l.552 1.384.555-.221-.774-1.94a9.32 9.32 0 0 1 .634-1.112l.237 1.753.592-.08-.32-2.366c.206-.254.427-.498.66-.73l.04.037.222 1.646.592-.08-.108-.796a9.06 9.06 0 0 1 2.051 5.749zm-2.796 6.556a9.357 9.357 0 0 1 -.392-.413l.821-.026a9.095 9.095 0 0 1 -.43.439zm-.504.342.06.058c-.019.017-.037.034-.057.05zm-12.607-12.94-.148 1.089.592.08.207-1.527c.244.255.472.524.684.803l-.289 2.137.592.08.2-1.483c.216.349.407.711.574 1.084l-.677 1.697.555.221.44-1.105c.117.342.213.691.288 1.046l-1.027 1.58.5.326.67-1.03a9.213 9.213 0 0 1 .058 1.222l-1.436 1.097.362.475 1.026-.783a9.254 9.254 0 0 1 -.172 1.05l-1.842.861.253.541 1.386-.649c-.13.41-.287.812-.47 1.2l-1.873.16.05.594 1.495-.127c-.19.331-.4.651-.63.958l-1.815-.057a9.057 9.057 0 0 1 -1.854-5.498c0-2.317.87-4.433 2.3-6.041zm.06 12.153.833.026c-.128.144-.26.283-.398.42a9.216 9.216 0 0 1 -.435-.446zm1.141 1.058a9.228 9.228 0 0 1 -.268-.218c.094-.094.194-.184.284-.282zm.584.423.053-1.67c.196-.26.378-.53.547-.808l.105 1.24.595-.051-.184-2.158c.154-.331.29-.671.405-1.017l.53 1.133.542-.253-.822-1.755c.107-.457.183-.923.224-1.395l.915 1.2.475-.363-1.352-1.772a9.773 9.773 0 0 0 -.103-1.338l1.283.834.325-.5-1.76-1.146a9.86 9.86 0 0 0 -.385-1.262l1.46.582.221-.554-2.013-.803a9.898 9.898 0 0 0 -.477-.876l1.293.175.08-.592-1.815-.245a9.89 9.89 0 0 0 -.666-.819l1.207.163.08-.591-1.278-.173a9.056 9.056 0 0 1 5.533-1.882c2.095 0 4.025.712 5.565 1.906l-1.099.148.08.592.967-.13a9.89 9.89 0 0 0 -.66.817l-1.581.214.08.591 1.064-.143a9.95 9.95 0 0 0 -.507.947l-1.754.7.221.555 1.213-.484c-.158.43-.287.873-.384 1.324l-1.515.985.325.5 1.052-.683a9.795 9.795 0 0 0 -.08 1.46l-1.144 1.5.475.362.729-.956c.055.489.147.971.274 1.443l-.686 1.464.541.253.41-.877c.142.385.307.761.494 1.126l-.152 1.792.595.051.08-.946c.18.274.374.54.58.795l.04 1.248a9.046 9.046 0 0 1 -5.223 1.654 9.05 9.05 0 0 1 -5.018-1.512z" fill="url(#a)"/></g></svg>