<svg height="20" viewBox="0 0 20 20" width="20" xmlns="http://www.w3.org/2000/svg" xmlns:xlink="http://www.w3.org/1999/xlink"><linearGradient id="a" x1="0%" x2="99.393%" y1="32.569%" y2="32.569%"><stop offset="0" stop-color="#5269ff"/><stop offset="1" stop-color="#4890ff"/></linearGradient><g fill="none" fill-rule="evenodd"><path d="m9.97 0c-5.496 0-9.97 4.473-9.97 9.97 0 5.499 4.473 9.971 9.97 9.971 5.499 0 9.971-4.472 9.971-9.97s-4.471-9.971-9.97-9.971z" fill="#f2f5ff"/><g fill="url(#a)"><path d="m18.763 9.047h-6.533a9.522 9.522 0 0 1 3.224-6.87 9.395 9.395 0 0 1 3.31 6.87z" transform="translate(.606 .606)"/><path d="m9.047 9.55v9.046a9.234 9.234 0 0 1 -5.194-1.803 10.097 10.097 0 0 0 3.357-7.244h1.838zm-5.194-7.747a9.232 9.232 0 0 1 5.194-1.803v9.047h-1.838a10.098 10.098 0 0 0 -3.356-7.244zm5.864 7.747h1.837a10.098 10.098 0 0 0 3.356 7.243 9.233 9.233 0 0 1 -5.193 1.803v-9.047zm0-.503v-9.047a9.234 9.234 0 0 1 5.193 1.803 10.098 10.098 0 0 0 -3.356 7.244z" transform="translate(.606 .606)"/><path d="m3.309 2.178a9.521 9.521 0 0 1 3.225 6.869h-6.534a9.395 9.395 0 0 1 3.309-6.87zm-3.309 7.372h6.534a9.521 9.521 0 0 1 -3.225 6.868 9.395 9.395 0 0 1 -3.309-6.869zm15.454 6.868a9.52 9.52 0 0 1 -3.224-6.869h6.533a9.395 9.395 0 0 1 -3.309 6.869z" transform="translate(.606 .606)"/></g></g></svg>