<svg height="19" viewBox="0 0 19 19" width="19" xmlns="http://www.w3.org/2000/svg"><g fill="#4853ff" fill-rule="evenodd"><path d="m9.514 18.968a.423.423 0 0 1 -.35-.192l-5.964-8.994a.469.469 0 0 1 0-.515l5.965-8.994a.427.427 0 0 1 .698 0l5.966 8.994a.469.469 0 0 1 0 .515l-5.966 8.994a.42.42 0 0 1 -.349.192zm-5.446-9.444 5.446 8.21 5.446-8.21-5.446-8.21z" fill-rule="nonzero"/><path d="m9.514 13.121a.416.416 0 0 1 -.19-.047l-5.968-3.148a.454.454 0 0 1 -.235-.402c0-.17.091-.326.235-.402l5.966-3.148a.407.407 0 0 1 .381 0l5.966 3.148a.452.452 0 0 1 .236.402c0 .17-.09.326-.235.402l-5.966 3.148a.416.416 0 0 1 -.19.047zm-5.013-3.597 5.013 2.645 5.013-2.645-5.013-2.645z" fill-rule="nonzero"/><path d="m9.514 18.968a.438.438 0 0 1 -.426-.45v-17.988c0-.248.191-.45.426-.45s.426.202.426.45v17.988c0 .248-.19.45-.426.45z"/></g></svg>