<svg height="20" viewBox="0 0 21 20" width="21" xmlns="http://www.w3.org/2000/svg" xmlns:xlink="http://www.w3.org/1999/xlink"><linearGradient id="a" x1="0%" x2="99.393%" y1="32.569%" y2="32.569%"><stop offset="0" stop-color="#5269ff"/><stop offset="1" stop-color="#4890ff"/></linearGradient><g fill="url(#a)" fill-rule="evenodd"><path d="m15.462 15.452c-1.009 0-1.83-.842-1.83-1.877v-3.115c0-1.035.821-1.877 1.83-1.877h4.769c.029 0 .058.001.086.003v-3.104c0-.8-.632-1.447-1.411-1.447h-17.495c-.78 0-1.411.648-1.411 1.447v13.071c0 .8.632 1.447 1.411 1.447h17.495c.78 0 1.411-.648 1.411-1.447v-3.103a1.803 1.803 0 0 1 -.086.003h-4.769z"/><path d="m20.186 9.65h-4.69a.824.824 0 0 0 -.813.834v3.067c0 .461.364.835.814.835h4.69c.449 0 .813-.374.813-.835v-3.067a.824.824 0 0 0 -.814-.835zm-3.073 3.572c-.649 0-1.175-.539-1.175-1.205 0-.665.526-1.204 1.175-1.204.648 0 1.174.539 1.174 1.204 0 .666-.526 1.205-1.174 1.205z"/><path d="m16.501 1.249a1.83 1.83 0 0 0 -2.309-1.157l-7.192 2.364h9.902l-.4-1.207z"/></g></svg>