<svg height="33" viewBox="0 0 164 33" width="164" xmlns="http://www.w3.org/2000/svg"><g fill="none" fill-rule="evenodd"><path d="m16.5 0c-9.113 0-16.5 7.387-16.5 16.5s7.387 16.5 16.5 16.5 16.5-7.387 16.5-16.5a16.5 16.5 0 0 0 -16.5-16.5zm6.786 23.392-6.895 3.987v.001h-.003v-.001l-6.898-3.989v-13.796l.007.004 6.89-3.978 4.42 2.468.002-.002v6.23l-2.152-1.236v-3.753l-2.269-1.293-4.748 2.746v11.437l4.749 2.746 4.748-2.737.023-4.7-6.748-3.915 2.168-1.14 6.722 3.92-.016 7zm-5.597-7.34 1.662.955-4.938 2.811v-5.668l1.734 1.023v1.702z" fill="#6e86f5" fill-rule="nonzero"/><text fill="#5260a9" font-family="Avenir-Heavy, Avenir" font-size="18" font-weight="600"><tspan x="46" y="22">Band Protocol</tspan></text></g></svg>