<svg xmlns="http://www.w3.org/2000/svg" width="19" height="21" viewBox="0 0 19 21">
    <g fill="#FFF" fill-rule="nonzero">
        <path d="M18.942 7.569V4.403c0-1.635-1.397-2.968-3.132-3.014V3.258c0 1.061-.835 1.925-1.862 1.925-1.027 0-1.862-.864-1.862-1.925V1.385h-5.28V3.257c0 1.061-.836 1.925-1.863 1.925-1.027 0-1.862-.864-1.862-1.925V1.392C1.375 1.467.01 2.787.01 4.402V17.62c0 1.836 1.445 3.33 3.222 3.33H15.72c1.777 0 3.223-1.494 3.223-3.33V7.57zm-1.403 10.05c0 1.038-.816 1.882-1.82 1.882H3.233c-1.004 0-1.82-.844-1.82-1.881V7.569h16.126v10.05z"/>
        <path d="M4.133.838v2.419c0 .463.363.838.81.838.448 0 .811-.375.811-.838V.838A.824.824 0 0 0 4.944 0a.825.825 0 0 0-.811.838zM13.948 0a.824.824 0 0 0-.81.838v2.419c0 .463.362.838.81.838.448 0 .811-.375.811-.838V.838c0-.463-.363-.838-.81-.838zM7.13 17.579c.914 0 1.604-.264 2.071-.792.466-.528.7-1.14.7-1.837 0-.662-.2-1.184-.6-1.566a2.58 2.58 0 0 0-.293-.246c-.16-.112-.173-.192-.022-.313.085-.068.169-.15.25-.247.279-.333.418-.742.418-1.227 0-.684-.233-1.23-.7-1.637-.466-.407-1.08-.61-1.84-.61-.41 0-.756.05-1.037.153-.282.102-.525.25-.73.443-.274.272-.475.57-.604.891a4.079 4.079 0 0 0-.175.803c-.023.199.13.36.323.36h.76c.194 0 .343-.163.37-.36.035-.242.111-.445.23-.61.173-.242.444-.363.813-.363.322 0 .57.098.748.295.177.197.265.452.265.766 0 .485-.173.807-.52.965-.15.071-.388.118-.71.14a.378.378 0 0 0-.351.376v.433c0 .2.157.36.35.372.343.018.606.066.789.143.423.182.635.544.635 1.085 0 .409-.114.721-.342.94a1.126 1.126 0 0 1-.803.326c-.5 0-.846-.199-1.036-.596a1.584 1.584 0 0 1-.13-.456c-.027-.198-.18-.362-.374-.362h-.837a.323.323 0 0 0-.325.361c.053.491.172.9.358 1.228.439.761 1.222 1.142 2.349 1.142zM11.487 11.698h1.172c.193 0 .35.162.35.362v4.952c0 .2.157.362.35.362h.904c.193 0 .35-.162.35-.362V9.506c0-.2-.157-.362-.35-.362h-.607c-.193 0-.353.075-.371.166-.01.047-.023.102-.04.163-.069.246-.172.442-.307.59a1.45 1.45 0 0 1-.767.431 4.824 4.824 0 0 1-.685.083.383.383 0 0 0-.35.382v.376c0 .2.158.363.35.363z"/>
    </g>
</svg>
