<svg xmlns="http://www.w3.org/2000/svg" width="606" height="497" viewBox="0 0 606 497">
    <defs>
        <filter id="a" width="162.9%" height="180.1%" x="-31.4%" y="-40%" filterUnits="objectBoundingBox">
            <feOffset dy="35" in="SourceAlpha" result="shadowOffsetOuter1"/>
            <feGaussianBlur in="shadowOffsetOuter1" result="shadowBlurOuter1" stdDeviation="24.5"/>
            <feColorMatrix in="shadowBlurOuter1" result="shadowMatrixOuter1" values="0 0 0 0 0 0 0 0 0 0 0 0 0 0 0 0 0 0 0.5 0"/>
            <feMerge>
                <feMergeNode in="shadowMatrixOuter1"/>
                <feMergeNode in="SourceGraphic"/>
            </feMerge>
        </filter>
    </defs>
    <g fill="none" fill-rule="nonzero" filter="url(#a)" transform="translate(47 12)">
        <path fill="#9FDEF7" d="M155.968 132.07h38.254c14.29-26.216 38.712-46.094 68.024-54.357-5.897-14.318-19.979-24.397-36.419-24.397-4.11 0-8.069.633-11.79 1.798.02-.598.046-1.195.046-1.798 0-29.244-23.714-52.956-52.96-52.956-25.223 0-46.309 17.632-51.642 41.239a31.764 31.764 0 0 0-10.069-1.634c-10.834 0-20.398 5.424-26.133 13.703a40.104 40.104 0 0 0-10.019-1.272c-22 0-39.834 17.835-39.834 39.836 0 21.997 17.835 39.836 39.834 39.836h63.687"/>
        <path fill="#BEEAFC" d="M373.536 107.958c-20.468-21.893-49.607-35.578-81.941-35.578-53.408 0-98.066 37.345-109.362 87.34a67.239 67.239 0 0 0-21.318-3.466c-22.947 0-43.196 11.49-55.341 29.022a84.735 84.735 0 0 0-21.216-2.692C37.768 182.584 0 220.352 0 266.942c0 46.588 37.768 84.361 84.358 84.361h93.011c.196-28.675 23.489-51.858 52.206-51.858a52.19 52.19 0 0 1 15.633 2.382c-.023-.79-.059-1.582-.059-2.382 0-38.787 31.442-70.23 70.228-70.23 33.443 0 61.41 23.387 68.483 54.691a42.052 42.052 0 0 1 13.346-2.17c14.368 0 27.051 7.194 34.655 18.175a52.985 52.985 0 0 1 13.284-1.688c19.231 0 36.057 10.279 45.295 25.637 13.396-14.793 21.557-34.414 21.557-55.94 0-46.056-37.332-83.384-83.384-83.384a83.352 83.352 0 0 0-24.963 3.803c.041-1.263.096-2.529.096-3.803 0-18.832-4.641-36.579-12.845-52.163"/>
        <path fill="#AEE4FF" d="M89.442 182.74a83.946 83.946 0 0 0-5.084-.157C37.768 182.583 0 220.351 0 266.941c0 46.588 37.768 84.361 84.358 84.361h93.011a51.981 51.981 0 0 1 6.464-24.823c-45.989-35.393-79.872-85.724-94.391-143.739z"/>
        <path fill="#83D4ED" d="M81.614 119.026c0-27.362 4.208-53.738 11.999-78.528-8.402 1.551-15.646 6.407-20.333 13.171a40.104 40.104 0 0 0-10.019-1.272c-22 0-39.834 17.835-39.834 39.836 0 21.997 17.835 39.836 39.834 39.836h18.678a266.145 266.145 0 0 1-.325-13.043z"/>
        <path fill="#E4F2F9" d="M445.146 295.991c-4.588 0-9.041.588-13.284 1.688-7.604-10.982-20.287-18.175-34.655-18.175-4.668 0-9.149.769-13.346 2.17-7.074-31.305-35.04-54.691-68.483-54.691-38.786 0-70.228 31.443-70.228 70.23 0 .8.035 1.592.059 2.382a52.19 52.19 0 0 0-15.633-2.382c-28.835 0-52.212 23.373-52.212 52.216 0 28.835 23.378 52.21 52.212 52.21h215.572c29.175 0 52.827-23.651 52.827-52.824 0-29.175-23.654-52.824-52.829-52.824z"/>
        <path fill="#D7EDF9" d="M285.258 282.525c0-18.847 4-36.758 11.185-52.941-29.585 8.267-51.295 35.403-51.295 67.627 0 .8.035 1.592.059 2.382a52.19 52.19 0 0 0-15.633-2.382c-28.835 0-52.212 23.373-52.212 52.216 0 28.835 23.378 52.21 52.212 52.21h132.677c-45.391-20.453-76.993-66.092-76.993-119.112z"/>
    </g>
</svg>
