<svg height="17" viewBox="0 0 20 17" width="20" xmlns="http://www.w3.org/2000/svg"><g fill="none" fill-rule="evenodd"><g stroke="#fff"><path d="m18.5578125.92c-.8051608 0-.8051608 0-2.9911917 0-2.646321 0-2.646321 0-5.75293203 0-3.1837185 0-3.1837185 0-5.87201541 0-2.19287532 0-2.19287532 0-2.89948586 0-.17360551 0-.3221875.15549101-.3221875.35669903v14.44660197c0 .201208.14858199.356699.3221875.356699h17.515625c.1736055 0 .3221875-.155491.3221875-.356699 0-.5265303 0-.5265303 0-2.3334788 0-2.2337546 0-2.2337546 0-4.89431521 0-2.61800873 0-2.61800873 0-4.82936409 0-1.80470199 0-1.80470199 0-2.38944387 0-.20120802-.148582-.35669903-.3221875-.35669903z" fill-rule="nonzero" stroke-width=".84"/><path d="m1.5 5.5h17.1476816" stroke-linecap="square"/><path d="m6.5 1.5v3.57889255" stroke-linecap="square"/><path d="m13.5 1.5v3.57889255" stroke-linecap="square"/></g><path d="m10.6553955 10.8333554 2.3223877-2.33925734c.2440186-.24579109.6397705-.24579109.8839111 0 .2440186.24591405.2440186.64441775 0 .89033179l-2.7644043 2.78436175c-.2440185.2457911-.6398925.2456681-.8839111 0l-1.24108887-1.250104-1.95007322 1.9642384c-.24414062.2457911-.63977053.2457911-.88391115 0-.24401853-.245914-.24401853-.6445407 0-.8903318l2.39208984-2.4094658c.24401856-.2457911.64001466-.24566812.88391113 0z" fill="#fff" fill-rule="nonzero"/></g></svg>