<svg height="18" viewBox="0 0 20 18" width="20" xmlns="http://www.w3.org/2000/svg" xmlns:xlink="http://www.w3.org/1999/xlink"><linearGradient id="a" x1="0%" x2="99.393%" y1="32.569%" y2="32.569%"><stop offset="0" stop-color="#5269ff"/><stop offset="1" stop-color="#4890ff"/></linearGradient><g fill="none" fill-rule="evenodd"><path d="m5.153 13h11.047c2.05-.73 3.201-1.914 3.452-3.555.252-1.641-.817-3.128-3.206-4.461-.152-.828-.32-1.43-.502-1.803-1.129-2.311-2.931-2.901-4.288-2.608-.748.16-1.601-.279-2.377 0-.65.233-1.468.963-2.452 2.19l-2.047-.36c-1.02.363-1.651.712-1.897 1.047-.245.336-.332.847-.26 1.534-.819.69-1.353 1.204-1.603 1.543-.25.34-.534.83-.852 1.473a214.052 214.052 0 0 0 .852 3.352c.35.449.812.776 1.385.983s1.489.428 2.748.665z" fill="url(#a)"/><path d="m16.992 5.263c-.176-2.925-2.649-5.263-5.63-5.263-1.81 0-3.563.865-4.65 2.278-.024-.013-.051-.022-.076-.034a3.076 3.076 0 0 0 -.2-.086 2.948 2.948 0 0 0 -.32-.103c-.039-.01-.078-.021-.119-.03a2.963 2.963 0 0 0 -.223-.04l-.105-.015a3.011 3.011 0 0 0 -.336-.02c-1.654 0-3 1.312-3 2.925 0 .042.003.083.006.124-1.387.737-2.339 2.28-2.339 3.826 0 2.302 1.92 4.175 4.282 4.175h1.718a.33.33 0 0 0 .333-.325.33.33 0 0 0 -.333-.325h-1.718c-1.994 0-3.615-1.581-3.615-3.525 0-1.35.901-2.751 2.144-3.332l.189-.088v-.205c0-.04.003-.08.005-.122l.003-.056-.004-.066a1.096 1.096 0 0 1 -.004-.081c0-1.254 1.047-2.275 2.333-2.275a2.39 2.39 0 0 1 .384.033c.089.015.177.034.263.058l.035.008c.095.029.188.065.279.105l.069.032a2.261 2.261 0 0 1 1.304 2.039c0 .18.149.325.333.325a.33.33 0 0 0 .333-.325 2.89 2.89 0 0 0 -1.066-2.233c.955-1.219 2.529-1.992 4.093-1.992 2.582 0 4.726 1.994 4.95 4.513a6.509 6.509 0 0 0 -1.361.04.326.326 0 0 0 -.28.371.33.33 0 0 0 .38.272c.741-.109 1.514-.006 1.561 0 1.552.287 2.722 1.681 2.722 3.245 0 1.797-1.5 3.259-3.342 3.259h-1.324a.33.33 0 0 0 -.334.325c0 .18.15.325.334.325h1.324c2.21 0 4.01-1.754 4.01-3.91 0-1.783-1.276-3.383-3.008-3.827z" fill="url(#a)"/><g fill-rule="nonzero" transform="translate(5 8)"><circle cx="5" cy="5" fill="#b8c2ff" r="5"/><path d="m6.371 4.09a.157.157 0 0 0 .118.056.157.157 0 0 0 .118-.055.204.204 0 0 0 0-.266l-1.333-1.5a.165.165 0 0 0 -.055-.04.15.15 0 0 0 -.127 0 .167.167 0 0 0 -.054.04l-1.333 1.5a.204.204 0 0 0 0 .266.157.157 0 0 0 .118.055.157.157 0 0 0 .117-.055l1.05-1.18v4.72l-1.05-1.181a.154.154 0 0 0 -.235 0 .204.204 0 0 0 0 .265l1.333 1.5a.165.165 0 0 0 .054.04c.02.01.042.015.064.015a.152.152 0 0 0 .063-.015.167.167 0 0 0 .055-.04l1.333-1.5a.204.204 0 0 0 0-.265.154.154 0 0 0 -.236 0l-1.049 1.18v-4.72l1.05 1.18z" fill="#fff" stroke="#fff" stroke-width=".25"/></g><path d="m0-1h20v20h-20z"/></g></svg>