<svg height="240" viewBox="0 0 1140 240" width="1140" xmlns="http://www.w3.org/2000/svg" xmlns:xlink="http://www.w3.org/1999/xlink"><defs><linearGradient id="a" x1="0%" x2="99.393%" y1="32.569%" y2="32.569%"><stop offset="0" stop-color="#5269ff"/><stop offset="1" stop-color="#4890ff"/></linearGradient><rect id="b" height="240" rx="10" width="1140"/><linearGradient id="c"><stop offset="0" stop-color="#cdddf4"/><stop offset="1" stop-color="#cdbafa"/></linearGradient><linearGradient id="d" x1="96.735%" x2="0%" xlink:href="#c" y1="34.334%" y2="66.761%"/><linearGradient id="e" x1="69.145%" x2="29.517%" xlink:href="#c" y1="3.265%" y2="100%"/><linearGradient id="f" x1="96.735%" x2="0%" xlink:href="#c" y1="34.291%" y2="66.806%"/><linearGradient id="g" x1="69.094%" x2="29.572%" xlink:href="#c" y1="3.265%" y2="100%"/><mask id="h" fill="#fff"><use fill="#fff" fill-rule="evenodd" xlink:href="#b"/></mask></defs><g fill="none" fill-rule="evenodd"><use fill="url(#a)" xlink:href="#b"/><g fill="#fff" mask="url(#h)"><g transform="translate(779 -52)"><circle cx="98" cy="111" opacity=".812" r="22"/><circle cx="80.5" cy="94.5" opacity=".339" r="16.5"/><circle cx="16.5" cy="80.5" opacity=".094" r="16.5"/></g></g><g mask="url(#h)" opacity=".6"><g transform="matrix(.9998477 -.01745241 .01745241 .9998477 68.43365 -30.098405)"><path d="m28.241.87 24.353 15.696-1.228 28.94-24.404-15.696z" stroke="#b5bdfc" stroke-width=".5"/><path d="m26.962 29.81 24.404 15.696-25.888 13.396-24.352-15.697z" stroke="#b5bdfc" stroke-width=".5"/><path d="m28.241.87-1.279 28.94-25.836 13.394 1.227-28.94z" stroke="#b5bdfc" stroke-width=".5"/><g fill="#b6bdfc"><ellipse cx=".87" cy="43.308" rx="1" ry="1"/><ellipse cx="51.366" cy="45.455" rx="1" ry="1"/><ellipse cx="25.376" cy="58.954" rx="1" ry="1"/><ellipse cx="26.809" cy="29.707" rx="1" ry="1"/></g></g><g transform="matrix(.9998477 -.01745241 .01745241 .9998477 17.270871 -2.404155)"><path d="m28.241.87 24.353 15.696-1.228 28.94-24.404-15.696z" stroke="#b5bdfc" stroke-width=".5"/><path d="m26.962 29.81 24.404 15.696-25.888 13.396-24.352-15.697z" stroke="#b5bdfc" stroke-width=".5"/><path d="m28.241.87-1.279 28.94-25.836 13.394 1.227-28.94z" stroke="#b5bdfc" stroke-width=".5"/><g fill="#b6bdfc"><ellipse cx=".87" cy="43.308" rx="1" ry="1"/><ellipse cx="2.353" cy="14.265" rx="1" ry="1"/><ellipse cx="51.366" cy="45.455" rx="1" ry="1"/><ellipse cx="25.376" cy="58.954" rx="1" ry="1"/><ellipse cx="52.696" cy="16.566" rx="1" ry="1"/><ellipse cx="26.809" cy="29.707" rx="1" ry="1"/></g></g><g transform="matrix(.52991926 .8480481 -.8480481 .52991926 54.181538 105.363917)"><path d="m28.241.87 24.353 15.696-1.228 28.94-24.404-15.696z" stroke="#b5bdfc" stroke-width=".5"/><path d="m26.962 29.81 24.404 15.696-25.888 13.396-24.352-15.697z" stroke="#b5bdfc" stroke-width=".5"/><path d="m28.241.87-1.279 28.94-25.836 13.394 1.227-28.94z" stroke="#b5bdfc" stroke-width=".5"/><g fill="#b6bdfc"><ellipse cx=".87" cy="43.308" rx="1" ry="1"/><ellipse cx="2.353" cy="14.265" rx="1" ry="1"/><ellipse cx="51.366" cy="45.455" rx="1" ry="1"/><ellipse cx="28.241" cy=".869" rx="1" ry="1"/><ellipse cx="25.376" cy="58.954" rx="1" ry="1"/><ellipse cx="52.696" cy="16.566" rx="1" ry="1"/><ellipse cx="26.809" cy="29.707" rx="1" ry="1"/></g></g><g transform="matrix(.9998477 -.01745241 .01745241 .9998477 190.288408 189.133824)"><path d="m28.241.87 24.353 15.696-1.228 28.94-24.404-15.696z" stroke="#b5bdfc" stroke-width=".5"/><path d="m26.962 29.81 24.404 15.696-25.888 13.396-24.352-15.697z" stroke="#b5bdfc" stroke-width=".5"/><path d="m28.241.87-1.279 28.94-25.836 13.394 1.227-28.94z" stroke="#b5bdfc" stroke-width=".5"/><g fill="#b6bdfc"><ellipse cx=".87" cy="43.308" rx="1" ry="1"/><ellipse cx="2.353" cy="14.265" rx="1" ry="1"/><ellipse cx="51.366" cy="45.455" rx="1" ry="1"/><ellipse cx="28.241" cy=".869" rx="1" ry="1"/><ellipse cx="52.696" cy="16.566" rx="1" ry="1"/><ellipse cx="26.809" cy="29.707" rx="1" ry="1"/></g></g><g transform="matrix(.9998477 -.01745241 .01745241 .9998477 64.64748 173.261475)"><path d="m28.241.87 24.353 15.696-1.228 28.94-24.404-15.696z" stroke="#b5bdfc" stroke-width=".5"/><path d="m26.962 29.81 24.404 15.696-25.888 13.396-24.352-15.697z" stroke="#b5bdfc" stroke-width=".5"/><path d="m28.241.87-1.279 28.94-25.836 13.394 1.227-28.94z" stroke="#b5bdfc" stroke-width=".5"/><g fill="#b6bdfc"><ellipse cx=".87" cy="43.308" rx="1" ry="1"/><ellipse cx="2.353" cy="14.265" rx="1" ry="1"/><ellipse cx="51.366" cy="45.455" rx="1" ry="1"/><ellipse cx="28.241" cy=".869" rx="1" ry="1"/><ellipse cx="25.376" cy="58.954" rx="1" ry="1"/><ellipse cx="52.696" cy="16.566" rx="1" ry="1"/><ellipse cx="26.809" cy="29.707" rx="1" ry="1"/></g></g><g transform="matrix(.9998477 -.01745241 .01745241 .9998477 191.713152 131.197329)"><path d="m28.241.87 24.353 15.696-1.228 28.94-24.404-15.696z" stroke="#b5bdfc" stroke-width=".5"/><path d="m26.962 29.81 24.404 15.696-25.888 13.396-24.352-15.697z" stroke="#b5bdfc" stroke-width=".5"/><path d="m28.241.87-1.279 28.94-25.836 13.394 1.227-28.94z" stroke="#b5bdfc" stroke-width=".5"/><g fill="#b6bdfc"><ellipse cx=".87" cy="43.308" rx="1" ry="1"/><ellipse cx="2.353" cy="14.265" rx="1" ry="1"/><ellipse cx="51.366" cy="45.455" rx="1" ry="1"/><ellipse cx="28.241" cy=".869" rx="1" ry="1"/><ellipse cx="25.376" cy="58.954" rx="1" ry="1"/><ellipse cx="52.696" cy="16.566" rx="1" ry="1"/><ellipse cx="26.809" cy="29.707" rx="1" ry="1"/></g></g><g transform="matrix(.9998477 -.01745241 .01745241 .9998477 241.244431 161.347756)"><path d="m28.241.87 24.353 15.696-1.228 28.94-24.404-15.696z" stroke="#b5bdfc" stroke-width=".5"/><path d="m26.962 29.81 24.404 15.696-25.888 13.396-24.352-15.697z" stroke="#b5bdfc" stroke-width=".5"/><path d="m28.241.87-1.279 28.94-25.836 13.394 1.227-28.94z" stroke="#b5bdfc" stroke-width=".5"/><g fill="#b6bdfc"><ellipse cx=".87" cy="43.308" rx="1" ry="1"/><ellipse cx="2.353" cy="14.265" rx="1" ry="1"/><ellipse cx="51.366" cy="45.455" rx="1" ry="1"/><ellipse cx="28.241" cy=".869" rx="1" ry="1"/><ellipse cx="25.376" cy="58.954" rx="1" ry="1"/><ellipse cx="52.696" cy="16.566" rx="1" ry="1"/><ellipse cx="26.809" cy="29.707" rx="1" ry="1"/></g></g><g transform="matrix(.9998477 -.01745241 .01745241 .9998477 140.477787 159.108011)"><path d="m28.241.87 24.353 15.696-1.228 28.94-24.404-15.696z" stroke="#b5bdfc" stroke-width=".5"/><path d="m26.962 29.81 24.404 15.696-25.888 13.396-24.352-15.697z" stroke="#b5bdfc" stroke-width=".5"/><path d="m28.241.87-1.279 28.94-25.836 13.394 1.227-28.94z" stroke="#b5bdfc" stroke-width=".5"/><g fill="#b6bdfc"><ellipse cx=".87" cy="43.308" rx="1" ry="1"/><ellipse cx="2.353" cy="14.265" rx="1" ry="1"/><ellipse cx="51.366" cy="45.455" rx="1" ry="1"/><ellipse cx="28.241" cy=".869" rx="1" ry="1"/><ellipse cx="25.376" cy="58.954" rx="1" ry="1"/><ellipse cx="52.696" cy="16.566" rx="1" ry="1"/><ellipse cx="26.809" cy="29.707" rx="1" ry="1"/></g></g><g transform="matrix(.99939083 -.0348995 .0348995 .99939083 64.97831 115.084868)"><path d="m28.076 9.965 17.037 10.993-.87 20.248-17.036-10.994z" fill="#c4d7ff"/><path d="m27.207 30.212 17.036 10.994-18.11 9.356-17.039-10.941z" fill="url(#d)" fill-rule="nonzero" opacity=".2"/><path d="m28.076 9.965-.87 20.247-18.11 9.409.87-20.3z" fill="url(#e)" fill-rule="nonzero" opacity=".3"/><path d="m28.69 1.324 24.353 15.696-1.228 28.94-24.404-15.697zm-1.279 28.94 24.404 15.696-25.888 13.397-24.352-15.697z" stroke="#b5bdfc" stroke-width=".5"/><path d="m28.69 1.324-1.279 28.94-25.836 13.396 1.228-28.94z" stroke="#b5bdfc" stroke-width=".5"/><g fill="#b6bdfc"><ellipse cx="1.319" cy="43.762" rx="1" ry="1"/><ellipse cx="2.803" cy="14.72" rx="1" ry="1"/><ellipse cx="27.258" cy="30.161" rx="1" ry="1"/><ellipse cx="51.815" cy="45.91" rx="1" ry="1"/><ellipse cx="28.69" cy="1.324" rx="1" ry="1"/><ellipse cx="25.825" cy="59.408" rx="1" ry="1"/><ellipse cx="53.145" cy="17.021" rx="1" ry="1"/></g></g><g transform="matrix(.99939083 -.0348995 .0348995 .99939083 40.413272 71.260804)"><path d="m28.076 9.965 17.037 10.993-.87 20.248-17.036-10.994z" fill="#c4d7ff"/><path d="m27.207 30.212 17.036 10.994-18.11 9.356-17.039-10.941z" fill="url(#d)" fill-rule="nonzero" opacity=".2"/><path d="m28.076 9.965-.87 20.247-18.11 9.409.87-20.3z" fill="url(#e)" fill-rule="nonzero" opacity=".3"/><path d="m28.69 1.324 24.353 15.696-1.228 28.94-24.404-15.697zm-1.279 28.94 24.404 15.696-25.888 13.397-24.352-15.697z" stroke="#b5bdfc" stroke-width=".5"/><path d="m28.69 1.324-1.279 28.94-25.836 13.396 1.228-28.94z" stroke="#b5bdfc" stroke-width=".5"/><g fill="#b6bdfc"><ellipse cx="1.319" cy="43.762" rx="1" ry="1"/><ellipse cx="2.803" cy="14.72" rx="1" ry="1"/><ellipse cx="27.258" cy="30.161" rx="1" ry="1"/><ellipse cx="51.815" cy="45.91" rx="1" ry="1"/><ellipse cx="28.69" cy="1.324" rx="1" ry="1"/><ellipse cx="25.825" cy="59.408" rx="1" ry="1"/><ellipse cx="53.145" cy="17.021" rx="1" ry="1"/></g></g><g transform="matrix(.99939083 -.0348995 .0348995 .99939083 90.753665 71.879963)"><path d="m28.076 9.965 17.037 10.993-.87 20.248-17.036-10.994z" fill="#c4d7ff"/><path d="m27.207 30.212 17.036 10.994-18.11 9.356-17.039-10.941z" fill="url(#d)" fill-rule="nonzero" opacity=".2"/><path d="m28.076 9.965-.87 20.247-18.11 9.409.87-20.3z" fill="url(#e)" fill-rule="nonzero" opacity=".3"/><path d="m28.69 1.324 24.353 15.696-1.228 28.94-24.404-15.697zm-1.279 28.94 24.404 15.696-25.888 13.397-24.352-15.697z" stroke="#b5bdfc" stroke-width=".5"/><path d="m28.69 1.324-1.279 28.94-25.836 13.396 1.228-28.94z" stroke="#b5bdfc" stroke-width=".5"/><g fill="#b6bdfc"><ellipse cx="1.319" cy="43.762" rx="1" ry="1"/><ellipse cx="2.803" cy="14.72" rx="1" ry="1"/><ellipse cx="27.258" cy="30.161" rx="1" ry="1"/><ellipse cx="51.815" cy="45.91" rx="1" ry="1"/><ellipse cx="28.69" cy="1.324" rx="1" ry="1"/><ellipse cx="25.825" cy="59.408" rx="1" ry="1"/><ellipse cx="53.145" cy="17.021" rx="1" ry="1"/></g></g><path d="m169.214 110.317 17.41 10.392-.162 20.265-17.41-10.391z" fill="#c4d7ff"/><path d="m27.207 30.212 17.036 10.994-18.11 9.356-17.039-10.941z" fill="url(#d)" fill-rule="nonzero" opacity=".2" transform="matrix(.99939083 -.0348995 .0348995 .99939083 140.807214 101.337907)"/><path d="m28.076 9.965-.87 20.247-18.11 9.409.87-20.3z" fill="url(#e)" fill-rule="nonzero" opacity=".3" transform="matrix(.99939083 -.0348995 .0348995 .99939083 140.807214 101.337907)"/><g transform="matrix(.99939083 -.0348995 .0348995 .99939083 141.271877 101.776436)"><path d="m28.241.87 24.353 15.696-1.228 28.94-24.404-15.696z" stroke="#b5bdfc" stroke-width=".5"/><path d="m26.962 29.81 24.404 15.696-25.888 13.396-24.352-15.697z" stroke="#b5bdfc" stroke-width=".5"/><path d="m28.241.87-1.279 28.94-25.836 13.394 1.227-28.94z" stroke="#b5bdfc" stroke-width=".5"/><g fill="#b6bdfc"><ellipse cx=".87" cy="43.308" rx="1" ry="1"/><ellipse cx="2.353" cy="14.265" rx="1" ry="1"/><ellipse cx="51.366" cy="45.455" rx="1" ry="1"/><ellipse cx="28.241" cy=".869" rx="1" ry="1"/><ellipse cx="25.376" cy="58.954" rx="1" ry="1"/><ellipse cx="52.696" cy="16.566" rx="1" ry="1"/><ellipse cx="26.809" cy="29.707" rx="1" ry="1"/></g></g><g transform="matrix(.99939083 -.0348995 .0348995 .99939083 66.231375 28.058923)"><path d="m28.076 9.965 17.037 10.993-.87 20.248-17.036-10.994z" fill="#c4d7ff"/><path d="m27.207 30.212 17.036 10.994-18.11 9.356-17.039-10.941z" fill="url(#d)" fill-rule="nonzero" opacity=".2"/><path d="m28.076 9.965-.87 20.247-18.11 9.409.87-20.3z" fill="url(#e)" fill-rule="nonzero" opacity=".3"/><path d="m28.69 1.324 24.353 15.696-1.228 28.94-24.404-15.697zm-1.279 28.94 24.404 15.696-25.888 13.397-24.352-15.697z" stroke="#b5bdfc" stroke-width=".5"/><path d="m28.69 1.324-1.279 28.94-25.836 13.396 1.228-28.94z" stroke="#b5bdfc" stroke-width=".5"/><g fill="#b6bdfc"><ellipse cx="1.319" cy="43.762" rx="1" ry="1"/><ellipse cx="2.803" cy="14.72" rx="1" ry="1"/><ellipse cx="27.258" cy="30.161" rx="1" ry="1"/><ellipse cx="51.815" cy="45.91" rx="1" ry="1"/><ellipse cx="28.69" cy="1.324" rx="1" ry="1"/><ellipse cx="25.825" cy="59.408" rx="1" ry="1"/><ellipse cx="53.145" cy="17.021" rx="1" ry="1"/></g></g></g><g mask="url(#h)" opacity=".6"><g transform="matrix(-.9998477 -.01745241 -.01745241 .9998477 1071.534022 -23.957189)"><path d="m28.203.87 24.32 15.696-1.226 28.94-24.371-15.696z" stroke="#b5bdfc" stroke-width=".5"/><path d="m26.926 29.81 24.371 15.696-25.853 13.396-24.32-15.697z" stroke="#b5bdfc" stroke-width=".5"/><path d="m28.203.87-1.277 28.94-25.802 13.394 1.226-28.94z" stroke="#b5bdfc" stroke-width=".5"/><g fill="#b6bdfc"><ellipse cx=".869" cy="43.308" rx="1" ry="1"/><ellipse cx="51.297" cy="45.455" rx="1" ry="1"/><ellipse cx="25.342" cy="58.954" rx="1" ry="1"/><ellipse cx="26.773" cy="29.707" rx="1" ry="1"/></g></g><g transform="matrix(-.9998477 -.01745241 -.01745241 .9998477 1122.627555 3.735863)"><path d="m28.203.87 24.32 15.696-1.226 28.94-24.371-15.696z" stroke="#b5bdfc" stroke-width=".5"/><path d="m26.926 29.81 24.371 15.696-25.853 13.396-24.32-15.697z" stroke="#b5bdfc" stroke-width=".5"/><path d="m28.203.87-1.277 28.94-25.802 13.394 1.226-28.94z" stroke="#b5bdfc" stroke-width=".5"/><g fill="#b6bdfc"><ellipse cx=".869" cy="43.308" rx="1" ry="1"/><ellipse cx="2.35" cy="14.265" rx="1" ry="1"/><ellipse cx="51.297" cy="45.455" rx="1" ry="1"/><ellipse cx="28.203" cy=".869" rx="1" ry="1"/><ellipse cx="25.342" cy="58.954" rx="1" ry="1"/><ellipse cx="52.626" cy="16.566" rx="1" ry="1"/><ellipse cx="26.773" cy="29.707" rx="1" ry="1"/></g></g><g transform="matrix(-.52991926 .8480481 .8480481 .52991926 1085.72867 111.53437)"><path d="m28.203.87 24.32 15.696-1.226 28.94-24.371-15.696z" stroke="#b5bdfc" stroke-width=".5"/><path d="m26.926 29.81 24.371 15.696-25.853 13.396-24.32-15.697z" stroke="#b5bdfc" stroke-width=".5"/><path d="m28.203.87-1.277 28.94-25.802 13.394 1.226-28.94z" stroke="#b5bdfc" stroke-width=".5"/><g fill="#b6bdfc"><ellipse cx=".869" cy="43.308" rx="1" ry="1"/><ellipse cx="2.35" cy="14.265" rx="1" ry="1"/><ellipse cx="51.297" cy="45.455" rx="1" ry="1"/><ellipse cx="28.203" cy=".869" rx="1" ry="1"/><ellipse cx="25.342" cy="58.954" rx="1" ry="1"/><ellipse cx="52.626" cy="16.566" rx="1" ry="1"/><ellipse cx="26.773" cy="29.707" rx="1" ry="1"/></g></g><g transform="matrix(-.9998477 -.01745241 -.01745241 .9998477 949.837511 195.2778)"><path d="m28.203.87 24.32 15.696-1.226 28.94-24.371-15.696z" stroke="#b5bdfc" stroke-width=".5"/><path d="m26.926 29.81 24.371 15.696-25.853 13.396-24.32-15.697z" stroke="#b5bdfc" stroke-width=".5"/><path d="m28.203.87-1.277 28.94-25.802 13.394 1.226-28.94z" stroke="#b5bdfc" stroke-width=".5"/><g fill="#b6bdfc"><ellipse cx=".869" cy="43.308" rx="1" ry="1"/><ellipse cx="2.35" cy="14.265" rx="1" ry="1"/><ellipse cx="51.297" cy="45.455" rx="1" ry="1"/><ellipse cx="28.203" cy=".869" rx="1" ry="1"/><ellipse cx="52.626" cy="16.566" rx="1" ry="1"/><ellipse cx="26.773" cy="29.707" rx="1" ry="1"/></g></g><g transform="matrix(-.9998477 -.01745241 -.01745241 .9998477 1075.31035 179.402535)"><path d="m28.203.87 24.32 15.696-1.226 28.94-24.371-15.696z" stroke="#b5bdfc" stroke-width=".5"/><path d="m26.926 29.81 24.371 15.696-25.853 13.396-24.32-15.697z" stroke="#b5bdfc" stroke-width=".5"/><path d="m28.203.87-1.277 28.94-25.802 13.394 1.226-28.94z" stroke="#b5bdfc" stroke-width=".5"/><g fill="#b6bdfc"><ellipse cx=".869" cy="43.308" rx="1" ry="1"/><ellipse cx="2.35" cy="14.265" rx="1" ry="1"/><ellipse cx="51.297" cy="45.455" rx="1" ry="1"/><ellipse cx="28.203" cy=".869" rx="1" ry="1"/><ellipse cx="25.342" cy="58.954" rx="1" ry="1"/><ellipse cx="52.626" cy="16.566" rx="1" ry="1"/><ellipse cx="26.773" cy="29.707" rx="1" ry="1"/></g></g><g transform="matrix(-.9998477 -.01745241 -.01745241 .9998477 948.416012 137.341368)"><path d="m28.203.87 24.32 15.696-1.226 28.94-24.371-15.696z" stroke="#b5bdfc" stroke-width=".5"/><path d="m26.926 29.81 24.371 15.696-25.853 13.396-24.32-15.697z" stroke="#b5bdfc" stroke-width=".5"/><path d="m28.203.87-1.277 28.94-25.802 13.394 1.226-28.94z" stroke="#b5bdfc" stroke-width=".5"/><g fill="#b6bdfc"><ellipse cx=".869" cy="43.308" rx="1" ry="1"/><ellipse cx="2.35" cy="14.265" rx="1" ry="1"/><ellipse cx="51.297" cy="45.455" rx="1" ry="1"/><ellipse cx="28.203" cy=".869" rx="1" ry="1"/><ellipse cx="25.342" cy="58.954" rx="1" ry="1"/><ellipse cx="52.626" cy="16.566" rx="1" ry="1"/><ellipse cx="26.773" cy="29.707" rx="1" ry="1"/></g></g><g transform="matrix(-.9998477 -.01745241 -.01745241 .9998477 898.950437 167.492945)"><path d="m28.203.87 24.32 15.696-1.226 28.94-24.371-15.696z" stroke="#b5bdfc" stroke-width=".5"/><path d="m26.926 29.81 24.371 15.696-25.853 13.396-24.32-15.697z" stroke="#b5bdfc" stroke-width=".5"/><path d="m28.203.87-1.277 28.94-25.802 13.394 1.226-28.94z" stroke="#b5bdfc" stroke-width=".5"/><g fill="#b6bdfc"><ellipse cx=".869" cy="43.308" rx="1" ry="1"/><ellipse cx="2.35" cy="14.265" rx="1" ry="1"/><ellipse cx="51.297" cy="45.455" rx="1" ry="1"/><ellipse cx="28.203" cy=".869" rx="1" ry="1"/><ellipse cx="25.342" cy="58.954" rx="1" ry="1"/><ellipse cx="52.626" cy="16.566" rx="1" ry="1"/><ellipse cx="26.773" cy="29.707" rx="1" ry="1"/></g></g><g transform="matrix(-.9998477 -.01745241 -.01745241 .9998477 999.582044 165.250852)"><path d="m28.203.87 24.32 15.696-1.226 28.94-24.371-15.696z" stroke="#b5bdfc" stroke-width=".5"/><path d="m26.926 29.81 24.371 15.696-25.853 13.396-24.32-15.697z" stroke="#b5bdfc" stroke-width=".5"/><path d="m28.203.87-1.277 28.94-25.802 13.394 1.226-28.94z" stroke="#b5bdfc" stroke-width=".5"/><g fill="#b6bdfc"><ellipse cx=".869" cy="43.308" rx="1" ry="1"/><ellipse cx="2.35" cy="14.265" rx="1" ry="1"/><ellipse cx="51.297" cy="45.455" rx="1" ry="1"/><ellipse cx="28.203" cy=".869" rx="1" ry="1"/><ellipse cx="25.342" cy="58.954" rx="1" ry="1"/><ellipse cx="52.626" cy="16.566" rx="1" ry="1"/><ellipse cx="26.773" cy="29.707" rx="1" ry="1"/></g></g><g transform="matrix(-.99939083 -.0348995 -.0348995 .99939083 1074.981019 121.224676)"><path d="m28.039 9.965 17.014 10.993-.87 20.248-17.013-10.994z" fill="#c4d7ff"/><path d="m27.17 30.212 17.014 10.994-18.087 9.356-17.014-10.941z" fill="url(#f)" fill-rule="nonzero" opacity=".2"/><path d="m28.039 9.965-.869 20.247-18.087 9.409.869-20.3z" fill="url(#g)" fill-rule="nonzero" opacity=".3"/><path d="m28.652 1.324 24.32 15.697-1.226 28.94-24.372-15.697z" stroke="#b5bdfc" stroke-width=".5"/><path d="m27.374 30.264 24.372 15.696-25.853 13.397-24.32-15.697z" stroke="#b5bdfc" stroke-width=".5"/><path d="m28.652 1.324-1.278 28.94-25.801 13.396 1.226-28.94z" stroke="#b5bdfc" stroke-width=".5"/><g fill="#b6bdfc"><ellipse cx="1.317" cy="43.762" rx="1" ry="1"/><ellipse cx="2.799" cy="14.72" rx="1" ry="1"/><ellipse cx="27.221" cy="30.161" rx="1" ry="1"/><ellipse cx="51.746" cy="45.91" rx="1" ry="1"/><ellipse cx="28.652" cy="1.324" rx="1" ry="1"/><ellipse cx="25.791" cy="59.408" rx="1" ry="1"/><ellipse cx="53.074" cy="17.021" rx="1" ry="1"/></g></g><g transform="matrix(-.99939083 -.0348995 -.0348995 .99939083 1099.51525 77.399515)"><path d="m28.039 9.965 17.014 10.993-.87 20.248-17.013-10.994z" fill="#c4d7ff"/><path d="m27.17 30.212 17.014 10.994-18.087 9.356-17.014-10.941z" fill="url(#f)" fill-rule="nonzero" opacity=".2"/><path d="m28.039 9.965-.869 20.247-18.087 9.409.869-20.3z" fill="url(#g)" fill-rule="nonzero" opacity=".3"/><path d="m28.652 1.324 24.32 15.697-1.226 28.94-24.372-15.697z" stroke="#b5bdfc" stroke-width=".5"/><path d="m27.374 30.264 24.372 15.696-25.853 13.397-24.32-15.697z" stroke="#b5bdfc" stroke-width=".5"/><path d="m28.652 1.324-1.278 28.94-25.801 13.396 1.226-28.94z" stroke="#b5bdfc" stroke-width=".5"/><g fill="#b6bdfc"><ellipse cx="1.317" cy="43.762" rx="1" ry="1"/><ellipse cx="2.799" cy="14.72" rx="1" ry="1"/><ellipse cx="27.221" cy="30.161" rx="1" ry="1"/><ellipse cx="51.746" cy="45.91" rx="1" ry="1"/><ellipse cx="28.652" cy="1.324" rx="1" ry="1"/><ellipse cx="25.791" cy="59.408" rx="1" ry="1"/><ellipse cx="53.074" cy="17.021" rx="1" ry="1"/></g></g><g transform="matrix(-.99939083 -.0348995 -.0348995 .99939083 1049.242263 78.021038)"><path d="m28.039 9.965 17.014 10.993-.87 20.248-17.013-10.994z" fill="#c4d7ff"/><path d="m27.17 30.212 17.014 10.994-18.087 9.356-17.014-10.941z" fill="url(#f)" fill-rule="nonzero" opacity=".2"/><path d="m28.039 9.965-.869 20.247-18.087 9.409.869-20.3z" fill="url(#g)" fill-rule="nonzero" opacity=".3"/><path d="m28.652 1.324 24.32 15.697-1.226 28.94-24.372-15.697z" stroke="#b5bdfc" stroke-width=".5"/><path d="m27.374 30.264 24.372 15.696-25.853 13.397-24.32-15.697z" stroke="#b5bdfc" stroke-width=".5"/><path d="m28.652 1.324-1.278 28.94-25.801 13.396 1.226-28.94z" stroke="#b5bdfc" stroke-width=".5"/><g fill="#b6bdfc"><ellipse cx="1.317" cy="43.762" rx="1" ry="1"/><ellipse cx="2.799" cy="14.72" rx="1" ry="1"/><ellipse cx="27.221" cy="30.161" rx="1" ry="1"/><ellipse cx="51.746" cy="45.91" rx="1" ry="1"/><ellipse cx="28.652" cy="1.324" rx="1" ry="1"/><ellipse cx="25.791" cy="59.408" rx="1" ry="1"/><ellipse cx="53.074" cy="17.021" rx="1" ry="1"/></g></g><path d="m970.885 116.461-17.387 10.393.161 20.266 17.387-10.393z" fill="#c4d7ff"/><path d="m27.17 30.212 17.014 10.994-18.087 9.356-17.014-10.941z" fill="url(#f)" fill-rule="nonzero" opacity=".2" transform="matrix(-.99939083 -.0348995 -.0348995 .99939083 999.254338 107.481314)"/><path d="m28.039 9.965-.869 20.247-18.087 9.409.869-20.3z" fill="url(#g)" fill-rule="nonzero" opacity=".3" transform="matrix(-.99939083 -.0348995 -.0348995 .99939083 999.254338 107.481314)"/><g transform="matrix(-.99939083 -.0348995 -.0348995 .99939083 998.790268 107.919854)"><path d="m28.203.87 24.32 15.696-1.226 28.94-24.371-15.696z" stroke="#b5bdfc" stroke-width=".5"/><path d="m26.926 29.81 24.371 15.696-25.853 13.396-24.32-15.697z" stroke="#b5bdfc" stroke-width=".5"/><path d="m28.203.87-1.277 28.94-25.802 13.394 1.226-28.94z" stroke="#b5bdfc" stroke-width=".5"/><g fill="#b6bdfc"><ellipse cx=".869" cy="43.308" rx="1" ry="1"/><ellipse cx="2.35" cy="14.265" rx="1" ry="1"/><ellipse cx="51.297" cy="45.455" rx="1" ry="1"/><ellipse cx="28.203" cy=".869" rx="1" ry="1"/><ellipse cx="25.342" cy="58.954" rx="1" ry="1"/><ellipse cx="52.626" cy="16.566" rx="1" ry="1"/><ellipse cx="26.773" cy="29.707" rx="1" ry="1"/></g></g><g transform="matrix(-.99939083 -.0348995 -.0348995 .99939083 1073.733745 34.198936)"><path d="m28.039 9.965 17.014 10.993-.87 20.248-17.013-10.994z" fill="#c4d7ff"/><path d="m27.17 30.212 17.014 10.994-18.087 9.356-17.014-10.941z" fill="url(#f)" fill-rule="nonzero" opacity=".2"/><path d="m28.039 9.965-.869 20.247-18.087 9.409.869-20.3z" fill="url(#g)" fill-rule="nonzero" opacity=".3"/><path d="m28.652 1.324 24.32 15.697-1.226 28.94-24.372-15.697z" stroke="#b5bdfc" stroke-width=".5"/><path d="m27.374 30.264 24.372 15.696-25.853 13.397-24.32-15.697z" stroke="#b5bdfc" stroke-width=".5"/><path d="m28.652 1.324-1.278 28.94-25.801 13.396 1.226-28.94z" stroke="#b5bdfc" stroke-width=".5"/><g fill="#b6bdfc"><ellipse cx="1.317" cy="43.762" rx="1" ry="1"/><ellipse cx="2.799" cy="14.72" rx="1" ry="1"/><ellipse cx="27.221" cy="30.161" rx="1" ry="1"/><ellipse cx="51.746" cy="45.91" rx="1" ry="1"/><ellipse cx="28.652" cy="1.324" rx="1" ry="1"/><ellipse cx="25.791" cy="59.408" rx="1" ry="1"/><ellipse cx="53.074" cy="17.021" rx="1" ry="1"/></g></g></g></g></svg>