<svg height="17" viewBox="0 0 20 17" width="20" xmlns="http://www.w3.org/2000/svg" xmlns:xlink="http://www.w3.org/1999/xlink"><linearGradient id="a" x1="0%" x2="99.393%" y1="32.569%" y2="32.569%"><stop offset="0" stop-color="#5269ff"/><stop offset="1" stop-color="#4890ff"/></linearGradient><g fill="none" fill-rule="evenodd"><path d="m19.219 0h-18.439a.779.779 0 0 0 -.78.777v15.446c0 .43.35.777.781.777h18.439a.779.779 0 0 0 .781-.777v-15.446a.779.779 0 0 0 -.782-.777z" fill="url(#a)"/><path d="m19.219 0h-18.439a.779.779 0 0 0 -.78.777v1.763h20v-1.763a.779.779 0 0 0 -.781-.777z" fill="#b8c2ff" fill-rule="nonzero"/><path d="m10.947 9.024 2.445-2.34a.68.68 0 0 1 .93 0 .61.61 0 0 1 0 .89l-2.91 2.785a.68.68 0 0 1 -.93 0l-1.306-1.25-2.053 1.964a.68.68 0 0 1 -.93 0 .61.61 0 0 1 0-.89l2.518-2.41a.68.68 0 0 1 .93 0l1.306 1.25z" fill="#fff" fill-rule="nonzero"/><g fill="url(#a)"><ellipse cx="1.767" cy="1.243" rx="1" ry="1"/><ellipse cx="3.368" cy="1.243" rx="1" ry="1"/><ellipse cx="4.854" cy="1.225" rx="1" ry="1"/></g><path d="m0-2h20v20h-20z"/></g></svg>