<svg height="25" viewBox="0 0 25 25" width="25" xmlns="http://www.w3.org/2000/svg"><g fill="none" fill-rule="evenodd"><circle cx="12.5" cy="12.5" fill="#f7f9ff" r="12.5"/><g fill-rule="nonzero" stroke="#f7f9ff" stroke-width=".25"><path d="m20.375 6.14h-14.75c-.276 0-.5.226-.5.505v11.71c0 .279.224.504.5.504h14.75c.276 0 .5-.225.5-.504v-1.892-3.967-3.914-1.937a.502.502 0 0 0 -.5-.504z" fill="#cbcfe3"/><path d="m11.167 7.15h3.666l.125.125v3.116l-.125.125h-3.666l-.125-.125v-3.116zm-4.917 0h3.667l.125.125v3.116l-.125.125h-3.667l-.125-.125v-3.116zm13.5 10.7h-13.5l-.125-.125v-6.075l.125-.125h13.5l.125.125v6.075zm0-7.334h-3.667l-.125-.125v-3.116l.125-.125h3.667l.125.125v3.116z" fill="#f7f9ff"/><path d="m13.744 14.921h-.177l-1.241-1.25a.497.497 0 0 0 -.707 0l-2.392 2.41a.508.508 0 0 0 0 .714.497.497 0 0 0 .707 0l1.95-1.964h.177l1.241 1.25a.497.497 0 0 0 .707 0l2.764-2.785a.508.508 0 0 0 0-.714.497.497 0 0 0 -.707 0l-2.322 2.34z" fill="#cbcfe3"/></g></g></svg>