<?xml version="1.0" encoding="UTF-8"?>
<svg width="14px" height="11px" viewBox="0 0 14 11" version="1.1" xmlns="http://www.w3.org/2000/svg" xmlns:xlink="http://www.w3.org/1999/xlink">
    <!-- Generator: Sketch 55.2 (78181) - https://sketchapp.com -->
    <title>web-links</title>
    <desc>Created with Sketch.</desc>
    <g id="on-demand" stroke="none" stroke-width="1" fill="none" fill-rule="evenodd">
        <g id="newest-dataset-sport-event-copy-3" transform="translate(-893.000000, -493.000000)" fill="#FFFFFF" fill-rule="nonzero">
            <g id="Group-24" transform="translate(807.000000, 484.000000)">
                <g id="web-links" transform="translate(93.000000, 14.500000) scale(-1, 1) translate(-93.000000, -14.500000) translate(86.000000, 9.000000)">
                    <g id="Group">
                        <path d="M13.4655294,1.81784988 L1.88871324,1.81784988 L2.82105147,0.960435835 C3.03352206,0.765046005 3.05272059,0.42833414 2.86392647,0.208440678 C2.67502941,-0.0115060533 2.34983824,-0.0314285714 2.13726471,0.164067797 L0.192654412,1.95235351 C0.0827132353,2.05340436 0.0198676471,2.19834867 0.0198676471,2.35053753 C0.0198676471,2.50272639 0.0827647059,2.6476707 0.192654412,2.74877482 L2.13726471,4.53700726 C2.23531618,4.62713801 2.35735294,4.67145763 2.47897794,4.67145763 C2.62093382,4.67145763 2.76227206,4.61105085 2.86392647,4.49258111 C3.05272059,4.27268765 3.03352206,3.93597579 2.82105147,3.74053269 L1.88876471,2.88317191 L13.4655294,2.88317191 C13.74975,2.88317191 13.9802353,2.64468765 13.9802353,2.35048426 C13.9802353,2.05633414 13.7498015,1.81784988 13.4655294,1.81784988 Z" id="Path"></path>
                        <path d="M13.8074485,8.22624213 L11.8628382,6.43800969 C11.6503162,6.24261985 11.3249706,6.26254237 11.1361765,6.48238257 C10.9473824,6.70227603 10.9665809,7.03898789 11.1790515,7.23443099 L12.1113382,8.09179177 L0.534470588,8.09179177 C0.25025,8.09179177 0.0197647059,8.33027603 0.0197647059,8.62447942 C0.0197647059,8.91868281 0.25025,9.15716707 0.534470588,9.15716707 L12.1113897,9.15716707 L11.1790515,10.0145811 C10.9665809,10.2099709 10.9434706,10.5503584 11.1361765,10.7665763 C11.3607941,11.0185908 11.6369338,10.9853511 11.8628382,10.8109492 C12.3226765,10.4559661 13.8074485,9.02266344 13.8074485,9.02266344 C13.9173897,8.92161259 13.9802353,8.77666828 13.9802353,8.62447942 C13.9802353,8.47229056 13.9173897,8.32734625 13.8074485,8.22624213 Z" id="Path"></path>
                    </g>
                </g>
            </g>
        </g>
    </g>
</svg>