<svg height="26" viewBox="0 0 14 26" width="14" xmlns="http://www.w3.org/2000/svg" xmlns:xlink="http://www.w3.org/1999/xlink"><linearGradient id="a" x1="0%" x2="99.393%" y1="32.569%" y2="32.569%"><stop offset="0" stop-color="#5269ff"/><stop offset="1" stop-color="#4890ff"/></linearGradient><linearGradient id="b" x1="0%" x2="99.393%" y1="32.569%" y2="32.569%"><stop offset="0" stop-color="#6b8bf5"/><stop offset="1" stop-color="#6bf5cd"/></linearGradient><mask id="c" fill="#fff"><path d="m0 .017h6.34v11.536h-6.34z" fill="#fff" fill-rule="evenodd"/></mask><mask id="d" fill="#fff"><path d="m.014.036h6.34v15.38h-6.34z" fill="#fff" fill-rule="evenodd"/></mask><mask id="e" fill="#fff"><path d="m0 .036h6.34v15.38h-6.34z" fill="#fff" fill-rule="evenodd"/></mask><g fill="none" fill-rule="evenodd"><path d="m6.34 3.862-6.34-3.845 6.34 11.536z" fill="url(#a)" mask="url(#c)" transform="matrix(-1 0 0 1 13.35 14.008)"/><path d="m.583 13.824 6.356 3.85 6.352-3.85-6.357-3.85z" fill="url(#b)" transform="translate(.028 .317)"/><g fill="url(#a)"><path d="m6.988 13.708-6.334 11.535-.001-7.691z" transform="matrix(-1 0 0 1 7.669 .317)"/><path d="m-.002 15.423 6.335-3.844-6.34-11.536z" mask="url(#d)" transform="matrix(-1 0 0 1 7.028 .317)"/><path d="m0 11.571 6.335-11.535.005 15.38z" mask="url(#e)" transform="matrix(-1 0 0 1 13.35 .317)"/></g></g></svg>