<svg height="17" viewBox="0 0 17 17" width="17" xmlns="http://www.w3.org/2000/svg"><g fill="none" stroke="#2741b4" stroke-width=".9" transform="translate(1 1)"><path d="m14.2322115 5.92542302c.4480859.07520368.7739666.46062252.7676996.91497807v1.31919782c0 .45435555-.3258806.83977439-.7739665.91497807l-1.0528453.17547524c-.1065379.3509505-.2506774.69250053-.4230182 1.02151658l.6204267.8711093c.2632113.3697514.2193428.8742427-.100271 1.1938584l-.9337734.9337789c-.1754742.1754753-.4073509.2726134-.6548948.2726134-.194275 0-.3822831-.0595363-.5389565-.1723418l-.8679706-.6204303c-.32588072.1723417-.66742872.3133486-1.0215106.4230207l-.17860768 1.0528514c-.07520323.4480886-.46061979.7739712-.91497264.7739712h-1.32232348c-.45435286 0-.83976942-.3258826-.91497265-.7739712l-.17547421-1.0528514c-.341548-.1065386-.67369561-.2412785-.99017587-.4073533l-.8805045.6266973c-.1566734.1128055-.34154801.1723418-.53582302.1723418-.24754397 0-.4794206-.0971381-.65489481-.2726134l-.93377345-.9337789c-.3227472-.3196157-.36348228-.824107-.10027097-1.1938584l.61729319-.8585753c-.17547421-.32588261-.31961374-.66743265-.42928512-1.01838314l-1.0653791-.18174222c-.44808592-.07520367-.77396659-.46062251-.77396659-.91497806v-1.31919783c0-.45435554.32588067-.83977439.77396659-.91497806l1.04031136-.17547525c.10653791-.35408398.2444105-.69563401.41675124-1.02465009l-.62669359-.88050972c-.26321131-.36975141-.21934276-.87424274.10027097-1.19385836l.93690692-.93377899c.17234074-.17547524.40735084-.27261333.65489481-.27261333.19427501 0 .38228309.05953625.53895649.17234176l.86170369.62043033c.32588067-.17547524.66742867-.31961562 1.01837708-.42928765l.18174115-1.06538542c.07520323-.44808857.46061979-.77397117.91497264-.77397117h1.31919001c.45435286 0 .83976942.3258826.91497265.77397117l.17547421 1.04031753c.36661575.10967203.72069763.25694589 1.05911218.43555463l.8711041-.62043034c.1566734-.11280551.341548-.17234176.535823-.17234176.247544 0 .4794206.09713809.6548948.27261333l.9337735.93377899c.3227472.31961562.3634822.82410695.1002709 1.19385836l-.6204266.86797577c.1723407.3258826.3133468.66743263.4230182 1.02151661z"/><path d="m7.65096795 3.97788792c1.88996684 0 3.42515045 1.53518359 3.42515045 3.42515044 0 1.88996684-1.53518361 3.42515044-3.42515045 3.42515044s-3.42515044-1.5351836-3.42515044-3.42515044c0-1.88996685 1.5351836-3.42515044 3.42515044-3.42515044z"/></g></svg>