<svg height="20" viewBox="0 0 20 20" width="20" xmlns="http://www.w3.org/2000/svg"><g fill="none"><path d="m0 0h20v20h-20z"/><path d="m6.53 17.145a2.5 2.5 0 0 1 -3.332-3.332l.447-.938-.98-.347a2.5 2.5 0 0 1 0-4.713l.98-.347-.447-.937a2.5 2.5 0 0 1 3.333-3.333l.937.447.347-.98a2.5 2.5 0 0 1 4.713 0l.347.98.938-.447a2.5 2.5 0 0 1 3.332 3.333l-.447.937.98.347a2.5 2.5 0 0 1 0 4.713l-.98.347.447.938a2.5 2.5 0 0 1 -3.332 3.332l-.938-.447-.347.98a2.5 2.5 0 0 1 -4.713 0l-.347-.98-.937.447zm3.642-4.473a2.5 2.5 0 1 0 0-5 2.5 2.5 0 0 0 0 5z" fill="#fff"/></g></svg>