<svg height="28" viewBox="0 0 27 28" width="27" xmlns="http://www.w3.org/2000/svg"><g fill="#fff"><path d="m9.495 12.867c2.68 0 4.86-2.213 4.86-4.934 0-2.72-2.18-4.933-4.86-4.933s-4.86 2.213-4.86 4.933 2.18 4.934 4.86 4.934zm6.522 2.39-.008-.002c-.633-.157-2.57-.432-2.57-.432a.43.43 0 0 0 -.532.268l-2.917 8.124a.524.524 0 0 1 -.99 0l-2.915-8.125a.431.431 0 0 0 -.404-.288c-.042 0-2.034.284-2.698.451-1.812.458-2.955 2.267-2.955 4.152v6.76c-.001 1.014.808 1.835 1.805 1.835h15.323c.998 0 1.807-.821 1.807-1.834v-6.782c0-1.877-1.188-3.544-2.946-4.127zm10.549-11.815h-3.008v-3.008c0-.137-.186-.434-.558-.434s-.558.297-.558.434v3.008h-3.008c-.137 0-.434.186-.434.558s.297.558.434.558h3.008v3.008c0 .137.186.434.558.434s.558-.297.558-.434v-3.008h3.008c.137 0 .434-.186.434-.558s-.297-.558-.434-.558z"/><path d="m10.595 14.668a.615.615 0 0 0 -.458-.194h-1.284a.615.615 0 0 0 -.46.194.612.612 0 0 0 -.078.712l.687 1.05-.321 2.752.632 1.709a.192.192 0 0 0 .363 0l.633-1.709-.321-2.752.686-1.05a.612.612 0 0 0 -.079-.712z"/></g></svg>