<svg height="20" viewBox="0 0 21 20" width="21" xmlns="http://www.w3.org/2000/svg"><g fill="none"><path d="m1.886 12.166a1.424 1.424 0 0 0 0 2.016l.448.447-1.253 1.25a.438.438 0 0 0 0 .62l1.847 1.844a.44.44 0 0 0 .622 0l1.251-1.25.447.445a1.43 1.43 0 0 0 2.02 0l2.232-2.228-5.383-5.37-2.23 2.225z" fill="#b8c2ff"/><path d="m10.205 10.723-1.334 1.333-1.425-1.422 1.335-1.334a.953.953 0 0 0 0-1.35.958.958 0 0 0 -1.353 0l-1.335 1.333-.626-.624a.958.958 0 0 0 -1.353 0 .953.953 0 0 0 0 1.35l1.3 1.298c.002 0 .002.001.002.002h.002l4.078 4.071a.954.954 0 0 0 1.353 0 .953.953 0 0 0 0-1.35l-.625-.624 1.334-1.333a.953.953 0 0 0 0-1.35.958.958 0 0 0 -1.353 0z" fill="#fff"/><path d="m19.026 2.293-1.846-1.844a.44.44 0 0 0 -.622 0l-1.251 1.249-.447-.445a1.43 1.43 0 0 0 -2.02 0l-2.23 2.226 5.38 5.371 2.231-2.227a1.424 1.424 0 0 0 0-2.016l-.446-.446 1.251-1.249a.438.438 0 0 0 0-.62z" fill="#b8c2ff"/><path d="m10.678 3.404a.958.958 0 0 0 -1.353 0 .953.953 0 0 0 0 1.35l5.383 5.372a.955.955 0 0 0 1.353 0 .953.953 0 0 0 0-1.35z" fill="#fff"/></g></svg>