<svg xmlns="http://www.w3.org/2000/svg" xmlns:xlink="http://www.w3.org/1999/xlink" width="330" height="121" viewBox="0 0 330 121">
    <defs>
        <path id="a" d="M46.76.48C20.935.48 0 21.416 0 47.24 0 73.065 20.935 94 46.76 94s46.76-20.935 46.76-46.76S72.584.48 46.76.48z"/>
    </defs>
    <g fill="none" fill-rule="evenodd">
        <path fill="#CDBDB2" d="M253.962 87.267l13.866 3.683v-4.817L268.96 85h7.923v9.633h-8.49l-10.47-4.533z"/>
        <path fill="#CDBDB2" d="M299.238 87.267l-13.583 3.683v-4.817L284.523 85H276.6v9.633h8.49l10.47-4.533z"/>
        <path fill="#393939" d="M268.96 76.783l-1.132 9.35L269.243 85h14.714l1.698 1.133-1.132-9.35-2.263-1.416-11.32.283z"/>
        <path fill="#F89C35" d="M261.32 13.6l6.79 15.867 3.113 46.183h11.037l3.395-46.183 6.226-15.867z"/>
        <path fill="#F89D35" d="M231.606 48.45l-7.923 22.95 19.808-1.133h12.735V60.35l-.566-20.4-2.83 2.267z"/>
        <path fill="#D87C30" d="M246.604 51l23.205.567-2.547 11.9-11.036-2.834z"/>
        <path fill="#EA8D3A" d="M246.604 51.283l9.622 9.067v9.067z"/>
        <path fill="#F89D35" d="M256.226 60.633l11.319 2.834 3.678 12.183-2.546 1.417-12.451-7.367z"/>
        <path fill="#EB8F35" d="M256.226 69.7l-2.264 17.567 14.998-10.484z"/>
        <path fill="#EA8E3A" d="M269.809 51.567l1.414 24.083-4.244-12.325z"/>
        <path fill="#D87C30" d="M243.209 69.983l13.017-.283-2.264 17.567z"/>
        <path fill="#EB8F35" d="M229.909 94.917l24.053-7.65-10.753-17.284-19.526 1.417z"/>
        <path fill="#E8821E" d="M268.11 29.467l-12.167 10.2L246.604 51l23.205.85z"/>
        <path fill="#DFCEC3" d="M253.962 87.267l14.998-10.484-1.132 9.067v5.1l-10.188-1.983zM299.238 87.267l-14.715-10.484 1.132 9.067v5.1l10.188-1.983z"/>
        <path fill="#393939" d="M263.583 56.667l3.113 6.516-11.036-2.833z"/>
        <path fill="#E88F35" d="M229.626.283l38.485 29.184-6.509-15.867z"/>
        <path fill="#8E5A30" d="M229.626.283l-5.094 15.584 2.83 17L225.38 34l2.83 2.55-2.264 1.983 3.113 2.834-1.981 1.7 4.527 5.666 21.224-6.516c10.376-8.311 15.47-12.561 15.28-12.75-.188-.19-13.016-9.917-38.484-29.184z"/>
        <g>
            <path fill="#F89D35" d="M321.594 48.45l7.923 22.95-19.808-1.133h-12.735V60.35l.566-20.4 2.83 2.267z"/>
            <path fill="#D87C30" d="M306.596 51l-23.205.567 2.547 11.9 11.036-2.834z"/>
            <path fill="#EA8D3A" d="M306.596 51.283l-9.622 9.067v9.067z"/>
            <path fill="#F89D35" d="M296.974 60.633l-11.319 2.834-3.678 12.183 2.546 1.417 12.451-7.367z"/>
            <path fill="#EB8F35" d="M296.974 69.7l2.264 17.567-14.715-10.2z"/>
            <path fill="#EA8E3A" d="M283.391 51.567l-1.414 24.083 4.244-12.325z"/>
            <path fill="#D87C30" d="M309.991 69.983l-13.017-.283 2.264 17.567z"/>
            <path fill="#EB8F35" d="M323.291 94.917l-24.053-7.65 10.753-17.284 19.526 1.417z"/>
            <path fill="#E8821E" d="M285.09 29.467l12.167 10.2L306.596 51l-23.205.85z"/>
            <path fill="#393939" d="M289.617 56.667l-3.113 6.516 11.036-2.833z"/>
            <path fill="#E88F35" d="M323.574.283L285.09 29.467l6.509-15.867z"/>
            <path fill="#8E5A30" d="M323.574.283l5.094 15.584-2.83 17L327.82 34l-2.83 2.55 2.264 1.983-3.113 2.834 1.981 1.7-4.527 5.666-21.224-6.516c-10.376-8.311-15.47-12.561-15.28-12.75.188-.19 13.016-9.917 38.484-29.184z"/>
        </g>
        <text fill="#75787B" font-family="Helvetica" font-size="16.538" letter-spacing=".394" transform="translate(222)">
            <tspan x="7.166" y="119">METAMAS</tspan> <tspan x="90.478" y="119">K</tspan>
        </text>
        <g>
            <g transform="translate(9 1.02)">
                <mask id="b" fill="#fff">
                    <use xlink:href="#a"/>
                </mask>
                <path fill="#5269FF" d="M46.76 0C20.935 0 0 20.935 0 46.76s20.935 46.76 46.76 46.76 46.76-20.935 46.76-46.76S72.584 0 46.76 0z" mask="url(#b)"/>
            </g>
            <g fill="#FFF">
                <path d="M76.039 47.951l-19.052-11.11-6.144 3.232 19.123 11.095-.064 13.32-13.458 7.759-13.457-7.784V32.052l13.456-7.785 6.428 3.666.002-.001v10.637l6.097 3.5V24.416l-.006.003-12.527-6.993L36.91 28.7l-.02-.011V67.79l19.551 11.3v.004l.003-.002.004.002v-.004l19.544-11.3z"/>
                <path d="M50.844 41.6v16.064l13.994-7.97-4.709-2.705-4.369 2.33v-4.821z"/>
            </g>
            <path fill="#5269FF" fill-rule="nonzero" d="M5.052 109.43c.786 0 1.471.108 2.056.324.585.217 1.036.524 1.353.922.317.398.475.865.475 1.4 0 .555-.16 1.04-.483 1.456-.322.415-.765.704-1.33.866.663.133 1.191.44 1.585.921.393.482.59 1.067.59 1.755 0 .594-.167 1.113-.498 1.555-.332.442-.802.781-1.412 1.017-.61.236-1.327.354-2.152.354H.054v-10.57h4.998zm-2.322 4.23h2.174c.393 0 .705-.097.936-.294.231-.196.347-.467.347-.81 0-.335-.116-.597-.347-.786-.23-.189-.543-.284-.936-.284H2.73v2.175zm0 4.269h2.174c.501 0 .896-.106 1.183-.317a1.02 1.02 0 0 0 .431-.87.981.981 0 0 0-.43-.84c-.288-.207-.683-.31-1.184-.31H2.73v2.337zm12.109-6.185c1.115 0 1.983.26 2.602.778.619.519.933 1.24.943 2.164V120h-2.55v-.936c-.26.344-.602.606-1.025.785-.422.18-.911.269-1.467.269-.855 0-1.534-.236-2.038-.708-.503-.471-.755-1.086-.755-1.842 0-.777.269-1.379.807-1.806.538-.428 1.31-.647 2.318-.656h2.145v-.118c0-.403-.133-.718-.398-.944-.265-.226-.66-.339-1.187-.339-.344 0-.73.058-1.157.173a6.284 6.284 0 0 0-1.275.505l-.737-1.717a10.79 10.79 0 0 1 1.894-.693 7.604 7.604 0 0 1 1.88-.229zm-.693 6.612c.413 0 .775-.103 1.087-.31.312-.206.507-.476.586-.81v-.722h-1.644c-.393 0-.688.07-.884.21-.197.14-.295.362-.295.667 0 .3.1.535.302.707.202.172.484.258.848.258zm11.77-6.612c.899 0 1.62.284 2.163.852.543.567.815 1.325.815 2.274V120h-2.602v-4.408c0-.472-.128-.846-.384-1.124-.255-.278-.604-.416-1.046-.416-.462 0-.842.15-1.14.453-.296.302-.47.699-.519 1.19V120h-2.616v-8.138h2.616v1.327c.575-.948 1.48-1.43 2.713-1.445zM39.293 120h-2.61v-1.069c-.594.786-1.41 1.177-2.447 1.172-.757 0-1.421-.175-1.994-.527a3.557 3.557 0 0 1-1.334-1.478c-.317-.634-.475-1.368-.475-2.204 0-.825.156-1.55.468-2.174a3.453 3.453 0 0 1 1.315-1.448c.565-.342 1.219-.513 1.961-.513a3.3 3.3 0 0 1 1.437.302c.423.202.78.494 1.07.878v-4.143h2.609V120zm-4.423-1.916c.545 0 .984-.197 1.316-.59.331-.393.497-.907.497-1.54 0-.625-.166-1.133-.497-1.526-.332-.394-.77-.59-1.316-.59s-.983.194-1.312.582c-.33.388-.499.9-.509 1.533.01.634.18 1.148.513 1.54.331.394.767.59 1.308.59zm15.402-8.654c1.347 0 2.393.32 3.14.958.747.639 1.12 1.548 1.12 2.727 0 1.239-.373 2.2-1.12 2.886-.747.686-1.793 1.028-3.14 1.028h-1.916V120h-2.69v-10.57h4.606zm-1.916 5.484h1.784c.594 0 1.051-.146 1.37-.439.32-.292.48-.716.48-1.271 0-.546-.161-.958-.483-1.238-.322-.28-.778-.42-1.367-.42h-1.784v3.368zm10.524-1.68c.28-.472.644-.836 1.09-1.091.448-.256.964-.389 1.549-.399v2.352a3.198 3.198 0 0 0-.361-.015c-.644 0-1.17.156-1.578.468-.408.312-.641.736-.7 1.272V120h-2.617v-8.138h2.617v1.371zm7.952-1.46c.874 0 1.65.17 2.325.512a3.687 3.687 0 0 1 1.563 1.456c.366.629.549 1.356.549 2.182 0 .825-.183 1.553-.55 2.182a3.734 3.734 0 0 1-1.562 1.463c-.675.346-1.45.52-2.325.52-.885 0-1.661-.174-2.33-.52a3.822 3.822 0 0 1-1.562-1.463c-.374-.63-.56-1.357-.56-2.182 0-.826.186-1.553.56-2.182a3.773 3.773 0 0 1 1.562-1.456c.669-.341 1.445-.512 2.33-.512zm0 2.064c-.54 0-.98.196-1.316.59-.337.393-.505.901-.505 1.525 0 .634.168 1.145.505 1.533.337.389.775.583 1.316.583.535 0 .971-.194 1.308-.583.337-.388.505-.899.505-1.533 0-.624-.168-1.132-.505-1.525-.337-.394-.773-.59-1.308-.59zm11.445 5.727c-.29.167-.626.301-1.01.402-.383.1-.771.15-1.164.15-.806 0-1.457-.223-1.953-.67-.497-.447-.745-1.083-.745-1.909v-3.59H72.27v-1.71h1.135v-2.263H76v2.249h2.13v1.724H76v3.185c0 .594.24.892.722.892.28 0 .627-.091 1.04-.273l.515 1.813zm5.387-7.791c.875 0 1.65.17 2.325.512a3.687 3.687 0 0 1 1.563 1.456c.366.629.55 1.356.55 2.182 0 .825-.184 1.553-.55 2.182a3.734 3.734 0 0 1-1.563 1.463c-.675.346-1.45.52-2.325.52-.885 0-1.661-.174-2.33-.52a3.822 3.822 0 0 1-1.562-1.463c-.373-.63-.56-1.357-.56-2.182 0-.826.187-1.553.56-2.182a3.773 3.773 0 0 1 1.563-1.456c.668-.341 1.444-.512 2.329-.512zm0 2.064c-.54 0-.98.196-1.316.59-.336.393-.505.901-.505 1.525 0 .634.169 1.145.505 1.533.337.389.775.583 1.316.583.536 0 .972-.194 1.308-.583.337-.388.505-.899.505-1.533 0-.624-.168-1.132-.505-1.525-.336-.394-.772-.59-1.308-.59zm9.743-2.064c.8 0 1.516.158 2.145.475.629.317 1.12.768 1.474 1.353l-1.872 1.128c-.403-.565-.951-.845-1.644-.84-.501 0-.91.187-1.227.563-.317.376-.476.871-.476 1.486 0 .624.155 1.125.465 1.503.31.379.722.568 1.238.568.767 0 1.32-.307 1.658-.922l1.902 1.113a3.39 3.39 0 0 1-1.456 1.397c-.636.327-1.384.49-2.244.49-.826 0-1.554-.173-2.186-.52a3.727 3.727 0 0 1-1.477-1.455c-.354-.624-.531-1.344-.531-2.16 0-.825.177-1.555.53-2.189a3.682 3.682 0 0 1 1.49-1.47c.638-.347 1.375-.52 2.21-.52zm8.821 0c.875 0 1.65.17 2.326.512a3.687 3.687 0 0 1 1.563 1.456c.366.629.549 1.356.549 2.182 0 .825-.183 1.553-.55 2.182a3.734 3.734 0 0 1-1.562 1.463c-.676.346-1.451.52-2.326.52-.884 0-1.66-.174-2.329-.52a3.822 3.822 0 0 1-1.563-1.463c-.373-.63-.56-1.357-.56-2.182 0-.826.187-1.553.56-2.182a3.773 3.773 0 0 1 1.563-1.456c.668-.341 1.445-.512 2.33-.512zm0 2.064c-.54 0-.979.196-1.315.59-.337.393-.505.901-.505 1.525 0 .634.168 1.145.505 1.533.336.389.775.583 1.315.583.536 0 .972-.194 1.309-.583.336-.388.505-.899.505-1.533 0-.624-.169-1.132-.505-1.525-.337-.394-.773-.59-1.309-.59zM108.5 120v-11.204h2.61V120h-2.61z"/>
        </g>
        <g>
            <path stroke="#5269FF" stroke-dasharray="7,10" stroke-linecap="round" stroke-width="2" d="M102 48.5h130"/>
            <g transform="translate(150 29)">
                <circle cx="19" cy="19" r="19" fill="#42C47F"/>
                <path stroke="#FFF" stroke-linecap="round" stroke-width="2.5" d="M10.64 20.522l4.566 4.452 12.173-11.8"/>
            </g>
        </g>
    </g>
</svg>
