<svg xmlns="http://www.w3.org/2000/svg" xmlns:xlink="http://www.w3.org/1999/xlink" width="330" height="121" viewBox="0 0 330 121">
    <defs>
        <path id="a" d="M46.76.48C20.935.48 0 21.416 0 47.24 0 73.065 20.935 94 46.76 94s46.76-20.935 46.76-46.76S72.584.48 46.76.48z"/>
    </defs>
    <g fill="none" fill-rule="evenodd">
        <path fill="#CDBDB2" d="M253.962 87.267l13.866 3.683v-4.817L268.96 85h7.923v9.633h-8.49l-10.47-4.533z"/>
        <path fill="#CDBDB2" d="M299.238 87.267l-13.583 3.683v-4.817L284.523 85H276.6v9.633h8.49l10.47-4.533z"/>
        <path fill="#393939" d="M268.96 76.783l-1.132 9.35L269.243 85h14.714l1.698 1.133-1.132-9.35-2.263-1.416-11.32.283z"/>
        <path fill="#F89C35" d="M261.32 13.6l6.79 15.867 3.113 46.183h11.037l3.395-46.183 6.226-15.867z"/>
        <path fill="#F89D35" d="M231.606 48.45l-7.923 22.95 19.808-1.133h12.735V60.35l-.566-20.4-2.83 2.267z"/>
        <path fill="#D87C30" d="M246.604 51l23.205.567-2.547 11.9-11.036-2.834z"/>
        <path fill="#EA8D3A" d="M246.604 51.283l9.622 9.067v9.067z"/>
        <path fill="#F89D35" d="M256.226 60.633l11.319 2.834 3.678 12.183-2.546 1.417-12.451-7.367z"/>
        <path fill="#EB8F35" d="M256.226 69.7l-2.264 17.567 14.998-10.484z"/>
        <path fill="#EA8E3A" d="M269.809 51.567l1.414 24.083-4.244-12.325z"/>
        <path fill="#D87C30" d="M243.209 69.983l13.017-.283-2.264 17.567z"/>
        <path fill="#EB8F35" d="M229.909 94.917l24.053-7.65-10.753-17.284-19.526 1.417z"/>
        <path fill="#E8821E" d="M268.11 29.467l-12.167 10.2L246.604 51l23.205.85z"/>
        <path fill="#DFCEC3" d="M253.962 87.267l14.998-10.484-1.132 9.067v5.1l-10.188-1.983zM299.238 87.267l-14.715-10.484 1.132 9.067v5.1l10.188-1.983z"/>
        <path fill="#393939" d="M263.583 56.667l3.113 6.516-11.036-2.833z"/>
        <path fill="#E88F35" d="M229.626.283l38.485 29.184-6.509-15.867z"/>
        <path fill="#8E5A30" d="M229.626.283l-5.094 15.584 2.83 17L225.38 34l2.83 2.55-2.264 1.983 3.113 2.834-1.981 1.7 4.527 5.666 21.224-6.516c10.376-8.311 15.47-12.561 15.28-12.75-.188-.19-13.016-9.917-38.484-29.184z"/>
        <g>
            <path fill="#F89D35" d="M321.594 48.45l7.923 22.95-19.808-1.133h-12.735V60.35l.566-20.4 2.83 2.267z"/>
            <path fill="#D87C30" d="M306.596 51l-23.205.567 2.547 11.9 11.036-2.834z"/>
            <path fill="#EA8D3A" d="M306.596 51.283l-9.622 9.067v9.067z"/>
            <path fill="#F89D35" d="M296.974 60.633l-11.319 2.834-3.678 12.183 2.546 1.417 12.451-7.367z"/>
            <path fill="#EB8F35" d="M296.974 69.7l2.264 17.567-14.715-10.2z"/>
            <path fill="#EA8E3A" d="M283.391 51.567l-1.414 24.083 4.244-12.325z"/>
            <path fill="#D87C30" d="M309.991 69.983l-13.017-.283 2.264 17.567z"/>
            <path fill="#EB8F35" d="M323.291 94.917l-24.053-7.65 10.753-17.284 19.526 1.417z"/>
            <path fill="#E8821E" d="M285.09 29.467l12.167 10.2L306.596 51l-23.205.85z"/>
            <path fill="#393939" d="M289.617 56.667l-3.113 6.516 11.036-2.833z"/>
            <path fill="#E88F35" d="M323.574.283L285.09 29.467l6.509-15.867z"/>
            <path fill="#8E5A30" d="M323.574.283l5.094 15.584-2.83 17L327.82 34l-2.83 2.55 2.264 1.983-3.113 2.834 1.981 1.7-4.527 5.666-21.224-6.516c-10.376-8.311-15.47-12.561-15.28-12.75.188-.19 13.016-9.917 38.484-29.184z"/>
        </g>
        <text fill="#75787B" font-family="Helvetica" font-size="16.538" letter-spacing=".394" transform="translate(222)">
            <tspan x="7.166" y="119">METAMAS</tspan> <tspan x="90.478" y="119">K</tspan>
        </text>
        <g>
            <g transform="translate(9 1.02)">
                <mask id="b" fill="#fff">
                    <use xlink:href="#a"/>
                </mask>
                <path fill="#5269FF" d="M46.76 0C20.935 0 0 20.935 0 46.76s20.935 46.76 46.76 46.76 46.76-20.935 46.76-46.76S72.584 0 46.76 0z" mask="url(#b)"/>
            </g>
            <g fill="#FFF">
                <path d="M76.039 47.951l-19.052-11.11-6.144 3.232 19.123 11.095-.064 13.32-13.458 7.759-13.457-7.784V32.052l13.456-7.785 6.428 3.666.002-.001v10.637l6.097 3.5V24.416l-.006.003-12.527-6.993L36.91 28.7l-.02-.011V67.79l19.551 11.3v.004l.003-.002.004.002v-.004l19.544-11.3z"/>
                <path d="M50.844 41.6v16.064l13.994-7.97-4.709-2.705-4.369 2.33v-4.821z"/>
            </g>
            <text fill="#5269FF" font-family="Montserrat-Bold, Montserrat" font-size="15.096" font-weight="bold" letter-spacing=".352" transform="translate(-1 1)">
                <tspan x="0" y="119">Band Protocol</tspan>
            </text>
        </g>
        <g>
            <path stroke="#5269FF" stroke-dasharray="7,10" stroke-linecap="round" stroke-width="2" d="M102 48.5h130"/>
            <g transform="translate(150 29)">
                <circle cx="19" cy="19" r="19" fill="#42C47F"/>
                <path stroke="#FFF" stroke-linecap="round" stroke-width="2.5" d="M10.64 20.522l4.566 4.452 12.173-11.8"/>
            </g>
        </g>
    </g>
</svg>
