<svg height="33" viewBox="0 0 179 33" width="179" xmlns="http://www.w3.org/2000/svg"><g fill="#2b314f" fill-rule="evenodd"><path d="m16.5 0c-9.11269837 0-16.5 7.38730163-16.5 16.5 0 9.1126984 7.38730163 16.5 16.5 16.5 9.1126984 0 16.5-7.3873016 16.5-16.5.0000468-4.3760864-1.738326-8.57295318-4.8326864-11.66731357-3.0943604-3.09436038-7.2912272-4.83273322-11.6673136-4.83268643zm6.7863131 23.3916435-6.895525 3.9872059v.0012351h-.0012351-.0010586v-.0012351l-6.89852434-3.9873823v-13.79704879l.00705731.00370509 6.88917343-3.97838431 4.4203486 2.46776626.0021172-.00123503v6.22913818l-2.1514222-1.23503v-3.75343239l-2.2691028-1.29307635-4.7479844 2.74617724v11.4367302l4.7485137 2.7467065 4.7481608-2.7373556.0227598-4.6999947-6.747145-3.9150449 2.1678304-1.1402855 6.7220916 3.9203379zm-5.5973321-7.3396065 1.6616445.9546781-4.9380025 2.8114575v-5.6682581l1.7345113 1.0233105v1.7013419z" fill-rule="nonzero"/><text font-family="Avenir-Heavy, Avenir" font-size="18" font-weight="600" letter-spacing="1.20000005"><tspan x="46" y="22">Band Protoco</tspan> <tspan x="175.024001" y="22">l</tspan></text></g></svg>