<svg height="88" viewBox="0 0 81 88" width="81" xmlns="http://www.w3.org/2000/svg" xmlns:xlink="http://www.w3.org/1999/xlink"><filter id="a" height="231.4%" width="273.6%" x="-86.8%" y="-65.7%"><feOffset dy="9" in="SourceAlpha" result="shadowOffsetOuter1"/><feGaussianBlur in="shadowOffsetOuter1" result="shadowBlurOuter1" stdDeviation="7.5"/><feColorMatrix in="shadowBlurOuter1" result="shadowMatrixOuter1" values="0 0 0 0 0 0 0 0 0 0 0 0 0 0 0 0 0 0 0.17 0"/><feMerge><feMergeNode in="shadowMatrixOuter1"/><feMergeNode in="SourceGraphic"/></feMerge></filter><linearGradient id="b" x1="0%" x2="99.393%" y1="32.569%" y2="32.569%"><stop offset="0" stop-color="#5269ff"/><stop offset="1" stop-color="#4890ff"/></linearGradient><g fill="none" fill-rule="evenodd" filter="url(#a)" transform="translate(14 5)"><path d="m22.065 46.257h8.871v17.157h-8.871z" fill="#b8c2ff"/><path d="m8.421 63.414h36.158v5.918h-36.158z" fill="url(#b)"/><path d="m2.655 20.705a25.409 25.409 0 0 0 -.178 19.616l24.005-9.588z" fill="url(#b)"/><path d="m26.482 30.733-24.005 9.587a25.483 25.483 0 0 0 5.713 8.535 25.634 25.634 0 0 0 8.18 5.461l10.112-23.584z" fill="#fff" fill-rule="nonzero"/><path d="m36.613 7.13a26.243 26.243 0 0 0 -19.818-.175l9.705 23.76 10.113-23.584z" fill="url(#b)"/><path d="m26.5 30.733-9.687-23.778c-3.14 1.247-6.068 3.144-8.623 5.655a25.89 25.89 0 0 0 -5.535 8.095zm10.113-23.603-10.113 23.586 24.023-9.588a25.154 25.154 0 0 0 -5.713-8.517 25.762 25.762 0 0 0 -8.197-5.48z" fill="#fff" fill-rule="nonzero"/><path d="m26.482 30.733-10.13 23.602c6.316 2.651 13.466 2.722 19.817.175z" fill="url(#b)"/><path d="m26.5 30.733 23.845 10.027a25.452 25.452 0 0 0 .178-19.633z" fill="url(#b)"/><path d="m36.187 54.51a25.787 25.787 0 0 0 8.623-5.654 25.342 25.342 0 0 0 5.517-8.096l-23.827-10.027zm-29.735-23.777a19.6 19.6 0 0 0 1.454 7.428l-5.429 2.178a25.41 25.41 0 0 1 .196-19.616l5.375 2.265a19.393 19.393 0 0 0 -1.596 7.745z" fill="#fff" fill-rule="nonzero"/><path d="m18.658 48.996-2.289 5.339a25.69 25.69 0 0 1 -8.179-5.48 25.483 25.483 0 0 1 -5.713-8.534l5.43-2.178c1.987 4.882 5.872 8.798 10.751 10.853z" fill="url(#b)"/><path d="m36.613 7.13-2.289 5.322a20.382 20.382 0 0 0 -7.824-1.563c-2.661 0-5.18.509-7.505 1.44l-2.2-5.374c6.352-2.529 13.52-2.476 19.818.176z" fill="#fff" fill-rule="nonzero"/><path d="m18.995 12.329c-4.932 1.967-8.889 5.812-10.947 10.642l-5.375-2.266a25.208 25.208 0 0 1 5.535-8.095 26.058 26.058 0 0 1 8.623-5.655z" fill="url(#b)"/><path d="m50.523 21.127-5.43 2.16c-1.987-4.865-5.872-8.78-10.751-10.835l2.27-5.321a25.762 25.762 0 0 1 8.198 5.479 25.681 25.681 0 0 1 5.713 8.517z" fill="url(#b)"/><path d="m36.187 54.51c-6.352 2.529-13.52 2.476-19.818-.175l2.29-5.339a20.094 20.094 0 0 0 7.841 1.58c2.644 0 5.18-.509 7.505-1.44zm14.158-13.75-5.393-2.265a19.54 19.54 0 0 0 1.596-7.762c0-2.634-.514-5.146-1.454-7.446l5.429-2.16a25.532 25.532 0 0 1 -.178 19.633z" fill="#fff" fill-rule="nonzero"/><path d="m50.345 40.76a25.208 25.208 0 0 1 -5.535 8.096 25.787 25.787 0 0 1 -8.623 5.654l-2.182-5.373c4.932-1.967 8.889-5.813 10.964-10.642z" fill="url(#b)"/><g fill-rule="nonzero"><path d="m26.5 32.243c-.071 0-.16 0-.23-.018-.16-.017-.32-.07-.462-.14 0 0-.018-.018-.035-.018a1.485 1.485 0 0 1 -.817-1.37c.018-.579.355-1.088.87-1.334.213-.105.443-.158.656-.158.39 0 .763.14 1.03.404.3.28.496.685.496 1.124.018.843-.656 1.51-1.508 1.51z" fill="#414042"/><path d="m26.5.668c-3.07 0-5.056 3.232-3.655 5.936l3.655 6.99 3.655-6.99c1.401-2.704-.586-5.936-3.655-5.936z" fill="#ffca55"/><ellipse cx="26.482" cy="30.733" fill="#ffca55" rx="6.05" ry="5.988"/></g></g></svg>