<svg height="100" viewBox="0 0 100 100" width="100" xmlns="http://www.w3.org/2000/svg"><g fill="none" fill-rule="evenodd"><circle cx="50" cy="50" fill="#e0e6f5" r="50"/><g stroke="#fff" stroke-linejoin="round" stroke-width="1.75" transform="translate(23 23)"><path d="m11.74 9.391h-9.393a2.348 2.348 0 0 0 -2.347 2.349v32.87a2.348 2.348 0 0 0 2.348 2.348h49.304a2.348 2.348 0 0 0 2.348-2.349v-32.87a2.348 2.348 0 0 0 -2.348-2.348h-9.391m-28.174 43.435v1.174h25.826v-1.174m-22.304 1.174v-7.043m18.782 7.043v-7.043m-18.782-41.087v-5.87l-5.87 5.87z"/><path d="m42.26 29.348v-27a2.348 2.348 0 0 0 -2.346-2.348h-22.305l-5.87 5.87v31.695a2.348 2.348 0 0 0 2.348 2.348h22.304"/><circle cx="27.061" cy="22.365" r="10.626"/><path d="m46.265 41.57a2.363 2.363 0 0 0 0-3.34l-5.01-5.008-3.338 3.337 5.01 5.01c.923.92 2.416.92 3.338 0zm-6.679-6.68-5.01-5.01m-34.576 10.033h8.217m45.783 0h-3.522m-16.435-17.609a7.043 7.043 0 0 0 -7.043-7.043m-17.609-1.174h-4.695v4.696m0 2.347v2.348m39.913-9.391h4.695v4.696m0 2.347v2.348m-10.564-18.782h-2.35m-2.347 0h-2.347m7.044 4.695h-2.35"/></g></g></svg>