<svg height="115" viewBox="0 0 265 115" width="265" xmlns="http://www.w3.org/2000/svg"><g fill="none" fill-rule="evenodd"><path d="m4 85.5a3.5 3.5 0 0 0 -3.5 3.5v22a3.5 3.5 0 0 0 3.5 3.5h89a3.5 3.5 0 0 0 3.5-3.5v-22a3.5 3.5 0 0 0 -3.5-3.5z" fill="#fff8f8" stroke="#ffbebe"/><text fill="#4a4a4a" font-family="Avenir-Medium, Avenir" font-size="15" font-weight="400" transform="translate(0 85)"><tspan x="26.413" y="20">Values</tspan></text><path d="m4 34.5a3.5 3.5 0 0 0 -3.5 3.5v22a3.5 3.5 0 0 0 3.5 3.5h89a3.5 3.5 0 0 0 3.5-3.5v-22a3.5 3.5 0 0 0 -3.5-3.5z" fill="#f8faff" stroke="#c4beff"/><text fill="#4a4a4a" font-family="Avenir-Medium, Avenir" font-size="15" font-weight="400" transform="translate(0 34)"><tspan x="32.39" y="20">Keys</tspan></text><g transform="translate(178.2 37)"><ellipse cx="39.477" cy="63.545" fill="#b7bed8" rx="39.477" ry="13.34"/><path d="m39.477 63.173c21.803 0 39.477-5.712 39.477-12.76 0-3.199-3.644-6.124-9.664-8.363-7.238-2.693-17.911-4.396-29.813-4.396-21.803 0-39.477 5.713-39.477 12.76s17.674 12.76 39.477 12.76z" fill="#c5cbe0"/><ellipse cx="39.477" cy="37.862" fill="#d4daec" rx="39.477" ry="12.76"/><ellipse cx="39.477" cy="25.311" fill="#dbe0ef" rx="39.477" ry="12.76"/><ellipse cx="39.477" cy="12.76" fill="#e3e8f5" rx="39.477" ry="12.76"/></g><g fill-rule="nonzero"><path d="m264.385 108.639-10.802-11.284a15.32 15.32 0 0 0 4.462-10.821c0-8.456-6.847-15.334-15.265-15.334s-15.265 6.878-15.265 15.334 6.847 15.334 15.265 15.334c3.695 0 7.086-1.327 9.73-3.528l10.827 11.311a.723.723 0 0 0 1.028.02.733.733 0 0 0 .02-1.032z" fill="#5269ff" stroke="#5269ff" stroke-width=".81"/><path d="m242.78 100.408c-7.616 0-13.812-6.224-13.812-13.874s6.196-13.874 13.812-13.874 13.811 6.224 13.811 13.874-6.196 13.874-13.811 13.874z" fill="#f0f4ff"/></g><g transform="translate(171)"><rect fill="#5269ff" fill-rule="nonzero" height="30" rx="15" width="93.6"/><text fill="#fff" font-family="Avenir-Heavy, Avenir" font-size="12" font-weight="600"><tspan x="10.004" y="19">TCD contract</tspan></text></g><g fill="#c4beff" transform="translate(99 45)"><path d="m68.5 4h-65.5v-1h65.5v-4l9 4.5-9 4.5z" fill-rule="nonzero"/><circle cx="3" cy="3" r="3"/></g><g fill="#ffbebe" transform="matrix(-1 0 0 1 176 97)"><path d="m68.5 4h-65.5v-1h65.5v-4l9 4.5-9 4.5z" fill-rule="nonzero"/><circle cx="3" cy="3" r="3"/></g></g></svg>