<svg xmlns="http://www.w3.org/2000/svg" width="58" height="46" viewBox="0 0 58 46">
    <g fill="#E7ECFF" fill-rule="evenodd">
        <path fill-rule="nonzero" d="M57 0H1a1 1 0 0 0-1 1v44a1 1 0 0 0 1 1h56a1 1 0 0 0 1-1V1a1 1 0 0 0-1-1zm-1 44H2V2h54v42z"/>
        <path fill-rule="nonzero" d="M16 22.138a5.575 5.575 0 0 0 5.569-5.568A5.575 5.575 0 0 0 16 11a5.575 5.575 0 0 0-5.569 5.569A5.575 5.575 0 0 0 16 22.138zM16 13a3.574 3.574 0 0 1 3.569 3.569A3.574 3.574 0 0 1 16 20.138a3.573 3.573 0 0 1-3.569-3.568A3.574 3.574 0 0 1 16 13z"/>
        <path d="M7 40c.234 0 .47-.082.66-.249l16.313-14.362L34.275 35.69a.999.999 0 1 0 1.414-1.414l-4.807-4.807 9.181-10.054 11.261 10.323a1 1 0 0 0 1.351-1.475l-12-11a1.031 1.031 0 0 0-.72-.262 1.002 1.002 0 0 0-.694.325l-9.794 10.727-4.743-4.743a1 1 0 0 0-1.368-.044L6.339 38.249A1 1 0 0 0 7 40z"/>
    </g>
</svg>
