<?xml version="1.0" encoding="UTF-8"?>
<svg width="19px" height="19px" viewBox="0 0 19 19" version="1.1" xmlns="http://www.w3.org/2000/svg" xmlns:xlink="http://www.w3.org/1999/xlink">
    <!-- Generator: Sketch 55.2 (78181) - https://sketchapp.com -->
    <title>plug (2)</title>
    <desc>Created with Sketch.</desc>
    <g id="on-demand" stroke="none" stroke-width="1" fill="none" fill-rule="evenodd">
        <g id="new-web-request-2" transform="translate(-890.000000, -489.000000)" fill="#FFFFFF" fill-rule="nonzero">
            <g id="Group-24" transform="translate(807.000000, 484.000000)">
                <g id="plug-(2)" transform="translate(83.000000, 5.000000)">
                    <path d="M10.5679932,10.6329346 L9.4673462,11.7333984 L7.26660156,9.5326538 L8.36688231,8.43237305 C8.64154052,8.15771484 8.64154052,7.71258544 8.36706541,7.43792723 C8.09259034,7.16345213 7.64727784,7.16345213 7.37261964,7.43792723 L6.27215575,8.53820803 L5.7043457,7.97039794 C5.57250977,7.838562 5.39361573,7.7644043 5.20721434,7.7644043 C5.02062991,7.7644043 4.84173583,7.838562 4.70989989,7.97039794 L3.64477539,9.03552244 C2.06640625,10.6142578 1.91607667,13.0720825 3.18682863,14.8187256 L1.09678677,17.0888873 C0.822128563,17.3635455 0.822128563,17.8086749 1.09678677,18.0831501 C1.37126188,18.3578083 1.81657438,18.3578083 2.09104948,18.0831501 L4.1810913,15.8131714 C5.93029788,17.0859375 8.3892212,16.9308472 9.96447756,15.3550415 L11.0297852,14.2901001 C11.3042603,14.0154419 11.3042603,13.5703125 11.0296021,13.2956543 L10.461792,12.7278443 L11.5622559,11.6273804 C11.8369141,11.3529053 11.8369141,10.9075928 11.5622559,10.6331177 C11.2875977,10.3584595 10.8426513,10.3584595 10.5679932,10.6329346 Z M8.97021484,14.3607788 C7.77233884,15.559021 5.8345337,15.5562744 4.6392212,14.3605957 C3.44116211,13.1629028 3.44317628,11.2260132 4.63903806,10.0297852 L5.20703125,9.46197511 L9.53802489,13.7929688 L8.97021484,14.3607788 Z" id="Shape"></path>
                    <path d="M18.5868965,0.504352958 C18.3124214,0.229694754 17.8671089,0.229694754 17.5926338,0.504352958 L15.8187256,2.18701172 C14.072815,0.919189453 11.6091309,1.07135011 10.0358887,2.64422606 C9.43475341,3.24536133 8.97021484,3.71008303 8.97021484,3.71008303 C8.69573973,3.98474119 8.69573973,4.42987059 8.97039794,4.7043457 L14.2956543,10.0296021 C14.4274902,10.161438 14.6063843,10.2355957 14.7927857,10.2355957 C14.9793701,10.2355957 15.158081,10.161438 15.2901001,10.0296021 L16.3552246,8.96466066 C17.1991577,8.12036133 17.6640625,6.99829102 17.6640625,5.80499269 C17.6640625,4.848999 17.3656006,3.93896484 16.8135376,3.1809082 L18.5868965,1.49861568 C18.8615547,1.22414057 18.8615547,0.778828067 18.5868965,0.504352958 Z M15.3607788,7.97021484 L14.7929687,8.53820803 L10.461792,4.20721434 C10.624939,4.04388427 10.8192138,3.84979247 11.0303345,3.63885497 C12.2208862,2.44830323 14.1561279,2.44519041 15.350708,3.62915039 C15.3540039,3.63262941 15.3574829,3.63610837 15.3607788,3.63958739 C15.939209,4.21783448 16.2578125,4.98687745 16.2578125,5.80499269 C16.2578125,6.62274169 15.939209,7.39178466 15.3607788,7.97021484 Z" id="Shape"></path>
                </g>
            </g>
        </g>
    </g>
</svg>