<svg height="512" preserveAspectRatio="xMidYMid meet" viewBox="0 0 5120 5120" width="512" xmlns="http://www.w3.org/2000/svg"><path d="m2245 5109c-827-101-1538-580-1937-1304-163-297-259-602-299-954-17-156-7-534 20-686 95-546 347-1027 737-1406 400-388 885-622 1454-700 145-20 506-18 665 5 155 21 393 80 531 131 141 52 381 172 504 253 901 590 1330 1652 1094 2706-78 352-269 745-497 1026-421 518-1043 858-1702 930-107 12-471 11-570-1zm523-370c487-53 947-275 1297-624 61-60 141-148 177-195l66-85-14-80c-51-292-151-546-279-703-100-125-252-223-397-258l-67-17-81 76c-196 184-454 310-725 352-131 21-365 16-485-10-241-53-453-162-648-334l-94-83-64 16c-334 84-558 388-660 894-20 100-24 139-16 155 41 86 307 359 462 474 311 231 686 380 1060 422 110 12 356 13 468 0zm-13-1823c421-91 752-421 841-841 125-583-269-1167-864-1281-97-18-289-18-389 1-396 75-716 359-836 740-37 118-48 191-48 322 1 304 113 567 333 779 159 154 372 259 594 294 80 12 283 5 369-14z" fill="#8868ff"/></svg>