<svg height="32" viewBox="0 0 32 32" width="32" xmlns="http://www.w3.org/2000/svg"><g fill="none"><path d="m32 16c0 8.837-7.163 16-16 16s-16-7.163-16-16 7.163-16 16-16 16 7.163 16 16z" fill="#dce1ff"/><path d="m27.662 2.123a7.25 7.25 0 1 1 -10.252 10.254 7.25 7.25 0 0 1 10.252-10.254z" fill="#a6b3ff"/><path d="m23.046 14.482a7.25 7.25 0 1 1 0-14.464 7.25 7.25 0 0 0 0 14.464z" fill="#8e9eff"/><path d="m25.125 19.438c0 6.39-4.77 11.664-10.944 12.459-7.383-.837-13.241-6.696-14.077-14.078.794-6.174 6.069-10.944 12.459-10.944 6.938 0 12.562 5.624 12.562 12.563z" fill="#b8c2ff"/><path d="m22.049 11.201a12.514 12.514 0 0 0 -8.236-3.076c-6.939 0-12.563 5.624-12.563 12.563 0 .62.046 1.23.133 1.826a15.892 15.892 0 0 1 -1.28-4.695c.795-6.174 6.07-10.944 12.46-10.944 3.787 0 7.182 1.676 9.486 4.326z" fill="#a6b3ff"/><path d="m27.694 5.59a4.004 4.004 0 1 1 -8.008 0 4.004 4.004 0 0 1 8.008 0zm-6.194 10.974a6.937 6.937 0 1 1 -13.875 0 6.937 6.937 0 0 1 13.875 0z" fill="#f2f5ff"/><path d="m26.951 7.914a4.004 4.004 0 1 1 -5.584-5.584 4.004 4.004 0 0 0 5.584 5.584zm-10.764 13.961a6.937 6.937 0 0 1 -5.65-10.963 6.937 6.937 0 1 0 9.676 9.676 6.905 6.905 0 0 1 -4.026 1.287z" fill="#d9e2ff"/><path d="m26.564 4.064c-.211.212-.668.097-1.02-.255s-.466-.809-.255-1.02.668-.097 1.02.255.466.809.255 1.02zm-9.231 7.644c-.366.366-.169 1.157.442 1.767.61.61 1.401.808 1.767.442s.169-1.157-.442-1.767c-.61-.61-1.401-.809-1.767-.442z" fill="#fff5f5"/><path d="m17.375 14.078v5c0 .173-.14.313-.313.313h-.625a.313.313 0 0 1 -.312-.313v-5c0-.172.14-.312.313-.312h.625c.172 0 .312.14.312.312zm-2.188-.344h-3.124a.313.313 0 0 0 -.313.313v.625c0 .172.14.312.313.312h2.124l-1.187 2.438v1.656c0 .173.14.313.313.313h.624c.173 0 .313-.14.313-.313v-1.594l1.25-2.5v-.937a.313.313 0 0 0 -.313-.313zm8.795-10.384.516 1.045c.012.024.034.04.06.044l1.155.168c.066.01.093.091.045.138l-.835.814a.081.081 0 0 0 -.024.072l.198 1.149a.081.081 0 0 1 -.118.085l-1.032-.542a.081.081 0 0 0 -.076 0l-1.032.542a.081.081 0 0 1 -.117-.085l.197-1.15a.081.081 0 0 0 -.024-.07l-.835-.815a.081.081 0 0 1 .045-.138l1.154-.168a.081.081 0 0 0 .061-.044l.516-1.046c.03-.06.116-.06.146 0z" fill="#b8c2ff"/></g></svg>