<svg height="17" viewBox="0 0 17 17" width="17" xmlns="http://www.w3.org/2000/svg"><g fill="none" fill-rule="evenodd"><circle cx="8.5" cy="8.5" fill="#5269ff" fill-rule="nonzero" r="8.5"/><path d="m8.28 5.365c-.411 0-.817.05-1.219.15-.401.1-.758.221-1.071.364l-.323-1.029a6.65 6.65 0 0 1 1.152-.414 5.603 5.603 0 0 1 1.475-.186c1.038 0 1.804.217 2.298.65.494.434.741 1.008.741 1.722 0 .372-.063.703-.19.993-.128.29-.29.555-.485.793-.196.238-.404.46-.624.665-.22.204-.428.404-.624.6a3.351 3.351 0 0 0 -.484.6 1.26 1.26 0 0 0 -.191.679c0 .314.044.576.132.786h-1.013a1.17 1.17 0 0 1 -.154-.38 1.985 1.985 0 0 1 -.051-.45c0-.304.058-.578.176-.82.117-.244.266-.47.447-.68.182-.21.377-.41.588-.6.21-.19.406-.388.587-.593a3.01 3.01 0 0 0 .448-.664c.117-.238.176-.51.176-.815a1.36 1.36 0 0 0 -.103-.521 1.125 1.125 0 0 0 -.323-.436 1.702 1.702 0 0 0 -.558-.3 2.529 2.529 0 0 0 -.807-.114zm-.822 7.944c0-.238.078-.44.235-.607.156-.167.376-.25.66-.25s.504.083.66.25c.157.167.236.37.236.607 0 .238-.079.44-.235.608-.157.166-.377.25-.66.25-.285 0-.505-.084-.661-.25a.855.855 0 0 1 -.235-.608z" fill="#fff" stroke="#fff" stroke-width=".25"/></g></svg>