<svg xmlns="http://www.w3.org/2000/svg" width="30" height="34" viewBox="0 0 30 34">
    <g fill="none" fill-rule="evenodd">
        <circle cx="14.986" cy="16.825" r="7.5" fill="#F1F4FE"/>
        <circle cx="14.833" cy="1.528" r="1" fill="#F1F4FE"/>
        <circle cx="28.38" cy="9.114" r="1" fill="#F1F4FE"/>
        <circle cx="28.243" cy="24.645" r="1" fill="#F1F4FE"/>
        <circle cx="14.817" cy="32.507" r="1" fill="#F1F4FE"/>
        <circle cx="1.478" cy="24.652" r="1" fill="#F1F4FE"/>
        <circle cx="1.492" cy="9.037" r="1" fill="#F1F4FE"/>
        <path fill="#B8C2FF" d="M5.226 23.148l.998-.578-.433-.748-.998.578.433.748zm23.166.786a.709.709 0 0 0-.5 1.208.709.709 0 1 0 .5-1.209zm1.112-.405a1.575 1.575 0 0 1 0 2.225 1.575 1.575 0 0 1-2.224 0 1.575 1.575 0 0 1 0-2.225 1.575 1.575 0 0 1 2.224 0zM14.84 31.72a.709.709 0 0 0-.5 1.21.709.709 0 1 0 .5-1.209zm-3.984-18.057a14.287 14.287 0 0 1-2.05-.493A6.801 6.801 0 0 0 7.62 16.74h2.623a8.943 8.943 0 0 1 .611-3.078zm1.284-.695c1.58.171 3.34.173 4.883.016-.597-1.055-1.433-1.942-2.446-2.554-1.008.609-1.84 1.49-2.437 2.538zm3.2-10.894a.709.709 0 0 0-1-1.001c-.662.662.339 1.663 1 1.001zm.414 8.123a8.048 8.048 0 0 1 2.189 2.672c.797-.12 1.42-.27 1.878-.404a6.95 6.95 0 0 0-4.067-2.268zm2.46 10.45c.944.15 1.63.334 2.068.476a6.851 6.851 0 0 0 1.255-3.517h-2.642a9.553 9.553 0 0 1-.682 3.04zm-1.329.705a24.245 24.245 0 0 0-4.466-.003 6.873 6.873 0 0 0 2.297 2.154 6.21 6.21 0 0 0 2.17-2.151zm-7.038.477a8.016 8.016 0 0 0 3.688 1.934 7.89 7.89 0 0 1-2.062-2.294c-.697.11-1.23.243-1.626.36zm1.288-4.223a7.97 7.97 0 0 0 .807 2.924c1.696-.205 3.721-.188 5.376-.003.39-.873.635-1.858.708-2.92h-6.891zm6.295-3.797a24.824 24.824 0 0 1-5.697-.018c-.384.91-.6 1.911-.623 2.95h6.934a8.068 8.068 0 0 0-.614-2.932zm2.953-.612c-.463.151-1.154.337-2.076.49.37.952.58 1.985.602 3.054h2.641a6.944 6.944 0 0 0-1.167-3.544zm-11.2 7.933c.5-.162 1.105-.33 1.864-.466a8.873 8.873 0 0 1-.781-3.058H7.64c.13 1.285.687 2.504 1.542 3.524zm19.71-11.558c.663-.663-.342-1.66-1-1.002-.662.662.339 1.663 1 1.002zM15.953 33.54a1.575 1.575 0 0 1-2.225 0c-.804-.804-.528-2.223.621-2.6v-6.171c-1.764-.058-4.419-1.244-6.051-3.375l-.663.361-.411.237-.434-.748.998-.578.01.016.008-.005c-2.45-4.03.117-8.622.92-8.447.288.06.792.348 2.498.617.716-1.386 1.793-2.537 3.125-3.28V3.06c-1.146-.376-1.427-1.795-.621-2.6a1.575 1.575 0 0 1 2.224 0c.854.854.47 2.34-.738 2.635v6.164a7.823 7.823 0 0 1 6.081 3.759l5.607-3.471c-.501-1.576 1.447-2.746 2.603-1.59 1.404 1.404-.592 3.6-2.122 2.31l-5.68 3.516c1.892 4.096-.493 8.033-1.11 8.257-.086.032-.148.029-.148.029-.078 0-.15-.027-.15-.027-.383-.143-1.197-.398-2.475-.58-.631 1.156-1.516 2.103-2.606 2.752v6.692c1.208.294 1.593 1.78.738 2.634zm-13.877-9.4c-.657-.656-1.672.332-1.002 1.002.662.662 1.664-.339 1.002-1.001zm-.501 2.074c-1.395 0-2.102-1.696-1.112-2.685a1.565 1.565 0 0 1 2.27.054l.528-.3.002.003.533-.308.433.749-.998.578-.004-.008-.107.061a1.57 1.57 0 0 1-1.545 1.856zm.5-16.643c.663-.663-.342-1.66-1-1.002-.662.662.339 1.663 1 1.002zM.463 7.958a1.575 1.575 0 0 1 2.224 0c.988.987.286 2.684-1.112 2.684-1.395 0-2.102-1.695-1.112-2.684zm15.991 23.235l.433.748 10.047-5.8-.433-.75-10.047 5.802zm11.525-8.532h.865V11.03h-.865v11.63zm-1.17-14.869l-9.8-5.657-.432.749 9.8 5.657.432-.749zm-13.566-4.89l-.433-.749-9.582 5.532.433.75 9.582-5.533zM1.006 22.276h.866V10.934h-.866v11.342zm1.809 3.806l9.923 5.729.432-.749-9.923-5.73-.432.75zm8.468-15.572c.824 0 .825-1.248 0-1.248-.824 0-.825 1.248 0 1.248zm6.796 12.993c.825 0 .826 1.248 0 1.248-.824 0-.825-1.248 0-1.248z"/>
    </g>
</svg>
