<svg height="45" viewBox="0 0 40 45" width="40" xmlns="http://www.w3.org/2000/svg" xmlns:xlink="http://www.w3.org/1999/xlink"><filter id="a" height="237.8%" width="304%" x="-102%" y="-68.9%"><feOffset dy="5" in="SourceAlpha" result="shadowOffsetOuter1"/><feGaussianBlur in="shadowOffsetOuter1" result="shadowBlurOuter1" stdDeviation="4"/><feColorMatrix in="shadowBlurOuter1" result="shadowMatrixOuter1" values="0 0 0 0 0 0 0 0 0 0 0 0 0 0 0 0 0 0 0.174606643 0"/><feMerge><feMergeNode in="shadowMatrixOuter1"/><feMergeNode in="SourceGraphic"/></feMerge></filter><linearGradient id="b" x1="0%" x2="99.393%" y1="32.569%" y2="32.569%"><stop offset="0" stop-color="#5269ff"/><stop offset="1" stop-color="#4890ff"/></linearGradient><g fill="none" fill-rule="evenodd" filter="url(#a)" transform="translate(7.621 3.063)"><g fill-rule="nonzero"><path d="m21.1 17.9v-1.499h.14a11.647 11.647 0 0 1 2.985 7.81c.003.287-.01.574-.039.86l-4.384-3.187.063-.187 1.234-3.796z" fill="#606060"/><path d="m19.802 21.884 4.384 3.187a11.399 11.399 0 0 1 -1.774 5.389h-5.22l-1.954-2.343h.102l1.758-5.397-.101-.078 2.852-.953.016.008z" fill="#fff"/><path d="m17.192 30.46h5.22a11.697 11.697 0 0 1 -7.064 5.115l1.664-5.115z" fill="#606060"/><path d="m18.755 16.401h2.344v1.5l-1.234 3.796-.016-.008-2.852.953-4.494-3.257v-2.985zm-3.517 11.716 1.954 2.343h-.18l-1.664 5.115a11.687 11.687 0 0 1 -5.69 0l-1.663-5.115h-.18l1.978-2.343h5.446z" fill="#fff"/><path d="m12.503 19.385 4.494 3.257.101.078-1.758 5.397h-5.673l-1.759-5.397.102-.078z" fill="#606060"/><path d="m6.252 16.401h6.251v2.984l-4.493 3.257-2.868-.711.062-.047-1.297-3.983v-1.5z" fill="#fff"/><path d="m9.792 28.117-1.977 2.343h-5.22a11.399 11.399 0 0 1 -1.775-5.39l4.321-3.139 2.868.71-.102.079 1.759 5.397h.125z" fill="#fff"/><path d="m7.994 30.46 1.665 5.115a11.697 11.697 0 0 1 -7.065-5.115zm-2.852-8.529-4.321 3.14a7.812 7.812 0 0 1 -.04-.86 11.627 11.627 0 0 1 2.72-7.505l.023.023.383 1.172 1.297 3.983z" fill="#606060"/></g><path d="m8.724 23.063-4.249-1.374m8.055-1.744-.008-4.47" stroke="#606060" stroke-linecap="round" stroke-width=".6"/><path d="m23.444 15.192-8.987-1.134-5.994-5.99c.75-.18 1.508-.36 2.266-.531.72-.164 1.446-.336 2.165-.508.09.278.2.55.328.812.532 1.149 1.766 3.093 3.97 3.093 3.126 0 3.907-3.124 3.907-3.124a2.297 2.297 0 0 1 2.345 2.343v5.04z" fill="url(#b)"/><path d="m23.444 15.058v.343a1 1 0 0 1 -1 1h-21.43a1 1 0 0 1 -1-1.017c.013-.76.029-1.201.049-1.326h22.38a1 1 0 0 1 1 1z" fill="#b8c2ff" fill-rule="nonzero"/><path d="m13.285 4.686v-2.343h7.814v5.467s-.781 3.124-3.907 3.124c-2.204 0-3.438-1.944-3.97-3.093l.063-.03v-3.126z" fill="#fff" fill-rule="nonzero"/><path d="m14.285 0h5.814a1 1 0 0 1 1 1v1.343h-7.814v-1.343a1 1 0 0 1 1-1z" fill="#b8c2ff" fill-rule="nonzero"/><path d="m14.457 14.058h-3.907l-5.205-5.201c.79-.266 1.618-.43 2.438-.625l.68-.164z" fill="#fff" fill-rule="nonzero"/><path d="m10.55 14.058h-10.487a5.425 5.425 0 0 1 1.469-2.944 9.172 9.172 0 0 1 3.555-2.171c.086-.032.172-.063.258-.086z" fill="url(#b)"/><path d="m17.973 3.905h1.563v1.562h-1.563z" fill="#ffca55" fill-rule="nonzero"/><path d="m10.291 27.274-2.618 3.621m7.336-3.142 2.618 3.621m-.897-8.409 4.249-1.374" stroke="#606060" stroke-linecap="round" stroke-width=".6"/></g></svg>