<svg height="32" viewBox="0 0 32 32" width="32" xmlns="http://www.w3.org/2000/svg"><g fill="none"><path d="m15.992 31.284c-6.81 0-12.854-4.585-14.699-11.15a15.182 15.182 0 0 1 1.385-11.61 15.179 15.179 0 0 1 9.188-7.233 15.3 15.3 0 0 1 4.142-.574c6.81 0 12.854 4.585 14.698 11.15a15.183 15.183 0 0 1 -1.384 11.612 15.176 15.176 0 0 1 -9.188 7.232 15.295 15.295 0 0 1 -4.142.574z" fill="#f2f5ff"/><path d="m31.396 11.672c-1.931-6.873-8.259-11.672-15.388-11.672-1.46 0-2.918.202-4.335.6a15.89 15.89 0 0 0 -9.62 7.572 15.895 15.895 0 0 0 -1.449 12.157c1.93 6.871 8.259 11.671 15.388 11.671 1.459 0 2.918-.202 4.336-.6a15.89 15.89 0 0 0 9.619-7.572 15.893 15.893 0 0 0 1.449-12.156zm-2.979 7.26-3.984 2.793-4.282-3.599-.046.056.239-5.963 4.935-3.191 3.425 2.889-.287 7.014zm-21.473 6.076-3.583-5.971 1.444-4.327 5.505.341 3.381 5.07-1.86 5.197-4.886-.31zm7.314-4.909 5.561-1.563 4.227 3.551-1.78 4.372-.008-.029-6.287 1.768-3.648-2.694zm2.755-18.624c2.286.16 4.452.863 6.36 1.99l1.579 5.147-4.899 3.168-5.535-2.048-1.527-5.433zm-9.468 2.66 4.943.317 1.517 5.4-3.689 4.671-5.509-.34-1.562-5.203.058-.108a14.515 14.515 0 0 1 4.242-4.738zm-5.562 15.805a14.847 14.847 0 0 1 -.218-.892l1.153.274 3.545 5.906-.053 1.71a14.533 14.533 0 0 1 -4.427-6.998zm17.957 10.08c-1.292.363-2.62.547-3.948.547-.33 0-.658-.019-.984-.041l1.11-1.823 6.283-1.766-.005-.015 1.961 1.01a14.564 14.564 0 0 1 -4.417 2.088zm9.969-9.709-.968-1.283.29-7.106.56-.555c.077.23.16.457.226.693a14.462 14.462 0 0 1 -.108 8.251z" fill="#b8c2ff"/></g></svg>