<svg height="89" viewBox="0 0 77 89" width="77" xmlns="http://www.w3.org/2000/svg" xmlns:xlink="http://www.w3.org/1999/xlink"><filter id="a" height="229.2%" width="287.8%" x="-93.9%" y="-63.9%"><feOffset dy="9" in="SourceAlpha" result="shadowOffsetOuter1"/><feGaussianBlur in="shadowOffsetOuter1" result="shadowBlurOuter1" stdDeviation="7.5"/><feColorMatrix in="shadowBlurOuter1" result="shadowMatrixOuter1" values="0 0 0 0 0 0 0 0 0 0 0 0 0 0 0 0 0 0 0.174606643 0"/><feMerge><feMergeNode in="shadowMatrixOuter1"/><feMergeNode in="SourceGraphic"/></feMerge></filter><linearGradient id="b" x1="0%" x2="99.393%" y1="32.569%" y2="32.569%"><stop offset="0" stop-color="#5269ff"/><stop offset="1" stop-color="#4890ff"/></linearGradient><g fill="none" fill-rule="evenodd" filter="url(#a)" transform="translate(14 6)"><g fill-rule="nonzero"><path d="m41.759 35.429v-2.969h.278a23.05 23.05 0 0 1 5.908 15.458c.006.567-.02 1.135-.077 1.7l-8.676-6.307.123-.37 2.444-7.513z" fill="#606060"/><path d="m39.192 43.312 8.676 6.307a22.56 22.56 0 0 1 -3.51 10.666h-10.333l-3.867-4.637h.201l3.48-10.682-.2-.154 5.644-1.886.031.015-.123.371z" fill="#fff"/><path d="m34.026 60.285h10.331a23.15 23.15 0 0 1 -13.981 10.125l3.294-10.125z" fill="#606060"/><path d="m37.12 32.461h4.639v2.968l-2.444 7.512-.03-.015-5.646 1.886-8.893-6.446v-5.906zm-6.96 23.187 3.866 4.637h-.356l-3.294 10.125a23.13 23.13 0 0 1 -11.26 0l-3.294-10.125h-.356l3.913-4.637h10.78z" fill="#fff"/><path d="m24.746 38.366 8.893 6.446.201.154-3.48 10.682h-11.228l-3.48-10.682.2-.154z" fill="#606060"/><path d="m12.373 32.461h12.373v5.905l-8.893 6.446-5.676-1.407.124-.093-2.568-7.883v-2.969z" fill="#fff"/><path d="m19.38 55.648-3.914 4.637h-10.331a22.56 22.56 0 0 1 -3.511-10.666l8.553-6.214 5.676 1.407-.201.154 3.48 10.682h.247z" fill="#fff"/><path d="m15.822 60.285 3.294 10.125a23.15 23.15 0 0 1 -13.981-10.125zm-5.645-16.88-8.553 6.215a15.461 15.461 0 0 1 -.077-1.7 23.012 23.012 0 0 1 5.382-14.855l.046.046.758 2.319 2.568 7.883-.124.093z" fill="#606060"/></g><path d="m17.265 45.645-8.408-2.72m15.943-3.45-.016-8.848" stroke="#606060" stroke-linecap="round" stroke-width="1.2"/><path d="m46.399 30.068-17.786-2.244-11.863-11.856a380.76 380.76 0 0 1 4.485-1.051c1.423-.325 2.861-.665 4.284-1.005.18.55.397 1.087.65 1.607 1.052 2.273 3.495 6.122 7.857 6.122 6.186 0 7.733-6.183 7.733-6.183a4.545 4.545 0 0 1 4.64 4.637z" fill="url(#b)"/><path d="m46.399 29.824v.637a2 2 0 0 1 -2 2h-42.372a2 2 0 0 1 -2-2.035c.026-1.49.058-2.357.097-2.602h44.275a2 2 0 0 1 2 2z" fill="#b8c2ff" fill-rule="nonzero"/><path d="m26.293 9.275v-4.638h15.466v10.82s-1.547 6.184-7.733 6.184c-4.362 0-6.805-3.85-7.857-6.122l.124-.061z" fill="#fff" fill-rule="nonzero"/><path d="m28.293 0h11.466a2 2 0 0 1 2 2v2.637h-15.466v-2.637a2 2 0 0 1 2-2z" fill="#b8c2ff" fill-rule="nonzero"/><path d="m28.613 27.824h-7.734l-10.3-10.295c1.562-.526 3.201-.85 4.825-1.237l1.346-.324z" fill="#fff" fill-rule="nonzero"/><path d="m20.88 27.824h-20.757a10.736 10.736 0 0 1 2.907-5.828 18.153 18.153 0 0 1 7.04-4.296c.17-.062.34-.124.51-.17l10.3 10.295z" fill="url(#b)"/><path d="m35.572 7.729h3.093v3.092h-3.093z" fill="#ffca55" fill-rule="nonzero"/><path d="m20.368 53.98-5.181 7.167m14.518-6.22 5.18 7.168m-1.773-16.643 8.408-2.72" stroke="#606060" stroke-linecap="round" stroke-width="1.2"/></g></svg>