<svg height="44" viewBox="0 0 45 44" width="45" xmlns="http://www.w3.org/2000/svg" xmlns:xlink="http://www.w3.org/1999/xlink"><filter id="a" height="275.9%" width="275.9%" x="-87.9%" y="-87.9%"><feOffset dy="5" in="SourceAlpha" result="shadowOffsetOuter1"/><feGaussianBlur in="shadowOffsetOuter1" result="shadowBlurOuter1" stdDeviation="4"/><feColorMatrix in="shadowBlurOuter1" result="shadowMatrixOuter1" values="0 0 0 0 0 0 0 0 0 0 0 0 0 0 0 0 0 0 0.17 0"/><feMerge><feMergeNode in="shadowMatrixOuter1"/><feMergeNode in="SourceGraphic"/></feMerge></filter><linearGradient id="b" x1="0%" x2="99.393%" y1="32.569%" y2="32.569%"><stop offset="0" stop-color="#5269ff"/><stop offset="1" stop-color="#4890ff"/></linearGradient><g fill="none" fill-rule="evenodd" filter="url(#a)" transform="translate(8 3)"><path d="m2.243.032h26.633v26.659h-26.633z" fill="#f2f5ff" fill-rule="nonzero"/><path d="m23.746 13.258-5.48 1.233-4.032-6.543-5.506 1.124-3.354-5.994-1.29.722 3.88 6.938 5.553-1.134 4.042 6.56 5.621-1.263 5.696 6.932v-2.333z" fill="url(#b)"/><g fill-rule="nonzero"><path d="m24.94 20.227h1.776v6.437h-1.776zm-4.587-3.551h1.776v10.014h-1.776zm-4.75 0h1.776v9.988h-1.776zm-4.75-5.326h1.776v15.315h-1.776zm-4.749.592h1.776v14.723h-1.776z" fill="#6b8bf5"/><path d="m24.94 22.472h1.776v4.202h-1.776zm-4.587-2.319h1.776v6.538h-1.776zm-4.75 0h1.776v6.521h-1.776zm-4.75-3.477h1.776v9.998h-1.776zm-4.749.387h1.776v9.61h-1.776z" fill="#4b6fe6"/><path d="m28.876 26.1-26.041-.025v-26.043h-1.185v2.456h-1.182v1.184h1.182v3.565h-1.182v1.184h1.182v3.565h-1.182v1.184h1.182v3.565h-1.182v1.183h1.182v3.567h-1.182v1.184h1.182v3.405l-1.183-.001-.001 1.183 1.184.002v1.182h1.184v-1.18l26.04.024z" fill="#ffca55"/></g></g></svg>