<svg height="19" viewBox="0 0 19 19" width="19" xmlns="http://www.w3.org/2000/svg" xmlns:xlink="http://www.w3.org/1999/xlink"><linearGradient id="a" x1="0%" x2="99.393%" y1="32.569%" y2="32.569%"><stop offset="0" stop-color="#5269ff"/><stop offset="1" stop-color="#4890ff"/></linearGradient><g fill="none" fill-rule="evenodd"><path d="m9.186.1 9.191 4.47-9.19 4.704-9.192-4.705z" fill="#b8c2ff" fill-rule="nonzero"/><path d="m-.003 4.556 9.25 4.734v9.17l-9.25-4.734z" fill="#d3d9ff" fill-rule="nonzero"/><path d="m19.4 13.61-9.25 4.734v-9.17l9.25-4.735z" fill="url(#a)" transform="translate(-1.003 .077)"/><path d="m6.48 9.631a.25.25 0 0 1 .136.223l-.004 2.136a.25.25 0 0 1 -.364.222l-3.488-1.786a.25.25 0 0 1 -.136-.222l.004-2.137a.25.25 0 0 1 .364-.221l3.49 1.785z" fill="#fff" fill-rule="nonzero"/></g></svg>