<svg height="19" viewBox="0 0 19 19" width="19" xmlns="http://www.w3.org/2000/svg"><g fill="none"><path d="m9.19.023 9.19 4.47-9.19 4.703-9.191-4.704z" fill="#fff"/><path d="m0 4.479 9.25 4.734v9.17l-9.25-4.733z" fill="#fff"/><path d="m18.4 13.61-9.25 4.734v-9.17l9.25-4.735z" fill="#b8c2ff"/><path d="m6.484 9.554-3.49-1.786a.25.25 0 0 0 -.364.222l-.004 2.137c0 .093.053.18.136.222l3.49 1.786a.25.25 0 0 0 .363-.222l.005-2.136a.25.25 0 0 0 -.136-.223zm-.368 1.95-2.99-1.53.004-1.576 2.99 1.53-.004 1.577z" fill="#5973e7"/></g></svg>