<svg height="74" viewBox="0 0 84 74" width="84" xmlns="http://www.w3.org/2000/svg" xmlns:xlink="http://www.w3.org/1999/xlink"><linearGradient id="a" x1="0%" y1="12.016%" y2="87.984%"><stop offset="0" stop-color="#8b8b8b"/><stop offset="1" stop-color="#d4d4d4"/></linearGradient><linearGradient id="b" x1="0%" y1="0%" y2="100%"><stop offset="0" stop-color="#fff"/><stop offset="1" stop-color="#fff"/></linearGradient><g fill="none" fill-rule="evenodd"><path d="m27.757 29.681c-7.856 0-14.246-6.481-14.246-14.448-.001-7.966 6.389-14.447 14.246-14.447 7.855 0 14.246 6.48 14.246 14.447s-6.391 14.448-14.246 14.448zm19.116 7.001c5.153 1.708 8.636 6.587 8.636 12.085v19.861c0 2.967-2.372 5.372-5.297 5.372h-44.915c-2.927 0-5.297-2.405-5.297-5.372v-19.795c0-5.522 3.351-10.82 8.664-12.16 1.945-.49 7.785-1.321 7.908-1.321.516 0 .999.325 1.185.843l8.55 23.79c.493 1.373 2.407 1.373 2.9 0l8.55-23.79c.23-.642.916-.986 1.557-.786 0 0 5.68.806 7.535 1.266zm-15.893-1.726a1.79 1.79 0 0 1 .23 2.086l-2.01 3.076.942 8.058-1.855 5.005a.563.563 0 0 1 -1.063 0l-1.855-5.005.942-8.058-2.012-3.076a1.79 1.79 0 0 1 .23-2.086c.34-.377.84-.567 1.344-.567h3.764c.505 0 1.004.19 1.345.567zm21.02-33.956h29a3 3 0 0 1 3 3v18a3 3 0 0 1 -3 3h-17.4l-8.354 6.426.86-6.426h-4.106a3 3 0 0 1 -3-3v-18a3 3 0 0 1 3-3z" fill="url(#a)" fill-rule="nonzero"/><path d="m69.132 13.01 4.596 4.597a1 1 0 0 1 0 1.414l-.707.707a1 1 0 0 1 -1.414 0l-4.597-4.596-4.596 4.596a1 1 0 0 1 -1.414 0l-.707-.707a1 1 0 0 1 0-1.414l4.596-4.597-4.596-4.596a1 1 0 0 1 0-1.414l.707-.707a1 1 0 0 1 1.414 0l4.596 4.596 4.597-4.596a1 1 0 0 1 1.414 0l.707.707a1 1 0 0 1 0 1.414z" fill="url(#b)"/></g></svg>