<svg height="20" viewBox="0 0 20 20" width="20" xmlns="http://www.w3.org/2000/svg" xmlns:xlink="http://www.w3.org/1999/xlink"><linearGradient id="a" x1="0%" x2="99.393%" y1="32.569%" y2="32.569%"><stop offset="0" stop-color="#5269ff"/><stop offset="1" stop-color="#4890ff"/></linearGradient><g fill="none" fill-rule="evenodd"><path d="m0 0h20v20h-20z" fill-rule="nonzero"/><g transform="translate(0 1)"><rect fill="#b8c2ff" fill-rule="nonzero" height="8" rx="1" width="20" y="10"/><path d="m2.5 13h15a.5.5 0 1 1 0 1h-15a.5.5 0 0 1 0-1z" fill="#3c55f9" fill-rule="nonzero"/><path d="m12 0h-11a1 1 0 0 0 -1 1v13h13v-13a1 1 0 0 0 -1-1z" fill="url(#a)" transform="translate(3.687)"/><g transform="translate(6.706 3.294)"><circle cx="3.5" cy="3.5" fill="#fff" fill-rule="nonzero" r="3.5"/><path d="m2.871 4.329 2.323-2.323a.25.25 0 0 1 .354.353l-2.5 2.5a.25.25 0 0 1 -.354 0l-1-1a.25.25 0 1 1 .354-.353z" fill="url(#a)" stroke="url(#a)" stroke-width=".5"/></g></g></g></svg>