<svg height="25" viewBox="0 0 25 25" width="25" xmlns="http://www.w3.org/2000/svg" xmlns:xlink="http://www.w3.org/1999/xlink"><defs><circle id="a" cx="12.5" cy="12.5" r="12.5"/><mask id="b" fill="#fff"><use fill="#fff" fill-rule="evenodd" xlink:href="#a"/></mask></defs><g fill="none" fill-rule="evenodd"><use fill="#f7f9ff" xlink:href="#a"/><g mask="url(#b)"><path d="m18.8 13.283v2.56h-6.868v-2.56h-8.747v5.681h19.336v-5.68z" fill="#f7f9ff"/><path d="m12.102 7.804c.605 0 1.092.476 1.092 1.058v.004c0 .587-.491 1.058-1.092 1.058h-.17v5.919h6.864v-8.04h-6.694z" fill="#f7f9ff"/><path d="m13.749 11.56 1.617 1.276 1.88-2.785"/><path d="m15.366 13.247a.443.443 0 0 1 -.267-.09l-1.617-1.276a.402.402 0 0 1 -.06-.579.433.433 0 0 1 .598-.057l1.253.988 1.622-2.403a.431.431 0 0 1 .584-.119c.195.123.25.377.123.566l-1.88 2.785a.417.417 0 0 1 -.288.18c-.026.005-.047.005-.068.005z" fill="#cbcfe3"/><path d="m12.106 7.804h3.264l-3.027-2.934a1.727 1.727 0 0 0 -1.418-.467l-2.875.365-1.21 1.173-1.322 1.28 2.244 2.173c.335.324.783.505 1.258.509l3.082.024c.605 0 1.092-.475 1.092-1.058v-.004c.004-.586-.487-1.062-1.088-1.062zm-7.63-1.59-2.042-1.978 3.218-3.118 2.042 1.978z" fill="#f7f9ff"/><path d="m5.52 7.222-1.042-1.01 3.206-3.106 1.042 1.01zm-2.335 11.742h19.335v2.334h-19.335z" fill="#f7f9ff"/><path d="m22.521 12.873h-3.298v-5.07c0-.225-.19-.41-.423-.41h-3.252l-2.904-2.813a2.168 2.168 0 0 0 -1.77-.582l-1.736.221a.398.398 0 0 0 -.11-.394l-.961-.93a.343.343 0 0 0 -.068-.087l-2.039-1.977a.431.431 0 0 0 -.598 0l-3.218 3.117a.4.4 0 0 0 0 .579l2.036 1.977 1.042 1.009 2.244 2.173a2.26 2.26 0 0 0 1.554.632l2.493.02v2.54h-8.328a.418.418 0 0 0 -.423.41v8.01c0 .226.19.41.423.41h19.336a.418.418 0 0 0 .424-.41v-8.015c0-.225-.19-.41-.424-.41zm-4.145.41v2.15h-6.02v-5.115c.008 0 .021-.004.03-.004.008 0 .016-.004.025-.004l.046-.012c.009 0 .017-.005.026-.005.021-.004.042-.012.06-.016h.008c.02-.008.046-.012.067-.02.009-.005.013-.005.022-.009.016-.004.03-.012.046-.016l.025-.012c.013-.004.026-.013.039-.017l.025-.012a.173.173 0 0 0 .038-.02l.026-.013c.012-.008.025-.012.033-.02.009-.005.017-.009.026-.017.012-.008.025-.012.034-.02.008-.004.017-.009.025-.017a.234.234 0 0 0 .034-.024.074.074 0 0 0 .021-.017c.013-.008.025-.02.038-.028.004-.005.013-.009.017-.013.017-.012.034-.028.05-.045l.01-.008c.012-.012.029-.025.042-.041l.017-.017c.008-.012.02-.02.03-.032.004-.009.012-.013.016-.02l.026-.03a.09.09 0 0 1 .017-.02c.008-.012.017-.02.025-.033.004-.008.013-.016.017-.024.008-.013.017-.021.025-.033.005-.008.013-.017.017-.025a.377.377 0 0 0 .021-.033.086.086 0 0 1 .017-.024c.009-.013.017-.025.022-.037l.012-.02c.009-.017.017-.034.026-.046.004-.004.004-.008.008-.012.009-.02.021-.041.03-.062.004-.004.004-.012.008-.016a.196.196 0 0 0 .017-.045c.004-.008.004-.017.009-.025l.012-.04c.005-.009.005-.017.009-.03l.012-.04c.005-.009.005-.021.009-.03.004-.012.008-.024.008-.04.005-.008.005-.02.005-.029.004-.012.004-.029.008-.041 0-.008.004-.02.004-.029 0-.012.005-.028.005-.04 0-.009.004-.017.004-.03 0-.016.004-.032.004-.049v-.024-.078c0-.029 0-.054-.004-.082v-.025c0-.016-.004-.037-.004-.053 0-.008-.005-.02-.005-.029-.004-.016-.004-.033-.008-.05 0-.011-.004-.02-.004-.032-.005-.016-.009-.033-.009-.05-.004-.007-.004-.02-.008-.028l-.013-.05c-.004-.007-.004-.015-.008-.028-.005-.016-.013-.037-.017-.053-.005-.008-.005-.012-.009-.02a.538.538 0 0 0 -.038-.087l-.025-.057s0-.004-.005-.004h4.912l.012 5.077zm-12.722-11.586 1.443 1.398-1.282 1.243-1.338 1.296-1.44-1.399zm2.032 1.989.444.43-2.608 2.527-.444-.43zm.377 5.418-1.944-1.883.665-.644 1.466-1.419 2.73-.348c.39-.05.784.082 1.064.348l2.303 2.232h-3.891a.418.418 0 0 0 -.424.41c0 .225.191.41.424.41h1.647a.66.66 0 0 1 .669.648v.004a.63.63 0 0 1 -.08.308.677.677 0 0 1 -.59.34l-3.082-.025a1.326 1.326 0 0 1 -.957-.381zm-4.454 4.59h7.904v1.739h-3.623a.418.418 0 0 0 -.423.41c0 .225.19.41.423.41h11.406a.418.418 0 0 0 .424-.41c0-.226-.191-.41-.424-.41h-.076v-1.74h2.875v4.861h-18.486zm18.489 7.194h-18.49v-1.514h18.49z" fill="#cbcfe3" fill-rule="nonzero"/></g></g></svg>