<svg height="18" viewBox="0 0 20 18" width="20" xmlns="http://www.w3.org/2000/svg"><g fill="none" fill-rule="evenodd"><path d="m0-1h20v20h-20z"/><rect fill="#b8c2ff" height="8" rx="1" width="20" y="10"/><path d="m2.5 13h15a.5.5 0 1 1 0 1h-15a.5.5 0 0 1 0-1z" fill="#5973e7"/><g fill-rule="nonzero"><path d="m15.687 0h-11a1 1 0 0 0 -1 1v13h13v-13a1 1 0 0 0 -1-1z" fill="#fff"/><g transform="translate(6.706 3.294)"><circle cx="3.5" cy="3.5" fill="#5973e7" r="3.5"/><path d="m2.871 4.329 2.323-2.323a.25.25 0 0 1 .354.353l-2.5 2.5a.25.25 0 0 1 -.354 0l-1-1a.25.25 0 1 1 .354-.353z" fill="#fff" stroke="#fff" stroke-width=".25"/></g></g></g></svg>