<?xml version="1.0" encoding="iso-8859-1"?>
<!-- Generator: Adobe Illustrator 19.0.0, SVG Export Plug-In . SVG Version: 6.00 Build 0)  -->
<svg version="1.1" id="Layer_1" xmlns="http://www.w3.org/2000/svg" xmlns:xlink="http://www.w3.org/1999/xlink" x="0px" y="0px"
	 viewBox="0 0 512 512" style="enable-background:new 0 0 512 512;" xml:space="preserve">
<path style="fill:#D8D9DD;" d="M118.283,262.729c-1.333-0.43-32.988-10.81-62.384-33.179
	c-14.148-10.766-25.057-28.213-32.423-51.854c-5.199-16.685-6.705-30.612-6.766-31.196l-1.594-15.141l15.019-2.5
	c0.58-0.097,14.413-2.356,31.87-1.796c24.751,0.797,44.474,6.66,58.622,17.426c29.395,22.37,47.838,50.11,48.609,51.281
	L118.283,262.729z"/>
<path style="fill:#965500;" d="M142.244,213.577c-0.161-0.243-16.344-24.442-41.2-43.356c-8.571-6.522-22.432-10.27-40.08-10.839
	c-3.196-0.103-6.251-0.091-9.064-0.006c3.778,15.255,11.138,34.972,23.581,44.441c25.056,19.066,52.474,28.054,52.748,28.144
	L142.244,213.577z"/>
<path style="fill:#A0A1A5;" d="M393.717,262.729c1.333-0.43,32.988-10.81,62.384-33.179c14.148-10.766,25.057-28.213,32.423-51.854
	c5.199-16.685,6.704-30.612,6.766-31.196l1.594-15.141l-15.019-2.5c-0.58-0.097-14.413-2.356-31.87-1.796
	c-24.751,0.797-44.474,6.66-58.622,17.426c-29.395,22.37-47.838,50.11-48.609,51.281L393.717,262.729z"/>
<path style="fill:#703F00;" d="M369.756,213.577c0.161-0.243,16.344-24.442,41.2-43.356c8.571-6.522,22.432-10.27,40.08-10.839
	c3.196-0.103,6.251-0.091,9.064-0.006c-3.778,15.255-11.138,34.972-23.581,44.441c-25.056,19.066-52.474,28.054-52.748,28.144
	L369.756,213.577z"/>
<path style="fill:#3E2C27;" d="M175.809,190.045c-0.025-0.369-3.023-40.169-24.26-72.017c-3.326-4.99-6.37-9.465-9.055-13.414
	C117.597,68,114.864,61.906,114.864,0h32.337c0,29.015,0.443,42.779,3.188,52.917c2.611,9.637,8.036,17.617,18.844,33.513
	c2.724,4.007,5.813,8.548,9.221,13.659c26.145,39.211,29.492,85.861,29.622,87.827L175.809,190.045z"/>
<path style="fill:#2E211D;" d="M336.19,190.075l-32.266-2.159c0.129-1.966,3.477-48.617,29.622-87.827
	c3.408-5.111,6.496-9.653,9.221-13.659c10.808-15.896,16.234-23.874,18.844-33.513c2.745-10.138,3.188-23.902,3.188-52.917h32.337
	c0,61.906-2.734,68-27.63,104.613c-2.685,3.949-5.729,8.425-9.055,13.414C339.215,149.876,336.217,189.676,336.19,190.075z"/>
<path style="fill:#D8D9DD;" d="M137.683,419.62C156.54,467.763,186.197,512,256,512s99.46-44.237,118.317-92.38
	c-29.82-20.153-72.527-31.839-118.317-31.839S167.503,399.468,137.683,419.62z"/>
<path style="fill:#965500;" d="M393.534,366.088c10.32-27.47,18.472-49.168,18.472-84.629c0-45.962-20.167-80.115-58.322-98.765
	c-32.504-15.888-71.317-17.726-97.683-17.726s-65.179,1.838-97.683,17.726c-38.154,18.651-58.322,52.803-58.322,98.765
	c0,35.46,8.152,57.158,18.472,84.629c3.415,9.09,6.946,18.489,10.599,29.466c2.665,8.008,5.494,16.09,8.618,24.066
	c29.82-20.152,72.527-31.839,118.317-31.839s88.496,11.685,118.317,31.839c3.124-7.976,5.953-16.059,8.618-24.066
	C386.587,384.577,390.119,375.176,393.534,366.088z"/>
<path style="fill:#D8D9DD;" d="M256,407.935L256,407.935c-16.395,0-29.686,6.989-29.686-9.406v-63.895
	c0-16.395,13.29-29.686,29.686-29.686l0,0c16.395,0,29.686,13.29,29.686,29.686v63.895C285.686,414.924,272.395,407.935,256,407.935
	z"/>
<g>
	<path style="fill:#333333;" d="M180.971,269.474c0-11.876,9.52-21.493,21.218-21.493c11.713,0,21.232,9.618,21.232,21.493
		c0,11.874-9.519,21.501-21.232,21.501C190.491,290.974,180.971,281.348,180.971,269.474z"/>
	<path style="fill:#333333;" d="M211.561,449.569c0-8.193,6.568-14.829,14.639-14.829c8.081,0,14.648,6.636,14.648,14.829
		c0,8.192-6.567,14.833-14.648,14.833C218.128,464.402,211.561,457.761,211.561,449.569z"/>
</g>
<path style="fill:#A0A1A5;" d="M256,512c69.803,0,99.46-44.237,118.317-92.38c-29.82-20.153-72.527-31.839-118.317-31.839
	C256,449.569,256,464.513,256,512z"/>
<path style="fill:#703F00;" d="M393.534,366.088c10.32-27.47,18.472-49.168,18.472-84.629c0-45.962-20.167-80.115-58.322-98.765
	c-32.504-15.888-71.317-17.726-97.683-17.726c0,39.212,0,175.248,0,222.814c45.79,0,88.496,11.685,118.317,31.839
	c3.124-7.976,5.953-16.059,8.618-24.066C386.587,384.577,390.119,375.176,393.534,366.088z"/>
<path style="fill:#A0A1A5;" d="M256,407.935L256,407.935c0-11.338,0-82.719,0-102.987l0,0c16.395,0,29.686,13.29,29.686,29.686
	v63.895C285.686,414.924,272.395,407.935,256,407.935z"/>
<g>
	<path style="fill:#333333;" d="M331.029,269.474c0-11.964-9.581-21.661-21.379-21.661c-11.812,0-21.393,9.698-21.393,21.661
		s9.581,21.661,21.393,21.661C321.448,291.135,331.029,281.437,331.029,269.474z"/>
	<path style="fill:#333333;" d="M300.439,449.569c0-8.253-6.61-14.944-14.749-14.944c-8.149,0-14.759,6.691-14.759,14.944
		s6.61,14.944,14.759,14.944C293.83,464.513,300.439,457.823,300.439,449.569z"/>
</g>
<g>
</g>
<g>
</g>
<g>
</g>
<g>
</g>
<g>
</g>
<g>
</g>
<g>
</g>
<g>
</g>
<g>
</g>
<g>
</g>
<g>
</g>
<g>
</g>
<g>
</g>
<g>
</g>
<g>
</g>
</svg>
