<?xml version="1.0" encoding="iso-8859-1"?>
<!-- Generator: Adobe Illustrator 19.0.0, SVG Export Plug-In . SVG Version: 6.00 Build 0)  -->
<svg version="1.1" id="Layer_1" xmlns="http://www.w3.org/2000/svg" xmlns:xlink="http://www.w3.org/1999/xlink" x="0px" y="0px"
	 viewBox="0 0 512 512" style="enable-background:new 0 0 512 512;" xml:space="preserve">
<path style="fill:#87868A;" d="M169.01,280.836c-0.839,1.28-20.949,31.324-54.592,31.324c-32.364,0-43.457-21.393-54.185-42.082
	c-1.2-2.313-2.442-4.709-3.76-7.175c-7.986-14.95-17.745-24.518-27.185-33.769C14.89,215.017,0,200.424,0,172.53
	c0-46.872,40.96-85.006,91.307-85.006c49.7,0,69.487,25.694,71.58,28.624L169.01,280.836z"/>
<path style="fill:#D37B93;" d="M137.38,134.37c0,0,0.065,0.1,0.206,0.28c-0.507-0.644-12.805-15.777-46.279-15.777
	c-16.496,0-31.845,5.901-43.222,16.615c-10.637,10.017-16.738,23.52-16.738,37.043c0,14.128,6.096,20.699,19.884,34.214
	c10.085,9.887,22.638,22.189,32.892,41.387c1.379,2.583,2.68,5.092,3.937,7.513c10.912,21.043,14.117,25.166,26.359,25.166
	c16.375,0,28.274-17.007,28.387-17.178L137.38,134.37z"/>
<path style="fill:#646467;" d="M342.99,280.836c0.839,1.28,20.949,31.324,54.592,31.324c32.364,0,43.457-21.393,54.185-42.082
	c1.2-2.313,2.442-4.709,3.76-7.175c7.986-14.95,17.745-24.518,27.185-33.769C497.11,215.019,512,200.425,512,172.533
	c0-46.872-40.96-85.006-91.307-85.006c-49.7,0-69.487,25.694-71.58,28.624L342.99,280.836z"/>
<path style="fill:#9D5B6E;" d="M374.62,134.37c0,0-0.065,0.1-0.206,0.28c0.507-0.644,12.805-15.777,46.279-15.777
	c16.496,0,31.845,5.901,43.222,16.615c10.637,10.017,16.738,23.52,16.738,37.043c0,14.128-6.096,20.699-19.884,34.214
	c-10.085,9.887-22.638,22.189-32.892,41.387c-1.379,2.583-2.68,5.092-3.937,7.513c-10.912,21.043-14.117,25.166-26.359,25.166
	c-16.375,0-28.274-17.007-28.387-17.178L374.62,134.37z"/>
<path style="fill:#87868A;" d="M213.899,442.819h-69.718v-86.904h15.673c20.455,0,33.814-1.558,40.843-4.765
	c3.318-1.513,4.478-2.496,4.478-7.572c0-13.544-26.374-33.964-42.132-46.165c-3.986-3.087-7.752-6.002-11.147-8.776
	c-22.107-18.066-42.563-40.944-42.563-85.618c0-50.817,17.999-88.041,53.497-110.641C187.01,76.986,218.356,69.181,256,69.181
	s68.99,7.805,93.169,23.198c35.498,22.6,53.497,59.825,53.497,110.641c0,37.228-15.579,67.975-43.87,86.578
	c-40.798,26.83-49.596,57.471-57.359,84.507C291.739,407.887,281.71,442.819,213.899,442.819z"/>
<path style="fill:#646467;" d="M256,69.181c37.644,0,68.99,7.805,93.169,23.198c35.498,22.6,53.497,59.825,53.497,110.641
	c0,37.228-15.579,67.975-43.87,86.578c-40.798,26.83-49.596,57.471-57.359,84.507c-7.184,25.021-14.548,50.672-45.436,62.295
	C256.001,357.429,256,148.983,256,69.181z"/>
<g>
	<path style="fill:#333333;" d="M232.138,197.268c0-10.032-8.034-18.165-17.927-18.165c-9.905,0-17.94,8.132-17.94,18.165
		c0,10.032,8.034,18.165,17.94,18.165C224.103,215.433,232.138,207.3,232.138,197.268z"/>
	<path style="fill:#333333;" d="M315.729,197.268c0-10.032-8.034-18.165-17.927-18.165c-9.905,0-17.94,8.132-17.94,18.165
		c0,10.032,8.034,18.165,17.94,18.165C307.695,215.433,315.729,207.3,315.729,197.268z"/>
</g>
<g>
</g>
<g>
</g>
<g>
</g>
<g>
</g>
<g>
</g>
<g>
</g>
<g>
</g>
<g>
</g>
<g>
</g>
<g>
</g>
<g>
</g>
<g>
</g>
<g>
</g>
<g>
</g>
<g>
</g>
</svg>
