<?xml version="1.0" encoding="iso-8859-1"?>
<!-- Generator: Adobe Illustrator 19.0.0, SVG Export Plug-In . SVG Version: 6.00 Build 0)  -->
<svg version="1.1" id="Layer_1" xmlns="http://www.w3.org/2000/svg" xmlns:xlink="http://www.w3.org/1999/xlink" x="0px" y="0px"
	 viewBox="0 0 512 512" style="enable-background:new 0 0 512 512;" xml:space="preserve">
<path style="fill:#EFC589;" d="M63.517,208.247c-36.11-9.701-61.594-41.696-63.414-79.618c-1.105-23.042,6.665-45.143,21.881-62.233
	c15.294-17.178,36.266-27.24,59.051-28.332c35.211-1.7,68.293,19.279,82.315,52.183L63.517,208.247z"/>
<path style="fill:#B17E15;" d="M71.65,177.974c-22.902-6.153-39.072-26.586-40.235-50.847c-0.711-14.797,4.256-28.961,13.982-39.886
	c9.648-10.836,22.838-17.18,37.142-17.868c22.188-1.073,43.068,12.263,51.975,33.163L71.65,177.974z"/>
<path style="fill:#B19267;" d="M448.483,208.247c36.11-9.701,61.594-41.696,63.414-79.618c1.106-23.042-6.665-45.143-21.881-62.233
	c-15.294-17.178-36.266-27.24-59.051-28.332c-35.211-1.7-68.293,19.279-82.315,52.183L448.483,208.247z"/>
<path style="fill:#835E10;" d="M440.351,177.974c22.902-6.153,39.072-26.586,40.235-50.847c0.711-14.797-4.256-28.961-13.982-39.886
	c-9.647-10.836-22.838-17.18-37.142-17.868c-22.188-1.073-43.068,12.263-51.975,33.163L440.351,177.974z"/>
<path style="fill:#EFC589;" d="M256,474.032c-59.825,0-114.48-17.897-153.894-50.394c-42.731-35.234-65.317-84.493-65.317-142.458
	c0-58.092,23.168-117.514,63.565-163.03c20.287-22.857,43.655-40.938,69.453-53.738c27.562-13.675,56.561-20.608,86.192-20.608
	s58.63,6.934,86.192,20.608c25.798,12.8,49.166,30.881,69.453,53.738c40.397,45.517,63.565,104.939,63.565,163.03
	c0,57.964-22.586,107.224-65.317,142.458C370.48,456.135,315.826,474.032,256,474.032z"/>
<path style="fill:#B19267;" d="M256,474.032c0-47.348,0-392.311,0-430.228c29.63,0,58.63,6.934,86.192,20.608
	c25.798,12.8,49.166,30.881,69.453,53.738c40.397,45.517,63.565,104.939,63.565,163.03c0,57.964-22.586,107.224-65.317,142.458
	C370.48,456.135,315.826,474.032,256,474.032z"/>
<g>
	<path style="fill:#333333;" d="M183.301,213.938c0-11.507,9.225-20.827,20.56-20.827c11.351,0,20.573,9.319,20.573,20.827
		c0,11.505-9.223,20.833-20.573,20.833C192.526,234.772,183.301,225.444,183.301,213.938z"/>
	<path style="fill:#333333;" d="M328.704,213.938c0-11.592-9.284-20.989-20.715-20.989c-11.446,0-20.73,9.397-20.73,20.989
		c0,11.592,9.284,20.989,20.73,20.989C319.42,234.928,328.704,225.531,328.704,213.938z"/>
</g>
<g>
	
		<rect x="13.972" y="260.717" transform="matrix(-0.9741 -0.2262 0.2262 -0.9741 102.6489 564.5432)" style="fill:#87868A;" width="139.391" height="31.347"/>
	
		<rect x="67.988" y="306.115" transform="matrix(-0.2262 -0.9741 0.9741 -0.2262 -263.484 542.3106)" style="fill:#87868A;" width="31.347" height="139.391"/>
</g>
<g>
	
		<rect x="412.657" y="206.694" transform="matrix(-0.2262 -0.9741 0.9741 -0.2262 255.9901 756.1371)" style="fill:#646467;" width="31.347" height="139.391"/>
	
		<rect x="358.643" y="360.155" transform="matrix(-0.9741 -0.2262 0.2262 -0.9741 760.5657 838.8043)" style="fill:#646467;" width="139.391" height="31.347"/>
</g>
<path style="fill:#5B5B5F;" d="M240.329,473.611c5.181,0.275,10.404,0.421,15.671,0.421c5.268,0,10.494-0.146,15.676-0.422V368.155
	h-31.347L240.329,473.611"/>
<path style="fill:#D37B93;" d="M256.002,370.924c-15.574,0-29.495-12.234-34.758-17.494c-5.283-5.28-17.571-19.269-17.571-35.076
	c0-12.933,6.442-22.765,18.137-27.687c7.797-3.281,17.703-4.618,34.192-4.618s26.396,1.337,34.193,4.618
	c11.695,4.921,18.137,14.754,18.137,27.687c0,15.807-12.288,29.796-17.571,35.076C285.499,358.69,271.576,370.924,256.002,370.924"
	/>
<path style="fill:#434347;" d="M271.676,368.155h-2.329c-4.174,1.675-8.686,2.769-13.344,2.769c-0.001,0-0.001,0-0.002,0v103.107
	l0,0c0.118,0,0.235,0,0.352,0c2.311-0.003,4.612-0.043,6.908-0.098c0.447-0.012,0.891-0.025,1.337-0.038
	c2.367-0.069,4.728-0.165,7.077-0.29v-105.45"/>
<path style="fill:#9D5B6E;" d="M256.002,286.05c-0.001,0-0.001,0-0.002,0v84.875c0.001,0,0.001,0,0.002,0
	c4.658,0,9.169-1.095,13.344-2.769c9.784-3.925,17.727-11.037,21.415-14.725c5.283-5.28,17.571-19.269,17.571-35.076
	c0-12.933-6.442-22.765-18.137-27.687C282.398,287.388,272.492,286.05,256.002,286.05"/>
<g>
</g>
<g>
</g>
<g>
</g>
<g>
</g>
<g>
</g>
<g>
</g>
<g>
</g>
<g>
</g>
<g>
</g>
<g>
</g>
<g>
</g>
<g>
</g>
<g>
</g>
<g>
</g>
<g>
</g>
</svg>
