<?xml version="1.0" encoding="iso-8859-1"?>
<!-- Generator: Adobe Illustrator 19.0.0, SVG Export Plug-In . SVG Version: 6.00 Build 0)  -->
<svg version="1.1" id="Layer_1" xmlns="http://www.w3.org/2000/svg" xmlns:xlink="http://www.w3.org/1999/xlink" x="0px" y="0px"
	 viewBox="0 0 512 512" style="enable-background:new 0 0 512 512;" xml:space="preserve">
<path style="fill:#B17E15;" d="M387.263,61.017C352.32,21.67,305.704,0,256,0s-96.32,21.67-131.264,61.017
	c-34.461,38.807-53.442,90.278-53.442,144.93c0,27.569,4.803,54.336,14.277,79.556l83.47,102.206
	c26.568,15.823,56.639,24.187,86.959,24.187s60.39-8.363,86.959-24.187l83.47-102.206c9.474-25.221,14.277-51.987,14.277-79.556
	C440.706,151.295,421.725,99.824,387.263,61.017"/>
<rect x="151.509" y="378.46" style="fill:#D8D9DD;" width="32.337" height="133.54"/>
<polyline style="fill:#A0A1A5;" points="355.206,512 322.869,512 322.869,378.464 355.206,378.464 355.206,512 "/>
<path style="fill:#EFC589;" d="M350.708,397.249c-24.132,0-38.496-13.255-51.169-24.949c-12.289-11.342-22.904-21.136-43.539-21.136
	c-20.636,0-31.251,9.795-43.54,21.136c-12.673,11.695-27.037,24.949-51.168,24.949c-47.115,0-85.447-38.331-85.447-85.446
	c0-32.073,10.791-58.66,32.073-79.024c29.91-28.62,79.733-43.132,148.082-43.132s118.172,14.512,148.082,43.132
	c21.282,20.364,32.072,46.951,32.072,79.024C436.154,358.918,397.823,397.249,350.708,397.249"/>
<g>
	<path style="fill:#333333;" d="M180.971,123.958c0-11.876,9.52-21.493,21.218-21.493c11.713,0,21.232,9.618,21.232,21.493
		c0,11.874-9.518,21.501-21.232,21.501C190.491,145.459,180.971,135.832,180.971,123.958z"/>
	<path style="fill:#333333;" d="M331.029,123.958c0-11.964-9.581-21.661-21.379-21.661c-11.812,0-21.393,9.698-21.393,21.661
		c0,11.964,9.581,21.661,21.393,21.661C321.448,145.619,331.029,135.921,331.029,123.958"/>
</g>
<g>
	<path style="fill:#2E211D;" d="M192.258,263.37c0-5.561,4.458-10.064,9.936-10.064c5.485,0,9.943,4.503,9.943,10.064
		c0,5.56-4.457,10.068-9.943,10.068C196.715,273.437,192.258,268.929,192.258,263.37z"/>
	<path style="fill:#2E211D;" d="M171.032,318.69c0-5.561,4.458-10.064,9.936-10.064c5.485,0,9.941,4.503,9.941,10.064
		c0,5.56-4.457,10.068-9.941,10.068C175.49,328.758,171.032,324.25,171.032,318.69z"/>
	<path style="fill:#2E211D;" d="M138.271,285.641c0-5.561,4.458-10.064,9.936-10.064c5.485,0,9.941,4.503,9.941,10.064
		c0,5.56-4.457,10.068-9.941,10.068C142.729,295.709,138.271,291.201,138.271,285.641z"/>
	<path style="fill:#2E211D;" d="M373.729,285.641c0-5.561-4.458-10.064-9.936-10.064c-5.485,0-9.943,4.503-9.943,10.064
		c0,5.56,4.457,10.068,9.943,10.068C369.271,295.709,373.729,291.201,373.729,285.641"/>
	<path style="fill:#2E211D;" d="M239.832,353.599c4.702-1.539,9.978-2.435,16.168-2.435s11.467,0.896,16.168,2.435V189.941
		c-5.272-0.189-10.654-0.293-16.168-0.293c-5.515,0-10.895,0.105-16.168,0.293V353.599"/>
</g>
<path style="fill:#BDBDBF;" d="M256.322,411.897c-0.016,0-0.032,0-0.05,0C256.289,411.897,256.307,411.897,256.322,411.897
	 M256.634,411.896c-0.015,0-0.032,0-0.046,0C256.603,411.896,256.618,411.896,256.634,411.896 M256.921,411.894
	c-0.004,0-0.006,0-0.011,0C256.915,411.895,256.916,411.895,256.921,411.894 M257.218,411.893h-0.002H257.218 M257.523,411.889
	h-0.003H257.523 M436.154,311.629c0,0.058,0,0.116,0,0.175l0,0C436.154,311.745,436.154,311.686,436.154,311.629 M436.154,311.452
	c0,0.041,0,0.082,0,0.123C436.154,311.534,436.154,311.493,436.154,311.452 M436.154,311.279c0,0.037,0,0.071,0,0.109
	C436.154,311.351,436.154,311.314,436.154,311.279 M436.153,311.107c0,0.033,0,0.067,0,0.1
	C436.153,311.174,436.153,311.141,436.153,311.107 M436.152,310.949c0,0.025,0,0.051,0,0.075
	C436.152,311,436.152,310.974,436.152,310.949 M436.149,310.53c0,0.005,0,0.015,0,0.02
	C436.149,310.544,436.149,310.536,436.149,310.53 M436.147,310.374v0.001V310.374 M440.702,207.294c0,0.04,0,0.081,0,0.122
	C440.702,207.375,440.702,207.334,440.702,207.294 M440.703,206.983c0,0.052,0,0.103,0,0.155
	C440.703,207.085,440.703,207.036,440.703,206.983 M440.705,206.674c0,0.057,0,0.114-0.001,0.171
	C440.704,206.789,440.704,206.732,440.705,206.674 M440.705,206.348c0,0.067,0,0.134,0,0.2
	C440.705,206.482,440.705,206.415,440.705,206.348 M440.706,205.948c0,0.101,0,0.2,0,0.301
	C440.706,206.15,440.706,206.048,440.706,205.948"/>
<path style="fill:#835E10;" d="M256,351.164v60.733c0.092,0,0.181,0,0.274,0c0.017,0,0.032,0,0.05,0c0.087,0,0.177,0,0.264-0.001
	c0.015,0,0.032,0,0.046,0c0.092,0,0.184-0.001,0.277-0.001c0.003,0,0.006,0,0.011,0c0.098,0,0.196-0.001,0.295-0.002h0.002
	c0.101-0.001,0.201-0.001,0.302-0.002h0.003c22.388-0.207,44.602-4.982,65.346-13.936v-7.65
	c-9.123-4.895-16.475-11.677-23.33-18.003c-8.606-7.943-16.39-15.126-27.371-18.719v0.018c-4.592-1.504-9.73-2.393-15.733-2.434
	c-0.001,0-0.002,0-0.003,0c-0.042,0-0.085,0-0.127-0.001c-0.01,0-0.018,0-0.028,0c-0.037,0-0.072,0-0.109,0c-0.011,0-0.02,0-0.031,0
	C256.092,351.164,256.045,351.164,256,351.164L256,351.164 M309.65,145.619c-11.812,0-21.393-9.698-21.393-21.661
	s9.581-21.661,21.393-21.661c11.798,0,21.379,9.698,21.379,21.661C331.029,135.921,321.448,145.619,309.65,145.619 M256,0v189.648
	c0.109,0,0.219,0,0.328,0c0.058,0,0.113,0,0.171,0c0.015,0,0.03,0,0.045,0c68.073,0.077,117.706,14.586,147.538,43.132
	c12.263,11.734,21.044,25.536,26.282,41.263c6.714-21.362,10.194-43.709,10.336-66.628c0-0.04,0-0.081,0-0.122
	c0-0.052,0.001-0.105,0.001-0.155c0-0.052,0-0.103,0-0.155c0-0.045,0-0.092,0-0.137c0-0.057,0-0.114,0.001-0.171
	c0-0.041,0-0.084,0-0.126c0-0.067,0-0.134,0-0.2c0-0.033,0-0.066,0-0.099c0-0.101,0-0.2,0-0.301l0,0
	c0-54.652-18.981-106.124-53.443-144.93C352.32,21.67,305.704,0,256,0"/>
<path style="fill:#77777B;" d="M350.501,397.249c0.017,0,0.033,0,0.051,0C350.536,397.249,350.517,397.249,350.501,397.249
	 M350.337,397.249c0.018,0,0.036,0,0.053,0C350.373,397.249,350.356,397.249,350.337,397.249 M350.181,397.247
	c0.014,0,0.029,0,0.043,0C350.21,397.248,350.196,397.248,350.181,397.247 M350.025,397.246c0.005,0,0.011,0,0.016,0
	C350.035,397.246,350.031,397.246,350.025,397.246"/>
<path style="fill:#B19267;" d="M256.432,351.166c0.001,0,0.002,0,0.003,0C256.433,351.166,256.433,351.166,256.432,351.166
	 M256.277,351.165c0.01,0,0.018,0,0.028,0C256.295,351.165,256.286,351.165,256.277,351.165 M256.137,351.164
	c0.011,0,0.02,0,0.031,0C256.157,351.164,256.147,351.164,256.137,351.164 M331.032,328.758c-5.485,0-9.943-4.507-9.943-10.068
	s4.457-10.064,9.943-10.064c5.478,0,9.935,4.503,9.935,10.064C340.968,324.251,336.51,328.758,331.032,328.758 M309.806,273.437
	c-5.484,0-9.941-4.507-9.941-10.068s4.457-10.064,9.941-10.064c5.479,0,9.936,4.503,9.936,10.064
	C319.742,268.93,315.285,273.437,309.806,273.437 M256.544,189.648c5.325,0.006,10.526,0.111,15.624,0.293v163.641
	c10.981,3.593,18.765,10.776,27.371,18.719c6.855,6.326,14.206,13.109,23.33,18.003c2.654,1.424,5.457,2.687,8.443,3.734
	c0.003-0.001,0.006-0.003,0.009-0.004c5.544,1.942,11.708,3.14,18.704,3.213c0.005,0,0.011,0,0.016,0
	c0.046,0,0.093,0.001,0.14,0.001c0.015,0,0.028,0,0.043,0c0.038,0,0.075,0,0.113,0.001c0.017,0,0.036,0,0.053,0
	c0.037,0,0.073,0,0.11,0c0.016,0,0.035,0,0.051,0c0.053,0,0.105,0,0.157,0c47.115,0,85.446-38.331,85.446-85.446
	c0-0.058,0-0.116,0-0.175c0-0.018,0-0.036,0-0.054c0-0.041,0-0.082,0-0.123c0-0.023,0-0.043,0-0.066c0-0.037,0-0.071,0-0.109
	c0-0.024,0-0.047,0-0.071c0-0.033,0-0.067,0-0.1c0-0.028,0-0.055,0-0.083c0-0.025,0-0.051,0-0.075
	c-0.001-0.134-0.001-0.265-0.003-0.399c0-0.005,0-0.015,0-0.021c0-0.052-0.001-0.102-0.001-0.154v-0.001
	c-0.132-13.041-2.073-25.161-5.787-36.318c0.001-0.004,0.003-0.01,0.004-0.014c-5.239-15.725-14.019-29.529-26.282-41.263
	C374.25,204.235,324.617,189.725,256.544,189.648 M256.328,189.648c0.057,0,0.114,0,0.171,0
	C256.441,189.648,256.386,189.648,256.328,189.648"/>
<g>
	<path style="fill:#221916;" d="M309.806,253.305c-5.484,0-9.941,4.503-9.941,10.064c0,5.56,4.457,10.068,9.941,10.068
		c5.479,0,9.936-4.507,9.936-10.068C319.742,257.809,315.285,253.305,309.806,253.305"/>
	<path style="fill:#221916;" d="M331.032,308.626c-5.485,0-9.943,4.503-9.943,10.064s4.457,10.068,9.943,10.068
		c5.478,0,9.935-4.507,9.935-10.068C340.968,313.129,336.51,308.626,331.032,308.626"/>
	<path style="fill:#221916;" d="M363.793,275.576c-5.485,0-9.943,4.503-9.943,10.064c0,5.56,4.457,10.068,9.943,10.068
		c5.478,0,9.936-4.508,9.936-10.068C373.729,280.08,369.271,275.576,363.793,275.576"/>
	<path style="fill:#221916;" d="M256,189.648v161.516l0,0c0.045,0,0.092,0,0.137,0c0.011,0,0.022,0,0.031,0c0.037,0,0.072,0,0.109,0
		c0.01,0,0.019,0,0.028,0c0.042,0,0.085,0,0.127,0.001c0.001,0,0.002,0,0.003,0c6.003,0.041,11.142,0.93,15.733,2.434v-0.018
		v-163.64c-5.098-0.182-10.3-0.286-15.624-0.293c-0.015,0-0.03,0-0.045,0c-0.057,0-0.114,0-0.171,0
		C256.219,189.648,256.11,189.648,256,189.648"/>
</g>
<g>
</g>
<g>
</g>
<g>
</g>
<g>
</g>
<g>
</g>
<g>
</g>
<g>
</g>
<g>
</g>
<g>
</g>
<g>
</g>
<g>
</g>
<g>
</g>
<g>
</g>
<g>
</g>
<g>
</g>
</svg>
