<svg xmlns="http://www.w3.org/2000/svg" width="14" height="15" viewBox="0 0 14 15">
    <g fill="none" fill-rule="nonzero">
        <path d="M-1 0h15v15H-1z"/>
        <path fill="#9BAEDA" d="M3.105 5.67V4.45c0-2.022 1.697-3.66 3.79-3.66s3.79 1.638 3.79 3.66v1.22h.63c1.047 0 1.896.82 1.896 1.83v4.88c0 1.011-.849 1.83-1.895 1.83H2.474c-1.047 0-1.895-.819-1.895-1.83V7.5c0-1.01.848-1.83 1.895-1.83h.631zm1.263 0h5.053V4.45c0-1.348-1.131-2.44-2.526-2.44-1.396 0-2.527 1.092-2.527 2.44v1.22z"/>
    </g>
</svg>
