<svg xmlns="http://www.w3.org/2000/svg" width="180" height="160" viewBox="0 0 180 160">
    <g fill="none" fill-rule="evenodd">
        <path fill="#C3C9EF" fill-rule="nonzero" d="M128.796 43.44c-3.268-4.013-7.283-7.096-12.044-9.246-4.76-2.151-10.267-3.226-16.52-3.226s-12.044 1.218-17.373 3.656a41.587 41.587 0 0 0-13.856 10.215c-3.908 4.372-6.963 9.57-9.166 15.591-2.203 6.022-3.304 12.545-3.304 19.57 0 7.168 1.101 13.728 3.304 19.677 2.203 5.95 5.223 11.112 9.06 15.484 3.837 4.373 8.349 7.778 13.536 10.215 5.187 2.438 10.764 3.656 16.733 3.656 6.821 0 12.861-1.433 18.12-4.3 5.257-2.868 9.592-6.883 13.002-12.044L158 133.548c-6.395 9.033-14.495 15.7-24.3 20-9.807 4.301-19.896 6.452-30.27 6.452-11.796 0-22.667-1.864-32.615-5.591-9.948-3.728-18.545-9.068-25.793-16.022-7.248-6.953-12.897-15.376-16.947-25.269C24.025 103.226 22 92.186 22 80c0-12.186 2.025-23.226 6.075-33.118 4.05-9.893 9.7-18.316 16.947-25.27C52.27 14.66 60.867 9.32 70.815 5.593 80.763 1.863 91.635 0 103.429 0c4.264 0 8.705.394 13.323 1.183a71.489 71.489 0 0 1 13.643 3.763c4.476 1.72 8.775 4.015 12.897 6.882 4.12 2.867 7.816 6.38 11.084 10.538l-25.58 21.075z" opacity=".154"/>
        <text fill="#FFF" font-family="Avenir-Heavy, Avenir" font-size="31" font-weight="600" transform="translate(-1)">
            <tspan x=".367" y="90">CoinHatcher</tspan>
        </text>
    </g>
</svg>
