<svg xmlns="http://www.w3.org/2000/svg" width="19" height="18" viewBox="0 0 19 18">
    <defs>
        <linearGradient id="a" x1="100%" x2="29.927%" y1="19.451%" y2="66.972%">
            <stop offset="0%" stop-color="#FFF"/>
            <stop offset="100%" stop-color="#E9EDFF"/>
        </linearGradient>
    </defs>
    <g fill="none" fill-rule="nonzero">
        <path fill="url(#a)" d="M13.99 13.906c-.913 0-1.656-.757-1.656-1.688V9.414c0-.931.743-1.689 1.656-1.689h4.314c.026 0 .052 0 .078.002V4.934a1.29 1.29 0 0 0-1.277-1.302H1.277A1.29 1.29 0 0 0 0 4.934v11.764C0 17.417.572 18 1.277 18h15.828a1.29 1.29 0 0 0 1.277-1.302v-2.794a1.64 1.64 0 0 1-.078.002H13.99z"/>
        <path fill="#FDFDFF" d="M18.264 8.684H14.02a.744.744 0 0 0-.736.752v2.76c0 .415.33.751.736.751h4.243a.744.744 0 0 0 .736-.751v-2.76a.744.744 0 0 0-.736-.752zM15.483 11.9a1.074 1.074 0 0 1-1.063-1.084c0-.6.476-1.085 1.063-1.085s1.062.486 1.062 1.085-.475 1.084-1.062 1.084z"/>
        <path fill="#F2F2FF" d="M14.93 1.124a1.658 1.658 0 0 0-2.09-1.04L6.334 2.21h8.96l-.363-1.087z"/>
    </g>
</svg>
