<svg xmlns="http://www.w3.org/2000/svg" width="688" height="113" viewBox="0 0 688 113">
    <defs>
        <linearGradient id="a" x1="0%" x2="94.328%" y1="50%" y2="50%">
            <stop offset="0%" stop-color="#977AFF" stop-opacity="0"/>
            <stop offset="5.49%" stop-color="#9580FB"/>
            <stop offset="91.942%" stop-color="#7CD6BC"/>
            <stop offset="100%" stop-color="#7ADDB7" stop-opacity="0"/>
        </linearGradient>
        <linearGradient id="b" x1="0%" y1="50%" y2="50%">
            <stop offset="0%" stop-color="#A0C0FF"/>
            <stop offset="100%" stop-color="#96D3EC"/>
        </linearGradient>
    </defs>
    <g fill="none" fill-rule="evenodd">
        <path stroke="url(#a)" stroke-dasharray="4,8" stroke-linecap="round" stroke-width="2.5" d="M0 89h729" transform="translate(0 2)"/>
        <path fill="#36406E" stroke="url(#b)" stroke-dasharray="4,5" stroke-linejoin="round" stroke-width="2.5" d="M365 102c28.167 0 51-22.833 51-51S393.167 0 365 0s-51 22.833-51 51 22.833 51 51 51z" transform="translate(0 2)"/>
        <g fill="#B9BBFF" fill-rule="nonzero">
            <path d="M57.3 63.175c0-.6-.403-1.084-.9-1.084h-4.5c-.497 0-.9.485-.9 1.084v7.476C51 73 51 73 53.504 73H56.4c.497 0 .9-.485.9-1.084v-8.741zM66.3 54.818h-4.5c-.497 0-.9.507-.9 1.132v15.918c0 .626.403 1.132.9 1.132h4.5c.497 0 .9-.506.9-1.132V55.95c0-.625-.403-1.132-.9-1.132zM76.2 53h-4.5c-.497 0-.9.495-.9 1.107v17.786c0 .612.403 1.107.9 1.107h4.5c.497 0 .9-.495.9-1.107V54.107c0-.612-.403-1.107-.9-1.107zM86.1 43.91h-4.5c-.497 0-.9.499-.9 1.115v26.859c0 .617.403 1.116.9 1.116h3.516c1.4 0 1.884-.668 1.884-2.48V45.025c0-.616-.403-1.116-.9-1.116zM54.11 54.818c1.713 0 3.108-1.335 3.108-2.975 0-.279-.053-.543-.128-.799l4.038-2.727a3.177 3.177 0 0 0 1.79.55c1.573 0 2.863-1.127 3.067-2.579l4.135-.833a3.131 3.131 0 0 0 2.644 1.43c1.714 0 3.109-1.335 3.109-2.976 0-.397-.085-.774-.233-1.12l4.96-4.22c.445.236.948.381 1.49.381 1.715 0 3.11-1.334 3.11-2.975 0-1.64-1.395-2.975-3.11-2.975-1.713 0-3.108 1.335-3.108 2.975 0 .397.085.774.233 1.12l-4.96 4.22a3.179 3.179 0 0 0-1.491-.381c-1.573 0-2.863 1.127-3.068 2.58l-4.134.833a3.131 3.131 0 0 0-2.644-1.43c-1.714 0-3.109 1.335-3.109 2.976 0 .278.053.543.128.798L55.9 49.42a3.177 3.177 0 0 0-1.79-.551c-1.714 0-3.109 1.334-3.109 2.975 0 1.64 1.395 2.975 3.11 2.975z"/>
        </g>
        <path fill="#B9BBFF" fill-rule="nonzero" d="M171.078 57.158h-9.528V46.426a.924.924 0 0 0-.922-.926h-16.256a.924.924 0 0 0-.922.926v6.069h-9.528a.924.924 0 0 0-.922.926v18.653c0 .511.413.926.922.926h37.156c.51 0 .922-.415.922-.926v-13.99a.924.924 0 0 0-.922-.926zm-28.342 8.237a.99.99 0 0 1-.988.992h-1.734v.927h1.734a.99.99 0 0 1 .988.992.99.99 0 0 1-.988.992h-2.722a.99.99 0 0 1-.988-.992v-2.911a.99.99 0 0 1 .988-.992h1.734v-.987h-1.734a.99.99 0 0 1-.988-.992.99.99 0 0 1 .988-.992h2.722a.99.99 0 0 1 .988.992v2.97zm10.752-9.816a.99.99 0 0 1-.988.992.99.99 0 0 1-.988-.992V52.35h-.222a.99.99 0 0 1-.988-.992.99.99 0 0 1 .988-.992h1.21a.99.99 0 0 1 .988.992v4.221zm13.746 12.727a.99.99 0 0 1-.988.992h-2.722a.99.99 0 0 1-.988-.992.99.99 0 0 1 .988-.992h1.734v-.927h-1.734a.99.99 0 0 1-.988-.992.99.99 0 0 1 .988-.992h1.734v-.987h-1.734a.99.99 0 0 1-.988-.992.99.99 0 0 1 .988-.992h2.722a.99.99 0 0 1 .988.992v5.882z"/>
        <path stroke="#ABBBFF" stroke-width="1.805" d="M151.593 47.792V29.59"/>
        <path fill="#B9BBFF" fill-rule="nonzero" d="M150.705 29v10.612l15.056-6.417z"/>
        <path fill="#36406E" d="M331 91h67v22h-67z"/>
        <path fill="#FFF" fill-rule="nonzero" d="M365.5 13C343.132 13 325 31.132 325 53.5S343.132 94 365.5 94 406 75.868 406 53.5A40.5 40.5 0 0 0 365.5 13zm17.46 56.286l-16.973 9.711V79h-.006v-.003L349 69.285V35.681l.017.009L365.975 26l10.881 6.01.006-.002v15.171l-5.296-3.008V35.03l-5.586-3.15-11.687 6.69v27.855l11.689 6.69 11.687-6.667.056-11.448-16.608-9.535 5.336-2.777L383 52.235l-.04 17.05zm-14.662-17.924l3.702 2.19L361 60V47l3.864 2.347v3.902l3.434-1.887z"/>
        <g fill="#A4D9CE" fill-rule="nonzero">
            <path d="M474 57.669l-11-5.315 11 19.524 11-19.524zM483.087 48.551L473.527 31l-9.57 17.571 9.57-4.799z"/>
            <path d="M464.913 50.771l9.08 4.39 9.094-4.397-9.095-4.389z"/>
        </g>
        <g fill="#A4D9CE" fill-rule="nonzero">
            <path d="M529.944 53.505c1.875-4.94 6.816-7.497 12.268-6.474 5.283-5.282 12.61-8.86 19.936-9.031.511 0 .852.34.852.852-.17 7.327-3.749 14.653-8.86 19.936.852 5.282-1.534 10.393-6.475 12.268.852-2.216 1.022-4.771.34-7.327-.851.511-1.703 1.022-2.555 1.363-.34.17-.682.17-1.022-.17l-8.52-8.52c-.17-.17-.17-.511 0-.852.34-.852.852-1.704 1.363-2.385-2.556-.682-5.111-.512-7.327.34zm18.743-1.192c1.363 1.363 3.408 1.363 4.771 0s1.363-3.408 0-4.771-3.408-1.363-4.77 0c-1.364 1.363-1.364 3.408 0 4.77z"/>
            <path d="M529.484 61.703l3.386-3.386c.645-.645 1.612-.645 2.257 0s.645 1.613 0 2.258l-3.386 3.386c-.645.645-1.612.645-2.257 0s-.645-1.613 0-2.258zM537.04 69.259l3.385-3.386c.645-.645 1.613-.645 2.258 0s.645 1.612 0 2.257l-3.386 3.386c-.645.645-1.613.645-2.258 0s-.645-1.612 0-2.257zM531.351 66.873l4.472-3.913a1.642 1.642 0 0 1 2.159 0c.617.54.617 1.35 0 1.89l-4.472 3.912c-.617.54-1.542.54-2.159 0-.616-.54-.616-1.35 0-1.889z"/>
        </g>
        <g fill="#A4D9CE" fill-rule="nonzero">
            <path d="M624 48.389A6.619 6.619 0 0 0 617.389 55 6.619 6.619 0 0 0 624 61.611 6.619 6.619 0 0 0 630.611 55 6.619 6.619 0 0 0 624 48.389zM622.526 44.389V46.5a8.792 8.792 0 0 1 2.003 0v-2.111c1.335-.421 2.304-1.66 2.304-3.118 0-1.803-1.483-3.271-3.305-3.271-1.823 0-3.306 1.468-3.306 3.271 0 1.459.97 2.697 2.304 3.118zM624.53 65.611V63.5a8.792 8.792 0 0 1-2.004 0v2.111c-1.334.421-2.304 1.66-2.304 3.118 0 1.803 1.483 3.271 3.306 3.271 1.822 0 3.305-1.468 3.305-3.271 0-1.459-.97-2.697-2.304-3.118zM613.998 48.22c.51 0 1.018-.12 1.481-.36l1.474 1.473a8.4 8.4 0 0 1 1.38-1.38l-1.473-1.474a3.227 3.227 0 0 0-.583-3.759 3.211 3.211 0 0 0-2.279-.942c-.825 0-1.65.314-2.278.942a3.225 3.225 0 0 0 0 4.557 3.213 3.213 0 0 0 2.278.942zM632.52 62.14l-1.473-1.473a8.4 8.4 0 0 1-1.38 1.38l1.473 1.474a3.227 3.227 0 0 0 .583 3.76 3.21 3.21 0 0 0 2.279.941 3.21 3.21 0 0 0 2.278-.942 3.226 3.226 0 0 0 0-4.556 3.227 3.227 0 0 0-3.76-.584zM613.389 56.474h2.111a8.792 8.792 0 0 1 0-2.003h-2.111c-.421-1.335-1.66-2.304-3.118-2.304-1.803 0-3.271 1.483-3.271 3.305 0 1.823 1.468 3.306 3.271 3.306 1.459 0 2.697-.97 3.118-2.304zM637.729 52.167c-1.459 0-2.697.97-3.118 2.304H632.5a8.792 8.792 0 0 1 0 2.003h2.111c.421 1.334 1.66 2.304 3.118 2.304 1.803 0 3.271-1.483 3.271-3.306 0-1.822-1.468-3.305-3.271-3.305zM616.953 60.667l-1.474 1.473a3.226 3.226 0 0 0-3.759.584 3.212 3.212 0 0 0-.942 2.278c0 .825.314 1.65.942 2.278a3.21 3.21 0 0 0 2.278.942 3.21 3.21 0 0 0 2.279-.942 3.227 3.227 0 0 0 .583-3.759l1.473-1.474a8.4 8.4 0 0 1-1.38-1.38zM631.047 49.333l1.474-1.473c.463.24.972.36 1.48.36.826 0 1.65-.315 2.279-.943a3.225 3.225 0 0 0 0-4.557 3.225 3.225 0 0 0-4.557 0 3.21 3.21 0 0 0-.941 2.278c0 .509.119 1.018.358 1.481l-1.473 1.474a8.4 8.4 0 0 1 1.38 1.38z"/>
        </g>
        <g fill-rule="nonzero">
            <path fill="#B9BBFF" d="M223.016 67.759l4.979-6.158.008-.015 7.031-8.692a4.071 4.071 0 0 1-1.05-.86L221.276 67.76h1.74z"/>
            <path fill="#ABBBFF" d="M240.931 62.517a.655.655 0 1 1-1.31 0 .655.655 0 0 1 1.31 0z"/>
            <path fill="#B9BBFF" d="M251.414 44.172l-10.464 4.274c.138.6.132 1.226-.019 1.824l10.483 4.385V44.172zM237 46.793a2.616 2.616 0 0 0-2.597 2.267 2.621 2.621 0 1 0 5.194 0A2.616 2.616 0 0 0 237 46.793zM222.586 54.655l10.483-4.384a3.868 3.868 0 0 1-.019-1.827l-10.464-4.272v10.483z"/>
            <path fill="#ABBBFF" d="M248.793 49.414a.655.655 0 1 1-1.31 0 .655.655 0 0 1 1.31 0zM250.759 55.877l-9.173-3.843 5.826 7.207z"/>
            <path fill="#B9BBFF" d="M246.005 61.601l4.979 6.158h1.74l-12.708-15.725c-.3.344-.655.635-1.05.86l7.031 8.692.008.015zM236.078 45.483a3.998 3.998 0 0 1 1.842 0L242.241 35H231.76l4.32 10.483zM232.414 52.034l-9.173 3.843 3.348 3.364zM225.88 71.69a.664.664 0 0 0-.673.655V73h24.241v-.655a.664.664 0 0 0-.673-.655H225.88z"/>
            <path fill="#ABBBFF" d="M234.38 62.517a.655.655 0 1 1-1.311 0 .655.655 0 0 1 1.31 0z"/>
            <path fill="#B9BBFF" d="M238.966 46.116c.533.338.982.794 1.314 1.332l10.479-4.279-7.48-7.514-4.313 10.461zM218.679 73h4.75v-.655c0-1.086.91-1.966 2.035-1.966h23.072c1.124 0 2.035.88 2.035 1.966V73h4.75a.667.667 0 0 0 .679-.655v-2.621a.667.667 0 0 0-.679-.655H218.68a.667.667 0 0 0-.679.655v2.62c0 .363.304.656.679.656z"/>
            <path fill="#ABBBFF" d="M226.517 49.414a.655.655 0 1 1-1.31 0 .655.655 0 0 1 1.31 0zM238.31 57.93a.655.655 0 1 1-1.31.001.655.655 0 0 1 1.31 0z"/>
            <path fill="#B9BBFF" d="M223.241 43.17l10.476 4.278c.333-.54.783-.995 1.317-1.333l-4.311-10.46-7.482 7.514zM242.63 63.828c.357 0 .7-.147.952-.41l1.28-1.32-6.217-7.893-.678-.86h-.043a3.796 3.796 0 0 1-1.194 0h-.043l-.679.86-6.215 7.894 1.28 1.322c.252.26.595.407.952.407h.036c-.053-.149 3.47-.149 10.568 0z"/>
        </g>
    </g>
</svg>
