<svg xmlns="http://www.w3.org/2000/svg" width="48" height="48" viewBox="0 0 48 48">
    <defs>
        <filter id="a" width="259.4%" height="259.4%" x="-79.7%" y="-79.7%" filterUnits="objectBoundingBox">
            <feOffset dy="5" in="SourceAlpha" result="shadowOffsetOuter1"/>
            <feGaussianBlur in="shadowOffsetOuter1" result="shadowBlurOuter1" stdDeviation="4"/>
            <feColorMatrix in="shadowBlurOuter1" result="shadowMatrixOuter1" values="0 0 0 0 0 0 0 0 0 0 0 0 0 0 0 0 0 0 0.17 0"/>
            <feMerge>
                <feMergeNode in="shadowMatrixOuter1"/>
                <feMergeNode in="SourceGraphic"/>
            </feMerge>
        </filter>
    </defs>
    <g fill="none" fill-rule="nonzero" filter="url(#a)" transform="translate(8 3)">
        <circle cx="15.806" cy="15.806" r="15" fill="#FFF"/>
        <path fill="#606060" d="M26.954 4.354l-.136-.13A15.938 15.938 0 0 0 16 0C7.178 0 0 7.178 0 16c0 8.823 7.178 16 16 16 8.823 0 16-7.177 16-16 0-4.587-1.943-8.726-5.046-11.646zM30.567 16a14.49 14.49 0 0 1-2.974 8.807l-2.888.091a14.897 14.897 0 0 1-1.032-1.573l2.744.234.08-.952-3.345-.285a14.865 14.865 0 0 1-.796-2.073l2.611 1.222.405-.866-3.322-1.555a14.777 14.777 0 0 1-.264-1.78l2.005 1.53.58-.76-2.64-2.013V16c0-.707.051-1.41.151-2.102l1.352 2.08.801-.52-1.893-2.912c.142-.59.32-1.17.532-1.736l.883 2.214.888-.354-1.239-3.105c.297-.614.636-1.209 1.015-1.778l.38 2.804.946-.128-.512-3.784c.33-.407.683-.797 1.057-1.17l.063.06.356 2.635.947-.129-.173-1.274A14.497 14.497 0 0 1 30.567 16zm-4.475 10.49a14.972 14.972 0 0 1-.626-.66l1.313-.042c-.22.242-.45.474-.687.701zm-.806.546c.031.032.066.062.098.094-.032.027-.061.054-.093.08l-.005-.174zM5.114 6.334L4.88 8.075l.946.129.331-2.444c.391.409.756.838 1.096 1.285l-.463 3.418.947.129.32-2.373c.345.559.652 1.138.919 1.735l-1.083 2.715.886.354.707-1.769c.185.548.339 1.106.46 1.674L8.3 15.458l.8.52 1.072-1.649a14.741 14.741 0 0 1 .093 1.956l-2.3 1.755.579.76 1.643-1.253c-.06.566-.153 1.127-.277 1.679l-2.946 1.38.404.865 2.218-1.039a14.867 14.867 0 0 1-.753 1.92l-2.995.255.08.952 2.39-.204c-.302.53-.638 1.042-1.006 1.533l-2.905-.092A14.492 14.492 0 0 1 1.433 16c0-3.707 1.393-7.092 3.681-9.666zm.097 19.443l1.332.042c-.203.23-.417.453-.635.67-.24-.23-.474-.466-.697-.712zm1.826 1.694c-.145-.114-.289-.23-.43-.349.151-.151.311-.295.455-.452l-.025.8zm.934.676l.085-2.672c.313-.417.605-.849.875-1.293l.168 1.984.952-.082-.294-3.453c.246-.529.463-1.073.648-1.627l.85 1.814.864-.405-1.314-2.809c.172-.731.293-1.477.359-2.23l1.463 1.918.76-.58-2.164-2.835a15.637 15.637 0 0 0-.164-2.141l2.053 1.334.52-.8-2.818-1.833a15.775 15.775 0 0 0-.616-2.02l2.336.933.354-.887-3.222-1.286c-.23-.479-.484-.947-.761-1.4l2.068.279.127-.947-2.903-.393c-.331-.453-.686-.89-1.066-1.31l1.931.262.128-.947-2.045-.277A14.49 14.49 0 0 1 16 1.433c3.352 0 6.44 1.14 8.904 3.05l-1.758.238.127.946 1.548-.21c-.376.42-.728.856-1.055 1.31l-2.53.341.127.947 1.702-.23c-.297.49-.568.997-.81 1.516l-2.807 1.12.354.887 1.94-.774c-.253.69-.458 1.398-.614 2.118l-2.425 1.577.52.8 1.684-1.094a15.672 15.672 0 0 0-.128 2.338l-1.83 2.4.76.578 1.166-1.529c.088.782.235 1.554.438 2.308l-1.096 2.343.865.404.656-1.402c.227.616.49 1.218.79 1.802l-.243 2.867.951.081.13-1.514c.287.439.597.863.928 1.273l.063 1.995A14.473 14.473 0 0 1 16 30.567a14.48 14.48 0 0 1-8.029-2.42z"/>
    </g>
</svg>
