<svg xmlns="http://www.w3.org/2000/svg" width="20" height="20" viewBox="0 0 20 20">
    <defs>
        <linearGradient id="a" x1="0%" x2="99.393%" y1="32.569%" y2="32.569%">
            <stop offset="0%" stop-color="#5269FF"/>
            <stop offset="100%" stop-color="#4890FF"/>
        </linearGradient>
    </defs>
    <g fill="none" fill-rule="evenodd">
        <path fill="url(#a)" d="M9.97 0C4.474 0 0 4.473 0 9.97c0 5.499 4.473 9.971 9.97 9.971 5.499 0 9.971-4.472 9.971-9.97S15.47 0 9.971 0z"/>
        <g fill="#F3F5FF">
            <path d="M19.37 9.653h-6.534a9.522 9.522 0 0 1 3.224-6.87 9.395 9.395 0 0 1 3.31 6.87zM9.653 10.155v9.047a9.234 9.234 0 0 1-5.194-1.803 10.097 10.097 0 0 0 3.356-7.244h1.838zM4.46 2.41A9.232 9.232 0 0 1 9.652.605v9.047H7.815A10.098 10.098 0 0 0 4.46 2.409zM10.323 10.155h1.837a10.098 10.098 0 0 0 3.356 7.244 9.233 9.233 0 0 1-5.193 1.803v-9.047z"/>
            <path d="M10.323 9.653V.606a9.234 9.234 0 0 1 5.193 1.803 10.098 10.098 0 0 0-3.356 7.244h-1.837zM3.915 2.784A9.521 9.521 0 0 1 7.14 9.653H.606a9.395 9.395 0 0 1 3.31-6.87zM.606 10.155H7.14a9.521 9.521 0 0 1-3.225 6.869 9.395 9.395 0 0 1-3.309-6.869zM16.06 17.024a9.52 9.52 0 0 1-3.224-6.869h6.533a9.395 9.395 0 0 1-3.309 6.869z"/>
        </g>
    </g>
</svg>
