<svg xmlns="http://www.w3.org/2000/svg" width="20" height="20" viewBox="0 0 20 20">
    <defs>
        <linearGradient id="a" x1="0%" x2="99.393%" y1="32.569%" y2="32.569%">
            <stop offset="0%" stop-color="#5269FF"/>
            <stop offset="100%" stop-color="#4890FF"/>
        </linearGradient>
        <linearGradient id="b" x1="0%" x2="99.393%" y1="32.569%" y2="32.569%">
            <stop offset="0%" stop-color="#5269FF"/>
            <stop offset="100%" stop-color="#4890FF"/>
        </linearGradient>
    </defs>
    <g fill="none" fill-rule="evenodd">
        <path fill="#F2F5FF" d="M9.97 0C4.474 0 0 4.473 0 9.97c0 5.499 4.473 9.971 9.97 9.971 5.499 0 9.971-4.472 9.971-9.97S15.47 0 9.971 0z"/>
        <path fill="url(#a)" d="M18.763 9.047H12.23a9.522 9.522 0 0 1 3.224-6.87 9.395 9.395 0 0 1 3.31 6.87z" transform="translate(.606 .606)"/>
        <path fill="url(#b)" d="M9.047 9.55v9.046a9.234 9.234 0 0 1-5.194-1.803A10.097 10.097 0 0 0 7.21 9.549h1.838zM3.853 1.803A9.232 9.232 0 0 1 9.047 0v9.047H7.209a10.098 10.098 0 0 0-3.356-7.244zM9.717 9.55h1.837a10.098 10.098 0 0 0 3.356 7.243 9.233 9.233 0 0 1-5.193 1.803V9.549zM9.717 9.047V0a9.234 9.234 0 0 1 5.193 1.803 10.098 10.098 0 0 0-3.356 7.244H9.717z" transform="translate(.606 .606)"/>
        <path fill="url(#a)" d="M3.309 2.178a9.521 9.521 0 0 1 3.225 6.869H0a9.395 9.395 0 0 1 3.309-6.87zM0 9.55h6.534a9.521 9.521 0 0 1-3.225 6.868A9.395 9.395 0 0 1 0 9.549zM15.454 16.418a9.52 9.52 0 0 1-3.224-6.869h6.533a9.395 9.395 0 0 1-3.309 6.869z" transform="translate(.606 .606)"/>
    </g>
</svg>
