<svg xmlns="http://www.w3.org/2000/svg" width="50" height="50" viewBox="0 0 50 50">
    <defs>
        <filter id="a" width="250%" height="250%" x="-75%" y="-75%" filterUnits="objectBoundingBox">
            <feOffset dy="5" in="SourceAlpha" result="shadowOffsetOuter1"/>
            <feGaussianBlur in="shadowOffsetOuter1" result="shadowBlurOuter1" stdDeviation="4"/>
            <feColorMatrix in="shadowBlurOuter1" result="shadowMatrixOuter1" values="0 0 0 0 0 0 0 0 0 0 0 0 0 0 0 0 0 0 0.17 0"/>
            <feMerge>
                <feMergeNode in="shadowMatrixOuter1"/>
                <feMergeNode in="SourceGraphic"/>
            </feMerge>
        </filter>
    </defs>
    <g fill="none" fill-rule="nonzero" filter="url(#a)" transform="translate(8 3)">
        <circle cx="17.39" cy="17.365" r="16.107" fill="#F15725"/>
        <path fill="#FFF" d="M16.81.51C7.74.51.36 7.89.36 16.962c0 9.071 7.38 16.451 16.451 16.451 9.072 0 16.452-7.38 16.452-16.451C33.262 7.89 25.882.51 16.81.51z"/>
        <path fill="#F15725" d="M32.341 16.585h-10.78a15.71 15.71 0 0 1 5.32-11.333 15.502 15.502 0 0 1 5.46 11.333zM16.309 17.415V32.34a15.236 15.236 0 0 1-8.57-2.975 16.66 16.66 0 0 0 5.539-11.951h3.03zM7.74 4.634a15.233 15.233 0 0 1 8.569-2.975v14.926h-3.031A16.662 16.662 0 0 0 7.74 4.634zM17.415 17.415h3.031a16.661 16.661 0 0 0 5.538 11.951 15.235 15.235 0 0 1-8.57 2.975V17.415z"/>
        <path fill="#F15725" d="M17.415 16.585V1.66a15.236 15.236 0 0 1 8.569 2.975 16.662 16.662 0 0 0-5.538 11.951h-3.031zM6.842 5.252a15.71 15.71 0 0 1 5.32 11.333H1.383a15.501 15.501 0 0 1 5.46-11.333zM1.382 17.415h10.78a15.71 15.71 0 0 1-5.32 11.333 15.501 15.501 0 0 1-5.46-11.333zM26.882 28.748a15.708 15.708 0 0 1-5.321-11.333h10.78a15.502 15.502 0 0 1-5.46 11.333z"/>
    </g>
</svg>
