<svg height="32" viewBox="0 0 32 32" width="32" xmlns="http://www.w3.org/2000/svg"><g fill="none"><path d="m15.953 0c-8.797 0-15.953 7.156-15.953 15.953s7.156 15.953 15.953 15.953 15.953-7.156 15.953-15.953-7.156-15.953-15.953-15.953z" fill="#b8c2ff"/><g fill="#f2f5ff"><path d="m30.99 15.444h-10.452a15.235 15.235 0 0 1 5.16-10.99 15.032 15.032 0 0 1 5.294 10.99zm-15.546.804v14.475a14.774 14.774 0 0 1 -8.31-2.885 16.156 16.156 0 0 0 5.37-11.59zm-8.309-12.393a14.771 14.771 0 0 1 8.31-2.885v14.474h-2.94a16.157 16.157 0 0 0 -5.37-11.59zm9.381 12.393h2.94a16.156 16.156 0 0 0 5.37 11.59 14.773 14.773 0 0 1 -8.31 2.885z"/><path d="m16.516 15.444v-14.474c3.101.1 5.965 1.156 8.31 2.885a16.157 16.157 0 0 0 -5.37 11.59h-2.94zm-10.252-10.99a15.234 15.234 0 0 1 5.16 10.99h-10.454a15.032 15.032 0 0 1 5.294-10.99zm-5.294 11.794h10.454a15.234 15.234 0 0 1 -5.16 10.99 15.032 15.032 0 0 1 -5.294-10.99zm24.727 10.99a15.232 15.232 0 0 1 -5.16-10.99h10.454a15.032 15.032 0 0 1 -5.294 10.99z"/></g></g></svg>