<svg xmlns="http://www.w3.org/2000/svg" width="22" height="22" viewBox="0 0 22 22">
    <g fill="#2A304E" fill-rule="nonzero">
        <path d="M8.83 8.694c0-1.035-.703-1.035-.703-1.035H5.229V9.88h2.718c.47 0 .884-.15.884-1.186zM8.127 11.414H5.229v2.66h2.764c.416-.011 1.183-.141 1.183-1.292 0-1.382-1.05-1.368-1.05-1.368zM15.544 9.88c-1.537 0-1.752 1.534-1.752 1.534h3.27s.02-1.534-1.518-1.534z"/>
        <path d="M10.972 0C4.912 0 0 4.913 0 10.972c0 6.06 4.912 10.972 10.972 10.972s10.972-4.913 10.972-10.972C21.944 4.912 17.032 0 10.972 0zm2.392 6.476h4.107v1.226h-4.107V6.476zm-2.076 6.429c0 3.038-3.161 2.938-3.161 2.938h-5.18V5.89h5.18c1.574 0 2.816.869 2.816 2.65s-1.519 1.894-1.519 1.894c2.003 0 1.864 2.471 1.864 2.471zm4.276 1.57c1.654 0 1.596-1.07 1.596-1.07h1.751c0 2.84-3.405 2.646-3.405 2.646-4.088 0-3.825-3.805-3.825-3.805s-.003-3.824 3.824-3.824c4.029 0 3.465 4.32 3.465 4.32h-5.158c0 1.85 1.752 1.733 1.752 1.733z"/>
    </g>
</svg>
