<svg xmlns="http://www.w3.org/2000/svg" width="19" height="19" viewBox="0 0 19 19">
    <g fill="#4853FF" fill-rule="evenodd">
        <path fill-rule="nonzero" d="M9.514 18.968a.423.423 0 0 1-.35-.192L3.2 9.782a.469.469 0 0 1 0-.515L9.165.273a.427.427 0 0 1 .698 0l5.966 8.994a.469.469 0 0 1 0 .515l-5.966 8.994a.42.42 0 0 1-.349.192zM4.068 9.524l5.446 8.21 5.446-8.21-5.446-8.21-5.446 8.21z"/>
        <path fill-rule="nonzero" d="M9.514 13.121a.416.416 0 0 1-.19-.047L3.356 9.926a.454.454 0 0 1-.235-.402c0-.17.091-.326.235-.402l5.966-3.148a.407.407 0 0 1 .381 0l5.966 3.148a.452.452 0 0 1 .236.402c0 .17-.09.326-.235.402l-5.966 3.148a.416.416 0 0 1-.19.047zM4.501 9.524l5.013 2.645 5.013-2.645-5.013-2.645-5.013 2.645z"/>
        <path d="M9.514 18.968a.438.438 0 0 1-.426-.45V.53c0-.248.191-.45.426-.45s.426.202.426.45v17.988c0 .248-.19.45-.426.45z"/>
    </g>
</svg>
