<svg xmlns="http://www.w3.org/2000/svg" width="21" height="20" viewBox="0 0 21 20">
    <defs>
        <linearGradient id="a" x1="0%" x2="99.393%" y1="32.569%" y2="32.569%">
            <stop offset="0%" stop-color="#5269FF"/>
            <stop offset="100%" stop-color="#4890FF"/>
        </linearGradient>
        <linearGradient id="b" x1="0%" x2="99.393%" y1="32.569%" y2="32.569%">
            <stop offset="0%" stop-color="#5269FF"/>
            <stop offset="100%" stop-color="#4890FF"/>
        </linearGradient>
        <linearGradient id="c" x1="0%" x2="99.393%" y1="32.569%" y2="32.569%">
            <stop offset="0%" stop-color="#5269FF"/>
            <stop offset="100%" stop-color="#4890FF"/>
        </linearGradient>
    </defs>
    <g fill="none" fill-rule="evenodd">
        <path fill="url(#a)" d="M15.462 15.452c-1.009 0-1.83-.842-1.83-1.877V10.46c0-1.035.821-1.877 1.83-1.877h4.769c.029 0 .058.001.086.003V5.482c0-.8-.632-1.447-1.411-1.447H1.411C.631 4.035 0 4.683 0 5.482v13.071C0 19.353.632 20 1.411 20h17.495c.78 0 1.411-.648 1.411-1.447V15.45a1.803 1.803 0 0 1-.086.003h-4.769z"/>
        <path fill="url(#b)" d="M20.186 9.65h-4.69a.824.824 0 0 0-.813.834v3.067c0 .461.364.835.814.835h4.69c.449 0 .813-.374.813-.835v-3.067a.824.824 0 0 0-.814-.835zm-3.073 3.572c-.649 0-1.175-.539-1.175-1.205 0-.665.526-1.204 1.175-1.204.648 0 1.174.539 1.174 1.204 0 .666-.526 1.205-1.174 1.205z"/>
        <path fill="url(#c)" d="M16.501 1.249A1.83 1.83 0 0 0 14.192.092L7 2.456h9.902l-.4-1.207z"/>
    </g>
</svg>
