<svg xmlns="http://www.w3.org/2000/svg" xmlns:xlink="http://www.w3.org/1999/xlink" width="103" height="103" viewBox="0 0 103 103">
    <defs>
        <rect id="a" width="103" height="103" rx="2"/>
        <linearGradient id="c" x1="7.584%" x2="94.101%" y1="33.096%" y2="33.096%">
            <stop offset="0%" stop-color="#ADA5FF"/>
            <stop offset="100%" stop-color="#4EE1DA"/>
        </linearGradient>
        <linearGradient id="d" x1="99.993%" x2=".009%" y1="50.179%" y2="49.815%">
            <stop offset="0%" stop-color="#E9E8FB"/>
            <stop offset="100%" stop-color="#FAF9FE"/>
        </linearGradient>
    </defs>
    <g fill="none" fill-rule="evenodd">
        <mask id="b" fill="#fff">
            <use xlink:href="#a"/>
        </mask>
        <use fill="#E4E9FF" xlink:href="#a"/>
        <g mask="url(#b)">
            <path fill="#281782" fill-opacity=".126" fill-rule="nonzero" stroke="#8868FF" stroke-width=".5" d="M91.305 63.345L54.491 41.858c-2.225-1.228-5.103-1.905-8.102-1.905-3.17 0-6.205.744-8.547 2.095L12.301 56.783c-2.752 1.588-4.31 3.896-4.279 6.331.033 2.412 1.62 4.658 4.358 6.168l36.812 21.486c2.227 1.228 5.107 1.905 8.106 1.905 3.17 0 6.203-.742 8.544-2.091l25.543-14.738c2.75-1.586 4.308-3.893 4.277-6.328-.032-2.41-1.62-4.66-4.357-6.17z"/>
            <g fill-rule="nonzero">
                <path fill="#8868FF" d="M90.49 66.107L47.91 40.828c-.987-.571-2.581-.571-3.561 0L12.826 59.504c-.98.57-.975 1.495.012 2.066l42.58 25.279c.987.57 2.582.57 3.562 0l31.522-18.676c.981-.57.976-1.495-.011-2.066z"/>
                <path fill="#4E3CA9" d="M91.175 67.57c-.094.236-.312.49-.673.698L58.98 86.897c-.98.57-2.575.546-3.562-.024l-42.58-25.236c-.459-.266-.703-.613-.737-.911h-.108v3.28h.106c-.014.598.23.802.738 1.097l42.58 25.294c.988.57 2.582.577 3.563.006l31.522-18.578c.358-.209.578-.456.672-.691V67.57z"/>
                <path fill="#57B156" d="M84.364 66.641L46.67 44.345a1.262 1.262 0 0 0-1.267.001L19.037 60.022a.614.614 0 0 0-.002 1.06l37.33 22.131a1.667 1.667 0 0 0 1.676.006l26.322-15.61a.559.559 0 0 0 .001-.968z"/>
                <g>
                    <path fill="#8868FF" d="M90.49 60.065L47.91 34.786c-.987-.57-2.581-.57-3.561 0L12.826 53.462c-.98.57-.975 1.495.012 2.066l42.58 25.279c.987.57 2.582.57 3.562 0L90.502 62.13c.981-.57.976-1.495-.011-2.066z"/>
                    <path fill="#4E3CA9" d="M91.175 61.47c-.097.278-.318.44-.673.647L58.98 80.799c-.98.571-2.575.575-3.562.004L12.838 55.47c-.459-.266-.703-.411-.737-1.008h-.108v3.579h.106c-.014.299.23.763.738 1.058l42.58 25.274c.988.57 2.582.568 3.563-.002l31.522-18.695c.355-.206.576-.362.672-.647v-3.56z"/>
                </g>
            </g>
            <path fill="#281782" fill-rule="nonzero" stroke="url(#c)" stroke-width=".5" d="M62.48 17.799L34.944 1.759C33.278.844 31.126.338 28.883.338c-2.372 0-4.643.556-6.394 1.564l-19.105 11C1.325 14.084.159 15.807.183 17.625c.024 1.8 1.211 3.477 3.259 4.604l27.537 16.037c1.666.917 3.82 1.424 6.063 1.424 2.37 0 4.64-.555 6.391-1.562l19.108-11c2.056-1.185 3.222-2.906 3.199-4.724-.024-1.8-1.212-3.478-3.26-4.606z" opacity=".322" transform="translate(20.022 36.613)"/>
            <path fill="#5F59D1" d="M50.296 60.4l-5.71-3.33c-.427-.25-1.137-.249-1.588.003l-4.623 2.579c-.45.25-.467.655-.04.904l5.71 3.33c.427.25 1.138.25 1.588-.002l4.622-2.579c.45-.25.468-.656.04-.905z"/>
            <path fill="url(#d)" d="M59.444 48.676L26.167 29.265c-.473-.276-1.26-.275-1.759.004L.736 42.474c-.499.279-.519.728-.046 1.004l33.277 19.41c.472.277 1.26.275 1.759-.002l23.673-13.207c.498-.279.518-.728.045-1.003zm-31.327 2.63l-4.623 2.578c-.45.251-1.16.252-1.588.003l-5.71-3.33c-.427-.25-.409-.655.04-.905l4.623-2.58c.45-.25 1.16-.252 1.588-.003l5.71 3.331c.427.249.41.654-.04.905zm14.557 5.405L11.711 38.649l12.395-6.915L55.07 49.796 42.674 56.71z" transform="translate(22.14 10)"/>
            <path fill="#4E3CA9" fill-rule="nonzero" d="M81.538 59.679L57.865 72.885a1.58 1.58 0 0 1-.194.088l-.03.01a1.98 1.98 0 0 1-.176.053l-.035.008a1.834 1.834 0 0 1-.201.035l-.032.003a1.92 1.92 0 0 1-.207.011h-.033c-.07 0-.14-.004-.21-.01l-.035-.007a1.42 1.42 0 0 1-.274-.054c-.032-.01-.063-.018-.093-.029a1.318 1.318 0 0 1-.24-.105l-33.278-19.41c-.028-.018-.05-.037-.075-.055-.03-.021-.06-.041-.084-.064a.608.608 0 0 1-.095-.106c-.005-.007-.01-.013-.012-.02a.48.48 0 0 1-.055-.113v1.734s.05.094.174.174c.02.014.05.041.074.055l.015.009 33.278 19.412c.073.042.154.076.24.105.01.004.017.009.028.012.02.006.043.01.065.015.04.011.081.022.123.03.015.005.029.01.044.012.035.006.07.01.106.014l.042.006.01.002c.046.004.091.007.137.009h.127a3.12 3.12 0 0 0 .2-.016l.045-.004a1.828 1.828 0 0 0 .193-.039c.02-.006.042-.009.062-.015.039-.01.076-.024.113-.037l.03-.01.01-.004c.065-.025.127-.054.184-.085L81.48 61.294c.25-.141.38-.324.387-.508l.058-1.614c-.005.183-.135.367-.386.507z"/>
            <path fill="#5F59D1" d="M33.15 48.235l32.22 18.794 12.897-7.196L46.049 41.04z"/>
            <path fill="#827C7B" fill-rule="nonzero" d="M48.334 35.06l1.45-.814.866-20.712-1.449.814z"/>
            <path fill="#3935A4" fill-rule="nonzero" d="M65.88 21.395c-.176-.103-.326-.02-.335.183a.672.672 0 0 0 .305.557c.176.101.327.02.335-.185a.67.67 0 0 0-.305-.555z"/>
            <path fill="url(#d)" d="M60.518 20.444L27.02 1.034c-.477-.276-.882-.053-.905.499l-1.095 26.2c-.022.553.345 1.223.822 1.5l33.499 19.41c.477.276.882.054.905-.499l1.095-26.2c.023-.552-.344-1.223-.822-1.5zm-16.807-8.31a.67.67 0 0 1-.305-.556c.008-.203.158-.286.335-.183a.673.673 0 0 1 .306.555c-.009.205-.16.286-.336.184z" transform="translate(22.14 10)"/>
            <path fill="#5F59D1" d="M81.387 31.803l-31.13-18.038c-.555-.32-1.03-.063-1.055.583l-.868 20.71c-.027.643.406 1.427.961 1.749l31.13 18.037c.555.324 1.028.063 1.056-.58l.863-20.711c.029-.646-.4-1.427-.957-1.75z"/>
            <path fill="#4E3CA9" fill-rule="nonzero" d="M84.908 30.839a1.687 1.687 0 0 0-.021-.1l-.008-.03-.005-.017a3.052 3.052 0 0 0-.067-.201l-.001-.004a1.852 1.852 0 0 0-.1-.213c-.002-.001-.003-.004-.004-.006a5.548 5.548 0 0 0-.09-.148c-.008-.01-.016-.02-.022-.031-.005-.005-.008-.011-.012-.016a.826.826 0 0 0-.022-.032l-.1-.121-.03-.031-.031-.035c-.025-.024-.05-.045-.076-.067-.016-.015-.032-.03-.05-.044a1.218 1.218 0 0 0-.161-.113L50.61 10.22a2.053 2.053 0 0 0-.16-.074 5.69 5.69 0 0 0-.207-.045c-.02 0-.095.005-.112.007-.004 0-.008.002-.011.003 0 0-.005 0-.007.002-.011.002-.022.003-.033.007a.492.492 0 0 0-.092.037l-.005.003-1.45.814a.466.466 0 0 1 .137-.049.545.545 0 0 1 .142-.008l.013.002a.656.656 0 0 1 .144.03c.01.004.136.053.19.085l33.499 19.41c.055.032.11.07.162.113.017.013.033.03.049.044.037.032.074.065.108.102l.028.03c.043.049.084.1.123.153l.011.016a2.039 2.039 0 0 1 .217.394l.001.004c.028.067.05.136.068.204.003.006.004.013.005.018a1.492 1.492 0 0 1 .05.42l-1.095 26.2c-.011.275-.117.468-.28.56l1.45-.814c.162-.092.267-.284.28-.559l1.094-26.2a2.48 2.48 0 0 0-.008-.2l-.013-.09z"/>
            <path fill="#4B44D0" fill-rule="nonzero" d="M64.489 28.058c-3.808-2.415-6.895-.983-6.895 3.199 0 4.182 3.087 9.53 6.895 11.946 3.808 2.415 6.896.983 6.896-3.199 0-4.182-3.088-9.53-6.896-11.946z"/>
            <path fill="#FFCC4B" d="M64.087 29.745c-3.088-1.958-5.59-.797-5.59 2.594 0 3.39 2.502 7.726 5.59 9.684 3.087 1.958 5.59.797 5.59-2.594 0-3.39-2.503-7.726-5.59-9.684z"/>
            <path fill="#FFCC4B" d="M63.69 31.237c-2.462-1.562-4.459-.636-4.459 2.069s1.997 6.163 4.46 7.726c2.463 1.562 4.459.635 4.459-2.07 0-2.704-1.996-6.162-4.46-7.725z"/>
            <path fill="#FFB806" fill-rule="nonzero" d="M65.959 36.365c0-.975-.767-2.3-1.71-2.958v-.476l-.649-.451v.475l-.369-.256v-.475l-.65-.452v.475l-.366-.254v.67l.367.255v5.058l-.367-.254v.67l.367.256v.413l.65.452V39.1l.368.256v.413l.65.452v-.413c.942.655 1.709.395 1.709-.578 0-.59-.282-1.308-.712-1.928.43-.022.712-.348.712-.937zm-.65 2.412c0 .605-.476.766-1.062.359l-1.016-.707v-2.194l1.016.707c.586.407 1.062 1.23 1.062 1.835zm-1.062-2.506l-1.016-.707V33.37l1.016.707c.586.407 1.062 1.23 1.062 1.835s-.476.766-1.062.359z"/>
            <path fill="#FFF" fill-rule="nonzero" d="M65.959 36.543c0-.975-.767-2.3-1.71-2.957v-.476l-.649-.452v.476l-.369-.256v-.476l-.65-.452v.476l-.366-.255v.671l.367.255v5.058l-.367-.255v.67l.367.256v.413l.65.452v-.414l.368.257v.412l.65.452v-.413c.942.654 1.709.396 1.709-.579 0-.59-.282-1.307-.712-1.927.43-.022.712-.348.712-.936zm-.65 2.413c0 .604-.476.765-1.062.358l-1.016-.707v-2.193l1.016.707c.586.406 1.062 1.23 1.062 1.835zm-1.062-2.507l-1.016-.707v-2.194l1.016.707c.586.407 1.062 1.23 1.062 1.835s-.476.766-1.062.359z"/>
        </g>
    </g>
</svg>
