<svg xmlns="http://www.w3.org/2000/svg" xmlns:xlink="http://www.w3.org/1999/xlink" width="549" height="404" viewBox="0 0 549 404">
    <defs>
        <linearGradient id="a" x1="50%" x2="50%" y1="0%" y2="100%">
            <stop offset="0%" stop-color="#D5DFFF"/>
            <stop offset="100%" stop-color="#ABBBFF"/>
        </linearGradient>
        <filter id="b" width="390%" height="277.6%" x="-143.3%" y="-87.8%" filterUnits="objectBoundingBox">
            <feOffset dx="-2" dy="2" in="SourceAlpha" result="shadowOffsetOuter1"/>
            <feGaussianBlur in="shadowOffsetOuter1" result="shadowBlurOuter1" stdDeviation="10"/>
            <feColorMatrix in="shadowBlurOuter1" result="shadowMatrixOuter1" values="0 0 0 0 0.364565136 0 0 0 0 0.43467622 0 0 0 0 0.732648324 0 0 0 1 0"/>
            <feMerge>
                <feMergeNode in="shadowMatrixOuter1"/>
                <feMergeNode in="SourceGraphic"/>
            </feMerge>
        </filter>
        <linearGradient id="c" x1="104.746%" x2="34.26%" y1="43.125%" y2="60.946%">
            <stop offset="0%" stop-color="#B2B2E7"/>
            <stop offset="100%" stop-color="#6262A5"/>
        </linearGradient>
        <path id="d" d="M0 .03h10.945v20.262H0z"/>
        <linearGradient id="f" x1="19.714%" x2="50%" y1="0%" y2="59.299%">
            <stop offset="0%" stop-color="#D5DCFA"/>
            <stop offset="100%" stop-color="#ABB7F4"/>
        </linearGradient>
        <path id="g" d="M.024.063h10.944v27.015H.024z"/>
        <linearGradient id="h" x1="38.129%" x2="56.866%" y1="7.544%" y2="74.563%">
            <stop offset="0%" stop-color="#D5DDFA"/>
            <stop offset="100%" stop-color="#ABB7F4"/>
        </linearGradient>
        <path id="j" d="M0 .063h10.944v27.015H0z"/>
        <linearGradient id="l" x1="75.464%" x2="25.906%" y1="0%" y2="99.768%">
            <stop offset="0%" stop-color="#CCD2FF"/>
            <stop offset="100%" stop-color="#6B8BF5"/>
        </linearGradient>
        <filter id="m" width="227.8%" height="227.8%" x="-63.9%" y="-63.9%" filterUnits="objectBoundingBox">
            <feOffset dy="2" in="SourceAlpha" result="shadowOffsetOuter1"/>
            <feGaussianBlur in="shadowOffsetOuter1" result="shadowBlurOuter1" stdDeviation="5"/>
            <feColorMatrix in="shadowBlurOuter1" result="shadowMatrixOuter1" values="0 0 0 0 0.371158474 0 0 0 0 0.473446504 0 0 0 0 0.901777627 0 0 0 1 0"/>
            <feMerge>
                <feMergeNode in="shadowMatrixOuter1"/>
                <feMergeNode in="SourceGraphic"/>
            </feMerge>
        </filter>
        <linearGradient id="n" x1="28.455%" x2="72.77%" y1="99.768%" y2="0%">
            <stop offset="0%" stop-color="#B8C1FF"/>
            <stop offset="100%" stop-color="#6B8BF5"/>
        </linearGradient>
        <linearGradient id="o" x1="61.524%" x2="39.096%" y1="0%" y2="99.768%">
            <stop offset="0%" stop-color="#CCD2FF"/>
            <stop offset="100%" stop-color="#6B8BF5"/>
        </linearGradient>
        <linearGradient id="p" x1="21.705%" x2="77.202%" y1="104.752%" y2="-9.616%">
            <stop offset="0%" stop-color="#CCD2FF"/>
            <stop offset="100%" stop-color="#6B8BF5"/>
        </linearGradient>
        <linearGradient id="q" x1="79.74%" x2="21.86%" y1="13.736%" y2="86.096%">
            <stop offset="0%" stop-color="#CCD2FF"/>
            <stop offset="100%" stop-color="#6B8BF5"/>
        </linearGradient>
        <filter id="r" width="313.8%" height="321.4%" x="-106.9%" y="-110.7%" filterUnits="objectBoundingBox">
            <feOffset dx="-3" dy="3" in="SourceAlpha" result="shadowOffsetOuter1"/>
            <feGaussianBlur in="shadowOffsetOuter1" result="shadowBlurOuter1" stdDeviation="6.5"/>
            <feColorMatrix in="shadowBlurOuter1" result="shadowMatrixOuter1" values="0 0 0 0 0.279818835 0 0 0 0 0.358291921 0 0 0 0 0.691802536 0 0 0 0.450092876 0"/>
            <feMerge>
                <feMergeNode in="shadowMatrixOuter1"/>
                <feMergeNode in="SourceGraphic"/>
            </feMerge>
        </filter>
        <linearGradient id="s" x1="-22.346%" x2="91.846%" y1="45.268%" y2="52.738%">
            <stop offset="0%" stop-color="#B5C5FF"/>
            <stop offset="100%" stop-color="#798CEE"/>
        </linearGradient>
        <linearGradient id="t" x1="-22.346%" x2="91.846%" y1="45.671%" y2="52.505%">
            <stop offset="0%" stop-color="#BDCBFF"/>
            <stop offset="100%" stop-color="#92A2F5"/>
        </linearGradient>
        <linearGradient id="u" x1="1.241%" x2="68.26%" y1="54.91%" y2="43.265%">
            <stop offset="0%" stop-color="#D5DDFA"/>
            <stop offset="100%" stop-color="#ABB7F4"/>
        </linearGradient>
        <linearGradient id="v" x1="1.241%" x2="68.26%" y1="54.91%" y2="43.265%">
            <stop offset="0%" stop-color="#EAEFFF"/>
            <stop offset="100%" stop-color="#ABB7F4"/>
        </linearGradient>
        <linearGradient id="w" x1="-22.346%" x2="91.063%" y1="45.671%" y2="52.458%">
            <stop offset="0%" stop-color="#F3F5FF"/>
            <stop offset="100%" stop-color="#C6CFFF"/>
        </linearGradient>
        <linearGradient id="x" x1="43.906%" x2="56.441%" y1="99.768%" y2="0%">
            <stop offset="0%" stop-color="#B8C1FF"/>
            <stop offset="100%" stop-color="#6B8BF5"/>
        </linearGradient>
        <path id="y" d="M.031.106h15.112v6.985H.031z"/>
        <linearGradient id="A" x1="21.86%" x2="79.74%" y1="70.574%" y2="29.33%">
            <stop offset="0%" stop-color="#B8C1FF"/>
            <stop offset="100%" stop-color="#6B8BF5"/>
        </linearGradient>
        <linearGradient id="B" x1="41.406%" x2="59.083%" y1="99.768%" y2="0%">
            <stop offset="0%" stop-color="#B8C1FF"/>
            <stop offset="100%" stop-color="#6B8BF5"/>
        </linearGradient>
        <linearGradient id="C" x1="79.74%" x2="21.86%" y1="0%" y2="99.768%">
            <stop offset="0%" stop-color="#CCD2FF"/>
            <stop offset="100%" stop-color="#6B8BF5"/>
        </linearGradient>
        <linearGradient id="D" x1="74.829%" x2="26.506%" y1="0%" y2="99.768%">
            <stop offset="0%" stop-color="#ABBBFF"/>
            <stop offset="100%" stop-color="#6B8BF5"/>
        </linearGradient>
    </defs>
    <g fill="none" fill-rule="evenodd">
        <path stroke="#ABBBFF" stroke-dasharray="6,6" stroke-linecap="round" stroke-width="2" d="M264.5 220c103.001 0 186.5-31.116 186.5-69.5S367.501 81 264.5 81 78 112.116 78 150.5 161.499 220 264.5 220z"/>
        <g transform="translate(50 114)">
            <circle cx="30" cy="30" r="30" fill="url(#a)"/>
            <g filter="url(#b)" transform="rotate(-8 63.955 -74.566)">
                <path fill="url(#c)" d="M1.2 24.791l10.972 6.763 10.964-6.762-10.972-6.763z" transform="rotate(8 1.779 49.95)"/>
                <g transform="scale(-1 1) rotate(-8 185.418 203.48)">
                    <mask id="e" fill="#fff">
                        <use xlink:href="#d"/>
                    </mask>
                    <path fill="#E2E6FF" d="M10.944 6.783L0 .03l10.945 20.262z" mask="url(#e)"/>
                </g>
                <path fill="url(#f)" d="M21.869 24.588L10.934 44.849l-.002-13.509z" transform="scale(-1 1) rotate(-8 9.816 215.758)"/>
                <g transform="scale(-1 1) rotate(-8 8.008 137.478)">
                    <mask id="i" fill="#fff">
                        <use xlink:href="#g"/>
                    </mask>
                    <path fill="url(#h)" d="M-.004 27.09l10.937-6.752L-.011.075z" mask="url(#i)"/>
                </g>
                <g transform="scale(-1 1) rotate(-8 13.464 215.503)">
                    <mask id="k" fill="#fff">
                        <use xlink:href="#j"/>
                    </mask>
                    <path fill="#E2E6FF" d="M0 20.325L10.936.063l.008 27.015z" mask="url(#k)"/>
                </g>
            </g>
        </g>
        <path fill="url(#l)" d="M52.694 29.07c-1.979 1.601-4.177 2.17-6.283 2.586-3.278.652-4.373-.727-6.738-1.9-.528-.19-.838-.275-.838-.275l-.02.023c-.006-.01-.013-.016-.018-.023a95.2 95.2 0 0 1-2.959-1.177l.004.009-.004-.009-.018.004c-2.25-.945-3.322-1.568-3.724-1.823-.138-.091-.196-.136-.196-.136a4.627 4.627 0 0 1-1.16-1.009c-.69.36-1.774.844-2.967 1.056h-.002c-.676.119-1.387.152-2.079.023a4.163 4.163 0 0 1-1.668-.69c-.25.269-.527.51-.841.718a31.112 31.112 0 0 1-3.521 1.945l-.01-.004-.002.01h-.001a.17.17 0 0 1 .003-.01c-.822.345-1.75.827-2.908 1.268 0 0-2.46.69-5.348 2.477-2.887 1.787-6.2 4.677-7.902 9.076 0 0-2.178 4.185-3.094 10.05a31.573 31.573 0 0 0-.37 6.3c.2 4.508 1.486 9.402 4.907 13.915 0 0 4.574 6.176 7.69 7.923l2.565-1.505s-.73-1.517-1.543-4.001c-1.847-5.637-4.133-16.263.662-25.474.017.717.336 11.637.886 14.042l-.005.305c.117.077.238.152.361.224.093.053.205.116.334.186a.394.394 0 0 0 .053.028c.058.028.117.06.18.093l.207.105.021.01.144.07c.054.025.103.05.152.072h.002c.045.023.094.044.142.067a.195.195 0 0 0 .019.007c.033.014.063.03.093.042a7.432 7.432 0 0 1 .228.1c.045.019.08.035.108.045a.856.856 0 0 0 .049.02c.002.003.004.003.004.003 3.442 1.442 10.95 3.367 21.26-.893.398-.163.803-.338 1.211-.522.005 0 .007-.002.012-.004l.004-.002c.007-.008.005-.012.01-.035a.35.35 0 0 0 .007-.026c.233-3.214.787-8.718.608-14.886-.005-.119-.007-.24-.012-.36l-.01-.183v-.002c1.1-.005 2.026.293 2.977.59 1.215.382 2.47.763 4.171.51.5-.075.981-.157 1.438-.246l.007-.002c1.065-.207 1.993-.454 2.68-.748.585-.25 1.149-.517 1.687-.8 2.803-1.467 4.999-3.364 6.707-5.527 5.373-6.792 5.942-16.183 5.45-22.948-.363-5.02-1.31-8.594-1.31-8.594l-.009-.002-3.917-.69-.007-.002s.597 14.007-7.56 20.606" transform="translate(0 147)"/>
        <path fill="#FFE1E1" d="M60.274 155.616s-.81-8.465.485-8.6c.444-.048.738-.243.219 4.267 0 0 4.162-1.796 3.704 1.94l-.405 3.303s-2.69 1.291-4.003-.91M23.185 173.438c1.076 1.95 7.972 1.398 8.717-.098-1.076-.643-1.796-1.771-2.26-2.808-.11-.247-.207-.49-.289-.718-.335-.925-.459-1.643-.459-1.643h-2.913s-.135 1.224-.708 2.563a7.697 7.697 0 0 1-.557 1.082h-.002c-.005.012-.015.023-.021.035-.382.606-.877 1.172-1.508 1.587"/>
        <path fill="#6B8BF5" d="M39.774 209.413v.002c0 .002-.002.002-.002.002-.005.002-.007.004-.012.004h-.002c-.096.028-.588.173-1.4.366-2.457.59-7.856 1.645-14.134 1.373a41.04 41.04 0 0 1-7.028-.895 33.456 33.456 0 0 1-2.002-.5h-.004l.002-.04.002-.04a2.56 2.56 0 0 0 .005-.141c-.298 1.806-5.402 32.808-6.243 43.767-.883 11.51 2.014 42.99 2.629 46.95l3.775.488s1.426-4.141 3.15-10.074c1.702-5.844 3.694-13.43 4.9-20.502.749-4.378 1.196-8.56 1.087-12.012 0 0 1.615-8.636 4.467-17.2 0-.004.002-.012.005-.016l.001-.005c.275.84.443 1.315.443 1.315 5.404 18.815 11.345 58.316 11.345 58.316h3.81c10.971-63.571-4.793-91.158-4.793-91.158z"/>
        <path fill="#FFE1E1" d="M20.545 163.527h.002c.135.862.336 1.699.601 2.482.003.01.005.02.012.03a10.127 10.127 0 0 0 .555 1.328c.35.704.77 1.336 1.265 1.87a6.196 6.196 0 0 0 .678.627c.48.379 1.018.675 1.615.87.484.161 1.009.255 1.573.273.452.016.934-.016 1.442-.105.492-.084.94-.21 1.352-.368 0 0 0-.002.002-.002l.007-.002c.105-.042.207-.084.308-.129l.028-.014c.107-.049.212-.1.314-.153l.021-.012c.056-.03.11-.06.163-.091.035-.019.068-.04.103-.06.012-.007.026-.015.037-.024a5.394 5.394 0 0 0 .797-.592 2.553 2.553 0 0 0 .226-.212c.04-.042.082-.081.121-.123a1 1 0 0 0 .07-.077.538.538 0 0 0 .052-.054c.048-.054.095-.11.142-.165l.137-.17.105-.143c.035-.046.07-.093.1-.142.007-.011.016-.02.021-.032a5.35 5.35 0 0 0 .336-.548c.023-.04.046-.08.065-.119a8.656 8.656 0 0 0 .718-1.91c.046-.18.088-.362.125-.546v-.001l.021-.104.028-.147c.007-.037.012-.075.018-.112.027-.148.05-.297.072-.447l.004-.023h-.001c.377-2.694-.018-5.555-.325-7.21-.658-3.537-5.633-4.88-9.212-3.738-1.582.504-2.892 1.492-3.435 2.99a4.411 4.411 0 0 0-.198.748 19.224 19.224 0 0 0-.28 2.81h-.002v.003s-.037 2.887.217 3.544"/>
        <path fill="#FFE1E1" d="M21.684 167.109l.03.258c.8 1.608 1.967 2.843 3.559 3.367a7.697 7.697 0 0 1-.557 1.082c.13-.07.601-.266 2.13-.809l.699-.244a6.444 6.444 0 0 0 1.808-.949c1.582-1.216 1.666-2.705 1.666-2.705l-4.667-1.688-4.668 1.688z"/>
        <path fill="#2A304E" d="M40.758 300.57s-1.227 5.123-.058 5.368c1.29.27 9.04.357 11.094-.059.202-1.936-6.457-3.888-6.457-3.888l-.77-1.42h-3.809zM11.584 300.262s-1.298 5.042-.128 5.288c1.288.27 5.817-.295 7.87-.71.008-2.68-3.379-2.768-3.379-2.768l-.588-1.324-3.775-.486z"/>
        <path fill="#4B74FF" d="M22.952 262.05c.755 3.983.57 7.016.46 8.123.747-4.378 1.194-8.56 1.085-12.012 0 0 1.615-8.636 4.467-17.2-.247-.5-2.654-5.562-3.24-11.826.038.646.749 13.185-.5 16.079-1.282 2.971-3.23 11.78-2.272 16.836"/>
        <path fill="#2A304E" d="M20.545 163.527v.002c.137.863.335 1.7.603 2.48.003.01.005.02.012.03.054.152.107.298.163.445.337.873.769 1.664 1.3 2.333v.002a6.77 6.77 0 0 0 .574.639c.144.144.296.277.454.403h.005c0 .002.002.002.002.002 2.162.494 4.959-.743 6.406-1.78l-.002.004-.003.003s.266.219.263.738c-.002.385-.153.942-.678 1.7 0 .001-.002.001-.002.004-.002 0-.002.002-.002.002h.007v-.002s.002 0 .002-.003a9.343 9.343 0 0 0 .336-.141c.107-.05.212-.1.314-.154l.021-.012c.056-.03.11-.06.163-.091.035-.019.068-.04.103-.06.011-.007.026-.015.037-.024.091-.056.182-.114.268-.175.072-.049.14-.1.207-.151.024-.016.047-.035.068-.051a.04.04 0 0 0 .014-.014 3.264 3.264 0 0 0 .284-.24c.063-.054.124-.112.182-.173.04-.042.082-.081.121-.123a1 1 0 0 0 .07-.077c.019-.016.035-.035.051-.054.05-.053.096-.11.143-.165l.137-.17.105-.143.098-.144.002.002c.007-.011.016-.02.021-.032l.021-.033c.054-.08.107-.16.156-.245.033-.049.06-.102.089-.153.023-.04.046-.08.07-.117.023-.04.046-.08.065-.119l-.002-.002v-.002c.032-.066.063-.136.095-.2.023-.052.05-.103.072-.155a9.358 9.358 0 0 0 .678-2.097l.05-.251c.034-.194.067-.387.093-.583 0 0-.916.594-1.613 1.743-.163.268-.338.487-.622.487-.259 0-.606-.18-1.114-.669-.305-.361-.664-.792-.93-1.351a1.655 1.655 0 1 1 1.468-2.636c2.72-1.629 2.482-4.782 2.482-4.782-.657-3.537-5.63-4.879-9.209-3.74-1.582.504-2.892 1.492-3.435 2.99a4.501 4.501 0 0 0-.2.75 19.199 19.199 0 0 0-.28 2.808v.003s-.037 2.887.217 3.544"/>
        <g>
            <g transform="translate(235 181)">
                <circle cx="30" cy="30" r="30" fill="url(#a)"/>
                <g filter="url(#m)" transform="translate(12 12)">
                    <path fill="url(#n)" fill-rule="nonzero" d="M19.929 36c-8.699 0-15.75-8.059-15.75-18S11.23 0 19.929 0c8.698 0 15.75 8.059 15.75 18s-7.052 18-15.75 18"/>
                    <g fill="#FFF">
                        <path d="M24.7 19.53v4.928l-4.77 2.878v2.542l6.928-4.194v-7.35zM22.21 10.895v6l-2.104 1.271v-3.953l-2.16 1.19v6.525l6.424-3.842V9.593z"/>
                        <path d="M17.946 15.4l6.779 4.118 2.15-1.194-6.753-4.122zM15.16 24.448V12.425L13 11.18v14.505l6.933 4.194v-2.54z"/>
                        <path d="M19.927 7l-6.923 4.185 2.154 1.237 4.771-2.885 2.28 1.362 2.161-1.304z"/>
                    </g>
                    <path fill="#6B8BF5" fill-rule="nonzero" d="M4.179 18C4.179 8.806 10.212 1.227 18 .14A13.87 13.87 0 0 0 16.071 0C7.373 0 .321 8.059.321 18s7.052 18 15.75 18c.654 0 1.296-.05 1.929-.139C10.212 34.773 4.179 27.194 4.179 18"/>
                    <path fill="#E2E7FF" fill-rule="nonzero" d="M4.178 18.643H.322c.012.433.037.862.077 1.286h3.859c-.04-.423-.067-.852-.08-1.285M4.324 15.43H.47c-.053.423-.091.852-.118 1.285h3.857c.026-.432.063-.861.115-1.286M4.532 21.858H.674c.083.434.18.863.29 1.285H4.82c-.11-.421-.206-.85-.288-1.285M5.43 25.072H1.572c.164.439.345.866.538 1.286h3.859a18.512 18.512 0 0 1-.537-1.286M4.996 12.215H1.143c-.125.422-.242.85-.34 1.286h3.862c.097-.434.207-.864.331-1.286M6.277 9.001H2.419a19.17 19.17 0 0 0-.594 1.286h3.86c.182-.44.38-.868.592-1.286M8.9 5.144H5.04c-.366.409-.714.838-1.043 1.286h3.86c.33-.448.678-.877 1.044-1.286M12.83 1.93H8.966c-.656.379-1.287.808-1.887 1.285h3.863c.6-.476 1.231-.906 1.89-1.286M7.405 28.93H3.547c.299.445.613.873.947 1.285h3.861c-.334-.412-.65-.84-.95-1.286M6.322 32.144c.516.464 1.057.896 1.622 1.285h3.867a15.9 15.9 0 0 1-1.634-1.285H6.322z"/>
                </g>
            </g>
            <path fill="#2A304E" d="M266.908 391.575l-.053 3.712.37 3.118 1.154.946.902.372.217.542 2.998 2.45c.826.463 2.033.78 3.548.572.516-.071-.05-1.518-.206-1.743-.891-1.298-2.312-2.753-2.312-2.753l-2.195-3.335-2.447-4.144-1.976.263zM237.668 395.045l.657 1.553.27 1.704-.322 2.64-1.448.071-1.059-.336-.753.427s-4.125.405-5.648.308c-2.528-.162-3.884-.557-4.332-1.092-.25-.3.976-.72 1.371-.74 2.27-.124 4.763-1.332 4.763-1.332l2.049-1.905.499-1.442 3.953.144z"/>
            <path fill="#FFE1E1" d="M235.445 261.828l1.522-18.531s5.101 13.009 3.405 18.703c-1.696 5.692-4.927-.172-4.927-.172"/>
            <path fill="url(#o)" d="M25.754 42.237L17.262 30.99l-.527-3.758.937.115-.998-3.665-7.197-.088-.593 5.84 1.001.218.128 3.43 1.337.876 4.838 16.738z" transform="translate(225 236)"/>
            <path fill="url(#p)" d="M42.112 44.015l-18.23-3.958S8.206 42.372 7.817 74.317c-.002.15 23.966 7.858 24.08 1.818.288-15.096 10.216-32.12 10.216-32.12" transform="translate(225 236)"/>
            <path fill="#FFE1E1" d="M281.878 273.394l15.155-8.554s-8.326 11.694-12.064 13.678c-3.74 1.984-3.091-5.124-3.091-5.124"/>
            <path fill="url(#q)" d="M36.921 44.611l16.81-7.784-.38-.691 4.185-.993 5.13 7.16-4.626 2.973-.606-1.233-1.178-1.82.96 2.208-4.403 3.987-3.699.395-13.85 9.666z" transform="translate(225 236)"/>
            <path fill="#6B8BF5" d="M257.023 311.776l15.411 83.684-5.918-.26-8.778-27.027-1.978-8.08-10.448-31.982-.966-17.095z"/>
            <path fill="#6B8BF5" d="M238.754 395.422l1.685-33.746 2.995-15.241 3.88-20.941-1.278-14.403-13.011-.876.347 24.097-1.58 21.657-.358 8.183.28 32.397z"/>
            <path fill="#FFE1E1" d="M294.11 266.75s-.931-3.02-.423-3.765c.51-.744 2.555-3.345 2.555-3.345l.587-.616s1.043.26-.352 1.995c-1.396 1.734-.247 1.255-.247 1.255l1.866-1.094 2.397-1.166.994-.65s.537-.413.75-.401c.613.03.363.48.363.48l-3.654 2.855 4.095-1.727s.562-.134.734.113c.161.232-.005.317-.005.317l-4.167 3.03 2.214-.655s.552-.12.734.113c.196.255.258.318.258.318l-8.176 3.694-.523-.751zM237.542 247.269s2.59-1.805 2.648-2.706c.058-.9.047-4.21.047-4.21l-.085-.846s-.982-.438-.948 1.787c.032 2.229-.58 1.143-.58 1.143l-.795-2.014-1.171-2.394-.384-1.127s-.17-.655-.343-.777c-.502-.354-.583.155-.583.155l1.12 4.502-2.161-3.884s-.361-.452-.648-.364c-.271.083-.193.251-.193.251l1.42 4.956-1.342-1.88s-.362-.434-.647-.363c-.31.079-.399.092-.399.092l4.17 7.948.874-.27zM254.574 271.783c-1.028 4.076-1.368 6.179-1.298 6.468.491 1.995 5.96 1.565 6.03.424.071-1.14 2.022-5.78 2.462-6.413.44-.63-6.585-2.895-7.194-.479"/>
            <path fill="#FFCFCF" d="M258.083 270.8c1.355.26 2.62.674 3.261 1.018-.656 1.142-1.336 2.26-1.852 2.967-1.438 1.97-3.616 2.037-5.06 2.233-.31.042-.67.014-1.047-.056.106-.729.45-2.244 1.189-5.178.277-1.1 1.882-1.23 3.509-.985"/>
            <path fill="#FFE1E1" d="M257.274 260.788l-5.673 9.781s-1.344 2.321-.654 3.168c.69.844 3.163 2.058 4.604 1.861 1.443-.196 3.622-.262 5.06-2.232 1.44-1.973 4.135-7.13 4.135-7.13s.244-2.075-3.426-2.876c-3.67-.802-4.046-2.572-4.046-2.572"/>
            <path fill="#2A304E" d="M258.985 258.605c-.494-.13-1.406-.213-2 .418-.613.651-.567 2.175-.006 2.712.562.536 4.743 3.002 5.362 3.116.618.112 1.712.47 2.622-.07.59-.35-.349-2.39-1.448-2.658-2.796-.684-2.689-3.034-4.53-3.518"/>
            <path fill="#2A304E" d="M263.858 264.207l-2.453 4.226-.966 2.43.496.29.911.528s4.857-4.936 3.834-6.418c-1.025-1.48-1.548-1.342-1.822-1.056"/>
        </g>
        <g>
            <g transform="translate(413 114)">
                <circle cx="30" cy="30" r="30" fill="url(#a)"/>
                <g fill-rule="nonzero" filter="url(#r)" transform="translate(17 16)">
                    <ellipse cx="14.455" cy="22.988" fill="url(#s)" rx="14.455" ry="4.826"/>
                    <path fill="url(#t)" d="M14.455 22.854c7.983 0 14.455-2.067 14.455-4.616 0-1.158-1.334-2.216-3.538-3.026-2.651-.974-6.56-1.59-10.917-1.59C6.47 13.622 0 15.688 0 18.238c0 2.549 6.471 4.616 14.455 4.616z"/>
                    <ellipse cx="14.455" cy="13.697" fill="url(#u)" rx="14.455" ry="4.616"/>
                    <ellipse cx="14.455" cy="9.156" fill="url(#v)" rx="14.455" ry="4.616"/>
                    <ellipse cx="14.455" cy="4.616" fill="url(#w)" rx="14.455" ry="4.616"/>
                </g>
            </g>
            <path fill="#FFE1E1" d="M532.132 233.183l3.518-2.74.384-.55-.66-.783-.828.232c-.176-3.447-.691-5.433-1.546-5.959-.854-.525-1.8-.123-2.836 1.207L528 226l2.907 6.578 1.225.605z"/>
            <path fill="#FFE1E1" d="M539.419 207.332l-11.333 18.705s.864 2.357 1.779.903c.112-.172-.63-.565.141-1.145 3.125-2.337 8.618-6.438 11.15-9.7 3.327-4.29 3.477-10.025 3.477-10.025l-5.214 1.262z"/>
            <path fill="url(#x)" d="M71.92 40.74l11.637 15.962-7.4 17.907s4.884 4.787 5.958 3.578c8.658-9.742 11.649-22.107 11.649-22.107L78.867 30.59s-1.695-4.036-5.103-3.36c-6.808 1.349-2.66 11.788-1.844 13.51" transform="translate(455 145)"/>
            <path fill="#6B8BF5" d="M519.428 266.302c2.702 10.703 10.037-4.543 10.037-4.543 2.438-21.9 1.95-36.769-1.465-44.606-3.414-7.838-9.404-7.838-17.968 0 0 0 1.103 2.662 3.507 14.075 0 0 2.87 23.123 5.889 35.074z"/>
            <path fill="#6B8BF5" d="M518.162 214.187s-3.726 44.181-4.56 46.584c-2.818 8.132-9.67 3.38-10.523.625-.857-2.755-.664-17.286-.296-32.042.176-7.091 2.09-15.491 2.09-15.491l13.289.324z"/>
            <path fill="#2A304E" d="M500.595 308.903c-.286.338-.105 1.258-.105 1.258s4.843.675 6.417.336c.407-.088 1.103-.431 1.759-.796.11-.064.313-.442.42-.505.199-.115.296.09.464-.017.441-.269.75-.48.757-.51.483-2.282-.061-3.22-.061-3.22s-4.103-1.516-4.902-.548c-1.881 2.278-4.122 3.258-4.749 4.002"/>
            <g transform="translate(525.907 303.586)">
                <mask id="z" fill="#fff">
                    <use xlink:href="#y"/>
                </mask>
                <path fill="#2A304E" d="M.031 2.482l.47 3.762 3.687.215s.234-.514.548-.496c.262.015.57.561.928.582l1.98.115 7.395.431s.215-.774.027-1.054c-.095-.146-.699-.421-1.103-.566-1.87-.66-7.22-2.698-8.055-4.623C4.89-1.502.03 2.482.03 2.482" mask="url(#z)"/>
            </g>
            <path fill="#6B8BF5" d="M514.8 248.17s-1.312 9.476-1.381 19.15c-.053 7.295-1.674 26.471-3.046 38.357-.083.725-5.85.036-5.85.036s-1.804-39.641-2.232-47.126c-.431-7.482 8.027-15.865 12.508-10.417M526.727 261.496s-1.652.271-6.807.43c-2.35.07 5.62 45.826 5.62 45.826l8.114-2.104-4.41-45.932-2.517 1.78z"/>
            <path fill="#FFE1E1" d="M479.866 188.414s-5.384-4.412-13.112-13.552c-2.61-3.087-1.329.26-.889 4.137.44 3.874 7.694 11.546 15.66 13.691 7.966 2.146-1.659-4.276-1.659-4.276"/>
            <path fill="#FFE1E1" d="M467.376 177.273s1.237-4.151.597-5.187c-.64-1.035-3.22-4.658-3.22-4.658l-.739-.864s-1.341.345.42 2.758c1.76 2.418.298 1.737.298 1.737l-2.376-1.54-3.047-1.65-1.266-.915s-.681-.574-.952-.565c-.787.03-.473.659-.473.659l4.635 4.003-5.215-2.453s-.717-.196-.944.14c-.212.322 0 .436 0 .436l5.29 4.255-2.824-.943s-.708-.171-.942.146c-.257.348-.335.434-.335.434l10.41 5.232.683-1.025z"/>
            <path fill="url(#A)" d="M57.115 32.548s.684 3.257-11.26 16.41c-6.675 7.35-10.367 10.903-13.686 9.259-6.752-3.345-22.734-19.022-22.734-19.022l6.269-7.396s15.137 12.602 17.46 13.918c.978.554 7.002-8.399 13.156-17.437 1.117-1.642 9.988 3.376 10.795 4.268" transform="translate(455 145)"/>
            <path fill="url(#B)" d="M47.125 27.717l8.88-3.002 6.624-1.539 3.714 2.052 6.635 1.911a1 1 0 0 1 .723.94l.915 44.791-19.895.683-7.245.599-1.03-45.465a1 1 0 0 1 .679-.97z" transform="translate(455 145)"/>
            <path fill="#FFE1E1" d="M520.232 164.739c-.236 1.113-.647 2.835-1.1 3.842-.707 1.567-6.833 3.585-7.773 3.809-.945.225.235-4.71.235-5.828 0-.858 0-1.393.528-2.73l8.11.907z"/>
            <path fill="#FFE1E1" d="M509.765 163.536c-.158 1.059.504 2.05 1.471 2.221l7.903 1.38c.968.171 1.88-.55 2.037-1.605l1.877-12.747c.157-1.054-.503-2.05-1.475-2.22l-7.9-1.377c-.968-.172-1.88.546-2.037 1.604l-1.876 12.744z"/>
            <path fill="#2A304E" d="M511.243 153.034s-.88-1.29-.962-2.012c-.043-.364.513-1.627 1.473-1.997.961-.365 1.538.69 1.538.69s-1.527.551-1.646.83c-.12.28-.403 2.489-.403 2.489"/>
            <path fill="#2A304E" d="M523.014 157.803s1.914-4.265 1.907-5.605c-.01-1.343-.01-2.27-1.593-2.672-2.373-.598-2.486-.097-3.538-1.009-1.054-.908-2.876-2.99-3.572-3.28-1.16-.483-3.112-.384-3.549 1.854-.324 1.65-1.446 1.888-1.426 1.955.06.216.47.477 1.174.977 2.02 1.437 3.3 1.865 5.052 1.696 1.756-.167 5.039-.613 5.205.679.168 1.29-.588 5.037-.492 5.35.102.314.502.23.832.055"/>
            <path fill="#FFE1E1" d="M519.96 160.89c-.05.32.171.622.494.674l1.706.27a.593.593 0 0 0 .68-.486l.501-3.092a.594.594 0 0 0-.491-.676l-1.708-.27a.588.588 0 0 0-.676.486l-.506 3.094zM509.785 159.269a.584.584 0 0 0 .49.674l1.704.272a.594.594 0 0 0 .682-.489l.499-3.09a.59.59 0 0 0-.49-.674l-1.709-.273a.595.595 0 0 0-.676.49l-.5 3.09zM514.475 162.793l-2.437-.388a.588.588 0 0 1-.49-.673l.053-.34 3.61.577-.055.337a.594.594 0 0 1-.68.487"/>
        </g>
        <g transform="translate(210)">
            <circle cx="65" cy="65" r="48" fill="#FFF"/>
            <path fill="url(#C)" fill-rule="nonzero" d="M64.5 0C28.878 0 0 28.878 0 64.5S28.878 129 64.5 129 129 100.122 129 64.5A64.5 64.5 0 0 0 64.5 0zm26.282 91.545L63.57 107.192v.005H63.561v-.005L36.338 91.545V37.4l.028.014 27.186-15.612 17.444 9.684.008-.005v24.445l-8.49-4.846V36.35l-8.954-5.074-18.737 10.776v44.882l18.739 10.779L82.299 86.97l.09-18.444-26.626-15.364 8.555-4.474 26.527 15.384-.063 27.472zM69.585 63.64l6.725 3.673-19.986 10.814V56.324l7.02 3.936v6.544l6.24-3.164z"/>
        </g>
        <g>
            <path fill="url(#D)" d="M1.331 0H32.43c.735 0 1.331.596 1.331 1.331v34.286c0 .735-.596 1.331-1.33 1.331H1.33A1.331 1.331 0 0 1 0 35.617V1.33C0 .596.596 0 1.331 0z" transform="translate(131 72)"/>
            <g fill="#FFF">
                <path d="M136.937 90.682h22.061a.519.519 0 1 1 0 1.038h-22.06a.519.519 0 1 1 0-1.038zM136.937 94.941h22.061a.519.519 0 1 1 0 1.038h-22.06a.519.519 0 0 1 0-1.038zM136.937 99.093h22.061a.519.519 0 1 1 0 1.038h-22.06a.519.519 0 1 1 0-1.038zM136.937 103.66h22.061a.519.519 0 0 1 0 1.038h-22.06a.519.519 0 1 1 0-1.038z"/>
            </g>
            <path fill="#FFF" d="M137.27 76.151h21.395c.47 0 .852.382.852.852v9.763c0 .47-.382.852-.852.852H137.27a.852.852 0 0 1-.852-.852v-9.763c0-.47.382-.852.852-.852z"/>
            <path fill="#8D94BF" fill-rule="nonzero" stroke="#8D94BF" stroke-width=".5" d="M140.586 79.888h1.4c.284 0 .532.033.746.1.213.066.398.155.555.266.157.112.288.24.391.384.104.145.187.294.247.446a2.482 2.482 0 0 1 .17.88c0 .265-.047.522-.142.77-.094.249-.234.47-.42.663a2.062 2.062 0 0 1-.688.466c-.274.118-.59.176-.95.176h-1.309v-4.151zm.544 3.624h.686c.23 0 .45-.033.655-.097.206-.065.386-.161.541-.29.155-.13.278-.29.369-.484.09-.194.136-.42.136-.677 0-.133-.02-.289-.062-.467a1.417 1.417 0 0 0-.236-.507 1.406 1.406 0 0 0-.479-.407c-.204-.112-.468-.167-.793-.167h-.817v3.096zm5.006-3.624h.493l1.717 4.151h-.634l-.403-1.026h-1.91l-.397 1.026h-.635l1.769-4.151zm.975 2.633l-.749-1.906h-.01l-.76 1.906h1.519zm2.596-2.105h-1.292v-.528h3.129v.528h-1.293v3.623h-.544v-3.623zm3.673-.528h.493l1.718 4.151h-.635l-.402-1.026h-1.91l-.398 1.026h-.634l1.768-4.151zm.975 2.633l-.748-1.906h-.011l-.76 1.906h1.52z"/>
        </g>
        <g>
            <path fill="url(#D)" d="M1.331 0H32.43c.735 0 1.331.596 1.331 1.331v34.286c0 .735-.596 1.331-1.33 1.331H1.33A1.331 1.331 0 0 1 0 35.617V1.33C0 .596.596 0 1.331 0z" transform="translate(372 72)"/>
            <g fill="#FFF">
                <path d="M377.937 90.682h22.061a.519.519 0 1 1 0 1.038h-22.06a.519.519 0 1 1 0-1.038zM377.937 94.941h22.061a.519.519 0 1 1 0 1.038h-22.06a.519.519 0 0 1 0-1.038zM377.937 99.093h22.061a.519.519 0 1 1 0 1.038h-22.06a.519.519 0 1 1 0-1.038zM377.937 103.66h22.061a.519.519 0 0 1 0 1.038h-22.06a.519.519 0 1 1 0-1.038z"/>
            </g>
            <path fill="#FFF" d="M378.27 76.151h21.395c.47 0 .852.382.852.852v9.763c0 .47-.382.852-.852.852H378.27a.852.852 0 0 1-.852-.852v-9.763c0-.47.382-.852.852-.852z"/>
            <path fill="#8D94BF" fill-rule="nonzero" stroke="#8D94BF" stroke-width=".5" d="M381.586 79.888h1.4c.284 0 .532.033.746.1.213.066.398.155.555.266.157.112.288.24.391.384.104.145.187.294.247.446a2.482 2.482 0 0 1 .17.88c0 .265-.047.522-.142.77-.094.249-.234.47-.42.663a2.062 2.062 0 0 1-.688.466c-.274.118-.59.176-.95.176h-1.309v-4.151zm.544 3.624h.686c.23 0 .45-.033.655-.097.206-.065.386-.161.541-.29.155-.13.278-.29.369-.484.09-.194.136-.42.136-.677 0-.133-.02-.289-.062-.467a1.417 1.417 0 0 0-.236-.507 1.406 1.406 0 0 0-.479-.407c-.204-.112-.468-.167-.793-.167h-.817v3.096zm5.006-3.624h.493l1.717 4.151h-.634l-.403-1.026h-1.91l-.397 1.026h-.635l1.769-4.151zm.975 2.633l-.749-1.906h-.01l-.76 1.906h1.519zm2.596-2.105h-1.292v-.528h3.129v.528h-1.293v3.623h-.544v-3.623zm3.673-.528h.493l1.718 4.151h-.635l-.402-1.026h-1.91l-.398 1.026h-.634l1.768-4.151zm.975 2.633l-.748-1.906h-.011l-.76 1.906h1.52z"/>
        </g>
        <g>
            <path fill="url(#D)" d="M1.331 0H32.43c.735 0 1.331.596 1.331 1.331v34.286c0 .735-.596 1.331-1.33 1.331H1.33A1.331 1.331 0 0 1 0 35.617V1.33C0 .596.596 0 1.331 0z" transform="translate(352 188)"/>
            <g fill="#FFF">
                <path d="M357.937 206.682h22.061a.519.519 0 1 1 0 1.038h-22.06a.519.519 0 1 1 0-1.038zM357.937 210.941h22.061a.519.519 0 1 1 0 1.038h-22.06a.519.519 0 0 1 0-1.038zM357.937 215.093h22.061a.519.519 0 1 1 0 1.038h-22.06a.519.519 0 1 1 0-1.038zM357.937 219.66h22.061a.519.519 0 0 1 0 1.038h-22.06a.519.519 0 1 1 0-1.038z"/>
            </g>
            <path fill="#FFF" d="M358.27 192.151h21.395c.47 0 .852.382.852.852v9.763c0 .47-.382.852-.852.852H358.27a.852.852 0 0 1-.852-.852v-9.763c0-.47.382-.852.852-.852z"/>
            <path fill="#8D94BF" fill-rule="nonzero" stroke="#8D94BF" stroke-width=".5" d="M361.586 195.888h1.4c.284 0 .532.033.746.1.213.066.398.155.555.266.157.112.288.24.391.384.104.145.187.294.247.446a2.482 2.482 0 0 1 .17.88c0 .265-.047.522-.142.77-.094.249-.234.47-.42.663a2.062 2.062 0 0 1-.688.466c-.274.118-.59.176-.95.176h-1.309v-4.151zm.544 3.624h.686c.23 0 .45-.033.655-.097.206-.065.386-.161.541-.29.155-.13.278-.29.369-.484.09-.194.136-.42.136-.677 0-.133-.02-.289-.062-.467a1.417 1.417 0 0 0-.236-.507 1.406 1.406 0 0 0-.479-.407c-.204-.112-.468-.167-.793-.167h-.817v3.096zm5.006-3.624h.493l1.717 4.151h-.634l-.403-1.026h-1.91l-.397 1.026h-.635l1.769-4.151zm.975 2.633l-.749-1.906h-.01l-.76 1.906h1.519zm2.596-2.105h-1.292v-.528h3.129v.528h-1.293v3.623h-.544v-3.623zm3.673-.528h.493l1.718 4.151h-.635l-.402-1.026h-1.91l-.398 1.026h-.634l1.768-4.151zm.975 2.633l-.748-1.906h-.011l-.76 1.906h1.52z"/>
        </g>
        <g>
            <path fill="url(#D)" d="M1.331 0H32.43c.735 0 1.331.596 1.331 1.331v34.286c0 .735-.596 1.331-1.33 1.331H1.33A1.331 1.331 0 0 1 0 35.617V1.33C0 .596.596 0 1.331 0z" transform="translate(140 188)"/>
            <g fill="#FFF">
                <path d="M145.937 206.682h22.061a.519.519 0 1 1 0 1.038h-22.06a.519.519 0 1 1 0-1.038zM145.937 210.941h22.061a.519.519 0 1 1 0 1.038h-22.06a.519.519 0 0 1 0-1.038zM145.937 215.093h22.061a.519.519 0 1 1 0 1.038h-22.06a.519.519 0 1 1 0-1.038zM145.937 219.66h22.061a.519.519 0 0 1 0 1.038h-22.06a.519.519 0 1 1 0-1.038z"/>
            </g>
            <path fill="#FFF" d="M146.27 192.151h21.395c.47 0 .852.382.852.852v9.763c0 .47-.382.852-.852.852H146.27a.852.852 0 0 1-.852-.852v-9.763c0-.47.382-.852.852-.852z"/>
            <path fill="#8D94BF" fill-rule="nonzero" stroke="#8D94BF" stroke-width=".5" d="M149.586 195.888h1.4c.284 0 .532.033.746.1.213.066.398.155.555.266.157.112.288.24.391.384.104.145.187.294.247.446a2.482 2.482 0 0 1 .17.88c0 .265-.047.522-.142.77-.094.249-.234.47-.42.663a2.062 2.062 0 0 1-.688.466c-.274.118-.59.176-.95.176h-1.309v-4.151zm.544 3.624h.686c.23 0 .45-.033.655-.097.206-.065.386-.161.541-.29.155-.13.278-.29.369-.484.09-.194.136-.42.136-.677 0-.133-.02-.289-.062-.467a1.417 1.417 0 0 0-.236-.507 1.406 1.406 0 0 0-.479-.407c-.204-.112-.468-.167-.793-.167h-.817v3.096zm5.006-3.624h.493l1.717 4.151h-.634l-.403-1.026h-1.91l-.397 1.026h-.635l1.769-4.151zm.975 2.633l-.749-1.906h-.01l-.76 1.906h1.519zm2.596-2.105h-1.292v-.528h3.129v.528h-1.293v3.623h-.544v-3.623zm3.673-.528h.493l1.718 4.151h-.635l-.402-1.026h-1.91l-.398 1.026h-.634l1.768-4.151zm.975 2.633l-.748-1.906h-.011l-.76 1.906h1.52z"/>
        </g>
    </g>
</svg>
