<svg height="35" viewBox="0 0 34 35" width="34" xmlns="http://www.w3.org/2000/svg" xmlns:xlink="http://www.w3.org/1999/xlink"><linearGradient id="a" x1="0%" x2="99.393%" y1="32.569%" y2="32.569%"><stop offset="0" stop-color="#5269ff"/><stop offset="1" stop-color="#4890ff"/></linearGradient><g fill="none" fill-rule="evenodd"><g fill-rule="nonzero"><circle cx="7.5" cy="7.5" fill="url(#a)" r="6.75" stroke="#b8c2ff" stroke-width="1.5"/><path d="m8.682 7.013c.22-.039.417-.14.57-.283a.991.991 0 0 0 .319-.724c0-.566-.488-1.024-1.09-1.024h-.453v-.982h-.65v.982h-.41v-.982h-.65v.982h-1.318v.658h.487s.3-.04.3.276v2.677c0 .318-.3.277-.3.277h-.487v.658h1.318v.972h.65v-.981h.41v.981h.65v-.98h.638c.369 0 .702-.141.943-.368.242-.227.391-.54.391-.886 0-.687-.589-1.246-1.318-1.253zm-1.714-1.333h.716c.355 0 .643.27.643.604a.584.584 0 0 1 -.188.427.662.662 0 0 1 -.455.177h-.716zm1.501 2.947a.716.716 0 0 1 -.492.192h-1.01v-1.307h1.01c.385 0 .696.292.696.653 0 .181-.078.345-.204.463z" fill="#fff"/></g><g fill-rule="nonzero" transform="translate(19 20)"><circle cx="7.5" cy="7.5" fill="url(#a)" r="6.75" stroke="#b8c2ff" stroke-width="1.5"/><path d="m10 8.84c0 .477-.175.862-.525 1.152-.35.291-.808.468-1.375.53v1.204h-1.103v-1.236a4.28 4.28 0 0 1 -1.078-.298 3.87 3.87 0 0 1 -.92-.54l.574-1.094c.296.244.644.445 1.044.602s.754.236 1.064.236c.238 0 .425-.041.56-.123a.4.4 0 0 0 .2-.364c0-.182-.093-.32-.28-.415s-.478-.193-.87-.294a8.263 8.263 0 0 1 -.987-.32 1.73 1.73 0 0 1 -.668-.486c-.185-.219-.278-.505-.278-.861 0-.42.145-.775.437-1.062.292-.286.692-.475 1.202-.566v-1.18h1.103v1.14c.35.037.688.109 1.015.215.327.107.616.238.868.393l-.561 1.107a5.083 5.083 0 0 0 -.983-.42c-.348-.107-.642-.16-.88-.16a.917.917 0 0 0 -.468.102.33.33 0 0 0 -.175.302c0 .177.09.312.27.405.18.094.465.194.853.3.407.112.74.224 1 .335.26.112.486.28.676.503s.285.52.285.892z" fill="#fff"/></g><path d="m17.998 6.889h8.502v9.425" stroke="#5973e7" stroke-linecap="round"/><path d="m26.16 18.186-2.667-3.428c-.147-.19.011-.444.278-.444h5.332c.266 0 .425.254.277.444l-2.666 3.428a.366.366 0 0 1 -.555 0z" fill="#ffca55" fill-rule="nonzero"/><path d="m16 30h-8.502v-9.425" stroke="#5973e7" stroke-linecap="round"/><path d="m7.838 18.702 2.667 3.429c.147.19-.012.444-.278.444h-5.332c-.266 0-.425-.254-.277-.444l2.666-3.429a.366.366 0 0 1 .554 0z" fill="#ffca55" fill-rule="nonzero"/></g></svg>