<?xml version="1.0" encoding="UTF-8"?>
<svg width="20px" height="17px" viewBox="0 0 20 17" version="1.1" xmlns="http://www.w3.org/2000/svg" xmlns:xlink="http://www.w3.org/1999/xlink">
    <!-- Generator: Sketch 54.1 (76490) - https://sketchapp.com -->
    <title>dashboard</title>
    <desc>Created with Sketch.</desc>
    <g id="Symbols" stroke="none" stroke-width="1" fill="none" fill-rule="evenodd">
        <g id="side-bar-detail-after" transform="translate(-39.000000, -378.000000)">
            <g id="Group-4" transform="translate(39.000000, 378.000000)">
                <g id="dashboard">
                    <path d="M18.5578125,0.92 C17.7526517,0.92 17.7526517,0.92 15.5666208,0.92 C12.9202998,0.92 12.9202998,0.92 9.81368877,0.92 C6.62997027,0.92 6.62997027,0.92 3.94167336,0.92 C1.74879804,0.92 1.74879804,0.92 1.0421875,0.92 C0.868581989,0.92 0.72,1.07549101 0.72,1.27669903 L0.72,15.723301 C0.72,15.924509 0.868581989,16.08 1.0421875,16.08 L18.5578125,16.08 C18.731418,16.08 18.88,15.924509 18.88,15.723301 C18.88,15.1967707 18.88,15.1967707 18.88,13.3898222 C18.88,11.1560676 18.88,11.1560676 18.88,8.49550699 C18.88,5.87749826 18.88,5.87749826 18.88,3.6661429 C18.88,1.86144091 18.88,1.86144091 18.88,1.27669903 C18.88,1.07549101 18.731418,0.92 18.5578125,0.92 Z" id="Path" stroke="#2741B4" stroke-width="0.84" fill-rule="nonzero"></path>
                    <path d="M1.5,5.5 L18.6476816,5.5" id="Line" stroke="#2741B4" stroke-linecap="square"></path>
                    <path d="M6.5,1.5 L6.5,5.07889255" id="Line-2" stroke="#2741B4" stroke-linecap="square"></path>
                    <path d="M13.5,1.5 L13.5,5.07889255" id="Line-2-Copy" stroke="#2741B4" stroke-linecap="square"></path>
                    <polygon id="Path" fill-rule="nonzero" points="16.75 13.7251816 3.25 13.7251816 3.25 7.65048994 16.75 7.65048994"></polygon>
                    <path d="M10.6553955,10.8333554 L12.9777832,8.49409806 C13.2218018,8.24830697 13.6175537,8.24830697 13.8616943,8.49409806 C14.1057129,8.74001211 14.1057129,9.13851581 13.8616943,9.38442985 L11.09729,12.1687916 C10.8532715,12.4145827 10.4573975,12.4144597 10.2133789,12.1687916 L8.97229003,10.9186876 L7.02221681,12.882926 C6.77807619,13.1287171 6.38244628,13.1287171 6.13830566,12.882926 C5.89428713,12.637012 5.89428713,12.2383853 6.13830566,11.9925942 L8.5303955,9.5831284 C8.77441406,9.3373373 9.17041016,9.33746028 9.41430663,9.5831284 L10.6553955,10.8333554 Z" id="Path" fill="#2741B4" fill-rule="nonzero"></path>
                </g>
            </g>
        </g>
    </g>
</svg>