<svg xmlns="http://www.w3.org/2000/svg" xmlns:xlink="http://www.w3.org/1999/xlink" width="25" height="25" viewBox="0 0 25 25">
    <defs>
        <circle id="a" cx="12.5" cy="12.5" r="12.5"/>
    </defs>
    <g fill="none" fill-rule="evenodd">
        <mask id="b" fill="#fff">
            <use xlink:href="#a"/>
        </mask>
        <use fill="#4B4B59" xlink:href="#a"/>
        <g fill="#FFF" stroke="#FFF" stroke-width=".25" mask="url(#b)">
            <path d="M19.142 9.256c-.167-2.834-2.516-5.099-5.349-5.099-1.72 0-3.384.839-4.416 2.207-.024-.013-.05-.021-.073-.033A2.893 2.893 0 0 0 9 6.206a2.76 2.76 0 0 0-.19-.058l-.114-.03a2.765 2.765 0 0 0-.212-.037c-.033-.005-.066-.012-.1-.015A2.845 2.845 0 0 0 5.217 8.88c0 .04.003.08.006.12C3.905 9.713 3 11.209 3 12.706c0 2.23 1.825 4.044 4.068 4.044H8.7a.316.316 0 0 0 0-.63H7.068c-1.894 0-3.435-1.531-3.435-3.414 0-1.308.857-2.665 2.037-3.228l.18-.085v-.199c0-.038.003-.078.005-.118l.003-.054-.004-.064c-.002-.026-.004-.052-.004-.078a2.213 2.213 0 0 1 2.831-2.116l.034.008a2.218 2.218 0 0 1 .553.258 2.2 2.2 0 0 1 1.015 1.85c0 .174.142.314.317.314.175 0 .317-.14.317-.314a2.82 2.82 0 0 0-1.014-2.163c.908-1.181 2.403-1.93 3.89-1.93 2.453 0 4.49 1.931 4.702 4.372a6.065 6.065 0 0 0-1.293.04.315.315 0 1 0 .096.622c.704-.106 1.438-.007 1.483-.001 1.474.279 2.586 1.629 2.586 3.143 0 1.741-1.425 3.157-3.176 3.157h-1.258a.316.316 0 0 0-.316.315c0 .174.142.315.316.315h1.258c2.1 0 3.809-1.699 3.809-3.787 0-1.728-1.212-3.277-2.858-3.707z"/>
            <path d="M15.126 13.824a.317.317 0 0 0 .448 0 .313.313 0 0 0 0-.445l-2.533-2.518a.319.319 0 0 0-.448 0l-2.534 2.518a.313.313 0 0 0 0 .445.317.317 0 0 0 .448 0l1.993-1.98v7.924l-1.993-1.981a.318.318 0 0 0-.448 0 .313.313 0 0 0 0 .445l2.533 2.518a.314.314 0 0 0 .225.093.321.321 0 0 0 .224-.093l2.533-2.518a.313.313 0 0 0 0-.445.318.318 0 0 0-.448 0l-1.993 1.98v-7.924l1.993 1.981z"/>
        </g>
    </g>
</svg>
