<svg height="20" viewBox="0 0 20 20" width="20" xmlns="http://www.w3.org/2000/svg"><g fill="none"><path d="m15.974 20h-15.434a.54.54 0 0 1 -.521-.68l3.505-9.611a.54.54 0 0 1 .521-.399h15.435c.355 0 .521.34.521.68l-3.506 9.611a.54.54 0 0 1 -.52.399z" fill="#b8c2ff"/><path d="m17.334 6.207h-.782v3.103h1.379v-2.506a.597.597 0 0 0 -.597-.597zm-15.954-2.414h-.784a.597.597 0 0 0 -.596.597v14.734c.024 0 .048.002.07.004l1.31-3.569z" fill="#b8c2ff"/><path d="m3.524 9.709a.54.54 0 0 1 .521-.399h12.507v-9.31h-13.103v9.918z" fill="#fff"/><path d="m5.862 5.517h8.276a.345.345 0 1 0 0-.69h-8.276a.345.345 0 1 0 0 .69zm0-2.414h3.448a.345.345 0 1 0 0-.69h-3.448a.345.345 0 1 0 0 .69zm8.276 4.138h-8.276a.345.345 0 1 0 0 .69h8.276a.345.345 0 1 0 0-.69z" fill="#5973e7"/><path d="m3.448 9.918v-9.228h-1.034v12.064z" fill="#f3f5ff"/><path d="m2.414 12.754v-11.375h-1.035v14.211z" fill="#dde2fe"/></g></svg>