<svg height="20" viewBox="0 0 20 20" width="20" xmlns="http://www.w3.org/2000/svg"><g fill="none" fill-rule="evenodd"><path d="m16.216 13.994a9.675 9.675 0 0 1 -.017.006h-11.917c-2.362 0-4.282-1.873-4.282-4.175 0-1.545.952-3.09 2.339-3.826-.003-.041-.006-.082-.006-.124 0-1.613 1.346-2.925 3-2.925.114 0 .226.007.336.02l.105.015c.075.011.15.024.223.04l.12.03c.068.018.135.038.2.06.04.014.08.027.12.043.067.026.133.055.199.086.025.012.052.02.077.034 1.086-1.413 2.837-2.278 4.647-2.278 2.982 0 5.455 2.338 5.63 5.263 1.735.444 3.01 2.044 3.01 3.828 0 2.082-1.678 3.789-3.784 3.903z" fill="#fff"/><g transform="translate(5 9)"><circle cx="5" cy="5" fill="#b8c2ff" r="5"/><path d="m6.371 4.09a.157.157 0 0 0 .118.056.157.157 0 0 0 .118-.055.204.204 0 0 0 0-.266l-1.333-1.5a.165.165 0 0 0 -.055-.04.15.15 0 0 0 -.127 0 .167.167 0 0 0 -.054.04l-1.333 1.5a.204.204 0 0 0 0 .266.157.157 0 0 0 .118.055.157.157 0 0 0 .117-.055l1.05-1.18v4.72l-1.05-1.181a.154.154 0 0 0 -.235 0 .204.204 0 0 0 0 .265l1.333 1.5a.165.165 0 0 0 .054.04c.02.01.042.015.064.015a.152.152 0 0 0 .063-.015.167.167 0 0 0 .055-.04l1.333-1.5a.204.204 0 0 0 0-.265.154.154 0 0 0 -.236 0l-1.049 1.18v-4.72l1.05 1.18z" fill="#5973e7" stroke="#5973e7" stroke-width=".25"/></g><path d="m0 0h20v20h-20z"/></g></svg>