<svg xmlns="http://www.w3.org/2000/svg" width="56" height="47" viewBox="0 0 56 47">
    <g fill="none" fill-rule="evenodd" stroke="#FFF">
        <path d="M43.524 12.018c1.868 1.073 2.934 2.312 2.934 3.632 0 1.32-1.066 2.56-2.934 3.633 1.868 1.072 2.934 2.312 2.934 3.632 0 1.32-1.066 2.56-2.934 3.633 1.868 1.072 2.934 2.311 2.934 3.632 0 1.355-1.122 2.624-3.082 3.716 1.96 1.141 3.082 2.468 3.082 3.885 0 4.264-10.176 7.72-22.729 7.72C11.176 45.502 1 42.046 1 37.782c0-1.417 1.123-2.744 3.082-3.885C2.122 32.804 1 31.535 1 30.18c0-1.32 1.066-2.56 2.935-3.632C2.066 25.475 1 24.236 1 22.915c0-1.32 1.066-2.56 2.935-3.632C2.066 18.21 1 16.97 1 15.65c0-1.32 1.066-2.56 2.935-3.632C2.066 10.945 1 9.706 1 8.386 1 4.306 11.176 1 23.729 1c12.553 0 22.73 3.307 22.73 7.386 0 1.32-1.067 2.56-2.935 3.632z"/>
        <path stroke-linecap="round" d="M6.86 12.5c4.842 1.251 10.337 1.876 16.484 1.876 9.22 0 16.856-1.876 16.856-1.876M6.86 20c4.842 1.251 10.337 1.876 16.484 1.876C32.564 21.876 40.2 20 40.2 20M6.86 28c4.842 1.251 10.337 1.876 16.484 1.876C32.564 29.876 40.2 28 40.2 28M6.86 35c4.842 1.251 10.337 1.876 16.484 1.876C32.564 36.876 40.2 35 40.2 35"/>
        <g transform="translate(33.243 22.758)">
            <circle cx="9" cy="9" r="9" fill="#202541"/>
            <path fill="#FFF" stroke-linecap="round" d="M14.615 15.65l7.353 7.632"/>
        </g>
    </g>
</svg>
