<svg xmlns="http://www.w3.org/2000/svg" xmlns:xlink="http://www.w3.org/1999/xlink" width="1140" height="240" viewBox="0 0 1140 240">
    <defs>
        <linearGradient id="b" x1="0%" x2="99.393%" y1="32.569%" y2="32.569%">
            <stop offset="0%" stop-color="#5269FF"/>
            <stop offset="100%" stop-color="#4890FF"/>
        </linearGradient>
        <rect id="a" width="1140" height="240" rx="10"/>
        <linearGradient id="d" x1="96.735%" x2="0%" y1="34.334%" y2="66.761%">
            <stop offset="0%" stop-color="#CDDDF4"/>
            <stop offset="100%" stop-color="#CDBAFA"/>
        </linearGradient>
        <linearGradient id="e" x1="69.145%" x2="29.517%" y1="3.265%" y2="100%">
            <stop offset="0%" stop-color="#CDDDF4"/>
            <stop offset="100%" stop-color="#CDBAFA"/>
        </linearGradient>
        <linearGradient id="f" x1="96.735%" x2="0%" y1="34.291%" y2="66.806%">
            <stop offset="0%" stop-color="#CDDDF4"/>
            <stop offset="100%" stop-color="#CDBAFA"/>
        </linearGradient>
        <linearGradient id="g" x1="69.094%" x2="29.572%" y1="3.265%" y2="100%">
            <stop offset="0%" stop-color="#CDDDF4"/>
            <stop offset="100%" stop-color="#CDBAFA"/>
        </linearGradient>
    </defs>
    <g fill="none" fill-rule="evenodd">
        <mask id="c" fill="#fff">
            <use xlink:href="#a"/>
        </mask>
        <use fill="url(#b)" xlink:href="#a"/>
        <g fill="#FFF" mask="url(#c)">
            <g transform="translate(779 -52)">
                <circle cx="98" cy="111" r="22" opacity=".812"/>
                <circle cx="80.5" cy="94.5" r="16.5" opacity=".339"/>
                <circle cx="16.5" cy="80.5" r="16.5" opacity=".094"/>
            </g>
        </g>
        <g mask="url(#c)" opacity=".6">
            <g transform="rotate(-1 -1690.251 -3935.909)">
                <path stroke="#B5BDFC" stroke-width=".5" d="M28.241.87l24.353 15.696-1.228 28.94L26.962 29.81z"/>
                <path stroke="#B5BDFC" stroke-width=".5" d="M26.962 29.81l24.404 15.696-25.888 13.396L1.126 43.205z"/>
                <path stroke="#B5BDFC" stroke-width=".5" d="M28.241.87l-1.279 28.94L1.126 43.204l1.227-28.94z"/>
                <ellipse cx=".87" cy="43.308" fill="#B6BDFC" rx="1" ry="1"/>
                <ellipse cx="51.366" cy="45.455" fill="#B6BDFC" rx="1" ry="1"/>
                <ellipse cx="25.376" cy="58.954" fill="#B6BDFC" rx="1" ry="1"/>
                <ellipse cx="26.809" cy="29.707" fill="#B6BDFC" rx="1" ry="1"/>
            </g>
            <g transform="rotate(-1 -129.109 -990.725)">
                <path stroke="#B5BDFC" stroke-width=".5" d="M28.241.87l24.353 15.696-1.228 28.94L26.962 29.81z"/>
                <path stroke="#B5BDFC" stroke-width=".5" d="M26.962 29.81l24.404 15.696-25.888 13.396L1.126 43.205z"/>
                <path stroke="#B5BDFC" stroke-width=".5" d="M28.241.87l-1.279 28.94L1.126 43.204l1.227-28.94z"/>
                <ellipse cx=".87" cy="43.308" fill="#B6BDFC" rx="1" ry="1"/>
                <ellipse cx="2.353" cy="14.265" fill="#B6BDFC" rx="1" ry="1"/>
                <ellipse cx="51.366" cy="45.455" fill="#B6BDFC" rx="1" ry="1"/>
                <ellipse cx="25.376" cy="58.954" fill="#B6BDFC" rx="1" ry="1"/>
                <ellipse cx="52.696" cy="16.566" fill="#B6BDFC" rx="1" ry="1"/>
                <ellipse cx="26.809" cy="29.707" fill="#B6BDFC" rx="1" ry="1"/>
            </g>
            <g transform="rotate(58 -67.95 101.555)">
                <path stroke="#B5BDFC" stroke-width=".5" d="M28.241.87l24.353 15.696-1.228 28.94L26.962 29.81z"/>
                <path stroke="#B5BDFC" stroke-width=".5" d="M26.962 29.81l24.404 15.696-25.888 13.396L1.126 43.205z"/>
                <path stroke="#B5BDFC" stroke-width=".5" d="M28.241.87l-1.279 28.94L1.126 43.204l1.227-28.94z"/>
                <ellipse cx=".87" cy="43.308" fill="#B6BDFC" rx="1" ry="1"/>
                <ellipse cx="2.353" cy="14.265" fill="#B6BDFC" rx="1" ry="1"/>
                <ellipse cx="51.366" cy="45.455" fill="#B6BDFC" rx="1" ry="1"/>
                <ellipse cx="28.241" cy=".869" fill="#B6BDFC" rx="1" ry="1"/>
                <ellipse cx="25.376" cy="58.954" fill="#B6BDFC" rx="1" ry="1"/>
                <ellipse cx="52.696" cy="16.566" fill="#B6BDFC" rx="1" ry="1"/>
                <ellipse cx="26.809" cy="29.707" fill="#B6BDFC" rx="1" ry="1"/>
            </g>
            <g transform="rotate(-1 10931.439 -10807.879)">
                <path stroke="#B5BDFC" stroke-width=".5" d="M28.241.87l24.353 15.696-1.228 28.94L26.962 29.81z"/>
                <path stroke="#B5BDFC" stroke-width=".5" d="M26.962 29.81l24.404 15.696-25.888 13.396L1.126 43.205z"/>
                <path stroke="#B5BDFC" stroke-width=".5" d="M28.241.87l-1.279 28.94L1.126 43.204l1.227-28.94z"/>
                <ellipse cx=".87" cy="43.308" fill="#B6BDFC" rx="1" ry="1"/>
                <ellipse cx="2.353" cy="14.265" fill="#B6BDFC" rx="1" ry="1"/>
                <ellipse cx="51.366" cy="45.455" fill="#B6BDFC" rx="1" ry="1"/>
                <ellipse cx="28.241" cy=".869" fill="#B6BDFC" rx="1" ry="1"/>
                <ellipse cx="52.696" cy="16.566" fill="#B6BDFC" rx="1" ry="1"/>
                <ellipse cx="26.809" cy="29.707" fill="#B6BDFC" rx="1" ry="1"/>
            </g>
            <g transform="rotate(-1 9959.223 -3617.303)">
                <path stroke="#B5BDFC" stroke-width=".5" d="M28.241.87l24.353 15.696-1.228 28.94L26.962 29.81z"/>
                <path stroke="#B5BDFC" stroke-width=".5" d="M26.962 29.81l24.404 15.696-25.888 13.396L1.126 43.205z"/>
                <path stroke="#B5BDFC" stroke-width=".5" d="M28.241.87l-1.279 28.94L1.126 43.204l1.227-28.94z"/>
                <ellipse cx=".87" cy="43.308" fill="#B6BDFC" rx="1" ry="1"/>
                <ellipse cx="2.353" cy="14.265" fill="#B6BDFC" rx="1" ry="1"/>
                <ellipse cx="51.366" cy="45.455" fill="#B6BDFC" rx="1" ry="1"/>
                <ellipse cx="28.241" cy=".869" fill="#B6BDFC" rx="1" ry="1"/>
                <ellipse cx="25.376" cy="58.954" fill="#B6BDFC" rx="1" ry="1"/>
                <ellipse cx="52.696" cy="16.566" fill="#B6BDFC" rx="1" ry="1"/>
                <ellipse cx="26.809" cy="29.707" fill="#B6BDFC" rx="1" ry="1"/>
            </g>
            <g transform="rotate(-1 7612.719 -10918.477)">
                <path stroke="#B5BDFC" stroke-width=".5" d="M28.241.87l24.353 15.696-1.228 28.94L26.962 29.81z"/>
                <path stroke="#B5BDFC" stroke-width=".5" d="M26.962 29.81l24.404 15.696-25.888 13.396L1.126 43.205z"/>
                <path stroke="#B5BDFC" stroke-width=".5" d="M28.241.87l-1.279 28.94L1.126 43.204l1.227-28.94z"/>
                <ellipse cx=".87" cy="43.308" fill="#B6BDFC" rx="1" ry="1"/>
                <ellipse cx="2.353" cy="14.265" fill="#B6BDFC" rx="1" ry="1"/>
                <ellipse cx="51.366" cy="45.455" fill="#B6BDFC" rx="1" ry="1"/>
                <ellipse cx="28.241" cy=".869" fill="#B6BDFC" rx="1" ry="1"/>
                <ellipse cx="25.376" cy="58.954" fill="#B6BDFC" rx="1" ry="1"/>
                <ellipse cx="52.696" cy="16.566" fill="#B6BDFC" rx="1" ry="1"/>
                <ellipse cx="26.809" cy="29.707" fill="#B6BDFC" rx="1" ry="1"/>
            </g>
            <g transform="rotate(-1 9364.933 -13741.263)">
                <path stroke="#B5BDFC" stroke-width=".5" d="M28.241.87l24.353 15.696-1.228 28.94L26.962 29.81z"/>
                <path stroke="#B5BDFC" stroke-width=".5" d="M26.962 29.81l24.404 15.696-25.888 13.396L1.126 43.205z"/>
                <path stroke="#B5BDFC" stroke-width=".5" d="M28.241.87l-1.279 28.94L1.126 43.204l1.227-28.94z"/>
                <ellipse cx=".87" cy="43.308" fill="#B6BDFC" rx="1" ry="1"/>
                <ellipse cx="2.353" cy="14.265" fill="#B6BDFC" rx="1" ry="1"/>
                <ellipse cx="51.366" cy="45.455" fill="#B6BDFC" rx="1" ry="1"/>
                <ellipse cx="28.241" cy=".869" fill="#B6BDFC" rx="1" ry="1"/>
                <ellipse cx="25.376" cy="58.954" fill="#B6BDFC" rx="1" ry="1"/>
                <ellipse cx="52.696" cy="16.566" fill="#B6BDFC" rx="1" ry="1"/>
                <ellipse cx="26.809" cy="29.707" fill="#B6BDFC" rx="1" ry="1"/>
            </g>
            <g transform="rotate(-1 9186.225 -7969.026)">
                <path stroke="#B5BDFC" stroke-width=".5" d="M28.241.87l24.353 15.696-1.228 28.94L26.962 29.81z"/>
                <path stroke="#B5BDFC" stroke-width=".5" d="M26.962 29.81l24.404 15.696-25.888 13.396L1.126 43.205z"/>
                <path stroke="#B5BDFC" stroke-width=".5" d="M28.241.87l-1.279 28.94L1.126 43.204l1.227-28.94z"/>
                <ellipse cx=".87" cy="43.308" fill="#B6BDFC" rx="1" ry="1"/>
                <ellipse cx="2.353" cy="14.265" fill="#B6BDFC" rx="1" ry="1"/>
                <ellipse cx="51.366" cy="45.455" fill="#B6BDFC" rx="1" ry="1"/>
                <ellipse cx="28.241" cy=".869" fill="#B6BDFC" rx="1" ry="1"/>
                <ellipse cx="25.376" cy="58.954" fill="#B6BDFC" rx="1" ry="1"/>
                <ellipse cx="52.696" cy="16.566" fill="#B6BDFC" rx="1" ry="1"/>
                <ellipse cx="26.809" cy="29.707" fill="#B6BDFC" rx="1" ry="1"/>
            </g>
            <g transform="rotate(-2 3329.093 -1803.76)">
                <path fill="#C4D7FF" d="M28.076 9.965l17.037 10.993-.87 20.248-17.036-10.994z"/>
                <path fill="url(#d)" fill-rule="nonzero" d="M27.207 30.212l17.036 10.994-18.11 9.356L9.094 39.621z" opacity=".2"/>
                <path fill="url(#e)" fill-rule="nonzero" d="M28.076 9.965l-.87 20.247-18.11 9.409.87-20.3z" opacity=".3"/>
                <path stroke="#B5BDFC" stroke-width=".5" d="M28.69 1.324L53.043 17.02l-1.228 28.94-24.404-15.697zM27.411 30.264L51.815 45.96 25.927 59.357 1.575 43.66z"/>
                <path stroke="#B5BDFC" stroke-width=".5" d="M28.69 1.324l-1.279 28.94L1.575 43.66l1.228-28.94z"/>
                <ellipse cx="1.319" cy="43.762" fill="#B6BDFC" rx="1" ry="1"/>
                <ellipse cx="2.803" cy="14.72" fill="#B6BDFC" rx="1" ry="1"/>
                <ellipse cx="27.258" cy="30.161" fill="#B6BDFC" rx="1" ry="1"/>
                <ellipse cx="51.815" cy="45.91" fill="#B6BDFC" rx="1" ry="1"/>
                <ellipse cx="28.69" cy="1.324" fill="#B6BDFC" rx="1" ry="1"/>
                <ellipse cx="25.825" cy="59.408" fill="#B6BDFC" rx="1" ry="1"/>
                <ellipse cx="53.145" cy="17.021" fill="#B6BDFC" rx="1" ry="1"/>
            </g>
            <g transform="rotate(-2 2061.471 -1122.007)">
                <path fill="#C4D7FF" d="M28.076 9.965l17.037 10.993-.87 20.248-17.036-10.994z"/>
                <path fill="url(#d)" fill-rule="nonzero" d="M27.207 30.212l17.036 10.994-18.11 9.356L9.094 39.621z" opacity=".2"/>
                <path fill="url(#e)" fill-rule="nonzero" d="M28.076 9.965l-.87 20.247-18.11 9.409.87-20.3z" opacity=".3"/>
                <path stroke="#B5BDFC" stroke-width=".5" d="M28.69 1.324L53.043 17.02l-1.228 28.94-24.404-15.697zM27.411 30.264L51.815 45.96 25.927 59.357 1.575 43.66z"/>
                <path stroke="#B5BDFC" stroke-width=".5" d="M28.69 1.324l-1.279 28.94L1.575 43.66l1.228-28.94z"/>
                <ellipse cx="1.319" cy="43.762" fill="#B6BDFC" rx="1" ry="1"/>
                <ellipse cx="2.803" cy="14.72" fill="#B6BDFC" rx="1" ry="1"/>
                <ellipse cx="27.258" cy="30.161" fill="#B6BDFC" rx="1" ry="1"/>
                <ellipse cx="51.815" cy="45.91" fill="#B6BDFC" rx="1" ry="1"/>
                <ellipse cx="28.69" cy="1.324" fill="#B6BDFC" rx="1" ry="1"/>
                <ellipse cx="25.825" cy="59.408" fill="#B6BDFC" rx="1" ry="1"/>
                <ellipse cx="53.145" cy="17.021" fill="#B6BDFC" rx="1" ry="1"/>
            </g>
            <g transform="rotate(-2 2104.377 -2563.697)">
                <path fill="#C4D7FF" d="M28.076 9.965l17.037 10.993-.87 20.248-17.036-10.994z"/>
                <path fill="url(#d)" fill-rule="nonzero" d="M27.207 30.212l17.036 10.994-18.11 9.356L9.094 39.621z" opacity=".2"/>
                <path fill="url(#e)" fill-rule="nonzero" d="M28.076 9.965l-.87 20.247-18.11 9.409.87-20.3z" opacity=".3"/>
                <path stroke="#B5BDFC" stroke-width=".5" d="M28.69 1.324L53.043 17.02l-1.228 28.94-24.404-15.697zM27.411 30.264L51.815 45.96 25.927 59.357 1.575 43.66z"/>
                <path stroke="#B5BDFC" stroke-width=".5" d="M28.69 1.324l-1.279 28.94L1.575 43.66l1.228-28.94z"/>
                <ellipse cx="1.319" cy="43.762" fill="#B6BDFC" rx="1" ry="1"/>
                <ellipse cx="2.803" cy="14.72" fill="#B6BDFC" rx="1" ry="1"/>
                <ellipse cx="27.258" cy="30.161" fill="#B6BDFC" rx="1" ry="1"/>
                <ellipse cx="51.815" cy="45.91" fill="#B6BDFC" rx="1" ry="1"/>
                <ellipse cx="28.69" cy="1.324" fill="#B6BDFC" rx="1" ry="1"/>
                <ellipse cx="25.825" cy="59.408" fill="#B6BDFC" rx="1" ry="1"/>
                <ellipse cx="53.145" cy="17.021" fill="#B6BDFC" rx="1" ry="1"/>
            </g>
            <path fill="#C4D7FF" d="M169.214 110.317l17.41 10.392-.162 20.265-17.41-10.391z"/>
            <path fill="url(#d)" fill-rule="nonzero" d="M27.207 30.212l17.036 10.994-18.11 9.356L9.094 39.621z" opacity=".2" transform="rotate(-2 2973.226 -3982.751)"/>
            <path fill="url(#e)" fill-rule="nonzero" d="M28.076 9.965l-.87 20.247-18.11 9.409.87-20.3z" opacity=".3" transform="rotate(-2 2973.226 -3982.751)"/>
            <g transform="rotate(-2 2986.02 -3995.842)">
                <path stroke="#B5BDFC" stroke-width=".5" d="M28.241.87l24.353 15.696-1.228 28.94L26.962 29.81z"/>
                <path stroke="#B5BDFC" stroke-width=".5" d="M26.962 29.81l24.404 15.696-25.888 13.396L1.126 43.205z"/>
                <path stroke="#B5BDFC" stroke-width=".5" d="M28.241.87l-1.279 28.94L1.126 43.204l1.227-28.94z"/>
                <ellipse cx=".87" cy="43.308" fill="#B6BDFC" rx="1" ry="1"/>
                <ellipse cx="2.353" cy="14.265" fill="#B6BDFC" rx="1" ry="1"/>
                <ellipse cx="51.366" cy="45.455" fill="#B6BDFC" rx="1" ry="1"/>
                <ellipse cx="28.241" cy=".869" fill="#B6BDFC" rx="1" ry="1"/>
                <ellipse cx="25.376" cy="58.954" fill="#B6BDFC" rx="1" ry="1"/>
                <ellipse cx="52.696" cy="16.566" fill="#B6BDFC" rx="1" ry="1"/>
                <ellipse cx="26.809" cy="29.707" fill="#B6BDFC" rx="1" ry="1"/>
            </g>
            <g transform="rotate(-2 836.863 -1883.167)">
                <path fill="#C4D7FF" d="M28.076 9.965l17.037 10.993-.87 20.248-17.036-10.994z"/>
                <path fill="url(#d)" fill-rule="nonzero" d="M27.207 30.212l17.036 10.994-18.11 9.356L9.094 39.621z" opacity=".2"/>
                <path fill="url(#e)" fill-rule="nonzero" d="M28.076 9.965l-.87 20.247-18.11 9.409.87-20.3z" opacity=".3"/>
                <path stroke="#B5BDFC" stroke-width=".5" d="M28.69 1.324L53.043 17.02l-1.228 28.94-24.404-15.697zM27.411 30.264L51.815 45.96 25.927 59.357 1.575 43.66z"/>
                <path stroke="#B5BDFC" stroke-width=".5" d="M28.69 1.324l-1.279 28.94L1.575 43.66l1.228-28.94z"/>
                <ellipse cx="1.319" cy="43.762" fill="#B6BDFC" rx="1" ry="1"/>
                <ellipse cx="2.803" cy="14.72" fill="#B6BDFC" rx="1" ry="1"/>
                <ellipse cx="27.258" cy="30.161" fill="#B6BDFC" rx="1" ry="1"/>
                <ellipse cx="51.815" cy="45.91" fill="#B6BDFC" rx="1" ry="1"/>
                <ellipse cx="28.69" cy="1.324" fill="#B6BDFC" rx="1" ry="1"/>
                <ellipse cx="25.825" cy="59.408" fill="#B6BDFC" rx="1" ry="1"/>
                <ellipse cx="53.145" cy="17.021" fill="#B6BDFC" rx="1" ry="1"/>
            </g>
        </g>
        <g mask="url(#c)" opacity=".6">
            <g transform="scale(-1 1) rotate(-1 -1908.378 61380.84)">
                <path stroke="#B5BDFC" stroke-width=".5" d="M28.203.87l24.32 15.696-1.226 28.94L26.926 29.81z"/>
                <path stroke="#B5BDFC" stroke-width=".5" d="M26.926 29.81l24.371 15.696-25.853 13.396-24.32-15.697z"/>
                <path stroke="#B5BDFC" stroke-width=".5" d="M28.203.87l-1.277 28.94L1.124 43.204l1.226-28.94z"/>
                <ellipse cx=".869" cy="43.308" fill="#B6BDFC" rx="1" ry="1"/>
                <ellipse cx="51.297" cy="45.455" fill="#B6BDFC" rx="1" ry="1"/>
                <ellipse cx="25.342" cy="58.954" fill="#B6BDFC" rx="1" ry="1"/>
                <ellipse cx="26.773" cy="29.707" fill="#B6BDFC" rx="1" ry="1"/>
            </g>
            <g transform="scale(-1 1) rotate(-1 -347.27 64322.056)">
                <path stroke="#B5BDFC" stroke-width=".5" d="M28.203.87l24.32 15.696-1.226 28.94L26.926 29.81z"/>
                <path stroke="#B5BDFC" stroke-width=".5" d="M26.926 29.81l24.371 15.696-25.853 13.396-24.32-15.697z"/>
                <path stroke="#B5BDFC" stroke-width=".5" d="M28.203.87l-1.277 28.94L1.124 43.204l1.226-28.94z"/>
                <ellipse cx=".869" cy="43.308" fill="#B6BDFC" rx="1" ry="1"/>
                <ellipse cx="2.35" cy="14.265" fill="#B6BDFC" rx="1" ry="1"/>
                <ellipse cx="51.297" cy="45.455" fill="#B6BDFC" rx="1" ry="1"/>
                <ellipse cx="28.203" cy=".869" fill="#B6BDFC" rx="1" ry="1"/>
                <ellipse cx="25.342" cy="58.954" fill="#B6BDFC" rx="1" ry="1"/>
                <ellipse cx="52.626" cy="16.566" fill="#B6BDFC" rx="1" ry="1"/>
                <ellipse cx="26.773" cy="29.707" fill="#B6BDFC" rx="1" ry="1"/>
            </g>
            <g transform="scale(-1 1) rotate(58 -643.471 -923.586)">
                <path stroke="#B5BDFC" stroke-width=".5" d="M28.203.87l24.32 15.696-1.226 28.94L26.926 29.81z"/>
                <path stroke="#B5BDFC" stroke-width=".5" d="M26.926 29.81l24.371 15.696-25.853 13.396-24.32-15.697z"/>
                <path stroke="#B5BDFC" stroke-width=".5" d="M28.203.87l-1.277 28.94L1.124 43.204l1.226-28.94z"/>
                <ellipse cx=".869" cy="43.308" fill="#B6BDFC" rx="1" ry="1"/>
                <ellipse cx="2.35" cy="14.265" fill="#B6BDFC" rx="1" ry="1"/>
                <ellipse cx="51.297" cy="45.455" fill="#B6BDFC" rx="1" ry="1"/>
                <ellipse cx="28.203" cy=".869" fill="#B6BDFC" rx="1" ry="1"/>
                <ellipse cx="25.342" cy="58.954" fill="#B6BDFC" rx="1" ry="1"/>
                <ellipse cx="52.626" cy="16.566" fill="#B6BDFC" rx="1" ry="1"/>
                <ellipse cx="26.773" cy="29.707" fill="#B6BDFC" rx="1" ry="1"/>
            </g>
            <g transform="scale(-1 1) rotate(-1 10713.391 54517.938)">
                <path stroke="#B5BDFC" stroke-width=".5" d="M28.203.87l24.32 15.696-1.226 28.94L26.926 29.81z"/>
                <path stroke="#B5BDFC" stroke-width=".5" d="M26.926 29.81l24.371 15.696-25.853 13.396-24.32-15.697z"/>
                <path stroke="#B5BDFC" stroke-width=".5" d="M28.203.87l-1.277 28.94L1.124 43.204l1.226-28.94z"/>
                <ellipse cx=".869" cy="43.308" fill="#B6BDFC" rx="1" ry="1"/>
                <ellipse cx="2.35" cy="14.265" fill="#B6BDFC" rx="1" ry="1"/>
                <ellipse cx="51.297" cy="45.455" fill="#B6BDFC" rx="1" ry="1"/>
                <ellipse cx="28.203" cy=".869" fill="#B6BDFC" rx="1" ry="1"/>
                <ellipse cx="52.626" cy="16.566" fill="#B6BDFC" rx="1" ry="1"/>
                <ellipse cx="26.773" cy="29.707" fill="#B6BDFC" rx="1" ry="1"/>
            </g>
            <g transform="scale(-1 1) rotate(-1 9741.092 61698.882)">
                <path stroke="#B5BDFC" stroke-width=".5" d="M28.203.87l24.32 15.696-1.226 28.94L26.926 29.81z"/>
                <path stroke="#B5BDFC" stroke-width=".5" d="M26.926 29.81l24.371 15.696-25.853 13.396-24.32-15.697z"/>
                <path stroke="#B5BDFC" stroke-width=".5" d="M28.203.87l-1.277 28.94L1.124 43.204l1.226-28.94z"/>
                <ellipse cx=".869" cy="43.308" fill="#B6BDFC" rx="1" ry="1"/>
                <ellipse cx="2.35" cy="14.265" fill="#B6BDFC" rx="1" ry="1"/>
                <ellipse cx="51.297" cy="45.455" fill="#B6BDFC" rx="1" ry="1"/>
                <ellipse cx="28.203" cy=".869" fill="#B6BDFC" rx="1" ry="1"/>
                <ellipse cx="25.342" cy="58.954" fill="#B6BDFC" rx="1" ry="1"/>
                <ellipse cx="52.626" cy="16.566" fill="#B6BDFC" rx="1" ry="1"/>
                <ellipse cx="26.773" cy="29.707" fill="#B6BDFC" rx="1" ry="1"/>
            </g>
            <g transform="scale(-1 1) rotate(-1 7394.673 54407.526)">
                <path stroke="#B5BDFC" stroke-width=".5" d="M28.203.87l24.32 15.696-1.226 28.94L26.926 29.81z"/>
                <path stroke="#B5BDFC" stroke-width=".5" d="M26.926 29.81l24.371 15.696-25.853 13.396-24.32-15.697z"/>
                <path stroke="#B5BDFC" stroke-width=".5" d="M28.203.87l-1.277 28.94L1.124 43.204l1.226-28.94z"/>
                <ellipse cx=".869" cy="43.308" fill="#B6BDFC" rx="1" ry="1"/>
                <ellipse cx="2.35" cy="14.265" fill="#B6BDFC" rx="1" ry="1"/>
                <ellipse cx="51.297" cy="45.455" fill="#B6BDFC" rx="1" ry="1"/>
                <ellipse cx="28.203" cy=".869" fill="#B6BDFC" rx="1" ry="1"/>
                <ellipse cx="25.342" cy="58.954" fill="#B6BDFC" rx="1" ry="1"/>
                <ellipse cx="52.626" cy="16.566" fill="#B6BDFC" rx="1" ry="1"/>
                <ellipse cx="26.773" cy="29.707" fill="#B6BDFC" rx="1" ry="1"/>
            </g>
            <g transform="scale(-1 1) rotate(-1 9146.92 51588.505)">
                <path stroke="#B5BDFC" stroke-width=".5" d="M28.203.87l24.32 15.696-1.226 28.94L26.926 29.81z"/>
                <path stroke="#B5BDFC" stroke-width=".5" d="M26.926 29.81l24.371 15.696-25.853 13.396-24.32-15.697z"/>
                <path stroke="#B5BDFC" stroke-width=".5" d="M28.203.87l-1.277 28.94L1.124 43.204l1.226-28.94z"/>
                <ellipse cx=".869" cy="43.308" fill="#B6BDFC" rx="1" ry="1"/>
                <ellipse cx="2.35" cy="14.265" fill="#B6BDFC" rx="1" ry="1"/>
                <ellipse cx="51.297" cy="45.455" fill="#B6BDFC" rx="1" ry="1"/>
                <ellipse cx="28.203" cy=".869" fill="#B6BDFC" rx="1" ry="1"/>
                <ellipse cx="25.342" cy="58.954" fill="#B6BDFC" rx="1" ry="1"/>
                <ellipse cx="52.626" cy="16.566" fill="#B6BDFC" rx="1" ry="1"/>
                <ellipse cx="26.773" cy="29.707" fill="#B6BDFC" rx="1" ry="1"/>
            </g>
            <g transform="scale(-1 1) rotate(-1 8968.145 57353.004)">
                <path stroke="#B5BDFC" stroke-width=".5" d="M28.203.87l24.32 15.696-1.226 28.94L26.926 29.81z"/>
                <path stroke="#B5BDFC" stroke-width=".5" d="M26.926 29.81l24.371 15.696-25.853 13.396-24.32-15.697z"/>
                <path stroke="#B5BDFC" stroke-width=".5" d="M28.203.87l-1.277 28.94L1.124 43.204l1.226-28.94z"/>
                <ellipse cx=".869" cy="43.308" fill="#B6BDFC" rx="1" ry="1"/>
                <ellipse cx="2.35" cy="14.265" fill="#B6BDFC" rx="1" ry="1"/>
                <ellipse cx="51.297" cy="45.455" fill="#B6BDFC" rx="1" ry="1"/>
                <ellipse cx="28.203" cy=".869" fill="#B6BDFC" rx="1" ry="1"/>
                <ellipse cx="25.342" cy="58.954" fill="#B6BDFC" rx="1" ry="1"/>
                <ellipse cx="52.626" cy="16.566" fill="#B6BDFC" rx="1" ry="1"/>
                <ellipse cx="26.773" cy="29.707" fill="#B6BDFC" rx="1" ry="1"/>
            </g>
            <g transform="scale(-1 1) rotate(-2 2934.988 30853.423)">
                <path fill="#C4D7FF" d="M28.039 9.965l17.014 10.993-.87 20.248L27.17 30.212z"/>
                <path fill="url(#f)" fill-rule="nonzero" d="M27.17 30.212l17.014 10.994-18.087 9.356L9.083 39.621z" opacity=".2"/>
                <path fill="url(#g)" fill-rule="nonzero" d="M28.039 9.965l-.869 20.247-18.087 9.409.869-20.3z" opacity=".3"/>
                <path stroke="#B5BDFC" stroke-width=".5" d="M28.652 1.324l24.32 15.697-1.226 28.94-24.372-15.697z"/>
                <path stroke="#B5BDFC" stroke-width=".5" d="M27.374 30.264L51.746 45.96 25.893 59.357 1.573 43.66z"/>
                <path stroke="#B5BDFC" stroke-width=".5" d="M28.652 1.324l-1.278 28.94L1.573 43.66l1.226-28.94z"/>
                <ellipse cx="1.317" cy="43.762" fill="#B6BDFC" rx="1" ry="1"/>
                <ellipse cx="2.799" cy="14.72" fill="#B6BDFC" rx="1" ry="1"/>
                <ellipse cx="27.221" cy="30.161" fill="#B6BDFC" rx="1" ry="1"/>
                <ellipse cx="51.746" cy="45.91" fill="#B6BDFC" rx="1" ry="1"/>
                <ellipse cx="28.652" cy="1.324" fill="#B6BDFC" rx="1" ry="1"/>
                <ellipse cx="25.791" cy="59.408" fill="#B6BDFC" rx="1" ry="1"/>
                <ellipse cx="53.074" cy="17.021" fill="#B6BDFC" rx="1" ry="1"/>
            </g>
            <g transform="scale(-1 1) rotate(-2 1667.35 31534.293)">
                <path fill="#C4D7FF" d="M28.039 9.965l17.014 10.993-.87 20.248L27.17 30.212z"/>
                <path fill="url(#f)" fill-rule="nonzero" d="M27.17 30.212l17.014 10.994-18.087 9.356L9.083 39.621z" opacity=".2"/>
                <path fill="url(#g)" fill-rule="nonzero" d="M28.039 9.965l-.869 20.247-18.087 9.409.869-20.3z" opacity=".3"/>
                <path stroke="#B5BDFC" stroke-width=".5" d="M28.652 1.324l24.32 15.697-1.226 28.94-24.372-15.697z"/>
                <path stroke="#B5BDFC" stroke-width=".5" d="M27.374 30.264L51.746 45.96 25.893 59.357 1.573 43.66z"/>
                <path stroke="#B5BDFC" stroke-width=".5" d="M28.652 1.324l-1.278 28.94L1.573 43.66l1.226-28.94z"/>
                <ellipse cx="1.317" cy="43.762" fill="#B6BDFC" rx="1" ry="1"/>
                <ellipse cx="2.799" cy="14.72" fill="#B6BDFC" rx="1" ry="1"/>
                <ellipse cx="27.221" cy="30.161" fill="#B6BDFC" rx="1" ry="1"/>
                <ellipse cx="51.746" cy="45.91" fill="#B6BDFC" rx="1" ry="1"/>
                <ellipse cx="28.652" cy="1.324" fill="#B6BDFC" rx="1" ry="1"/>
                <ellipse cx="25.791" cy="59.408" fill="#B6BDFC" rx="1" ry="1"/>
                <ellipse cx="53.074" cy="17.021" fill="#B6BDFC" rx="1" ry="1"/>
            </g>
            <g transform="scale(-1 1) rotate(-2 1710.29 30094.535)">
                <path fill="#C4D7FF" d="M28.039 9.965l17.014 10.993-.87 20.248L27.17 30.212z"/>
                <path fill="url(#f)" fill-rule="nonzero" d="M27.17 30.212l17.014 10.994-18.087 9.356L9.083 39.621z" opacity=".2"/>
                <path fill="url(#g)" fill-rule="nonzero" d="M28.039 9.965l-.869 20.247-18.087 9.409.869-20.3z" opacity=".3"/>
                <path stroke="#B5BDFC" stroke-width=".5" d="M28.652 1.324l24.32 15.697-1.226 28.94-24.372-15.697z"/>
                <path stroke="#B5BDFC" stroke-width=".5" d="M27.374 30.264L51.746 45.96 25.893 59.357 1.573 43.66z"/>
                <path stroke="#B5BDFC" stroke-width=".5" d="M28.652 1.324l-1.278 28.94L1.573 43.66l1.226-28.94z"/>
                <ellipse cx="1.317" cy="43.762" fill="#B6BDFC" rx="1" ry="1"/>
                <ellipse cx="2.799" cy="14.72" fill="#B6BDFC" rx="1" ry="1"/>
                <ellipse cx="27.221" cy="30.161" fill="#B6BDFC" rx="1" ry="1"/>
                <ellipse cx="51.746" cy="45.91" fill="#B6BDFC" rx="1" ry="1"/>
                <ellipse cx="28.652" cy="1.324" fill="#B6BDFC" rx="1" ry="1"/>
                <ellipse cx="25.791" cy="59.408" fill="#B6BDFC" rx="1" ry="1"/>
                <ellipse cx="53.074" cy="17.021" fill="#B6BDFC" rx="1" ry="1"/>
            </g>
            <path fill="#C4D7FF" d="M970.885 116.461l-17.387 10.393.161 20.266 17.387-10.393z"/>
            <path fill="url(#f)" fill-rule="nonzero" d="M27.17 30.212l17.014 10.994-18.087 9.356L9.083 39.621z" opacity=".2" transform="scale(-1 1) rotate(-2 2579.173 28677.362)"/>
            <path fill="url(#g)" fill-rule="nonzero" d="M28.039 9.965l-.869 20.247-18.087 9.409.869-20.3z" opacity=".3" transform="scale(-1 1) rotate(-2 2579.173 28677.362)"/>
            <g transform="scale(-1 1) rotate(-2 2591.967 28664.288)">
                <path stroke="#B5BDFC" stroke-width=".5" d="M28.203.87l24.32 15.696-1.226 28.94L26.926 29.81z"/>
                <path stroke="#B5BDFC" stroke-width=".5" d="M26.926 29.81l24.371 15.696-25.853 13.396-24.32-15.697z"/>
                <path stroke="#B5BDFC" stroke-width=".5" d="M28.203.87l-1.277 28.94L1.124 43.204l1.226-28.94z"/>
                <ellipse cx=".869" cy="43.308" fill="#B6BDFC" rx="1" ry="1"/>
                <ellipse cx="2.35" cy="14.265" fill="#B6BDFC" rx="1" ry="1"/>
                <ellipse cx="51.297" cy="45.455" fill="#B6BDFC" rx="1" ry="1"/>
                <ellipse cx="28.203" cy=".869" fill="#B6BDFC" rx="1" ry="1"/>
                <ellipse cx="25.342" cy="58.954" fill="#B6BDFC" rx="1" ry="1"/>
                <ellipse cx="52.626" cy="16.566" fill="#B6BDFC" rx="1" ry="1"/>
                <ellipse cx="26.773" cy="29.707" fill="#B6BDFC" rx="1" ry="1"/>
            </g>
            <g transform="scale(-1 1) rotate(-2 442.761 30774.182)">
                <path fill="#C4D7FF" d="M28.039 9.965l17.014 10.993-.87 20.248L27.17 30.212z"/>
                <path fill="url(#f)" fill-rule="nonzero" d="M27.17 30.212l17.014 10.994-18.087 9.356L9.083 39.621z" opacity=".2"/>
                <path fill="url(#g)" fill-rule="nonzero" d="M28.039 9.965l-.869 20.247-18.087 9.409.869-20.3z" opacity=".3"/>
                <path stroke="#B5BDFC" stroke-width=".5" d="M28.652 1.324l24.32 15.697-1.226 28.94-24.372-15.697z"/>
                <path stroke="#B5BDFC" stroke-width=".5" d="M27.374 30.264L51.746 45.96 25.893 59.357 1.573 43.66z"/>
                <path stroke="#B5BDFC" stroke-width=".5" d="M28.652 1.324l-1.278 28.94L1.573 43.66l1.226-28.94z"/>
                <ellipse cx="1.317" cy="43.762" fill="#B6BDFC" rx="1" ry="1"/>
                <ellipse cx="2.799" cy="14.72" fill="#B6BDFC" rx="1" ry="1"/>
                <ellipse cx="27.221" cy="30.161" fill="#B6BDFC" rx="1" ry="1"/>
                <ellipse cx="51.746" cy="45.91" fill="#B6BDFC" rx="1" ry="1"/>
                <ellipse cx="28.652" cy="1.324" fill="#B6BDFC" rx="1" ry="1"/>
                <ellipse cx="25.791" cy="59.408" fill="#B6BDFC" rx="1" ry="1"/>
                <ellipse cx="53.074" cy="17.021" fill="#B6BDFC" rx="1" ry="1"/>
            </g>
        </g>
    </g>
</svg>
