<svg xmlns="http://www.w3.org/2000/svg" width="20" height="20" viewBox="0 0 20 20">
    <g fill="none" fill-rule="nonzero">
        <path fill="#B8C2FF" d="M15.974 20H.54a.54.54 0 0 1-.521-.68l3.505-9.611a.54.54 0 0 1 .521-.399H19.48c.355 0 .521.34.521.68l-3.506 9.611a.54.54 0 0 1-.52.399z"/>
        <path fill="#B8C2FF" d="M17.334 6.207h-.782V9.31h1.379V6.804a.597.597 0 0 0-.597-.597zM1.38 3.793H.596A.597.597 0 0 0 0 4.39v14.734c.024 0 .048.002.07.004l1.31-3.569V3.793z"/>
        <path fill="#FFF" d="M3.524 9.709a.54.54 0 0 1 .521-.399h12.507V0H3.449v9.918l.075-.209z"/>
        <g fill="#5973E7">
            <path d="M5.862 5.517h8.276a.345.345 0 1 0 0-.69H5.862a.345.345 0 1 0 0 .69zM5.862 3.103H9.31a.345.345 0 1 0 0-.69H5.862a.345.345 0 1 0 0 .69zM14.138 7.241H5.862a.345.345 0 1 0 0 .69h8.276a.345.345 0 1 0 0-.69z"/>
        </g>
        <path fill="#F3F5FF" d="M3.448 9.918V.69H2.414v12.064z"/>
        <path fill="#DDE2FE" d="M2.414 12.754V1.379H1.379V15.59z"/>
    </g>
</svg>
