<?xml version="1.0" encoding="UTF-8"?>
<svg width="19px" height="17px" viewBox="0 0 19 17" version="1.1" xmlns="http://www.w3.org/2000/svg" xmlns:xlink="http://www.w3.org/1999/xlink">
    <!-- Generator: Sketch 54.1 (76490) - https://sketchapp.com -->
    <title>data</title>
    <desc>Created with Sketch.</desc>
    <g id="Symbols" stroke="none" stroke-width="1" fill="none" fill-rule="evenodd">
        <g id="side-bar-detail-after" transform="translate(-39.000000, -542.000000)" fill="#2741B4">
            <g id="Group-7" transform="translate(39.000000, 541.000000)">
                <g id="data" transform="translate(0.000000, 1.000000)">
                    <g id="cloud-computing">
                        <path d="M16.1420833,5.25551852 C15.9752,2.42218519 13.62585,0.157407407 10.7932667,0.157407407 C9.07376667,0.157407407 7.40873333,0.995759259 6.37703333,2.36362963 C6.35328333,2.35135185 6.32795,2.34285185 6.30388333,2.3312037 C6.24181667,2.3012963 6.17911667,2.27296296 6.11483333,2.24746296 C6.07746667,2.23266667 6.03946667,2.21944444 6.00146667,2.20622222 C5.93908333,2.1845 5.87575,2.1652963 5.81146667,2.14798148 C5.77346667,2.13790741 5.73578333,2.12751852 5.69746667,2.1187037 C5.6278,2.10296296 5.55686667,2.091 5.4853,2.08061111 C5.45205,2.07557407 5.41911667,2.06927778 5.38555,2.0655 C5.28073333,2.05353704 5.17465,2.0462963 5.06666667,2.0462963 C3.49536667,2.0462963 2.21666667,3.3172037 2.21666667,4.87962963 C2.21666667,4.92024074 2.2192,4.95990741 2.22173333,4.99957407 C0.904716667,5.71325926 0,7.20894444 0,8.70588889 C0,10.9357222 1.82463333,12.75 4.06758333,12.75 L5.7,12.75 C5.8748,12.75 6.01666667,12.6092778 6.01666667,12.4351852 C6.01666667,12.2610926 5.8748,12.1203704 5.7,12.1203704 L4.06758333,12.1203704 C2.17391667,12.1203704 0.633333333,10.5887963 0.633333333,8.70588889 C0.633333333,7.39814815 1.48991667,6.04066667 2.67013333,5.47809259 L2.85,5.39277778 L2.85,5.19444444 C2.85,5.15572222 2.85253333,5.11605556 2.85475,5.07638889 L2.8576,5.02192593 L2.8538,4.95833333 C2.8519,4.9322037 2.85,4.90607407 2.85,4.87962963 C2.85,3.66475926 3.84433333,2.67592593 5.06666667,2.67592593 C5.16451667,2.67592593 5.2611,2.68442593 5.35705,2.69701852 C5.38175,2.70016667 5.40645,2.70425926 5.43115,2.70835185 C5.5157,2.7222037 5.59898333,2.74046296 5.681,2.76375926 C5.69208333,2.76690741 5.70348333,2.76911111 5.71456667,2.77225926 C5.80481667,2.79964815 5.89285,2.83459259 5.97898333,2.87331481 C6.00115,2.88338889 6.023,2.89409259 6.04485,2.9047963 C6.12116667,2.94225926 6.1959,2.9835 6.2681,3.03009259 C6.878,3.4232963 7.28333333,4.10487037 7.28333333,4.87962963 C7.28333333,5.05372222 7.4252,5.19444444 7.6,5.19444444 C7.7748,5.19444444 7.91666667,5.05372222 7.91666667,4.87962963 C7.91666667,4.01262963 7.5221,3.23661111 6.90333333,2.71653704 C7.8109,1.53598148 9.3062,0.787037037 10.7932667,0.787037037 C13.2455333,0.787037037 15.2829667,2.71842593 15.4951333,5.15887037 C15.1715,5.1362037 14.6866833,5.12455556 14.2021833,5.19822222 C14.0292833,5.22435185 13.9105333,5.38490741 13.9368167,5.5567963 C13.9605667,5.71262963 14.0954667,5.82438889 14.2493667,5.82438889 C14.2652,5.82438889 14.28135,5.82312963 14.2975,5.82061111 C15.0017667,5.71483333 15.7361167,5.814 15.7807667,5.81998148 C17.2551667,6.09859259 18.3666667,7.44883333 18.3666667,8.96340741 C18.3666667,10.7040185 16.9419833,12.1203704 15.1911333,12.1203704 L13.9333333,12.1203704 C13.7585333,12.1203704 13.6166667,12.2610926 13.6166667,12.4351852 C13.6166667,12.6092778 13.7585333,12.75 13.9333333,12.75 L15.1911333,12.75 C17.2912667,12.75 19,11.0512593 19,8.96340741 C19,7.23538889 17.7881167,5.68555556 16.1420833,5.25551852 Z" id="Path"></path>
                        <path d="M12.1261167,9.82442593 C12.1878667,9.88581481 12.2689333,9.91666667 12.35,9.91666667 C12.4310667,9.91666667 12.5121333,9.88581481 12.5738833,9.82442593 C12.6977,9.70133333 12.6977,9.50237037 12.5738833,9.37927778 L10.0408667,6.86107407 C10.0117333,6.8317963 9.97658333,6.80881481 9.93763333,6.79275926 C9.86036667,6.76096296 9.77296667,6.76096296 9.6957,6.79275926 C9.65675,6.80881481 9.62191667,6.8317963 9.59246667,6.86107407 L7.05945,9.37927778 C6.93563333,9.50237037 6.93563333,9.70133333 7.05945,9.82442593 C7.1212,9.88581481 7.20226667,9.91666667 7.28333333,9.91666667 C7.3644,9.91666667 7.44546667,9.88581481 7.50721667,9.82442593 L9.5,7.8432963 L9.5,15.7678148 L7.50721667,13.7866852 C7.3834,13.6635926 7.18326667,13.6635926 7.05945,13.7866852 C6.93563333,13.9097778 6.93563333,14.1087407 7.05945,14.2318333 L9.59246667,16.750037 C9.6216,16.7793148 9.65675,16.8022963 9.6957,16.8183519 C9.73433333,16.8340926 9.7755,16.8425926 9.81666667,16.8425926 C9.85783333,16.8425926 9.899,16.8340926 9.93763333,16.8183519 C9.97658333,16.8022963 10.0114167,16.7793148 10.0408667,16.750037 L12.5738833,14.2318333 C12.6977,14.1087407 12.6977,13.9097778 12.5738833,13.7866852 C12.4500667,13.6635926 12.2499333,13.6635926 12.1261167,13.7866852 L10.1333333,15.7678148 L10.1333333,7.8432963 L12.1261167,9.82442593 Z" id="Path"></path>
                    </g>
                </g>
            </g>
        </g>
    </g>
</svg>