<svg xmlns="http://www.w3.org/2000/svg" width="20" height="20" viewBox="0 0 20 20">
    <g fill="none" fill-rule="evenodd">
        <path fill="#FFF" d="M16.216 13.994a9.675 9.675 0 0 1-.017.006H4.282C1.92 14 0 12.127 0 9.825c0-1.545.952-3.09 2.339-3.826-.003-.041-.006-.082-.006-.124 0-1.613 1.346-2.925 3-2.925.114 0 .226.007.336.02l.105.015c.075.011.15.024.223.04l.12.03c.068.018.135.038.2.06.04.014.08.027.12.043.067.026.133.055.199.086.025.012.052.02.077.034C7.799 1.865 9.55 1 11.36 1c2.982 0 5.455 2.338 5.63 5.263C18.725 6.707 20 8.307 20 10.091c0 2.082-1.678 3.789-3.784 3.903z"/>
        <g transform="translate(5 9)">
            <circle cx="5" cy="5" r="5" fill="#B8C2FF"/>
            <path fill="#5973E7" stroke="#5973E7" stroke-width=".25" d="M6.371 4.09a.157.157 0 0 0 .118.056.157.157 0 0 0 .118-.055.204.204 0 0 0 0-.266l-1.333-1.5a.165.165 0 0 0-.055-.04.15.15 0 0 0-.127 0 .167.167 0 0 0-.054.04l-1.333 1.5a.204.204 0 0 0 0 .266.157.157 0 0 0 .118.055.157.157 0 0 0 .117-.055l1.05-1.18v4.72L3.94 6.45a.154.154 0 0 0-.235 0 .204.204 0 0 0 0 .265l1.333 1.5a.165.165 0 0 0 .054.04c.02.01.042.015.064.015a.152.152 0 0 0 .063-.015.167.167 0 0 0 .055-.04l1.333-1.5a.204.204 0 0 0 0-.265.154.154 0 0 0-.236 0L5.322 7.63V2.91l1.05 1.18z"/>
        </g>
        <path d="M0 0h20v20H0z"/>
    </g>
</svg>
