<svg xmlns="http://www.w3.org/2000/svg" width="20" height="18" viewBox="0 0 20 18">
    <g fill="none" fill-rule="evenodd">
        <path fill="#FFF" d="M5.153 13H16.2c2.05-.73 3.201-1.914 3.452-3.555.252-1.641-.817-3.128-3.206-4.461-.152-.828-.32-1.43-.502-1.803C14.815.87 13.013.28 11.656.573c-.748.16-1.601-.279-2.377 0-.65.233-1.468.963-2.452 2.19l-2.047-.36c-1.02.363-1.651.712-1.897 1.047-.245.336-.332.847-.26 1.534-.819.69-1.353 1.204-1.603 1.543-.25.34-.534.83-.852 1.473a214.052 214.052 0 0 0 .852 3.352c.35.449.812.776 1.385.983.573.207 1.489.428 2.748.665z"/>
        <path fill="#FFF" d="M16.992 5.263C16.816 2.338 14.343 0 11.362 0c-1.81 0-3.563.865-4.65 2.278-.024-.013-.051-.022-.076-.034a3.076 3.076 0 0 0-.2-.086 2.948 2.948 0 0 0-.32-.103c-.039-.01-.078-.021-.119-.03a2.963 2.963 0 0 0-.223-.04l-.105-.015a3.011 3.011 0 0 0-.336-.02c-1.654 0-3 1.312-3 2.925 0 .042.003.083.006.124C.952 5.736 0 7.279 0 8.825 0 11.127 1.92 13 4.282 13H6a.33.33 0 0 0 .333-.325A.33.33 0 0 0 6 12.35H4.282c-1.994 0-3.615-1.581-3.615-3.525 0-1.35.901-2.751 2.144-3.332L3 5.405V5.2c0-.04.003-.08.005-.122l.003-.056-.004-.066A1.096 1.096 0 0 1 3 4.875C3 3.621 4.047 2.6 5.333 2.6a2.39 2.39 0 0 1 .384.033c.089.015.177.034.263.058l.035.008c.095.029.188.065.279.105l.069.032c.08.039.159.082.235.13.642.406 1.32.213.669-.324C8.222 1.423 9.796.65 11.36.65c2.582 0 4.726 1.994 4.95 4.513a6.509 6.509 0 0 0-1.361.04.326.326 0 0 0-.28.371.33.33 0 0 0 .38.272c.741-.109 1.514-.006 1.561 0 1.552.287 2.722 1.681 2.722 3.245 0 1.797-1.5 3.259-3.342 3.259h-1.324a.33.33 0 0 0-.334.325c0 .18.15.325.334.325h1.324C18.2 13 20 11.246 20 9.09c0-1.783-1.276-3.383-3.008-3.827z"/>
        <g transform="translate(5 8)">
            <circle cx="5" cy="5" r="5" fill="#B8C2FF"/>
            <path stroke="#5973E7" stroke-dasharray="14,60" stroke-linecap="round" stroke-width=".75" d="M5.176 8.003a3 3 0 1 0 0-6 3 3 0 0 0 0 6z"/>
            <path fill="#5973E7" fill-rule="nonzero" stroke="#5870EF" stroke-width=".4" d="M2.234 5.792L3.78 4.506a.19.19 0 0 0 .05-.213c-.031-.069-.103-.086-.162-.037L2.122 5.542c-.058.048-.13.031-.161-.038l-.826-1.833c-.031-.07-.103-.086-.162-.037a.182.182 0 0 0-.058.098.182.182 0 0 0 .01.115L1.75 5.68c.093.207.31.257.484.112z"/>
        </g>
    </g>
</svg>
