<svg xmlns="http://www.w3.org/2000/svg" width="20" height="17" viewBox="0 0 20 17">
    <defs>
        <linearGradient id="a" x1="0%" x2="99.393%" y1="32.569%" y2="32.569%">
            <stop offset="0%" stop-color="#5269FF"/>
            <stop offset="100%" stop-color="#4890FF"/>
        </linearGradient>
        <linearGradient id="b" x1="0%" x2="99.393%" y1="32.569%" y2="32.569%">
            <stop offset="0%" stop-color="#5269FF"/>
            <stop offset="100%" stop-color="#4890FF"/>
        </linearGradient>
    </defs>
    <g fill="none" fill-rule="evenodd">
        <g>
            <path fill="url(#a)" d="M19.219 0H.78A.779.779 0 0 0 0 .777v15.446c0 .43.35.777.781.777H19.22a.779.779 0 0 0 .781-.777V.777A.779.779 0 0 0 19.219 0z"/>
            <path fill="#B8C2FF" fill-rule="nonzero" d="M19.219 0H.78A.779.779 0 0 0 0 .777V2.54h20V.777A.779.779 0 0 0 19.219 0z"/>
            <path fill="#FFF" fill-rule="nonzero" d="M10.947 9.024l2.445-2.34a.68.68 0 0 1 .93 0 .61.61 0 0 1 0 .89l-2.91 2.785a.68.68 0 0 1-.93 0l-1.306-1.25-2.053 1.964a.68.68 0 0 1-.93 0 .61.61 0 0 1 0-.89l2.518-2.41a.68.68 0 0 1 .93 0l1.306 1.25z"/>
            <ellipse cx="1.767" cy="1.243" fill="url(#b)" rx="1" ry="1"/>
            <ellipse cx="3.368" cy="1.243" fill="url(#b)" rx="1" ry="1"/>
            <ellipse cx="4.854" cy="1.225" fill="url(#b)" rx="1" ry="1"/>
        </g>
        <path d="M0-2h20v20H0z"/>
    </g>
</svg>
