<svg xmlns="http://www.w3.org/2000/svg" width="25" height="25" viewBox="0 0 25 25">
    <g fill="none" fill-rule="evenodd">
        <circle cx="12.5" cy="12.5" r="12.5" fill="#4B4B59"/>
        <g fill-rule="nonzero" stroke="#4B4B59" stroke-width=".25">
            <path fill="#FFF" d="M20.375 6.14H5.625c-.276 0-.5.226-.5.505v11.71c0 .279.224.504.5.504h14.75c.276 0 .5-.225.5-.504v-1.892-3.967-3.914-1.937a.502.502 0 0 0-.5-.504z"/>
            <path fill="#4B4B59" d="M11.167 7.15h3.666l.125.125v3.116l-.125.125h-3.666l-.125-.125V7.275l.125-.125zM6.25 7.15h3.667l.125.125v3.116l-.125.125H6.25l-.125-.125V7.275l.125-.125zM19.75 17.85H6.25l-.125-.125V11.65l.125-.125h13.5l.125.125v6.075l-.125.125zM19.75 10.516h-3.667l-.125-.125V7.275l.125-.125h3.667l.125.125v3.116l-.125.125z"/>
            <path fill="#FFF" d="M13.744 14.921h-.177l-1.241-1.25a.497.497 0 0 0-.707 0l-2.392 2.41a.508.508 0 0 0 0 .714.497.497 0 0 0 .707 0l1.95-1.964h.177l1.241 1.25a.497.497 0 0 0 .707 0l2.764-2.785a.508.508 0 0 0 0-.714.497.497 0 0 0-.707 0l-2.322 2.34z"/>
        </g>
    </g>
</svg>
