<svg xmlns="http://www.w3.org/2000/svg" width="21" height="21" viewBox="0 0 21 21">
    <g fill="#FFF" fill-rule="evenodd">
        <path d="M19.36 13.176a.524.524 0 0 0-.523.525v4.661a1.573 1.573 0 0 1-1.567 1.575H2.612a1.573 1.573 0 0 1-1.567-1.575V4.682a1.573 1.573 0 0 1 1.567-1.575H7.25a.524.524 0 0 0 .523-.525.524.524 0 0 0-.523-.525H2.612A2.621 2.621 0 0 0 0 4.682v13.68a2.621 2.621 0 0 0 2.612 2.626H17.27a2.621 2.621 0 0 0 2.612-2.625V13.7a.524.524 0 0 0-.523-.525z"/>
        <path fill-rule="nonzero" d="M19.675.706a2.342 2.342 0 0 0-3.325 0l-9.32 9.366a.525.525 0 0 0-.134.231L5.671 14.75c-.05.182 0 .377.134.511a.521.521 0 0 0 .509.135l4.424-1.232a.522.522 0 0 0 .23-.135l9.32-9.366a2.373 2.373 0 0 0 0-3.341l-.613-.616zM8.169 10.413l7.627-7.666 2.46 2.473-7.628 7.665-2.46-2.472zm-.492.991l1.966 1.976-2.719.756.753-2.732zM19.55 3.92l-.554.557-2.46-2.472.554-.557a1.301 1.301 0 0 1 1.847 0l.613.616c.51.513.51 1.344 0 1.856z"/>
    </g>
</svg>
