<svg height="21" viewBox="0 0 21 21" width="21" xmlns="http://www.w3.org/2000/svg"><g fill="#fff" fill-rule="evenodd"><path d="m19.36 13.176a.524.524 0 0 0 -.523.525v4.661a1.573 1.573 0 0 1 -1.567 1.575h-14.658a1.573 1.573 0 0 1 -1.567-1.575v-13.68a1.573 1.573 0 0 1 1.567-1.575h4.638a.524.524 0 0 0 .523-.525.524.524 0 0 0 -.523-.525h-4.638a2.621 2.621 0 0 0 -2.612 2.625v13.68a2.621 2.621 0 0 0 2.612 2.626h14.658a2.621 2.621 0 0 0 2.612-2.625v-4.663a.524.524 0 0 0 -.523-.525z"/><path d="m19.675.706a2.342 2.342 0 0 0 -3.325 0l-9.32 9.366a.525.525 0 0 0 -.134.231l-1.225 4.447c-.05.182 0 .377.134.511a.521.521 0 0 0 .509.135l4.424-1.232a.522.522 0 0 0 .23-.135l9.32-9.366a2.373 2.373 0 0 0 0-3.341zm-11.506 9.707 7.627-7.666 2.46 2.473-7.628 7.665-2.46-2.472zm-.492.991 1.966 1.976-2.719.756zm11.873-7.484-.554.557-2.46-2.472.554-.557a1.301 1.301 0 0 1 1.847 0l.613.616c.51.513.51 1.344 0 1.856z" fill-rule="nonzero"/></g></svg>