<svg height="38" viewBox="0 0 38 38" width="38" xmlns="http://www.w3.org/2000/svg" xmlns:xlink="http://www.w3.org/1999/xlink"><defs><circle id="a" cx="15" cy="15" r="15"/><filter id="b" height="146.7%" width="146.7%" x="-23.3%" y="-16.7%"><feOffset dy="2" in="SourceAlpha" result="shadowOffsetOuter1"/><feGaussianBlur in="shadowOffsetOuter1" result="shadowBlurOuter1" stdDeviation="2"/><feColorMatrix in="shadowBlurOuter1" values="0 0 0 0 0.259385349 0 0 0 0 0.768468325 0 0 0 0 0.497585688 0 0 0 0.471127717 0"/></filter></defs><g fill="none" fill-rule="evenodd"><g transform="translate(4 2)"><use fill="#000" filter="url(#b)" xlink:href="#a"/><use fill="#42c47f" xlink:href="#a"/></g><path d="m12.103 20.815-.015 3.2c0 .18.06.361.177.493a.56.56 0 0 0 .426.197l2.853-.017a.56.56 0 0 0 .427-.197l9.853-10.995c.235-.262.235-.689 0-.968l-2.824-3.183c-.235-.263-.618-.263-.868 0l-1.97 2.215-7.883 8.78a.777.777 0 0 0 -.176.475zm10.47-10.026 1.986 2.215-1.118 1.247-1.985-2.215 1.118-1.247zm-9.25 10.322 7.265-8.107 1.986 2.215-7.265 8.09-2 .017.015-2.215z" fill="#fff" fill-rule="nonzero"/></g></svg>