<svg xmlns="http://www.w3.org/2000/svg" width="37" height="37" viewBox="0 0 37 37">
    <g fill="none" fill-rule="nonzero">
        <path fill="#FFF" d="M10.78 17.986h-2.6a4.117 4.117 0 0 1 0 1.028h2.6a7.798 7.798 0 0 1-.02-.514c0-.173.008-.344.02-.514zM28.82 17.986h-2.6c.012.17.02.341.02.514s-.008.344-.02.514h2.6a4.114 4.114 0 0 1 0-1.028zM18.5 8.184c-.174 0-.345-.012-.514-.033v2.628c.17-.01.341-.019.514-.019s.344.008.514.02V8.15c-.169.022-.34.034-.514.034zM18.5 26.24c-.173 0-.344-.008-.514-.02v2.63a4.115 4.115 0 0 1 1.028 0v-2.63c-.17.012-.341.02-.514.02z"/>
        <path fill="#B8C2FF" d="M18.5 10.76a7.74 7.74 0 1 0 0 15.48 7.74 7.74 0 0 0 0-15.48z"/>
        <path fill="#F1F4FE" d="M18.5 12.69a5.81 5.81 0 1 0 0 11.62 5.81 5.81 0 0 0 0-11.62z"/>
        <path fill="#4A4A4A" d="M18.5 14.594l-2.382 3.635 2.382 1.757 2.382-1.757z"/>
        <path fill="#4A4A4A" d="M18.5 20.584l-2.382-1.876 2.382 3.697 2.382-3.697z"/>
        <path fill="#B8C2FF" d="M18.5.004a4.09 4.09 0 1 0 0 8.18 4.09 4.09 0 0 0 0-8.18z"/>
        <path fill="#F1F4FE" d="M18.5 1.024a3.07 3.07 0 1 0 0 6.14 3.07 3.07 0 0 0 0-6.14z"/>
        <path fill="#4A4A4A" d="M18.5 2.03l-1.26 1.92 1.26.93 1.259-.93z"/>
        <path fill="#4A4A4A" d="M18.5 5.195l-1.26-.991 1.26 1.954 1.259-1.954z"/>
        <path fill="#B8C2FF" d="M18.5 28.816a4.09 4.09 0 1 0 0 8.18 4.09 4.09 0 0 0 0-8.18z"/>
        <path fill="#F1F4FE" d="M18.5 29.836a3.07 3.07 0 1 0 0 6.14 3.07 3.07 0 0 0 0-6.14z"/>
        <path fill="#4A4A4A" d="M18.5 30.842l-1.26 1.921 1.26.928 1.259-.928z"/>
        <path fill="#4A4A4A" d="M18.5 34.008l-1.26-.992 1.26 1.954 1.259-1.954z"/>
        <path fill="#FFF" d="M14.346 4.71a.514.514 0 0 0-.653-.32c-.2.068-.402.142-.6.219a.514.514 0 0 0 .373.958c.185-.072.373-.14.559-.204a.514.514 0 0 0 .32-.652zM6.912 9.954a.514.514 0 0 0-.714.133c-.24.35-.468.715-.676 1.083a.514.514 0 1 0 .894.506c.194-.343.406-.682.63-1.008a.514.514 0 0 0-.134-.714zm4.96-4.239a.514.514 0 0 0-.7-.194 14.98 14.98 0 0 0-1.084.676.514.514 0 0 0 .58.848c.327-.223.666-.435 1.01-.63a.514.514 0 0 0 .194-.7zM8.424 7.52c-.313.287-.617.591-.903.903a.514.514 0 0 0 .757.695c.267-.29.55-.573.841-.84a.514.514 0 1 0-.695-.758zM5.274 12.8a.514.514 0 0 0-.665.293c-.077.197-.15.399-.22.6a.514.514 0 1 0 .974.332c.064-.188.132-.376.203-.559a.514.514 0 0 0-.292-.665zM32.61 13.693a14.865 14.865 0 0 0-.219-.6.514.514 0 0 0-.958.373c.072.183.14.371.204.559a.514.514 0 1 0 .973-.332zM28.577 7.521a.514.514 0 0 0-.695.757c.29.267.574.55.84.84a.512.512 0 0 0 .727.032.514.514 0 0 0 .03-.726c-.286-.312-.59-.616-.902-.903zm-1.664-1.324c-.35-.24-.715-.467-1.083-.675a.514.514 0 0 0-.507.894c.344.194.683.406 1.009.63a.511.511 0 0 0 .714-.134.514.514 0 0 0-.133-.715zm4.566 4.974a14.978 14.978 0 0 0-.676-1.083.514.514 0 1 0-.848.581c.223.326.435.665.63 1.009a.514.514 0 1 0 .894-.507zM23.907 4.609c-.198-.077-.4-.151-.6-.22a.514.514 0 0 0-.332.974c.186.063.374.132.559.203a.513.513 0 1 0 .373-.957zM5.566 23.534a13.86 13.86 0 0 1-.203-.559.514.514 0 1 0-.973.332c.068.201.142.403.219.6a.514.514 0 0 0 .957-.373zM6.416 25.323a.514.514 0 1 0-.895.506c.209.369.436.733.676 1.083a.513.513 0 1 0 .848-.58 13.971 13.971 0 0 1-.63-1.01zm1.861 2.558a.514.514 0 1 0-.757.695c.287.312.59.616.903.903a.512.512 0 0 0 .726-.03.514.514 0 0 0-.03-.727c-.292-.267-.575-.55-.842-.84zm3.4 2.703a13.983 13.983 0 0 1-1.009-.63.514.514 0 1 0-.58.849c.349.24.713.467 1.082.675a.512.512 0 0 0 .7-.194.514.514 0 0 0-.194-.7zM14.025 31.637a13.904 13.904 0 0 1-.559-.203.514.514 0 0 0-.373.957c.197.077.4.15.6.22a.513.513 0 1 0 .332-.974zM24.2 31.726a.514.514 0 0 0-.666-.292c-.184.071-.372.14-.559.203a.514.514 0 0 0 .332.973c.2-.068.402-.142.6-.219a.514.514 0 0 0 .292-.665zM26.331 29.955c-.326.224-.665.435-1.008.63a.514.514 0 0 0 .506.894 14.98 14.98 0 0 0 1.083-.676.514.514 0 0 0-.58-.848zm4.953-4.826a.514.514 0 0 0-.7.194c-.194.344-.406.683-.63 1.009a.514.514 0 1 0 .849.58c.24-.35.467-.714.675-1.082a.514.514 0 0 0-.194-.7zm-2.562 2.753c-.267.29-.55.573-.84.84a.514.514 0 1 0 .695.758c.312-.287.616-.591.902-.903a.514.514 0 0 0-.757-.695zM32.29 22.654a.514.514 0 0 0-.653.321 13.86 13.86 0 0 1-.203.559.514.514 0 0 0 .957.373c.077-.197.15-.399.22-.6a.514.514 0 0 0-.322-.653z"/>
        <path fill="#B8C2FF" d="M4.123 14.41a4.09 4.09 0 1 0 0 8.18 4.09 4.09 0 0 0 0-8.18z"/>
        <path fill="#F1F4FE" d="M4.123 15.43a3.07 3.07 0 1 0 0 6.14 3.07 3.07 0 0 0 0-6.14z"/>
        <path fill="#4A4A4A" d="M4.123 16.436l-1.26 1.92 1.26.929 1.259-.928z"/>
        <path fill="#4A4A4A" d="M4.123 19.601l-1.26-.991 1.26 1.954 1.259-1.954z"/>
        <path fill="#B8C2FF" d="M32.877 14.41a4.09 4.09 0 1 0 0 8.18 4.09 4.09 0 0 0 0-8.18z"/>
        <path fill="#F1F4FE" d="M32.877 15.43a3.07 3.07 0 1 0 0 6.14 3.07 3.07 0 0 0 0-6.14z"/>
        <path fill="#4A4A4A" d="M32.877 16.436l-1.259 1.92 1.26.93 1.258-.929z"/>
        <path fill="#4A4A4A" d="M32.877 19.601l-1.259-.991 1.26 1.954 1.258-1.954z"/>
    </g>
</svg>
