<svg height="26" viewBox="0 0 14 26" width="14" xmlns="http://www.w3.org/2000/svg" xmlns:xlink="http://www.w3.org/1999/xlink"><linearGradient id="a" x1="104.746%" x2="34.26%" y1="43.36%" y2="60.572%"><stop offset="0" stop-color="#b2b2e7"/><stop offset="1" stop-color="#6262a5"/></linearGradient><linearGradient id="b" x1="18.642%" x2="50%" y1="0%" y2="59.299%"><stop offset="0" stop-color="#6174c7"/><stop offset="1" stop-color="#abb7f4"/></linearGradient><linearGradient id="c" x1="37.709%" x2="57.109%" y1="7.544%" y2="74.563%"><stop offset="0" stop-color="#b3c1f9"/><stop offset="1" stop-color="#8898e7"/></linearGradient><mask id="d" fill="#fff"><path d="m0 .017h6.34v11.536h-6.34z" fill="#fff" fill-rule="evenodd"/></mask><mask id="e" fill="#fff"><path d="m.014.036h6.34v15.38h-6.34z" fill="#fff" fill-rule="evenodd"/></mask><mask id="f" fill="#fff"><path d="m0 .036h6.34v15.38h-6.34z" fill="#fff" fill-rule="evenodd"/></mask><g fill="none" fill-rule="evenodd"><path d="m1.564 14.114 6.356 3.85 6.352-3.85-6.357-3.85z" fill="url(#a)" transform="translate(-1.053 -.199)"/><path d="m6.34 3.862-6.34-3.845 6.34 11.536z" fill="#ced5ff" mask="url(#d)" transform="matrix(-1 0 0 1 13.25 13.783)"/><path d="m12.669 13.998-6.335 11.535v-7.69z" fill="url(#b)" transform="matrix(-1 0 0 1 13.25 -.199)"/><path d="m-.002 15.423 6.335-3.844-6.34-11.536z" fill="url(#c)" mask="url(#e)" transform="matrix(-1 0 0 1 6.928 .092)"/><path d="m0 11.571 6.335-11.535.005 15.38z" fill="#ced5ff" mask="url(#f)" transform="matrix(-1 0 0 1 13.25 .092)"/></g></svg>