<svg xmlns="http://www.w3.org/2000/svg" width="40" height="40" viewBox="0 0 40 40">
    <g fill="none" fill-rule="evenodd">
        <rect width="40" height="40" fill="#8868FF" rx="19.8"/>
        <g fill="#FFF">
            <path fill-rule="nonzero" d="M19.862 36.944a.658.658 0 0 1-.553-.333L9.859 20.99a.88.88 0 0 1 0-.895l9.45-15.621a.644.644 0 0 1 1.106 0l9.45 15.621a.88.88 0 0 1 0 .895l-9.45 15.621a.654.654 0 0 1-.553.333zM11.236 20.54l8.626 14.26 8.627-14.26-8.627-14.259-8.626 14.26z"/>
            <path fill-rule="nonzero" d="M19.862 26.79a.613.613 0 0 1-.302-.083l-9.45-5.467c-.228-.133-.373-.404-.373-.699 0-.295.145-.565.373-.698l9.45-5.467c.19-.11.415-.11.604 0l9.45 5.467c.23.133.373.403.373.698 0 .295-.144.566-.372.699l-9.45 5.467a.613.613 0 0 1-.302.083zm-7.94-6.249l7.94 4.594 7.941-4.594-7.94-4.594-7.941 4.594z"/>
            <path d="M19.862 36.944c-.372 0-.675-.35-.675-.782V4.92c0-.431.303-.781.675-.781.373 0 .675.35.675.78v31.243c0 .432-.302.782-.675.782z"/>
        </g>
    </g>
</svg>
