<svg height="40" viewBox="0 0 40 40" width="40" xmlns="http://www.w3.org/2000/svg"><g fill="none" fill-rule="evenodd"><rect fill="#8868ff" height="40" rx="19.8" width="40"/><g fill="#fff"><path d="m19.862 36.944a.658.658 0 0 1 -.553-.333l-9.45-15.621a.88.88 0 0 1 0-.895l9.45-15.621a.644.644 0 0 1 1.106 0l9.45 15.621a.88.88 0 0 1 0 .895l-9.45 15.621a.654.654 0 0 1 -.553.333zm-8.626-16.404 8.626 14.26 8.627-14.26-8.627-14.259-8.626 14.26z" fill-rule="nonzero"/><path d="m19.862 26.79a.613.613 0 0 1 -.302-.083l-9.45-5.467c-.228-.133-.373-.404-.373-.699s.145-.565.373-.698l9.45-5.467c.19-.11.415-.11.604 0l9.45 5.467c.23.133.373.403.373.698s-.144.566-.372.699l-9.45 5.467a.613.613 0 0 1 -.302.083zm-7.94-6.249 7.94 4.594 7.941-4.594-7.94-4.594z" fill-rule="nonzero"/><path d="m19.862 36.944c-.372 0-.675-.35-.675-.782v-31.242c0-.431.303-.781.675-.781.373 0 .675.35.675.78v31.243c0 .432-.302.782-.675.782z"/></g></g></svg>