<svg xmlns="http://www.w3.org/2000/svg" width="30" height="29" viewBox="0 0 30 29">
    <g fill="none" fill-rule="nonzero">
        <path fill="#B8C2FF" d="M0 23.182l9.999 5.778 19.997-11.555V5.813L19.997.035 0 11.627z"/>
        <path fill="#DCE1FF" d="M0 11.627l9.999 5.778L29.996 5.813v11.592L9.999 28.96 0 23.182z"/>
        <path fill="#B8C2FF" d="M9.999 28.96V17.405L29.996 5.813v11.592z"/>
        <g fill="#FFF" transform="translate(2.436 1.347)">
            <path d="M17.561.01L.064 10.065l7.59 4.335L25.152 4.346 17.562.01zM7.653 13.42l-5.878-3.357L17.562.992l5.878 3.356-15.787 9.07z"/>
            <ellipse cx="12.85" cy="6.962" rx="3.279" ry="1.864"/>
        </g>
        <g fill="#5973E7" transform="translate(8.526 4.684)">
            <ellipse cx="11.836" cy=".865" rx="1.417" ry="1"/>
            <ellipse cx="1.473" cy="6.786" rx="1.417" ry="1"/>
        </g>
        <g fill="#FFF">
            <path d="M0 13.112v.283l9.998 5.926v-.283zM0 14.664v.282l9.998 5.926v-.282zM0 16.215v.283l9.998 5.926v-.282zM0 17.767v.283l9.998 5.926v-.282zM0 19.319v.283l9.998 5.926v-.283zM0 20.87v.283l9.998 5.926v-.282z"/>
        </g>
        <g fill="#D5DDFF">
            <path d="M29.996 7.427L9.999 19.04v.281L29.996 7.708zM29.996 8.979L9.999 20.591v.281L29.996 9.26zM29.996 10.53L9.999 22.143v.282l19.997-11.612zM29.996 12.082L9.999 23.694v.282l19.997-11.613zM10 25.246l-.001.281 19.997-11.612v-.28zM10 26.798l-.001.281 19.997-11.612v-.281z"/>
        </g>
    </g>
</svg>
