<svg height="29" viewBox="0 0 30 29" width="30" xmlns="http://www.w3.org/2000/svg" xmlns:xlink="http://www.w3.org/1999/xlink"><linearGradient id="a" x1="0%" x2="99.393%" y1="32.569%" y2="32.569%"><stop offset="0" stop-color="#5269ff"/><stop offset="1" stop-color="#4890ff"/></linearGradient><g fill="none" fill-rule="evenodd"><path d="m0 23.182 9.999 5.778 19.997-11.555v-11.592l-9.999-5.778-19.997 11.592z" fill="url(#a)"/><path d="m0 11.627 9.999 5.778 19.997-11.592v11.592l-19.997 11.555-9.999-5.778z" fill="#dce1ff" fill-rule="nonzero"/><path d="m9.999 28.96v-11.555l19.997-11.592v11.592z" fill="url(#a)"/><g fill-rule="nonzero"><g fill="#fff" transform="translate(2.436 1.347)"><path d="m17.561.01-17.497 10.055 7.59 4.335 17.498-10.054-7.59-4.336zm-9.908 13.41-5.878-3.357 15.787-9.071 5.878 3.356-15.787 9.07z"/><ellipse cx="12.85" cy="6.962" rx="3.279" ry="1.864"/></g><g fill="#fff"><ellipse cx="20.362" cy="5.549" rx="1.417" ry="1"/><ellipse cx="9.999" cy="11.47" rx="1.417" ry="1"/></g><path d="m0 13.112v.283l9.998 5.926v-.283zm0 1.552v.282l9.998 5.926v-.282zm0 1.551v.283l9.998 5.926v-.282zm0 1.552v.283l9.998 5.926v-.282zm0 1.552v.283l9.998 5.926v-.283zm0 1.551v.283l9.998 5.926v-.282z" fill="#fff"/><path d="m29.996 7.427-19.997 11.613v.281l19.997-11.613zm0 1.552-19.997 11.612v.281l19.997-11.612zm0 1.551-19.997 11.613v.282l19.997-11.612zm0 1.552-19.997 11.612v.282l19.997-11.613zm-19.996 13.164-.001.281 19.997-11.612v-.28zm0 1.552-.001.281 19.997-11.612v-.281z" fill="#d5ddff"/></g></g></svg>