<svg height="48" viewBox="0 0 48 48" width="48" xmlns="http://www.w3.org/2000/svg" xmlns:xlink="http://www.w3.org/1999/xlink"><filter id="a" height="259.4%" width="259.4%" x="-79.7%" y="-79.7%"><feOffset dy="5" in="SourceAlpha" result="shadowOffsetOuter1"/><feGaussianBlur in="shadowOffsetOuter1" result="shadowBlurOuter1" stdDeviation="4"/><feColorMatrix in="shadowBlurOuter1" result="shadowMatrixOuter1" values="0 0 0 0 0 0 0 0 0 0 0 0 0 0 0 0 0 0 0.17 0"/><feMerge><feMergeNode in="shadowMatrixOuter1"/><feMergeNode in="SourceGraphic"/></feMerge></filter><g fill="none" filter="url(#a)" transform="translate(8 3)"><g fill="#df5427"><path d="m30.972 2.438s1.2 14.234-6.445 21.88c-7.646 7.646-21.562 6.127-21.562 6.127s-1.52-13.916 6.125-21.562c7.646-7.646 21.88-6.445 21.88-6.445z"/><path d="m31.206 2.226s1.22 14.457-6.546 22.222c-7.765 7.766-21.899 6.223-21.899 6.223s-1.543-14.134 6.222-21.901c7.766-7.764 22.223-6.545 22.223-6.545z"/><path d="m30.972 2.438s1.2 14.235-6.445 21.88c-7.646 7.647-21.562 6.127-21.562 6.127s-1.52-13.916 6.125-21.562c7.646-7.646 21.88-6.445 21.88-6.445z"/></g><path d="m31.67.974-.05-.594-.594-.05c-.632-.054-15.605-1.213-23.896 7.08-8.3 8.298-6.805 22.953-6.738 23.573l.062.563.562.062c.172.018 1.413.146 3.296.146 4.934 0 14.272-.876 20.28-6.883 8.29-8.292 7.13-23.264 7.078-23.897z" fill="#fff"/><path d="m30.3 1.701c.06 1.406.112 5.078-.656 9.272a21.78 21.78 0 0 1 -4.922-3.695 21.793 21.793 0 0 1 -3.698-4.918 43.554 43.554 0 0 1 9.276-.66zm-28.553 28.551c-.1-1.492-.25-5.678.702-10.307a21.746 21.746 0 0 1 5.568 4.038 21.747 21.747 0 0 1 4.037 5.565c-4.629.951-8.815.803-10.307.704z" fill="#000"/><path d="m23.594 23.873c-2.959 2.96-6.87 4.586-10.597 5.466a22.664 22.664 0 0 0 -4.315-6.021 22.67 22.67 0 0 0 -6.024-4.318c.88-3.725 2.507-7.634 5.468-10.596 3.284-3.281 7.794-4.984 11.936-5.856a22.723 22.723 0 0 0 3.995 5.394 22.718 22.718 0 0 0 5.396 4.001c-.871 4.14-2.575 8.647-5.859 11.93z" fill="#000"/><path d="m20.217 12.985 1.435-1.436a.47.47 0 1 0 -.664-.664l-1.436 1.436-1.917-1.917a.47.47 0 1 0 -.664.665l1.917 1.916-1.033 1.033-1.917-1.917a.47.47 0 1 0 -.664.665l1.916 1.916-1.032 1.033-1.917-1.917a.47.47 0 1 0 -.664.665l1.916 1.917-1.033 1.032-1.916-1.916a.47.47 0 1 0 -.665.664l1.917 1.917-1.033 1.033-1.917-1.917a.47.47 0 1 0 -.664.664l1.917 1.917-1.436 1.436a.47.47 0 1 0 .664.664l1.436-1.435 1.55 1.549a.469.469 0 0 0 .664 0 .47.47 0 0 0 0-.665l-1.55-1.549 1.033-1.033 1.55 1.55a.469.469 0 0 0 .664 0 .47.47 0 0 0 0-.665l-1.55-1.55 1.034-1.032 1.549 1.55a.469.469 0 0 0 .664 0 .47.47 0 0 0 0-.665l-1.549-1.55 1.033-1.032 1.549 1.549a.469.469 0 0 0 .664 0 .47.47 0 0 0 0-.665l-1.549-1.549 1.033-1.032 1.55 1.549a.469.469 0 0 0 .664 0 .47.47 0 0 0 0-.665l-1.55-1.549z" fill="#000"/><path d="m30.92 1.693-.048-.565-.565-.048c-.602-.05-14.857-1.155-22.753 6.74-7.902 7.902-6.48 21.856-6.415 22.446l.059.536.535.059c.163.017 1.345.139 3.138.139 4.698 0 13.59-.834 19.31-6.554 7.895-7.895 6.79-22.15 6.74-22.753z" fill="#fff"/><path d="m30.523 1.478a44.15 44.15 0 0 1 -.666 9.417 22.111 22.111 0 0 1 -4.999-3.754 22.132 22.132 0 0 1 -3.755-4.995 44.24 44.24 0 0 1 9.42-.668zm-28.999 28.997c-.1-1.516-.253-5.767.713-10.469a22.088 22.088 0 0 1 5.656 4.101 22.084 22.084 0 0 1 4.1 5.653c-4.702.966-8.953.815-10.469.715z" fill="#df5427"/><path d="m23.713 23.996c-3.006 3.006-6.978 4.657-10.763 5.551a23.021 23.021 0 0 0 -4.383-6.115c-1.8-1.8-3.858-3.27-6.117-4.384.894-3.783 2.546-7.753 5.554-10.761 3.333-3.333 7.914-5.063 12.121-5.949a23.082 23.082 0 0 0 4.058 5.479 23.072 23.072 0 0 0 5.48 4.063c-.885 4.204-2.615 8.781-5.95 12.116z" fill="#df5427"/><path d="m20.217 12.985 1.435-1.436a.47.47 0 1 0 -.664-.664l-1.436 1.436-1.917-1.917a.47.47 0 1 0 -.664.665l1.917 1.916-1.033 1.033-1.917-1.917a.47.47 0 1 0 -.664.665l1.916 1.916-1.032 1.033-1.917-1.917a.47.47 0 1 0 -.664.665l1.916 1.917-1.033 1.032-1.916-1.916a.47.47 0 1 0 -.665.664l1.917 1.917-1.033 1.033-1.917-1.917a.47.47 0 1 0 -.664.664l1.917 1.917-1.436 1.436a.47.47 0 1 0 .664.664l1.436-1.435 1.55 1.549a.469.469 0 0 0 .664 0 .47.47 0 0 0 0-.665l-1.55-1.549 1.033-1.033 1.55 1.55a.469.469 0 0 0 .664 0 .47.47 0 0 0 0-.665l-1.55-1.55 1.034-1.032 1.549 1.55a.469.469 0 0 0 .664 0 .47.47 0 0 0 0-.665l-1.549-1.55 1.033-1.032 1.549 1.549a.469.469 0 0 0 .664 0 .47.47 0 0 0 0-.665l-1.549-1.549 1.033-1.032 1.55 1.549a.469.469 0 0 0 .664 0 .47.47 0 0 0 0-.665l-1.55-1.549z" fill="#fff"/></g></svg>