<svg xmlns="http://www.w3.org/2000/svg" width="20" height="20" viewBox="0 0 20 20">
    <defs>
        <linearGradient id="a" x1="0%" x2="99.393%" y1="32.569%" y2="32.569%">
            <stop offset="0%" stop-color="#5269FF"/>
            <stop offset="100%" stop-color="#4890FF"/>
        </linearGradient>
        <linearGradient id="b" x1="0%" x2="99.393%" y1="32.569%" y2="32.569%">
            <stop offset="0%" stop-color="#5269FF"/>
            <stop offset="100%" stop-color="#4890FF"/>
        </linearGradient>
        <linearGradient id="c" x1="0%" x2="99.393%" y1="32.569%" y2="32.569%">
            <stop offset="0%" stop-color="#5269FF"/>
            <stop offset="100%" stop-color="#4890FF"/>
        </linearGradient>
    </defs>
    <g fill="none" fill-rule="evenodd">
        <path fill="#DF5427" fill-rule="nonzero" d="M19.357 1.524s.751 8.896-4.028 13.675c-4.778 4.779-13.476 3.83-13.476 3.83S.903 10.33 5.682 5.551s13.675-4.028 13.675-4.028z"/>
        <path fill="#DF5427" fill-rule="nonzero" d="M19.503 1.392s.763 9.035-4.09 13.888c-4.854 4.854-13.687 3.89-13.687 3.89S.76 10.335 5.615 5.481c4.853-4.853 13.888-4.09 13.888-4.09z"/>
        <path fill="#DF5427" fill-rule="nonzero" d="M19.357 1.524s.751 8.896-4.028 13.675c-4.778 4.779-13.476 3.83-13.476 3.83s-.95-8.698 3.83-13.477C10.46.773 19.356 1.524 19.356 1.524z"/>
        <path fill="url(#a)" d="M19.794.609l-.032-.371-.37-.031C18.995.173 9.637-.552 4.455 4.63-.731 9.817.203 18.977.245 19.365l.038.352.352.038c.107.012.883.091 2.06.091 3.084 0 8.92-.547 12.675-4.302 5.182-5.182 4.457-14.54 4.424-14.935z"/>
        <path fill="#000" fill-rule="nonzero" d="M18.937 1.063c.038.879.07 3.174-.41 5.795a13.613 13.613 0 0 1-3.076-2.31 13.62 13.62 0 0 1-2.311-3.073c2.622-.48 4.918-.45 5.797-.412zM1.092 18.908c-.062-.933-.156-3.55.439-6.443a13.591 13.591 0 0 1 3.48 2.524 13.592 13.592 0 0 1 2.523 3.479c-2.893.594-5.51.501-6.442.44z"/>
        <path fill="#000" fill-rule="nonzero" d="M14.746 14.92c-1.85 1.85-4.294 2.867-6.623 3.417a14.165 14.165 0 0 0-2.697-3.763 14.17 14.17 0 0 0-3.765-2.698c.55-2.328 1.567-4.772 3.418-6.623 2.051-2.051 4.87-3.115 7.46-3.66a14.202 14.202 0 0 0 2.497 3.37 14.199 14.199 0 0 0 3.372 2.501c-.545 2.588-1.61 5.405-3.662 7.457z"/>
        <path fill="#B8C2FF" fill-rule="nonzero" d="M12.635 8.116l.898-.898a.294.294 0 1 0-.416-.415l-.897.897-1.198-1.197a.294.294 0 1 0-.415.415l1.198 1.198-.646.645-1.198-1.198a.294.294 0 1 0-.415.416l1.198 1.198-.646.645-1.197-1.198a.294.294 0 1 0-.416.415l1.198 1.198-.645.646L7.84 9.685a.294.294 0 1 0-.416.415l1.198 1.198-.645.646-1.198-1.198a.294.294 0 1 0-.415.415l1.198 1.198-.898.897a.294.294 0 1 0 .416.416l.897-.898.968.968a.293.293 0 0 0 .415 0 .294.294 0 0 0 0-.415l-.968-.968.646-.646.968.969a.293.293 0 0 0 .415 0 .294.294 0 0 0 0-.416l-.968-.968.645-.645.969.968a.293.293 0 0 0 .415 0 .294.294 0 0 0 0-.415l-.968-.969.645-.645.968.968a.293.293 0 0 0 .416 0 .294.294 0 0 0 0-.415l-.968-.968.645-.646.968.968a.293.293 0 0 0 .416 0 .294.294 0 0 0 0-.415l-.969-.968z"/>
        <path fill="url(#b)" d="M19.325 1.058l-.03-.353-.353-.03c-.376-.032-9.286-.722-14.22 4.213-4.94 4.938-4.05 13.66-4.01 14.028l.037.335.334.037c.102.011.84.087 1.961.087 2.937 0 8.494-.521 12.069-4.096 4.934-4.935 4.244-13.844 4.212-14.221z"/>
        <path fill="#F2F5FF" fill-rule="nonzero" d="M19.077.924c.038.892.07 3.223-.416 5.885a13.82 13.82 0 0 1-3.125-2.346 13.833 13.833 0 0 1-2.347-3.121 27.65 27.65 0 0 1 5.888-.418zM.953 19.047c-.063-.948-.159-3.605.445-6.543 1.303.66 2.49 1.519 3.535 2.563A13.802 13.802 0 0 1 7.495 18.6c-2.938.604-5.595.51-6.542.447z"/>
        <path fill="#F2F5FF" fill-rule="nonzero" d="M14.82 14.998c-1.878 1.878-4.36 2.91-6.726 3.47a14.388 14.388 0 0 0-2.74-3.823 14.395 14.395 0 0 0-3.823-2.74C2.09 9.541 3.122 7.06 5.002 5.18c2.084-2.083 4.947-3.164 7.576-3.717a14.426 14.426 0 0 0 2.537 3.423 14.42 14.42 0 0 0 3.425 2.54c-.554 2.628-1.635 5.488-3.72 7.573z"/>
        <path fill="url(#c)" d="M12.635 8.116l.898-.898a.294.294 0 1 0-.416-.415l-.897.897-1.198-1.197a.294.294 0 1 0-.415.415l1.198 1.198-.646.645-1.198-1.198a.294.294 0 1 0-.415.416l1.198 1.198-.646.645-1.197-1.198a.294.294 0 1 0-.416.415l1.198 1.198-.645.646L7.84 9.685a.294.294 0 1 0-.416.415l1.198 1.198-.645.646-1.198-1.198a.294.294 0 1 0-.415.415l1.198 1.198-.898.897a.294.294 0 1 0 .416.416l.897-.898.968.968a.293.293 0 0 0 .415 0 .294.294 0 0 0 0-.415l-.968-.968.646-.646.968.969a.293.293 0 0 0 .415 0 .294.294 0 0 0 0-.416l-.968-.968.645-.645.969.968a.293.293 0 0 0 .415 0 .294.294 0 0 0 0-.415l-.968-.969.645-.645.968.968a.293.293 0 0 0 .416 0 .294.294 0 0 0 0-.415l-.968-.968.645-.646.968.968a.293.293 0 0 0 .416 0 .294.294 0 0 0 0-.415l-.969-.968z"/>
    </g>
</svg>
