<svg xmlns="http://www.w3.org/2000/svg" width="32" height="32" viewBox="0 0 32 32">
    <g fill="none" fill-rule="nonzero">
        <path fill="#DF5427" d="M30.972 2.438s1.2 14.234-6.445 21.88c-7.646 7.646-21.562 6.127-21.562 6.127S1.445 16.529 9.09 8.883c7.646-7.646 21.88-6.445 21.88-6.445z"/>
        <path fill="#DF5427" d="M31.206 2.226s1.22 14.457-6.546 22.222c-7.765 7.766-21.899 6.223-21.899 6.223S1.218 16.537 8.983 8.77c7.766-7.764 22.223-6.545 22.223-6.545z"/>
        <path fill="#DF5427" d="M30.972 2.438s1.2 14.235-6.445 21.88c-7.646 7.647-21.562 6.127-21.562 6.127S1.445 16.529 9.09 8.883c7.646-7.646 21.88-6.445 21.88-6.445z"/>
        <path fill="#B8C2FF" d="M31.67.974L31.62.38l-.594-.05C30.394.276 15.421-.883 7.13 7.41-1.17 15.708.325 30.363.392 30.983l.062.563.562.062c.172.018 1.413.146 3.296.146 4.934 0 14.272-.876 20.28-6.883C32.882 16.579 31.722 1.607 31.67.974z"/>
        <path fill="#000" d="M30.3 1.701c.06 1.406.112 5.078-.656 9.272a21.78 21.78 0 0 1-4.922-3.695 21.793 21.793 0 0 1-3.698-4.918A43.554 43.554 0 0 1 30.3 1.7zM1.747 30.252c-.1-1.492-.25-5.678.702-10.307a21.746 21.746 0 0 1 5.568 4.038 21.747 21.747 0 0 1 4.037 5.565c-4.629.951-8.815.803-10.307.704z"/>
        <path fill="#000" d="M23.594 23.873c-2.959 2.96-6.87 4.586-10.597 5.466a22.664 22.664 0 0 0-4.315-6.021A22.67 22.67 0 0 0 2.658 19c.88-3.725 2.507-7.634 5.468-10.596C11.41 5.123 15.92 3.42 20.062 2.548a22.723 22.723 0 0 0 3.995 5.394 22.718 22.718 0 0 0 5.396 4.001c-.871 4.14-2.575 8.647-5.859 11.93z"/>
        <path fill="#B8C2FF" d="M20.217 12.985l1.435-1.436a.47.47 0 1 0-.664-.664l-1.436 1.436-1.917-1.917a.47.47 0 1 0-.664.665l1.917 1.916-1.033 1.033-1.917-1.917a.47.47 0 1 0-.664.665l1.916 1.916-1.032 1.033-1.917-1.917a.47.47 0 1 0-.664.665l1.916 1.917-1.033 1.032-1.916-1.916a.47.47 0 1 0-.665.664l1.917 1.917-1.033 1.033-1.917-1.917a.47.47 0 1 0-.664.664l1.917 1.917-1.436 1.436a.47.47 0 1 0 .664.664l1.436-1.435 1.55 1.549a.469.469 0 0 0 .664 0 .47.47 0 0 0 0-.665l-1.55-1.549 1.033-1.033 1.55 1.55a.469.469 0 0 0 .664 0 .47.47 0 0 0 0-.665l-1.55-1.55 1.034-1.032 1.549 1.55a.469.469 0 0 0 .664 0 .47.47 0 0 0 0-.665l-1.549-1.55 1.033-1.032 1.549 1.549a.469.469 0 0 0 .664 0 .47.47 0 0 0 0-.665l-1.549-1.549 1.033-1.032 1.55 1.549a.469.469 0 0 0 .664 0 .47.47 0 0 0 0-.665l-1.55-1.549z"/>
        <path fill="#B8C2FF" d="M30.92 1.693l-.048-.565-.565-.048C29.705 1.03 15.45-.075 7.554 7.82c-7.902 7.902-6.48 21.856-6.415 22.446l.059.536.535.059c.163.017 1.345.139 3.138.139 4.698 0 13.59-.834 19.31-6.554 7.895-7.895 6.79-22.15 6.74-22.753z"/>
        <path fill="#F2F5FF" d="M30.523 1.478a44.15 44.15 0 0 1-.666 9.417 22.111 22.111 0 0 1-4.999-3.754 22.132 22.132 0 0 1-3.755-4.995 44.24 44.24 0 0 1 9.42-.668zM1.524 30.475c-.1-1.516-.253-5.767.713-10.469a22.088 22.088 0 0 1 5.656 4.101 22.084 22.084 0 0 1 4.1 5.653c-4.702.966-8.953.815-10.469.715z"/>
        <path fill="#F2F5FF" d="M23.713 23.996c-3.006 3.006-6.978 4.657-10.763 5.551a23.021 23.021 0 0 0-4.383-6.115c-1.8-1.8-3.858-3.27-6.117-4.384.894-3.783 2.546-7.753 5.554-10.761 3.333-3.333 7.914-5.063 12.121-5.949a23.082 23.082 0 0 0 4.058 5.479 23.072 23.072 0 0 0 5.48 4.063c-.885 4.204-2.615 8.781-5.95 12.116z"/>
        <path fill="#B8C2FF" d="M20.217 12.985l1.435-1.436a.47.47 0 1 0-.664-.664l-1.436 1.436-1.917-1.917a.47.47 0 1 0-.664.665l1.917 1.916-1.033 1.033-1.917-1.917a.47.47 0 1 0-.664.665l1.916 1.916-1.032 1.033-1.917-1.917a.47.47 0 1 0-.664.665l1.916 1.917-1.033 1.032-1.916-1.916a.47.47 0 1 0-.665.664l1.917 1.917-1.033 1.033-1.917-1.917a.47.47 0 1 0-.664.664l1.917 1.917-1.436 1.436a.47.47 0 1 0 .664.664l1.436-1.435 1.55 1.549a.469.469 0 0 0 .664 0 .47.47 0 0 0 0-.665l-1.55-1.549 1.033-1.033 1.55 1.55a.469.469 0 0 0 .664 0 .47.47 0 0 0 0-.665l-1.55-1.55 1.034-1.032 1.549 1.55a.469.469 0 0 0 .664 0 .47.47 0 0 0 0-.665l-1.549-1.55 1.033-1.032 1.549 1.549a.469.469 0 0 0 .664 0 .47.47 0 0 0 0-.665l-1.549-1.549 1.033-1.032 1.55 1.549a.469.469 0 0 0 .664 0 .47.47 0 0 0 0-.665l-1.55-1.549z"/>
    </g>
</svg>
