<svg xmlns="http://www.w3.org/2000/svg" width="24" height="24" viewBox="0 0 24 24">
    <path fill="#F7F8FF" fill-rule="nonzero" d="M22.37 6.11a12.08 12.08 0 0 0-4.364-4.465C16.17.548 14.164 0 11.99 0 9.814 0 7.807.549 5.97 1.645A12.078 12.078 0 0 0 1.608 6.11C.536 7.99 0 10.042 0 12.268c0 2.673.762 5.077 2.287 7.212 1.524 2.135 3.494 3.613 5.908 4.432.281.054.49.016.624-.111a.632.632 0 0 0 .203-.48l-.008-.862a145.99 145.99 0 0 1-.007-1.421l-.36.063a4.478 4.478 0 0 1-.866.056 6.456 6.456 0 0 1-1.085-.112 2.398 2.398 0 0 1-1.046-.478 2.026 2.026 0 0 1-.686-.983l-.156-.367a4.01 4.01 0 0 0-.492-.815c-.224-.298-.45-.5-.679-.607l-.11-.08a1.157 1.157 0 0 1-.202-.192.88.88 0 0 1-.14-.223c-.032-.075-.006-.136.077-.184.084-.048.234-.072.453-.072l.312.048c.208.043.466.17.773.383s.56.49.757.83c.24.437.528.77.866 1 .338.228.68.343 1.023.343.343 0 .64-.027.89-.08.249-.053.483-.133.702-.24.094-.714.349-1.262.765-1.645a10.468 10.468 0 0 1-1.6-.288 6.29 6.29 0 0 1-1.468-.623 4.227 4.227 0 0 1-1.256-1.07c-.333-.426-.606-.985-.82-1.678-.213-.692-.32-1.49-.32-2.396 0-1.288.412-2.385 1.234-3.29-.385-.97-.35-2.055.109-3.259.302-.096.75-.024 1.342.216.594.24 1.028.445 1.304.615.276.17.497.314.663.431a10.848 10.848 0 0 1 2.997-.415c1.03 0 2.03.138 2.998.415l.593-.383a8.32 8.32 0 0 1 1.436-.703c.551-.213.973-.272 1.265-.176.468 1.204.51 2.29.124 3.259.822.905 1.234 2.002 1.234 3.29 0 .906-.107 1.707-.32 2.404-.214.698-.49 1.257-.827 1.678-.339.42-.76.775-1.265 1.062a6.303 6.303 0 0 1-1.467.623c-.474.128-1.007.224-1.6.288.54.479.811 1.235.811 2.268v3.37c0 .192.065.352.195.48.13.127.336.164.617.11 2.415-.819 4.384-2.296 5.908-4.432 1.525-2.135 2.287-4.539 2.287-7.212 0-2.225-.537-4.277-1.608-6.157z"/>
</svg>
