<svg xmlns="http://www.w3.org/2000/svg" width="20" height="20" viewBox="0 0 20 20">
    <defs>
        <linearGradient id="a" x1="0%" x2="99.393%" y1="32.569%" y2="32.569%">
            <stop offset="0%" stop-color="#5269FF"/>
            <stop offset="100%" stop-color="#4890FF"/>
        </linearGradient>
    </defs>
    <g fill="none" fill-rule="evenodd">
        <path fill-rule="nonzero" d="M0 0h20v20H0z"/>
        <path fill="url(#a)" d="M6.53 17.145a2.5 2.5 0 0 1-3.332-3.332l.447-.938-.98-.347a2.5 2.5 0 0 1 0-4.713l.98-.347-.447-.937a2.5 2.5 0 0 1 3.333-3.333l.937.447.347-.98a2.5 2.5 0 0 1 4.713 0l.347.98.938-.447a2.5 2.5 0 0 1 3.332 3.333l-.447.937.98.347a2.5 2.5 0 0 1 0 4.713l-.98.347.447.938a2.5 2.5 0 0 1-3.332 3.332l-.938-.447-.347.98a2.5 2.5 0 0 1-4.713 0l-.347-.98-.937.447zm3.642-4.473a2.5 2.5 0 1 0 0-5 2.5 2.5 0 0 0 0 5z"/>
    </g>
</svg>
