<svg xmlns="http://www.w3.org/2000/svg" width="130" height="148" viewBox="0 0 130 148">
    <defs>
        <linearGradient id="a" x1="0%" x2="0%" y1="100%" y2="0%">
            <stop offset="0%" stop-color="#977AFF"/>
            <stop offset="100%" stop-color="#7ADDB7"/>
        </linearGradient>
        <linearGradient id="b" x1="0%" x2="0%" y1="100%" y2="0%">
            <stop offset="0%" stop-color="#977AFF"/>
            <stop offset="100%" stop-color="#DD7A7A"/>
        </linearGradient>
        <linearGradient id="c" x1="100%" x2="0%" y1="28.842%" y2="81.652%">
            <stop offset="0%" stop-color="#7B81AA"/>
            <stop offset="100%" stop-color="#565A70"/>
        </linearGradient>
        <linearGradient id="d" x1="79.547%" x2="50%" y1=".059%" y2="99.941%">
            <stop offset="0%" stop-color="#5BE9BB"/>
            <stop offset="100%" stop-color="#4DBC99"/>
        </linearGradient>
        <linearGradient id="e" x1="0%" y1="99.941%" y2=".059%">
            <stop offset="0%" stop-color="#4FC49E"/>
            <stop offset="100%" stop-color="#58E2B5"/>
        </linearGradient>
        <linearGradient id="f" x1="21.86%" x2="79.74%" y1="63.121%" y2="36.817%">
            <stop offset="0%" stop-color="#A6A3FF"/>
            <stop offset="100%" stop-color="#80ADFF"/>
        </linearGradient>
        <linearGradient id="g" x1="60.939%" x2="32.417%" y1="-19.636%" y2="100%">
            <stop offset="0%" stop-color="#74ABF0"/>
            <stop offset="100%" stop-color="#756BF5"/>
        </linearGradient>
    </defs>
    <g fill="none" fill-rule="evenodd">
        <path stroke="url(#a)" stroke-dasharray="4.740499782562256,7.581000018119812" stroke-linecap="round" stroke-width="1.9" d="M65.024 72.269V24.667M101.097 61.833V14.231"/>
        <path stroke="url(#b)" stroke-dasharray="4.740499782562256,7.581000018119812" stroke-linecap="round" stroke-width="1.9" d="M28.002 72.269V24.667"/>
        <g fill-rule="nonzero" transform="translate(13.29 6.641)">
            <ellipse cx="14.375" cy="13.648" fill="url(#c)" rx="13.8" ry="13.648"/>
            <path fill="#FFF" d="M16 13.648l4.067-4.022c.45-.444.45-1.163 0-1.608a1.158 1.158 0 0 0-1.626 0l-4.066 4.022-4.067-4.022a1.158 1.158 0 0 0-1.626 0 1.127 1.127 0 0 0 0 1.608l4.067 4.022-4.067 4.022a1.127 1.127 0 0 0 0 1.608c.225.222.519.333.813.333.295 0 .59-.111.813-.333l4.067-4.022 4.066 4.022c.224.222.519.333.813.333.294 0 .589-.111.813-.333.45-.445.45-1.164 0-1.608l-4.066-4.022z"/>
        </g>
        <g fill-rule="nonzero" transform="translate(86.493 .108)">
            <ellipse cx="13.656" cy="13.648" fill="url(#d)" rx="13.656" ry="13.648"/>
            <path fill="#FFF" d="M12.03 19.334c-.238 0-.478-.074-.683-.227l-5.202-3.9a1.136 1.136 0 0 1-.227-1.592 1.139 1.139 0 0 1 1.593-.227l4.35 3.26 7.11-8.29a1.137 1.137 0 1 1 1.727 1.48l-7.803 9.1a1.137 1.137 0 0 1-.865.396z"/>
        </g>
        <g fill-rule="nonzero" transform="translate(52.319 23.826)">
            <ellipse cx="13.656" cy="13.648" fill="url(#e)" rx="13.656" ry="13.648"/>
            <path fill="#FFF" d="M12.03 19.334c-.238 0-.478-.074-.683-.227l-5.202-3.9a1.136 1.136 0 0 1-.227-1.592 1.139 1.139 0 0 1 1.593-.227l4.35 3.26 7.11-8.29a1.137 1.137 0 1 1 1.727 1.48l-7.803 9.1a1.137 1.137 0 0 1-.865.396z"/>
        </g>
        <path fill="url(#f)" d="M93.422 31.442c-3.153-3.224-5.168-8.14-5.168-13.649 0-9.712 2.057-17.585 13.988-17.585 11.93 0 13.986 7.873 13.986 17.585 0 5.383-1.924 10.202-4.954 13.427 15.888 3.04 17.988 7.924 18.245 24.515.017 1.075.026 1.261.03 1.165v1.307s-3.923 8.063-26.641 8.063c-22.718 0-26.64-8.063-26.64-8.063 0-.938-.001-1.476-.002-1.767.004.155.015.085.04-1.252.29-15.76 2.417-20.721 17.116-23.746zm-75.082-.06c-3.12-3.225-5.11-8.115-5.11-13.589C13.23 8.081 15.288.208 27.219.208c11.93 0 13.986 7.873 13.986 17.585 0 5.415-1.947 10.259-5.008 13.485 15.616 3.044 17.692 7.97 17.948 24.457.016 1.075.025 1.261.03 1.165l-.001 1.307s-3.923 8.063-26.64 8.063c-22.719 0-26.64-8.063-26.64-8.063 0-.938-.002-1.476-.003-1.767.004.155.016.085.04-1.252.291-15.864 2.445-20.787 17.41-23.805z" transform="translate(.06 62.338)"/>
        <path fill="#000" fill-rule="nonzero" d="M20.378 119.282c-.002-.556-.004-.157 0 0zM73.659 119.392c.007-.153.002-1.056 0 0z"/>
        <g>
            <path fill="url(#g)" d="M20.698 37.731c-3.762-3.87-6.165-9.77-6.165-16.38C14.533 9.698 16.986.25 31.219.25s16.686 9.448 16.686 21.103c0 6.46-2.295 12.242-5.91 16.112 18.953 3.648 21.459 9.508 21.766 29.418.02 1.29.03 1.513.036 1.398l-.001 1.568s-4.68 9.677-31.782 9.677S.233 69.848.233 69.848c0-1.126-.002-1.77-.003-2.12.005.186.02.102.048-1.502.345-18.913 2.884-24.866 20.42-28.495z" transform="translate(33.284 68.03)"/>
            <path fill="#000" fill-rule="nonzero" d="M33.516 136.363c-.003-.667-.006-.188 0 0zM97.078 136.495c.01-.183.003-1.267 0 0z"/>
        </g>
    </g>
</svg>
