<svg xmlns="http://www.w3.org/2000/svg" width="25" height="25" viewBox="0 0 25 25">
    <g fill="#D7DEFF" fill-rule="evenodd">
        <circle cx="12.5" cy="12.5" r="12.5"/>
        <g fill-rule="nonzero" stroke="#8868FF" stroke-width=".9">
            <path d="M19.232 10.925c.448.076.774.461.768.915v1.32c0 .454-.326.84-.774.915l-1.053.175c-.106.351-.25.693-.423 1.022l.62.87c.264.37.22.875-.1 1.195l-.934.933a.92.92 0 0 1-1.193.1l-.868-.62a5.945 5.945 0 0 1-1.022.423l-.178 1.053a.926.926 0 0 1-.915.774h-1.323a.926.926 0 0 1-.915-.774l-.175-1.053a5.928 5.928 0 0 1-.99-.407l-.88.627a.92.92 0 0 1-1.19-.1l-.935-.935a.924.924 0 0 1-.1-1.193l.617-.859a5.798 5.798 0 0 1-.43-1.018l-1.065-.182A.926.926 0 0 1 5 13.19v-1.32c0-.454.326-.839.774-.914l1.04-.176c.107-.354.245-.695.417-1.024l-.627-.88a.928.928 0 0 1 .1-1.195l.938-.934a.914.914 0 0 1 .654-.272.92.92 0 0 1 .54.172l.861.62c.326-.175.667-.319 1.018-.429l.182-1.065A.926.926 0 0 1 11.812 5h1.32c.454 0 .84.326.914.774l.176 1.04c.366.11.72.257 1.059.436l.871-.62a.92.92 0 0 1 1.19.1l.935.933c.322.32.363.825.1 1.194l-.62.868c.172.326.313.668.422 1.022l1.053.178z"/>
            <path d="M12.651 8.978a3.427 3.427 0 0 1 3.425 3.425 3.427 3.427 0 0 1-3.425 3.425 3.427 3.427 0 0 1-3.425-3.425 3.427 3.427 0 0 1 3.425-3.425z"/>
        </g>
    </g>
</svg>
