<svg xmlns="http://www.w3.org/2000/svg" width="27" height="28" viewBox="0 0 27 28">
    <g fill="#FFF" fill-rule="nonzero">
        <path d="M9.495 12.867c2.68 0 4.86-2.213 4.86-4.934 0-2.72-2.18-4.933-4.86-4.933s-4.86 2.213-4.86 4.933c0 2.72 2.18 4.934 4.86 4.934zM16.017 15.257l-.008-.002c-.633-.157-2.57-.432-2.57-.432a.43.43 0 0 0-.532.268L9.99 23.215a.524.524 0 0 1-.99 0L6.085 15.09a.431.431 0 0 0-.404-.288c-.042 0-2.034.284-2.698.451-1.812.458-2.955 2.267-2.955 4.152v6.76C.027 27.179.836 28 1.833 28h15.323c.998 0 1.807-.821 1.807-1.834v-6.782c0-1.877-1.188-3.544-2.946-4.127zM26.566 3.442h-3.008V.434C23.558.297 23.372 0 23 0c-.372 0-.558.297-.558.434v3.008h-3.008c-.137 0-.434.186-.434.558 0 .372.297.558.434.558h3.008v3.008c0 .137.186.434.558.434.372 0 .558-.297.558-.434V4.558h3.008c.137 0 .434-.186.434-.558 0-.372-.297-.558-.434-.558z"/>
        <path d="M10.595 14.668a.615.615 0 0 0-.458-.194H8.853a.615.615 0 0 0-.46.194.612.612 0 0 0-.078.712l.687 1.05-.321 2.752.632 1.709a.192.192 0 0 0 .363 0l.633-1.709-.321-2.752.686-1.05a.612.612 0 0 0-.079-.712z"/>
    </g>
</svg>
