<svg xmlns="http://www.w3.org/2000/svg" width="88" height="91" viewBox="0 0 88 91">
    <defs>
        <filter id="a" width="255.9%" height="221.1%" x="-78%" y="-60.5%" filterUnits="objectBoundingBox">
            <feOffset dy="9" in="SourceAlpha" result="shadowOffsetOuter1"/>
            <feGaussianBlur in="shadowOffsetOuter1" result="shadowBlurOuter1" stdDeviation="7.5"/>
            <feColorMatrix in="shadowBlurOuter1" result="shadowMatrixOuter1" values="0 0 0 0 0 0 0 0 0 0 0 0 0 0 0 0 0 0 0.17 0"/>
            <feMerge>
                <feMergeNode in="shadowMatrixOuter1"/>
                <feMergeNode in="SourceGraphic"/>
            </feMerge>
        </filter>
        <linearGradient id="b" x1="0%" x2="99.393%" y1="32.569%" y2="32.569%">
            <stop offset="0%" stop-color="#5269FF"/>
            <stop offset="100%" stop-color="#4890FF"/>
        </linearGradient>
        <linearGradient id="c" x1="0%" x2="99.393%" y1="32.569%" y2="32.569%">
            <stop offset="0%" stop-color="#5269FF"/>
            <stop offset="100%" stop-color="#4890FF"/>
        </linearGradient>
        <linearGradient id="d" x1="0%" x2="99.393%" y1="32.569%" y2="32.569%">
            <stop offset="0%" stop-color="#5269FF"/>
            <stop offset="100%" stop-color="#4890FF"/>
        </linearGradient>
    </defs>
    <g fill="none" fill-rule="evenodd" filter="url(#a)" transform="translate(15 6)">
        <rect width="49" height="63" y="7" fill="#FFF" fill-rule="nonzero" rx="5"/>
        <rect width="9" height="13" x="20" fill="#B8C2FF" fill-rule="nonzero" rx="2"/>
        <path fill="url(#b)" d="M20.405 30.711c-1.361-1.415-2.23-3.573-2.23-5.991 0-4.264.887-7.72 6.037-7.72s6.038 3.456 6.038 7.72c0 2.363-.83 4.478-2.139 5.894 6.859 1.334 7.765 3.478 7.877 10.761.007.472.012.82.012 1.085 0 0-1.693 3.54-11.5 3.54S13 42.46 13 42.46c0-.412.006-.738.017-1.325.124-6.918 1.043-9.096 7.388-10.424z"/>
        <g stroke-linecap="round" stroke-width="3">
            <path stroke="url(#c)" d="M6 .5h22.212" transform="translate(8 52)"/>
            <path stroke="url(#d)" d="M0 7.5h33.59" transform="translate(8 52)"/>
        </g>
        <g fill-rule="nonzero">
            <g transform="translate(39.075 56.075)">
                <ellipse cx="9.418" cy="9.412" fill="#FFCA55" rx="9.418" ry="9.412"/>
                <path fill="#FFF" d="M8.296 13.334a.783.783 0 0 1-.47-.157l-3.588-2.69a.783.783 0 1 1 .942-1.254l3 2.248 4.903-5.716a.784.784 0 1 1 1.191 1.02L8.893 13.06a.784.784 0 0 1-.597.274z"/>
            </g>
        </g>
    </g>
</svg>
