<svg xmlns="http://www.w3.org/2000/svg" xmlns:xlink="http://www.w3.org/1999/xlink" width="1180" height="320" viewBox="0 0 1180 320">
    <defs>
        <linearGradient id="c" x1="0%" x2="99.393%" y1="32.569%" y2="32.569%">
            <stop offset="0%" stop-color="#5269FF"/>
            <stop offset="100%" stop-color="#4890FF"/>
        </linearGradient>
        <rect id="a" width="1140" height="280" x=".596" y=".25" rx="10"/>
        <filter id="b" width="105.9%" height="123.9%" x="-2.9%" y="-9.5%" filterUnits="objectBoundingBox">
            <feOffset dy="7" in="SourceAlpha" result="shadowOffsetOuter1"/>
            <feGaussianBlur in="shadowOffsetOuter1" result="shadowBlurOuter1" stdDeviation="10"/>
            <feColorMatrix in="shadowBlurOuter1" values="0 0 0 0 0 0 0 0 0 0 0 0 0 0 0 0 0 0 0.2 0"/>
        </filter>
        <linearGradient id="e" x1="0%" x2="99.393%" y1="32.569%" y2="32.569%">
            <stop offset="0%" stop-color="#5269FF"/>
            <stop offset="100%" stop-color="#4890FF"/>
        </linearGradient>
        <linearGradient id="f" x1="0%" x2="99.393%" y1="32.569%" y2="32.569%">
            <stop offset="0%" stop-color="#5269FF"/>
            <stop offset="100%" stop-color="#4890FF"/>
        </linearGradient>
        <linearGradient id="g" x1="0%" x2="99.393%" y1="32.569%" y2="32.569%">
            <stop offset="0%" stop-color="#5269FF"/>
            <stop offset="100%" stop-color="#4890FF"/>
        </linearGradient>
        <linearGradient id="h" x1="0%" x2="99.393%" y1="32.569%" y2="32.569%">
            <stop offset="0%" stop-color="#5269FF"/>
            <stop offset="100%" stop-color="#4890FF"/>
        </linearGradient>
        <linearGradient id="i" x1="0%" x2="99.877%" y1="50%" y2="50%">
            <stop offset="0%" stop-color="#3C5185"/>
            <stop offset="21.41%" stop-color="#455D94"/>
            <stop offset="71.72%" stop-color="#5674B3"/>
            <stop offset="100%" stop-color="#5D7DBE"/>
        </linearGradient>
        <linearGradient id="j" x1="0%" x2="99.393%" y1="32.569%" y2="32.569%">
            <stop offset="0%" stop-color="#5269FF"/>
            <stop offset="100%" stop-color="#4890FF"/>
        </linearGradient>
        <linearGradient id="k" x1="0%" x2="99.393%" y1="32.569%" y2="32.569%">
            <stop offset="0%" stop-color="#5269FF"/>
            <stop offset="100%" stop-color="#4890FF"/>
        </linearGradient>
        <linearGradient id="l" x1="0%" x2="99.393%" y1="32.569%" y2="32.569%">
            <stop offset="0%" stop-color="#5269FF"/>
            <stop offset="100%" stop-color="#4890FF"/>
        </linearGradient>
        <linearGradient id="m" x1="0%" x2="99.393%" y1="32.569%" y2="32.569%">
            <stop offset="0%" stop-color="#5269FF"/>
            <stop offset="100%" stop-color="#4890FF"/>
        </linearGradient>
        <linearGradient id="n" x1="0%" x2="99.393%" y1="32.569%" y2="32.569%">
            <stop offset="0%" stop-color="#5269FF"/>
            <stop offset="100%" stop-color="#4890FF"/>
        </linearGradient>
        <linearGradient id="o" x1="0%" x2="99.393%" y1="32.569%" y2="32.569%">
            <stop offset="0%" stop-color="#5269FF"/>
            <stop offset="100%" stop-color="#4890FF"/>
        </linearGradient>
        <linearGradient id="p" x1="0%" x2="99.393%" y1="32.569%" y2="32.569%">
            <stop offset="0%" stop-color="#5269FF"/>
            <stop offset="100%" stop-color="#4890FF"/>
        </linearGradient>
        <linearGradient id="q" x1="0%" x2="99.393%" y1="32.569%" y2="32.569%">
            <stop offset="0%" stop-color="#5269FF"/>
            <stop offset="100%" stop-color="#4890FF"/>
        </linearGradient>
        <linearGradient id="r" x1="0%" x2="99.393%" y1="32.569%" y2="32.569%">
            <stop offset="0%" stop-color="#5269FF"/>
            <stop offset="100%" stop-color="#4890FF"/>
        </linearGradient>
    </defs>
    <g fill="none" fill-rule="evenodd" transform="translate(19.404 12.75)">
        <mask id="d" fill="#fff">
            <use xlink:href="#a"/>
        </mask>
        <use fill="#000" filter="url(#b)" xlink:href="#a"/>
        <use fill="url(#c)" xlink:href="#a"/>
        <g mask="url(#d)">
            <g fill-rule="nonzero" opacity=".403">
                <path fill="#FFF" d="M834.578 295.548c-.346 0-.691-.346-1.037-.692-.346-.692 0-1.384.346-1.384L971.54 214.25c.692-.346 1.383 0 1.383.346.346.691 0 1.383-.345 1.383l-138 79.57c.691 0 .345 0 0 0zM1123.03 89.361l-109.293 63.31c-.692.345-.692 1.037-.346 1.383.346.346.691.692 1.037.692h.692l108.948-62.963c-.692-.692-1.038-1.384-1.038-2.422zM1148.624 188.65l-116.557 67.806c-.691.346-.691 1.037-.345 1.383.345.346.691.692 1.037.692h.692l116.21-67.114c-.691-1.038-.691-1.73-1.037-2.768zM836.653 371.657c-.345 0-.691-.346-1.037-.692-.346-.691 0-1.383.346-1.383l180.887-104.132c.692-.346 1.384 0 1.384.346.346.692 0 1.384-.346 1.384L837.345 371.311c0 .346-.346.346-.692.346zM621.654 124.668c-.346 0-.692-.346-1.038-.691-.345-.692 0-1.384.346-1.384L760.217 45.77c.692-.346 1.384 0 1.384.346.346.692 0 1.384-.346 1.384L622 124.322c0 .346-.346.346-.346.346zM905.48 139.524c-.345 0-.691-.346-1.037-.692-.346-.692 0-1.384.346-1.384l115.865-66.768c.692-.346 1.383 0 1.383.346.346.692 0 1.384-.346 1.384l-116.21 67.114c.346 0 .346 0 0 0zM864.618 62.752h.692l179.158-102.747-1.73-1.73L864.273 60.677c-.692.346-.692 1.038-.346 1.383-.346.346.346.692.692.692zM575.68 292.184c-.346 0-.692-.346-1.038-.692-.346-.692 0-1.383.346-1.383l213.399-122.121c.692-.346 1.383 0 1.383.346.346.692 0 1.384-.346 1.384l-213.398 122.12c0 .346-.346.346-.346.346zM559.961 352.976c-.346 0-.692-.346-1.037-.692-.346-.692 0-1.384.345-1.384l169.129-97.212c.691-.346 1.383 0 1.383.346.346.692 0 1.384-.346 1.384L560.307 352.63c0 .346-.346.346-.346.346zM704.825 185.758c-.346 0-.692-.346-1.037-.692-.346-.692 0-1.384.345-1.384l44.271-25.946c.692-.346 1.384 0 1.384.346.346.692 0 1.384-.346 1.384l-43.925 25.946c-.346.346-.346.346-.692.346z" opacity=".4"/>
                <path fill="#92B8FF" d="M967.736 217.71c-2.42-1.385-2.42-3.806 0-5.19 2.422-1.384 6.226-1.384 8.647 0 2.421 1.384 2.421 3.805 0 5.19-2.075 1.383-6.225 1.383-8.647 0zM756.067 50.269c-2.421-1.384-2.421-3.806 0-5.19 2.42-1.383 6.225-1.383 8.646 0 2.422 1.384 2.422 3.806 0 5.19-2.42 1.383-6.225 1.383-8.646 0zM1016.85 74.14c-2.422-1.384-2.422-3.806 0-5.19 2.42-1.384 6.225-1.384 8.646 0 2.421 1.384 2.421 3.806 0 5.19-2.421 1.383-6.226 1.383-8.647 0z"/>
                <path fill="#63A0FF" d="M890.89 111.628c-.345 0-.691-.346-1.037-.692-.346-.692 0-1.383.346-1.383l51.188-29.406c.692-.346 1.383 0 1.383.346.346.692 0 1.383-.345 1.383l-51.534 29.752c.345 0 .345 0 0 0zM952.91 75.538c-.346 0-.692-.346-1.038-.692-.345-.692 0-1.384.346-1.384l24.557-14.184c.691-.346 1.383 0 1.383.346.346.692 0 1.384-.346 1.384l-24.902 14.53c.692 0 .346 0 0 0zM723.649 297.64c-.346 0-.692-.345-1.038-.691-.346-.692 0-1.384.346-1.384l51.188-29.406c.692-.346 1.384 0 1.384.346.345.692 0 1.384-.346 1.384l-51.534 29.751c.346 0 .346 0 0 0zM781.062 264.43c-.345 0-.691-.347-1.037-.693-.346-.692 0-1.384.346-1.384l24.556-14.184c.692-.346 1.384 0 1.384.346.345.692 0 1.384-.346 1.384l-24.903 14.53c.692 0 .346 0 0 0zM1092.158 158.8c-.346 0-.692-.346-1.038-.692-.346-.692 0-1.384.346-1.384l51.188-29.406c.692-.346 1.383 0 1.383.346.346.692 0 1.384-.345 1.384l-51.534 29.752c.345 0 .345 0 0 0zM906.518-2.316c-.346 0-.691-.346-1.037-.692-.346-.692 0-1.384.346-1.384l71.94-40.822c.691-.346 1.383 0 1.383.346.346.692 0 1.384-.346 1.384L906.518-2.316c.346 0 .346 0 0 0zM943.526-72.198L827.316-3.354c-.693.346-.693 1.038-.347 1.384.346.346.692.692 1.038.692h.692l118.977-70.228c-1.73-.346-3.113-.346-4.15-.692zM646.466 74.996c-.346-.692 0-1.384.346-1.384l57.72-31.646c.693-.346 1.384 0 1.384.346.346.692 0 1.384-.346 1.384l-58.066 31.992c-.346 0-.692-.346-1.038-.692zM707.226 133.334c-.346 0-.692-.346-1.038-.692-.345-.692 0-1.384.346-1.384L761.873 97.7c.691-.346 1.383 0 1.383.346.346.691 0 1.383-.346 1.383l-55.684 33.904c.346 0 0 0 0 0zM1071.842 291.05l-118.286 67.115c-.692.346-.692 1.038-.346 1.384.346.346.692.692 1.038.692h.691l117.249-66.423c-.346-1.038-.346-1.73-.346-2.767z"/>
            </g>
            <g fill-rule="nonzero" opacity=".403">
                <path fill="#FFF" d="M269.776 388.313c-.345 0-.691-.346-1.037-.692-.346-.692 0-1.384.346-1.384l213.399-123.159c.691-.346 1.383 0 1.383.346.346.692 0 1.384-.346 1.384L269.776 388.313zM265.28 199.077c-.346 0-.692-.346-1.037-.692-.346-.691 0-1.383.345-1.383l137.655-79.223c.692-.346 1.383 0 1.383.346.346.692 0 1.384-.346 1.384l-138 79.568c.692 0 .346 0 0 0z" opacity=".4"/>
                <path fill="#92B8FF" d="M398.438 121.238c-2.42-1.383-2.42-3.805 0-5.189 2.421-1.384 6.226-1.384 8.647 0 2.421 1.384 2.421 3.806 0 5.19-2.075 1.383-6.226 1.383-8.647 0z"/>
                <path fill="#FFF" d="M83.878 385.685c-.346 0-.692-.346-1.038-.692-.346-.692 0-1.384.346-1.384l137.654-79.223c.692-.346 1.384 0 1.384.346.346.692 0 1.384-.346 1.384l-138 79.569c.691 0 .346 0 0 0z" opacity=".4"/>
                <path fill="#92B8FF" d="M217.036 307.846c-2.421-1.384-2.421-3.806 0-5.19 2.42-1.384 6.225-1.384 8.646 0 2.422 1.384 2.422 3.806 0 5.19-2.075 1.383-6.225 1.383-8.646 0z"/>
                <path fill="#FFF" d="M553.732-7.11L444.438 56.2c-.691.345-.691 1.037-.345 1.383.345.346.691.692 1.037.692h.692L554.77-4.688c-.692-.692-1.038-1.384-1.038-2.422zM579.326 92.178l-116.557 67.807c-.691.346-.691 1.038-.346 1.384.346.346.692.692 1.038.692h.692l116.21-67.115c-.691-1.038-.691-1.73-1.037-2.768zM267.355 275.187c-.345 0-.691-.346-1.037-.692-.346-.692 0-1.384.346-1.384L447.55 168.98c.692-.346 1.384 0 1.384.346.346.691 0 1.383-.346 1.383L268.047 274.841c0 .346-.346.346-.692.346zM52.356 28.198c-.346 0-.692-.346-1.038-.692-.346-.692 0-1.384.346-1.384L190.92-50.699c.692-.346 1.384 0 1.384.346.345.691 0 1.383-.346 1.383L52.702 27.852c0 .346-.346.346-.346.346zM336.183 43.053c-.346 0-.692-.346-1.038-.692-.346-.691 0-1.383.346-1.383l115.865-66.769c.692-.346 1.383 0 1.383.346.346.692 0 1.384-.346 1.384l-116.21 67.114c.345 0 .345 0 0 0zM6.382 195.714c-.346 0-.692-.346-1.038-.692-.346-.692 0-1.384.346-1.384l213.399-122.12c.692-.347 1.383 0 1.383.345.346.692 0 1.384-.346 1.384L6.727 195.367c0 .347-.345.347-.345.347zM-9.337 256.505c-.346 0-.692-.346-1.037-.692-.346-.692 0-1.383.345-1.383L159.1 157.217c.691-.346 1.383 0 1.383.346.346.692 0 1.384-.346 1.384L-8.99 256.159c0 .346-.346.346-.346.346zM135.527 89.287c-.346 0-.692-.346-1.037-.692-.346-.691 0-1.383.345-1.383l44.271-25.947c.692-.346 1.384 0 1.384.346.345.692 0 1.384-.346 1.384l-43.925 25.946c-.346.346-.346.346-.692.346zM22.137 324.658c-.346 0-.692-.346-1.038-.692-.346-.692 0-1.384.346-1.384l129.7-75.071c.691-.346 1.383 0 1.383.346.346.691 0 1.383-.346 1.383L22.137 324.658c.346 0 .346 0 0 0z" opacity=".4"/>
                <path fill="#63A0FF" d="M321.593 15.158c-.346 0-.692-.346-1.038-.692-.346-.692 0-1.384.346-1.384l51.188-29.406c.692-.346 1.383 0 1.383.346.346.692 0 1.384-.346 1.384l-51.533 29.752c.345 0 .345 0 0 0zM154.35 201.17c-.345 0-.691-.346-1.037-.692-.346-.692 0-1.384.346-1.384l51.188-29.406c.692-.346 1.383 0 1.383.346.346.692 0 1.384-.345 1.384L154.35 201.17c.346 0 .346 0 0 0zM211.764 167.958c-.346 0-.691-.346-1.037-.691-.346-.692 0-1.384.346-1.384l24.556-14.184c.692-.346 1.384 0 1.384.346.345.692 0 1.383-.346 1.383l-24.903 14.53c.692 0 .346 0 0 0zM522.86 62.329c-.346 0-.692-.346-1.038-.692-.346-.692 0-1.384.346-1.384l51.188-29.406c.692-.346 1.383 0 1.383.346.346.692 0 1.384-.346 1.384L522.86 62.33c.345 0 .345 0 0 0zM137.928 36.863c-.346 0-.692-.346-1.038-.692-.346-.692 0-1.384.346-1.384L192.575 1.23c.691-.346 1.383 0 1.383.346.346.692 0 1.384-.346 1.384l-55.684 33.903c.346 0 0 0 0 0zM502.544 194.58l-118.286 67.115c-.692.346-.692 1.037-.346 1.383.346.346.692.692 1.038.692h.691l117.249-66.422c-.346-1.038-.346-1.73-.346-2.768zM76.218 249.959c-.346 0-.692-.346-1.037-.692-.346-.692 0-1.384.345-1.384l55.339-33.557c.692-.346 1.383 0 1.383.346.346.692 0 1.384-.345 1.384l-55.685 33.903c.346 0 0 0 0 0z"/>
                <path fill="#92B8FF" d="M478.68 266.192c-2.422-1.384-2.422-3.806 0-5.19 2.42-1.383 6.225-1.383 8.646 0 2.42 1.384 2.42 3.806 0 5.19-2.075 1.384-6.226 1.384-8.647 0z"/>
            </g>
            <path fill="#FFF" fill-rule="nonzero" d="M540.6 229.458c-.345 0-.691-.345-1.037-.691-.346-.692 0-1.384.346-1.384l139.255-76.822c.692-.346 1.383 0 1.383.346.346.692 0 1.384-.345 1.384l-139.255 76.822c0 .345-.346.345-.346.345z" opacity=".17"/>
            <g fill-rule="nonzero">
                <path fill="#D9E6FF" d="M784.774 298.662c-5.88-3.46-15.218-3.46-21.098 0l-50.842 29.406c-5.88 3.459-5.88 8.648 0 12.108l50.842 29.406c5.88 3.46 15.218 3.46 21.098 0l50.842-29.406c5.88-3.46 5.88-8.649 0-12.108l-50.842-29.406z"/>
                <path fill="#FFF" d="M778.65 301.63c-2.768-1.384-6.918-1.384-9.685 0l-22.827 13.146c-2.767 1.384-2.767 4.151 0 5.535l22.827 13.146c2.767 1.384 6.917 1.384 9.684 0l22.827-13.146c2.767-1.384 2.767-4.151 0-5.535L778.65 301.63z"/>
            </g>
            <path fill="#D9E6FF" fill-rule="nonzero" d="M658.033 62.575c-3.458-2.076-8.992-2.076-12.45 0l-30.091 17.297c-3.459 2.076-3.459 5.19 0 7.265l30.09 17.298c3.459 2.075 8.993 2.075 12.451 0l30.09-17.298c3.46-2.076 3.46-5.19 0-7.265l-30.09-17.297z"/>
            <g fill="#3C55F9" fill-rule="nonzero" opacity=".21">
                <path d="M619.642 47.353v36.325l31.474 18.335V65.688z"/>
                <path d="M619.642 48.045v35.633l31.474 18.335V66.38z"/>
                <path d="M619.642 48.737v34.94l31.474 18.336V66.726z"/>
                <path d="M619.642 49.428v34.25l31.474 18.335V67.418z"/>
                <path d="M619.642 49.774v33.904l31.474 18.335V68.11z"/>
                <path d="M619.642 50.466v33.212l31.474 18.335V68.802z"/>
                <path d="M619.642 51.158v32.52l31.474 18.335v-32.52z"/>
                <path d="M619.642 51.85v31.828l31.474 18.335V70.186z"/>
                <path d="M619.642 52.542v31.136l31.474 18.335V70.877z"/>
                <path d="M619.642 53.234v30.444l31.474 18.335v-30.79z"/>
                <path d="M619.642 53.58v30.098l31.474 18.335V71.915z"/>
                <path d="M619.642 54.272v29.406l31.474 18.335V72.607z"/>
                <path d="M619.642 54.964v28.714l31.474 18.335V73.3z"/>
                <path d="M619.642 55.656v28.022l31.474 18.335V73.991z"/>
                <path d="M619.642 56.347v27.33l31.474 18.336v-27.33z"/>
                <path d="M619.642 57.04v26.638l31.474 18.335V75.03z"/>
                <path d="M619.642 57.731v25.947l31.474 18.335V75.721z"/>
                <path d="M619.642 58.077v25.6l31.474 18.336v-25.6z"/>
                <path d="M619.642 58.77v24.908l31.474 18.335V77.105z"/>
                <path d="M619.642 59.461v24.217l31.474 18.335V77.796z"/>
                <path d="M619.642 60.153v23.525l31.474 18.335V78.488z"/>
                <path d="M619.642 60.845v22.833l31.474 18.335V79.18z"/>
                <path d="M619.642 61.537v22.14l31.474 18.336V79.526z"/>
                <path d="M619.642 61.883v21.795l31.474 18.335V80.218z"/>
                <path d="M619.642 62.575v21.103l31.474 18.335V80.91z"/>
                <path d="M619.642 63.267v20.41l31.474 18.336V81.602z"/>
                <path d="M619.642 63.958v19.72l31.474 18.335v-19.72z"/>
                <path d="M619.642 64.65v19.028l31.474 18.335V82.986z"/>
                <path d="M619.642 65.342v18.336l31.474 18.335V83.332z"/>
                <path d="M619.642 65.688v17.99l31.474 18.335v-17.99z"/>
                <path d="M619.642 66.38v17.298l31.474 18.335V84.715z"/>
                <path d="M619.642 67.072v16.606l31.474 18.335V85.407z"/>
                <path d="M619.642 67.764v15.914l31.474 18.335V86.1z"/>
                <path d="M619.642 68.456v15.222l31.474 18.335V86.791z"/>
                <path d="M619.642 69.148v14.53l31.474 18.335V87.137z"/>
                <path d="M619.642 69.84v13.838l31.474 18.335V87.83z"/>
                <path d="M619.642 70.186v13.492l31.474 18.335V88.521z"/>
                <path d="M619.642 70.877v12.8l31.474 18.336v-12.8z"/>
                <path d="M619.642 71.57v12.108l31.474 18.335V89.905z"/>
                <path d="M619.642 72.261v11.417l31.474 18.335V90.597z"/>
                <path d="M619.642 72.953v10.725l31.474 18.335V91.29z"/>
                <path d="M619.642 73.645v10.033l31.474 18.335V91.635z"/>
                <path d="M619.642 73.991v9.687l31.474 18.335v-9.687z"/>
                <path d="M619.642 74.683v8.995l31.474 18.335v-8.995z"/>
                <path d="M619.642 75.375v8.303l31.474 18.335V93.71z"/>
                <path d="M619.642 76.067v7.61l31.474 18.336v-7.61z"/>
                <path d="M619.642 76.759v6.919l31.474 18.335v-6.919z"/>
                <path d="M619.642 77.45v6.228l31.474 18.335V95.44z"/>
                <path d="M619.642 77.796v5.882l31.474 18.335v-5.881z"/>
                <path d="M619.642 78.488v5.19l31.474 18.335v-5.19z"/>
                <path d="M619.642 79.18v4.498l31.474 18.335v-4.497z"/>
                <path d="M619.642 79.872v3.806l31.474 18.335v-3.805z"/>
            </g>
            <g fill="#5269FF" fill-rule="nonzero" opacity=".21">
                <path d="M683.282 47.353v36.325l-31.82 18.335V65.688z"/>
                <path d="M683.282 48.045v35.633l-31.82 18.335V66.38z"/>
                <path d="M683.282 48.737v34.94l-31.82 18.336V66.726z"/>
                <path d="M683.282 49.428v34.25l-31.82 18.335V67.418z"/>
                <path d="M683.282 49.774v33.904l-31.82 18.335V68.11z"/>
                <path d="M683.282 50.466v33.212l-31.82 18.335V68.802z"/>
                <path d="M683.282 51.158v32.52l-31.82 18.335v-32.52z"/>
                <path d="M683.282 51.85v31.828l-31.82 18.335V70.186z"/>
                <path d="M683.282 52.542v31.136l-31.82 18.335V70.877z"/>
                <path d="M683.282 53.234v30.444l-31.82 18.335v-30.79z"/>
                <path d="M683.282 53.58v30.098l-31.82 18.335V71.915z"/>
                <path d="M683.282 54.272v29.406l-31.82 18.335V72.607z"/>
                <path d="M683.282 54.964v28.714l-31.82 18.335V73.3z"/>
                <path d="M683.282 55.656v28.022l-31.82 18.335V73.991z"/>
                <path d="M683.282 56.347v27.33l-31.82 18.336v-27.33z"/>
                <path d="M683.282 57.04v26.638l-31.82 18.335V75.03z"/>
                <path d="M683.282 57.731v25.947l-31.82 18.335V75.721z"/>
                <path d="M683.282 58.077v25.6l-31.82 18.336v-25.6z"/>
                <path d="M683.282 58.77v24.908l-31.82 18.335V77.105z"/>
                <path d="M683.282 59.461v24.217l-31.82 18.335V77.796z"/>
                <path d="M683.282 60.153v23.525l-31.82 18.335V78.488z"/>
                <path d="M683.282 60.845v22.833l-31.82 18.335V79.18z"/>
                <path d="M683.282 61.537v22.14l-31.82 18.336V79.526z"/>
                <path d="M683.282 61.883v21.795l-31.82 18.335V80.218z"/>
                <path d="M683.282 62.575v21.103l-31.82 18.335V80.91z"/>
                <path d="M683.282 63.267v20.41l-31.82 18.336V81.602z"/>
                <path d="M683.282 63.958v19.72l-31.82 18.335v-19.72z"/>
                <path d="M683.282 64.65v19.028l-31.82 18.335V82.986z"/>
                <path d="M683.282 65.342v18.336l-31.82 18.335V83.332z"/>
                <path d="M683.282 65.688v17.99l-31.82 18.335v-17.99z"/>
                <path d="M683.282 66.38v17.298l-31.82 18.335V84.715z"/>
                <path d="M683.282 67.072v16.606l-31.82 18.335V85.407z"/>
                <path d="M683.282 67.764v15.914l-31.82 18.335V86.1z"/>
                <path d="M683.282 68.456v15.222l-31.82 18.335V86.791z"/>
                <path d="M683.282 69.148v14.53l-31.82 18.335V87.137z"/>
                <path d="M683.282 69.84v13.838l-31.82 18.335V87.83z"/>
                <path d="M683.282 70.186v13.492l-31.82 18.335V88.521z"/>
                <path d="M683.282 70.877v12.8l-31.82 18.336v-12.8z"/>
                <path d="M683.282 71.57v12.108l-31.82 18.335V89.905z"/>
                <path d="M683.282 72.261v11.417l-31.82 18.335V90.597z"/>
                <path d="M683.282 72.953v10.725l-31.82 18.335V91.29z"/>
                <path d="M683.282 73.645v10.033l-31.82 18.335V91.635z"/>
                <path d="M683.282 73.991v9.687l-31.82 18.335v-9.687z"/>
                <path d="M683.282 74.683v8.995l-31.82 18.335v-8.995z"/>
                <path d="M683.282 75.375v8.303l-31.82 18.335V93.71z"/>
                <path d="M683.282 76.067v7.61l-31.82 18.336v-7.61z"/>
                <path d="M683.282 76.759v6.919l-31.82 18.335v-6.919z"/>
                <path d="M683.282 77.45v6.228l-31.82 18.335V95.44z"/>
                <path d="M683.282 77.796v5.882l-31.82 18.335v-5.881z"/>
                <path d="M683.282 78.488v5.19l-31.82 18.335v-5.19z"/>
                <path d="M683.282 79.18v4.498l-31.82 18.335v-4.497z"/>
                <path d="M683.282 79.872v3.806l-31.82 18.335v-3.805z"/>
            </g>
            <path fill="url(#e)" d="M45.437 11.762c-3.459-2.075-8.992-2.075-12.451 0L.129 22.832v7.612c0 2.421 1.383 4.497 3.113 5.88L32.64 53.969c3.459 2.076 8.993 2.076 12.451 0L74.49 37.017c2.075-1.038 3.458-3.46 3.458-5.881v-8.65l-32.51-10.724z" transform="translate(612.596 26.25)"/>
            <path fill="#D9E6FF" fill-rule="nonzero" d="M658.033 27.98c-3.458-2.076-8.992-2.076-12.45 0l-30.091 17.297c-3.459 2.076-3.459 5.19 0 7.265l30.09 17.298c3.459 2.075 8.993 2.075 12.451 0l30.09-17.298c3.46-2.076 3.46-5.19 0-7.265l-30.09-17.298z"/>
            <path fill="url(#f)" d="M75.527 60.887l-30.09 17.298c-3.459 2.076-8.992 2.076-12.451 0L2.896 60.887C1.166 59.85.475 58.466.475 57.427v7.612c0 2.421 1.383 4.497 3.112 5.881l29.399 17.644c3.459 2.075 8.992 2.075 12.451 0l29.399-16.952c2.075-1.038 3.458-3.46 3.458-5.881v-8.649c-.346 1.384-1.037 2.768-2.767 3.805z" transform="translate(612.596 26.25)"/>
            <path fill="#5269FF" fill-opacity=".4" fill-rule="nonzero" d="M681.552 71.223l-24.902 14.53c-2.767 1.73-7.609 1.73-10.376 0l-24.902-14.53c-1.384-.692-2.075-1.73-2.075-3.113v6.227c0 2.076 1.037 3.805 2.766 4.843l24.211 14.53c2.767 1.73 7.61 1.73 10.376 0l24.21-13.838c1.73-1.038 2.768-2.767 2.768-4.843v-6.92c.345 1.385-.346 2.422-2.076 3.114z"/>
            <path fill="#6B8BF5" fill-rule="nonzero" d="M653.883 41.818c-1.037-.692-3.113-.692-4.15 0l-10.376 5.88c-1.038.693-1.038 1.73 0 2.422l10.376 5.882c1.037.691 3.113.691 4.15 0l10.376-5.882c1.038-.692 1.038-1.73 0-2.421l-10.376-5.881z"/>
            <path fill="#FFF" fill-rule="nonzero" d="M639.357 50.12l10.376-5.189c1.037-.692 3.113-.692 4.15 0l10.03 5.535.346-.346c1.038-.692 1.038-1.73 0-2.421l-10.376-5.881c-1.037-.692-3.113-.692-4.15 0l-10.376 5.88c-1.038.693-1.038 1.73 0 2.422z"/>
            <path fill="url(#g)" d="M17.496 4.582c-1.384-.692-3.459-.692-4.842 0L.202 8.733v2.768c0 1.038.346 1.73 1.384 2.076l11.068 6.573c1.383.692 3.458.692 4.842 0l11.067-6.227c.692-.346 1.384-1.384 1.384-2.076V8.733L17.496 4.582z" transform="translate(636.387 29.625)"/>
            <path fill="#FFF" fill-rule="nonzero" d="M653.883 30.401c-1.383-.692-3.459-.692-4.842 0l-11.414 6.573c-1.383.692-1.383 2.076 0 2.768l11.414 6.573c1.383.692 3.459.692 4.842 0l11.414-6.573c1.383-.692 1.383-2.076 0-2.768l-11.414-6.573z"/>
            <g>
                <path fill="#D9E6FF" fill-rule="nonzero" d="M1000.905 159.812c-3.459-2.076-8.993-2.076-12.451 0l-30.09 17.298c-3.46 2.075-3.46 5.189 0 7.265l30.09 17.297c3.458 2.076 8.992 2.076 12.45 0l30.091-17.297c3.459-2.076 3.459-5.19 0-7.265l-30.09-17.298z"/>
                <g fill="#5269FF" fill-rule="nonzero" opacity=".21">
                    <path d="M962.514 144.936v36.325l31.82 18.335v-36.324z"/>
                    <path d="M962.514 145.628v35.633l31.82 18.335v-35.633z"/>
                    <path d="M962.514 146.32v34.941l31.82 18.335V164.31z"/>
                    <path d="M962.514 146.666v34.595l31.82 18.335v-34.595z"/>
                    <path d="M962.514 147.358v33.903l31.82 18.335v-33.903z"/>
                    <path d="M962.514 148.05v33.211l31.82 18.335v-33.21z"/>
                    <path d="M962.514 148.742v32.519l31.82 18.335v-32.519z"/>
                    <path d="M962.514 149.433v31.828l31.82 18.335V167.77z"/>
                    <path d="M962.514 150.125v31.136l31.82 18.335v-31.481z"/>
                    <path d="M962.514 150.817v30.444l31.82 18.335v-30.79z"/>
                    <path d="M962.514 151.163v30.098l31.82 18.335V169.5z"/>
                    <path d="M962.514 151.855v29.406l31.82 18.335v-29.405z"/>
                    <path d="M962.514 152.547v28.714l31.82 18.335v-28.714z"/>
                    <path d="M962.514 153.239v28.022l31.82 18.335v-28.022z"/>
                    <path d="M962.514 153.93v27.331l31.82 18.335v-27.33z"/>
                    <path d="M962.514 154.623v26.638l31.82 18.335v-26.984z"/>
                    <path d="M962.514 154.969v26.292l31.82 18.335v-26.292z"/>
                    <path d="M962.514 155.66v25.601l31.82 18.335v-25.6z"/>
                    <path d="M962.514 156.352v24.909l31.82 18.335v-24.908z"/>
                    <path d="M962.514 157.044v24.217l31.82 18.335V175.38z"/>
                    <path d="M962.514 157.736v23.525l31.82 18.335v-23.524z"/>
                    <path d="M962.514 158.428v22.833l31.82 18.335v-23.178z"/>
                    <path d="M962.514 158.774v22.487l31.82 18.335V177.11z"/>
                    <path d="M962.514 159.466v21.795l31.82 18.335v-21.795z"/>
                    <path d="M962.514 160.158v21.103l31.82 18.335v-21.103z"/>
                    <path d="M962.514 160.85v20.411l31.82 18.335v-20.41z"/>
                    <path d="M962.514 161.542v19.719l31.82 18.335v-19.719z"/>
                    <path d="M962.514 162.234v19.027l31.82 18.335v-19.373z"/>
                    <path d="M962.514 162.926v18.335l31.82 18.335v-18.681z"/>
                    <path d="M962.514 163.272v17.989l31.82 18.335v-17.99z"/>
                    <path d="M962.514 163.963v17.298l31.82 18.335V182.3z"/>
                    <path d="M962.514 164.655v16.606l31.82 18.335v-16.605z"/>
                    <path d="M962.514 165.347v15.914l31.82 18.335v-15.913z"/>
                    <path d="M962.514 166.04v15.221l31.82 18.335v-15.221z"/>
                    <path d="M962.514 166.731v14.53l31.82 18.335V184.72z"/>
                    <path d="M962.514 167.077v14.184l31.82 18.335v-14.184z"/>
                    <path d="M962.514 167.769v13.492l31.82 18.335v-13.492z"/>
                    <path d="M962.514 168.46v12.801l31.82 18.335v-12.8z"/>
                    <path d="M962.514 169.153v12.108l31.82 18.335v-12.108z"/>
                    <path d="M962.514 169.845v11.416l31.82 18.335V188.18z"/>
                    <path d="M962.514 170.536v10.725l31.82 18.335v-11.07z"/>
                    <path d="M962.514 170.882v10.379l31.82 18.335v-10.378z"/>
                    <path d="M962.514 171.574v9.687l31.82 18.335v-9.686z"/>
                    <path d="M962.514 172.266v8.995l31.82 18.335v-8.994z"/>
                    <path d="M962.514 172.958v8.303l31.82 18.335v-8.302z"/>
                    <path d="M962.514 173.65v7.611l31.82 18.335v-7.61z"/>
                    <path d="M962.514 174.342v6.919l31.82 18.335v-7.265z"/>
                    <path d="M962.514 175.034v6.227l31.82 18.335v-6.573z"/>
                    <path d="M962.514 175.38v5.881l31.82 18.335v-5.88z"/>
                    <path d="M962.514 176.072v5.189l31.82 18.335v-5.189z"/>
                    <path d="M962.514 176.764v4.497l31.82 18.335V195.1z"/>
                    <path d="M962.514 177.456v3.805l31.82 18.335v-3.805z"/>
                </g>
                <g fill="#5269FF" fill-rule="nonzero" opacity=".21">
                    <path d="M1026.153 144.936v36.325l-31.474 18.335v-36.324z"/>
                    <path d="M1026.153 145.628v35.633l-31.474 18.335v-35.633z"/>
                    <path d="M1026.153 146.32v34.941l-31.474 18.335V164.31z"/>
                    <path d="M1026.153 146.666v34.595l-31.474 18.335v-34.595z"/>
                    <path d="M1026.153 147.358v33.903l-31.474 18.335v-33.903z"/>
                    <path d="M1026.153 148.05v33.211l-31.474 18.335v-33.21z"/>
                    <path d="M1026.153 148.742v32.519l-31.474 18.335v-32.519z"/>
                    <path d="M1026.153 149.433v31.828l-31.474 18.335V167.77z"/>
                    <path d="M1026.153 150.125v31.136l-31.474 18.335v-31.481z"/>
                    <path d="M1026.153 150.817v30.444l-31.474 18.335v-30.79z"/>
                    <path d="M1026.153 151.163v30.098l-31.474 18.335V169.5z"/>
                    <path d="M1026.153 151.855v29.406l-31.474 18.335v-29.405z"/>
                    <path d="M1026.153 152.547v28.714l-31.474 18.335v-28.714z"/>
                    <path d="M1026.153 153.239v28.022l-31.474 18.335v-28.022z"/>
                    <path d="M1026.153 153.93v27.331l-31.474 18.335v-27.33z"/>
                    <path d="M1026.153 154.623v26.638l-31.474 18.335v-26.984z"/>
                    <path d="M1026.153 154.969v26.292l-31.474 18.335v-26.292z"/>
                    <path d="M1026.153 155.66v25.601l-31.474 18.335v-25.6z"/>
                    <path d="M1026.153 156.352v24.909l-31.474 18.335v-24.908z"/>
                    <path d="M1026.153 157.044v24.217l-31.474 18.335V175.38z"/>
                    <path d="M1026.153 157.736v23.525l-31.474 18.335v-23.524z"/>
                    <path d="M1026.153 158.428v22.833l-31.474 18.335v-23.178z"/>
                    <path d="M1026.153 158.774v22.487l-31.474 18.335V177.11z"/>
                    <path d="M1026.153 159.466v21.795l-31.474 18.335v-21.795z"/>
                    <path d="M1026.153 160.158v21.103l-31.474 18.335v-21.103z"/>
                    <path d="M1026.153 160.85v20.411l-31.474 18.335v-20.41z"/>
                    <path d="M1026.153 161.542v19.719l-31.474 18.335v-19.719z"/>
                    <path d="M1026.153 162.234v19.027l-31.474 18.335v-19.373z"/>
                    <path d="M1026.153 162.926v18.335l-31.474 18.335v-18.681z"/>
                    <path d="M1026.153 163.272v17.989l-31.474 18.335v-17.99z"/>
                    <path d="M1026.153 163.963v17.298l-31.474 18.335V182.3z"/>
                    <path d="M1026.153 164.655v16.606l-31.474 18.335v-16.605z"/>
                    <path d="M1026.153 165.347v15.914l-31.474 18.335v-15.913z"/>
                    <path d="M1026.153 166.04v15.221l-31.474 18.335v-15.221z"/>
                    <path d="M1026.153 166.731v14.53l-31.474 18.335V184.72z"/>
                    <path d="M1026.153 167.077v14.184l-31.474 18.335v-14.184z"/>
                    <path d="M1026.153 167.769v13.492l-31.474 18.335v-13.492z"/>
                    <path d="M1026.153 168.46v12.801l-31.474 18.335v-12.8z"/>
                    <path d="M1026.153 169.153v12.108l-31.474 18.335v-12.108z"/>
                    <path d="M1026.153 169.845v11.416l-31.474 18.335V188.18z"/>
                    <path d="M1026.153 170.536v10.725l-31.474 18.335v-11.07z"/>
                    <path d="M1026.153 170.882v10.379l-31.474 18.335v-10.378z"/>
                    <path d="M1026.153 171.574v9.687l-31.474 18.335v-9.686z"/>
                    <path d="M1026.153 172.266v8.995l-31.474 18.335v-8.994z"/>
                    <path d="M1026.153 172.958v8.303l-31.474 18.335v-8.302z"/>
                    <path d="M1026.153 173.65v7.611l-31.474 18.335v-7.61z"/>
                    <path d="M1026.153 174.342v6.919l-31.474 18.335v-7.265z"/>
                    <path d="M1026.153 175.034v6.227l-31.474 18.335v-6.573z"/>
                    <path d="M1026.153 175.38v5.881l-31.474 18.335v-5.88z"/>
                    <path d="M1026.153 176.072v5.189l-31.474 18.335v-5.189z"/>
                    <path d="M1026.153 176.764v4.497l-31.474 18.335V195.1z"/>
                    <path d="M1026.153 177.456v3.805l-31.474 18.335v-3.805z"/>
                </g>
                <path fill="url(#e)" d="M45.308 12.346c-3.458-2.076-8.992-2.076-12.45 0L0 23.416v7.611c0 2.422 1.383 4.497 3.113 5.881L32.51 54.552c3.459 2.075 8.993 2.075 12.451 0l29.4-16.952c2.074-1.038 3.458-3.46 3.458-5.881V23.07L45.308 12.346z" transform="translate(955.596 123.25)"/>
                <path fill="#D9E6FF" fill-rule="nonzero" d="M1000.905 125.563c-3.459-2.076-8.993-2.076-12.451 0l-30.09 17.297c-3.46 2.076-3.46 5.19 0 7.265l30.09 17.298c3.458 2.076 8.992 2.076 12.45 0l30.091-17.298c3.459-2.075 3.459-5.189 0-7.265l-30.09-17.297z"/>
                <path fill="#6B8BF5" fill-rule="nonzero" d="M996.754 139.4c-1.037-.691-3.112-.691-4.15 0l-10.376 5.882c-1.038.692-1.038 1.73 0 2.422l10.376 5.88c1.038.693 3.113.693 4.15 0l10.376-5.88c1.038-.692 1.038-1.73 0-2.422l-10.376-5.881z"/>
                <path fill="#FFF" fill-rule="nonzero" d="M982.228 147.704l.346.346 10.03-5.536c1.038-.691 3.113-.691 4.15 0l10.03 5.536.346-.346c1.038-.692 1.038-1.73 0-2.422l-10.376-5.881c-1.037-.692-3.112-.692-4.15 0l-10.376 5.881c-1.038.692-1.038 1.73 0 2.422z"/>
                <path fill="url(#f)" d="M75.399 61.47l-30.09 17.298c-3.46 2.076-8.993 2.076-12.452 0L2.767 61.471C1.037 60.433.346 59.049.346 58.01v7.611c0 2.422 1.383 4.498 3.113 5.881l29.398 17.644c3.459 2.076 8.993 2.076 12.451 0l29.399-16.952c2.075-1.038 3.459-3.46 3.459-5.88v-8.65c0 1.384-1.038 2.768-2.767 3.806z" transform="translate(955.596 123.25)"/>
                <path fill="url(#h)" fill-opacity=".4" d="M69.173 45.557l-24.902 14.53c-2.767 1.73-7.61 1.73-10.376 0L8.992 45.557c-1.383-.692-2.075-1.73-2.075-3.114v6.228c0 2.075 1.038 3.805 2.767 4.843l24.21 14.53c2.768 1.73 7.61 1.73 10.377 0l24.21-13.838c1.73-1.038 2.767-2.768 2.767-4.844v-6.919c0 1.384-.691 2.422-2.075 3.114z" transform="translate(955.596 123.25)"/>
                <path fill="url(#g)" d="M17.293 5.08c-1.383-.691-3.458-.691-4.842 0L0 9.233V12c0 1.038.346 1.73 1.383 2.075l11.068 6.574c1.384.691 3.459.691 4.842 0l11.068-6.228c.692-.346 1.383-1.383 1.383-2.075V9.232l-12.45-4.151z" transform="translate(979.807 126.71)"/>
                <path fill="#FFF" fill-rule="nonzero" d="M997.1 127.984c-1.383-.691-3.458-.691-4.842 0l-11.413 6.574c-1.384.691-1.384 2.075 0 2.767l11.413 6.573c1.384.692 3.459.692 4.842 0l11.414-6.573c1.383-.692 1.383-2.076 0-2.767l-11.414-6.574z"/>
            </g>
            <g>
                <path fill="#D9E6FF" fill-rule="nonzero" d="M802.413-3.008c-3.459-2.076-8.993-2.076-12.451 0l-30.09 17.298c-3.46 2.075-3.46 5.189 0 7.265l30.09 17.297c3.458 2.076 8.992 2.076 12.45 0l30.091-17.297c3.459-2.076 3.459-5.19 0-7.265l-30.09-17.298z"/>
                <g fill="#3C5185" fill-rule="nonzero" opacity=".21">
                    <path fill="none" d="M764.022-18.23v36.671l31.82 17.99V.106z"/>
                    <path d="M764.022-17.538v35.98l31.82 17.989V.798z" opacity=".02"/>
                    <path d="M764.022-16.846v35.287l31.82 17.99V1.49z" opacity=".039"/>
                    <path d="M764.022-16.154v34.595l31.82 17.99V1.836z" opacity=".059"/>
                    <path d="M764.022-15.462V18.44l31.82 17.99V2.527z" opacity=".078"/>
                    <path d="M764.022-15.116V18.44l31.82 17.99V3.219z" opacity=".098"/>
                    <path d="M764.022-14.424V18.44l31.82 17.99V3.91z" opacity=".118"/>
                    <path d="M764.022-13.732V18.44l31.82 17.99V4.603z" opacity=".137"/>
                    <path d="M764.022-13.04V18.44l31.82 17.99V5.295z" opacity=".157"/>
                    <path d="M764.022-12.348v30.79l31.82 17.989V5.987z" opacity=".176"/>
                    <path d="M764.022-11.657v30.098l31.82 17.99V6.333z" opacity=".196"/>
                    <path d="M764.022-11.31V18.44l31.82 17.99V7.025z" opacity=".216"/>
                    <path d="M764.022-10.619v29.06l31.82 17.99V7.717z" opacity=".235"/>
                    <path d="M764.022-9.927v28.368l31.82 17.99V8.409z" opacity=".255"/>
                    <path d="M764.022-9.235v27.676l31.82 17.99V9.1z" opacity=".275"/>
                    <path d="M764.022-8.543v26.984l31.82 17.99V9.792z" opacity=".294"/>
                    <path d="M764.022-7.851V18.44l31.82 17.99V10.138z" opacity=".314"/>
                    <path d="M764.022-7.505V18.44l31.82 17.99v-25.6z" opacity=".333"/>
                    <path d="M764.022-6.813V18.44l31.82 17.99V11.522z" opacity=".353"/>
                    <path d="M764.022-6.121V18.44l31.82 17.99V12.214z" opacity=".372"/>
                    <path d="M764.022-5.43v23.871l31.82 17.99V12.906z" opacity=".392"/>
                    <path d="M764.022-4.738v23.18l31.82 17.989V13.598z" opacity=".412"/>
                    <path d="M764.022-4.046v22.487l31.82 17.99V13.944z" opacity=".431"/>
                    <path d="M764.022-3.354v21.795l31.82 17.99V14.636z" opacity=".451"/>
                    <path d="M764.022-3.008v21.45l31.82 17.989V15.328z" opacity=".471"/>
                    <path d="M764.022-2.316v20.757l31.82 17.99V16.02z" opacity=".49"/>
                    <path d="M764.022-1.624v20.065l31.82 17.99V16.71z" opacity=".51"/>
                    <path d="M764.022-.932V18.44l31.82 17.99V17.403z" opacity=".529"/>
                    <path d="M764.022-.24V18.44l31.82 17.99V18.095z" opacity=".549"/>
                    <path d="M764.022.452v17.99l31.82 17.989V18.44z" opacity=".569"/>
                    <path d="M764.022.798V18.44l31.82 17.99V19.133z" opacity=".588"/>
                    <path d="M764.022 1.49V18.44l31.82 17.99V19.825z" opacity=".608"/>
                    <path d="M764.022 2.181v16.26l31.82 17.99V20.517z" opacity=".627"/>
                    <path d="M764.022 2.873v15.568l31.82 17.99V21.209z" opacity=".647"/>
                    <path d="M764.022 3.565v14.876l31.82 17.99V21.9z" opacity=".667"/>
                    <path d="M764.022 4.257v14.184l31.82 17.99V22.247z" opacity=".686"/>
                    <path d="M764.022 4.95V18.44l31.82 17.99V22.939z" opacity=".706"/>
                    <path d="M764.022 5.295v13.146l31.82 17.99v-12.8z" opacity=".726"/>
                    <path d="M764.022 5.987V18.44l31.82 17.99V24.322z" opacity=".745"/>
                    <path d="M764.022 6.679V18.44l31.82 17.99V25.014z" opacity=".765"/>
                    <path d="M764.022 7.37v11.071l31.82 17.99V25.706z" opacity=".784"/>
                    <path d="M764.022 8.063V18.44l31.82 17.99V26.398z" opacity=".804"/>
                    <path d="M764.022 8.755v9.686l31.82 17.99v-9.687z" opacity=".824"/>
                    <path d="M764.022 9.1v9.341l31.82 17.99v-8.995z" opacity=".843"/>
                    <path d="M764.022 9.792v8.65l31.82 17.989v-8.303z" opacity=".863"/>
                    <path d="M764.022 10.484v7.957l31.82 17.99V28.82z" opacity=".882"/>
                    <path d="M764.022 11.176v7.265l31.82 17.99v-6.92z" opacity=".902"/>
                    <path d="M764.022 11.868v6.573l31.82 17.99v-6.227z" opacity=".922"/>
                    <path d="M764.022 12.56v5.881l31.82 17.99v-5.882z" opacity=".941"/>
                    <path d="M764.022 12.906v5.535l31.82 17.99v-5.19z" opacity=".961"/>
                    <path d="M764.022 13.598v4.843l31.82 17.99v-4.498z" opacity=".98"/>
                    <path d="M764.022 14.29v4.151l31.82 17.99v-3.806z"/>
                </g>
                <g fill="#3C5185" fill-rule="nonzero" opacity=".21">
                    <path fill="none" d="M827.661-18.23v36.671l-31.474 17.99V.106z"/>
                    <path d="M827.661-17.538v35.98L796.187 36.43V.798z" opacity=".02"/>
                    <path d="M827.661-16.846v35.287l-31.474 17.99V1.49z" opacity=".039"/>
                    <path d="M827.661-16.154v34.595l-31.474 17.99V1.836z" opacity=".059"/>
                    <path d="M827.661-15.462V18.44l-31.474 17.99V2.527z" opacity=".078"/>
                    <path d="M827.661-15.116V18.44l-31.474 17.99V3.219z" opacity=".098"/>
                    <path d="M827.661-14.424V18.44l-31.474 17.99V3.91z" opacity=".118"/>
                    <path d="M827.661-13.732V18.44l-31.474 17.99V4.603z" opacity=".137"/>
                    <path d="M827.661-13.04V18.44l-31.474 17.99V5.295z" opacity=".157"/>
                    <path d="M827.661-12.348v30.79L796.187 36.43V5.987z" opacity=".176"/>
                    <path d="M827.661-11.657v30.098l-31.474 17.99V6.333z" opacity=".196"/>
                    <path d="M827.661-11.31V18.44l-31.474 17.99V7.025z" opacity=".216"/>
                    <path d="M827.661-10.619v29.06l-31.474 17.99V7.717z" opacity=".235"/>
                    <path d="M827.661-9.927v28.368l-31.474 17.99V8.409z" opacity=".255"/>
                    <path d="M827.661-9.235v27.676l-31.474 17.99V9.1z" opacity=".275"/>
                    <path d="M827.661-8.543v26.984l-31.474 17.99V9.792z" opacity=".294"/>
                    <path d="M827.661-7.851V18.44l-31.474 17.99V10.138z" opacity=".314"/>
                    <path d="M827.661-7.505V18.44l-31.474 17.99v-25.6z" opacity=".333"/>
                    <path d="M827.661-6.813V18.44l-31.474 17.99V11.522z" opacity=".353"/>
                    <path d="M827.661-6.121V18.44l-31.474 17.99V12.214z" opacity=".372"/>
                    <path d="M827.661-5.43v23.871l-31.474 17.99V12.906z" opacity=".392"/>
                    <path d="M827.661-4.738v23.18L796.187 36.43V13.598z" opacity=".412"/>
                    <path d="M827.661-4.046v22.487l-31.474 17.99V13.944z" opacity=".431"/>
                    <path d="M827.661-3.354v21.795l-31.474 17.99V14.636z" opacity=".451"/>
                    <path d="M827.661-3.008v21.45L796.187 36.43V15.328z" opacity=".471"/>
                    <path d="M827.661-2.316v20.757l-31.474 17.99V16.02z" opacity=".49"/>
                    <path d="M827.661-1.624v20.065l-31.474 17.99V16.71z" opacity=".51"/>
                    <path d="M827.661-.932V18.44l-31.474 17.99V17.403z" opacity=".529"/>
                    <path d="M827.661-.24V18.44l-31.474 17.99V18.095z" opacity=".549"/>
                    <path d="M827.661.452v17.99L796.187 36.43V18.44z" opacity=".569"/>
                    <path d="M827.661.798V18.44l-31.474 17.99V19.133z" opacity=".588"/>
                    <path d="M827.661 1.49V18.44l-31.474 17.99V19.825z" opacity=".608"/>
                    <path d="M827.661 2.181v16.26l-31.474 17.99V20.517z" opacity=".627"/>
                    <path d="M827.661 2.873v15.568l-31.474 17.99V21.209z" opacity=".647"/>
                    <path d="M827.661 3.565v14.876l-31.474 17.99V21.9z" opacity=".667"/>
                    <path d="M827.661 4.257v14.184l-31.474 17.99V22.247z" opacity=".686"/>
                    <path d="M827.661 4.95V18.44l-31.474 17.99V22.939z" opacity=".706"/>
                    <path d="M827.661 5.295v13.146l-31.474 17.99v-12.8z" opacity=".726"/>
                    <path d="M827.661 5.987V18.44l-31.474 17.99V24.322z" opacity=".745"/>
                    <path d="M827.661 6.679V18.44l-31.474 17.99V25.014z" opacity=".765"/>
                    <path d="M827.661 7.37v11.071l-31.474 17.99V25.706z" opacity=".784"/>
                    <path d="M827.661 8.063V18.44l-31.474 17.99V26.398z" opacity=".804"/>
                    <path d="M827.661 8.755v9.686l-31.474 17.99v-9.687z" opacity=".824"/>
                    <path d="M827.661 9.1v9.341l-31.474 17.99v-8.995z" opacity=".843"/>
                    <path d="M827.661 9.792v8.65L796.187 36.43v-8.303z" opacity=".863"/>
                    <path d="M827.661 10.484v7.957l-31.474 17.99V28.82z" opacity=".882"/>
                    <path d="M827.661 11.176v7.265l-31.474 17.99v-6.92z" opacity=".902"/>
                    <path d="M827.661 11.868v6.573l-31.474 17.99v-6.227z" opacity=".922"/>
                    <path d="M827.661 12.56v5.881l-31.474 17.99v-5.882z" opacity=".941"/>
                    <path d="M827.661 12.906v5.535l-31.474 17.99v-5.19z" opacity=".961"/>
                    <path d="M827.661 13.598v4.843l-31.474 17.99v-4.498z" opacity=".98"/>
                    <path d="M827.661 14.29v4.151l-31.474 17.99v-3.806z"/>
                </g>
                <path fill="url(#e)" d="M45.674 11.891c-3.458-2.076-8.992-2.076-12.45 0L.365 22.961v7.612c0 2.421 1.384 4.497 3.113 5.88l29.398 17.644c3.46 2.076 8.993 2.076 12.452 0l29.398-16.951c2.075-1.038 3.459-3.46 3.459-5.882v-8.648L45.674 11.89z" transform="translate(756.738 -39.462)"/>
                <path fill="#D9E6FF" fill-rule="nonzero" d="M802.413-37.603c-3.459-2.076-8.993-2.076-12.451 0l-30.09 17.298c-3.46 2.075-3.46 5.189 0 7.265l30.09 17.297c3.458 2.076 8.992 2.076 12.45 0l30.091-17.297c3.459-2.076 3.459-5.19 0-7.265l-30.09-17.298z"/>
                <path fill="#6B8BF5" fill-rule="nonzero" d="M798.262-23.765c-1.037-.692-3.112-.692-4.15 0l-10.376 5.881c-1.038.692-1.038 1.73 0 2.422l10.376 5.881c1.038.692 3.113.692 4.15 0l10.376-5.881c1.038-.692 1.038-1.73 0-2.422l-10.376-5.88z"/>
                <path fill="url(#f)" d="M75.765 61.016l-30.09 17.298c-3.46 2.075-8.993 2.075-12.452 0L3.133 61.016c-1.73-1.038-2.421-2.421-2.421-3.46v7.612c0 2.421 1.383 4.497 3.113 5.88l29.398 17.644c3.459 2.076 8.993 2.076 12.451 0l29.399-16.951c2.075-1.038 3.459-3.46 3.459-5.881v-8.65c0 1.385-1.038 2.768-2.767 3.806z" transform="translate(756.738 -39.462)"/>
                <path fill="url(#i)" fill-rule="nonzero" d="M69.54 45.102l-24.903 14.53c-2.767 1.73-7.61 1.73-10.376 0L9.359 45.102c-1.384-.691-2.076-1.73-2.076-3.113v6.227c0 2.076 1.038 3.805 2.767 4.843l24.21 14.53c2.768 1.73 7.61 1.73 10.377 0l24.21-13.838c1.73-1.038 2.767-2.767 2.767-4.843v-6.92c0 1.385-.691 2.423-2.075 3.114z" opacity=".38" transform="translate(756.738 -39.462)"/>
            </g>
            <g>
                <path fill="#D9E6FF" fill-rule="nonzero" d="M1103.918 260.11c-4.433-2.49-11.359-2.49-15.792 0l-38.231 22.144c-4.433 2.49-4.433 6.643 0 9.134l38.231 22.143c4.433 2.491 11.36 2.491 15.792 0l38.231-22.143c4.433-2.491 4.433-6.643 0-9.134l-38.231-22.144z"/>
                <g fill="#5269FF" fill-rule="nonzero" opacity=".21">
                    <path d="M1055.436 241.012v46.224l39.894 22.974v-45.948z"/>
                    <path d="M1055.436 241.842v45.394l39.894 22.974v-45.117z"/>
                    <path d="M1055.436 242.672v44.564l39.894 22.974v-44.287z"/>
                    <path d="M1055.436 243.503v43.733l39.894 22.974v-43.457z"/>
                    <path d="M1055.436 244.333v42.903l39.894 22.974v-42.903z"/>
                    <path d="M1055.436 245.164v42.072l39.894 22.974v-42.073z"/>
                    <path d="M1055.436 245.994v41.242l39.894 22.974v-41.242z"/>
                    <path d="M1055.436 246.824v40.412l39.894 22.974v-40.412z"/>
                    <path d="M1055.436 247.655v39.58l39.894 22.975v-39.582z"/>
                    <path d="M1055.436 248.485v38.75l39.894 22.975v-38.751z"/>
                    <path d="M1055.436 249.315v37.92l39.894 22.975v-37.92z"/>
                    <path d="M1055.436 249.869v37.367l39.894 22.974v-37.09z"/>
                    <path d="M1055.436 250.7v36.536l39.894 22.974v-36.26z"/>
                    <path d="M1055.436 251.53v35.706l39.894 22.974v-35.43z"/>
                    <path d="M1055.436 252.36v34.876l39.894 22.974v-34.6z"/>
                    <path d="M1055.436 253.19v34.046l39.894 22.974v-34.046z"/>
                    <path d="M1055.436 254.02v33.216l39.894 22.974v-33.215z"/>
                    <path d="M1055.436 254.851v32.385l39.894 22.974v-32.385z"/>
                    <path d="M1055.436 255.682v31.554l39.894 22.974v-31.555z"/>
                    <path d="M1055.436 256.512v30.724l39.894 22.974v-30.724z"/>
                    <path d="M1055.436 257.342v29.894l39.894 22.974v-29.894z"/>
                    <path d="M1055.436 258.173v29.063l39.894 22.974v-29.063z"/>
                    <path d="M1055.436 258.726v28.51l39.894 22.974v-28.233z"/>
                    <path d="M1055.436 259.557v27.679l39.894 22.974v-27.403z"/>
                    <path d="M1055.436 260.387v26.849l39.894 22.974v-26.572z"/>
                    <path d="M1055.436 261.218v26.018l39.894 22.974v-25.742z"/>
                    <path d="M1055.436 262.048v25.188l39.894 22.974v-25.188z"/>
                    <path d="M1055.436 262.878v24.358l39.894 22.974v-24.358z"/>
                    <path d="M1055.436 263.709v23.527l39.894 22.974v-23.528z"/>
                    <path d="M1055.436 264.539v22.697l39.894 22.974v-22.697z"/>
                    <path d="M1055.436 265.37v21.866l39.894 22.974v-21.867z"/>
                    <path d="M1055.436 266.2v21.036l39.894 22.974v-21.037z"/>
                    <path d="M1055.436 267.03v20.206l39.894 22.974v-20.206z"/>
                    <path d="M1055.436 267.584v19.652l39.894 22.974v-19.376z"/>
                    <path d="M1055.436 268.414v18.822l39.894 22.974v-18.545z"/>
                    <path d="M1055.436 269.244v17.992l39.894 22.974v-17.715z"/>
                    <path d="M1055.436 270.075v17.16l39.894 22.975v-16.885z"/>
                    <path d="M1055.436 270.905v16.33l39.894 22.975v-16.331z"/>
                    <path d="M1055.436 271.736v15.5l39.894 22.974v-15.5z"/>
                    <path d="M1055.436 272.566v14.67l39.894 22.974v-14.67z"/>
                    <path d="M1055.436 273.396v13.84l39.894 22.974v-13.84z"/>
                    <path d="M1055.436 274.227v13.009l39.894 22.974V297.2z"/>
                    <path d="M1055.436 275.057v12.179l39.894 22.974v-12.18z"/>
                    <path d="M1055.436 275.887v11.349l39.894 22.974V298.86z"/>
                    <path d="M1055.436 276.441v10.795l39.894 22.974v-10.518z"/>
                    <path d="M1055.436 277.271v9.965l39.894 22.974v-9.688z"/>
                    <path d="M1055.436 278.102v9.134l39.894 22.974v-8.858z"/>
                    <path d="M1055.436 278.932v8.304l39.894 22.974v-8.027z"/>
                    <path d="M1055.436 279.763v7.473l39.894 22.974v-7.197z"/>
                    <path d="M1055.436 280.593v6.643l39.894 22.974v-6.643z"/>
                    <path d="M1055.436 281.423v5.813l39.894 22.974v-5.813z"/>
                    <path d="M1055.436 282.254v4.982l39.894 22.974v-4.983z"/>
                </g>
                <g fill="#5269FF" fill-rule="nonzero" opacity=".21">
                    <path d="M1135.777 241.012v46.224l-39.893 22.974v-45.948z"/>
                    <path d="M1135.777 241.842v45.394l-39.893 22.974v-45.117z"/>
                    <path d="M1135.777 242.672v44.564l-39.893 22.974v-44.287z"/>
                    <path d="M1135.777 243.503v43.733l-39.893 22.974v-43.457z"/>
                    <path d="M1135.777 244.333v42.903l-39.893 22.974v-42.903z"/>
                    <path d="M1135.777 245.164v42.072l-39.893 22.974v-42.073z"/>
                    <path d="M1135.777 245.994v41.242l-39.893 22.974v-41.242z"/>
                    <path d="M1135.777 246.824v40.412l-39.893 22.974v-40.412z"/>
                    <path d="M1135.777 247.655v39.58l-39.893 22.975v-39.582z"/>
                    <path d="M1135.777 248.485v38.75l-39.893 22.975v-38.751z"/>
                    <path d="M1135.777 249.315v37.92l-39.893 22.975v-37.92z"/>
                    <path d="M1135.777 249.869v37.367l-39.893 22.974v-37.09z"/>
                    <path d="M1135.777 250.7v36.536l-39.893 22.974v-36.26z"/>
                    <path d="M1135.777 251.53v35.706l-39.893 22.974v-35.43z"/>
                    <path d="M1135.777 252.36v34.876l-39.893 22.974v-34.6z"/>
                    <path d="M1135.777 253.19v34.046l-39.893 22.974v-34.046z"/>
                    <path d="M1135.777 254.02v33.216l-39.893 22.974v-33.215z"/>
                    <path d="M1135.777 254.851v32.385l-39.893 22.974v-32.385z"/>
                    <path d="M1135.777 255.682v31.554l-39.893 22.974v-31.555z"/>
                    <path d="M1135.777 256.512v30.724l-39.893 22.974v-30.724z"/>
                    <path d="M1135.777 257.342v29.894l-39.893 22.974v-29.894z"/>
                    <path d="M1135.777 258.173v29.063l-39.893 22.974v-29.063z"/>
                    <path d="M1135.777 258.726v28.51l-39.893 22.974v-28.233z"/>
                    <path d="M1135.777 259.557v27.679l-39.893 22.974v-27.403z"/>
                    <path d="M1135.777 260.387v26.849l-39.893 22.974v-26.572z"/>
                    <path d="M1135.777 261.218v26.018l-39.893 22.974v-25.742z"/>
                    <path d="M1135.777 262.048v25.188l-39.893 22.974v-25.188z"/>
                    <path d="M1135.777 262.878v24.358l-39.893 22.974v-24.358z"/>
                    <path d="M1135.777 263.709v23.527l-39.893 22.974v-23.528z"/>
                    <path d="M1135.777 264.539v22.697l-39.893 22.974v-22.697z"/>
                    <path d="M1135.777 265.37v21.866l-39.893 22.974v-21.867z"/>
                    <path d="M1135.777 266.2v21.036l-39.893 22.974v-21.037z"/>
                    <path d="M1135.777 267.03v20.206l-39.893 22.974v-20.206z"/>
                    <path d="M1135.777 267.584v19.652l-39.893 22.974v-19.376z"/>
                    <path d="M1135.777 268.414v18.822l-39.893 22.974v-18.545z"/>
                    <path d="M1135.777 269.244v17.992l-39.893 22.974v-17.715z"/>
                    <path d="M1135.777 270.075v17.16l-39.893 22.975v-16.885z"/>
                    <path d="M1135.777 270.905v16.33l-39.893 22.975v-16.331z"/>
                    <path d="M1135.777 271.736v15.5l-39.893 22.974v-15.5z"/>
                    <path d="M1135.777 272.566v14.67l-39.893 22.974v-14.67z"/>
                    <path d="M1135.777 273.396v13.84l-39.893 22.974v-13.84z"/>
                    <path d="M1135.777 274.227v13.009l-39.893 22.974V297.2z"/>
                    <path d="M1135.777 275.057v12.179l-39.893 22.974v-12.18z"/>
                    <path d="M1135.777 275.887v11.349l-39.893 22.974V298.86z"/>
                    <path d="M1135.777 276.441v10.795l-39.893 22.974v-10.518z"/>
                    <path d="M1135.777 277.271v9.965l-39.893 22.974v-9.688z"/>
                    <path d="M1135.777 278.102v9.134l-39.893 22.974v-8.858z"/>
                    <path d="M1135.777 278.932v8.304l-39.893 22.974v-8.027z"/>
                    <path d="M1135.777 279.763v7.473l-39.893 22.974v-7.197z"/>
                    <path d="M1135.777 280.593v6.643l-39.893 22.974v-6.643z"/>
                    <path d="M1135.777 281.423v5.813l-39.893 22.974v-5.813z"/>
                    <path d="M1135.777 282.254v4.982l-39.893 22.974v-4.983z"/>
                </g>
                <path fill="url(#j)" d="M57.918 14.86c-4.433-2.491-11.359-2.491-15.792 0L.57 28.7v9.687c0 3.045 1.663 5.813 4.156 7.197l37.4 22.42c4.433 2.491 11.36 2.491 15.792 0L95.04 46.691c2.494-1.384 4.156-4.429 4.156-7.197V28.7l-41.28-13.84z" transform="translate(1046 214.25)"/>
                <path fill="#D9E6FF" fill-rule="nonzero" d="M1103.918 216.377c-4.433-2.49-11.359-2.49-15.792 0l-38.231 22.144c-4.433 2.49-4.433 6.643 0 9.134l38.231 22.143c4.433 2.491 11.36 2.491 15.792 0l38.231-22.143c4.433-2.491 4.433-6.643 0-9.134l-38.231-22.144z"/>
                <path fill="#6B8BF5" fill-rule="nonzero" d="M1099.61 236.367c-1.662-1.108-4.986-1.108-6.649 0l-16.622 9.41c-1.662 1.108-1.662 2.768 0 3.876l16.622 9.41c1.663 1.108 4.987 1.108 6.65 0l16.622-9.41c1.662-1.108 1.662-2.768 0-3.875l-16.623-9.411z"/>
                <path fill="#FFF" fill-rule="nonzero" d="M1076.339 249.653l16.622-8.304c1.663-1.107 4.987-1.107 6.65 0l16.068 8.857.554-.553c1.662-1.108 1.662-2.768 0-3.875l-16.623-9.411c-1.662-1.108-4.986-1.108-6.649 0l-16.622 9.41c-1.662 1.108-1.662 2.768 0 3.876z"/>
                <path fill="url(#k)" d="M28.028 7.332c-2.216-1.107-5.54-1.107-7.757 0L.324 13.975v4.429c0 1.66.554 2.768 2.217 3.321l17.73 10.518c2.216 1.107 5.541 1.107 7.757 0l17.73-9.964c1.11-.554 2.217-2.215 2.217-3.322v-4.982L28.028 7.332z" transform="translate(1071.582 216.856)"/>
                <path fill="#E9F3FF" fill-rule="nonzero" d="M1099.61 218.098c-2.216-1.107-5.54-1.107-7.757 0l-18.284 10.518c-2.217 1.108-2.217 3.322 0 4.43l18.284 10.517c2.217 1.107 5.541 1.107 7.757 0l18.285-10.518c2.216-1.107 2.216-3.321 0-4.429l-18.285-10.518z"/>
                <path fill="url(#l)" d="M96.15 77.138L57.917 99.281c-4.433 2.492-11.359 2.492-15.792 0L3.895 77.138C1.678 75.754.57 74.37.57 72.71v9.688c0 3.045 1.663 5.813 4.156 7.197l37.4 22.42c4.433 2.491 11.36 2.491 15.792 0L95.04 90.7c2.494-1.384 4.156-4.429 4.156-7.197V72.71c.277 1.384-.831 3.045-3.048 4.43z" transform="translate(1046 214.25)"/>
                <path fill="url(#m)" d="M87.284 57.486L56.256 75.477c-3.602 1.938-9.42 1.938-12.744 0L11.929 57.486c-1.662-1.107-2.77-2.491-2.77-3.598v7.75c0 2.49 1.385 4.705 3.324 5.812L42.958 85.72c3.601 1.937 9.419 1.937 12.743 0L86.176 68.28c2.216-1.107 3.601-3.599 3.601-6.09v-8.857c0 1.66-.83 3.045-2.493 4.152z" opacity=".403" transform="translate(1046 214.25)"/>
            </g>
            <g>
                <path fill="#D9E6FF" fill-rule="nonzero" d="M849.105 174.77c-5.534-3.114-14.18-3.114-19.715 0l-47.73 27.676c-5.533 3.113-5.533 8.303 0 11.416l47.73 27.676c5.534 3.114 14.18 3.114 19.715 0l47.729-27.676c5.534-3.113 5.534-8.303 0-11.416l-47.73-27.676z"/>
                <g fill="#5269FF" fill-rule="nonzero" opacity=".21">
                    <path d="M788.578 151.245v57.428l49.805 28.714v-57.428z"/>
                    <path d="M788.578 151.937v56.736l49.805 28.714v-56.39z"/>
                    <path d="M788.578 152.975v55.698l49.805 28.714v-55.352z"/>
                    <path d="M788.578 154.013v54.66l49.805 28.714v-54.315z"/>
                    <path d="M788.578 155.05v53.623l49.805 28.714V184.11z"/>
                    <path d="M788.578 156.088v52.585l49.805 28.714v-52.239z"/>
                    <path d="M788.578 157.126v51.547l49.805 28.714V185.84z"/>
                    <path d="M788.578 158.164v50.509l49.805 28.714v-50.51z"/>
                    <path d="M788.578 159.202v49.47l49.805 28.715v-49.471z"/>
                    <path d="M788.578 160.24v48.433l49.805 28.714v-48.433z"/>
                    <path d="M788.578 161.277v47.396l49.805 28.714V189.99z"/>
                    <path d="M788.578 162.315v46.358l49.805 28.714v-46.358z"/>
                    <path d="M788.578 163.007v45.666l49.805 28.714v-45.32z"/>
                    <path d="M788.578 164.045v44.628l49.805 28.714v-44.282z"/>
                    <path d="M788.578 165.083v43.59l49.805 28.714v-43.244z"/>
                    <path d="M788.578 166.12v42.553l49.805 28.714V195.18z"/>
                    <path d="M788.578 167.159v41.514l49.805 28.714v-41.168z"/>
                    <path d="M788.578 168.197v40.476l49.805 28.714V196.91z"/>
                    <path d="M788.578 169.234v39.439l49.805 28.714v-39.439z"/>
                    <path d="M788.578 170.272v38.4l49.805 28.715v-38.4z"/>
                    <path d="M788.578 171.31v37.363l49.805 28.714v-37.363z"/>
                    <path d="M788.578 172.348v36.325l49.805 28.714v-36.325z"/>
                    <path d="M788.578 173.386v35.287l49.805 28.714V202.1z"/>
                    <path d="M788.578 174.424v34.249l49.805 28.714v-34.25z"/>
                    <path d="M788.578 175.116v33.557l49.805 28.714v-33.212z"/>
                    <path d="M788.578 176.153v32.52l49.805 28.714v-32.174z"/>
                    <path d="M788.578 177.191v31.482l49.805 28.714V206.25z"/>
                    <path d="M788.578 178.23v30.443l49.805 28.714v-30.098z"/>
                    <path d="M788.578 179.267v29.406l49.805 28.714V207.98z"/>
                    <path d="M788.578 180.305v28.368l49.805 28.714v-28.368z"/>
                    <path d="M788.578 181.343v27.33l49.805 28.714v-27.33z"/>
                    <path d="M788.578 182.38v26.293l49.805 28.714v-26.293z"/>
                    <path d="M788.578 183.418v25.255l49.805 28.714v-25.255z"/>
                    <path d="M788.578 184.456v24.217l49.805 28.714V213.17z"/>
                    <path d="M788.578 185.494v23.179l49.805 28.714v-23.179z"/>
                    <path d="M788.578 186.186v22.487l49.805 28.714v-22.141z"/>
                    <path d="M788.578 187.224v21.449l49.805 28.714v-21.103z"/>
                    <path d="M788.578 188.262v20.41l49.805 28.715v-20.065z"/>
                    <path d="M788.578 189.3v19.373l49.805 28.714v-19.028z"/>
                    <path d="M788.578 190.337v18.336l49.805 28.714V219.05z"/>
                    <path d="M788.578 191.375v17.298l49.805 28.714v-17.298z"/>
                    <path d="M788.578 192.413v16.26l49.805 28.714v-16.26z"/>
                    <path d="M788.578 193.45v15.223l49.805 28.714v-15.222z"/>
                    <path d="M788.578 194.489v14.184l49.805 28.714v-14.184z"/>
                    <path d="M788.578 195.527v13.146l49.805 28.714V224.24z"/>
                    <path d="M788.578 196.565v12.108l49.805 28.714v-12.109z"/>
                    <path d="M788.578 197.256v11.417l49.805 28.714v-11.07z"/>
                    <path d="M788.578 198.294v10.379l49.805 28.714v-10.033z"/>
                    <path d="M788.578 199.332v9.34l49.805 28.715v-8.995z"/>
                    <path d="M788.578 200.37v8.303l49.805 28.714v-7.957z"/>
                    <path d="M788.578 201.408v7.265l49.805 28.714v-7.265z"/>
                    <path d="M788.578 202.446v6.227l49.805 28.714v-6.227z"/>
                </g>
                <g fill="#5269FF" fill-rule="nonzero" opacity=".21">
                    <path d="M888.88 151.245v57.428l-49.805 28.714v-57.428z"/>
                    <path d="M888.88 151.937v56.736l-49.805 28.714v-56.39z"/>
                    <path d="M888.88 152.975v55.698l-49.805 28.714v-55.352z"/>
                    <path d="M888.88 154.013v54.66l-49.805 28.714v-54.315z"/>
                    <path d="M888.88 155.05v53.623l-49.805 28.714V184.11z"/>
                    <path d="M888.88 156.088v52.585l-49.805 28.714v-52.239z"/>
                    <path d="M888.88 157.126v51.547l-49.805 28.714V185.84z"/>
                    <path d="M888.88 158.164v50.509l-49.805 28.714v-50.51z"/>
                    <path d="M888.88 159.202v49.47l-49.805 28.715v-49.471z"/>
                    <path d="M888.88 160.24v48.433l-49.805 28.714v-48.433z"/>
                    <path d="M888.88 161.277v47.396l-49.805 28.714V189.99z"/>
                    <path d="M888.88 162.315v46.358l-49.805 28.714v-46.358z"/>
                    <path d="M888.88 163.007v45.666l-49.805 28.714v-45.32z"/>
                    <path d="M888.88 164.045v44.628l-49.805 28.714v-44.282z"/>
                    <path d="M888.88 165.083v43.59l-49.805 28.714v-43.244z"/>
                    <path d="M888.88 166.12v42.553l-49.805 28.714V195.18z"/>
                    <path d="M888.88 167.159v41.514l-49.805 28.714v-41.168z"/>
                    <path d="M888.88 168.197v40.476l-49.805 28.714V196.91z"/>
                    <path d="M888.88 169.234v39.439l-49.805 28.714v-39.439z"/>
                    <path d="M888.88 170.272v38.4l-49.805 28.715v-38.4z"/>
                    <path d="M888.88 171.31v37.363l-49.805 28.714v-37.363z"/>
                    <path d="M888.88 172.348v36.325l-49.805 28.714v-36.325z"/>
                    <path d="M888.88 173.386v35.287l-49.805 28.714V202.1z"/>
                    <path d="M888.88 174.424v34.249l-49.805 28.714v-34.25z"/>
                    <path d="M888.88 175.116v33.557l-49.805 28.714v-33.212z"/>
                    <path d="M888.88 176.153v32.52l-49.805 28.714v-32.174z"/>
                    <path d="M888.88 177.191v31.482l-49.805 28.714V206.25z"/>
                    <path d="M888.88 178.23v30.443l-49.805 28.714v-30.098z"/>
                    <path d="M888.88 179.267v29.406l-49.805 28.714V207.98z"/>
                    <path d="M888.88 180.305v28.368l-49.805 28.714v-28.368z"/>
                    <path d="M888.88 181.343v27.33l-49.805 28.714v-27.33z"/>
                    <path d="M888.88 182.38v26.293l-49.805 28.714v-26.293z"/>
                    <path d="M888.88 183.418v25.255l-49.805 28.714v-25.255z"/>
                    <path d="M888.88 184.456v24.217l-49.805 28.714V213.17z"/>
                    <path d="M888.88 185.494v23.179l-49.805 28.714v-23.179z"/>
                    <path d="M888.88 186.186v22.487l-49.805 28.714v-22.141z"/>
                    <path d="M888.88 187.224v21.449l-49.805 28.714v-21.103z"/>
                    <path d="M888.88 188.262v20.41l-49.805 28.715v-20.065z"/>
                    <path d="M888.88 189.3v19.373l-49.805 28.714v-19.028z"/>
                    <path d="M888.88 190.337v18.336l-49.805 28.714V219.05z"/>
                    <path d="M888.88 191.375v17.298l-49.805 28.714v-17.298z"/>
                    <path d="M888.88 192.413v16.26l-49.805 28.714v-16.26z"/>
                    <path d="M888.88 193.45v15.223l-49.805 28.714v-15.222z"/>
                    <path d="M888.88 194.489v14.184l-49.805 28.714v-14.184z"/>
                    <path d="M888.88 195.527v13.146l-49.805 28.714V224.24z"/>
                    <path d="M888.88 196.565v12.108l-49.805 28.714v-12.109z"/>
                    <path d="M888.88 197.256v11.417l-49.805 28.714v-11.07z"/>
                    <path d="M888.88 198.294v10.379l-49.805 28.714v-10.033z"/>
                    <path d="M888.88 199.332v9.34l-49.805 28.715v-8.995z"/>
                    <path d="M888.88 200.37v8.303l-49.805 28.714v-7.957z"/>
                    <path d="M888.88 201.408v7.265l-49.805 28.714v-7.265z"/>
                    <path d="M888.88 202.446v6.227l-49.805 28.714v-6.227z"/>
                </g>
                <path fill="url(#n)" d="M71.614 82.12c-5.533-3.114-14.18-3.114-19.714 0L.02 99.416v12.108c0 3.806 2.075 7.265 5.188 8.995L51.9 148.542c5.534 3.113 14.18 3.113 19.714 0l46.346-26.638c3.113-1.73 5.188-5.536 5.188-8.995V99.417L71.614 82.119z" transform="translate(777.49 54.25)"/>
                <path fill="#D9E6FF" fill-rule="nonzero" d="M849.105 120.455c-5.534-3.113-14.18-3.113-19.715 0l-47.73 27.676c-5.533 3.114-5.533 8.303 0 11.417l47.73 27.676c5.534 3.113 14.18 3.113 19.715 0l47.729-27.676c5.534-3.114 5.534-8.303 0-11.417l-47.73-27.676z"/>
                <path fill="url(#o)" d="M119.344 159.612l-47.73 27.676c-5.533 3.114-14.18 3.114-19.714 0L4.17 159.612c-2.766-1.73-4.15-3.46-4.15-5.535v12.108c0 3.806 2.075 7.265 5.188 8.995L51.9 203.202c5.534 3.114 14.18 3.114 19.714 0l46.346-26.638c3.113-1.73 5.188-5.535 5.188-8.995v-13.492c0 1.73-1.383 3.806-3.804 5.535z" transform="translate(777.49 54.25)"/>
                <g fill-rule="nonzero">
                    <path fill="#3C55F9" d="M874.353 125.99c0-24.216-17.293-53.968-38.045-66.076-8.301-4.844-15.91-6.227-22.136-4.498l-9.684 2.422 1.038 2.422c-4.843 4.497-7.61 12.108-7.61 21.795 0 24.216 17.294 53.968 38.046 66.076 3.804 2.422 7.609 3.806 11.067 4.498l1.038 2.421 7.955-2.075 4.15-1.038c8.993-3.46 14.18-12.454 14.18-25.947z"/>
                    <g fill="#8996FF">
                        <path d="M830.774 57.492c-2.075-1.038-4.15-1.384-6.226-2.076l-24.902 14.53c-.692 2.076-1.038 4.152-1.384 6.573l32.512-19.027zM840.458 62.681c-1.383-1.037-2.767-1.73-4.15-2.767l-.346-.346-29.745 17.297v5.536l34.241-19.72zM814.864 88.628l33.203-19.374c-1.383-1.037-2.421-2.421-3.804-3.46l-29.399 17.299v5.535zM857.06 79.287l-25.595 14.876v5.535l28.361-16.605c-.691-1.038-1.729-2.422-2.766-3.806zM873.661 133.947l-30.09 17.298c1.383.346 2.767.692 3.804 1.038l.692 1.73 23.173-13.493c1.383-1.73 2.075-4.151 2.421-6.573zM816.593 55.07c-.691 0-1.729.346-2.42.346l-9.685 2.422 1.038 2.422c-.692.692-1.384 1.384-2.076 2.421l13.143-7.61zM847.375 117.688v5.535l24.557-14.53c-.346-1.73-1.038-3.114-1.384-4.843l-23.173 13.838zM845.992 128.758v5.535l27.67-16.26-1.039-5.189-26.631 15.914zM851.18 72.368l-28.015 16.606v5.535l31.128-18.336c-1.038-1.383-2.076-2.767-3.113-3.805zM848.759 105.925v5.536l20.06-11.763c-.692-1.384-1.384-3.113-2.075-4.497l-17.985 10.724zM842.533 147.44l31.82-18.336v-2.768-2.767l-31.82 18.681v5.19zM864.669 91.395c-.692-1.383-1.384-2.767-2.421-4.151l-22.136 13.146v5.535l24.557-14.53z"/>
                    </g>
                    <path fill="#9BA6FF" d="M827.315 62.335c-21.098-12.108-38.045-2.075-38.045 22.141 0 24.217 17.293 53.969 38.045 66.077 21.098 12.108 38.045 2.076 38.045-22.14 0-24.217-17.293-53.97-38.045-66.078z"/>
                    <path fill="#5269FF" d="M827.315 67.525c-18.677-10.725-33.549-2.076-33.549 19.373s15.218 47.741 33.55 58.466c18.676 10.724 33.548 2.075 33.548-19.374 0-21.794-15.218-47.74-33.549-58.465z"/>
                    <path fill="#E1E4FF" d="M827.315 70.292c-16.947-9.686-31.128-1.73-31.128 17.99 0 19.719 13.835 43.936 31.128 53.622 16.948 9.687 31.128 1.73 31.128-17.99 0-19.718-14.18-43.59-31.128-53.622z"/>
                    <path fill="#5269FF" d="M835.962 112.152l-1.73-1.037c1.038-1.038 1.73-2.768 1.73-4.152v-5.881c0-3.46-2.075-6.92-4.842-8.303l-2.767-1.73v-5.535l-4.842-2.767v5.535l-2.076-1.038v-5.535l-4.842-2.768v4.843l-3.113-1.73v5.882l3.113 1.73v11.07l-3.113-1.73v5.535l3.113 1.73v11.07l-3.113-1.73v5.882l3.113 1.73v4.497l4.842 2.768v-4.152l2.076 1.038v4.152l4.842 2.767v-4.151l3.458 2.076c1.038.691 2.076.691 3.113.691 1.038 0 2.075-.345 3.113-.691 2.075-1.038 3.113-3.114 3.113-5.19v-5.88c-.346-4.152-2.075-7.266-5.188-8.996zm-14.527-19.719l7.264 4.152c1.383.692 2.42 2.421 2.42 4.151v5.881c0 .692-.345 1.038-.691 1.038s-.692.346-1.384 0l-7.609-4.497V92.433zm14.527 34.25c0 .691-.346 1.037-.692 1.037s-.692.346-1.383 0l-12.797-7.61v-10.725l12.105 6.919c1.383.692 2.42 2.421 2.42 4.151l.347 6.227z"/>
                </g>
            </g>
            <g>
                <path fill="#D9E6FF" fill-rule="nonzero" d="M1065.962 11.868c-4.496-2.768-12.105-2.768-16.601 0l-39.775 23.179c-4.496 2.767-4.496 6.919 0 9.686l39.775 23.18c4.496 2.767 12.105 2.767 16.601 0l39.775-23.18c4.496-2.767 4.496-6.919 0-9.686l-39.775-23.179z"/>
                <g fill="#3C55F9" fill-rule="nonzero" opacity=".21">
                    <path d="M1015.466-8.197V39.89l41.85 24.217V16.02z"/>
                    <path d="M1015.466-7.505V39.89l41.85 24.217V16.71z"/>
                    <path d="M1015.466-6.467V39.89l41.85 24.217V17.749z"/>
                    <path d="M1015.466-5.775V39.89l41.85 24.217V18.44z"/>
                    <path d="M1015.466-4.738V39.89l41.85 24.217V19.133z"/>
                    <path d="M1015.466-4.046V39.89l41.85 24.217V20.17z"/>
                    <path d="M1015.466-3.008V39.89l41.85 24.217V20.863z"/>
                    <path d="M1015.466-2.316V39.89l41.85 24.217V21.9z"/>
                    <path d="M1015.466-1.624V39.89l41.85 24.217V22.593z"/>
                    <path d="M1015.466-.586V39.89l41.85 24.217V23.63z"/>
                    <path d="M1015.466.106V39.89l41.85 24.217V24.322z"/>
                    <path d="M1015.466 1.144V39.89l41.85 24.217V25.36z"/>
                    <path d="M1015.466 1.836V39.89l41.85 24.217V26.052z"/>
                    <path d="M1015.466 2.873V39.89l41.85 24.217V26.744z"/>
                    <path d="M1015.466 3.565V39.89l41.85 24.217V27.782z"/>
                    <path d="M1015.466 4.603V39.89l41.85 24.217V28.474z"/>
                    <path d="M1015.466 5.295V39.89l41.85 24.217V29.512z"/>
                    <path d="M1015.466 5.987V39.89l41.85 24.217V30.204z"/>
                    <path d="M1015.466 7.025V39.89l41.85 24.217V31.24z"/>
                    <path d="M1015.466 7.717V39.89l41.85 24.217V31.933z"/>
                    <path d="M1015.466 8.755V39.89l41.85 24.217V32.625z"/>
                    <path d="M1015.466 9.446V39.89l41.85 24.217V33.663z"/>
                    <path d="M1015.466 10.484V39.89l41.85 24.217V34.355z"/>
                    <path d="M1015.466 11.176V39.89l41.85 24.217V35.393z"/>
                    <path d="M1015.466 11.868V39.89l41.85 24.217V36.085z"/>
                    <path d="M1015.466 12.906V39.89l41.85 24.217V37.123z"/>
                    <path d="M1015.466 13.598V39.89l41.85 24.217V37.814z"/>
                    <path d="M1015.466 14.636V39.89l41.85 24.217V38.852z"/>
                    <path d="M1015.466 15.328V39.89l41.85 24.217V39.544z"/>
                    <path d="M1015.466 16.365V39.89l41.85 24.217v-23.87z"/>
                    <path d="M1015.466 17.057V39.89l41.85 24.217V41.274z"/>
                    <path d="M1015.466 17.75v22.14l41.85 24.217V41.966z"/>
                    <path d="M1015.466 18.787V39.89l41.85 24.217V43.004z"/>
                    <path d="M1015.466 19.479V39.89l41.85 24.217V43.696z"/>
                    <path d="M1015.466 20.517V39.89l41.85 24.217V44.733z"/>
                    <path d="M1015.466 21.209V39.89l41.85 24.217V45.425z"/>
                    <path d="M1015.466 22.247V39.89l41.85 24.217v-17.99z"/>
                    <path d="M1015.466 22.939V39.89l41.85 24.217V47.155z"/>
                    <path d="M1015.466 23.976V39.89l41.85 24.217v-16.26z"/>
                    <path d="M1015.466 24.668V39.89l41.85 24.217V48.885z"/>
                    <path d="M1015.466 25.36v14.53l41.85 24.217v-14.53z"/>
                    <path d="M1015.466 26.398V39.89l41.85 24.217V50.615z"/>
                    <path d="M1015.466 27.09v12.8l41.85 24.217v-12.8z"/>
                    <path d="M1015.466 28.128V39.89l41.85 24.217V51.998z"/>
                    <path d="M1015.466 28.82v11.07l41.85 24.217v-11.07z"/>
                    <path d="M1015.466 29.858V39.89l41.85 24.217V53.728z"/>
                    <path d="M1015.466 30.55v9.34l41.85 24.217v-9.341z"/>
                    <path d="M1015.466 31.241v8.65l41.85 24.216v-8.65z"/>
                    <path d="M1015.466 32.28v7.61l41.85 24.217v-7.611z"/>
                    <path d="M1015.466 32.971v6.92l41.85 24.216v-6.92z"/>
                    <path d="M1015.466 34.009v5.881l41.85 24.217v-5.881z"/>
                    <path d="M1015.466 34.7v5.19l41.85 24.217v-5.19z"/>
                </g>
                <g fill="#5269FF" fill-rule="nonzero" opacity=".21">
                    <path d="M1099.511-8.197V39.89l-41.85 24.217V16.02z"/>
                    <path d="M1099.511-7.505V39.89l-41.85 24.217V16.71z"/>
                    <path d="M1099.511-6.467V39.89l-41.85 24.217V17.749z"/>
                    <path d="M1099.511-5.775V39.89l-41.85 24.217V18.44z"/>
                    <path d="M1099.511-4.738V39.89l-41.85 24.217V19.133z"/>
                    <path d="M1099.511-4.046V39.89l-41.85 24.217V20.17z"/>
                    <path d="M1099.511-3.008V39.89l-41.85 24.217V20.863z"/>
                    <path d="M1099.511-2.316V39.89l-41.85 24.217V21.9z"/>
                    <path d="M1099.511-1.624V39.89l-41.85 24.217V22.593z"/>
                    <path d="M1099.511-.586V39.89l-41.85 24.217V23.63z"/>
                    <path d="M1099.511.106V39.89l-41.85 24.217V24.322z"/>
                    <path d="M1099.511 1.144V39.89l-41.85 24.217V25.36z"/>
                    <path d="M1099.511 1.836V39.89l-41.85 24.217V26.052z"/>
                    <path d="M1099.511 2.873V39.89l-41.85 24.217V26.744z"/>
                    <path d="M1099.511 3.565V39.89l-41.85 24.217V27.782z"/>
                    <path d="M1099.511 4.603V39.89l-41.85 24.217V28.474z"/>
                    <path d="M1099.511 5.295V39.89l-41.85 24.217V29.512z"/>
                    <path d="M1099.511 5.987V39.89l-41.85 24.217V30.204z"/>
                    <path d="M1099.511 7.025V39.89l-41.85 24.217V31.24z"/>
                    <path d="M1099.511 7.717V39.89l-41.85 24.217V31.933z"/>
                    <path d="M1099.511 8.755V39.89l-41.85 24.217V32.625z"/>
                    <path d="M1099.511 9.446V39.89l-41.85 24.217V33.663z"/>
                    <path d="M1099.511 10.484V39.89l-41.85 24.217V34.355z"/>
                    <path d="M1099.511 11.176V39.89l-41.85 24.217V35.393z"/>
                    <path d="M1099.511 11.868V39.89l-41.85 24.217V36.085z"/>
                    <path d="M1099.511 12.906V39.89l-41.85 24.217V37.123z"/>
                    <path d="M1099.511 13.598V39.89l-41.85 24.217V37.814z"/>
                    <path d="M1099.511 14.636V39.89l-41.85 24.217V38.852z"/>
                    <path d="M1099.511 15.328V39.89l-41.85 24.217V39.544z"/>
                    <path d="M1099.511 16.365V39.89l-41.85 24.217v-23.87z"/>
                    <path d="M1099.511 17.057V39.89l-41.85 24.217V41.274z"/>
                    <path d="M1099.511 17.75v22.14l-41.85 24.217V41.966z"/>
                    <path d="M1099.511 18.787V39.89l-41.85 24.217V43.004z"/>
                    <path d="M1099.511 19.479V39.89l-41.85 24.217V43.696z"/>
                    <path d="M1099.511 20.517V39.89l-41.85 24.217V44.733z"/>
                    <path d="M1099.511 21.209V39.89l-41.85 24.217V45.425z"/>
                    <path d="M1099.511 22.247V39.89l-41.85 24.217v-17.99z"/>
                    <path d="M1099.511 22.939V39.89l-41.85 24.217V47.155z"/>
                    <path d="M1099.511 23.976V39.89l-41.85 24.217v-16.26z"/>
                    <path d="M1099.511 24.668V39.89l-41.85 24.217V48.885z"/>
                    <path d="M1099.511 25.36v14.53l-41.85 24.217v-14.53z"/>
                    <path d="M1099.511 26.398V39.89l-41.85 24.217V50.615z"/>
                    <path d="M1099.511 27.09v12.8l-41.85 24.217v-12.8z"/>
                    <path d="M1099.511 28.128V39.89l-41.85 24.217V51.998z"/>
                    <path d="M1099.511 28.82v11.07l-41.85 24.217v-11.07z"/>
                    <path d="M1099.511 29.858V39.89l-41.85 24.217V53.728z"/>
                    <path d="M1099.511 30.55v9.34l-41.85 24.217v-9.341z"/>
                    <path d="M1099.511 31.241v8.65l-41.85 24.216v-8.65z"/>
                    <path d="M1099.511 32.28v7.61l-41.85 24.217v-7.611z"/>
                    <path d="M1099.511 32.971v6.92l-41.85 24.216v-6.92z"/>
                    <path d="M1099.511 34.009v5.881l-41.85 24.217v-5.881z"/>
                    <path d="M1099.511 34.7v5.19l-41.85 24.217v-5.19z"/>
                </g>
                <path fill="url(#p)" d="M60.2 19.473c-4.495-2.768-12.104-2.768-16.6 0L.365 34.003v10.032c0 3.114 1.73 5.881 4.15 7.611L43.6 75.171c4.497 2.767 12.106 2.767 16.602 0L98.938 53.03c2.767-1.73 4.496-4.497 4.496-7.611v-11.07L60.201 19.473z" transform="translate(1005.761 -40.124)"/>
                <path fill="#D9E6FF" d="M1065.962-34.143c-4.496-2.768-12.105-2.768-16.601 0l-39.775 23.178c-4.496 2.768-4.496 6.92 0 9.687l39.775 23.179c4.496 2.767 12.105 2.767 16.601 0l39.775-23.18c4.496-2.767 4.496-6.918 0-9.686l-39.775-23.178z"/>
                <path fill="#6B8BF5" fill-rule="nonzero" d="M1061.856-20.759c-1.666-1.099-4.997-1.099-6.662 0l-16.657 9.341c-1.665 1.099-1.665 2.747 0 3.846l16.657 9.34c1.665 1.1 4.996 1.1 6.662 0l16.656-9.34c1.666-1.099 1.666-2.747 0-3.846l-16.656-9.34z"/>
                <path fill="#FFF" fill-rule="nonzero" d="M1038.537-7.572l16.657-8.242c1.665-1.099 4.996-1.099 6.662 0l16.101 8.792.555-.55c1.666-1.099 1.666-2.747 0-3.846l-16.656-9.34c-1.666-1.1-4.997-1.1-6.662 0l-16.657 9.34c-1.665 1.099-1.665 2.747 0 3.846z"/>
                <path fill="url(#q)" d="M28.085 7.277c-2.22-1.099-5.552-1.099-7.773 0L.325 13.871v4.395c0 1.649.555 2.748 2.22 3.297l17.767 10.44c2.221 1.099 5.552 1.099 7.773 0l17.767-9.89c1.11-.55 2.22-2.198 2.22-3.297V13.87L28.085 7.277z" transform="translate(1033.771 -40.124)"/>
                <path fill="url(#r)" d="M100.321 84.511l-39.774 23.18c-4.497 2.767-12.106 2.767-16.602 0L4.171 84.51C1.75 83.128.712 81.398.712 79.668v10.033c0 3.113 1.73 5.88 4.15 7.61l39.083 23.525c4.496 2.768 12.105 2.768 16.602 0l38.737-22.14c2.767-1.73 4.496-4.498 4.496-7.611v-11.07c-.346 1.383-1.384 3.113-3.459 4.496z" transform="translate(1005.761 -40.124)"/>
            </g>
        </g>
    </g>
</svg>
