<svg xmlns="http://www.w3.org/2000/svg" width="21" height="20" viewBox="0 0 21 20">
    <g fill="none" fill-rule="nonzero">
        <path fill="#B8C2FF" d="M1.886 12.166a1.424 1.424 0 0 0 0 2.016l.448.447-1.253 1.25a.438.438 0 0 0 0 .62l1.847 1.844a.44.44 0 0 0 .622 0l1.251-1.25.447.445a1.43 1.43 0 0 0 2.02 0L9.5 15.31l-5.383-5.37-2.23 2.225z"/>
        <path fill="#FFF" d="M10.205 10.723l-1.334 1.333-1.425-1.422L8.781 9.3a.953.953 0 0 0 0-1.35.958.958 0 0 0-1.353 0L6.093 9.283l-.626-.624a.958.958 0 0 0-1.353 0 .953.953 0 0 0 0 1.35l1.3 1.298c.002 0 .002.001.002.002h.002l4.078 4.071a.954.954 0 0 0 1.353 0 .953.953 0 0 0 0-1.35l-.625-.624 1.334-1.333a.953.953 0 0 0 0-1.35.958.958 0 0 0-1.353 0z"/>
        <g>
            <path fill="#B8C2FF" d="M19.026 2.293L17.18.449a.44.44 0 0 0-.622 0l-1.251 1.249-.447-.445a1.43 1.43 0 0 0-2.02 0l-2.23 2.226L15.99 8.85l2.231-2.227a1.424 1.424 0 0 0 0-2.016l-.446-.446 1.251-1.249a.438.438 0 0 0 0-.62z"/>
            <path fill="#FFF" d="M10.678 3.404a.958.958 0 0 0-1.353 0 .953.953 0 0 0 0 1.35l5.383 5.372a.955.955 0 0 0 1.353 0 .953.953 0 0 0 0-1.35l-5.383-5.372z"/>
        </g>
    </g>
</svg>
