<svg xmlns="http://www.w3.org/2000/svg" width="21" height="19" viewBox="0 0 21 19">
    <defs>
        <linearGradient id="a" x1="0%" x2="99.393%" y1="32.569%" y2="32.569%">
            <stop offset="0%" stop-color="#5269FF"/>
            <stop offset="100%" stop-color="#4890FF"/>
        </linearGradient>
        <linearGradient id="b" x1="0%" x2="99.393%" y1="32.569%" y2="32.569%">
            <stop offset="0%" stop-color="#5269FF"/>
            <stop offset="100%" stop-color="#4890FF"/>
        </linearGradient>
    </defs>
    <g fill="none" fill-rule="evenodd">
        <path fill="url(#a)" d="M.933 4.495a1.424 1.424 0 0 0 0 2.016l.448.447L.13 8.208a.438.438 0 0 0 0 .62l1.847 1.843a.44.44 0 0 0 .621 0L3.85 9.42l.446.445a1.43 1.43 0 0 0 2.02 0L8.548 7.64 3.164 2.27.934 4.494z" transform="translate(.952 7.672)"/>
        <path fill="#B8C2FF" fill-rule="nonzero" d="M10.205 10.723l-1.334 1.333-1.425-1.422L8.781 9.3a.953.953 0 0 0 0-1.35.958.958 0 0 0-1.353 0L6.093 9.283l-.626-.624a.958.958 0 0 0-1.353 0 .953.953 0 0 0 0 1.35l1.3 1.298c.002 0 .002.001.002.002h.002l4.078 4.071a.954.954 0 0 0 1.353 0 .953.953 0 0 0 0-1.35l-.625-.624 1.334-1.333a.953.953 0 0 0 0-1.35.958.958 0 0 0-1.353 0z"/>
        <g>
            <path fill="url(#b)" d="M9.981 1.972L8.134.13a.44.44 0 0 0-.622 0L6.261 1.378 5.814.932a1.43 1.43 0 0 0-2.02 0l-2.23 2.226L6.944 8.53l2.231-2.226a1.424 1.424 0 0 0 0-2.017l-.446-.445 1.251-1.25a.438.438 0 0 0 0-.62z" transform="translate(9.045 .32)"/>
            <path fill="#B8C2FF" fill-rule="nonzero" d="M10.678 3.404a.958.958 0 0 0-1.353 0 .953.953 0 0 0 0 1.35l5.383 5.372a.955.955 0 0 0 1.353 0 .953.953 0 0 0 0-1.35l-5.383-5.372z"/>
        </g>
    </g>
</svg>
