<svg height="19" viewBox="0 0 21 19" width="21" xmlns="http://www.w3.org/2000/svg" xmlns:xlink="http://www.w3.org/1999/xlink"><linearGradient id="a" x1="0%" x2="99.393%" y1="32.569%" y2="32.569%"><stop offset="0" stop-color="#5269ff"/><stop offset="1" stop-color="#4890ff"/></linearGradient><g fill="none" fill-rule="evenodd"><path d="m.933 4.495a1.424 1.424 0 0 0 0 2.016l.448.447-1.251 1.25a.438.438 0 0 0 0 .62l1.847 1.843a.44.44 0 0 0 .621 0l1.252-1.251.446.445a1.43 1.43 0 0 0 2.02 0l2.232-2.225-5.384-5.37-2.23 2.224z" fill="url(#a)" transform="translate(.952 7.672)"/><path d="m10.205 10.723-1.334 1.333-1.425-1.422 1.335-1.334a.953.953 0 0 0 0-1.35.958.958 0 0 0 -1.353 0l-1.335 1.333-.626-.624a.958.958 0 0 0 -1.353 0 .953.953 0 0 0 0 1.35l1.3 1.298c.002 0 .002.001.002.002h.002l4.078 4.071a.954.954 0 0 0 1.353 0 .953.953 0 0 0 0-1.35l-.625-.624 1.334-1.333a.953.953 0 0 0 0-1.35.958.958 0 0 0 -1.353 0z" fill="#b8c2ff" fill-rule="nonzero"/><path d="m9.981 1.972-1.847-1.842a.44.44 0 0 0 -.622 0l-1.251 1.248-.447-.446a1.43 1.43 0 0 0 -2.02 0l-2.23 2.226 5.38 5.372 2.231-2.226a1.424 1.424 0 0 0 0-2.017l-.446-.445 1.251-1.25a.438.438 0 0 0 0-.62z" fill="url(#a)" transform="translate(9.045 .32)"/><path d="m10.678 3.404a.958.958 0 0 0 -1.353 0 .953.953 0 0 0 0 1.35l5.383 5.372a.955.955 0 0 0 1.353 0 .953.953 0 0 0 0-1.35z" fill="#b8c2ff" fill-rule="nonzero"/></g></svg>