<svg xmlns="http://www.w3.org/2000/svg" xmlns:xlink="http://www.w3.org/1999/xlink" width="315" height="210" viewBox="0 0 315 210">
    <defs>
        <linearGradient id="a" x1="30.408%" x2="77.725%" y1="59.698%" y2="40.834%">
            <stop offset="0%" stop-color="#8CF6E9"/>
            <stop offset="100%" stop-color="#E3AFFF"/>
        </linearGradient>
        <linearGradient id="d" x1="79.74%" x2="21.725%" y1="43.988%" y2="56.012%">
            <stop offset="0%" stop-color="#7CB3FF"/>
            <stop offset="100%" stop-color="#4B6ED8"/>
        </linearGradient>
        <path id="c" d="M59.905 142.294c32.038 0 58.01-11.927 58.01-26.64 0-14.712.192.187 0-13.654H1.891c-.209 13.895.003 8.97.003 13.655 0 14.712 25.972 26.64 58.01 26.64z"/>
        <filter id="b" width="205.9%" height="405.3%" x="-37.4%" y="-108%" filterUnits="objectBoundingBox">
            <feOffset dx="18" dy="18" in="SourceAlpha" result="shadowOffsetOuter1"/>
            <feGaussianBlur in="shadowOffsetOuter1" result="shadowBlurOuter1" stdDeviation="17.5"/>
            <feColorMatrix in="shadowBlurOuter1" values="0 0 0 0 0.0315714605 0 0 0 0 0.136538037 0 0 0 0 0.200492527 0 0 0 0.254589161 0"/>
        </filter>
        <linearGradient id="e" x1="79.74%" x2="5.566%" y1="40.513%" y2="53.188%">
            <stop offset="0%" stop-color="#CCD2FF"/>
            <stop offset="100%" stop-color="#7E8AFA"/>
        </linearGradient>
        <radialGradient id="f" cy="44.26%" r="114.788%" fx="50%" fy="44.26%" gradientTransform="matrix(-.43559 0 0 -.33564 .718 .591)">
            <stop offset="0%" stop-color="#182975" stop-opacity=".642"/>
            <stop offset="100%" stop-color="#6775EA" stop-opacity="0"/>
        </radialGradient>
        <linearGradient id="g" x1="0%" y1="50%" y2="50%">
            <stop offset="0%" stop-color="#272B44"/>
            <stop offset="100%" stop-color="#4D4E68"/>
        </linearGradient>
        <linearGradient id="h" x1="47.058%" x2="47.058%" y1="25.718%" y2="99.814%">
            <stop offset="0%" stop-color="#FFF" stop-opacity="0"/>
            <stop offset="67.59%" stop-color="#8AB3FF" stop-opacity=".305"/>
            <stop offset="100%" stop-color="#9FA6FF" stop-opacity=".698"/>
        </linearGradient>
        <linearGradient id="k" x1="79.74%" x2="21.725%" y1="44.709%" y2="55.291%">
            <stop offset="0%" stop-color="#A1DAFF"/>
            <stop offset="100%" stop-color="#4B92D8"/>
        </linearGradient>
        <path id="j" d="M42.613 45.376c22.884 0 41.435-7.992 41.435-17.85 0-9.86.138.124 0-9.15H1.175c-.15 9.31.002 6.01.002 9.15 0 9.858 18.551 17.85 41.436 17.85z"/>
        <filter id="i" width="204.8%" height="422.2%" x="-38%" y="-116.7%" filterUnits="objectBoundingBox">
            <feOffset dx="12" dy="12" in="SourceAlpha" result="shadowOffsetOuter1"/>
            <feGaussianBlur in="shadowOffsetOuter1" result="shadowBlurOuter1" stdDeviation="12.5"/>
            <feColorMatrix in="shadowBlurOuter1" values="0 0 0 0 0.0315714605 0 0 0 0 0.136538037 0 0 0 0 0.200492527 0 0 0 0.299415428 0"/>
        </filter>
        <linearGradient id="l" x1="79.74%" x2="5.688%" y1="40.254%" y2="53.254%">
            <stop offset="0%" stop-color="#DEE2FF"/>
            <stop offset="100%" stop-color="#A3ACFE"/>
        </linearGradient>
        <path id="m" d="M0 .035h13.876v23.903H0z"/>
        <linearGradient id="n" x1="0%" x2="97.588%" y1="50%" y2="50%">
            <stop offset="0%" stop-color="#282C45"/>
            <stop offset="100%" stop-color="#343750"/>
        </linearGradient>
        <path id="p" d="M.03.074h13.875v31.869H.03z"/>
        <linearGradient id="q" x1="100%" x2="0%" y1="50%" y2="50%">
            <stop offset="0%" stop-color="#8486A1"/>
            <stop offset="100%" stop-color="#4D4E68"/>
        </linearGradient>
        <path id="s" d="M0 .074h13.875v31.869H0z"/>
        <linearGradient id="t" x1="0%" y1="50%" y2="50%">
            <stop offset="0%" stop-color="#282C45"/>
            <stop offset="100%" stop-color="#3B3E57"/>
        </linearGradient>
        <radialGradient id="v" cx="56.443%" r="68.215%" fx="56.443%" fy="50%" gradientTransform="matrix(-.43982 -.08714 .01291 -.33436 .806 .716)">
            <stop offset="0%" stop-color="#182975" stop-opacity=".439"/>
            <stop offset="100%" stop-color="#6775EA" stop-opacity="0"/>
        </radialGradient>
        <linearGradient id="w" x1="47.058%" x2="47.058%" y1="25.718%" y2="99.814%">
            <stop offset="0%" stop-color="#FFF" stop-opacity="0"/>
            <stop offset="67.59%" stop-color="#8AB3FF" stop-opacity=".297"/>
            <stop offset="100%" stop-color="#707BFF" stop-opacity=".49"/>
        </linearGradient>
    </defs>
    <g fill="none" fill-rule="evenodd">
        <path stroke="url(#a)" stroke-dasharray="6.322250199317931,6.322250199317931" stroke-width="3.574" d="M141.046 178.733c53.296 0 96.5-19.028 96.5-42.5s-43.204-42.5-96.5-42.5c-53.295 0-96.5 19.028-96.5 42.5s43.205 42.5 96.5 42.5z" transform="translate(14 -4)"/>
        <g transform="translate(14 -4)">
            <use fill="#000" filter="url(#b)" xlink:href="#c"/>
            <use fill="url(#d)" xlink:href="#c"/>
        </g>
        <path fill="url(#e)" d="M59.28 50.589c32.07 0 58.07-11.325 58.07-25.295 0-6.343-5.361-12.14-14.216-16.58C92.487 3.374 76.788 0 59.28 0 27.208 0 1.21 11.325 1.21 25.294c0 13.97 25.998 25.295 58.07 25.295z" transform="translate(14.62 74.402)"/>
        <path fill="url(#f)" d="M59.081 50.589c32.071 0 58.07-11.325 58.07-25.295 0-6.343-5.36-12.14-14.215-16.58C92.289 3.374 76.59 0 59.08 0c-32.07 0-58.07 11.325-58.07 25.294 0 13.97 26 25.295 58.07 25.295z" transform="translate(14.62 74.402)"/>
        <g transform="translate(42.946 32.9)">
            <ellipse cx="30.982" cy="30.847" fill="#FFF" rx="28.032" ry="27.909"/>
            <path fill="url(#g)" fill-rule="nonzero" d="M30.245 0C13.54 0 0 13.482 0 30.112s13.541 30.113 30.245 30.113c16.703 0 30.244-13.482 30.244-30.113A30.045 30.045 0 0 0 51.631 8.82 30.312 30.312 0 0 0 30.245 0zm12.511 42.673L30.235 49.94v.002h-.004v-.002l-12.527-7.267V17.526l.013.007 12.51-7.25 8.026 4.497.004-.002V26.13L34.35 23.88v-6.841l-4.12-2.357-8.621 5.005v20.845l8.622 5.006 8.622-4.99.041-8.565-12.251-7.136 3.936-2.078 12.206 7.145-.029 12.76zM32.43 29.891l2.978 1.731-8.852 5.1V26.44l3.11 1.856v3.087l2.764-1.492z"/>
        </g>
        <path fill="url(#h)" d="M2.057 14.917c.644 53.702.644 82.889 0 87.56-.965 7.009 9.965 25.482 57.496 25.482 47.53 0 60.535-18.473 58.36-26.843-1.452-5.58-1.452-34.952 0-88.116" transform="translate(14 -4)"/>
        <text fill="#B9FFF9" font-family="SourceCodeProForPowerline-Semibold, Source Code Pro for Powerline" font-size="15.2" font-weight="500" transform="translate(14 -4)">
            <tspan x="19.353" y="15.8">{band.js}</tspan>
        </text>
        <g>
            <g transform="translate(194.8 128.173)">
                <use fill="#000" filter="url(#i)" xlink:href="#j"/>
                <use fill="url(#k)" xlink:href="#j"/>
            </g>
            <path fill="url(#l)" d="M42.488 36.751c22.987 0 41.621-8.227 41.621-18.375 0-4.608-3.842-8.82-10.189-12.046C66.29 2.452 55.037 0 42.488 0 19.501 0 .868 8.227.868 18.376c0 10.148 18.633 18.375 41.62 18.375z" transform="translate(194.8 128.173)"/>
            <path fill="#FFF" d="M222.029 118.433l13.874 7.966 13.866-7.966-13.876-7.965z"/>
            <path fill="#FFF" d="M222.029 114.993l13.874 7.967 13.866-7.966-13.876-7.965z"/>
            <g transform="translate(222.023 118.397)">
                <mask id="o" fill="#fff">
                    <use xlink:href="#m"/>
                </mask>
                <path fill="url(#n)" d="M13.874 8.001L0 .035l13.876 23.903z" mask="url(#o)"/>
            </g>
            <path fill="#4D4E68" d="M249.762 118.433L235.9 142.335l-.002-15.936z"/>
            <g transform="translate(235.857 91.016)">
                <mask id="r" fill="#fff">
                    <use xlink:href="#p"/>
                </mask>
                <path fill="url(#q)" d="M.04 31.943l13.865-7.966L.03.074z" mask="url(#r)"/>
            </g>
            <g transform="translate(222.023 91.016)">
                <mask id="u" fill="#fff">
                    <use xlink:href="#s"/>
                </mask>
                <path fill="url(#t)" d="M0 23.976L13.865.074l.01 31.869z" mask="url(#u)"/>
            </g>
            <path fill="url(#v)" d="M41.621 76.187c22.987 0 41.621-8.227 41.621-18.375 0-4.608-3.842-8.82-10.189-12.046-7.63-3.878-18.883-6.33-31.432-6.33C18.634 39.436 0 47.663 0 57.812 0 67.96 18.634 76.187 41.621 76.187z" transform="translate(194.8 89.466)"/>
            <path fill="url(#w)" d="M3.791 22.443c.461 39.013.461 60.216 0 63.61-.692 5.091 7.142 18.512 41.21 18.512 34.067 0 43.388-13.42 41.828-19.501-1.04-4.054-1.04-25.392 0-64.014" transform="translate(192 60)"/>
            <text fill="#F2E3FF" font-family="SourceCodeProForPowerline-Semibold, Source Code Pro for Powerline" font-size="14.25" font-weight="500" transform="translate(192 60)">
                <tspan x=".971" y="14.15">{solidity}</tspan>
            </text>
        </g>
    </g>
</svg>
