<svg xmlns="http://www.w3.org/2000/svg" xmlns:xlink="http://www.w3.org/1999/xlink" width="213" height="79" viewBox="0 0 213 79">
    <defs>
        <linearGradient id="a" x1="10.174%" x2="79.339%" y1="48.625%" y2="50.802%">
            <stop offset="0%" stop-color="#252945"/>
            <stop offset="75.924%" stop-color="#B0B0E9" stop-opacity=".654"/>
            <stop offset="100%" stop-color="#C2C2FA" stop-opacity="0"/>
        </linearGradient>
        <linearGradient id="b" x1="10.174%" x2="79.339%" y1="33.452%" y2="59.646%">
            <stop offset="0%" stop-color="#252945"/>
            <stop offset="75.924%" stop-color="#B0B0E9" stop-opacity=".654"/>
            <stop offset="100%" stop-color="#C2C2FA" stop-opacity="0"/>
        </linearGradient>
        <linearGradient id="c" x1="10.174%" x2="79.339%" y1="48.933%" y2="50.622%">
            <stop offset="0%" stop-color="#252945"/>
            <stop offset="75.924%" stop-color="#B0B0E9" stop-opacity=".654"/>
            <stop offset="100%" stop-color="#C2C2FA" stop-opacity="0"/>
        </linearGradient>
        <linearGradient id="d" x1="79.339%" x2="10.174%" y1="50.135%" y2="49.769%">
            <stop offset="0%" stop-color="#252945"/>
            <stop offset="75.924%" stop-color="#B0B0E9" stop-opacity=".654"/>
            <stop offset="100%" stop-color="#C2C2FA" stop-opacity="0"/>
        </linearGradient>
        <linearGradient id="g" x1="0%" y1="50%" y2="50%">
            <stop offset="0%" stop-color="#3F4668"/>
            <stop offset="100%" stop-color="#2B314F"/>
        </linearGradient>
        <ellipse id="f" cx="21" cy="29.397" rx="21" ry="7.603"/>
        <filter id="e" width="190.5%" height="349.9%" x="-33.3%" y="-92.1%" filterUnits="objectBoundingBox">
            <feOffset dx="5" dy="5" in="SourceAlpha" result="shadowOffsetOuter1"/>
            <feGaussianBlur in="shadowOffsetOuter1" result="shadowBlurOuter1" stdDeviation="5.5"/>
            <feColorMatrix in="shadowBlurOuter1" values="0 0 0 0 0.137254902 0 0 0 0 0.152941176 0 0 0 0 0.254901961 0 0 0 0.54649257 0"/>
        </filter>
        <linearGradient id="h" x1="6.157%" y1="53.333%" y2="50%">
            <stop offset="0%" stop-color="#363F6C"/>
            <stop offset="100%" stop-color="#404A7D"/>
        </linearGradient>
        <linearGradient id="i" x1="19.327%" x2="79.331%" y1="54.209%" y2="43.962%">
            <stop offset="0%" stop-color="#46538C"/>
            <stop offset="100%" stop-color="#51598B"/>
        </linearGradient>
        <linearGradient id="j" x1="93.875%" x2="10.718%" y1="43.876%" y2="52.48%">
            <stop offset="0%" stop-color="#8B93C4"/>
            <stop offset="100%" stop-color="#5462A1"/>
        </linearGradient>
        <linearGradient id="k" x1="99.271%" x2="16.311%" y1="50%" y2="50%">
            <stop offset="0%" stop-color="#8B93C4"/>
            <stop offset="100%" stop-color="#36406E"/>
        </linearGradient>
        <linearGradient id="l" x1="0%" y1="50%" y2="50%">
            <stop offset="0%" stop-color="#3F4668"/>
            <stop offset="100%" stop-color="#2B314F"/>
        </linearGradient>
        <linearGradient id="m" x1="99.271%" x2="16.311%" y1="50%" y2="50%">
            <stop offset="0%" stop-color="#8B93C4"/>
            <stop offset="100%" stop-color="#36406E"/>
        </linearGradient>
        <linearGradient id="n" x1="0%" y1="50%" y2="50%">
            <stop offset="0%" stop-color="#3F4668"/>
            <stop offset="100%" stop-color="#2B314F"/>
        </linearGradient>
        <linearGradient id="o" x1="99.271%" x2="16.311%" y1="50%" y2="50%">
            <stop offset="0%" stop-color="#8B93C4"/>
            <stop offset="100%" stop-color="#36406E"/>
        </linearGradient>
        <linearGradient id="p" x1="0%" y1="50%" y2="50%">
            <stop offset="0%" stop-color="#3F4668"/>
            <stop offset="100%" stop-color="#2B314F"/>
        </linearGradient>
        <linearGradient id="q" x1="99.271%" x2="16.311%" y1="50%" y2="50%">
            <stop offset="0%" stop-color="#8B93C4"/>
            <stop offset="100%" stop-color="#36406E"/>
        </linearGradient>
        <linearGradient id="r" x1="0%" y1="50%" y2="50%">
            <stop offset="0%" stop-color="#3F4668"/>
            <stop offset="100%" stop-color="#2B314F"/>
        </linearGradient>
    </defs>
    <g fill="none" fill-rule="evenodd">
        <path stroke="url(#a)" stroke-dasharray="0,5" stroke-linecap="round" stroke-linejoin="round" stroke-width="1.8" d="M52 40.5L126 54" transform="matrix(-1 0 0 1 213 0)"/>
        <path stroke="url(#b)" stroke-dasharray="0,5" stroke-linecap="round" stroke-linejoin="round" stroke-width="1.8" d="M158 34l-32 20.5" transform="matrix(-1 0 0 1 213 0)"/>
        <path stroke="url(#c)" stroke-dasharray="0,5" stroke-linecap="round" stroke-linejoin="round" stroke-width="1.8" d="M184 66.5l-48-7" transform="matrix(-1 0 0 1 213 0)"/>
        <path stroke="url(#d)" stroke-dasharray="0,5" stroke-linecap="round" stroke-linejoin="round" stroke-width="1.8" d="M4.5 66.5l115.5-8" transform="matrix(-1 0 0 1 213 0)"/>
        <g transform="matrix(-1 0 0 1 114 26)">
            <use fill="#000" filter="url(#e)" xlink:href="#f"/>
            <use fill="url(#g)" xlink:href="#f"/>
            <path fill="url(#h)" d="M21 29.904c11.598 0 21-3.29 21-7.35 0-1.842-1.938-3.527-5.14-4.817-3.851-1.55-9.528-2.532-15.86-2.532-11.598 0-21 3.29-21 7.35 0 4.059 9.402 7.35 21 7.35z"/>
            <ellipse cx="21" cy="14.952" fill="url(#i)" rx="21" ry="7.349"/>
            <ellipse cx="21" cy="7.349" fill="url(#j)" rx="21" ry="7.349"/>
        </g>
        <path fill="url(#k)" d="M18.548 23.4c5.246 0 9.5-5.238 9.5-11.7 0-6.462-1.397-11.7-9.5-11.7-8.104 0-9.5 5.238-9.5 11.7 0 6.462 4.253 11.7 9.5 11.7z" transform="matrix(-1 0 0 1 170 0)"/>
        <path fill="#000" fill-rule="nonzero" d="M169.094 38.795c.002-.37.004-.104 0 0zM132.906 38.868c-.005-.101-.002-.702 0 0z"/>
        <path fill="url(#l)" d="M37.075 37.99c-.177-11.185-1.64-14.372-12.829-16.39 0 0-1.575 2.005-5.246 2.005-3.67 0-5.246-2.005-5.246-2.005C2.687 23.596 1.136 26.735.932 37.627c-.016.89-.024.936-.027.833l.001 1.175S3.57 45 19 45c15.43 0 18.095-5.365 18.095-5.365v-.87c-.003.064-.009-.06-.02-.775z" transform="matrix(-1 0 0 1 170 0)"/>
        <g>
            <path fill="url(#m)" d="M14.643 18.72c4.142 0 7.5-4.19 7.5-9.36 0-5.17-1.103-9.36-7.5-9.36s-7.5 4.19-7.5 9.36c0 5.17 3.358 9.36 7.5 9.36z" transform="matrix(-1 0 0 1 66 1)"/>
            <path fill="#000" fill-rule="nonzero" d="M65.285 32.036c.001-.296.003-.083 0 0zM36.715 32.094c-.004-.08-.001-.561 0 0z"/>
            <path fill="url(#n)" d="M29.27 30.392c-.14-8.948-1.295-11.498-10.128-13.112 0 0-1.243 1.604-4.142 1.604-2.898 0-4.142-1.604-4.142-1.604C2.122 18.876.897 21.388.736 30.101c-.013.712-.02.75-.022.667l.001.94S2.818 36 15 36s14.285-4.292 14.285-4.292v-.696c-.002.052-.006-.047-.015-.62z" transform="matrix(-1 0 0 1 66 1)"/>
        </g>
        <g>
            <path fill="url(#o)" d="M17.572 22.36c4.97 0 9-5.005 9-11.18S25.247 0 17.571 0c-7.677 0-9 5.005-9 11.18s4.029 11.18 9 11.18z" transform="matrix(-1 0 0 1 36 34)"/>
            <path fill="#000" fill-rule="nonzero" d="M35.142 71.07c.001-.353.003-.099 0 0zM.858 71.14c-.004-.096-.001-.67 0 0z"/>
            <path fill="url(#p)" d="M35.124 36.302C34.956 25.613 33.57 22.568 22.97 20.64c0 0-1.492 1.916-4.97 1.916-3.477 0-4.97-1.916-4.97-1.916C2.546 22.547 1.076 25.547.883 35.955c-.016.85-.023.894-.026.795 0 .185.002.527.002 1.123C.859 37.873 3.382 43 18 43c14.618 0 17.142-5.127 17.142-5.127v-.83c-.002.06-.008-.058-.018-.741z" transform="matrix(-1 0 0 1 36 34)"/>
        </g>
        <g>
            <path fill="url(#q)" d="M16.595 21.32c4.695 0 8.5-4.773 8.5-10.66 0-5.887-1.25-10.66-8.5-10.66s-8.5 4.773-8.5 10.66c0 5.887 3.806 10.66 8.5 10.66z" transform="matrix(-1 0 0 1 213 34)"/>
            <path fill="#000" fill-rule="nonzero" d="M212.19 69.347c.001-.337.003-.095 0 0zM179.81 69.413c-.004-.092 0-.64 0 0z"/>
            <path fill="url(#r)" d="M33.172 34.613c-.158-10.19-1.467-13.095-11.478-14.933 0 0-1.409 1.827-4.694 1.827-3.284 0-4.694-1.827-4.694-1.827C2.404 21.498 1.016 24.359.834 34.282c-.015.81-.022.853-.024.759v1.07S3.195 41 17 41c13.806 0 16.19-4.888 16.19-4.888v-.792c-.002.058-.008-.055-.018-.707z" transform="matrix(-1 0 0 1 213 34)"/>
        </g>
    </g>
</svg>
