<svg id="Layer_1" data-name="Layer 1" xmlns="http://www.w3.org/2000/svg" viewBox="0 0 78.3 123.34"><defs><style>.cls-1{fill:#8881de;}.cls-2{fill:#afabff;}.cls-3{fill:#7349de;}</style></defs><title>Artboard 1</title><g id="_Group_" data-name="&lt;Group&gt;"><polygon id="_Path_" data-name="&lt;Path&gt;" class="cls-1" points="66.02 67.55 66.02 94.12 39.1 109.64 39.1 123.34 78.2 100.73 78.2 61.11 66.02 67.55"/><polygon id="_Path_2" data-name="&lt;Path&gt;" class="cls-1" points="51.97 21 51.97 53.35 40.1 60.2 40.1 38.89 27.91 45.3 27.91 80.48 64.16 59.77 64.16 13.98 51.97 21"/><polygon id="_Path_3" data-name="&lt;Path&gt;" class="cls-2" points="27.91 45.29 66.16 67.49 78.3 61.05 40.19 38.83 27.91 45.29"/><polygon id="_Path_4" data-name="&lt;Path&gt;" class="cls-3" points="12.19 94.07 12.19 29.25 0 22.53 0 100.73 39.12 123.34 39.12 109.65 12.19 94.07"/><polygon id="_Path_5" data-name="&lt;Path&gt;" class="cls-2" points="39.09 0 0.02 22.56 12.18 29.23 39.1 13.68 51.96 21.02 64.16 13.99 39.09 0"/></g></svg>