<svg xmlns="http://www.w3.org/2000/svg" width="81" height="88" viewBox="0 0 81 88">
    <defs>
        <filter id="a" width="273.6%" height="231.4%" x="-86.8%" y="-65.7%" filterUnits="objectBoundingBox">
            <feOffset dy="9" in="SourceAlpha" result="shadowOffsetOuter1"/>
            <feGaussianBlur in="shadowOffsetOuter1" result="shadowBlurOuter1" stdDeviation="7.5"/>
            <feColorMatrix in="shadowBlurOuter1" result="shadowMatrixOuter1" values="0 0 0 0 0 0 0 0 0 0 0 0 0 0 0 0 0 0 0.17 0"/>
            <feMerge>
                <feMergeNode in="shadowMatrixOuter1"/>
                <feMergeNode in="SourceGraphic"/>
            </feMerge>
        </filter>
        <linearGradient id="b" x1="0%" x2="99.393%" y1="32.569%" y2="32.569%">
            <stop offset="0%" stop-color="#5269FF"/>
            <stop offset="100%" stop-color="#4890FF"/>
        </linearGradient>
        <linearGradient id="c" x1="0%" x2="99.393%" y1="32.569%" y2="32.569%">
            <stop offset="0%" stop-color="#5269FF"/>
            <stop offset="100%" stop-color="#4890FF"/>
        </linearGradient>
        <linearGradient id="d" x1="0%" x2="99.393%" y1="32.569%" y2="32.569%">
            <stop offset="0%" stop-color="#5269FF"/>
            <stop offset="100%" stop-color="#4890FF"/>
        </linearGradient>
        <linearGradient id="e" x1="0%" x2="99.393%" y1="32.569%" y2="32.569%">
            <stop offset="0%" stop-color="#5269FF"/>
            <stop offset="100%" stop-color="#4890FF"/>
        </linearGradient>
        <linearGradient id="f" x1="0%" x2="99.393%" y1="32.569%" y2="32.569%">
            <stop offset="0%" stop-color="#5269FF"/>
            <stop offset="100%" stop-color="#4890FF"/>
        </linearGradient>
        <linearGradient id="g" x1="0%" x2="99.393%" y1="32.569%" y2="32.569%">
            <stop offset="0%" stop-color="#5269FF"/>
            <stop offset="100%" stop-color="#4890FF"/>
        </linearGradient>
        <linearGradient id="h" x1="0%" x2="99.393%" y1="32.569%" y2="32.569%">
            <stop offset="0%" stop-color="#5269FF"/>
            <stop offset="100%" stop-color="#4890FF"/>
        </linearGradient>
        <linearGradient id="i" x1="0%" x2="99.393%" y1="32.569%" y2="32.569%">
            <stop offset="0%" stop-color="#5269FF"/>
            <stop offset="100%" stop-color="#4890FF"/>
        </linearGradient>
        <linearGradient id="j" x1="0%" x2="99.393%" y1="32.569%" y2="32.569%">
            <stop offset="0%" stop-color="#5269FF"/>
            <stop offset="100%" stop-color="#4890FF"/>
        </linearGradient>
    </defs>
    <g fill="none" fill-rule="evenodd" filter="url(#a)" transform="translate(14 5)">
        <path fill="#B8C2FF" d="M22.065 46.257h8.871v17.157h-8.871z"/>
        <path fill="url(#b)" d="M8.421 63.414h36.158v5.918H8.421z"/>
        <path fill="url(#c)" d="M2.655 20.705a25.409 25.409 0 0 0-.178 19.616l24.005-9.588L2.655 20.705z"/>
        <path fill="#FFF" fill-rule="nonzero" d="M26.482 30.733L2.477 40.32a25.483 25.483 0 0 0 5.713 8.535 25.634 25.634 0 0 0 8.18 5.461l10.112-23.584z"/>
        <path fill="url(#d)" d="M36.613 7.13a26.243 26.243 0 0 0-19.818-.175l9.705 23.76L36.613 7.131z"/>
        <path fill="#FFF" fill-rule="nonzero" d="M26.5 30.733L16.813 6.955c-3.14 1.247-6.068 3.144-8.623 5.655a25.89 25.89 0 0 0-5.535 8.095L26.5 30.733zM36.613 7.13L26.5 30.716l24.023-9.588a25.154 25.154 0 0 0-5.713-8.517 25.762 25.762 0 0 0-8.197-5.48z"/>
        <path fill="url(#e)" d="M26.482 30.733l-10.13 23.602c6.316 2.651 13.466 2.722 19.817.175l-9.687-23.777z"/>
        <path fill="url(#f)" d="M26.5 30.733L50.345 40.76a25.452 25.452 0 0 0 .178-19.633L26.5 30.733z"/>
        <path fill="#FFF" fill-rule="nonzero" d="M36.187 54.51a25.787 25.787 0 0 0 8.623-5.654 25.342 25.342 0 0 0 5.517-8.096L26.5 30.733l9.687 23.777zM6.452 30.733a19.6 19.6 0 0 0 1.454 7.428l-5.429 2.178a25.41 25.41 0 0 1 .196-19.616l5.375 2.265a19.393 19.393 0 0 0-1.596 7.745z"/>
        <path fill="url(#g)" d="M18.658 48.996l-2.289 5.339a25.69 25.69 0 0 1-8.179-5.48 25.483 25.483 0 0 1-5.713-8.534l5.43-2.178c1.987 4.882 5.872 8.798 10.751 10.853z"/>
        <path fill="#FFF" fill-rule="nonzero" d="M36.613 7.13l-2.289 5.322a20.382 20.382 0 0 0-7.824-1.563c-2.661 0-5.18.509-7.505 1.44l-2.2-5.374c6.352-2.529 13.52-2.476 19.818.176z"/>
        <path fill="url(#h)" d="M18.995 12.329c-4.932 1.967-8.889 5.812-10.947 10.642l-5.375-2.266a25.208 25.208 0 0 1 5.535-8.095 26.058 26.058 0 0 1 8.623-5.655l2.164 5.374z"/>
        <path fill="url(#i)" d="M50.523 21.127l-5.43 2.16c-1.987-4.865-5.872-8.78-10.751-10.835l2.27-5.321a25.762 25.762 0 0 1 8.198 5.479 25.681 25.681 0 0 1 5.713 8.517z"/>
        <path fill="#FFF" fill-rule="nonzero" d="M36.187 54.51c-6.352 2.529-13.52 2.476-19.818-.175l2.29-5.339a20.094 20.094 0 0 0 7.841 1.58c2.644 0 5.18-.509 7.505-1.44l2.182 5.374zM50.345 40.76l-5.393-2.265a19.54 19.54 0 0 0 1.596-7.762c0-2.634-.514-5.146-1.454-7.446l5.429-2.16a25.532 25.532 0 0 1-.178 19.633z"/>
        <path fill="url(#j)" d="M50.345 40.76a25.208 25.208 0 0 1-5.535 8.096 25.787 25.787 0 0 1-8.623 5.654l-2.182-5.373c4.932-1.967 8.889-5.813 10.964-10.642l5.376 2.265z"/>
        <path fill="#414042" fill-rule="nonzero" d="M26.5 32.243c-.071 0-.16 0-.23-.018-.16-.017-.32-.07-.462-.14 0 0-.018-.018-.035-.018a1.485 1.485 0 0 1-.817-1.37c.018-.579.355-1.088.87-1.334.213-.105.443-.158.656-.158.39 0 .763.14 1.03.404.3.28.496.685.496 1.124.018.843-.656 1.51-1.508 1.51z"/>
        <path fill="#FFCA55" fill-rule="nonzero" d="M26.5.668c-3.07 0-5.056 3.232-3.655 5.936l3.655 6.99 3.655-6.99C31.556 3.9 29.569.668 26.5.668z"/>
        <ellipse cx="26.482" cy="30.733" fill="#FFCA55" fill-rule="nonzero" rx="6.05" ry="5.988"/>
    </g>
</svg>
