<svg xmlns="http://www.w3.org/2000/svg" width="52" height="47" viewBox="0 0 52 47">
    <g fill="none" fill-rule="evenodd">
        <path fill-rule="nonzero" stroke="#FFF" d="M43.524 12.018c1.868 1.073 2.934 2.312 2.934 3.632 0 1.32-1.066 2.56-2.934 3.633 1.868 1.072 2.934 2.312 2.934 3.632 0 1.32-1.066 2.56-2.934 3.633 1.868 1.072 2.934 2.311 2.934 3.632 0 1.355-1.122 2.624-3.082 3.716 1.96 1.141 3.082 2.468 3.082 3.885 0 4.264-10.176 7.72-22.729 7.72C11.176 45.502 1 42.046 1 37.782c0-1.417 1.123-2.744 3.082-3.885C2.122 32.804 1 31.535 1 30.18c0-1.32 1.066-2.56 2.935-3.632C2.066 25.475 1 24.236 1 22.915c0-1.32 1.066-2.56 2.935-3.632C2.066 18.21 1 16.97 1 15.65c0-1.32 1.066-2.56 2.935-3.632C2.066 10.945 1 9.706 1 8.386 1 4.306 11.176 1 23.729 1c12.553 0 22.73 3.307 22.73 7.386 0 1.32-1.067 2.56-2.935 3.632z"/>
        <path stroke="#FFF" stroke-linecap="round" d="M6.86 12.5c4.842 1.251 10.337 1.876 16.484 1.876 9.22 0 16.856-1.876 16.856-1.876M6.86 20c4.842 1.251 10.337 1.876 16.484 1.876C32.564 21.876 40.2 20 40.2 20M6.86 28c4.842 1.251 10.337 1.876 16.484 1.876C32.564 29.876 40.2 28 40.2 28M6.86 35c4.842 1.251 10.337 1.876 16.484 1.876C32.564 36.876 40.2 35 40.2 35"/>
        <path fill="#FFF" fill-rule="nonzero" d="M43.964 47c-4.349 0-7.875-4.03-7.875-9s3.526-9 7.875-9c4.35 0 7.875 4.03 7.875 9s-3.525 9-7.875 9"/>
        <g fill="#6B8BF5">
            <path d="M46.35 38.765v2.464l-2.385 1.44v1.27l3.464-2.097v-3.675zM45.105 34.448v3l-1.052.635v-1.976l-1.08.594v3.263l3.212-1.92v-4.247z"/>
            <path d="M42.973 36.7l3.39 2.06 1.075-.598-3.377-2.06zM41.58 41.224v-6.011l-1.08-.624v7.253l3.466 2.097v-1.27z"/>
            <path d="M43.964 32.5l-3.462 2.092 1.077.619 2.386-1.442 1.14.68 1.08-.652z"/>
        </g>
        <path fill="#FFF" fill-rule="nonzero" d="M36.09 38c0-4.597 3.016-8.387 6.91-8.93a6.935 6.935 0 0 0-.964-.07c-4.35 0-7.875 4.03-7.875 9s3.525 9 7.875 9c.326 0 .648-.025.964-.07-3.894-.543-6.91-4.333-6.91-8.93"/>
        <path fill="#95ADFF" fill-rule="nonzero" d="M36.089 38.322h-1.928c.006.216.019.43.038.643h1.93a9.815 9.815 0 0 1-.04-.643M36.162 36.715h-1.927c-.027.211-.046.426-.06.642h1.93c.013-.216.03-.43.057-.642M36.266 39.929h-1.93c.043.217.09.432.146.643h1.928a9.88 9.88 0 0 1-.144-.643M36.715 41.536h-1.93c.083.22.173.433.27.643h1.929a9.256 9.256 0 0 1-.269-.643M36.498 35.107h-1.926c-.063.212-.121.425-.17.643h1.93c.05-.217.104-.432.166-.643M37.138 33.5H35.21c-.106.21-.206.424-.297.643h1.93c.09-.219.19-.433.295-.642M38.45 31.572h-1.93a8.596 8.596 0 0 0-.522.643h1.93c.165-.224.339-.439.522-.643M40.415 29.965h-1.933c-.328.19-.643.404-.943.642h1.931c.3-.238.616-.452.945-.642M37.703 43.465h-1.93c.15.222.307.437.474.642h1.93a8.848 8.848 0 0 1-.474-.642M37.16 45.072c.259.232.53.448.812.643h1.934a7.95 7.95 0 0 1-.817-.643H37.16z"/>
    </g>
</svg>
