<svg xmlns="http://www.w3.org/2000/svg" width="52" height="48" viewBox="0 0 52 48">
    <g fill="none" fill-rule="evenodd">
        <path fill-rule="nonzero" stroke="#FFF" d="M43.524 12.018c1.868 1.073 2.934 2.312 2.934 3.632 0 1.32-1.066 2.56-2.934 3.633 1.868 1.072 2.934 2.312 2.934 3.632 0 1.32-1.066 2.56-2.934 3.633 1.868 1.072 2.934 2.311 2.934 3.632 0 1.355-1.122 2.624-3.082 3.716 1.96 1.141 3.082 2.468 3.082 3.885 0 4.264-10.176 7.72-22.729 7.72C11.176 45.502 1 42.046 1 37.782c0-1.417 1.123-2.744 3.082-3.885C2.122 32.804 1 31.535 1 30.18c0-1.32 1.066-2.56 2.935-3.632C2.066 25.475 1 24.236 1 22.915c0-1.32 1.066-2.56 2.935-3.632C2.066 18.21 1 16.97 1 15.65c0-1.32 1.066-2.56 2.935-3.632C2.066 10.945 1 9.706 1 8.386 1 4.306 11.176 1 23.729 1c12.553 0 22.73 3.307 22.73 7.386 0 1.32-1.067 2.56-2.935 3.632z"/>
        <g transform="translate(34 23)">
            <path fill="#FFF" d="M.73 10.977h16.037v12.94H.73z"/>
            <rect width="2.8" height="6.505" x="7.398" y="14.099" fill="#FFF" rx=".4"/>
            <path fill="#6B8BF5" fill-rule="nonzero" d="M8.8 13.322c-1.323 0-2.4 1.11-2.4 2.472 0 .676.273 1.33.749 1.795v2.231c0 .938.74 1.7 1.651 1.7.91 0 1.651-.762 1.651-1.7V17.59a2.519 2.519 0 0 0 .749-1.795c0-1.363-1.077-2.472-2.4-2.472zm.85 3.4c-.23.222-.361.533-.361.853v2.245c0 .278-.22.504-.489.504a.497.497 0 0 1-.489-.504v-2.245c0-.32-.131-.63-.36-.853a1.282 1.282 0 0 1-.389-.928c0-.703.556-1.275 1.238-1.275.683 0 1.238.572 1.238 1.275 0 .355-.138.685-.389.928z"/>
            <path fill="#FFF" fill-rule="nonzero" d="M15.853 10.166H4.66V5.428c0-2.336 1.857-4.236 4.14-4.236 2.283 0 4.14 1.9 4.14 4.236v5.345c0 .329.261.596.583.596a.59.59 0 0 0 .582-.596V5.428C14.105 2.435 11.725 0 8.8 0S3.495 2.435 3.495 5.428v4.738H1.747c-.963 0-1.747.802-1.747 1.788v11.058c0 .986.784 1.788 1.747 1.788h14.106c.963 0 1.747-.802 1.747-1.788V11.954c0-.986-.784-1.788-1.747-1.788zm0 13.442H1.747a.59.59 0 0 1-.582-.596V11.954a.59.59 0 0 1 .582-.596h14.106a.59.59 0 0 1 .582.596v11.058a.59.59 0 0 1-.582.596z"/>
        </g>
        <path stroke="#FFF" stroke-linecap="round" d="M6.86 12.5c4.842 1.251 10.337 1.876 16.484 1.876 9.22 0 16.856-1.876 16.856-1.876M6.86 20c4.842 1.251 10.337 1.876 16.484 1.876C32.564 21.876 40.2 20 40.2 20M6.86 28c4.842 1.251 10.337 1.876 16.484 1.876C32.564 29.876 40.2 28 40.2 28M6.86 35c4.842 1.251 10.337 1.876 16.484 1.876C32.564 36.876 40.2 35 40.2 35"/>
    </g>
</svg>
