<svg xmlns="http://www.w3.org/2000/svg" xmlns:xlink="http://www.w3.org/1999/xlink" width="97" height="68" viewBox="0 0 97 68">
    <defs>
        <path id="a" d="M15.996.207L9.03 4.394a2 2 0 0 1-2.06 0L0 .207v8.746c.006.154.109.307.31.425l6.935 4.038c.415.24 1.086.242 1.5.002l6.94-4.018c.213-.123.316-.285.31-.447h.002L15.996.207z"/>
        <path id="c" d="M15.996.207L9.03 4.394a2 2 0 0 1-2.06 0L0 .207v8.746c.006.154.109.307.31.425l6.935 4.038c.415.24 1.086.242 1.5.002l6.94-4.018c.213-.123.316-.285.31-.447h.002L15.996.207z"/>
        <path id="e" d="M15.996.207L9.03 4.394a2 2 0 0 1-2.06 0L0 .207v8.746c.006.154.109.307.31.425l6.935 4.038c.415.24 1.086.242 1.5.002l6.94-4.018c.213-.123.316-.285.31-.447h.002L15.996.207z"/>
    </defs>
    <g fill="none" fill-rule="evenodd">
        <path stroke="#FFF" stroke-linecap="round" d="M14.123 36.592l24.343-15.44"/>
        <g transform="translate(1 38.444)">
            <mask id="b" fill="#fff">
                <use xlink:href="#a"/>
            </mask>
            <use stroke="#FFF" xlink:href="#a"/>
            <path stroke="#FFF" d="M7.998 4.664v9.038" mask="url(#b)"/>
        </g>
        <path stroke="#FFF" d="M16.686 38.877l-6.94 4.018c-.415.24-1.086.24-1.5-.002L1.31 38.855c-.414-.241-.413-.631 0-.871l6.941-4.018c.414-.24 1.086-.239 1.5.002l6.935 4.039c.414.24.414.63 0 .87"/>
        <path fill="#FFF" d="M27.68 27.603l-3.769.418a.25.25 0 0 0-.173.398l2.332 3.118a.25.25 0 0 0 .432-.056l1.437-3.535a.25.25 0 0 0-.26-.343z"/>
        <g>
            <path stroke="#FFF" stroke-linecap="round" d="M82.877 36.592l-24.343-15.44"/>
            <g transform="matrix(-1 0 0 1 96 38.444)">
                <mask id="d" fill="#fff">
                    <use xlink:href="#c"/>
                </mask>
                <use stroke="#FFF" xlink:href="#c"/>
                <path stroke="#FFF" d="M7.998 4.664v9.038" mask="url(#d)"/>
            </g>
            <path stroke="#FFF" d="M80.314 38.877l6.94 4.018c.415.24 1.086.24 1.5-.002l6.936-4.038c.414-.241.413-.631 0-.871l-6.941-4.018c-.414-.24-1.086-.239-1.5.002l-6.935 4.039c-.414.24-.414.63 0 .87"/>
            <path fill="#FFF" d="M69.32 27.603l3.769.418a.25.25 0 0 1 .173.398l-2.332 3.118a.25.25 0 0 1-.432-.056l-1.437-3.535a.25.25 0 0 1 .26-.343z"/>
        </g>
        <g>
            <g transform="translate(39.724 53.298)">
                <mask id="f" fill="#fff">
                    <use xlink:href="#e"/>
                </mask>
                <use stroke="#FFF" xlink:href="#e"/>
                <path stroke="#FFF" d="M7.998 4.664v9.038" mask="url(#f)"/>
            </g>
            <path stroke="#FFF" d="M55.41 53.732l-6.94 4.018c-.415.24-1.086.239-1.5-.002l-6.935-4.038c-.414-.242-.414-.631 0-.871l6.94-4.018c.415-.24 1.086-.24 1.5.002l6.935 4.038c.414.241.414.631 0 .871"/>
            <path stroke="#FFF" stroke-linecap="round" d="M47.611 48.673V23.42"/>
        </g>
        <g>
            <path stroke="#FFF" d="M39.05 1H57.7a.8.8 0 0 1 .8.8v20.82a.8.8 0 0 1-.8.8H39.05a.8.8 0 0 1-.8-.8V1.8a.8.8 0 0 1 .8-.8z"/>
            <g fill="#FFF">
                <path d="M41.884 12.336h13.087c.212 0 .384.172.384.384v.232a.384.384 0 0 1-.384.384H41.884a.384.384 0 0 1-.384-.384v-.232c0-.212.172-.384.384-.384zM41.884 14.92h13.087c.212 0 .384.173.384.385v.232a.384.384 0 0 1-.384.384H41.884a.384.384 0 0 1-.384-.384v-.232c0-.212.172-.384.384-.384zM41.884 17.44h13.087c.212 0 .384.172.384.384v.232a.384.384 0 0 1-.384.384H41.884a.384.384 0 0 1-.384-.384v-.232c0-.212.172-.384.384-.384zM41.884 20.21h13.087c.212 0 .384.173.384.385v.232a.384.384 0 0 1-.384.384H41.884a.384.384 0 0 1-.384-.384v-.232c0-.212.172-.384.384-.384z"/>
            </g>
            <path stroke="#FFF" d="M42.012 4.02A.012.012 0 0 0 42 4.03v5.934c0 .007.005.012.012.012h12.83a.012.012 0 0 0 .013-.012V4.031a.012.012 0 0 0-.012-.012H42.012z"/>
        </g>
    </g>
</svg>
