<svg xmlns="http://www.w3.org/2000/svg" width="32" height="32" viewBox="0 0 32 32">
    <defs>
        <linearGradient id="a" x1="0%" x2="99.393%" y1="32.569%" y2="32.569%">
            <stop offset="0%" stop-color="#5269FF"/>
            <stop offset="100%" stop-color="#4890FF"/>
        </linearGradient>
        <linearGradient id="b" x1="-106.597%" x2="99.393%" y1="-21.66%" y2="33.247%">
            <stop offset="0%" stop-color="#5269FF"/>
            <stop offset="100%" stop-color="#4890FF"/>
        </linearGradient>
        <linearGradient id="c" x1="0%" x2="211.456%" y1="33.131%" y2="60.297%">
            <stop offset="0%" stop-color="#5269FF"/>
            <stop offset="100%" stop-color="#4890FF"/>
        </linearGradient>
        <linearGradient id="d" x1="-65.095%" x2="154.806%" y1="23.6%" y2="62.027%">
            <stop offset="0%" stop-color="#5269FF"/>
            <stop offset="100%" stop-color="#4890FF"/>
        </linearGradient>
        <linearGradient id="e" x1="-61.357%" x2="128.616%" y1="-26.328%" y2="117.346%">
            <stop offset="0%" stop-color="#5269FF"/>
            <stop offset="100%" stop-color="#4890FF"/>
        </linearGradient>
        <linearGradient id="f" x1="-141.268%" x2="98.677%" y1="25.726%" y2="32.569%">
            <stop offset="0%" stop-color="#5269FF"/>
            <stop offset="100%" stop-color="#4890FF"/>
        </linearGradient>
        <linearGradient id="g" x1="4.764%" x2="160.415%" y1="32.569%" y2="59.398%">
            <stop offset="0%" stop-color="#5269FF"/>
            <stop offset="100%" stop-color="#4890FF"/>
        </linearGradient>
    </defs>
    <g fill="none" fill-rule="evenodd">
        <path fill="url(#a)" d="M16 0c8.822 0 16 7.178 16 16s-7.178 16-16 16S0 24.822 0 16 7.178 0 16 0z"/>
        <g fill="#FFCA55" fill-rule="nonzero">
            <path stroke="url(#b)" d="M19.038 19.218c.428.055.852-.162 1.053-.534l.783-1.432 1.645.01c.416.002.793-.24.961-.617.17-.381.095-.823-.187-1.123l-1.076-1.158.511-1.36c.3-.803-.702-1.682-1.48-1.273l-1.283.69-1.302-.892a1.05 1.05 0 0 0-1.15-.03 1.038 1.038 0 0 0-.483 1.032l.239 1.612-1.321.97a1.045 1.045 0 0 0-.382 1.12c.056.193.167.365.32.496.125.108.42.233.586.25l1.364.129.32 1.324c.038.16.205.432.33.54.12.103.396.226.552.246z" transform="translate(3.91 3.952)"/>
            <path stroke="url(#c)" d="M.365 8.719l1.247 1.06-.356 1.592c-.093.415.085.852.453 1.095.17.109.367.166.568.166.167 0 .472-.098.608-.194L4 11.648l1.117.792c.135.095.44.192.607.192.157 0 .448-.087.58-.174.359-.237.535-.676.44-1.089l-.356-1.59 1.249-1.062A1.035 1.035 0 0 0 7.07 6.9l-1.578-.174-.513-1.359c-.305-.802-1.642-.813-1.959.002l-.512 1.357L.935 6.9a1.036 1.036 0 1 0-.57 1.819z" transform="translate(3.91 3.952)"/>
            <path stroke="url(#d)" d="M7.565 3.957l1.247 1.06-.356 1.592c-.093.415.085.852.453 1.095.17.109.367.166.568.166.167 0 .472-.098.608-.194l1.115-.79 1.117.792c.135.095.44.192.607.192.157 0 .448-.087.58-.174.359-.237.535-.676.44-1.089l-.356-1.59 1.249-1.062a1.035 1.035 0 0 0-.567-1.817l-1.578-.174L12.18.606c-.305-.803-1.642-.814-1.959.001l-.512 1.357-1.573.174a1.036 1.036 0 1 0-.57 1.819z" transform="translate(3.91 3.952)"/>
            <path stroke="url(#e)" d="M13.914 23.275l.629-1.445 1.46-.09c.862-.055 1.263-1.32.57-1.859l-1.158-.883.293-1.542a1.03 1.03 0 0 0-.44-1.056 1.056 1.056 0 0 0-1.147-.017l-1.387.872-1.43-.803a1.065 1.065 0 0 0-1.188.11c-.154.13-.267.3-.326.49-.049.159-.044.477.009.634l.435 1.289-1.09.828c-.13.1-.313.362-.362.52-.046.149-.047.45-.002.6.124.41.496.706.92.737l1.637.127.66 1.495a1.048 1.048 0 0 0 1.917-.007z" transform="translate(3.91 3.952)"/>
            <path stroke="url(#f)" d="M21.332 3.772a1.048 1.048 0 0 0-1.125-.228l-1.474.58-1.097-.96c-.648-.566-1.835.048-1.728.914l.19 1.437-1.307.886a1.03 1.03 0 0 0-.442 1.054c.08.405.392.725.8.817l1.602.356.439 1.571c.115.41.478.713.918.756.202.017.403-.024.58-.118.148-.078.371-.306.446-.454l.61-1.217 1.361.178c.165.022.48-.035.626-.112a1.35 1.35 0 0 0 .43-.424 1.034 1.034 0 0 0-.125-1.167l-1.067-1.237.6-1.52c.15-.385.056-.821-.237-1.112z" transform="translate(3.91 3.952)"/>
            <path stroke="url(#g)" d="M5.147 20.5c.096.134.353.324.51.377.15.051.452.063.605.023.418-.108.729-.466.775-.887l.185-1.618 1.529-.601a1.033 1.033 0 1 0 .06-1.902l-1.435-.673-.04-1.45c-.023-.857-1.286-1.3-1.852-.632l-.93 1.118-1.543-.344a1.047 1.047 0 0 0-1.08.399 1.034 1.034 0 0 0-.057 1.137l.831 1.406-.859 1.389c-.223.362-.199.833.07 1.182.125.157.292.275.482.34.158.054.479.06.639.013l1.313-.386.797 1.109z" transform="translate(3.91 3.952)"/>
        </g>
    </g>
</svg>
