<svg xmlns="http://www.w3.org/2000/svg" width="32" height="32" viewBox="0 0 32 32">
    <g fill="none" fill-rule="nonzero">
        <path fill="#B8C2FF" d="M16 0c8.822 0 16 7.178 16 16s-7.178 16-16 16S0 24.822 0 16 7.178 0 16 0z"/>
        <g fill="#FFF" stroke="#B8C2FF">
            <path d="M22.948 23.17c.428.055.852-.162 1.053-.534l.783-1.432 1.645.01c.416.002.793-.24.961-.617.17-.38.095-.823-.187-1.123l-1.076-1.158.511-1.36c.3-.803-.702-1.682-1.48-1.273l-1.283.69-1.302-.892a1.05 1.05 0 0 0-1.15-.03 1.038 1.038 0 0 0-.483 1.032l.239 1.612-1.321.97a1.045 1.045 0 0 0-.382 1.12c.056.193.167.365.32.496.125.108.42.233.586.25l1.364.129.32 1.324c.038.16.205.432.33.54.119.103.396.226.552.246zM4.275 12.67l1.247 1.062-.356 1.591c-.093.415.085.852.453 1.095.17.109.367.166.568.166.167 0 .472-.098.608-.194l1.115-.79 1.117.792c.135.095.44.192.606.192.158 0 .449-.087.58-.174.36-.237.536-.676.442-1.089l-.357-1.59 1.249-1.062a1.035 1.035 0 0 0-.567-1.817l-1.578-.174L8.89 9.32c-.305-.803-1.642-.813-1.959.001l-.512 1.357-1.573.174a1.036 1.036 0 1 0-.57 1.819zM11.475 7.909l1.247 1.061-.356 1.591c-.093.415.085.852.453 1.095.17.109.367.166.568.166.167 0 .472-.098.608-.194l1.115-.79 1.117.792c.135.095.44.192.606.192.158 0 .449-.087.58-.174.36-.237.536-.676.442-1.088l-.357-1.59 1.249-1.063a1.035 1.035 0 0 0-.567-1.817l-1.578-.174-.513-1.358c-.305-.803-1.642-.813-1.959.001l-.512 1.357-1.573.174a1.036 1.036 0 1 0-.57 1.819zM17.824 27.227l.629-1.445 1.46-.09c.862-.055 1.263-1.32.57-1.859l-1.158-.883.293-1.542a1.03 1.03 0 0 0-.44-1.056 1.056 1.056 0 0 0-1.147-.017l-1.387.872-1.43-.803a1.065 1.065 0 0 0-1.188.11c-.155.13-.267.3-.326.491-.049.158-.044.476.009.633l.435 1.289-1.09.829c-.13.1-.313.361-.362.518-.046.15-.047.451-.002.601.124.41.496.706.92.737l1.637.127.66 1.495a1.048 1.048 0 0 0 1.917-.007zM25.242 7.724a1.048 1.048 0 0 0-1.125-.228l-1.474.581-1.097-.96c-.648-.567-1.835.047-1.728.913l.19 1.437-1.307.886a1.03 1.03 0 0 0-.442 1.054c.08.405.392.725.8.818l1.602.356.439 1.57c.115.41.478.713.918.756.202.017.403-.024.58-.118.148-.078.371-.306.446-.454l.61-1.217 1.361.178c.165.022.48-.035.626-.112a1.35 1.35 0 0 0 .43-.423 1.034 1.034 0 0 0-.125-1.167l-1.067-1.238.6-1.52c.15-.385.056-.82-.237-1.112z"/>
            <path d="M9.057 24.452c.096.134.353.324.51.378.149.05.452.062.605.023.418-.109.729-.467.775-.887l.184-1.619 1.53-.601a1.033 1.033 0 1 0 .06-1.902l-1.435-.673-.04-1.45c-.023-.857-1.286-1.3-1.852-.632l-.93 1.118-1.543-.344a1.047 1.047 0 0 0-1.08.399 1.034 1.034 0 0 0-.057 1.137l.831 1.406-.859 1.39c-.223.361-.199.832.07 1.181.125.158.292.275.482.34.158.054.479.06.639.014l1.313-.387.797 1.109z"/>
        </g>
    </g>
</svg>
