<svg xmlns="http://www.w3.org/2000/svg" width="100" height="100" viewBox="0 0 100 100">
    <g fill="none" fill-rule="evenodd">
        <circle cx="50" cy="50" r="50" fill="#E0E6F5"/>
        <g stroke="#FFF" stroke-linejoin="round" stroke-width="1.75" transform="translate(23 23)">
            <path d="M11.74 9.391H2.347A2.348 2.348 0 0 0 0 11.74v32.87a2.348 2.348 0 0 0 2.348 2.348h49.304A2.348 2.348 0 0 0 54 44.609v-32.87a2.348 2.348 0 0 0-2.348-2.348h-9.391M14.087 52.826V54h25.826v-1.174M17.609 54v-7.043M36.391 54v-7.043M17.609 5.87V0l-5.87 5.87z"/>
            <path d="M42.26 29.348v-27A2.348 2.348 0 0 0 39.914 0H17.609l-5.87 5.87v31.695a2.348 2.348 0 0 0 2.348 2.348h22.304"/>
            <circle cx="27.061" cy="22.365" r="10.626"/>
            <path d="M46.265 41.57a2.363 2.363 0 0 0 0-3.34l-5.01-5.008-3.338 3.337 5.01 5.01c.923.92 2.416.92 3.338 0zM39.586 34.89l-5.01-5.01M0 39.913h8.217M54 39.913h-3.522M34.043 22.304A7.043 7.043 0 0 0 27 15.261M9.391 14.087H4.696v4.696M4.696 21.13v2.348M44.609 14.087h4.695v4.696M49.304 21.13v2.348M38.74 4.696H36.39M34.043 4.696h-2.347M38.74 9.391H36.39"/>
        </g>
    </g>
</svg>
