<svg xmlns="http://www.w3.org/2000/svg" width="75" height="75" viewBox="0 0 75 75">
    <g fill="none" fill-rule="evenodd">
        <circle cx="37.5" cy="37.5" r="37.5" fill="#2A2A33"/>
        <g fill="#494959">
            <path fill-rule="nonzero" d="M57.293 22H17.707a.701.701 0 0 0-.707.696v30.608c0 .385.317.696.707.696h39.586c.39 0 .707-.311.707-.696V22.696a.701.701 0 0 0-.707-.696zm-.707 30.609H18.414V23.39h38.172V52.61z"/>
            <path fill-rule="nonzero" d="M28.31 37.4c2.171 0 3.937-1.737 3.937-3.873 0-2.137-1.766-3.875-3.937-3.875-2.17 0-3.936 1.738-3.936 3.874 0 2.137 1.765 3.874 3.936 3.874zm0-6.357c1.392 0 2.523 1.115 2.523 2.483 0 1.369-1.131 2.483-2.523 2.483-1.39 0-2.523-1.114-2.523-2.482s1.132-2.484 2.523-2.484z"/>
            <path d="M21.948 49.826a.712.712 0 0 0 .467-.173l11.531-9.991 7.283 7.166a.714.714 0 0 0 1 0 .687.687 0 0 0 0-.984L38.83 42.5l6.49-6.994 7.96 7.181c.288.26.736.24 1-.043a.688.688 0 0 0-.044-.983l-8.483-7.652a.713.713 0 0 0-1 .044l-6.923 7.462-3.353-3.3a.716.716 0 0 0-.967-.03L21.481 48.608a.688.688 0 0 0-.064.982.71.71 0 0 0 .531.236z"/>
        </g>
    </g>
</svg>
