<svg xmlns="http://www.w3.org/2000/svg" xmlns:xlink="http://www.w3.org/1999/xlink" width="96" height="92" viewBox="0 0 96 92">
    <defs>
        <linearGradient id="a" x1="0%" x2="99.393%" y1="32.569%" y2="32.569%">
            <stop offset="0%" stop-color="#5269FF"/>
            <stop offset="100%" stop-color="#4890FF"/>
        </linearGradient>
        <linearGradient id="d" x1="3.238%" x2="97.452%" y1="6.833%" y2="95.171%">
            <stop offset="0%" stop-color="#FFA05B"/>
            <stop offset="100%" stop-color="#FFE068"/>
        </linearGradient>
        <circle id="c" cx="16.304" cy="16.304" r="16.304"/>
        <filter id="b" width="155.2%" height="155.2%" x="-27.6%" y="-18.4%" filterUnits="objectBoundingBox">
            <feOffset dy="3" in="SourceAlpha" result="shadowOffsetOuter1"/>
            <feGaussianBlur in="shadowOffsetOuter1" result="shadowBlurOuter1" stdDeviation="2.5"/>
            <feColorMatrix in="shadowBlurOuter1" values="0 0 0 0 0 0 0 0 0 0 0 0 0 0 0 0 0 0 0.1 0"/>
        </filter>
    </defs>
    <g fill="none" fill-rule="evenodd">
        <circle cx="41" cy="41" r="41" fill="url(#a)"/>
        <path fill="#FFF" fill-rule="nonzero" d="M82 41a40.806 40.806 0 0 0-6.593-22.306s-2.339 3.417-1.9 5.613c.44 2.197 3.02 2.364 2.755 3.976-.265 1.61-2.168-.461-4.512 3.785-2.343 4.246-1.17 10.105 2.197 10.543C77.314 43.05 82 41 82 41z"/>
        <path fill="#EAEEFF" fill-rule="nonzero" d="M51.767 1.429a40.823 40.823 0 0 1 13.11 6.238s-4.754-.784-6.555.826c-1.8 1.61-4.427 5.418-6.555 0-2.127-5.418 0-7.064 0-7.064z"/>
        <path fill="#FFF" fill-rule="nonzero" d="M10.173 13.969C17.687 5.406 28.712 0 41 0c0 0-2.782 1.684 2.49 4.54 5.271 2.855 2.855 4.173 1.757 5.051-1.098.879-3.003-1.757-4.247-3.514-1.244-1.757-6.588-4.466-10.688-3.001-4.1 1.465-7.614 2.546-7.028 3.91.585 1.361 7.613-1.273 10.249-1.128 2.636.146 1.757 1.757-.732 3.66-2.489 1.904-2.782 4.247-.146 5.711 2.635 1.465 5.856 1.611 6.589.733.732-.879-1.318-6.59 3.66-4.1 4.98 2.489 9.08 3.954 4.98 7.614-4.1 3.66-8.786 7.762-8.933 10.104-.147 2.342 1.465 4.247.586 4.393-.878.145-1.685-.952-2.27-1.758-.585-.805-3.295-1.098-4.612-.586-1.318.512-3.808 2.49-2.417 4.393 1.392 1.904 3.294 1.025 5.198 1.903 1.904.879 3.68 4.223 3.315 4.979-.365.755-1.988-.202-3.315-2.782-1.327-2.581-3.817-.879-5.569-1.318-1.752-.44-3.07-.732-4.827-3.807-1.757-3.075-5.395-3.935-6.882-5.71-4.258-5.086-3.954-8.933-4.832-10.69-.879-1.757-3.153-4.628-3.153-4.628zM44.953 41.586s4.393.438 6.59 2.342c2.196 1.904 2.49 2.637 5.857 3.369 3.368.731 4.832 2.634 2.636 6.296-2.197 3.66-6.15 9.518-8.054 11.275-1.903 1.757-4.246 3.221-5.125 6.15-.878 2.928-1.171 4.684.732 5.857 0 0-1.024 2.49-3.367-.732-2.343-3.222-.44-7.029 0-9.225.439-2.197 1.61-8.785.878-10.397-.731-1.61-4.1-2.636-4.979-6.003-.878-3.368.66-9.921 4.832-8.932z"/>
        <path fill="#8D94BF" fill-rule="nonzero" d="M12.009 12.009c16.011-16.012 41.97-16.012 57.982 0 16.012 16.011 16.012 41.97 0 57.982 0 0 18.602-24.598-7.734-50.934C35.92-7.28 12.009 12.009 12.009 12.009z" opacity=".192"/>
        <g transform="translate(58.13 51.13)">
            <use fill="#000" filter="url(#b)" xlink:href="#c"/>
            <use fill="url(#d)" xlink:href="#c"/>
        </g>
    </g>
</svg>
