<svg xmlns="http://www.w3.org/2000/svg" width="14" height="14" viewBox="0 0 14 14">
    <g fill="#4E3CA9" fill-rule="evenodd">
        <path d="M13.338 0H8.257a.636.636 0 0 0 0 1.273h3.547l-6.537 6.55a.637.637 0 0 0 .45 1.086.632.632 0 0 0 .448-.186l6.537-6.55v3.554a.636.636 0 1 0 1.27 0V.637A.636.636 0 0 0 13.339 0z"/>
        <path d="M10.797 6.364a.636.636 0 0 0-.635.636v5.727H1.27V3.818h5.716a.636.636 0 0 0 0-1.273H.636A.636.636 0 0 0 0 3.182v10.182c0 .351.284.636.635.636h10.162c.35 0 .635-.285.635-.636V7a.636.636 0 0 0-.635-.636z"/>
    </g>
</svg>
