<svg xmlns="http://www.w3.org/2000/svg" width="12" height="12" viewBox="0 0 12 12">
    <g fill="#6976B7" fill-rule="evenodd">
        <path d="M11.432 0H7.077a.545.545 0 0 0 0 1.09h3.04L4.516 6.706a.546.546 0 0 0 .385.931c.139 0 .278-.053.384-.16l5.604-5.614V4.91a.545.545 0 1 0 1.089 0V.545A.545.545 0 0 0 11.432 0z"/>
        <path d="M9.255 5.455c-.301 0-.545.244-.545.545v4.91H1.09V3.272h4.9a.545.545 0 0 0 0-1.091H.543c-.3 0-.544.244-.544.545v8.728c0 .3.244.545.544.545h8.71c.301 0 .545-.244.545-.545V6a.545.545 0 0 0-.544-.545z"/>
    </g>
</svg>
