<svg xmlns="http://www.w3.org/2000/svg" width="351" height="301" viewBox="0 0 351 301">
    <g fill="none" fill-rule="evenodd">
        <path fill="#4D4E68" fill-rule="nonzero" d="M174.361 13H.617v-1h173.744V8l9 4.5-9 4.5v-4z"/>
        <g transform="translate(57)">
            <rect width="70" height="25" fill="#5269FF" fill-rule="nonzero" rx="12.5"/>
            <text fill="#FFF" font-family="Avenir-Medium, Avenir" font-size="11" font-weight="400">
                <tspan x="12.181" y="16">query(…)</tspan>
            </text>
        </g>
        <g transform="translate(73 153)">
            <rect width="105" height="25" fill="#5269FF" fill-rule="nonzero" rx="12.5"/>
            <text fill="#FFF" font-family="Avenir-Medium, Avenir" font-size="11" font-weight="400">
                <tspan x="14.28" y="16">output (byte32)</tspan>
            </text>
        </g>
        <g transform="translate(73 276)">
            <rect width="105" height="25" fill="#5269FF" fill-rule="nonzero" rx="12.5"/>
            <text fill="#FFF" font-family="Avenir-Medium, Avenir" font-size="11" font-weight="400">
                <tspan x="16.727" y="16">value (uint256)</tspan>
            </text>
        </g>
        <g transform="translate(191 153)">
            <rect width="79" height="25" fill="#5269FF" fill-rule="nonzero" rx="12.5"/>
            <text fill="#FFF" font-family="Avenir-Medium, Avenir" font-size="11" font-weight="400">
                <tspan x="16.366" y="16">updateAt</tspan>
            </text>
        </g>
        <g transform="translate(283 153)">
            <rect width="68" height="25" fill="#5269FF" fill-rule="nonzero" rx="12.5"/>
            <text fill="#FFF" font-family="Avenir-Medium, Avenir" font-size="11" font-weight="400">
                <tspan x="19.134" y="16">status</tspan>
            </text>
        </g>
        <g transform="translate(190)">
            <ellipse cx="31.763" cy="50.741" fill="#B7BED8" rx="31.763" ry="10.741"/>
            <path fill="#C5CBE0" d="M31.763 50.867c17.543 0 31.763-4.6 31.763-10.275 0-2.576-2.932-4.93-7.775-6.734-5.824-2.168-14.412-3.539-23.988-3.539C14.22 30.32 0 34.92 0 40.592c0 5.675 14.22 10.275 31.763 10.275z"/>
            <ellipse cx="31.763" cy="30.486" fill="#D4DAEC" rx="31.763" ry="10.274"/>
            <ellipse cx="31.763" cy="20.38" fill="#DBE0EF" rx="31.763" ry="10.274"/>
            <ellipse cx="31.763" cy="10.274" fill="#E3E8F5" rx="31.763" ry="10.274"/>
        </g>
        <g fill-rule="nonzero">
            <path fill="#5269FF" stroke="#5269FF" stroke-width=".648" d="M259.344 57.683l-8.69-9.085a12.34 12.34 0 0 0 3.59-8.714c0-6.808-5.51-12.346-12.283-12.346s-12.283 5.538-12.283 12.346c0 6.809 5.51 12.347 12.283 12.347 2.973 0 5.701-1.068 7.828-2.84l8.712 9.107a.58.58 0 0 0 .827.017.59.59 0 0 0 .016-.832z"/>
            <path fill="#F0F4FF" d="M241.96 51.055c-6.127 0-11.112-5.01-11.112-11.17s4.985-11.171 11.113-11.171c6.128 0 11.113 5.01 11.113 11.17s-4.986 11.171-11.113 11.171z"/>
        </g>
        <g transform="translate(203 99)">
            <circle cx="18.5" cy="18.5" r="18.5" fill="#42C47F"/>
            <text fill="#FFF" font-family="Avenir-Medium, Avenir" font-size="11" font-weight="400">
                <tspan x="5.052" y="22">result</tspan>
            </text>
        </g>
        <g fill="#4D4E68" transform="translate(218 65)">
            <path fill-rule="nonzero" d="M9.11 17.82l-19.108.073-.004-1 19.108-.073-.016-4 9.017 4.465-8.982 4.535-.016-4z"/>
            <circle cx="3.605" cy="3" r="3" transform="rotate(90 3.605 3)"/>
        </g>
        <path fill="#4D4E68" fill-rule="nonzero" d="M123 140.51V117h72.44v1H124v22.51h4l-4.5 9-4.5-9h4zM247.5 140.51V117h72.44v1H248.5v22.51h4l-4.5 9-4.5-9h4zM221.5 144.5V136h1v8.5h4l-4.5 9-4.5-9h4zM125 202.5V181h1v21.5h4l-4.5 9-4.5-9h4zM125 263.5V242h1v21.5h4l-4.5 9-4.5-9h4z"/>
        <g>
            <path fill-rule="nonzero" d="M112 214h28v28h-28z"/>
            <path fill="#B7BED8" d="M121.143 238.003a3.5 3.5 0 0 1-4.666-4.665l.626-1.313-1.37-.486a3.5 3.5 0 0 1 0-6.598l1.37-.486-.626-1.312a3.5 3.5 0 0 1 4.666-4.666l1.312.626.486-1.37a3.5 3.5 0 0 1 6.598 0l.486 1.37 1.313-.626a3.5 3.5 0 0 1 4.665 4.666l-.626 1.312 1.371.486a3.5 3.5 0 0 1 0 6.598l-1.37.486.625 1.313a3.5 3.5 0 0 1-4.665 4.665l-1.313-.626-.486 1.371a3.5 3.5 0 0 1-6.598 0l-.486-1.37-1.312.625zm5.097-6.263a3.5 3.5 0 1 0 0-7 3.5 3.5 0 0 0 0 7z"/>
        </g>
        <g>
            <path stroke="#42C47F" d="M141 214h13v32h-13"/>
            <path fill="#42C47F" fill-rule="nonzero" d="M162.5 230h14.421v1H162.5v4l-9-4.5 9-4.5v4z"/>
            <text fill="#42C47F" font-family="Monaco" font-size="11" transform="translate(141 214)">
                <tspan x="41" y="12">some decoding</tspan> <tspan x="41" y="27">process</tspan>
            </text>
        </g>
    </g>
</svg>
