<svg xmlns="http://www.w3.org/2000/svg" width="95" height="88" viewBox="0 0 95 88">
    <defs>
        <filter id="a" width="235.3%" height="233.3%" x="-67.6%" y="-66.7%" filterUnits="objectBoundingBox">
            <feOffset dy="9" in="SourceAlpha" result="shadowOffsetOuter1"/>
            <feGaussianBlur in="shadowOffsetOuter1" result="shadowBlurOuter1" stdDeviation="7.5"/>
            <feColorMatrix in="shadowBlurOuter1" result="shadowMatrixOuter1" values="0 0 0 0 0 0 0 0 0 0 0 0 0 0 0 0 0 0 0.17 0"/>
            <feMerge>
                <feMergeNode in="shadowMatrixOuter1"/>
                <feMergeNode in="SourceGraphic"/>
            </feMerge>
        </filter>
    </defs>
    <g fill="none" fill-rule="nonzero" filter="url(#a)" transform="translate(14 6)">
        <path fill="#FFCA55" d="M56.835 21.681c5.932 0 10.756-4.864 10.756-10.84S62.765 0 56.835 0c-5.933 0-10.758 4.864-10.758 10.841 0 5.976 4.825 10.84 10.758 10.84zm-4.73-13.643c0-2.435 2.01-3.694 4.232-3.764v-.953c0-.308.23-.611.531-.611.304 0 .536.303.536.61v.954c1.384.037 4.233.913 4.233 2.673 0 .699-.518 1.11-1.121 1.11-1.16 0-1.14-1.917-3.111-1.954V9.51c2.35.501 4.427 1.201 4.427 3.962 0 2.4-1.778 3.621-4.427 3.783v1.108c0 .307-.231.611-.535.611-.301 0-.531-.304-.531-.61v-1.109c-3.005-.074-4.498-1.884-4.498-3.302 0-.714.428-1.128 1.1-1.128 1.993 0 .445 2.473 3.4 2.6v-3.748c-2.638-.484-4.236-1.648-4.236-3.639z"/>
        <path fill="#FFCA55" d="M59.591 13.668c0-1.221-1.23-1.577-2.187-1.793v3.55c1.067-.073 2.187-.578 2.187-1.758zM56.336 6.103c-1.21.035-1.994.754-1.994 1.524 0 .897.663 1.416 1.995 1.684l-.001-3.208z"/>
        <path fill="#FFF" d="M13.535 48.29H4.262c-1.707 0-3.09 1.395-3.09 3.116v14.02c.001 1.723 1.386 3.116 3.09 3.116h9.273c1.707 0 3.09-1.393 3.09-3.117V51.406c.002-1.72-1.381-3.116-3.09-3.116zM37.5 37.387h-9.273c-1.707 0-3.09 1.396-3.09 3.117v24.924c0 1.724 1.384 3.117 3.09 3.117H37.5c1.707 0 3.092-1.393 3.092-3.117V40.5c0-1.716-1.383-3.112-3.092-3.112zM61.47 24.924h-9.272c-1.709 0-3.092 1.396-3.092 3.115v37.386c0 1.724 1.385 3.117 3.092 3.117h9.271c1.709 0 3.092-1.393 3.092-3.117V28.041c.001-1.721-1.383-3.117-3.092-3.117z"/>
        <path fill="#B8C2FF" d="M42.934 16l-7.675-1.616a1.543 1.543 0 0 0-1.553.589 1.569 1.569 0 0 0-.127 1.668l1.701 3.224L1.25 37.56a1.563 1.563 0 0 0-.664 2.097c.274.536.814.843 1.374.843.239 0 .48-.054.707-.173L36.73 22.614l1.561 2.958c.27.51.795.827 1.365.827l.078-.003a1.544 1.544 0 0 0 1.352-.967l2.965-7.318c.174-.429.15-.911-.067-1.32a1.571 1.571 0 0 0-1.05-.79z"/>
    </g>
</svg>
