<svg xmlns="http://www.w3.org/2000/svg" xmlns:xlink="http://www.w3.org/1999/xlink" width="825" height="485" viewBox="0 0 825 485">
    <defs>
        <path id="a" d="M0 .194h63.986v59.783H0z"/>
        <linearGradient id="d" x1="21.86%" x2="79.74%" y1="93.444%" y2="6.353%">
            <stop offset="0%" stop-color="#B8C1FF"/>
            <stop offset="100%" stop-color="#6B8BF5"/>
        </linearGradient>
        <path id="c" d="M63.986 6.03l-4.557 3.6L35.004.915c-1.656-.957-4.342-.961-6-.01L4.422 9.63 0 6.03v35.513h.004c.02.61.43 1.217 1.238 1.683l27.74 16.03c1.656.958 4.343.962 6 .01l27.76-15.95c.85-.488 1.261-1.132 1.24-1.773h.004V6.03z"/>
        <linearGradient id="f" x1="79.74%" x2="21.86%" y1="33.399%" y2="66.524%">
            <stop offset="0%" stop-color="#F7F8FF"/>
            <stop offset="100%" stop-color="#6B8BF5"/>
        </linearGradient>
        <path id="g" d="M11.18.15L1.142 5.985C.542 6.333.056 7.178.056 7.872V19.5c0 .694.486.974 1.086.626l10.038-5.834c.599-.349 1.085-1.194 1.085-1.888V.776c0-.491-.244-.775-.6-.775a.983.983 0 0 0-.485.15z"/>
        <path id="h" d="M10.723.308L.542 6.168c-.608.35-.609.92-.001 1.27l10.174 5.89c.607.352 1.592.354 2.2.004l10.182-5.86c.608-.35.608-.919 0-1.27L12.925.311c-.305-.177-.705-.265-1.104-.265-.397 0-.794.087-1.097.261z"/>
        <linearGradient id="i" x1="79.74%" x2="21.86%" y1="31.728%" y2="68.187%">
            <stop offset="0%" stop-color="#B8C1FF"/>
            <stop offset="100%" stop-color="#6B8BF5"/>
        </linearGradient>
        <linearGradient id="j" x1="50%" x2="35.264%" y1="-13.458%" y2="120.856%">
            <stop offset="0%" stop-color="#F7F8FF"/>
            <stop offset="100%" stop-color="#6B8BF5"/>
        </linearGradient>
        <linearGradient id="k" x1="79.74%" x2="21.725%" y1="38.869%" y2="61.131%">
            <stop offset="0%" stop-color="#75B3F1"/>
            <stop offset="100%" stop-color="#6A75EA"/>
        </linearGradient>
        <linearGradient id="l" x1="79.74%" x2="21.725%" y1="38.871%" y2="61.129%">
            <stop offset="0%" stop-color="#75B3F1"/>
            <stop offset="100%" stop-color="#6A75EA"/>
        </linearGradient>
        <linearGradient id="m" x1="79.74%" x2="21.725%" y1="37.691%" y2="62.309%">
            <stop offset="0%" stop-color="#75B3F1"/>
            <stop offset="100%" stop-color="#6A75EA"/>
        </linearGradient>
        <linearGradient id="n" x1="79.74%" x2="21.725%" y1="38.866%" y2="61.134%">
            <stop offset="0%" stop-color="#75B3F1"/>
            <stop offset="100%" stop-color="#6A75EA"/>
        </linearGradient>
        <linearGradient id="o" x1="79.74%" x2="21.725%" y1="38.868%" y2="61.132%">
            <stop offset="0%" stop-color="#75B3F1"/>
            <stop offset="100%" stop-color="#6A75EA"/>
        </linearGradient>
        <linearGradient id="p" x1="79.74%" x2="21.725%" y1="37.69%" y2="62.31%">
            <stop offset="0%" stop-color="#75B3F1"/>
            <stop offset="100%" stop-color="#6A75EA"/>
        </linearGradient>
        <linearGradient id="q" x1="79.74%" x2="21.86%" y1="31.728%" y2="68.187%">
            <stop offset="0%" stop-color="#CCD2FF"/>
            <stop offset="100%" stop-color="#6B8BF5"/>
        </linearGradient>
        <path id="r" d="M0 .194h63.986v59.783H0z"/>
        <path id="t" d="M63.986 6.03l-4.557 3.6L35.004.915c-1.656-.957-4.342-.961-6-.01L4.422 9.63 0 6.03v35.513h.004c.02.61.43 1.217 1.238 1.683l27.74 16.03c1.656.958 4.343.962 6 .01l27.76-15.95c.85-.488 1.261-1.132 1.24-1.773h.004V6.03z"/>
        <path id="v" d="M11.18.15L1.142 5.985C.542 6.333.056 7.178.056 7.872V19.5c0 .694.486.974 1.086.626l10.038-5.834c.599-.349 1.085-1.194 1.085-1.888V.776c0-.491-.244-.775-.6-.775a.983.983 0 0 0-.485.15z"/>
        <path id="w" d="M10.723.308L.542 6.168c-.608.35-.609.92-.001 1.27l10.174 5.89c.607.352 1.592.354 2.2.004l10.182-5.86c.608-.35.608-.919 0-1.27L12.925.311c-.305-.177-.705-.265-1.104-.265-.397 0-.794.087-1.097.261z"/>
        <path id="x" d="M0 .194h63.986v59.783H0z"/>
        <path id="z" d="M63.986 6.03l-4.557 3.6L35.004.915c-1.656-.957-4.342-.961-6-.01L4.422 9.63 0 6.03v35.513h.004c.02.61.43 1.217 1.238 1.683l27.74 16.03c1.656.958 4.343.962 6 .01l27.76-15.95c.85-.488 1.261-1.132 1.24-1.773h.004V6.03z"/>
        <path id="B" d="M11.18.15L1.142 5.985C.542 6.333.056 7.178.056 7.872V19.5c0 .694.486.974 1.086.626l10.038-5.834c.599-.349 1.085-1.194 1.085-1.888V.776c0-.491-.244-.775-.6-.775a.983.983 0 0 0-.485.15z"/>
        <path id="C" d="M10.723.308L.542 6.168c-.608.35-.609.92-.001 1.27l10.174 5.89c.607.352 1.592.354 2.2.004l10.182-5.86c.608-.35.608-.919 0-1.27L12.925.311c-.305-.177-.705-.265-1.104-.265-.397 0-.794.087-1.097.261z"/>
        <linearGradient id="D" x1="74.634%" x2="26.691%" y1="0%" y2="99.768%">
            <stop offset="0%" stop-color="#CCD2FF"/>
            <stop offset="100%" stop-color="#6B8BF5"/>
        </linearGradient>
    </defs>
    <g fill="none" fill-rule="evenodd">
        <path stroke="#ABBBFF" stroke-linecap="round" stroke-width="2" d="M253 177.5L405.452 61.808"/>
        <path stroke="#ABBBFF" stroke-dasharray="6,6" stroke-linecap="round" stroke-width="2" d="M116.01 288.375V186.787l136.442-.073"/>
        <g transform="translate(221 163.61)">
            <mask id="b" fill="#fff">
                <use xlink:href="#a"/>
            </mask>
            <g mask="url(#b)">
                <g>
                    <mask id="e" fill="#fff">
                        <use xlink:href="#c"/>
                    </mask>
                    <use fill="url(#d)" xlink:href="#c"/>
                    <path fill="#6B8BF5" d="M31.452 21.285v44.677l42.985-22.338-2.895-46.252z" mask="url(#e)"/>
                </g>
            </g>
        </g>
        <path fill="url(#f)" d="M62.743 20.208l-27.761 15.95c-1.657.952-4.344.948-6-.009L1.242 20.12c-1.657-.958-1.656-2.505.002-3.458L29.004.711c1.658-.952 4.344-.948 6 .01l27.74 16.03c1.657.957 1.656 2.505-.001 3.457" transform="translate(221 151.122)"/>
        <use fill="#F2F5FF" transform="matrix(-1 0 0 1 241.107 186.786)" xlink:href="#g"/>
        <path fill="#FFCA55" d="M178.219 186.14l-14.708-8.742a1 1 0 0 0-1.511.86v17.484a1 1 0 0 0 1.511.86l14.708-8.742a1 1 0 0 0 0-1.72z"/>
        <path stroke="#ABBBFF" stroke-linecap="round" stroke-width="2" d="M559.573 177.5L405.025 60.274"/>
        <path stroke="#ABBBFF" stroke-dasharray="6,6" stroke-linecap="round" stroke-width="2" d="M709.015 288.375V186.787l-136.442-.073"/>
        <g transform="translate(599 268)">
            <rect width="226" height="97" fill="#FFF" rx="5"/>
            <path fill="url(#i)" d="M54.549 23.03c-2.31-2.36-3.787-5.962-3.787-9.997 0-7.114 1.507-12.88 10.25-12.88s10.25 5.766 10.25 12.88c0 3.943-1.41 7.472-3.631 9.835 11.643 2.227 13.182 5.804 13.371 17.956.012.788.019.924.022.854v.957s-2.875 5.907-19.524 5.907c-16.648 0-19.522-5.907-19.522-5.907 0-.687-.001-1.08-.002-1.294.003.114.012.062.03-.917.212-11.544 1.77-15.178 12.543-17.393zm-41 0c-2.31-2.36-3.787-5.962-3.787-9.997 0-7.114 1.507-12.88 10.25-12.88s10.25 5.766 10.25 12.88c0 3.943-1.41 7.472-3.631 9.835 11.643 2.227 13.182 5.804 13.371 17.956.012.788.019.924.022.854v.957s-2.875 5.907-19.524 5.907C3.852 48.542.978 42.635.978 42.635c0-.687-.001-1.08-.002-1.294.003.114.012.062.03-.917.212-11.544 1.77-15.178 12.543-17.393z" transform="translate(17 20)"/>
            <path fill="#000" fill-rule="nonzero" d="M17.977 61.71c-.002-.407-.003-.114 0 0zM57.022 61.79c.006-.11.002-.772 0 0z"/>
            <g fill="#000" fill-rule="nonzero">
                <path d="M58.977 61.71c-.002-.407-.003-.114 0 0zM98.022 61.79c.006-.11.002-.772 0 0z"/>
            </g>
            <g>
                <path fill="url(#j)" d="M13.549 23.03c-2.31-2.36-3.787-5.962-3.787-9.997 0-7.114 1.507-12.88 10.25-12.88s10.25 5.766 10.25 12.88c0 3.943-1.41 7.472-3.631 9.835 11.643 2.227 13.182 5.804 13.371 17.956.012.788.019.924.022.854v.957s-2.875 5.907-19.524 5.907C3.852 48.542.978 42.635.978 42.635c0-.687-.001-1.08-.002-1.294.003.114.012.062.03-.917.212-11.544 1.77-15.178 12.543-17.393z" transform="translate(37.5 27.25)"/>
                <path fill="#000" fill-rule="nonzero" d="M38.477 68.96c-.002-.407-.003-.114 0 0zM77.522 69.04c.006-.11.002-.772 0 0z"/>
            </g>
            <g>
                <path fill="url(#k)" d="M51.998 48.196c-4.444 0-8.446-.938-11.453-2.502v-3.286c.324.222.674.434 1.048.637 2.757 1.495 6.453 2.319 10.405 2.319 3.96 0 7.657-.824 10.409-2.319.37-.197.706-.402 1.029-.617v3.281c-3.015 1.554-7 2.487-11.438 2.487zm6.365-8.495a28.899 28.899 0 0 1-6.365.693c-2.194 0-4.354-.238-6.358-.693h-7.919v6.505c0 .16.026.317.077.462.278 1.507 1.627 3.005 3.795 4.18 2.757 1.495 6.454 2.318 10.405 2.318 3.96 0 7.657-.823 10.409-2.318 2.453-1.328 3.852-3.063 3.852-4.762v-6.385h-7.896z" transform="translate(143 22)"/>
                <path fill="url(#l)" d="M51.998 40.394c-2.194 0-4.354-.238-6.358-.693-1.656-.376-3.204-.898-4.58-1.553-.174-.084-.347-.17-.515-.257v-3.28c.512.347 1.088.675 1.727.977 2.67 1.274 6.126 1.974 9.726 1.974 3.613 0 7.059-.7 9.739-1.972a14.175 14.175 0 0 0 1.699-.957v3.274c-.168.084-.323.163-.49.242-1.377.654-2.92 1.176-4.583 1.552a28.899 28.899 0 0 1-6.365.693zm6.365-8.494c-2.01.454-4.164.694-6.365.694-2.193 0-4.351-.24-6.355-.694H37.72v9.888l.022.026c.705.836 1.657 1.6 2.802 2.266v-1.672c.324.222.674.434 1.048.637 2.757 1.495 6.453 2.319 10.405 2.319 3.96 0 7.657-.824 10.409-2.319.37-.197.706-.402 1.029-.617v1.668c1.148-.666 2.106-1.435 2.823-2.276v-3.34-6.58h-7.896z" transform="translate(143 22)"/>
                <path fill="url(#l)" d="M51.998 32.594c-2.193 0-4.351-.24-6.355-.694-1.655-.375-3.206-.897-4.583-1.552a18.771 18.771 0 0 1-.515-.256V26.81c.512.35 1.088.676 1.727.98 2.674 1.27 6.13 1.972 9.726 1.972 3.601 0 7.059-.702 9.739-1.972.622-.298 1.184-.62 1.699-.958v3.274c-.168.084-.323.163-.49.242-1.377.655-2.932 1.177-4.583 1.552-2.01.454-4.164.694-6.365.694zm6.365-8.496a28.826 28.826 0 0 1-6.365.695 28.87 28.87 0 0 1-6.36-.695H37.72v9.886c.006.008.013.02.022.028.705.837 1.657 1.602 2.802 2.268v-1.668c.512.346 1.088.674 1.727.976 2.67 1.274 6.126 1.974 9.726 1.974 3.613 0 7.059-.7 9.739-1.972a14.175 14.175 0 0 0 1.699-.957v1.662c1.148-.666 2.106-1.433 2.823-2.275v-3.328-6.594h-7.896z" transform="translate(143 22)"/>
                <path fill="url(#k)" d="M51.998 24.793a28.87 28.87 0 0 1-6.36-.695c-1.656-.375-3.203-.898-4.58-1.554a20.491 20.491 0 0 1-.513-.254v-3.28c.51.346 1.087.675 1.724.977 2.671 1.273 6.129 1.974 9.729 1.974 3.613 0 7.07-.7 9.739-1.974a14.014 14.014 0 0 0 1.699-.957v3.274c-.168.082-.323.162-.49.24-1.377.656-2.92 1.179-4.583 1.554a28.826 28.826 0 0 1-6.365.695zm6.4-8.496c-1.961.449-4.115.695-6.4.695-2.272 0-4.43-.246-6.399-.695h-7.878v9.887a.209.209 0 0 0 .022.026c.705.84 1.657 1.604 2.802 2.267V26.81c.512.35 1.088.676 1.727.98 2.674 1.27 6.13 1.972 9.726 1.972 3.601 0 7.059-.702 9.739-1.972.622-.298 1.184-.62 1.699-.958v1.66c1.148-.663 2.106-1.43 2.823-2.273V22.89v-6.593H58.4z" transform="translate(143 22)"/>
                <path fill="url(#k)" d="M51.998 16.992c-2.272 0-4.43-.246-6.399-.695-1.878-.43-3.585-1.044-5.054-1.807v-3.283c.323.22.672.433 1.046.636 2.76 1.495 6.455 2.317 10.407 2.317 3.96 0 7.657-.822 10.409-2.317.37-.197.706-.405 1.029-.618v3.28c-1.472.757-3.159 1.366-5.037 1.792-1.962.449-4.116.695-6.401.695zM37.721 8.496v9.887a.355.355 0 0 0 .022.027c.705.838 1.657 1.602 2.802 2.266v-1.667c.51.347 1.087.676 1.724.978 2.671 1.273 6.129 1.974 9.729 1.974 3.613 0 7.07-.7 9.739-1.974a14.014 14.014 0 0 0 1.699-.957v1.663c1.148-.665 2.106-1.432 2.823-2.274v-3.33-6.593H37.721z" transform="translate(143 22)"/>
                <path fill="url(#m)" d="M66.26 8.496v2.12c-.718.843-1.676 1.61-2.824 2.277v-1.668c-.323.213-.658.421-1.03.618-2.75 1.495-6.448 2.317-10.408 2.317-3.952 0-7.648-.822-10.407-2.317a12.18 12.18 0 0 1-1.046-.636v1.669c-1.145-.664-2.097-1.43-2.802-2.267a.201.201 0 0 1-.022-.025V7.312c0-.086.006-.17.022-.25v-.005c.013-1.692 1.414-3.417 3.848-4.739C44.351.824 48.046 0 51.998 0c3.96 0 7.657.824 10.409 2.318 2.453 1.328 3.852 3.063 3.852 4.762V8.496" transform="translate(143 22)"/>
                <path fill="url(#n)" d="M20.665 39.7c-1.967.45-4.123.694-6.398.694-2.272 0-4.428-.244-6.394-.693h-5.05v2.719c.32.216.666.426 1.034.625 2.758 1.495 6.455 2.319 10.41 2.319 3.957 0 7.654-.824 10.412-2.319.368-.199.714-.409 1.032-.625V39.7h-5.046zm0 0c-1.967.45-4.123.694-6.398.694-2.272 0-4.428-.244-6.394-.693h-5.05v2.719c.32.216.666.426 1.034.625 2.758 1.495 6.455 2.319 10.41 2.319 3.957 0 7.654-.824 10.412-2.319.368-.199.714-.409 1.032-.625V39.7h-5.046zm0 0c-1.967.45-4.123.694-6.398.694-2.272 0-4.428-.244-6.394-.693h-5.05v2.719c.32.216.666.426 1.034.625 2.758 1.495 6.455 2.319 10.41 2.319 3.957 0 7.654-.824 10.412-2.319.368-.199.714-.409 1.032-.625V39.7h-5.046zm0 0c-1.967.45-4.123.694-6.398.694-2.272 0-4.428-.244-6.394-.693h-5.05v2.719c.32.216.666.426 1.034.625 2.758 1.495 6.455 2.319 10.41 2.319 3.957 0 7.654-.824 10.412-2.319.368-.199.714-.409 1.032-.625V39.7h-5.046zm0 0c-1.967.45-4.123.694-6.398.694-2.272 0-4.428-.244-6.394-.693h-5.05v2.719c.32.216.666.426 1.034.625 2.758 1.495 6.455 2.319 10.41 2.319 3.957 0 7.654-.824 10.412-2.319.368-.199.714-.409 1.032-.625V39.7h-5.046zm0 0c-1.967.45-4.123.694-6.398.694-2.272 0-4.428-.244-6.394-.693h-5.05v2.719c.32.216.666.426 1.034.625 2.758 1.495 6.455 2.319 10.41 2.319 3.957 0 7.654-.824 10.412-2.319.368-.199.714-.409 1.032-.625V39.7h-5.046zm-6.398 8.496c-4.44 0-8.436-.935-11.443-2.495V42.42c.319.216.665.426 1.033.625 2.758 1.495 6.455 2.319 10.41 2.319 3.957 0 7.654-.824 10.412-2.319.368-.199.714-.409 1.032-.625v3.28c-3.006 1.56-7.001 2.496-11.444 2.496zm6.398-8.495c-1.967.449-4.123.693-6.398.693-2.272 0-4.428-.244-6.394-.693H0v6.19c0 .047.004.097.007.143v.052c0 1.7 1.404 3.434 3.85 4.762 2.758 1.495 6.455 2.318 10.41 2.318 3.957 0 7.654-.823 10.412-2.318 2.446-1.328 3.85-3.063 3.85-4.762v-.052c.003-.046.006-.096.006-.144V39.7h-7.87zm0 0c-1.967.449-4.123.693-6.398.693-2.272 0-4.428-.244-6.394-.693h-5.05v2.719c.32.216.666.426 1.034.625 2.758 1.495 6.455 2.319 10.41 2.319 3.957 0 7.654-.824 10.412-2.319.368-.199.714-.409 1.032-.625V39.7h-5.046zm0 0c-1.967.449-4.123.693-6.398.693-2.272 0-4.428-.244-6.394-.693h-5.05v2.719c.32.216.666.426 1.034.625 2.758 1.495 6.455 2.319 10.41 2.319 3.957 0 7.654-.824 10.412-2.319.368-.199.714-.409 1.032-.625V39.7h-5.046zm0 0c-1.967.449-4.123.693-6.398.693-2.272 0-4.428-.244-6.394-.693h-5.05v2.719c.32.216.666.426 1.034.625 2.758 1.495 6.455 2.319 10.41 2.319 3.957 0 7.654-.824 10.412-2.319.368-.199.714-.409 1.032-.625V39.7h-5.046zm0 0c-1.967.449-4.123.693-6.398.693-2.272 0-4.428-.244-6.394-.693h-5.05v2.719c.32.216.666.426 1.034.625 2.758 1.495 6.455 2.319 10.41 2.319 3.957 0 7.654-.824 10.412-2.319.368-.199.714-.409 1.032-.625V39.7h-5.046zm0 0c-1.967.449-4.123.693-6.398.693-2.272 0-4.428-.244-6.394-.693h-5.05v2.719c.32.216.666.426 1.034.625 2.758 1.495 6.455 2.319 10.41 2.319 3.957 0 7.654-.824 10.412-2.319.368-.199.714-.409 1.032-.625V39.7h-5.046zm0 0c-1.967.449-4.123.693-6.398.693-2.272 0-4.428-.244-6.394-.693h-5.05v2.719c.32.216.666.426 1.034.625 2.758 1.495 6.455 2.319 10.41 2.319 3.957 0 7.654-.824 10.412-2.319.368-.199.714-.409 1.032-.625V39.7h-5.046zm0 0c-1.967.449-4.123.693-6.398.693-2.272 0-4.428-.244-6.394-.693h-5.05v2.719c.32.216.666.426 1.034.625 2.758 1.495 6.455 2.319 10.41 2.319 3.957 0 7.654-.824 10.412-2.319.368-.199.714-.409 1.032-.625V39.7h-5.046z" transform="translate(143 22)"/>
                <path fill="url(#o)" d="M2.824 37.9v1.8h5.048c-1.875-.426-3.58-1.038-5.048-1.8zm0 0v1.8h5.048c-1.875-.426-3.58-1.038-5.048-1.8zm0 0v1.8h5.048c-1.875-.426-3.58-1.038-5.048-1.8zm0 0v1.8h5.048c-1.875-.426-3.58-1.038-5.048-1.8zm0 0v1.8h5.048c-1.875-.426-3.58-1.038-5.048-1.8zm0 0v1.8h5.048c-1.875-.426-3.58-1.038-5.048-1.8zm0 0v1.8h5.048c-1.875-.426-3.58-1.038-5.048-1.8zm11.443 2.494c-2.272 0-4.428-.244-6.394-.693-1.877-.427-3.581-1.04-5.05-1.801v-3.281c.32.217.666.426 1.034.626 2.758 1.495 6.455 2.317 10.41 2.317 3.957 0 7.654-.822 10.412-2.317.368-.2.714-.409 1.032-.626v3.28c-1.468.763-3.17 1.375-5.046 1.802-1.967.449-4.123.693-6.398.693zM0 31.9v9.903c.001.004.005.006.007.009.71.84 1.664 1.61 2.817 2.276V42.42c.319.216.665.426 1.033.625 2.758 1.495 6.455 2.319 10.41 2.319 3.957 0 7.654-.824 10.412-2.319.368-.199.714-.409 1.032-.625v1.668c1.152-.666 2.108-1.435 2.818-2.276.002-.003.005-.005.006-.009V31.9H0zm2.824 6v1.8h5.048c-1.875-.426-3.58-1.038-5.048-1.8zm0 0v1.8h5.048c-1.875-.426-3.58-1.038-5.048-1.8zm0 0v1.8h5.048c-1.875-.426-3.58-1.038-5.048-1.8zm0 0v1.8h5.048c-1.875-.426-3.58-1.038-5.048-1.8zm0 0v1.8h5.048c-1.875-.426-3.58-1.038-5.048-1.8zm0 0v1.8h5.048c-1.875-.426-3.58-1.038-5.048-1.8zm0 0v1.8h5.048c-1.875-.426-3.58-1.038-5.048-1.8z" transform="translate(143 22)"/>
                <path fill="url(#p)" d="M28.535 30.75v3.252l-.006.008c-.71.843-1.666 1.61-2.818 2.277v-1.668c-.318.217-.664.426-1.032.626-2.758 1.495-6.455 2.317-10.412 2.317-3.955 0-7.652-.822-10.41-2.317-.368-.2-.714-.409-1.033-.626v1.668C1.67 35.62.717 34.853.007 34.01L0 34.002V30.75c0-.055.004-.11.01-.164-.003-.034-.003-.068-.003-.102 0-1.7 1.404-3.436 3.85-4.762 2.758-1.495 6.455-2.318 10.41-2.318 3.957 0 7.654.823 10.412 2.318 2.446 1.326 3.85 3.061 3.85 4.762 0 .034 0 .068-.004.102.007.054.01.109.01.164" transform="translate(143 22)"/>
            </g>
            <path fill="#2A304E" fill-rule="nonzero" d="M113 46.84h6.84V40h2.34v6.84h6.84v2.34h-6.84v6.84h-2.34v-6.84H113z"/>
        </g>
        <g transform="translate(0 268)">
            <rect width="226" height="97" fill="#FFF" rx="5"/>
            <path fill="url(#q)" d="M54.549 23.03c-2.31-2.36-3.787-5.962-3.787-9.997 0-7.114 1.507-12.88 10.25-12.88s10.25 5.766 10.25 12.88c0 3.943-1.41 7.472-3.631 9.835 11.643 2.227 13.182 5.804 13.371 17.956.012.788.019.924.022.854v.957s-2.875 5.907-19.524 5.907c-16.648 0-19.522-5.907-19.522-5.907 0-.687-.001-1.08-.002-1.294.003.114.012.062.03-.917.212-11.544 1.77-15.178 12.543-17.393zm-41 0c-2.31-2.36-3.787-5.962-3.787-9.997 0-7.114 1.507-12.88 10.25-12.88s10.25 5.766 10.25 12.88c0 3.943-1.41 7.472-3.631 9.835 11.643 2.227 13.182 5.804 13.371 17.956.012.788.019.924.022.854v.957s-2.875 5.907-19.524 5.907C3.852 48.542.978 42.635.978 42.635c0-.687-.001-1.08-.002-1.294.003.114.012.062.03-.917.212-11.544 1.77-15.178 12.543-17.393z" transform="translate(17 20)"/>
            <path fill="#000" fill-rule="nonzero" d="M17.977 61.71c-.002-.407-.003-.114 0 0zM57.022 61.79c.006-.11.002-.772 0 0z"/>
            <g fill="#000" fill-rule="nonzero">
                <path d="M58.977 61.71c-.002-.407-.003-.114 0 0zM98.022 61.79c.006-.11.002-.772 0 0z"/>
            </g>
            <g>
                <path fill="url(#j)" d="M13.549 23.03c-2.31-2.36-3.787-5.962-3.787-9.997 0-7.114 1.507-12.88 10.25-12.88s10.25 5.766 10.25 12.88c0 3.943-1.41 7.472-3.631 9.835 11.643 2.227 13.182 5.804 13.371 17.956.012.788.019.924.022.854v.957s-2.875 5.907-19.524 5.907C3.852 48.542.978 42.635.978 42.635c0-.687-.001-1.08-.002-1.294.003.114.012.062.03-.917.212-11.544 1.77-15.178 12.543-17.393z" transform="translate(37.5 27.25)"/>
                <path fill="#000" fill-rule="nonzero" d="M38.477 68.96c-.002-.407-.003-.114 0 0zM77.522 69.04c.006-.11.002-.772 0 0z"/>
            </g>
            <g>
                <path fill="url(#k)" d="M51.998 48.196c-4.444 0-8.446-.938-11.453-2.502v-3.286c.324.222.674.434 1.048.637 2.757 1.495 6.453 2.319 10.405 2.319 3.96 0 7.657-.824 10.409-2.319.37-.197.706-.402 1.029-.617v3.281c-3.015 1.554-7 2.487-11.438 2.487zm6.365-8.495a28.899 28.899 0 0 1-6.365.693c-2.194 0-4.354-.238-6.358-.693h-7.919v6.505c0 .16.026.317.077.462.278 1.507 1.627 3.005 3.795 4.18 2.757 1.495 6.454 2.318 10.405 2.318 3.96 0 7.657-.823 10.409-2.318 2.453-1.328 3.852-3.063 3.852-4.762v-6.385h-7.896z" transform="translate(143 22)"/>
                <path fill="url(#l)" d="M51.998 40.394c-2.194 0-4.354-.238-6.358-.693-1.656-.376-3.204-.898-4.58-1.553-.174-.084-.347-.17-.515-.257v-3.28c.512.347 1.088.675 1.727.977 2.67 1.274 6.126 1.974 9.726 1.974 3.613 0 7.059-.7 9.739-1.972a14.175 14.175 0 0 0 1.699-.957v3.274c-.168.084-.323.163-.49.242-1.377.654-2.92 1.176-4.583 1.552a28.899 28.899 0 0 1-6.365.693zm6.365-8.494c-2.01.454-4.164.694-6.365.694-2.193 0-4.351-.24-6.355-.694H37.72v9.888l.022.026c.705.836 1.657 1.6 2.802 2.266v-1.672c.324.222.674.434 1.048.637 2.757 1.495 6.453 2.319 10.405 2.319 3.96 0 7.657-.824 10.409-2.319.37-.197.706-.402 1.029-.617v1.668c1.148-.666 2.106-1.435 2.823-2.276v-3.34-6.58h-7.896z" transform="translate(143 22)"/>
                <path fill="url(#l)" d="M51.998 32.594c-2.193 0-4.351-.24-6.355-.694-1.655-.375-3.206-.897-4.583-1.552a18.771 18.771 0 0 1-.515-.256V26.81c.512.35 1.088.676 1.727.98 2.674 1.27 6.13 1.972 9.726 1.972 3.601 0 7.059-.702 9.739-1.972.622-.298 1.184-.62 1.699-.958v3.274c-.168.084-.323.163-.49.242-1.377.655-2.932 1.177-4.583 1.552-2.01.454-4.164.694-6.365.694zm6.365-8.496a28.826 28.826 0 0 1-6.365.695 28.87 28.87 0 0 1-6.36-.695H37.72v9.886c.006.008.013.02.022.028.705.837 1.657 1.602 2.802 2.268v-1.668c.512.346 1.088.674 1.727.976 2.67 1.274 6.126 1.974 9.726 1.974 3.613 0 7.059-.7 9.739-1.972a14.175 14.175 0 0 0 1.699-.957v1.662c1.148-.666 2.106-1.433 2.823-2.275v-3.328-6.594h-7.896z" transform="translate(143 22)"/>
                <path fill="url(#k)" d="M51.998 24.793a28.87 28.87 0 0 1-6.36-.695c-1.656-.375-3.203-.898-4.58-1.554a20.491 20.491 0 0 1-.513-.254v-3.28c.51.346 1.087.675 1.724.977 2.671 1.273 6.129 1.974 9.729 1.974 3.613 0 7.07-.7 9.739-1.974a14.014 14.014 0 0 0 1.699-.957v3.274c-.168.082-.323.162-.49.24-1.377.656-2.92 1.179-4.583 1.554a28.826 28.826 0 0 1-6.365.695zm6.4-8.496c-1.961.449-4.115.695-6.4.695-2.272 0-4.43-.246-6.399-.695h-7.878v9.887a.209.209 0 0 0 .022.026c.705.84 1.657 1.604 2.802 2.267V26.81c.512.35 1.088.676 1.727.98 2.674 1.27 6.13 1.972 9.726 1.972 3.601 0 7.059-.702 9.739-1.972.622-.298 1.184-.62 1.699-.958v1.66c1.148-.663 2.106-1.43 2.823-2.273V22.89v-6.593H58.4z" transform="translate(143 22)"/>
                <path fill="url(#k)" d="M51.998 16.992c-2.272 0-4.43-.246-6.399-.695-1.878-.43-3.585-1.044-5.054-1.807v-3.283c.323.22.672.433 1.046.636 2.76 1.495 6.455 2.317 10.407 2.317 3.96 0 7.657-.822 10.409-2.317.37-.197.706-.405 1.029-.618v3.28c-1.472.757-3.159 1.366-5.037 1.792-1.962.449-4.116.695-6.401.695zM37.721 8.496v9.887a.355.355 0 0 0 .022.027c.705.838 1.657 1.602 2.802 2.266v-1.667c.51.347 1.087.676 1.724.978 2.671 1.273 6.129 1.974 9.729 1.974 3.613 0 7.07-.7 9.739-1.974a14.014 14.014 0 0 0 1.699-.957v1.663c1.148-.665 2.106-1.432 2.823-2.274v-3.33-6.593H37.721z" transform="translate(143 22)"/>
                <path fill="url(#m)" d="M66.26 8.496v2.12c-.718.843-1.676 1.61-2.824 2.277v-1.668c-.323.213-.658.421-1.03.618-2.75 1.495-6.448 2.317-10.408 2.317-3.952 0-7.648-.822-10.407-2.317a12.18 12.18 0 0 1-1.046-.636v1.669c-1.145-.664-2.097-1.43-2.802-2.267a.201.201 0 0 1-.022-.025V7.312c0-.086.006-.17.022-.25v-.005c.013-1.692 1.414-3.417 3.848-4.739C44.351.824 48.046 0 51.998 0c3.96 0 7.657.824 10.409 2.318 2.453 1.328 3.852 3.063 3.852 4.762V8.496" transform="translate(143 22)"/>
                <path fill="url(#n)" d="M20.665 39.7c-1.967.45-4.123.694-6.398.694-2.272 0-4.428-.244-6.394-.693h-5.05v2.719c.32.216.666.426 1.034.625 2.758 1.495 6.455 2.319 10.41 2.319 3.957 0 7.654-.824 10.412-2.319.368-.199.714-.409 1.032-.625V39.7h-5.046zm0 0c-1.967.45-4.123.694-6.398.694-2.272 0-4.428-.244-6.394-.693h-5.05v2.719c.32.216.666.426 1.034.625 2.758 1.495 6.455 2.319 10.41 2.319 3.957 0 7.654-.824 10.412-2.319.368-.199.714-.409 1.032-.625V39.7h-5.046zm0 0c-1.967.45-4.123.694-6.398.694-2.272 0-4.428-.244-6.394-.693h-5.05v2.719c.32.216.666.426 1.034.625 2.758 1.495 6.455 2.319 10.41 2.319 3.957 0 7.654-.824 10.412-2.319.368-.199.714-.409 1.032-.625V39.7h-5.046zm0 0c-1.967.45-4.123.694-6.398.694-2.272 0-4.428-.244-6.394-.693h-5.05v2.719c.32.216.666.426 1.034.625 2.758 1.495 6.455 2.319 10.41 2.319 3.957 0 7.654-.824 10.412-2.319.368-.199.714-.409 1.032-.625V39.7h-5.046zm0 0c-1.967.45-4.123.694-6.398.694-2.272 0-4.428-.244-6.394-.693h-5.05v2.719c.32.216.666.426 1.034.625 2.758 1.495 6.455 2.319 10.41 2.319 3.957 0 7.654-.824 10.412-2.319.368-.199.714-.409 1.032-.625V39.7h-5.046zm0 0c-1.967.45-4.123.694-6.398.694-2.272 0-4.428-.244-6.394-.693h-5.05v2.719c.32.216.666.426 1.034.625 2.758 1.495 6.455 2.319 10.41 2.319 3.957 0 7.654-.824 10.412-2.319.368-.199.714-.409 1.032-.625V39.7h-5.046zm-6.398 8.496c-4.44 0-8.436-.935-11.443-2.495V42.42c.319.216.665.426 1.033.625 2.758 1.495 6.455 2.319 10.41 2.319 3.957 0 7.654-.824 10.412-2.319.368-.199.714-.409 1.032-.625v3.28c-3.006 1.56-7.001 2.496-11.444 2.496zm6.398-8.495c-1.967.449-4.123.693-6.398.693-2.272 0-4.428-.244-6.394-.693H0v6.19c0 .047.004.097.007.143v.052c0 1.7 1.404 3.434 3.85 4.762 2.758 1.495 6.455 2.318 10.41 2.318 3.957 0 7.654-.823 10.412-2.318 2.446-1.328 3.85-3.063 3.85-4.762v-.052c.003-.046.006-.096.006-.144V39.7h-7.87zm0 0c-1.967.449-4.123.693-6.398.693-2.272 0-4.428-.244-6.394-.693h-5.05v2.719c.32.216.666.426 1.034.625 2.758 1.495 6.455 2.319 10.41 2.319 3.957 0 7.654-.824 10.412-2.319.368-.199.714-.409 1.032-.625V39.7h-5.046zm0 0c-1.967.449-4.123.693-6.398.693-2.272 0-4.428-.244-6.394-.693h-5.05v2.719c.32.216.666.426 1.034.625 2.758 1.495 6.455 2.319 10.41 2.319 3.957 0 7.654-.824 10.412-2.319.368-.199.714-.409 1.032-.625V39.7h-5.046zm0 0c-1.967.449-4.123.693-6.398.693-2.272 0-4.428-.244-6.394-.693h-5.05v2.719c.32.216.666.426 1.034.625 2.758 1.495 6.455 2.319 10.41 2.319 3.957 0 7.654-.824 10.412-2.319.368-.199.714-.409 1.032-.625V39.7h-5.046zm0 0c-1.967.449-4.123.693-6.398.693-2.272 0-4.428-.244-6.394-.693h-5.05v2.719c.32.216.666.426 1.034.625 2.758 1.495 6.455 2.319 10.41 2.319 3.957 0 7.654-.824 10.412-2.319.368-.199.714-.409 1.032-.625V39.7h-5.046zm0 0c-1.967.449-4.123.693-6.398.693-2.272 0-4.428-.244-6.394-.693h-5.05v2.719c.32.216.666.426 1.034.625 2.758 1.495 6.455 2.319 10.41 2.319 3.957 0 7.654-.824 10.412-2.319.368-.199.714-.409 1.032-.625V39.7h-5.046zm0 0c-1.967.449-4.123.693-6.398.693-2.272 0-4.428-.244-6.394-.693h-5.05v2.719c.32.216.666.426 1.034.625 2.758 1.495 6.455 2.319 10.41 2.319 3.957 0 7.654-.824 10.412-2.319.368-.199.714-.409 1.032-.625V39.7h-5.046zm0 0c-1.967.449-4.123.693-6.398.693-2.272 0-4.428-.244-6.394-.693h-5.05v2.719c.32.216.666.426 1.034.625 2.758 1.495 6.455 2.319 10.41 2.319 3.957 0 7.654-.824 10.412-2.319.368-.199.714-.409 1.032-.625V39.7h-5.046z" transform="translate(143 22)"/>
                <path fill="url(#o)" d="M2.824 37.9v1.8h5.048c-1.875-.426-3.58-1.038-5.048-1.8zm0 0v1.8h5.048c-1.875-.426-3.58-1.038-5.048-1.8zm0 0v1.8h5.048c-1.875-.426-3.58-1.038-5.048-1.8zm0 0v1.8h5.048c-1.875-.426-3.58-1.038-5.048-1.8zm0 0v1.8h5.048c-1.875-.426-3.58-1.038-5.048-1.8zm0 0v1.8h5.048c-1.875-.426-3.58-1.038-5.048-1.8zm0 0v1.8h5.048c-1.875-.426-3.58-1.038-5.048-1.8zm11.443 2.494c-2.272 0-4.428-.244-6.394-.693-1.877-.427-3.581-1.04-5.05-1.801v-3.281c.32.217.666.426 1.034.626 2.758 1.495 6.455 2.317 10.41 2.317 3.957 0 7.654-.822 10.412-2.317.368-.2.714-.409 1.032-.626v3.28c-1.468.763-3.17 1.375-5.046 1.802-1.967.449-4.123.693-6.398.693zM0 31.9v9.903c.001.004.005.006.007.009.71.84 1.664 1.61 2.817 2.276V42.42c.319.216.665.426 1.033.625 2.758 1.495 6.455 2.319 10.41 2.319 3.957 0 7.654-.824 10.412-2.319.368-.199.714-.409 1.032-.625v1.668c1.152-.666 2.108-1.435 2.818-2.276.002-.003.005-.005.006-.009V31.9H0zm2.824 6v1.8h5.048c-1.875-.426-3.58-1.038-5.048-1.8zm0 0v1.8h5.048c-1.875-.426-3.58-1.038-5.048-1.8zm0 0v1.8h5.048c-1.875-.426-3.58-1.038-5.048-1.8zm0 0v1.8h5.048c-1.875-.426-3.58-1.038-5.048-1.8zm0 0v1.8h5.048c-1.875-.426-3.58-1.038-5.048-1.8zm0 0v1.8h5.048c-1.875-.426-3.58-1.038-5.048-1.8zm0 0v1.8h5.048c-1.875-.426-3.58-1.038-5.048-1.8z" transform="translate(143 22)"/>
                <path fill="url(#p)" d="M28.535 30.75v3.252l-.006.008c-.71.843-1.666 1.61-2.818 2.277v-1.668c-.318.217-.664.426-1.032.626-2.758 1.495-6.455 2.317-10.412 2.317-3.955 0-7.652-.822-10.41-2.317-.368-.2-.714-.409-1.033-.626v1.668C1.67 35.62.717 34.853.007 34.01L0 34.002V30.75c0-.055.004-.11.01-.164-.003-.034-.003-.068-.003-.102 0-1.7 1.404-3.436 3.85-4.762 2.758-1.495 6.455-2.318 10.41-2.318 3.957 0 7.654.823 10.412 2.318 2.446 1.326 3.85 3.061 3.85 4.762 0 .034 0 .068-.004.102.007.054.01.109.01.164" transform="translate(143 22)"/>
            </g>
            <path fill="#2A304E" fill-rule="nonzero" d="M113 46.84h6.84V40h2.34v6.84h6.84v2.34h-6.84v6.84h-2.34v-6.84H113z"/>
        </g>
        <g transform="translate(527.573 163.61)">
            <mask id="s" fill="#fff">
                <use xlink:href="#r"/>
            </mask>
            <g mask="url(#s)">
                <g>
                    <mask id="u" fill="#fff">
                        <use xlink:href="#t"/>
                    </mask>
                    <use fill="url(#d)" xlink:href="#t"/>
                    <path fill="#6B8BF5" d="M31.452 21.285v44.677l42.985-22.338-2.895-46.252z" mask="url(#u)"/>
                </g>
            </g>
        </g>
        <path fill="url(#f)" d="M62.743 20.208l-27.761 15.95c-1.657.952-4.344.948-6-.009L1.242 20.12c-1.657-.958-1.656-2.505.002-3.458L29.004.711c1.658-.952 4.344-.948 6 .01l27.74 16.03c1.657.957 1.656 2.505-.001 3.457" transform="translate(527.573 151.122)"/>
        <use fill="#F2F5FF" transform="matrix(-1 0 0 1 547.68 186.786)" xlink:href="#v"/>
        <path fill="#FFCA55" d="M646.446 186.14l14.708-8.742a1 1 0 0 1 1.511.86v17.484a1 1 0 0 1-1.511.86l-14.708-8.742a1 1 0 0 1 0-1.72z"/>
        <path stroke="#ABBBFF" stroke-linecap="round" stroke-width="2" d="M409.548 202.246V59.876"/>
        <path stroke="#ABBBFF" stroke-dasharray="6,6" stroke-linecap="round" stroke-width="2" d="M409.776 436.292V219.939"/>
        <g>
            <g transform="translate(378 213.61)">
                <mask id="y" fill="#fff">
                    <use xlink:href="#x"/>
                </mask>
                <g mask="url(#y)">
                    <g>
                        <mask id="A" fill="#fff">
                            <use xlink:href="#z"/>
                        </mask>
                        <use fill="url(#d)" xlink:href="#z"/>
                        <path fill="#6B8BF5" d="M31.452 21.285v44.677l42.985-22.338-2.895-46.252z" mask="url(#A)"/>
                    </g>
                </g>
            </g>
            <path fill="url(#f)" d="M62.743 20.208l-27.761 15.95c-1.657.952-4.344.948-6-.009L1.242 20.12c-1.657-.958-1.656-2.505.002-3.458L29.004.711c1.658-.952 4.344-.948 6 .01l27.74 16.03c1.657.957 1.656 2.505-.001 3.457" transform="translate(378 201.122)"/>
            <use fill="#F2F5FF" transform="matrix(-1 0 0 1 398.107 236.786)" xlink:href="#B"/>
        </g>
        <g transform="translate(297 388)">
            <rect width="226" height="97" fill="#FFF" rx="5"/>
            <path fill="url(#q)" d="M54.549 23.03c-2.31-2.36-3.787-5.962-3.787-9.997 0-7.114 1.507-12.88 10.25-12.88s10.25 5.766 10.25 12.88c0 3.943-1.41 7.472-3.631 9.835 11.643 2.227 13.182 5.804 13.371 17.956.012.788.019.924.022.854v.957s-2.875 5.907-19.524 5.907c-16.648 0-19.522-5.907-19.522-5.907 0-.687-.001-1.08-.002-1.294.003.114.012.062.03-.917.212-11.544 1.77-15.178 12.543-17.393zm-41 0c-2.31-2.36-3.787-5.962-3.787-9.997 0-7.114 1.507-12.88 10.25-12.88s10.25 5.766 10.25 12.88c0 3.943-1.41 7.472-3.631 9.835 11.643 2.227 13.182 5.804 13.371 17.956.012.788.019.924.022.854v.957s-2.875 5.907-19.524 5.907C3.852 48.542.978 42.635.978 42.635c0-.687-.001-1.08-.002-1.294.003.114.012.062.03-.917.212-11.544 1.77-15.178 12.543-17.393z" transform="translate(17 20)"/>
            <path fill="#000" fill-rule="nonzero" d="M17.977 61.71c-.002-.407-.003-.114 0 0zM57.022 61.79c.006-.11.002-.772 0 0z"/>
            <g fill="#000" fill-rule="nonzero">
                <path d="M58.977 61.71c-.002-.407-.003-.114 0 0zM98.022 61.79c.006-.11.002-.772 0 0z"/>
            </g>
            <g>
                <path fill="url(#j)" d="M13.549 23.03c-2.31-2.36-3.787-5.962-3.787-9.997 0-7.114 1.507-12.88 10.25-12.88s10.25 5.766 10.25 12.88c0 3.943-1.41 7.472-3.631 9.835 11.643 2.227 13.182 5.804 13.371 17.956.012.788.019.924.022.854v.957s-2.875 5.907-19.524 5.907C3.852 48.542.978 42.635.978 42.635c0-.687-.001-1.08-.002-1.294.003.114.012.062.03-.917.212-11.544 1.77-15.178 12.543-17.393z" transform="translate(37.5 27.25)"/>
                <path fill="#000" fill-rule="nonzero" d="M38.477 68.96c-.002-.407-.003-.114 0 0zM77.522 69.04c.006-.11.002-.772 0 0z"/>
            </g>
            <g>
                <path fill="url(#k)" d="M51.998 48.196c-4.444 0-8.446-.938-11.453-2.502v-3.286c.324.222.674.434 1.048.637 2.757 1.495 6.453 2.319 10.405 2.319 3.96 0 7.657-.824 10.409-2.319.37-.197.706-.402 1.029-.617v3.281c-3.015 1.554-7 2.487-11.438 2.487zm6.365-8.495a28.899 28.899 0 0 1-6.365.693c-2.194 0-4.354-.238-6.358-.693h-7.919v6.505c0 .16.026.317.077.462.278 1.507 1.627 3.005 3.795 4.18 2.757 1.495 6.454 2.318 10.405 2.318 3.96 0 7.657-.823 10.409-2.318 2.453-1.328 3.852-3.063 3.852-4.762v-6.385h-7.896z" transform="translate(143 22)"/>
                <path fill="url(#l)" d="M51.998 40.394c-2.194 0-4.354-.238-6.358-.693-1.656-.376-3.204-.898-4.58-1.553-.174-.084-.347-.17-.515-.257v-3.28c.512.347 1.088.675 1.727.977 2.67 1.274 6.126 1.974 9.726 1.974 3.613 0 7.059-.7 9.739-1.972a14.175 14.175 0 0 0 1.699-.957v3.274c-.168.084-.323.163-.49.242-1.377.654-2.92 1.176-4.583 1.552a28.899 28.899 0 0 1-6.365.693zm6.365-8.494c-2.01.454-4.164.694-6.365.694-2.193 0-4.351-.24-6.355-.694H37.72v9.888l.022.026c.705.836 1.657 1.6 2.802 2.266v-1.672c.324.222.674.434 1.048.637 2.757 1.495 6.453 2.319 10.405 2.319 3.96 0 7.657-.824 10.409-2.319.37-.197.706-.402 1.029-.617v1.668c1.148-.666 2.106-1.435 2.823-2.276v-3.34-6.58h-7.896z" transform="translate(143 22)"/>
                <path fill="url(#l)" d="M51.998 32.594c-2.193 0-4.351-.24-6.355-.694-1.655-.375-3.206-.897-4.583-1.552a18.771 18.771 0 0 1-.515-.256V26.81c.512.35 1.088.676 1.727.98 2.674 1.27 6.13 1.972 9.726 1.972 3.601 0 7.059-.702 9.739-1.972.622-.298 1.184-.62 1.699-.958v3.274c-.168.084-.323.163-.49.242-1.377.655-2.932 1.177-4.583 1.552-2.01.454-4.164.694-6.365.694zm6.365-8.496a28.826 28.826 0 0 1-6.365.695 28.87 28.87 0 0 1-6.36-.695H37.72v9.886c.006.008.013.02.022.028.705.837 1.657 1.602 2.802 2.268v-1.668c.512.346 1.088.674 1.727.976 2.67 1.274 6.126 1.974 9.726 1.974 3.613 0 7.059-.7 9.739-1.972a14.175 14.175 0 0 0 1.699-.957v1.662c1.148-.666 2.106-1.433 2.823-2.275v-3.328-6.594h-7.896z" transform="translate(143 22)"/>
                <path fill="url(#k)" d="M51.998 24.793a28.87 28.87 0 0 1-6.36-.695c-1.656-.375-3.203-.898-4.58-1.554a20.491 20.491 0 0 1-.513-.254v-3.28c.51.346 1.087.675 1.724.977 2.671 1.273 6.129 1.974 9.729 1.974 3.613 0 7.07-.7 9.739-1.974a14.014 14.014 0 0 0 1.699-.957v3.274c-.168.082-.323.162-.49.24-1.377.656-2.92 1.179-4.583 1.554a28.826 28.826 0 0 1-6.365.695zm6.4-8.496c-1.961.449-4.115.695-6.4.695-2.272 0-4.43-.246-6.399-.695h-7.878v9.887a.209.209 0 0 0 .022.026c.705.84 1.657 1.604 2.802 2.267V26.81c.512.35 1.088.676 1.727.98 2.674 1.27 6.13 1.972 9.726 1.972 3.601 0 7.059-.702 9.739-1.972.622-.298 1.184-.62 1.699-.958v1.66c1.148-.663 2.106-1.43 2.823-2.273V22.89v-6.593H58.4z" transform="translate(143 22)"/>
                <path fill="url(#k)" d="M51.998 16.992c-2.272 0-4.43-.246-6.399-.695-1.878-.43-3.585-1.044-5.054-1.807v-3.283c.323.22.672.433 1.046.636 2.76 1.495 6.455 2.317 10.407 2.317 3.96 0 7.657-.822 10.409-2.317.37-.197.706-.405 1.029-.618v3.28c-1.472.757-3.159 1.366-5.037 1.792-1.962.449-4.116.695-6.401.695zM37.721 8.496v9.887a.355.355 0 0 0 .022.027c.705.838 1.657 1.602 2.802 2.266v-1.667c.51.347 1.087.676 1.724.978 2.671 1.273 6.129 1.974 9.729 1.974 3.613 0 7.07-.7 9.739-1.974a14.014 14.014 0 0 0 1.699-.957v1.663c1.148-.665 2.106-1.432 2.823-2.274v-3.33-6.593H37.721z" transform="translate(143 22)"/>
                <path fill="url(#m)" d="M66.26 8.496v2.12c-.718.843-1.676 1.61-2.824 2.277v-1.668c-.323.213-.658.421-1.03.618-2.75 1.495-6.448 2.317-10.408 2.317-3.952 0-7.648-.822-10.407-2.317a12.18 12.18 0 0 1-1.046-.636v1.669c-1.145-.664-2.097-1.43-2.802-2.267a.201.201 0 0 1-.022-.025V7.312c0-.086.006-.17.022-.25v-.005c.013-1.692 1.414-3.417 3.848-4.739C44.351.824 48.046 0 51.998 0c3.96 0 7.657.824 10.409 2.318 2.453 1.328 3.852 3.063 3.852 4.762V8.496" transform="translate(143 22)"/>
                <path fill="url(#n)" d="M20.665 39.7c-1.967.45-4.123.694-6.398.694-2.272 0-4.428-.244-6.394-.693h-5.05v2.719c.32.216.666.426 1.034.625 2.758 1.495 6.455 2.319 10.41 2.319 3.957 0 7.654-.824 10.412-2.319.368-.199.714-.409 1.032-.625V39.7h-5.046zm0 0c-1.967.45-4.123.694-6.398.694-2.272 0-4.428-.244-6.394-.693h-5.05v2.719c.32.216.666.426 1.034.625 2.758 1.495 6.455 2.319 10.41 2.319 3.957 0 7.654-.824 10.412-2.319.368-.199.714-.409 1.032-.625V39.7h-5.046zm0 0c-1.967.45-4.123.694-6.398.694-2.272 0-4.428-.244-6.394-.693h-5.05v2.719c.32.216.666.426 1.034.625 2.758 1.495 6.455 2.319 10.41 2.319 3.957 0 7.654-.824 10.412-2.319.368-.199.714-.409 1.032-.625V39.7h-5.046zm0 0c-1.967.45-4.123.694-6.398.694-2.272 0-4.428-.244-6.394-.693h-5.05v2.719c.32.216.666.426 1.034.625 2.758 1.495 6.455 2.319 10.41 2.319 3.957 0 7.654-.824 10.412-2.319.368-.199.714-.409 1.032-.625V39.7h-5.046zm0 0c-1.967.45-4.123.694-6.398.694-2.272 0-4.428-.244-6.394-.693h-5.05v2.719c.32.216.666.426 1.034.625 2.758 1.495 6.455 2.319 10.41 2.319 3.957 0 7.654-.824 10.412-2.319.368-.199.714-.409 1.032-.625V39.7h-5.046zm0 0c-1.967.45-4.123.694-6.398.694-2.272 0-4.428-.244-6.394-.693h-5.05v2.719c.32.216.666.426 1.034.625 2.758 1.495 6.455 2.319 10.41 2.319 3.957 0 7.654-.824 10.412-2.319.368-.199.714-.409 1.032-.625V39.7h-5.046zm-6.398 8.496c-4.44 0-8.436-.935-11.443-2.495V42.42c.319.216.665.426 1.033.625 2.758 1.495 6.455 2.319 10.41 2.319 3.957 0 7.654-.824 10.412-2.319.368-.199.714-.409 1.032-.625v3.28c-3.006 1.56-7.001 2.496-11.444 2.496zm6.398-8.495c-1.967.449-4.123.693-6.398.693-2.272 0-4.428-.244-6.394-.693H0v6.19c0 .047.004.097.007.143v.052c0 1.7 1.404 3.434 3.85 4.762 2.758 1.495 6.455 2.318 10.41 2.318 3.957 0 7.654-.823 10.412-2.318 2.446-1.328 3.85-3.063 3.85-4.762v-.052c.003-.046.006-.096.006-.144V39.7h-7.87zm0 0c-1.967.449-4.123.693-6.398.693-2.272 0-4.428-.244-6.394-.693h-5.05v2.719c.32.216.666.426 1.034.625 2.758 1.495 6.455 2.319 10.41 2.319 3.957 0 7.654-.824 10.412-2.319.368-.199.714-.409 1.032-.625V39.7h-5.046zm0 0c-1.967.449-4.123.693-6.398.693-2.272 0-4.428-.244-6.394-.693h-5.05v2.719c.32.216.666.426 1.034.625 2.758 1.495 6.455 2.319 10.41 2.319 3.957 0 7.654-.824 10.412-2.319.368-.199.714-.409 1.032-.625V39.7h-5.046zm0 0c-1.967.449-4.123.693-6.398.693-2.272 0-4.428-.244-6.394-.693h-5.05v2.719c.32.216.666.426 1.034.625 2.758 1.495 6.455 2.319 10.41 2.319 3.957 0 7.654-.824 10.412-2.319.368-.199.714-.409 1.032-.625V39.7h-5.046zm0 0c-1.967.449-4.123.693-6.398.693-2.272 0-4.428-.244-6.394-.693h-5.05v2.719c.32.216.666.426 1.034.625 2.758 1.495 6.455 2.319 10.41 2.319 3.957 0 7.654-.824 10.412-2.319.368-.199.714-.409 1.032-.625V39.7h-5.046zm0 0c-1.967.449-4.123.693-6.398.693-2.272 0-4.428-.244-6.394-.693h-5.05v2.719c.32.216.666.426 1.034.625 2.758 1.495 6.455 2.319 10.41 2.319 3.957 0 7.654-.824 10.412-2.319.368-.199.714-.409 1.032-.625V39.7h-5.046zm0 0c-1.967.449-4.123.693-6.398.693-2.272 0-4.428-.244-6.394-.693h-5.05v2.719c.32.216.666.426 1.034.625 2.758 1.495 6.455 2.319 10.41 2.319 3.957 0 7.654-.824 10.412-2.319.368-.199.714-.409 1.032-.625V39.7h-5.046zm0 0c-1.967.449-4.123.693-6.398.693-2.272 0-4.428-.244-6.394-.693h-5.05v2.719c.32.216.666.426 1.034.625 2.758 1.495 6.455 2.319 10.41 2.319 3.957 0 7.654-.824 10.412-2.319.368-.199.714-.409 1.032-.625V39.7h-5.046z" transform="translate(143 22)"/>
                <path fill="url(#o)" d="M2.824 37.9v1.8h5.048c-1.875-.426-3.58-1.038-5.048-1.8zm0 0v1.8h5.048c-1.875-.426-3.58-1.038-5.048-1.8zm0 0v1.8h5.048c-1.875-.426-3.58-1.038-5.048-1.8zm0 0v1.8h5.048c-1.875-.426-3.58-1.038-5.048-1.8zm0 0v1.8h5.048c-1.875-.426-3.58-1.038-5.048-1.8zm0 0v1.8h5.048c-1.875-.426-3.58-1.038-5.048-1.8zm0 0v1.8h5.048c-1.875-.426-3.58-1.038-5.048-1.8zm11.443 2.494c-2.272 0-4.428-.244-6.394-.693-1.877-.427-3.581-1.04-5.05-1.801v-3.281c.32.217.666.426 1.034.626 2.758 1.495 6.455 2.317 10.41 2.317 3.957 0 7.654-.822 10.412-2.317.368-.2.714-.409 1.032-.626v3.28c-1.468.763-3.17 1.375-5.046 1.802-1.967.449-4.123.693-6.398.693zM0 31.9v9.903c.001.004.005.006.007.009.71.84 1.664 1.61 2.817 2.276V42.42c.319.216.665.426 1.033.625 2.758 1.495 6.455 2.319 10.41 2.319 3.957 0 7.654-.824 10.412-2.319.368-.199.714-.409 1.032-.625v1.668c1.152-.666 2.108-1.435 2.818-2.276.002-.003.005-.005.006-.009V31.9H0zm2.824 6v1.8h5.048c-1.875-.426-3.58-1.038-5.048-1.8zm0 0v1.8h5.048c-1.875-.426-3.58-1.038-5.048-1.8zm0 0v1.8h5.048c-1.875-.426-3.58-1.038-5.048-1.8zm0 0v1.8h5.048c-1.875-.426-3.58-1.038-5.048-1.8zm0 0v1.8h5.048c-1.875-.426-3.58-1.038-5.048-1.8zm0 0v1.8h5.048c-1.875-.426-3.58-1.038-5.048-1.8zm0 0v1.8h5.048c-1.875-.426-3.58-1.038-5.048-1.8z" transform="translate(143 22)"/>
                <path fill="url(#p)" d="M28.535 30.75v3.252l-.006.008c-.71.843-1.666 1.61-2.818 2.277v-1.668c-.318.217-.664.426-1.032.626-2.758 1.495-6.455 2.317-10.412 2.317-3.955 0-7.652-.822-10.41-2.317-.368-.2-.714-.409-1.033-.626v1.668C1.67 35.62.717 34.853.007 34.01L0 34.002V30.75c0-.055.004-.11.01-.164-.003-.034-.003-.068-.003-.102 0-1.7 1.404-3.436 3.85-4.762 2.758-1.495 6.455-2.318 10.41-2.318 3.957 0 7.654.823 10.412 2.318 2.446 1.326 3.85 3.061 3.85 4.762 0 .034 0 .068-.004.102.007.054.01.109.01.164" transform="translate(143 22)"/>
            </g>
            <path fill="#2A304E" fill-rule="nonzero" d="M113 46.84h6.84V40h2.34v6.84h6.84v2.34h-6.84v6.84h-2.34v-6.84H113z"/>
        </g>
        <path fill="#FFCA55" d="M411.36 307.446l8.742 14.708a1 1 0 0 1-.86 1.511h-17.484a1 1 0 0 1-.86-1.511l8.742-14.708a1 1 0 0 1 1.72 0z"/>
        <g transform="translate(353)">
            <rect width="114" height="114" fill="#EAEEFF" rx="5"/>
            <path fill="url(#D)" d="M3.2 0h74.6A3.2 3.2 0 0 1 81 3.2v82.6a3.2 3.2 0 0 1-3.2 3.2H3.2A3.2 3.2 0 0 1 0 85.8V3.2A3.2 3.2 0 0 1 3.2 0z" transform="translate(17 13)"/>
            <g fill="#FFF">
                <path d="M31.25 58h52.92a1.25 1.25 0 1 1 0 2.5H31.25a1.25 1.25 0 0 1 0-2.5zM31.25 68.26h52.92a1.25 1.25 0 1 1 0 2.5H31.25a1.25 1.25 0 0 1 0-2.5zM31.25 78.26h52.92a1.25 1.25 0 1 1 0 2.5H31.25a1.25 1.25 0 0 1 0-2.5zM31.25 89.26h52.92a1.25 1.25 0 1 1 0 2.5H31.25a1.25 1.25 0 0 1 0-2.5z"/>
            </g>
            <path fill="#FFF" d="M32.048 23h51.324c1.13 0 2.048.917 2.048 2.048v23.525a2.048 2.048 0 0 1-2.048 2.048H32.048A2.048 2.048 0 0 1 30 48.573V25.048c0-1.131.917-2.048 2.048-2.048z"/>
            <path fill="#8D94BF" fill-rule="nonzero" stroke="#8D94BF" stroke-width=".5" d="M40 32h3.36c.68 0 1.275.08 1.788.24.512.16.956.374 1.333.643.376.268.689.577.938.925.25.348.447.706.592 1.073A6.002 6.002 0 0 1 48.419 37c0 .64-.114 1.26-.34 1.857a4.713 4.713 0 0 1-1.007 1.596c-.444.466-.995.84-1.652 1.123-.658.283-1.417.424-2.278.424H40V32zm1.306 8.729h1.645c.553 0 1.077-.078 1.571-.233a3.758 3.758 0 0 0 1.299-.7c.372-.31.666-.699.884-1.165.218-.466.326-1.01.326-1.631 0-.32-.05-.694-.15-1.123a3.419 3.419 0 0 0-.564-1.222c-.276-.386-.66-.713-1.149-.981-.49-.269-1.124-.403-1.904-.403h-1.958v7.458zM53.315 32h1.183l4.12 10h-1.522l-.966-2.472h-4.583L50.595 42H49.07l4.244-10zm2.339 6.342l-1.795-4.59h-.027l-1.823 4.59h3.645zm6.229-5.07h-3.101V32h7.507v1.271h-3.1V42h-1.306v-8.729zM70.696 32h1.183L76 42h-1.523l-.966-2.472h-4.583L67.976 42h-1.523l4.243-10zm2.34 6.342l-1.796-4.59h-.027l-1.823 4.59h3.645z"/>
        </g>
        <path fill="#FFCA55" d="M318.284 126.822l-17.008 1.87a1 1 0 0 0-.69 1.595l10.523 13.964a1 1 0 0 0 1.724-.223l6.485-15.833a1 1 0 0 0-1.034-1.373zM493.991 126.822l17.008 1.87a1 1 0 0 1 .69 1.595l-10.523 13.964a1 1 0 0 1-1.724-.223l-6.485-15.833a1 1 0 0 1 1.034-1.373z"/>
    </g>
</svg>
