<svg height="22" viewBox="0 0 21 22" width="21" xmlns="http://www.w3.org/2000/svg"><g fill="none" fill-rule="evenodd" transform="translate(-.016079 .711168)"><path d="m16.815877 12.5723145v2.559375h-6.86733869v-2.559375h-8.74717742v5.680664h19.33608871v-5.680664z"/><g transform="translate(9.907258 7.054688)"><path d="m.21063508.03793945c.60544355 0 1.09233871.47578125 1.09233871 1.05820313v.00410156c0 .58652344-.49112903 1.05820313-1.09233871 1.05820313h-.16935484v5.91855468h6.86310484v-8.0390625z"/><path d="m1.85761089 3.7949707 1.61733871 1.27558594 1.87983871-2.78496094"/></g><path d="m13.3822077 12.5354004c-.0973791 0-.1905242-.0328125-.2667339-.0902344l-1.6173387-1.2755859c-.1820565-.1435547-.2074597-.4019531-.0592742-.5783203s.4149193-.2009766.5969758-.0574219l1.2532258.9884766 1.6215726-2.40351567c.1270161-.18867188.3895161-.24199219.5842742-.11894531.194758.12304687.2497984.37734375.1227822.56601562l-1.8798387 2.78496096c-.0677419.0984375-.1693548.1640625-.2879032.1804687-.0254032.0041016-.0465726.0041016-.0677419.0041016z" fill="#2741b4"/><path d="m10.122127 7.09262695h3.2643145l-3.0272177-2.93261718c-.37258065-.3609375-.89334678-.53320313-1.41834678-.46757813l-2.87479839.36503906-1.2108871 1.17304688-1.32096774 1.2796875 2.24395161 2.17382812c.33447581.32402344.78326613.50449219 1.25745968.50859375l3.08225802.02460938c.6054436 0 1.0923388-.47578125 1.0923388-1.05820313v-.00410156c.0042338-.58652344-.4868952-1.06230469-1.0881049-1.06230469z"/><path d="m1.69468303.73732365 2.84231388-.0451161-.07111446 4.48021085-2.84231387.04511609z" transform="matrix(-.70710678 -.70710678 .70710678 -.70710678 3.168963 7.222369)"/><path d="m1.201361 18.252979h19.336089v2.333789h-19.336089z"/><path d="m20.5374496 12.1621582h-3.2981855v-5.06953125c0-.22558593-.1905242-.41015625-.4233871-.41015625h-3.2516129l-2.9044355-2.81367187c-.4614919-.44707031-1.12197578-.66445313-1.76975804-.58242188l-1.73588709.22148438c.03810484-.13535156 0-.28710938-.11008065-.39375l-.96108871-.93105469c-.01693548-.0328125-.04233871-.06152344-.06774193-.08613281l-2.04072581-1.97695313c-.16512097-.15996093-.43185484-.15996093-.59697581 0l-3.21774193 3.1171875c-.16512097.15996094-.16512097.41835938 0 .57832032l2.03649193 1.97695312 1.04153226 1.00898438 2.24395162 2.17382812c.41491935.40195313.96532258.6234375 1.55383064.63164063l2.49375.02050781v2.53886722h-8.32802419c-.23286291 0-.4233871.1845703-.4233871.4101562v8.0103516c0 .2255859.19052419.4101562.4233871.4101562h19.33608871c.2328629 0 .4233871-.1845703.4233871-.4101562v-8.0144531c0-.225586-.1905242-.4101563-.4233871-.4101563zm-4.1449597.4101563v2.1492187h-6.0205645v-2.1492187-2.96542973c.0084677 0 .0211694-.00410157.0296371-.00410157s.0169355-.00410156.0254032-.00410156c.0169355-.00410156.0296371-.00820312.0465726-.01230469.0084677 0 .0169355-.00410156.0254032-.00410156.0211694-.00410156.0423387-.01230469.0592742-.01640625h.0084678c.0211693-.00820312.0465725-.01230469.0677419-.02050781.0084677-.00410156.0127016-.00410156.0211694-.00820313.0169354-.00410156.0296371-.01230468.0465725-.01640625.0084678-.00410156.0169355-.00820312.0254033-.01230468.0127016-.00410157.0254032-.01230469.0381048-.01640625.0084677-.00410157.0169355-.00820313.0254032-.01230469.0127016-.00410156.0254033-.01230469.0381049-.02050781.0084677-.00410157.0169355-.00820313.0254032-.01230469.0127016-.00820313.0254032-.01230469.033871-.02050781.0084677-.00410157.0169354-.00820313.0254032-.01640625.0127016-.00820313.0254032-.01230469.033871-.02050782.0084677-.00410156.0169354-.00820312.0254032-.01640625.0127016-.00820312.0254032-.01640625.0338709-.02460937.0084678-.00410156.0127017-.00820313.0211694-.01640625.0127016-.00820313.0254032-.02050781.0381048-.02871094.0042339-.00410156.0127017-.00820312.0169355-.01230469.0169355-.01230468.033871-.02871093.0508065-.04511718.0042338-.00410157.0042338-.00410157.0084677-.00820313.0127016-.01230469.0296371-.02460937.0423387-.04101562.0042339-.00410157.0127016-.01230469.0169355-.01640625.0084678-.01230469.0211694-.02050782.0296371-.0328125.0042339-.00820313.0127016-.01230469.0169355-.02050782.0084677-.00820312.0169355-.02050781.0254032-.02871093.0042339-.00820313.0127016-.01640625.0169355-.02050782.0084677-.01230468.0169355-.02050781.0254032-.0328125.0042339-.00820312.0127016-.01640625.0169355-.02460937.0084678-.01230469.0169355-.02050781.0254032-.0328125.0042339-.00820313.0127017-.01640625.0169355-.02460938.0084678-.01230468.0169355-.02460937.0211694-.0328125.0042338-.00820312.0084677-.01640625.0169355-.02460937.0084677-.01230469.0169354-.02460938.0211693-.03691406.0042339-.00820313.0084678-.01230469.0127016-.02050782.0084678-.01640625.0169355-.0328125.0254033-.04511718.0042338-.00410157.0042338-.00820313.0084677-.01230469.0084677-.02050781.0211694-.04101563.0296371-.06152344.0042339-.00410156.0042339-.01230469.0084677-.01640625.0084678-.01640625.0127016-.02871094.0169355-.04511719.0042339-.00820312.0042339-.01640625.0084678-.02460937.0042338-.01230469.0084677-.02871094.0127016-.04101563.0042338-.00820312.0042338-.01640625.0084677-.02871093.0042339-.01230469.0084678-.02460938.0127016-.04101563.0042339-.00820312.0042339-.02050781.0084678-.02871094.0042338-.01230468.0084677-.02460937.0084677-.04101562.0042339-.00820313.0042339-.02050781.0042339-.02871094.0042339-.01230469.0042339-.02871094.0084677-.04101562 0-.00820313.0042339-.02050782.0042339-.02871094 0-.01230469.0042339-.02871094.0042339-.04101563 0-.00820312.0042338-.01640625.0042338-.02871093 0-.01640625.0042339-.0328125.0042339-.04921875 0-.00820313 0-.01640625 0-.02460938 0-.02460937 0-.04921875 0-.07382812v-.00410157c0-.02871093 0-.05332031-.0042339-.08203125 0-.00820312 0-.01640625 0-.02460937 0-.01640625-.0042338-.03691406-.0042338-.05332031 0-.00820313-.0042339-.02050782-.0042339-.02871094-.0042339-.01640625-.0042339-.0328125-.0084677-.04921875 0-.01230469-.0042339-.02050781-.0042339-.0328125-.0042339-.01640625-.0084678-.0328125-.0084678-.04921875-.0042338-.00820313-.0042338-.02050781-.0084677-.02871094-.0042339-.01640625-.0084677-.0328125-.0127016-.04921875-.0042339-.00820312-.0042339-.01640625-.0084678-.02871094-.0042338-.01640625-.0127016-.03691406-.0169354-.05332031-.0042339-.00820312-.0042339-.01230469-.0084678-.02050781-.0084677-.02460938-.0169355-.04921875-.0296371-.07382813 0-.00410156-.0042338-.00820312-.0084677-.01230468-.0084678-.02050782-.0169355-.03691407-.0254032-.05742188 0 0 0-.00410156-.0042339-.00410156h1.9052419 3.0060484zm-12.72278224-11.58691411 1.44375 1.39863281-1.2828629 1.24277344-1.33790323 1.29609375-1.43951613-1.39863281zm2.03225807 1.98925781.44455645.43066407-2.60806452 2.5265625-.44455645-.43066407zm.37681451 5.41816407-1.94334677-1.88261719.66471774-.64394531 1.46491935-1.41914063 2.73084678-.34863281c.38951613-.04921875.78326613.08203125 1.06270166.34863281l2.3032258 2.23125h-2.2439517-1.64697576c-.2328629 0-.4233871.18457031-.4233871.41015625s.1905242.41015625.4233871.41015625h1.64697576c.3683468 0 .6689517.29121094.6689517.64804688v.00410156c0 .11074219-.0296371.21738281-.0804436.30761719-.1143145.20097656-.3344758.34042968-.5885081.34042968l-3.08225802-.02460937c-.35987903.00820312-.69858871-.13125-.95685484-.38144531zm-4.45403226 4.58964843h7.9046371v1.7390625h-3.62419355c-.2328629 0-.42338709.1845703-.42338709.4101563 0 .2255859.19052419.4101562.42338709.4101562h11.40604837c.2328629 0 .4233871-.1845703.4233871-.4101562 0-.225586-.1905242-.4101563-.4233871-.4101563h-.0762097v-1.7390625h2.8747984v4.8603516h-18.48508062zm18.48931452 7.1941406h-18.48931452v-1.5134765h18.48931452z" fill="#2741b4" fill-rule="nonzero"/></g></svg>