<svg height="248" viewBox="0 0 917 248" width="917" xmlns="http://www.w3.org/2000/svg"><g fill="none" fill-rule="evenodd"><g transform="translate(0 75.135)"><rect fill="#f3f7ff" height="49" rx="5" stroke="#7e92ff" width="119" x=".5" y=".5"/><text fill="#4a4a4a" font-family="Avenir-Heavy, Avenir" font-size="16" font-weight="600"><tspan x="12.052" y="30">Return result</tspan></text></g><path d="m203.5 50.635h119v-49h-114.5a4.5 4.5 0 0 0 -4.5 4.5z" fill="#f3f7ff" stroke="#7e92ff"/><text fill="#4a4a4a" font-family="Avenir-Heavy, Avenir" font-size="16" font-weight="600" transform="translate(203 1.135)"><tspan x="38.284" y="30">Name</tspan></text><path d="m203.5 50.635h119v49h-119z" fill="#fff" stroke="#7e92ff"/><text fill="#4a4a4a" font-family="Avenir-Medium, Avenir" font-size="12" font-weight="400" transform="translate(203 50.135)"><tspan x="42.158" y="30">output</tspan></text><path d="m322.5 50.635h119v49h-119z" fill="#fff" stroke="#7e92ff"/><text fill="#4a4a4a" font-family="Avenir-Medium, Avenir" font-size="12" font-weight="400" transform="translate(322 50.135)"><tspan x="38.942" y="30">bytes32</tspan></text><path d="m203.5 99.635h119v49h-119z" fill="#fff" stroke="#7e92ff"/><text fill="#4a4a4a" font-family="Avenir-Medium, Avenir" font-size="12" font-weight="400" transform="translate(203 99.135)"><tspan x="34.718" y="30">updateAt</tspan></text><path d="m203.5 148.635h119v49h-119z" fill="#fff" stroke="#7e92ff"/><text fill="#4a4a4a" font-family="Avenir-Medium, Avenir" font-size="12" font-weight="400" transform="translate(203 148.135)"><tspan x="44.282" y="30">status</tspan></text><path d="m322.5 99.635h119v49h-119z" fill="#fff" stroke="#7e92ff"/><text fill="#4a4a4a" font-family="Avenir-Medium, Avenir" font-size="12" font-weight="400" transform="translate(322 99.135)"><tspan x="40.16" y="30">uint256</tspan></text><path d="m322.5 148.635h119v49h-119z" fill="#fff" stroke="#ff5252"/><text fill="#4a4a4a" font-family="Avenir-Medium, Avenir" font-size="12" font-weight="400" transform="translate(322 148.135)"><tspan x="12.05" y="29">queryStatus/uint8</tspan></text><path d="m442 198.135 47.383 48.652" stroke="#ff5252"/><path d="m322.5 1.635v49h119v-44.5a4.5 4.5 0 0 0 -4.5-4.5h-114.5z" fill="#f3f7ff" stroke="#7e92ff"/><text fill="#4a4a4a" font-family="Avenir-Heavy, Avenir" font-size="16" font-weight="600" transform="translate(322 1.135)"><tspan x="42.124" y="30">Type</tspan></text><path d="m489.5 50.635h119v-49h-114.5a4.5 4.5 0 0 0 -4.5 4.5z" fill="#ffcbcb" stroke="#ff5252"/><text fill="#4a4a4a" font-family="Avenir-Heavy, Avenir" font-size="16" font-weight="600" transform="translate(489 1.135)"><tspan x="38.284" y="30">Name</tspan></text><path d="m489.5 50.635h119v49h-119z" fill="#fff" stroke="#ff5252"/><text fill="#4a4a4a" font-family="Avenir-Medium, Avenir" font-size="12" font-weight="400" transform="translate(489 50.135)"><tspan x="36.824" y="29">INVALID</tspan></text><path d="m608.5 50.635v49h89v-49z" fill="#fff" stroke="#ff5252"/><text fill="#4a4a4a" font-family="Avenir-Medium, Avenir" font-size="12" font-weight="400" transform="translate(608 50.135)"><tspan x="41.664" y="29">0</tspan></text><path d="m697.5 50.635v49h219v-49z" fill="#fff" stroke="#ff5252"/><text fill="#4a4a4a" font-family="Avenir-Medium, Avenir" font-size="12" font-weight="400" transform="translate(697 50.135)"><tspan x="60.428" y="29">Wrong key format</tspan></text><path d="m489.5 99.635h119v49h-119z" fill="#fff" stroke="#ff5252"/><text fill="#4a4a4a" font-family="Avenir-Medium, Avenir" font-size="12" font-weight="400" transform="translate(489 99.135)"><tspan x="51.62" y="29">OK</tspan></text><path d="m489.5 148.635h119v49h-119z" fill="#fff" stroke="#ff5252"/><text fill="#4a4a4a" font-family="Avenir-Medium, Avenir" font-size="12" font-weight="400" transform="translate(489 148.135)"><tspan x="12.494" y="29">NOT_AVAILABLE</tspan></text><path d="m489.5 197.635h119v49h-119z" fill="#fff" stroke="#ff5252"/><text fill="#4a4a4a" font-family="Avenir-Medium, Avenir" font-size="12" font-weight="400" transform="translate(489 197.135)"><tspan x="13.838" y="29">DISAGREEMENT</tspan></text><path d="m608.5 99.635v49h89v-49z" fill="#fff" stroke="#ff5252"/><text fill="#4a4a4a" font-family="Avenir-Medium, Avenir" font-size="12" font-weight="400" transform="translate(608 99.135)"><tspan x="41.664" y="29">1</tspan></text><path d="m697.5 99.635v49h219v-49z" fill="#fff" stroke="#ff5252"/><text fill="#4a4a4a" font-family="Avenir-Medium, Avenir" font-size="12" font-weight="400" transform="translate(697 99.135)"><tspan x="40.72" y="29">Successfully getting value</tspan></text><path d="m608.5 148.635v49h89v-49z" fill="#fff" stroke="#ff5252"/><text fill="#4a4a4a" font-family="Avenir-Medium, Avenir" font-size="12" font-weight="400" transform="translate(608 148.135)"><tspan x="41.664" y="29">2</tspan></text><path d="m608.5 197.635v49h89v-49z" fill="#fff" stroke="#ff5252"/><text fill="#4a4a4a" font-family="Avenir-Medium, Avenir" font-size="12" font-weight="400" transform="translate(608 197.135)"><tspan x="41.664" y="29">3</tspan></text><path d="m697.5 148.635v49h219v-49z" fill="#fff" stroke="#ff5252"/><text fill="#4a4a4a" font-family="Avenir-Medium, Avenir" font-size="12" font-weight="400" transform="translate(697 148.135)"><tspan x="58.384" y="29">Key is not available</tspan></text><path d="m697.5 197.635v49h219v-49z" fill="#fff" stroke="#ff5252"/><text fill="#4a4a4a" font-family="Avenir-Medium, Avenir" font-size="12" font-weight="400" transform="translate(697 197.135)"><tspan x="14.272" y="21">The result is inconclusive, providers</tspan> <tspan x="62.266" y="37">agree to disagree</tspan></text><path d="m608.5 1.635v49h89v-49h-89z" fill="#ffcbcb" stroke="#ff5252"/><text fill="#4a4a4a" font-family="Avenir-Heavy, Avenir" font-size="16" font-weight="600" transform="translate(608 1.135)"><tspan x="25.888" y="30">uint8</tspan></text><path d="m697.5 1.635v49h219v-44.5a4.5 4.5 0 0 0 -4.5-4.5h-214.5z" fill="#ffcbcb" stroke="#ff5252"/><text fill="#4a4a4a" font-family="Avenir-Heavy, Avenir" font-size="16" font-weight="600" transform="translate(697 1.135)"><tspan x="68.564" y="30">description</tspan></text><path d="m194.267 1.135h-25.222v197h25.222" stroke="#5269ff" stroke-dasharray="8 8"/><path d="m128.46 100.135 9-4.5v9zm40.422-.5v1h-8v-1zm-16 0v1h-8v-1z" fill="#5269ff" fill-rule="nonzero"/><path d="m442 149.135 47.575-143.817" stroke="#ff5252"/></g></svg>