<svg xmlns="http://www.w3.org/2000/svg" width="36" height="29" viewBox="0 0 36 29">
    <g fill="none" fill-rule="evenodd">
        <g fill="#FAFAFA" fill-rule="nonzero">
            <path d="M13.421 17.182l-1.118-.016v.016zM23.487 17.182h1.119l-1.119-.016z"/>
        </g>
        <path fill="#7c84a6" fill-rule="nonzero" d="M35.947 13.36c0 1.69-.953 3.197-2.411 3.935.01.172.017.343.017.517 0 6.135-7.026 11.127-15.658 11.127-8.634 0-15.658-4.992-15.658-11.127 0-.203.007-.403.024-.599A4.404 4.404 0 0 1 0 13.361c0-2.455 2.006-4.45 4.474-4.45.973 0 1.885.3 2.621.843 2.703-1.834 6.282-2.887 10.037-3.016L19.727.685a1.12 1.12 0 0 1 1.286-.648l6.382 1.485c.6-.91 1.63-1.514 2.803-1.514 1.85 0 3.355 1.498 3.355 3.339 0 1.84-1.505 3.338-3.355 3.338a3.341 3.341 0 0 1-3.322-2.998l-5.46-1.268-1.877 4.38c3.479.26 6.749 1.288 9.245 3.012a4.432 4.432 0 0 1 2.69-.9c2.466 0 4.473 1.995 4.473 4.45zm-5.749-8.9c.618 0 1.119-.499 1.119-1.113 0-.615-.501-1.113-1.119-1.113s-1.118.498-1.118 1.113c0 .614.5 1.112 1.118 1.112zM12.303 18.923A2.231 2.231 0 0 0 14.54 16.7a2.231 2.231 0 0 0-2.237-2.225 2.231 2.231 0 0 0-2.237 2.225 2.231 2.231 0 0 0 2.237 2.225zm10.757 5.157a1.11 1.11 0 0 0 .25-1.554 1.121 1.121 0 0 0-1.56-.249 6.588 6.588 0 0 1-7.709 0 1.125 1.125 0 0 0-1.561.25 1.108 1.108 0 0 0 .25 1.553 8.836 8.836 0 0 0 10.33 0zm.427-5.157a2.231 2.231 0 0 0 2.237-2.225 2.231 2.231 0 0 0-2.237-2.225 2.231 2.231 0 0 0-2.237 2.225 2.231 2.231 0 0 0 2.237 2.225z"/>
    </g>
</svg>
