<svg height="25" viewBox="0 0 25 25" width="25" xmlns="http://www.w3.org/2000/svg"><g fill="#d7deff" fill-rule="evenodd"><circle cx="12.5" cy="12.5" r="12.5"/><g stroke="#8868ff" stroke-width=".85" transform="translate(5.486 4.28)"><path d="m3.56 7.233-3.541 6.884 3.215-.307 1.556 2.92 3.541-6.884z"/><path d="m10.183 7.233 3.54 6.884-3.215-.307-1.556 2.92-3.54-6.884z"/><ellipse cx="6.871" cy="6.105" rx="5.916" ry="6.105"/><path d="m9.514 5.041h-1.913l-.591-1.904a.25.25 0 0 0 -.483 0l-.591 1.903h-1.913c-.246 0-.348.33-.15.481l1.549 1.179-.59 1.904c-.077.245.19.449.39.297l1.548-1.177 1.547 1.177c.2.152.467-.052.391-.297l-.592-1.904 1.547-1.178c.2-.15.097-.48-.149-.48z"/></g></g></svg>