<svg xmlns="http://www.w3.org/2000/svg" width="22" height="22" viewBox="0 0 22 22">
    <path fill="#718BFF" fill-rule="nonzero" stroke="#718BFF" stroke-width=".66" d="M20.825 19.98l-4.86-4.86a8.493 8.493 0 0 0 2.093-5.592C18.058 4.823 14.23 1 9.53 1 4.825 1 1.002 4.827 1.002 9.528c0 4.7 3.827 8.527 8.528 8.527 2.137 0 4.093-.789 5.592-2.093l4.86 4.86c.116.116.27.178.422.178a.6.6 0 0 0 .421-1.02zM2.195 9.528c0-4.045 3.29-7.33 7.33-7.33 4.045 0 7.33 3.29 7.33 7.33s-3.285 7.335-7.33 7.335c-4.04 0-7.33-3.29-7.33-7.335z"/>
</svg>
