<svg xmlns="http://www.w3.org/2000/svg" width="148" height="20" viewBox="0 0 148 20">
    <g fill="#7C84A6" fill-rule="evenodd">
        <path fill-rule="nonzero" d="M80.158 19.567l-1.854-3.273c.866-1.697.866-3.666.866-6.274 0-3.272 0-5.659-1.853-7.652C76.04.966 74.404.277 72.26.277c-2.143 0-3.804.787-5.056 2.091-1.853 1.895-1.853 4.281-1.853 7.652 0 3.273-.097 5.66 1.853 7.652 1.373 1.403 2.913 2.091 5.056 2.091.578 0 1.06-.098 1.565-.196h6.332zm-10.329-4.183c-.674-.787-.866-1.698-.866-5.364s.192-4.576.866-5.364c.482-.59 1.373-.984 2.336-.984.963 0 1.853.394 2.335.984.674.788.867 1.698.867 5.364s-.193 4.577-.867 5.364c-.482.59-1.372.984-2.335.984-.963 0-1.83-.394-2.336-.984z"/>
        <path d="M122.842.474h3.587v19.093h-3.587zM35.884 19.763c-2.817 0-4.96-.59-6.813-2.485l2.335-2.386c1.156 1.18 2.817 1.6 4.478 1.6 2.143 0 3.298-.788 3.298-2.388 0-.688-.192-1.18-.578-1.599-.385-.393-.77-.492-1.66-.689l-2.24-.295c-1.565-.197-2.817-.787-3.587-1.6-.867-.885-1.372-2.189-1.372-3.788 0-3.371 2.431-5.758 6.524-5.758 2.528 0 4.478.59 6.043 2.19l-2.335 2.288c-1.156-1.18-2.625-1.304-3.804-1.304-1.95 0-2.913 1.083-2.913 2.387 0 .492.192.984.578 1.402.385.394.963.59 1.757.788l2.239.295c1.757.197 2.817.689 3.587 1.5.963.985 1.469 2.387 1.469 4.085 0 3.666-3.106 5.757-7.006 5.757M48.138 19.567V.474h12.35v3.272h-8.667v4.478h7.391v3.395h-7.39v4.675h8.666v3.273h-12.35M91.52 19.763c-3.803 0-6.909-2.681-6.909-6.766V.474h3.708v12.425c0 2.19 1.276 3.47 3.202 3.47s3.202-1.305 3.202-3.47V.474h3.587v12.523c.024 4.085-2.985 6.766-6.79 6.766"/>
        <path fill-rule="nonzero" d="M115.644 17.672c-1.276 1.403-2.913 2.091-5.056 2.091-2.143 0-3.804-.787-5.056-2.09-1.853-1.895-1.853-4.282-1.853-7.653 0-3.272-.097-5.659 1.853-7.652 1.276-1.402 2.913-2.091 5.056-2.091 2.143 0 3.708.787 5.056 2.091 1.854 1.895 1.854 4.281 1.854 7.652 0 3.273 0 5.66-1.854 7.652m-2.72-13.016c-.482-.59-1.373-.984-2.336-.984-.963 0-1.854.394-2.335.984-.674.788-.867 1.698-.867 5.364s.193 4.577.867 5.364c.481.59 1.372.984 2.335.984.963 0 1.854-.394 2.335-.984.675-.787.867-1.698.867-5.364.024-3.666-.168-4.576-.867-5.364M143.667 19.567l-1.06-3.371h-6.62l-1.155 3.37h-3.804L137.84.475h2.817l6.813 19.093h-3.804zm-4.382-13.533l-2.335 6.963h4.67l-2.335-6.963z"/>
        <path d="M14.088.474h4.67v4.773h-4.67zM2.412 15.482V.474H.076v17.395l2.336-2.387M4.049 17.18l-2.335 2.387h17.02V17.18H4.05M7.082 10.71V.473H4.747v12.622l2.335-2.387M8.72 12.407l-2.336 2.386h12.35v-2.386H8.72M11.753 5.936V.474H9.417v7.848l2.336-2.386M13.39 7.634l-2.335 2.386h7.68V7.634H13.39"/>
    </g>
</svg>
