<svg height="20" viewBox="0 0 20 20" width="20" xmlns="http://www.w3.org/2000/svg" xmlns:xlink="http://www.w3.org/1999/xlink"><linearGradient id="a" x1="0%" x2="99.393%" y1="32.569%" y2="32.569%"><stop offset="0" stop-color="#5269ff"/><stop offset="1" stop-color="#4890ff"/></linearGradient><g fill="none" fill-rule="evenodd"><path d="m9.995 19.552c-4.256 0-8.034-2.865-9.187-6.968a9.489 9.489 0 0 1 .866-7.257 9.487 9.487 0 0 1 5.742-4.52 9.563 9.563 0 0 1 2.589-.36c4.256 0 8.034 2.866 9.187 6.969a9.49 9.49 0 0 1 -.866 7.258 9.485 9.485 0 0 1 -5.742 4.52 9.56 9.56 0 0 1 -2.589.358z" fill="#f2f5ff" fill-rule="nonzero"/><path d="m19.622 7.295c-1.207-4.295-5.161-7.295-9.617-7.295-.912 0-1.824.126-2.71.375a9.93 9.93 0 0 0 -6.012 4.732 9.934 9.934 0 0 0 -.905 7.598c1.205 4.295 5.16 7.295 9.617 7.295.912 0 1.823-.126 2.71-.375a9.93 9.93 0 0 0 6.012-4.732 9.933 9.933 0 0 0 .905-7.598zm-1.861 4.537-2.49 1.746-2.677-2.249-.029.035.15-3.727 3.084-1.995 2.141 1.806-.18 4.384zm-13.421 3.798-2.24-3.732.902-2.704 3.44.213 2.114 3.17-1.163 3.247-3.054-.194zm4.57-3.068 3.476-.977 2.642 2.22-1.113 2.732-.005-.018-3.93 1.105-2.279-1.684 1.21-3.378zm1.724-11.64c1.429.1 2.783.54 3.976 1.244l.986 3.216-3.062 1.98-3.46-1.28-.953-3.395 2.512-1.765zm-5.918 1.662 3.089.199.948 3.375-2.305 2.92-3.443-.214-.977-3.25.036-.068a9.072 9.072 0 0 1 2.652-2.962zm-3.477 9.879a9.28 9.28 0 0 1 -.136-.558l.721.172 2.216 3.691-.034 1.069a9.083 9.083 0 0 1 -2.767-4.374zm11.223 6.3a9.127 9.127 0 0 1 -2.467.341c-.207 0-.41-.011-.615-.025l.694-1.14 3.926-1.102-.002-.01 1.225.631a9.103 9.103 0 0 1 -2.76 1.305zm6.231-6.069-.605-.801.182-4.442.35-.346c.047.143.1.285.14.432a9.039 9.039 0 0 1 -.067 5.157z" fill="url(#a)"/></g></svg>