<svg xmlns="http://www.w3.org/2000/svg" width="32" height="32" viewBox="0 0 32 32">
    <g fill="none" fill-rule="nonzero">
        <path fill="#F2F5FF" d="M15.992 31.284c-6.81 0-12.854-4.585-14.699-11.15A15.182 15.182 0 0 1 2.678 8.524a15.179 15.179 0 0 1 9.188-7.233 15.3 15.3 0 0 1 4.142-.574c6.81 0 12.854 4.585 14.698 11.15a15.183 15.183 0 0 1-1.384 11.612 15.176 15.176 0 0 1-9.188 7.232 15.295 15.295 0 0 1-4.142.574z"/>
        <path fill="#B8C2FF" d="M31.396 11.672C29.465 4.799 23.137 0 16.008 0c-1.46 0-2.918.202-4.335.6a15.89 15.89 0 0 0-9.62 7.572A15.895 15.895 0 0 0 .604 20.329C2.534 27.2 8.863 32 15.992 32c1.459 0 2.918-.202 4.336-.6a15.89 15.89 0 0 0 9.619-7.572 15.893 15.893 0 0 0 1.449-12.156zm-2.979 7.26l-3.984 2.793-4.282-3.599-.046.056.239-5.963 4.935-3.191 3.425 2.889-.287 7.014zM6.944 25.008l-3.583-5.971 1.444-4.327 5.505.341 3.381 5.07-1.86 5.197-4.886-.31zm7.314-4.909l5.561-1.563 4.227 3.551-1.78 4.372-.008-.029-6.287 1.768-3.648-2.694 1.935-5.405zm2.755-18.624c2.286.16 4.452.863 6.36 1.99l1.579 5.147-4.899 3.168-5.535-2.048-1.527-5.433 4.022-2.824zm-9.468 2.66l4.943.317 1.517 5.4-3.689 4.671-5.509-.34L3.245 8.98l.058-.108a14.515 14.515 0 0 1 4.242-4.738zM1.983 19.94a14.847 14.847 0 0 1-.218-.892l1.153.274 3.545 5.906-.053 1.71a14.533 14.533 0 0 1-4.427-6.998zM19.94 30.02c-1.292.363-2.62.547-3.948.547-.33 0-.658-.019-.984-.041l1.11-1.823 6.283-1.766-.005-.015 1.961 1.01a14.564 14.564 0 0 1-4.417 2.088zm9.969-9.709l-.968-1.283.29-7.106.56-.555c.077.23.16.457.226.693a14.462 14.462 0 0 1-.108 8.251z"/>
    </g>
</svg>
