<svg xmlns="http://www.w3.org/2000/svg" width="40" height="45" viewBox="0 0 40 45">
    <defs>
        <filter id="a" width="304%" height="237.8%" x="-102%" y="-68.9%" filterUnits="objectBoundingBox">
            <feOffset dy="5" in="SourceAlpha" result="shadowOffsetOuter1"/>
            <feGaussianBlur in="shadowOffsetOuter1" result="shadowBlurOuter1" stdDeviation="4"/>
            <feColorMatrix in="shadowBlurOuter1" result="shadowMatrixOuter1" values="0 0 0 0 0 0 0 0 0 0 0 0 0 0 0 0 0 0 0.174606643 0"/>
            <feMerge>
                <feMergeNode in="shadowMatrixOuter1"/>
                <feMergeNode in="SourceGraphic"/>
            </feMerge>
        </filter>
        <linearGradient id="b" x1="0%" x2="99.393%" y1="32.569%" y2="32.569%">
            <stop offset="0%" stop-color="#5269FF"/>
            <stop offset="100%" stop-color="#4890FF"/>
        </linearGradient>
        <linearGradient id="c" x1="0%" x2="99.393%" y1="32.569%" y2="32.569%">
            <stop offset="0%" stop-color="#5269FF"/>
            <stop offset="100%" stop-color="#4890FF"/>
        </linearGradient>
    </defs>
    <g fill="none" fill-rule="evenodd" filter="url(#a)" transform="translate(7.621 3.063)">
        <path fill="#606060" fill-rule="nonzero" d="M21.1 17.9v-1.499h.14a11.647 11.647 0 0 1 2.985 7.81c.003.287-.01.574-.039.86l-4.384-3.187.063-.187 1.234-3.796z"/>
        <path fill="#FFF" fill-rule="nonzero" d="M19.802 21.884l4.384 3.187a11.399 11.399 0 0 1-1.774 5.389h-5.22l-1.954-2.343h.102l1.758-5.397-.101-.078 2.852-.953.016.008-.063.187z"/>
        <path fill="#606060" fill-rule="nonzero" d="M17.192 30.46h5.22a11.697 11.697 0 0 1-7.064 5.115l1.664-5.115h.18z"/>
        <path fill="#FFF" fill-rule="nonzero" d="M18.755 16.401h2.344v1.5l-1.234 3.796-.016-.008-2.852.953-4.494-3.257V16.4zM15.238 28.117l1.954 2.343h-.18l-1.664 5.115a11.687 11.687 0 0 1-5.69 0L7.995 30.46h-.18l1.978-2.343h5.446z"/>
        <path fill="#606060" fill-rule="nonzero" d="M12.503 19.385l4.494 3.257.101.078-1.758 5.397H9.667L7.908 22.72l.102-.078z"/>
        <path fill="#FFF" fill-rule="nonzero" d="M6.252 16.401h6.251v2.984L8.01 22.642l-2.868-.711.062-.047-1.297-3.983v-1.5z"/>
        <path fill="#FFF" fill-rule="nonzero" d="M9.792 28.117L7.815 30.46h-5.22A11.399 11.399 0 0 1 .82 25.07l4.321-3.139 2.868.71-.102.079 1.759 5.397h.125z"/>
        <path fill="#606060" fill-rule="nonzero" d="M7.994 30.46l1.665 5.115a11.697 11.697 0 0 1-7.065-5.115h5.4zM5.142 21.931l-4.321 3.14a7.812 7.812 0 0 1-.04-.86 11.627 11.627 0 0 1 2.72-7.505l.023.023.383 1.172 1.297 3.983-.062.047z"/>
        <path stroke="#606060" stroke-linecap="round" stroke-width=".6" d="M8.724 23.063l-4.249-1.374M12.53 19.945l-.008-4.47"/>
        <g>
            <path fill="url(#b)" d="M23.444 15.192l-8.987-1.134-5.994-5.99c.75-.18 1.508-.36 2.266-.531.72-.164 1.446-.336 2.165-.508.09.278.2.55.328.812.532 1.149 1.766 3.093 3.97 3.093 3.126 0 3.907-3.124 3.907-3.124a2.297 2.297 0 0 1 2.345 2.343v5.04z"/>
            <path fill="#B8C2FF" fill-rule="nonzero" d="M23.444 15.058v.343a1 1 0 0 1-1 1H1.014a1 1 0 0 1-1-1.017c.013-.76.029-1.201.049-1.326h22.38a1 1 0 0 1 1 1z"/>
            <path fill="#FFF" fill-rule="nonzero" d="M13.285 4.686V2.343h7.814V7.81s-.781 3.124-3.907 3.124c-2.204 0-3.438-1.944-3.97-3.093l.063-.03V4.685z"/>
            <path fill="#B8C2FF" fill-rule="nonzero" d="M14.285 0h5.814a1 1 0 0 1 1 1v1.343h-7.814V1a1 1 0 0 1 1-1z"/>
            <path fill="#FFF" fill-rule="nonzero" d="M14.457 14.058H10.55L5.345 8.857c.79-.266 1.618-.43 2.438-.625l.68-.164 5.994 5.99z"/>
            <path fill="url(#c)" d="M10.55 14.058H.063a5.425 5.425 0 0 1 1.469-2.944 9.172 9.172 0 0 1 3.555-2.171c.086-.032.172-.063.258-.086l5.205 5.201z"/>
            <path fill="#FFCA55" fill-rule="nonzero" d="M17.973 3.905h1.563v1.562h-1.563z"/>
        </g>
        <path stroke="#606060" stroke-linecap="round" stroke-width=".6" d="M10.291 27.274l-2.618 3.621M15.009 27.753l2.618 3.621M16.73 22.965l4.249-1.374"/>
    </g>
</svg>
