<svg xmlns="http://www.w3.org/2000/svg" width="77" height="89" viewBox="0 0 77 89">
    <defs>
        <filter id="a" width="287.8%" height="229.2%" x="-93.9%" y="-63.9%" filterUnits="objectBoundingBox">
            <feOffset dy="9" in="SourceAlpha" result="shadowOffsetOuter1"/>
            <feGaussianBlur in="shadowOffsetOuter1" result="shadowBlurOuter1" stdDeviation="7.5"/>
            <feColorMatrix in="shadowBlurOuter1" result="shadowMatrixOuter1" values="0 0 0 0 0 0 0 0 0 0 0 0 0 0 0 0 0 0 0.174606643 0"/>
            <feMerge>
                <feMergeNode in="shadowMatrixOuter1"/>
                <feMergeNode in="SourceGraphic"/>
            </feMerge>
        </filter>
        <linearGradient id="b" x1="0%" x2="99.393%" y1="32.569%" y2="32.569%">
            <stop offset="0%" stop-color="#5269FF"/>
            <stop offset="100%" stop-color="#4890FF"/>
        </linearGradient>
        <linearGradient id="c" x1="0%" x2="99.393%" y1="32.569%" y2="32.569%">
            <stop offset="0%" stop-color="#5269FF"/>
            <stop offset="100%" stop-color="#4890FF"/>
        </linearGradient>
    </defs>
    <g fill="none" fill-rule="evenodd" filter="url(#a)" transform="translate(14 6)">
        <path fill="#606060" fill-rule="nonzero" d="M41.759 35.429V32.46h.278a23.05 23.05 0 0 1 5.908 15.458c.006.567-.02 1.135-.077 1.7l-8.676-6.307.123-.37 2.444-7.513z"/>
        <path fill="#FFF" fill-rule="nonzero" d="M39.192 43.312l8.676 6.307a22.56 22.56 0 0 1-3.51 10.666H34.025l-3.867-4.637h.201l3.48-10.682-.2-.154 5.644-1.886.031.015-.123.371z"/>
        <path fill="#606060" fill-rule="nonzero" d="M34.026 60.285h10.331A23.15 23.15 0 0 1 30.376 70.41l3.294-10.125h.356z"/>
        <path fill="#FFF" fill-rule="nonzero" d="M37.12 32.461h4.639v2.968l-2.444 7.512-.03-.015-5.646 1.886-8.893-6.446V32.46zM30.16 55.648l3.866 4.637h-.356L30.376 70.41a23.13 23.13 0 0 1-11.26 0l-3.294-10.125h-.356l3.913-4.637h10.78z"/>
        <path fill="#606060" fill-rule="nonzero" d="M24.746 38.366l8.893 6.446.201.154-3.48 10.682H19.132l-3.48-10.682.2-.154z"/>
        <path fill="#FFF" fill-rule="nonzero" d="M12.373 32.461h12.373v5.905l-8.893 6.446-5.676-1.407.124-.093-2.568-7.883V32.46z"/>
        <path fill="#FFF" fill-rule="nonzero" d="M19.38 55.648l-3.914 4.637H5.135a22.56 22.56 0 0 1-3.511-10.666l8.553-6.214 5.676 1.407-.201.154 3.48 10.682h.247z"/>
        <path fill="#606060" fill-rule="nonzero" d="M15.822 60.285l3.294 10.125A23.15 23.15 0 0 1 5.135 60.285h10.687zM10.177 43.405L1.624 49.62a15.461 15.461 0 0 1-.077-1.7 23.012 23.012 0 0 1 5.382-14.855l.046.046.758 2.319 2.568 7.883-.124.093z"/>
        <path stroke="#606060" stroke-linecap="round" stroke-width="1.2" d="M17.265 45.645l-8.408-2.72M24.8 39.475l-.016-8.848"/>
        <g>
            <path fill="url(#b)" d="M46.399 30.068l-17.786-2.244L16.75 15.968a380.76 380.76 0 0 1 4.485-1.051c1.423-.325 2.861-.665 4.284-1.005.18.55.397 1.087.65 1.607 1.052 2.273 3.495 6.122 7.857 6.122 6.186 0 7.733-6.183 7.733-6.183a4.545 4.545 0 0 1 4.64 4.637v9.973z"/>
            <path fill="#B8C2FF" fill-rule="nonzero" d="M46.399 29.824v.637a2 2 0 0 1-2 2H2.027a2 2 0 0 1-2-2.035c.026-1.49.058-2.357.097-2.602h44.275a2 2 0 0 1 2 2z"/>
            <path fill="#FFF" fill-rule="nonzero" d="M26.293 9.275V4.637h15.466v10.82s-1.547 6.184-7.733 6.184c-4.362 0-6.805-3.85-7.857-6.122l.124-.061V9.275z"/>
            <path fill="#B8C2FF" fill-rule="nonzero" d="M28.293 0h11.466a2 2 0 0 1 2 2v2.637H26.293V2a2 2 0 0 1 2-2z"/>
            <path fill="#FFF" fill-rule="nonzero" d="M28.613 27.824h-7.734l-10.3-10.295c1.562-.526 3.201-.85 4.825-1.237l1.346-.324 11.863 11.856z"/>
            <path fill="url(#c)" d="M20.88 27.824H.123a10.736 10.736 0 0 1 2.907-5.828A18.153 18.153 0 0 1 10.07 17.7c.17-.062.34-.124.51-.17l10.3 10.295z"/>
            <path fill="#FFCA55" fill-rule="nonzero" d="M35.572 7.729h3.093v3.092h-3.093z"/>
        </g>
        <path stroke="#606060" stroke-linecap="round" stroke-width="1.2" d="M20.368 53.98l-5.181 7.167M29.705 54.927l5.18 7.168M33.112 45.452l8.408-2.72"/>
    </g>
</svg>
