<svg xmlns="http://www.w3.org/2000/svg" width="73" height="133" viewBox="0 0 73 133">
    <defs>
        <linearGradient id="a" x1="50%" x2="50%" y1="0%" y2="100%">
            <stop offset="0%" stop-color="#86A1FF"/>
            <stop offset="100%" stop-color="#6668FF"/>
        </linearGradient>
        <linearGradient id="b" x1="100%" x2="0%" y1="50%" y2="50%">
            <stop offset="0%" stop-color="#9BB1FF"/>
            <stop offset="100%" stop-color="#7179FF"/>
        </linearGradient>
        <linearGradient id="c" x1="50%" x2="50%" y1="100%" y2="0%">
            <stop offset="0%" stop-color="#4C5399"/>
            <stop offset="100%" stop-color="#2B314F"/>
        </linearGradient>
        <linearGradient id="d" x1="79.588%" x2="21.869%" y1="0%" y2="100%">
            <stop offset="0%" stop-color="#97CBFF"/>
            <stop offset="100%" stop-color="#8892FF"/>
        </linearGradient>
        <linearGradient id="e" x1="50%" x2="50%" y1="100%" y2="0%">
            <stop offset="0%" stop-color="#ABC1FF"/>
            <stop offset="100%" stop-color="#F5FEFF"/>
        </linearGradient>
        <linearGradient id="f" x1="79.74%" x2="21.725%" y1=".111%" y2="99.889%">
            <stop offset="0%" stop-color="#7B81AA"/>
            <stop offset="100%" stop-color="#474A59"/>
        </linearGradient>
        <linearGradient id="g" x1="33.356%" x2="88.767%" y1="109.16%" y2="8.242%">
            <stop offset="0%" stop-color="#5A69F2"/>
            <stop offset="100%" stop-color="#8BA0FF"/>
        </linearGradient>
    </defs>
    <g fill="none" fill-rule="nonzero">
        <path fill="url(#a)" d="M29.671 40.145c-6.636-.902-14.377 1.968-19.72 7.315l-8.923 8.927a3.157 3.157 0 0 0 3.047 5.281c5.662-1.519 13.157-2.024 15-.616L29.67 40.145z" transform="scale(-1 1) rotate(-45 33.402 173.267)"/>
        <path fill="url(#b)" d="M46.754 88.512c1.166 1.59 1.074 6.615-.285 15.818a3.15 3.15 0 0 0 1.702 3.28 3.148 3.148 0 0 0 3.648-.587l8.924-8.927c5.04-5.044 7.766-12.77 6.939-19.684l-20.928 10.1z" transform="scale(-1 1) rotate(-45 33.402 173.267)"/>
        <path fill="url(#c)" d="M49.9 89.59c-7.361 3.972-8.298 4.195-9.414 4.954-1.25.803-2.855.625-3.926-.446l-22.308-22.32c-1.026-1.026-1.25-2.678-.446-3.928.758-1.116.847-1.83 4.863-9.507l8.834-.09 22.308 22.32.09 9.016z" transform="scale(-1 1) rotate(-45 33.402 173.267)"/>
        <path fill="url(#d)" d="M49.9 89.59L18.67 58.342C34.15 29.105 52.756 10.848 74.35 3.706l15.17 15.088 14.812 14.82C97.195 55.129 78.991 73.876 49.9 89.589z" transform="scale(-1 1) rotate(-45 33.402 173.267)"/>
        <path fill="url(#e)" d="M79.793 28.525l-.133-.134c-6.157-6.16-16.152-6.16-22.309 0s-6.157 16.159 0 22.318l.134.134c6.157 5.982 16.062 5.982 22.175-.134 6.112-6.115 6.112-16.025.133-22.184z" transform="scale(-1 1) rotate(-45 33.402 173.267)"/>
        <path fill="url(#f)" d="M104.332 33.613c-6.825-.49-14.142-3.705-20.077-9.552l-.133-.134c-5.98-5.982-9.325-13.347-9.772-20.222a61.914 61.914 0 0 1 6.247-1.785C88.227.18 96.213-.223 104.512.67c.802.09 1.56.491 2.007 1.116.446.446.759 1.027.803 1.697.938 8.257.446 16.248-1.294 23.88-.49 2.099-1.026 4.152-1.696 6.25z" transform="scale(-1 1) rotate(-45 33.402 173.267)"/>
        <path fill="url(#g)" d="M49.364 61.825a2.976 2.976 0 0 0-.892-1.965c-.535-.714-1.382-1.205-2.275-1.205-11.6-.09-14.188 4.017-14.857 4.687C12.02 82.67 11.798 92.178 11.798 93.16c.044.848.356 1.608.936 2.187.045.044.09.09.18.09.445.446 1.07.714 1.739.758 1.606.179 10.663-.044 30.071-19.461 4.373-4.375 4.686-8.437 4.64-14.91z" transform="scale(-1 1) rotate(-45 33.402 173.267)"/>
    </g>
</svg>
