<svg height="29" viewBox="0 0 29 29" width="29" xmlns="http://www.w3.org/2000/svg" xmlns:xlink="http://www.w3.org/1999/xlink"><linearGradient id="a" x1="0%" x2="99.393%" y1="32.569%" y2="32.569%"><stop offset="0" stop-color="#5269ff"/><stop offset="1" stop-color="#4890ff"/></linearGradient><g fill="none" fill-rule="evenodd"><path d="m2.243.032h26.633v26.659h-26.633z" fill="#f2f5ff" fill-rule="nonzero"/><path d="m22.663 13.18-5.48 1.234-4.033-6.544-5.505 1.125-3.354-5.995-1.291.723 3.882 6.938 5.552-1.134 4.042 6.56 5.621-1.264 5.696 6.932v-2.332z" fill="url(#a)" transform="matrix(-1 0 0 1 30.083 .078)"/><g fill-rule="nonzero"><path d="m27.173 1.346-3.124 1.337c-.173.074-.138.303.061.4l3.994 1.948c.2.098.402-.016.354-.198l-.87-3.285c-.043-.162-.26-.269-.415-.202z" fill="#ffca55"/><path d="m6.226 20.228h-1.776v6.437h1.776zm4.587-3.551h-1.776v10.015h1.776zm4.749 0h-1.776v9.988h1.776zm4.75-5.327h-1.776v15.315h1.776zm4.749.592h-1.776v14.723h1.776z" fill="#6b8bf5"/><path d="m6.226 22.472h-1.776v4.202h1.776zm4.587-2.318h-1.776v6.538h1.776zm4.749 0h-1.776v6.52h1.776zm4.75-3.477h-1.776v9.998h1.776zm4.749.387h-1.776v9.61h1.776z" fill="#4b6fe6"/><path d="m28.876 26.1-26.041-.025v-26.043h-1.185v2.456h-1.182v1.184h1.182v3.565h-1.182v1.184h1.182v3.565h-1.182v1.184h1.182v3.565h-1.182v1.183h1.182v3.567h-1.182v1.184h1.182v3.405l-1.183-.001-.001 1.183 1.184.002v1.182h1.184v-1.18l26.04.024z" fill="#ffca55"/></g></g></svg>