<svg xmlns="http://www.w3.org/2000/svg" width="29" height="29" viewBox="0 0 29 29">
    <defs>
        <linearGradient id="a" x1="0%" x2="99.393%" y1="32.569%" y2="32.569%">
            <stop offset="0%" stop-color="#5269FF"/>
            <stop offset="100%" stop-color="#4890FF"/>
        </linearGradient>
    </defs>
    <g fill="none" fill-rule="evenodd">
        <path fill="#F2F5FF" fill-rule="nonzero" d="M2.243 0h26.633v26.659H2.243z"/>
        <g fill-rule="nonzero">
            <path fill="#FFCA55" d="M7.42 13.226l5.48 1.233 4.032-6.543 5.506 1.124 3.354-5.994 1.291.722-3.882 6.938-5.552-1.134-4.042 6.56-5.621-1.263L2.29 21.8v-2.332z"/>
            <path fill="#5269FF" d="M27.173 1.314L24.049 2.65c-.173.074-.138.303.061.4L28.104 5c.2.097.402-.017.354-.199l-.87-3.285c-.043-.162-.26-.269-.415-.202z"/>
            <path fill="#6B8BF5" d="M6.226 20.196H4.45v6.437h1.776zM10.813 16.645H9.037V26.66h1.776zM15.562 16.645h-1.776v9.988h1.776zM20.312 11.318h-1.776v15.315h1.776zM25.061 11.91h-1.776v14.723h1.776z"/>
            <path fill="#3C55F9" d="M6.226 22.44H4.45v4.202h1.776zM10.813 20.122H9.037v6.538h1.776zM15.562 20.122h-1.776v6.52h1.776zM20.312 16.645h-1.776v9.998h1.776zM25.061 17.032h-1.776v9.61h1.776z"/>
        </g>
        <path fill="url(#a)" d="M28.41 26.067l-26.042-.024V0H1.184v2.456H.001V3.64h1.183v3.565H.001v1.184h1.183v3.566H.001v1.183h1.183v3.565H.001v1.183h1.183v3.567H.001v1.184h1.183v3.405l-1.183-.001L0 27.224l1.184.002v1.182h1.184v-1.181l26.04.024z" transform="translate(.467)"/>
    </g>
</svg>
