<svg xmlns="http://www.w3.org/2000/svg" xmlns:xlink="http://www.w3.org/1999/xlink" width="385" height="83" viewBox="0 0 385 83">
    <defs>
        <linearGradient id="a" x1="42.1%" x2="28.554%" y1="52.986%" y2="41.319%">
            <stop offset="0%" stop-color="#717CB2"/>
            <stop offset="75.924%" stop-color="#B0B0E9" stop-opacity=".654"/>
            <stop offset="100%" stop-color="#C2C2FA" stop-opacity="0"/>
        </linearGradient>
        <linearGradient id="d" x1="0%" y1="50%" y2="50%">
            <stop offset="0%" stop-color="#3F4668"/>
            <stop offset="100%" stop-color="#2B314F"/>
        </linearGradient>
        <ellipse id="c" cx="33.5" cy="44" rx="33.5" ry="11.5"/>
        <filter id="b" width="185.1%" height="347.8%" x="-42.5%" y="-84.8%" filterUnits="objectBoundingBox">
            <feOffset dy="9" in="SourceAlpha" result="shadowOffsetOuter1"/>
            <feGaussianBlur in="shadowOffsetOuter1" result="shadowBlurOuter1" stdDeviation="8"/>
            <feColorMatrix in="shadowBlurOuter1" values="0 0 0 0 0.170187551 0 0 0 0 0.228062756 0 0 0 0 0.604251585 0 0 0 0.29810424 0"/>
        </filter>
        <linearGradient id="e" x1="6.157%" y1="52.934%" y2="50%">
            <stop offset="0%" stop-color="#363F6C"/>
            <stop offset="100%" stop-color="#404A7D"/>
        </linearGradient>
        <linearGradient id="f" x1="19.327%" x2="79.331%" y1="53.705%" y2="44.685%">
            <stop offset="0%" stop-color="#46538C"/>
            <stop offset="100%" stop-color="#51598B"/>
        </linearGradient>
        <linearGradient id="g" x1="93.875%" x2="10.718%" y1="44.609%" y2="52.183%">
            <stop offset="0%" stop-color="#8B93C4"/>
            <stop offset="100%" stop-color="#5462A1"/>
        </linearGradient>
        <linearGradient id="h" x1="0%" x2="89.421%" y1="50%" y2="50%">
            <stop offset="0%" stop-color="#495BAC"/>
            <stop offset="75.924%" stop-color="#B0B0E9" stop-opacity=".654"/>
            <stop offset="100%" stop-color="#C2C2FA" stop-opacity="0"/>
        </linearGradient>
        <linearGradient id="i" x1="0%" x2="89.421%" y1="50%" y2="50%">
            <stop offset="0%" stop-color="#C2C2FA" stop-opacity="0"/>
            <stop offset="24.076%" stop-color="#B0B0E9" stop-opacity=".654"/>
            <stop offset="100%" stop-color="#94A2E2"/>
        </linearGradient>
        <linearGradient id="j" x1="37.002%" x2="61.198%" y1="90.298%" y2="0%">
            <stop offset="0%" stop-color="#333959"/>
            <stop offset="100%" stop-color="#7C8CEC"/>
        </linearGradient>
        <linearGradient id="k" x1="50%" x2="50%" y1="0%" y2="100%">
            <stop offset="0%" stop-color="#BDC7F4"/>
            <stop offset="100%" stop-color="#8B99E0"/>
        </linearGradient>
        <linearGradient id="l" x1="0%" y1="50%" y2="50%">
            <stop offset="0%" stop-color="#474F83"/>
            <stop offset="100%" stop-color="#6973AF"/>
        </linearGradient>
        <linearGradient id="m" x1="50%" x2="50%" y1="100%" y2="0%">
            <stop offset="0%" stop-color="#343A5B"/>
            <stop offset="100%" stop-color="#7584DE"/>
        </linearGradient>
        <linearGradient id="n" x1="50%" x2="50%" y1="100%" y2="0%">
            <stop offset="0%" stop-color="#8E9BE1"/>
            <stop offset="100%" stop-color="#BBC5F3"/>
        </linearGradient>
        <linearGradient id="o" x1="0%" y1="50%" y2="50%">
            <stop offset="0%" stop-color="#474F83"/>
            <stop offset="100%" stop-color="#6973AF"/>
        </linearGradient>
        <linearGradient id="p" x1="104.746%" x2="34.26%" y1="43.114%" y2="60.963%">
            <stop offset="0%" stop-color="#B2B2E7"/>
            <stop offset="100%" stop-color="#6262A5"/>
        </linearGradient>
        <path id="q" d="M0 .027h9.729V18.05H0z"/>
        <linearGradient id="s" x1="19.76%" x2="50%" y1="0%" y2="59.299%">
            <stop offset="0%" stop-color="#D5DCFA"/>
            <stop offset="100%" stop-color="#ABB7F4"/>
        </linearGradient>
        <path id="t" d="M.021.056h9.728v24.031H.021z"/>
        <linearGradient id="u" x1="38.147%" x2="56.856%" y1="7.544%" y2="74.563%">
            <stop offset="0%" stop-color="#D5DDFA"/>
            <stop offset="100%" stop-color="#ABB7F4"/>
        </linearGradient>
        <path id="w" d="M0 .056h9.728v24.031H0z"/>
    </defs>
    <g fill="none" fill-rule="evenodd">
        <path fill="#FFF" stroke="url(#a)" stroke-dasharray="0,4.860000085830689" stroke-linecap="round" stroke-linejoin="round" stroke-width="1.75" d="M147.5 72.998c31.204 0 56.5-7.163 56.5-16 0-8.836-25.296-16-56.5-16s-56.5 7.164-56.5 16c0 8.837 25.296 16 56.5 16z" transform="translate(0 -4)"/>
        <g transform="translate(115 3)">
            <use fill="#000" filter="url(#b)" xlink:href="#c"/>
            <use fill="url(#d)" xlink:href="#c"/>
            <path fill="url(#e)" d="M33.5 45.5c18.502 0 33.5-4.925 33.5-11 0-2.759-3.092-5.28-8.2-7.21-6.143-2.322-15.2-3.79-25.3-3.79-18.502 0-33.5 4.925-33.5 11s14.998 11 33.5 11z"/>
            <ellipse cx="33.5" cy="22.5" fill="url(#f)" rx="33.5" ry="11"/>
            <ellipse cx="33.5" cy="11.5" fill="url(#g)" rx="33.5" ry="11"/>
        </g>
        <path stroke="url(#h)" stroke-dasharray="0,5" stroke-linecap="round" stroke-linejoin="round" stroke-width="1.8" d="M207.457 56.5h198.746" transform="translate(0 -4)"/>
        <path stroke="url(#i)" stroke-dasharray="0,5" stroke-linecap="round" stroke-linejoin="round" stroke-width="1.8" d="M86.457 56.5L.5 56.998" transform="translate(0 -4)"/>
        <path fill="url(#j)" d="M12.957 23.804c-.588.488-1.312.725-2.173.714l-4.677-.066.185-5.542 4.754-.016c.861-.003 1.557.254 2.087.771.53.52.781 1.218.752 2.092-.029.875-.34 1.558-.928 2.047M7.563 8.916l3.663-.142c.819-.032 1.474.18 1.963.64.49.46.723 1.15.697 2.072-.027.92-.3 1.62-.818 2.098-.516.476-1.184.721-2.003.738l-3.661.073.159-5.479m6.459 7.498c3.37-1.04 5.128-2.996 5.219-5.853.06-1.92-.667-3.473-2.172-4.65-1.017-.795-2.278-1.286-3.775-1.479l.112-3.54-3.813.232-.105 3.312-2.06.103.104-3.29-3.235.198-.437.027-.103 3.25-2.118.167-.755 23.79 2.11.072-.103 3.25 3.66.147.104-3.29 2.056.06-.105 3.313 3.8.153.11-3.443c1.83-.15 3.343-.665 4.525-1.552 1.537-1.152 2.343-2.742 2.407-4.762.05-1.587-.422-2.97-1.412-4.142-.984-1.164-2.326-1.854-4.014-2.073z" transform="rotate(-2 192.817 -6749.002)"/>
        <path fill="url(#k)" d="M12.037 22.907c-.588.488-1.312.725-2.173.713l-4.677-.065.185-5.543 4.754-.015c.861-.003 1.557.254 2.087.771.53.52.781 1.217.752 2.092-.029.875-.34 1.558-.928 2.047M6.643 8.019l3.663-.142c.819-.032 1.474.18 1.963.639.49.46.723 1.151.697 2.072-.027.921-.3 1.621-.818 2.098-.516.476-1.184.722-2.003.738l-3.661.073.159-5.478m7.379 7.504c3.37-1.04 5.128-2.996 5.219-5.853.06-1.92-.667-3.474-2.172-4.65-1.017-.795-2.278-1.287-3.775-1.48L13.406 0 9.593.232l-.105 3.312-2.06.104.104-3.29-3.235.197-.437.027-.103 3.25-3.002.15L0 27.773l2.994.089-.103 3.25 3.66.147.104-3.29 2.056.061-.105 3.312 3.8.153.11-3.442c1.83-.15 3.343-.666 4.525-1.552 1.537-1.152 2.343-2.743 2.407-4.763.05-1.587-.422-2.97-1.412-4.141-.984-1.164-2.326-1.854-4.014-2.073z" transform="rotate(-2 192.18 -6765.723)"/>
        <path fill="url(#l)" d="M0 0h42v14.4H0z" transform="translate(226 44.4)"/>
        <text fill="#FFF" font-family="Avenir-Heavy, Avenir" font-size="7.2" font-weight="600" transform="translate(226 44.4)">
            <tspan x="5.01" y="9.4">0.12 BTC</tspan>
        </text>
        <g>
            <path fill="url(#l)" d="M0 0h42v14.4H0z" transform="translate(286 44.4)"/>
            <text fill="#FFF" font-family="Avenir-Heavy, Avenir" font-size="7.2" font-weight="600" transform="translate(286 44.4)">
                <tspan x="5.543" y="9.4">167 USD</tspan>
            </text>
            <g font-family="Montserrat-ExtraBold, Montserrat" font-size="34.2" font-weight="600">
                <text fill="url(#m)" transform="translate(290 -4)">
                    <tspan x="5.936" y="33.911">$</tspan>
                </text>
                <text fill="url(#n)" transform="translate(290 -4)">
                    <tspan x="5.936" y="33">$</tspan>
                </text>
            </g>
        </g>
        <g>
            <path fill="url(#o)" d="M2.4 0h37.2v14.4H2.4z" transform="translate(29 44.2)"/>
            <text fill="#FFF" font-family="Avenir-Heavy, Avenir" font-size="7.2" font-weight="600" transform="translate(29 44.2)">
                <tspan x="10.27" y="9.4">1 ETH</tspan>
            </text>
            <g>
                <path fill="url(#p)" d="M2.4 22.053l9.753 6.016 9.746-6.015-9.754-6.016z" transform="translate(38.082 -.654)"/>
                <g transform="matrix(-1 0 0 1 60.028 21.192)">
                    <mask id="r" fill="#fff">
                        <use xlink:href="#q"/>
                    </mask>
                    <path fill="#E2E6FF" d="M9.728 6.034L0 .027 9.729 18.05z" mask="url(#r)"/>
                </g>
                <path fill="url(#s)" d="M19.439 21.872l-9.72 18.024-.001-12.017z" transform="matrix(-1 0 0 1 60.028 -.654)"/>
                <g transform="matrix(-1 0 0 1 50.328 -.2)">
                    <mask id="v" fill="#fff">
                        <use xlink:href="#t"/>
                    </mask>
                    <path fill="url(#u)" d="M-.003 24.098l9.72-6.006L-.01.067z" mask="url(#v)"/>
                </g>
                <g transform="matrix(-1 0 0 1 60.028 -.2)">
                    <mask id="x" fill="#fff">
                        <use xlink:href="#w"/>
                    </mask>
                    <path fill="#E2E6FF" d="M0 18.08L9.72.056l.008 24.031z" mask="url(#x)"/>
                </g>
            </g>
        </g>
    </g>
</svg>
