<svg xmlns="http://www.w3.org/2000/svg" width="19" height="19" viewBox="0 0 19 19">
    <defs>
        <linearGradient id="a" x1="0%" x2="99.393%" y1="32.569%" y2="32.569%">
            <stop offset="0%" stop-color="#5269FF"/>
            <stop offset="100%" stop-color="#4890FF"/>
        </linearGradient>
    </defs>
    <g fill="none" fill-rule="evenodd">
        <path fill="#B8C2FF" fill-rule="nonzero" d="M9.186.1l9.191 4.47-9.19 4.704-9.192-4.705z"/>
        <path fill="#D3D9FF" fill-rule="nonzero" d="M-.003 4.556l9.25 4.734v9.17l-9.25-4.734z"/>
        <path fill="url(#a)" d="M19.4 13.61l-9.25 4.734v-9.17l9.25-4.735z" transform="translate(-1.003 .077)"/>
        <path fill="#FFF" fill-rule="nonzero" d="M6.48 9.631a.25.25 0 0 1 .136.223l-.004 2.136a.25.25 0 0 1-.364.222L2.76 10.426a.25.25 0 0 1-.136-.222l.004-2.137a.25.25 0 0 1 .364-.221l3.49 1.785z"/>
    </g>
</svg>
