<svg xmlns="http://www.w3.org/2000/svg" width="19" height="19" viewBox="0 0 19 19">
    <g fill="none" fill-rule="nonzero">
        <path fill="#FFF" d="M9.19.023l9.19 4.47-9.19 4.703-9.191-4.704z"/>
        <path fill="#FFF" d="M0 4.479l9.25 4.734v9.17L0 13.65z"/>
        <path fill="#B8C2FF" d="M18.4 13.61l-9.25 4.734v-9.17l9.25-4.735z"/>
        <path fill="#5973E7" d="M6.484 9.554l-3.49-1.786a.25.25 0 0 0-.364.222l-.004 2.137c0 .093.053.18.136.222l3.49 1.786a.25.25 0 0 0 .363-.222l.005-2.136a.25.25 0 0 0-.136-.223zm-.368 1.95l-2.99-1.53.004-1.576 2.99 1.53-.004 1.577z"/>
    </g>
</svg>
