<svg xmlns="http://www.w3.org/2000/svg" width="17" height="17" viewBox="0 0 17 17">
    <g fill="none" fill-rule="evenodd">
        <circle cx="8.5" cy="8.5" r="8.5" fill="#626B90"/>
        <path fill="#FFF" d="M8.492 5.092c-.392 0-.78.049-1.162.147a5.8 5.8 0 0 0-1.022.357L6 4.588c.299-.15.665-.285 1.099-.406A5.209 5.209 0 0 1 8.506 4c.99 0 1.72.212 2.191.637.471.425.707.987.707 1.687 0 .364-.06.688-.182.973a3.321 3.321 0 0 1-.462.777 6.61 6.61 0 0 1-.595.651c-.21.2-.408.397-.595.588a3.27 3.27 0 0 0-.462.588 1.26 1.26 0 0 0-.182.665c0 .308.042.565.126.77h-.966a1.164 1.164 0 0 1-.147-.371 1.996 1.996 0 0 1-.049-.441c0-.299.056-.567.168-.805.112-.238.254-.46.427-.665.173-.205.36-.401.56-.588.2-.187.387-.38.56-.581.173-.2.315-.418.427-.651.112-.233.168-.5.168-.798 0-.177-.033-.348-.098-.511a1.101 1.101 0 0 0-.308-.427 1.61 1.61 0 0 0-.532-.294 2.352 2.352 0 0 0-.77-.112zm-.784 7.784a.85.85 0 0 1 .224-.595c.15-.163.36-.245.63-.245s.48.082.63.245a.85.85 0 0 1 .224.595.85.85 0 0 1-.224.595c-.15.163-.36.245-.63.245s-.48-.082-.63-.245a.85.85 0 0 1-.224-.595z"/>
    </g>
</svg>
