<svg xmlns="http://www.w3.org/2000/svg" xmlns:xlink="http://www.w3.org/1999/xlink" width="120" height="120" viewBox="0 0 120 120">
    <defs>
        <rect id="a" width="120" height="120" rx="6"/>
        <mask id="b" width="120" height="120" x="0" y="0" fill="#fff">
            <use xlink:href="#a"/>
        </mask>
    </defs>
    <g fill="none" fill-rule="evenodd">
        <use fill="#FFF" stroke="#E7ECFF" stroke-dasharray="10,10" stroke-width="3" mask="url(#b)" xlink:href="#a"/>
        <text fill="#CBCFE3" font-family="Avenir-Book, Avenir" font-size="10" letter-spacing=".376" transform="translate(24 21)">
            <tspan x="25.429" y="61">size: </tspan> <tspan x=".11" y="75">100x100 pixels</tspan>
        </text>
        <g fill="#E7ECFF">
            <path fill-rule="nonzero" d="M89 21H33a1 1 0 0 0-1 1v44a1 1 0 0 0 1 1h56a1 1 0 0 0 1-1V22a1 1 0 0 0-1-1zm-1 44H34V23h54v42z"/>
            <path fill-rule="nonzero" d="M48 43.138a5.575 5.575 0 0 0 5.569-5.568A5.575 5.575 0 0 0 48 32a5.575 5.575 0 0 0-5.569 5.569A5.575 5.575 0 0 0 48 43.138zM48 34a3.574 3.574 0 0 1 3.569 3.569A3.574 3.574 0 0 1 48 41.138a3.573 3.573 0 0 1-3.569-3.568A3.574 3.574 0 0 1 48 34z"/>
            <path d="M39 61c.234 0 .47-.082.66-.249l16.313-14.362L66.275 56.69a.999.999 0 1 0 1.414-1.414l-4.807-4.807 9.181-10.054 11.261 10.323a1 1 0 0 0 1.351-1.475l-12-11a1.031 1.031 0 0 0-.72-.262 1.002 1.002 0 0 0-.694.325l-9.794 10.727-4.743-4.743a1 1 0 0 0-1.368-.044L38.339 59.249A1 1 0 0 0 39 61z"/>
        </g>
    </g>
</svg>
