<svg xmlns="http://www.w3.org/2000/svg" width="84" height="74" viewBox="0 0 84 74">
    <defs>
        <linearGradient id="a" x1="0%" y1="12.016%" y2="87.984%">
            <stop offset="0%" stop-color="#8B8B8B"/>
            <stop offset="100%" stop-color="#D4D4D4"/>
        </linearGradient>
        <linearGradient id="b" x1="0%" y1="0%" y2="100%">
            <stop offset="0%" stop-color="#FFF"/>
            <stop offset="100%" stop-color="#FFF"/>
        </linearGradient>
    </defs>
    <g fill="none" fill-rule="evenodd">
        <path fill="url(#a)" fill-rule="nonzero" d="M27.757 29.681c-7.856 0-14.246-6.481-14.246-14.448C13.51 7.267 19.9.786 27.757.786c7.855 0 14.246 6.48 14.246 14.447 0 7.967-6.391 14.448-14.246 14.448zm19.116 7.001c5.153 1.708 8.636 6.587 8.636 12.085v19.861c0 2.967-2.372 5.372-5.297 5.372H5.297C2.37 74 0 71.595 0 68.628V48.833c0-5.522 3.351-10.82 8.664-12.16 1.945-.49 7.785-1.321 7.908-1.321.516 0 .999.325 1.185.843l8.55 23.79c.493 1.373 2.407 1.373 2.9 0l8.55-23.79c.23-.642.916-.986 1.557-.786 0 0 5.68.806 7.535 1.266l.024.007zM30.98 34.956a1.79 1.79 0 0 1 .23 2.086L29.2 40.118l.942 8.058-1.855 5.005a.563.563 0 0 1-1.063 0l-1.855-5.005.942-8.058-2.012-3.076a1.79 1.79 0 0 1 .23-2.086c.34-.377.84-.567 1.344-.567h3.764c.505 0 1.004.19 1.345.567zM52 1h29a3 3 0 0 1 3 3v18a3 3 0 0 1-3 3H63.6l-8.354 6.426.86-6.426H52a3 3 0 0 1-3-3V4a3 3 0 0 1 3-3z"/>
        <path fill="url(#b)" d="M69.132 13.01l4.596 4.597a1 1 0 0 1 0 1.414l-.707.707a1 1 0 0 1-1.414 0l-4.597-4.596-4.596 4.596a1 1 0 0 1-1.414 0l-.707-.707a1 1 0 0 1 0-1.414l4.596-4.597-4.596-4.596a1 1 0 0 1 0-1.414L61 6.293a1 1 0 0 1 1.414 0l4.596 4.596 4.597-4.596a1 1 0 0 1 1.414 0l.707.707a1 1 0 0 1 0 1.414l-4.596 4.596z"/>
    </g>
</svg>
