<svg height="74" viewBox="0 0 84 74" width="84" xmlns="http://www.w3.org/2000/svg" xmlns:xlink="http://www.w3.org/1999/xlink"><linearGradient id="a" x1="0%" y1="12.016%" y2="87.984%"><stop offset="0" stop-color="#625eff"/><stop offset="1" stop-color="#9283ff"/></linearGradient><linearGradient id="b" x1="1.705%" x2="99.599%" y1="80.913%" y2="19.899%"><stop offset="0" stop-color="#00fff6"/><stop offset="1" stop-color="#2ff98b"/></linearGradient><g fill="none"><path d="m27.757 29.681c-7.856 0-14.246-6.481-14.246-14.448-.001-7.966 6.389-14.447 14.246-14.447 7.855 0 14.246 6.48 14.246 14.447s-6.391 14.448-14.246 14.448zm19.116 7.001c5.153 1.708 8.636 6.587 8.636 12.085v19.861c0 2.967-2.372 5.372-5.297 5.372h-44.915c-2.927 0-5.297-2.405-5.297-5.372v-19.795c0-5.522 3.351-10.82 8.664-12.16 1.945-.49 7.785-1.321 7.908-1.321.516 0 .999.325 1.185.843l8.55 23.79c.493 1.373 2.407 1.373 2.9 0l8.55-23.79c.23-.642.916-.986 1.557-.786 0 0 5.68.806 7.535 1.266zm-15.893-1.726a1.79 1.79 0 0 1 .23 2.086l-2.01 3.076.942 8.058-1.855 5.005a.563.563 0 0 1 -1.063 0l-1.855-5.005.942-8.058-2.012-3.076a1.79 1.79 0 0 1 .23-2.086c.34-.377.84-.567 1.344-.567h3.764c.505 0 1.004.19 1.345.567zm21.02-33.956h29a3 3 0 0 1 3 3v18a3 3 0 0 1 -3 3h-17.4l-8.354 6.426.86-6.426h-4.106a3 3 0 0 1 -3-3v-18a3 3 0 0 1 3-3z" fill="url(#a)"/><path d="m57.22 14.25a.821.821 0 0 1 -.22-.525c0-.15.073-.375.22-.525l1.022-1.05c.293-.3.731-.3 1.023 0l.073.075 4.02 4.425c.146.15.365.15.511 0l9.793-10.425h.073c.292-.3.73-.3 1.023 0l1.023 1.05c.292.3.292.75 0 1.05l-11.693 12.45a.656.656 0 0 1 -.511.225.656.656 0 0 1 -.512-.225l-5.7-6.3-.146-.225z" fill="url(#b)"/></g></svg>