<svg xmlns="http://www.w3.org/2000/svg" width="20" height="20" viewBox="0 0 20 20">
    <defs>
        <linearGradient id="a" x1="0%" x2="99.393%" y1="32.569%" y2="32.569%">
            <stop offset="0%" stop-color="#5269FF"/>
            <stop offset="100%" stop-color="#4890FF"/>
        </linearGradient>
        <linearGradient id="b" x1="0%" x2="99.393%" y1="32.569%" y2="32.569%">
            <stop offset="0%" stop-color="#5269FF"/>
            <stop offset="100%" stop-color="#4890FF"/>
        </linearGradient>
    </defs>
    <g fill="none" fill-rule="evenodd">
        <path fill-rule="nonzero" d="M0 0h20v20H0z"/>
        <g transform="translate(0 1)">
            <rect width="20" height="8" y="10" fill="#B8C2FF" fill-rule="nonzero" rx="1"/>
            <path fill="#3C55F9" fill-rule="nonzero" d="M2.5 13h15a.5.5 0 1 1 0 1h-15a.5.5 0 0 1 0-1z"/>
            <path fill="url(#a)" d="M12 0H1a1 1 0 0 0-1 1v13h13V1a1 1 0 0 0-1-1z" transform="translate(3.687)"/>
            <g transform="translate(6.706 3.294)">
                <circle cx="3.5" cy="3.5" r="3.5" fill="#FFF" fill-rule="nonzero"/>
                <path fill="url(#b)" stroke="url(#b)" stroke-width=".5" d="M2.871 4.329l2.323-2.323a.25.25 0 0 1 .354.353l-2.5 2.5a.25.25 0 0 1-.354 0l-1-1a.25.25 0 1 1 .354-.353l.823.823z"/>
            </g>
        </g>
    </g>
</svg>
