<svg xmlns="http://www.w3.org/2000/svg" width="20" height="18" viewBox="0 0 20 18">
    <g fill="none" fill-rule="evenodd">
        <path d="M0-1h20v20H0z"/>
        <g>
            <rect width="20" height="8" y="10" fill="#B8C2FF" rx="1"/>
            <path fill="#5973E7" d="M2.5 13h15a.5.5 0 1 1 0 1h-15a.5.5 0 0 1 0-1z"/>
            <g fill-rule="nonzero">
                <path fill="#FFF" d="M15.687 0h-11a1 1 0 0 0-1 1v13h13V1a1 1 0 0 0-1-1z"/>
                <g transform="translate(6.706 3.294)">
                    <circle cx="3.5" cy="3.5" r="3.5" fill="#5973E7"/>
                    <path fill="#FFF" stroke="#FFF" stroke-width=".25" d="M2.871 4.329l2.323-2.323a.25.25 0 0 1 .354.353l-2.5 2.5a.25.25 0 0 1-.354 0l-1-1a.25.25 0 1 1 .354-.353l.823.823z"/>
                </g>
            </g>
        </g>
    </g>
</svg>
