<svg xmlns="http://www.w3.org/2000/svg" width="22" height="22" viewBox="0 0 22 22">
    <g fill="none" fill-rule="evenodd">
        <path fill="#BAA8FF" d="M6.565 6.15l7.841-4.614 2.856 4.387z"/>
        <path fill="#977BFF" d="M3.636 4.393h3.002a.538.538 0 0 1 .468.803.538.538 0 0 0 .468.804h9.568l-.08-.18a1.017 1.017 0 0 1 .931-1.427c.861 0 1.56.698 1.56 1.559v5.057h.685v3.475h-.686v5.823H1.636V6.393a2 2 0 0 1 2-2z"/>
        <path fill="#4E3CA9" fill-rule="nonzero" stroke="#4E3CA9" stroke-width=".1" d="M20.952 10.263l.05.05-.05 4.942-.915-.05v3.87a1.976 1.976 0 0 1-1.98 1.968H2.97a1.976 1.976 0 0 1-1.98-1.969V5.901c0-1.086.888-1.969 1.98-1.969l5.71.007L13.812 1.1a1.209 1.209 0 0 1 1.643.466l1.294 2.365h1.307c1.092 0 1.98.883 1.98 1.969l-.05 4.362h.965zM18.057 4.8l-.834-.075.528.998 1.401.056a1.103 1.103 0 0 0-1.095-.98zm-3.82-2.94L7.054 5.722l9.77.074-2.13-3.808a.345.345 0 0 0-.457-.13zm4.928 17.214l.05-3.818h-2.823a2.424 2.424 0 0 1-2.428-2.414v-.165c0-1.33 1.09-2.413 2.428-2.413l2.773.05.05-3.723H3.212a.435.435 0 1 1 0-.868l2.229.006 1.875-.93H2.971c-.611 0-1.108.495-1.108 1.102v13.173c0 .607.497 1.101 1.108 1.101h15.086c.61 0 1.108-.494 1.108-1.1zm.965-4.686l.05-3.257h-3.788c-.858 0-1.556.693-1.556 1.546v.165c0 .852.698 1.546 1.556 1.546h3.738zm-2.506-1.597a.9.9 0 0 1-.902.897.9.9 0 0 1-.902-.897.9.9 0 0 1 .902-.897.9.9 0 0 1 .902.897z"/>
    </g>
</svg>
