<svg id="Layer_1" data-name="Layer 1" xmlns="http://www.w3.org/2000/svg" xmlns:xlink="http://www.w3.org/1999/xlink" viewBox="0 0 1460.11 187.04"><defs><style>.cls-1,.cls-3{font-size:95px;fill:#565093;}.cls-1{font-family:Avenir-Heavy, Avenir;}.cls-2{letter-spacing:-0.02em;}.cls-3{font-family:Avenir-Book, Avenir;}.cls-4{fill:url(#linear-gradient);}.cls-5{fill:#fff;}</style><linearGradient id="linear-gradient" x1="93.52" x2="93.52" y2="187.04" gradientUnits="userSpaceOnUse"><stop offset="0" stop-color="#afabff"/><stop offset="0.17" stop-color="#aca6fd"/><stop offset="0.4" stop-color="#a296f8"/><stop offset="0.64" stop-color="#927cef"/><stop offset="0.9" stop-color="#7d59e3"/><stop offset="1" stop-color="#7349de"/></linearGradient></defs><title>logo</title><text class="cls-1" transform="translate(246.11 123.81)">Band P<tspan class="cls-2" x="313.11" y="0">r</tspan><tspan x="348.36" y="0">otocol</tspan></text><text class="cls-3" transform="translate(925.11 123.81)">{developer}</text><circle id="_Path_" data-name="&lt;Path&gt;" class="cls-4" cx="93.52" cy="93.52" r="93.52"/><g id="_Group_" data-name="&lt;Group&gt;"><g id="_Group_2" data-name="&lt;Group&gt;"><polygon id="_Path_2" data-name="&lt;Path&gt;" class="cls-5" points="132.08 92.9 93.97 70.68 81.69 77.15 119.93 99.34 119.8 125.97 92.89 141.49 65.97 125.93 65.97 61.1 92.89 45.53 105.74 52.87 105.75 52.86 105.75 74.14 117.94 81.14 117.94 45.83 117.93 45.84 92.87 31.85 53.82 54.4 53.78 54.38 53.78 132.58 92.88 155.18 92.88 155.19 92.89 155.18 92.89 155.19 92.89 155.18 131.98 132.58 132.08 92.9"/><polygon id="_Path_3" data-name="&lt;Path&gt;" class="cls-5" points="81.69 80.2 81.69 112.33 109.68 96.39 100.26 90.98 91.52 95.64 91.52 86 81.69 80.2"/></g></g></svg>