<svg xmlns="http://www.w3.org/2000/svg" width="73" height="73" viewBox="0 0 73 73">
    <defs>
        <linearGradient id="a" x1="74.634%" x2="26.691%" y1="0%" y2="99.768%">
            <stop offset="0%" stop-color="#CCD2FF"/>
            <stop offset="100%" stop-color="#6B8BF5"/>
        </linearGradient>
    </defs>
    <g fill="none" fill-rule="evenodd">
        <rect width="73" height="73" fill="#EAEEFF" rx="3.2"/>
        <path fill="url(#a)" d="M2.048 0H49.82c1.132 0 2.048.917 2.048 2.048v52.895a2.048 2.048 0 0 1-2.048 2.048H2.048A2.048 2.048 0 0 1 0 54.943V2.048C0 .917.917 0 2.048 0z" transform="translate(10.886 8.325)"/>
        <g fill="#FFF">
            <path d="M20.011 37.14h33.887a.8.8 0 1 1 0 1.6l-33.887.001a.8.8 0 0 1 0-1.6zM20.011 43.71h33.887a.8.8 0 1 1 0 1.6l-33.887.002a.8.8 0 1 1 0-1.6zM20.011 50.114h33.887a.8.8 0 1 1 0 1.6l-33.887.001a.8.8 0 0 1 0-1.6zM20.011 57.158h33.887a.8.8 0 1 1 0 1.6H20.011a.8.8 0 0 1 0-1.6z"/>
        </g>
        <path fill="#FFF" d="M20.521 14.728h32.867c.724 0 1.31.587 1.31 1.31v15.066a1.31 1.31 0 0 1-1.31 1.311H20.52a1.31 1.31 0 0 1-1.31-1.31V16.038c0-.724.586-1.31 1.31-1.31z"/>
        <path fill="#8D94BF" fill-rule="nonzero" d="M29.986 21.89h-1.81v-1.237h5.02v1.237h-1.811V27h-1.399v-5.11zm8.069.412a1.372 1.372 0 0 0-.507-.385c-.2-.09-.432-.135-.695-.135a1.749 1.749 0 0 0-1.313.578 1.985 1.985 0 0 0-.385.65 2.338 2.338 0 0 0-.14.816c0 .299.047.572.14.82.092.248.22.464.38.646.162.182.352.324.57.426.218.101.453.152.704.152.287 0 .54-.06.762-.18.22-.119.403-.286.547-.501l1.165.87c-.269.376-.61.654-1.022.833-.412.18-.837.27-1.273.27a3.91 3.91 0 0 1-1.372-.234 3.14 3.14 0 0 1-1.084-.668 3.028 3.028 0 0 1-.713-1.053 3.585 3.585 0 0 1-.256-1.38c0-.509.086-.969.256-1.381.17-.413.408-.764.713-1.054a3.14 3.14 0 0 1 1.084-.668 3.91 3.91 0 0 1 1.372-.233c.18 0 .366.017.56.05.194.032.386.085.574.156.188.072.37.168.542.287.174.12.33.266.467.44l-1.076.878zm1.99-1.65h2.098c.508 0 .99.057 1.448.17.457.114.856.298 1.196.552a2.7 2.7 0 0 1 .812.99c.2.407.3.9.3 1.48 0 .514-.097.967-.291 1.358a2.92 2.92 0 0 1-.785.986 3.468 3.468 0 0 1-1.138.606c-.43.137-.882.206-1.354.206h-2.286v-6.347zm1.399 5.057h.726c.322 0 .623-.033.9-.099.279-.066.52-.175.722-.327a1.57 1.57 0 0 0 .48-.6c.116-.249.175-.552.175-.91 0-.311-.059-.582-.175-.812a1.622 1.622 0 0 0-.47-.57 2.06 2.06 0 0 0-.696-.335 3.085 3.085 0 0 0-.838-.112h-.824v3.765z"/>
    </g>
</svg>
