<svg xmlns="http://www.w3.org/2000/svg" width="101" height="91" viewBox="0 0 101 91">
    <defs>
        <linearGradient id="a" x1="112.188%" x2="26.457%" y1="33.544%" y2="55.637%">
            <stop offset="0%" stop-color="#A3ADF6"/>
            <stop offset="100%" stop-color="#8189E0"/>
        </linearGradient>
        <linearGradient id="b" x1="-15.021%" x2="108.879%" y1="-6.334%" y2="84.782%">
            <stop offset="0%" stop-color="#3864FF" stop-opacity=".427"/>
            <stop offset="100%" stop-color="#613DFF" stop-opacity=".636"/>
        </linearGradient>
        <linearGradient id="c" x1="90.009%" x2="14.058%" y1="37.792%" y2="54.988%">
            <stop offset="0%" stop-color="#CCD0FF"/>
            <stop offset="100%" stop-color="#8C92FF"/>
        </linearGradient>
        <linearGradient id="d" x1="-4.634%" x2="76.36%" y1="7.321%" y2="92.003%">
            <stop offset="0%" stop-color="#D5FFFC"/>
            <stop offset="100%" stop-color="#79A2FF"/>
        </linearGradient>
        <linearGradient id="e" x1="0%" x2="125.692%" y1="4.735%" y2="85.348%">
            <stop offset="0%" stop-color="#6083FF" stop-opacity=".524"/>
            <stop offset="100%" stop-color="#8266FF" stop-opacity=".636"/>
        </linearGradient>
    </defs>
    <g fill="none" fill-rule="nonzero">
        <path fill="url(#a)" d="M50.02 77.824c-24.853 0-45-5.24-45-10.615v12.377c.013 5.372 20.154 10.623 45 10.623 24.844 0 44.985-5.251 45-10.623V67.21c0 5.375-20.149 10.615-45 10.615M55.02 39.824c-24.853 0-45-5.24-45-10.615v12.377c.013 5.372 20.154 10.623 45 10.623 24.844 0 44.985-5.251 45-10.623V29.21c0 5.375-20.149 10.615-45 10.615" transform="matrix(-1 0 0 1 101 0)"/>
        <path fill="url(#b)" d="M5 0c.912.38 1.911.747 3 1.097V13a37.924 37.924 0 0 1-3-1.1V0zm73 1.097A37.943 37.943 0 0 0 81 0v11.9c-.912.382-1.911.75-3 1.1V1.097zM14 2c.96.234 1.96.457 3 .666V15c-1.04-.21-2.04-.432-3-.666V2zm55 .666c1.04-.21 2.04-.432 3-.666v12.332c-.96.234-1.96.457-3 .668V2.666zM23 3c.978.15 1.976.29 3 .417V16a97.579 97.579 0 0 1-3-.417V3zm38 .415A92.387 92.387 0 0 0 64 3v12.583c-.978.15-1.975.29-3 .417V3.415zM31 4c.985.078 1.984.145 3 .2V16a126.188 126.188 0 0 1-3-.202V4zm21 .2c1.016-.055 2.014-.122 3-.2v11.798c-.986.077-1.984.146-3 .202V4.2zm-8.5.81c.502 0 1.002-.005 1.5-.01v11.99c-.498.005-.998.01-1.5.01a145.1 145.1 0 0 1-1.5-.01V5c.498.005.998.01 1.5.01zM0 38c.912.38 1.911.747 3 1.097V51a38.611 38.611 0 0 1-3-1.1V38zm72 1.097A37.943 37.943 0 0 0 75 38v11.9c-.912.382-1.911.75-3 1.1V39.097zm6-2A37.943 37.943 0 0 0 81 36v11.9c-.912.382-1.911.75-3 1.1V37.097zM9 40c.96.234 1.96.457 3 .666V53c-1.04-.21-2.04-.432-3-.666V40zm55 .666c1.04-.21 2.04-.432 3-.666v12.332c-.96.234-1.96.457-3 .668V40.666zM18 41c.978.15 1.976.29 3 .417V54a97.579 97.579 0 0 1-3-.417V41zm37 .415A92.387 92.387 0 0 0 58 41v12.583c-.978.15-1.975.29-3 .417V41.415zM26 42c.985.078 1.985.145 3 .2V54a126.188 126.188 0 0 1-3-.202V42zm21 .2c1.016-.055 2.014-.122 3-.2v11.798c-.986.077-1.984.146-3 .202V42.2zm-9.5.81c.502 0 1.002-.005 1.5-.01v11.99c-.498.005-.998.01-1.5.01a145.1 145.1 0 0 1-1.5-.01V43c.498.005.998.01 1.5.01z" transform="matrix(-1 0 0 1 88.98 35.209)"/>
        <path fill="url(#c)" d="M45.02 58.824c-24.853 0-45-5.24-45-10.615v12.377c.013 5.372 20.154 10.623 45 10.623 24.844 0 44.985-5.251 45-10.623V48.21c0 5.375-20.149 10.615-45 10.615" transform="matrix(-1 0 0 1 101 0)"/>
        <path fill="url(#d)" d="M90.02 9.07c0 5.245-20.149 10.139-45 10.139-24.853 0-45-4.894-45-10.14 0-5.247 20.147-8.86 45-8.86 24.851 0 45 3.613 45 8.86zm-1.557 54.139c4.159 1.347 6.556 2.974 6.556 4.794 0 5.282-20.146 10.206-45 10.206-24.852 0-45-4.924-45-10.206 0-.724.393-1.42 1.115-2.077 7.845 3.063 22.233 5.329 38.693 5.329 21.051 0 38.72-3.704 43.636-8.046zm-77.668-20c2.87 4.77 21.74 9.105 44.609 9.105 14.615 0 26.361-1.792 34.615-4.105.078.224 0 .651 0 .882 0 5.235-20.148 10.118-45 10.118s-45-4.883-45-10.118c0-2.349 4.062-4.367 10.776-5.882zm33.84-12.465c20.55 0 37.872-3.438 43.257-7.535 7.518 1.513 12.127 3.604 12.127 6.062 0 5.143-20.148 10.938-45 10.938s-45-5.795-45-10.938c0-.728.417-1.422 1.18-2.082 8.237 2.12 20.164 3.555 33.435 3.555z" transform="matrix(-1 0 0 1 101 0)"/>
        <path fill="url(#c)" d="M45.02 18.824c-24.853 0-45-5.24-45-10.615v12.377c.013 5.372 20.154 10.623 45 10.623 24.844 0 44.985-5.251 45-10.623V8.21c0 5.375-20.149 10.615-45 10.615" transform="matrix(-1 0 0 1 101 0)"/>
        <path fill="url(#e)" d="M7.02 14.209c.911.379 1.91.747 3 1.097v11.903a37.924 37.924 0 0 1-3-1.1v-11.9zm73 1.097a37.943 37.943 0 0 0 3-1.097v11.9c-.913.382-1.912.75-3 1.1V15.306zm-64 .903c.96.234 1.96.456 3 .666v12.334c-1.04-.21-2.04-.432-3-.667V16.21zm55 .666c1.039-.21 2.04-.432 3-.666V28.54c-.96.234-1.961.456-3 .668V16.875zm-47 .334c.977.149 1.975.29 3 .417v12.583a97.579 97.579 0 0 1-3-.418V17.21zm38 .419a92.29 92.29 0 0 0 3-.42v12.584c-.979.149-1.976.289-3 .417V17.628zm-29 1.58c.985.078 1.984.146 3 .201v11.8a126.188 126.188 0 0 1-3-.203V19.21zm21 .201c1.015-.055 2.014-.123 3-.2v11.797c-.986.078-1.985.147-3 .203v-11.8zm-9.5-.19c.502 0 1.001-.005 1.5-.01v11.99c-.499.004-.998.01-1.5.01-.503 0-1.003-.006-1.5-.01v-11.99c.497.005.997.01 1.5.01zm-37.5 34.99c.911.379 1.91.747 3 1.097v11.903a38.611 38.611 0 0 1-3-1.1v-11.9zm73 1.097a37.943 37.943 0 0 0 3-1.097v11.9c-.913.382-1.912.75-3 1.1V55.306zm-64 .903c.96.234 1.96.456 3 .666v12.334c-1.04-.21-2.04-.432-3-.667V56.21zm55 .666c1.039-.21 2.04-.432 3-.666V68.54c-.96.234-1.961.456-3 .668V56.875zm-47 .334c.977.149 1.975.29 3 .417v12.583a97.579 97.579 0 0 1-3-.418V57.21zm38 .415a92.387 92.387 0 0 0 3-.415V69.79c-.979.15-1.976.29-3 .418V57.624zm-29 .585c.985.077 1.984.145 3 .2v11.8a126.188 126.188 0 0 1-3-.203V58.21zm21 .2c1.015-.055 2.014-.123 3-.2v11.797c-.986.078-1.985.147-3 .203v-11.8zm-9.5.81c.502 0 1.001-.005 1.5-.01v11.99c-.499.004-.998.01-1.5.01-.503 0-1.003-.006-1.5-.01v-11.99c.497.005.997.01 1.5.01z" transform="matrix(-1 0 0 1 101 0)"/>
    </g>
</svg>
