<svg xmlns="http://www.w3.org/2000/svg" xmlns:xlink="http://www.w3.org/1999/xlink" width="785" height="175" viewBox="0 0 785 175">
    <defs>
        <linearGradient id="a" x1="79.74%" x2="21.86%" y1="31.728%" y2="68.187%">
            <stop offset="0%" stop-color="#CCD2FF"/>
            <stop offset="100%" stop-color="#6B8BF5"/>
        </linearGradient>
        <linearGradient id="b" x1="50%" x2="35.264%" y1="-13.458%" y2="120.856%">
            <stop offset="0%" stop-color="#F7F8FF"/>
            <stop offset="100%" stop-color="#6B8BF5"/>
        </linearGradient>
        <path id="c" d="M0 .194h63.986v59.783H0z"/>
        <linearGradient id="f" x1="21.86%" x2="79.74%" y1="93.444%" y2="6.353%">
            <stop offset="0%" stop-color="#B8C1FF"/>
            <stop offset="100%" stop-color="#6B8BF5"/>
        </linearGradient>
        <path id="e" d="M63.986 6.03l-4.557 3.6L35.004.915c-1.656-.957-4.342-.961-6-.01L4.422 9.63 0 6.03v35.513h.004c.02.61.43 1.217 1.238 1.683l27.74 16.03c1.656.958 4.343.962 6 .01l27.76-15.95c.85-.488 1.261-1.132 1.24-1.773h.004V6.03z"/>
        <linearGradient id="h" x1="79.74%" x2="21.86%" y1="33.399%" y2="66.524%">
            <stop offset="0%" stop-color="#F7F8FF"/>
            <stop offset="100%" stop-color="#6B8BF5"/>
        </linearGradient>
        <path id="i" d="M11.18.15L1.142 5.985C.542 6.333.056 7.178.056 7.872V19.5c0 .694.486.974 1.086.626l10.038-5.834c.599-.349 1.085-1.194 1.085-1.888V.776c0-.491-.244-.775-.6-.775a.983.983 0 0 0-.485.15z"/>
        <path id="j" d="M10.723.308L.542 6.168c-.608.35-.609.92-.001 1.27l10.174 5.89c.607.352 1.592.354 2.2.004l10.182-5.86c.608-.35.608-.919 0-1.27L12.925.311c-.305-.177-.705-.265-1.104-.265-.397 0-.794.087-1.097.261z"/>
        <linearGradient id="k" x1="-22.346%" x2="91.846%" y1="45.102%" y2="52.834%">
            <stop offset="0%" stop-color="#B5C5FF"/>
            <stop offset="100%" stop-color="#798CEE"/>
        </linearGradient>
        <linearGradient id="l" x1="-22.346%" x2="91.846%" y1="45.519%" y2="52.593%">
            <stop offset="0%" stop-color="#BDCBFF"/>
            <stop offset="100%" stop-color="#92A2F5"/>
        </linearGradient>
        <linearGradient id="m" x1="1.241%" x2="68.26%" y1="55.082%" y2="43.029%">
            <stop offset="0%" stop-color="#D5DDFA"/>
            <stop offset="100%" stop-color="#ABB7F4"/>
        </linearGradient>
        <linearGradient id="n" x1="1.241%" x2="68.26%" y1="55.082%" y2="43.029%">
            <stop offset="0%" stop-color="#EAEFFF"/>
            <stop offset="100%" stop-color="#ABB7F4"/>
        </linearGradient>
        <linearGradient id="o" x1="-22.346%" x2="91.063%" y1="45.519%" y2="52.544%">
            <stop offset="0%" stop-color="#F3F5FF"/>
            <stop offset="100%" stop-color="#C6CFFF"/>
        </linearGradient>
        <linearGradient id="p" x1="74.829%" x2="26.506%" y1="0%" y2="99.768%">
            <stop offset="0%" stop-color="#ABBBFF"/>
            <stop offset="100%" stop-color="#6B8BF5"/>
        </linearGradient>
        <linearGradient id="q" x1="79.74%" x2="21.86%" y1=".006%" y2="99.762%">
            <stop offset="0%" stop-color="#CCD2FF"/>
            <stop offset="100%" stop-color="#6B8BF5"/>
        </linearGradient>
        <linearGradient id="r" x1="28.455%" x2="72.77%" y1="99.768%" y2="0%">
            <stop offset="0%" stop-color="#B8C1FF"/>
            <stop offset="100%" stop-color="#6B8BF5"/>
        </linearGradient>
    </defs>
    <g fill="none" fill-rule="evenodd">
        <g transform="translate(1 128)">
            <rect width="81" height="25" fill="#F8F8FF" rx="2"/>
            <text fill="#252945" font-family="Avenir-Medium, Avenir" font-size="14" font-weight="400">
                <tspan x="14.162" y="17">Provider</tspan>
            </text>
        </g>
        <path fill="url(#a)" d="M54.549 23.03c-2.31-2.36-3.787-5.962-3.787-9.997 0-7.114 1.507-12.88 10.25-12.88s10.25 5.766 10.25 12.88c0 3.943-1.41 7.472-3.631 9.835 11.643 2.227 13.182 5.804 13.371 17.956.012.788.019.924.022.854v.957s-2.875 5.907-19.524 5.907c-16.648 0-19.522-5.907-19.522-5.907 0-.687-.001-1.08-.002-1.294.003.114.012.062.03-.917.212-11.544 1.77-15.178 12.543-17.393zm-41 0c-2.31-2.36-3.787-5.962-3.787-9.997 0-7.114 1.507-12.88 10.25-12.88s10.25 5.766 10.25 12.88c0 3.943-1.41 7.472-3.631 9.835 11.643 2.227 13.182 5.804 13.371 17.956.012.788.019.924.022.854v.957s-2.875 5.907-19.524 5.907C3.852 48.542.978 42.635.978 42.635c0-.687-.001-1.08-.002-1.294.003.114.012.062.03-.917.212-11.544 1.77-15.178 12.543-17.393z" transform="translate(0 56)"/>
        <path fill="#000" fill-rule="nonzero" d="M.977 97.71c-.002-.407-.003-.114 0 0zM40.022 97.79c.006-.11.002-.772 0 0z"/>
        <g fill="#000" fill-rule="nonzero">
            <path d="M41.977 97.71c-.002-.407-.003-.114 0 0zM81.022 97.79c.006-.11.002-.772 0 0z"/>
        </g>
        <path fill="url(#b)" d="M13.549 23.03c-2.31-2.36-3.787-5.962-3.787-9.997 0-7.114 1.507-12.88 10.25-12.88s10.25 5.766 10.25 12.88c0 3.943-1.41 7.472-3.631 9.835 11.643 2.227 13.182 5.804 13.371 17.956.012.788.019.924.022.854v.957s-2.875 5.907-19.524 5.907C3.852 48.542.978 42.635.978 42.635c0-.687-.001-1.08-.002-1.294.003.114.012.062.03-.917.212-11.544 1.77-15.178 12.543-17.393z" transform="translate(20.5 63.25)"/>
        <path fill="#000" fill-rule="nonzero" d="M21.477 104.96c-.002-.407-.003-.114 0 0zM60.522 105.04c.006-.11.002-.772 0 0z"/>
        <g transform="translate(655 128)">
            <rect width="130" height="25" fill="#F8F8FF" rx="2"/>
            <text fill="#252945" font-family="Avenir-Medium, Avenir" font-size="14" font-weight="400">
                <tspan x="8.076" y="17">DApps/Consumer</tspan>
            </text>
        </g>
        <g transform="translate(688 57.61)">
            <mask id="d" fill="#fff">
                <use xlink:href="#c"/>
            </mask>
            <g mask="url(#d)">
                <g>
                    <mask id="g" fill="#fff">
                        <use xlink:href="#e"/>
                    </mask>
                    <use fill="url(#f)" xlink:href="#e"/>
                    <path fill="#6B8BF5" d="M31.452 21.285v44.677l42.985-22.338-2.895-46.252z" mask="url(#g)"/>
                </g>
            </g>
        </g>
        <path fill="url(#h)" d="M62.743 20.208l-27.761 15.95c-1.657.952-4.344.948-6-.009L1.242 20.12c-1.657-.958-1.656-2.505.002-3.458L29.004.711c1.658-.952 4.344-.948 6 .01l27.74 16.03c1.657.957 1.656 2.505-.001 3.457" transform="translate(688 45.122)"/>
        <use fill="#F2F5FF" transform="matrix(-1 0 0 1 708.107 80.786)" xlink:href="#i"/>
        <g fill-rule="nonzero" transform="translate(314 30)">
            <ellipse cx="56.324" cy="91.131" fill="url(#k)" rx="56.324" ry="19.131"/>
            <path fill="url(#l)" d="M56.324 90.598c31.108 0 56.324-8.193 56.324-18.3 0-4.589-5.198-8.783-13.786-11.993C88.533 56.442 73.305 54 56.324 54 25.216 54 0 62.193 0 72.299s25.216 18.299 56.324 18.299z"/>
            <ellipse cx="56.324" cy="54.299" fill="url(#m)" rx="56.324" ry="18.299"/>
            <ellipse cx="56.324" cy="36.299" fill="url(#n)" rx="56.324" ry="18.299"/>
            <ellipse cx="56.324" cy="18.299" fill="url(#o)" rx="56.324" ry="18.299"/>
        </g>
        <g>
            <path stroke="#ABBBFF" stroke-dasharray="6,6" stroke-linecap="round" stroke-width="2" d="M98 77.5h190.81"/>
            <path fill="#FFCA55" d="M289.886 76.973l-14.708-8.742a1 1 0 0 0-1.51.86v17.484a1 1 0 0 0 1.51.86l14.708-8.743a1 1 0 0 0 0-1.72z"/>
            <g>
                <path stroke="#ABBBFF" stroke-dasharray="6,6" stroke-linecap="round" stroke-width="2" d="M101 96.5h190.81"/>
                <path fill="#FFCA55" d="M99.114 95.973l14.708-8.742a1 1 0 0 1 1.51.86v17.484a1 1 0 0 1-1.51.86l-14.708-8.743a1 1 0 0 1 0-1.72z"/>
            </g>
        </g>
        <g>
            <path stroke="#ABBBFF" stroke-dasharray="6,6" stroke-linecap="round" stroke-width="2" d="M443 77.5h190.81"/>
            <path fill="#FFCA55" d="M634.886 76.973l-14.708-8.742a1 1 0 0 0-1.51.86v17.484a1 1 0 0 0 1.51.86l14.708-8.743a1 1 0 0 0 0-1.72z"/>
            <g>
                <path stroke="#ABBBFF" stroke-dasharray="6,6" stroke-linecap="round" stroke-width="2" d="M446 96.5h190.81"/>
                <path fill="#FFCA55" d="M444.114 95.973l14.708-8.742a1 1 0 0 1 1.51.86v17.484a1 1 0 0 1-1.51.86l-14.708-8.743a1 1 0 0 1 0-1.72z"/>
            </g>
        </g>
        <g>
            <path fill="#EAEEFF" stroke="#ABBBFF" stroke-dasharray="5,5" stroke-linecap="round" stroke-width="2" d="M168 1v55.7h57.162V1H168z"/>
            <path fill="url(#p)" d="M1.331 0H32.43c.735 0 1.331.596 1.331 1.331v34.286c0 .735-.596 1.331-1.33 1.331H1.33A1.331 1.331 0 0 1 0 35.617V1.33C0 .596.596 0 1.331 0z" transform="translate(179.685 10.51)"/>
            <g fill="#FFF">
                <path d="M185.622 29.192h22.06a.519.519 0 1 1 0 1.038h-22.06a.519.519 0 1 1 0-1.038zM185.622 33.451h22.06a.519.519 0 1 1 0 1.038h-22.06a.519.519 0 0 1 0-1.038zM185.622 37.603h22.06a.519.519 0 1 1 0 1.038h-22.06a.519.519 0 1 1 0-1.038zM185.622 42.17h22.06a.519.519 0 0 1 0 1.038h-22.06a.519.519 0 1 1 0-1.038z"/>
            </g>
            <path fill="#FFF" d="M185.955 14.661h21.395c.47 0 .852.382.852.852v9.763c0 .47-.382.852-.852.852h-21.395a.852.852 0 0 1-.852-.852v-9.763c0-.47.381-.852.852-.852z"/>
            <path fill="#8D94BF" fill-rule="nonzero" stroke="#8D94BF" stroke-width=".5" d="M189.271 18.398h1.4c.284 0 .532.033.746.1.213.066.398.155.555.266.157.112.287.24.391.384.104.145.186.293.247.446a2.482 2.482 0 0 1 .17.88c0 .265-.047.522-.142.77-.094.249-.234.47-.42.663a2.062 2.062 0 0 1-.688.466c-.274.118-.59.176-.95.176h-1.309v-4.151zm.544 3.624h.686c.23 0 .449-.033.655-.097.206-.065.386-.161.541-.29.155-.13.278-.29.369-.484.09-.194.136-.42.136-.678 0-.132-.021-.288-.063-.466a1.417 1.417 0 0 0-.235-.507 1.406 1.406 0 0 0-.479-.407c-.204-.112-.469-.168-.794-.168h-.816v3.097zm5.005-3.624h.494l1.717 4.151h-.635l-.402-1.026h-1.91l-.397 1.026h-.635l1.768-4.151zm.975 2.633l-.748-1.906h-.011l-.76 1.906h1.52zm2.597-2.106h-1.293v-.527h3.13v.527h-1.293v3.624h-.544v-3.624zm3.673-.527h.493l1.718 4.151h-.635l-.403-1.026h-1.91l-.397 1.026h-.635l1.769-4.151zm.975 2.633l-.748-1.906h-.012l-.76 1.906h1.52z"/>
        </g>
        <g>
            <path fill="#EAEEFF" stroke="#ABBBFF" stroke-dasharray="5,5" stroke-linecap="round" stroke-width="2" d="M509 118v55.7h57.162V118H509z"/>
            <path fill="url(#p)" d="M1.331 0H32.43c.735 0 1.331.596 1.331 1.331v34.286c0 .735-.596 1.331-1.33 1.331H1.33A1.331 1.331 0 0 1 0 35.617V1.33C0 .596.596 0 1.331 0z" transform="translate(520.685 127.51)"/>
            <g fill="#FFF">
                <path d="M526.622 146.192h22.06a.519.519 0 1 1 0 1.038h-22.06a.519.519 0 1 1 0-1.038zM526.622 150.451h22.06a.519.519 0 1 1 0 1.038h-22.06a.519.519 0 0 1 0-1.038zM526.622 154.603h22.06a.519.519 0 1 1 0 1.038h-22.06a.519.519 0 1 1 0-1.038zM526.622 159.17h22.06a.519.519 0 0 1 0 1.038h-22.06a.519.519 0 1 1 0-1.038z"/>
            </g>
            <path fill="#FFF" d="M526.955 131.661h21.395c.47 0 .852.382.852.852v9.763c0 .47-.382.852-.852.852h-21.395a.852.852 0 0 1-.852-.852v-9.763c0-.47.381-.852.852-.852z"/>
            <path fill="#8D94BF" fill-rule="nonzero" stroke="#8D94BF" stroke-width=".5" d="M530.271 135.398h1.4c.284 0 .532.033.746.1.213.066.398.155.555.266.157.112.287.24.391.384.104.145.186.293.247.446a2.482 2.482 0 0 1 .17.88c0 .265-.047.522-.142.77-.094.249-.234.47-.42.663a2.062 2.062 0 0 1-.688.466c-.274.118-.59.176-.95.176h-1.309v-4.151zm.544 3.624h.686c.23 0 .449-.033.655-.097.206-.065.386-.161.541-.29.155-.13.278-.29.369-.484.09-.194.136-.42.136-.678 0-.132-.021-.288-.063-.466a1.417 1.417 0 0 0-.235-.507 1.406 1.406 0 0 0-.479-.407c-.204-.112-.469-.168-.794-.168h-.816v3.097zm5.005-3.624h.494l1.717 4.151h-.635l-.402-1.026h-1.91l-.397 1.026h-.635l1.768-4.151zm.975 2.633l-.748-1.906h-.011l-.76 1.906h1.52zm2.597-2.106h-1.293v-.527h3.13v.527h-1.293v3.624h-.544v-3.624zm3.673-.527h.493l1.718 4.151h-.635l-.403-1.026h-1.91l-.397 1.026h-.635l1.769-4.151zm.975 2.633l-.748-1.906h-.012l-.76 1.906h1.52z"/>
        </g>
        <g>
            <path fill="#EAEEFF" stroke="#ABBBFF" stroke-dasharray="5,5" stroke-linecap="round" stroke-width="2" d="M168 118v55.7h57.162V118H168z"/>
            <g fill-rule="nonzero">
                <path fill="url(#q)" d="M15.476 30.95C6.942 30.95 0 24.008 0 15.475 0 6.942 6.942 0 15.476 0s15.477 6.944 15.477 15.476c0 8.533-6.943 15.475-15.477 15.475z" transform="translate(181 124)"/>
                <path fill="#FFF" d="M205.718 136.729h-6.104l-1.888-5.789c-.243-.744-1.299-.744-1.541 0l-1.886 5.789h-6.105c-.785 0-1.111 1.002-.476 1.461l4.939 3.578-1.887 5.79c-.242.743.612 1.362 1.248.902l4.938-3.578 4.939 3.578c.635.46 1.49-.16 1.247-.903l-1.886-5.789 4.938-3.578c.634-.46.309-1.461-.476-1.461z"/>
            </g>
            <text fill="#8D94BF" font-family="Avenir-Black, Avenir" font-size="8" font-weight="700" transform="translate(179 124)">
                <tspan x=".296" y="41">REWARD</tspan>
            </text>
        </g>
        <g>
            <path fill="#EAEEFF" stroke="#ABBBFF" stroke-dasharray="5,5" stroke-linecap="round" stroke-width="2" d="M509 1v55.7h57.162V1H509z"/>
            <text fill="#8D94BF" font-family="Avenir-Black, Avenir" font-size="8" font-weight="700" transform="translate(509 1)">
                <tspan x="21.088" y="49">FEE</tspan>
            </text>
            <g fill-rule="nonzero">
                <path fill="url(#r)" d="M17.16 31C9.67 31 3.599 24.06 3.599 15.5 3.598 6.94 9.67 0 17.161 0c7.49 0 13.562 6.94 13.562 15.5 0 8.56-6.072 15.5-13.562 15.5" transform="translate(522 8)"/>
                <path fill="#6B8BF5" d="M525.598 23.5c0-7.917 5.195-14.444 11.902-15.38a11.943 11.943 0 0 0-1.66-.12c-7.491 0-13.563 6.94-13.563 15.5 0 8.56 6.072 15.5 13.562 15.5.563 0 1.116-.044 1.661-.12-6.707-.936-11.902-7.463-11.902-15.38"/>
                <path fill="#E2E7FF" d="M525.598 24.054h-3.32c.01.373.031.742.065 1.107h3.323a16.903 16.903 0 0 1-.068-1.107M525.724 21.286h-3.32a17.68 17.68 0 0 0-.101 1.107h3.321c.023-.372.054-.741.1-1.107M525.902 26.822h-3.322c.072.374.155.743.25 1.107h3.32a17.014 17.014 0 0 1-.248-1.107M526.677 29.59h-3.324c.141.377.297.745.463 1.107h3.323a15.94 15.94 0 0 1-.462-1.107M526.302 18.518h-3.318a17.18 17.18 0 0 0-.292 1.108h3.325c.084-.374.178-.744.285-1.108M527.405 15.751h-3.322c-.182.36-.354.73-.511 1.107h3.323a16.1 16.1 0 0 1 .51-1.107M529.664 12.43h-3.325c-.315.352-.615.721-.898 1.107h3.324c.284-.386.584-.755.9-1.107M533.049 9.661h-3.33a13.35 13.35 0 0 0-1.624 1.107h3.326c.517-.41 1.06-.78 1.628-1.107M528.377 32.911h-3.323c.257.384.528.753.815 1.107h3.326c-.288-.354-.56-.723-.818-1.107M527.444 35.68c.444.4.91.771 1.397 1.106h3.33c-.49-.336-.96-.705-1.407-1.107h-3.32z"/>
                <path fill="#FFF" d="M539.166 31.115c-.332 0-.547-.214-.547-.546v-.778c-1.135-.156-1.838-.343-2.794-1.11v.728c0 .333-.215.547-.546.547-.332 0-.546-.215-.546-.547v-3.415c0-.332.214-.546.546-.546.332 0 .546.214.546.546v1.242c.584.634 1.021.866 2.002 1.24.239.091.504.162.792.211v-5.294c-1.06-.295-1.862-.575-2.389-.836-.582-.288-1.039-.65-1.358-1.08a2.51 2.51 0 0 1-.495-1.531c0-1.083.363-1.962 1.08-2.614.681-.62 1.745-.945 3.162-.969v-.713c0-.331.215-.546.547-.546.331 0 .546.215.546.546v.791c1.004.187 1.865.534 2.562 1.033.181.13.096.244.223.342l-.001-.727c0-.333.215-.547.546-.547.332 0 .547.214.547.547v3.415c0 .332-.215.546-.547.546-.332 0-.546-.214-.546-.546V19.35c-.617-.682-1.154-1.218-2.07-1.593a3.517 3.517 0 0 0-.714-.219v4.947c.17.045.451.12.844.222.68.178 1.309.408 1.869.685.581.287 1.038.65 1.357 1.08.328.443.495.976.495 1.585 0 1.16-.414 2.095-1.23 2.782-.783.657-1.904 1-3.335 1.017v.713c0 .33-.215.545-.546.545zm-2.155-2.384zm2.7-5.04v5.073c1.12-.016 1.988-.265 2.58-.739.6-.482.893-1.09.893-1.86 0-.403-.123-.744-.375-1.043a2.745 2.745 0 0 0-.98-.735 8.788 8.788 0 0 0-1.246-.453l-.871-.244zm3.177 4.543zm-4.27-10.777c-1.063.022-1.858.252-2.364.686-.527.452-.784.989-.784 1.641 0 .405.123.746.375 1.044.266.314.595.562.98.735.411.185.804.332 1.168.436.227.064.436.126.626.182v-4.724z"/>
            </g>
        </g>
    </g>
</svg>
