<svg xmlns="http://www.w3.org/2000/svg" width="245" height="21" viewBox="0 0 245 21">
    <path fill="#7C84A6" fill-rule="evenodd" d="M11.652 0H0v20.982h11.65c1.206.001 2.362-.49 3.215-1.364a4.728 4.728 0 0 0 1.332-3.298V4.66C16.196 2.086 14.161 0 11.652 0zm1.134 15.738c0 1.288-1.018 2.33-2.272 2.33H3.41V2.914h7.105c1.254 0 2.27 1.043 2.27 2.33v10.494zM44.043 4.663h-4.83l-3.41 1.748v14.571h3.41V7.577h3.697c1.254 0 2.27 1.043 2.271 2.33v11.075h3.41V9.325c0-1.237-.48-2.423-1.332-3.298a4.486 4.486 0 0 0-3.214-1.364h-.002zm39.498 0h-3.41l-1.817.932a4.453 4.453 0 0 0-2.728-.932h-3.41l-3.41 1.748v14.571h3.41V7.577h2.274c.602 0 1.18.245 1.607.683.426.437.665 1.03.666 1.648v11.074h3.41V7.577h2.273c.603 0 1.18.245 1.607.683.426.437.666 1.03.666 1.649v11.073h3.41V9.325c0-1.237-.48-2.423-1.332-3.298a4.486 4.486 0 0 0-3.214-1.364h-.002zm-21.312 0h-9.091v2.914h7.387c.226 0 .443.092.603.256.16.164.25.386.25.618v2.332h-6.819c-.678 0-1.329.275-1.808.767a2.66 2.66 0 0 0-.75 1.856v4.954c0 .696.27 1.363.75 1.855.479.492 1.13.768 1.807.767h6.82l3.41-1.748V7.286a2.66 2.66 0 0 0-.75-1.856 2.523 2.523 0 0 0-1.807-.767h-.002zm-.853 13.405h-5.114a.841.841 0 0 1-.603-.256.887.887 0 0 1-.25-.618V14.57c0-.231.09-.454.25-.617a.84.84 0 0 1 .602-.256h5.115v4.371zm-32.393 0h-3.696c-.602 0-1.18-.245-1.606-.682a2.362 2.362 0 0 1-.665-1.648V4.663h-3.409V16.32c0 1.237.48 2.423 1.333 3.298a4.486 4.486 0 0 0 3.213 1.364h4.831l3.41-1.748V4.663h-3.41v13.405h-.001zm71.891 0H97.18c-1.254 0-2.271-1.042-2.272-2.33V4.663h-3.41V16.32c0 1.237.48 2.424 1.333 3.298a4.486 4.486 0 0 0 3.215 1.364h4.831l3.41-1.748V4.663h-3.41v13.405h-.002zm68.2-10.783v13.697h1.99V6.994c0-.232.09-.454.25-.618a.84.84 0 0 1 .603-.256h5.68V4.663h-5.966c-1.412 0-2.557 1.173-2.557 2.622zm53.988 0v13.697h1.991V6.994c0-.232.09-.454.25-.618a.84.84 0 0 1 .602-.256h5.681V4.663h-5.965c-1.412 0-2.557 1.173-2.557 2.622h-.002zm-95.177 5.03l-2.673 2.743-5.026-5.151 2.225-2.282a4.248 4.248 0 0 0 1.198-2.965c0-1.236-.48-2.422-1.332-3.296A4.483 4.483 0 0 0 119.065 0h-.57c-2.51-.001-4.547 2.087-4.548 4.664a4.23 4.23 0 0 0 1.192 2.952l2.234 2.291-3.364 3.449a4.25 4.25 0 0 0-1.198 2.966c0 1.237.48 2.423 1.332 3.297a4.483 4.483 0 0 0 3.213 1.363h3.834c.679 0 1.33-.276 1.81-.768l2.212-2.27 2.675 2.744 1.406-1.443-2.678-2.743 2.675-2.744-1.405-1.442zm-11.283-6.084a2.36 2.36 0 0 1-.666-1.646v-.214c0-1.611 1.273-2.917 2.842-2.917 1.57 0 2.842 1.306 2.842 2.917v.214c0 .618-.24 1.21-.666 1.646l-2.174 2.23-2.178-2.23zm4.503 13.038a.843.843 0 0 1-.601.257h-2.863a2.801 2.801 0 0 1-2.007-.853 2.952 2.952 0 0 1-.832-2.06c0-.757.293-1.483.815-2.018l3.165-3.246 5.022 5.153-2.699 2.767zm63.029-.617V6.12h4.831V4.663h-4.831V1.749l-1.989 1.02V4.66h-2.841v1.457h2.841v12.24c0 .696.27 1.364.75 1.856s1.131.769 1.81.768h4.26v-1.456h-3.98a.84.84 0 0 1-.602-.256.884.884 0 0 1-.249-.617zm15.628-13.99h-5.398l-1.99 1.02v15.3h1.99V6.12h5.115c.753 0 1.476.306 2.008.853.533.547.833 1.288.833 2.061v11.948h1.99V9.327c-.002-2.577-2.037-4.665-4.548-4.664zm17.337 0h-7.39l-1.99 1.02v12.68c.001 1.448 1.145 2.621 2.556 2.62h8.242v-1.456h-7.956a.841.841 0 0 1-.603-.256.887.887 0 0 1-.25-.62v-4.953h7.39c.678 0 1.328-.276 1.807-.767.48-.492.749-1.159.749-1.854V7.282c-.002-1.448-1.146-2.62-2.556-2.62h.001zm.567 6.703c0 .232-.09.455-.25.619a.841.841 0 0 1-.603.256h-7.105V6.12h7.104c.47 0 .852.391.853.874v4.371h.001zm-54.558-6.702h-8.242V6.12h7.956c.47 0 .852.391.853.874v4.371h-7.39c-.678 0-1.328.276-1.807.768a2.658 2.658 0 0 0-.749 1.855v4.374c.001 1.448 1.145 2.621 2.556 2.62h7.39l1.989-1.02V7.283c-.002-1.447-1.145-2.62-2.556-2.62zm.567 14.863h-7.104a.841.841 0 0 1-.603-.256.887.887 0 0 1-.25-.62v-4.953c0-.232.09-.454.25-.618a.841.841 0 0 1 .603-.256h7.104v6.703zM146.34 0h-8.525v20.982l1.99-1.02v-8.014h6.535c1.205.001 2.361-.49 3.214-1.364a4.728 4.728 0 0 0 1.333-3.299V4.663C150.887 2.086 148.85-.001 146.34 0zm2.559 7.578c0 .773-.3 1.515-.833 2.061a2.803 2.803 0 0 1-2.009.852h-6.252V1.457h6.252c.753 0 1.475.306 2.008.852.533.546.832 1.287.832 2.06v3.21h.002zm93.67 5.87l-6.212-2.828a.875.875 0 0 1-.506-.799V6.295l.338-.173h6.766v-1.46h-7.105l-1.99 1.02v3.686c.001 1.038.597 1.978 1.52 2.399l6.216 2.831c.307.14.505.453.505.799v3.255c0 .232-.09.454-.25.618a.84.84 0 0 1-.601.256h-7.39v1.456h7.672c1.412 0 2.558-1.174 2.559-2.624v-2.512a2.628 2.628 0 0 0-1.521-2.398z"/>
</svg>
