<svg xmlns="http://www.w3.org/2000/svg" width="22" height="22" viewBox="0 0 22 22">
    <path fill="#2A304E" fill-rule="nonzero" d="M20.503 5.62a11.072 11.072 0 0 0-3.999-4.093C14.82.52 12.982.019 10.99.019c-1.994 0-3.833.502-5.516 1.508a11.07 11.07 0 0 0-4 4.092C.492 7.342 0 9.223 0 11.263c0 2.45.699 4.654 2.096 6.61 1.397 1.958 3.203 3.312 5.416 4.064.257.048.448.014.572-.103a.579.579 0 0 0 .186-.439l-.007-.79c-.005-.498-.008-.933-.008-1.303l-.329.058c-.21.04-.474.056-.794.051a5.917 5.917 0 0 1-.994-.102 2.198 2.198 0 0 1-.959-.44 1.857 1.857 0 0 1-.63-.9l-.142-.336a3.675 3.675 0 0 0-.451-.747c-.205-.273-.413-.459-.622-.556l-.1-.074a1.06 1.06 0 0 1-.187-.176.806.806 0 0 1-.128-.205c-.029-.068-.005-.124.071-.168.077-.044.215-.066.415-.066l.286.044c.191.04.427.156.709.351.28.196.512.45.693.761.22.4.484.706.795.916.31.21.622.314.937.314.314 0 .586-.024.815-.073.229-.048.444-.122.644-.22.086-.654.32-1.156.701-1.508a9.595 9.595 0 0 1-1.467-.263 5.766 5.766 0 0 1-1.344-.571 3.874 3.874 0 0 1-1.152-.981c-.305-.39-.556-.903-.751-1.538-.196-.634-.294-1.366-.294-2.196 0-1.181.377-2.186 1.13-3.016-.352-.888-.319-1.884.1-2.987.278-.088.688-.022 1.231.198.544.22.942.408 1.195.564.253.156.456.288.608.395a9.943 9.943 0 0 1 2.747-.38c.945 0 1.86.126 2.748.38l.544-.351c.371-.235.81-.45 1.316-.645.505-.195.892-.249 1.159-.16.429 1.102.467 2.098.114 2.986.754.83 1.13 1.835 1.13 3.016 0 .83-.097 1.564-.293 2.204-.195.64-.448 1.151-.758 1.537-.31.386-.696.71-1.159.974a5.777 5.777 0 0 1-1.345.57 9.585 9.585 0 0 1-1.466.265c.495.439.743 1.132.743 2.079v3.089c0 .175.06.322.18.439.119.117.307.151.565.102 2.213-.751 4.018-2.106 5.415-4.063 1.397-1.957 2.096-4.16 2.096-6.61 0-2.04-.492-3.921-1.474-5.644z"/>
</svg>
