<svg xmlns="http://www.w3.org/2000/svg" width="95" height="51" viewBox="0 0 95 51">
    <g fill="none" fill-rule="evenodd">
        <g fill-rule="nonzero" transform="translate(3.994 1.402)">
            <ellipse cx="8.037" cy="7.709" stroke="#FFF" rx="7.716" ry="7.709"/>
            <path fill="#FFF" d="M8.946 7.71l2.274-2.272a.641.641 0 1 0-.91-.909L8.038 6.801 5.764 4.529a.643.643 0 0 0-.91.909l2.274 2.271-2.274 2.272a.641.641 0 1 0 .91.909l2.273-2.272 2.274 2.272a.641.641 0 0 0 .909 0 .641.641 0 0 0 0-.909L8.946 7.71z"/>
        </g>
        <path stroke="#FFF" d="M7.893 35.307c-1.346-1.395-2.206-3.522-2.206-5.905 0-4.201.878-7.607 5.97-7.607 5.094 0 5.972 3.406 5.972 7.607 0 2.33-.822 4.414-2.115 5.809 6.782 1.315 7.679 3.428 7.789 10.605.007.465.012.809.012 1.07 0 0-1.674 3.488-11.373 3.488C2.244 50.374.57 46.885.57 46.885c0-.406.005-.727.016-1.305.123-6.818 1.032-8.965 7.307-10.273z"/>
        <path fill="#000" fill-rule="nonzero" d="M.589 46.34c-.002-.241-.003-.069 0 0zM23.333 46.387c.005-.066.002-.457 0 0z"/>
        <g>
            <g fill-rule="nonzero" transform="translate(74.635 1.402)">
                <ellipse cx="7.635" cy="7.709" stroke="#FFF" rx="7.635" ry="7.709"/>
                <path fill="#FFF" d="M6.726 10.921a.63.63 0 0 1-.382-.128L3.436 8.59a.646.646 0 0 1-.127-.899.632.632 0 0 1 .89-.128l2.432 1.84 3.976-4.681c.228-.27.63-.301.897-.07.266.23.298.636.069.906l-4.363 5.14a.633.633 0 0 1-.484.223z"/>
            </g>
            <path stroke="#FFF" d="M78.534 35.307c-1.346-1.395-2.206-3.522-2.206-5.905 0-4.201.878-7.607 5.97-7.607 5.094 0 5.972 3.406 5.972 7.607 0 2.33-.822 4.414-2.115 5.809 6.782 1.315 7.679 3.428 7.789 10.605.007.465.012.809.012 1.07 0 0-1.674 3.488-11.373 3.488-9.698 0-11.372-3.489-11.372-3.489 0-.406.005-.727.016-1.305.123-6.818 1.032-8.965 7.307-10.273z"/>
            <path fill="#000" fill-rule="nonzero" d="M71.23 46.34c-.002-.241-.003-.069 0 0zM93.974 46.387c.005-.066.002-.457 0 0z"/>
        </g>
        <g>
            <g fill-rule="nonzero" transform="translate(39.314 1.402)">
                <ellipse cx="7.635" cy="7.709" stroke="#FFF" rx="7.635" ry="7.709"/>
                <path fill="#FFF" d="M6.726 10.921a.63.63 0 0 1-.382-.128L3.436 8.59a.646.646 0 0 1-.127-.899.632.632 0 0 1 .89-.128l2.432 1.84 3.976-4.681c.228-.27.63-.301.897-.07.266.23.298.636.069.906l-4.363 5.14a.633.633 0 0 1-.484.223z"/>
            </g>
            <path stroke="#FFF" d="M43.213 35.307c-1.346-1.395-2.206-3.522-2.206-5.905 0-4.201.878-7.607 5.971-7.607 5.094 0 5.971 3.406 5.971 7.607 0 2.33-.821 4.414-2.115 5.809 6.783 1.315 7.68 3.428 7.79 10.605.006.465.012.809.012 1.07 0 0-1.675 3.488-11.373 3.488-9.699 0-11.373-3.489-11.373-3.489 0-.406.006-.727.016-1.305.124-6.818 1.032-8.965 7.307-10.273z"/>
            <path fill="#000" fill-rule="nonzero" d="M35.91 46.34c-.002-.241-.004-.069 0 0zM58.654 46.387c.004-.066.001-.457 0 0z"/>
        </g>
    </g>
</svg>
