<svg xmlns="http://www.w3.org/2000/svg" width="29" height="24" viewBox="0 0 29 24">
    <path fill="#7C84A6" fill-rule="nonzero" d="M26.806 21.536L29 23.658v.07H17.87v-.07l2.234-2.122a.861.861 0 0 0 .298-.815V7.15c0-.573 0-1.347.1-2.011L12.996 24h-.09L5.134 6.649c-.169-.433-.219-.463-.328-.755v11.377a3.999 3.999 0 0 0 .368 2.223L8.3 23.658v.07H0v-.07l3.127-4.174c.33-.687.458-1.455.368-2.213V4.697a2.456 2.456 0 0 0-.517-1.72L.764.07V0h7.943l6.652 14.696L21.216 0h7.774v.07l-2.184 2.465a.87.87 0 0 0-.338.845v17.34a.81.81 0 0 0 .338.816z"/>
</svg>
