<svg xmlns="http://www.w3.org/2000/svg" width="53" height="46" viewBox="0 0 53 46">
    <g fill="none" fill-rule="evenodd">
        <g stroke="#FFF" stroke-linecap="round">
            <path d="M7 12c4.842 1.251 10.337 1.876 16.484 1.876C32.704 13.876 40.34 12 40.34 12M7 19.5c4.842 1.251 10.337 1.876 16.484 1.876 9.22 0 16.856-1.876 16.856-1.876M7 27.5c4.842 1.251 10.337 1.876 16.484 1.876 3.89 0 7.498-.334 10.37-.72M7 34.5c4.842 1.251 10.337 1.876 16.484 1.876 3.765 0 7.017-.295 9.595-.651"/>
        </g>
        <g fill="#FFF" fill-rule="nonzero">
            <path d="M44.964 41c-4.349 0-7.875-4.03-7.875-9s3.526-9 7.875-9c4.35 0 7.875 4.03 7.875 9s-3.525 9-7.875 9zm1.14-12.55v-.001 2.29l-1.043-.638-1.088.6v3.263l2.707-1.62.681.414-.011.007v2.464l-2.385 1.44-2.385-1.445v-6.011l-.467-.27.466.268 2.386-1.442 1.14.68zm1.081-.653L44.963 26.5l-3.46 2.091-.004-.002v7.253l3.465 2.096h.001l3.463-2.096v-3.675l-.353.196.362-.201-1.253-.765v-3.6zm-2.132 3.56l.6.364-.6.362v-.727z"/>
            <path d="M38.164 39.072a8.449 8.449 0 0 1-.913-.965h-.004a8.829 8.829 0 0 1-.474-.642h.005a9.261 9.261 0 0 1-.719-1.286h-.004a9.558 9.558 0 0 1-.27-.643h.007a9.796 9.796 0 0 1-.305-.964h-.005a10.197 10.197 0 0 1-.145-.643h.005c-.06-.316-.106-.637-.137-.964H35.2c-.02-.213-.032-.427-.038-.643h.005a10.47 10.47 0 0 1 .014-.965h-.004c.013-.216.032-.43.059-.642h.005c.041-.328.098-.65.169-.965h-.007c.049-.218.107-.431.17-.643h.004c.098-.33.213-.652.342-.964h-.005c.09-.219.19-.433.297-.642h.004c.23-.456.495-.886.789-1.286h-.005c.165-.224.338-.439.521-.643h.005a8.259 8.259 0 0 1 1.019-.965h-.004c.3-.238.615-.453.943-.642h.003a7.058 7.058 0 0 1 3.55-.965c.327 0 .649.025.965.07-3.894.543-6.91 4.333-6.91 8.93 0 4.597 3.016 8.387 6.91 8.93-.316.045-.638.07-.964.07-1.485 0-2.873-.47-4.058-1.285h-.006a7.928 7.928 0 0 1-.811-.643h.003zm-2.959-6.107h1.924a9.815 9.815 0 0 1-.04-.643h-1.923c.006.216.02.43.04.643zm.035-2.25c-.026.212-.046.426-.06.642h1.924c.014-.216.032-.43.058-.642H35.24zm.247 3.857h1.923a9.88 9.88 0 0 1-.144-.643h-1.924c.042.217.09.432.145.643zm.305.964c.082.219.171.433.267.643h1.925a9.256 9.256 0 0 1-.269-.643h-1.923zm-.383-5.786h1.924c.048-.217.103-.432.165-.643h-1.922c-.062.211-.118.426-.167.643zm.805-2.25c-.106.21-.205.424-.296.643h1.924c.092-.219.19-.433.296-.642h-1.924zm.789-1.285h1.925c.165-.224.339-.439.522-.643h-1.926a8.714 8.714 0 0 0-.521.643zm2.482-2.25c-.328.19-.643.404-.942.642h1.927c.3-.238.616-.452.945-.642h-1.93zm-2.234 14.142h1.927a8.848 8.848 0 0 1-.475-.642h-1.925c.15.222.307.437.473.642zm.913.965c.259.233.53.448.814.643h1.928a7.95 7.95 0 0 1-.817-.643h-1.925z"/>
        </g>
        <path fill-rule="nonzero" stroke="#FFF" stroke-linecap="round" d="M45.372 40.218c-3.255 2.91-11.932 5.284-21.643 5.284C11.176 45.502 1 42.045 1 37.78c0-1.417 1.123-2.744 3.082-3.885C2.122 32.804 1 31.535 1 30.18c0-1.32 1.066-2.56 2.935-3.632C2.066 25.475 1 24.236 1 22.915c0-1.32 1.066-2.56 2.935-3.632C2.066 18.21 1 16.97 1 15.65c0-1.32 1.066-2.56 2.935-3.632C2.066 10.945 1 9.706 1 8.386 1 4.306 11.176 1 23.729 1c12.553 0 22.73 3.307 22.73 7.386 0 1.32-1.067 2.56-2.935 3.632 1.868 1.073 2.934 2.312 2.934 3.632 0 1.32-1.066 2.56-2.934 3.633 1.868 1.072 2.934 2.312 2.934 3.632 0 .228-.032.453-.093.675"/>
    </g>
</svg>
