<svg xmlns="http://www.w3.org/2000/svg" width="92" height="29" viewBox="0 0 92 29">
    <g fill="none" fill-rule="evenodd">
        <path stroke="#FFF" stroke-width="1.2" d="M1.96 1h22.187c.53 0 .96.43.96.96v25.374c0 .53-.43.96-.96.96H1.96a.96.96 0 0 1-.96-.96V1.96c0-.53.43-.96.96-.96z"/>
        <g fill-rule="nonzero" transform="translate(5.34 6.402)">
            <ellipse cx="8.037" cy="7.709" stroke="#FFF" rx="7.716" ry="7.709"/>
            <path fill="#FFF" d="M8.946 7.71l2.274-2.272a.641.641 0 1 0-.91-.909L8.038 6.801 5.764 4.529a.643.643 0 0 0-.91.909l2.274 2.271-2.274 2.272a.641.641 0 1 0 .91.909l2.273-2.272 2.274 2.272a.641.641 0 0 0 .909 0 .641.641 0 0 0 0-.909L8.946 7.71z"/>
        </g>
        <path stroke="#FFF" stroke-width="1.2" d="M34.96 1h22.187c.53 0 .96.43.96.96v25.374c0 .53-.43.96-.96.96H34.96a.96.96 0 0 1-.96-.96V1.96c0-.53.43-.96.96-.96z"/>
        <g fill-rule="nonzero" transform="translate(38.34 6.402)">
            <ellipse cx="7.635" cy="7.709" stroke="#FFF" rx="7.635" ry="7.709"/>
            <path fill="#FFF" d="M6.726 10.921a.63.63 0 0 1-.382-.128L3.436 8.59a.646.646 0 0 1-.127-.899.632.632 0 0 1 .89-.128l2.432 1.84 3.976-4.681c.228-.27.63-.301.897-.07.266.23.298.636.069.906l-4.363 5.14a.633.633 0 0 1-.484.223z"/>
        </g>
        <g>
            <path stroke="#FFF" stroke-width="1.2" d="M67.96 1h22.187c.53 0 .96.43.96.96v25.374c0 .53-.43.96-.96.96H67.96a.96.96 0 0 1-.96-.96V1.96c0-.53.43-.96.96-.96z"/>
            <g fill-rule="nonzero" transform="translate(71.34 6.402)">
                <ellipse cx="7.635" cy="7.709" stroke="#FFF" rx="7.635" ry="7.709"/>
                <path fill="#FFF" d="M6.726 10.921a.63.63 0 0 1-.382-.128L3.436 8.59a.646.646 0 0 1-.127-.899.632.632 0 0 1 .89-.128l2.432 1.84 3.976-4.681c.228-.27.63-.301.897-.07.266.23.298.636.069.906l-4.363 5.14a.633.633 0 0 1-.484.223z"/>
            </g>
        </g>
    </g>
</svg>
