<svg xmlns="http://www.w3.org/2000/svg" width="53" height="47" viewBox="0 0 53 47">
    <g fill="none" fill-rule="evenodd">
        <g fill="#FFF">
            <path d="M43.8 33.322c-1.323 0-2.4 1.11-2.4 2.472 0 .676.273 1.33.749 1.795v2.231c0 .938.74 1.7 1.651 1.7.91 0 1.651-.762 1.651-1.7V37.59a2.519 2.519 0 0 0 .749-1.795c0-1.363-1.077-2.472-2.4-2.472zm.85 3.4c-.23.222-.361.533-.361.853v2.245c0 .278-.22.504-.489.504a.497.497 0 0 1-.489-.504v-2.245c0-.32-.131-.63-.36-.853a1.282 1.282 0 0 1-.389-.928c0-.703.556-1.275 1.238-1.275.683 0 1.238.572 1.238 1.275 0 .355-.138.685-.389.928z"/>
            <path fill-rule="nonzero" d="M50.853 30.166H39.66v-4.738c0-2.336 1.857-4.236 4.14-4.236 2.283 0 4.14 1.9 4.14 4.236v5.345c0 .329.261.596.583.596a.59.59 0 0 0 .582-.596v-5.345c0-2.993-2.38-5.428-5.305-5.428s-5.305 2.435-5.305 5.428v4.738h-1.748c-.963 0-1.747.802-1.747 1.788v11.058c0 .986.784 1.788 1.747 1.788h14.106c.963 0 1.747-.802 1.747-1.788V31.954c0-.986-.784-1.788-1.747-1.788zm0 13.442H36.747a.59.59 0 0 1-.582-.596V31.954a.59.59 0 0 1 .582-.596h14.106a.59.59 0 0 1 .582.596v11.058a.59.59 0 0 1-.582.596z"/>
        </g>
        <g stroke="#FFF" stroke-linecap="round">
            <path d="M7 12c4.842 1.251 10.337 1.876 16.484 1.876C32.704 13.876 40.34 12 40.34 12M7 19.5c4.842 1.251 10.337 1.876 16.484 1.876 9.22 0 16.856-1.876 16.856-1.876M7 27.5c4.842 1.251 10.337 1.876 16.484 1.876 3.89 0 7.498-.334 10.37-.72M7 34.5c4.842 1.251 10.337 1.876 16.484 1.876 3.765 0 7.017-.295 9.595-.651"/>
            <path fill-rule="nonzero" d="M36.427 44.085c-3.682.878-8.073 1.417-12.698 1.417C11.176 45.502 1 42.045 1 37.78c0-1.417 1.123-2.744 3.082-3.885C2.122 32.804 1 31.535 1 30.18c0-1.32 1.066-2.56 2.935-3.632C2.066 25.475 1 24.236 1 22.915c0-1.32 1.066-2.56 2.935-3.632C2.066 18.21 1 16.97 1 15.65c0-1.32 1.066-2.56 2.935-3.632C2.066 10.945 1 9.706 1 8.386 1 4.306 11.176 1 23.729 1c12.553 0 22.73 3.307 22.73 7.386 0 1.32-1.067 2.56-2.935 3.632 1.868 1.073 2.934 2.312 2.934 3.632 0 1.32-1.066 2.56-2.934 3.633.595.342 1.109.7 1.533 1.073"/>
        </g>
    </g>
</svg>
