<svg xmlns="http://www.w3.org/2000/svg" width="50" height="49" viewBox="0 0 50 49">
    <g fill="#FFF" fill-rule="nonzero">
        <path d="M49.23 19.466h-1.206v-6.002c-.004-2.92-2.358-5.288-5.264-5.291H40.1L32.188.218a.684.684 0 0 0-.971 0l-3.36 3.377-3.123-3.14a.684.684 0 0 0-.971 0l-7.678 7.718h-5.361c-2.906.003-5.26 2.37-5.263 5.291v13.695a49.156 49.156 0 0 1-4.979 2.498l-.068.03A.69.69 0 0 0 0 30.32v6.006c0 3.885 1.847 7.298 5.34 9.869a18.794 18.794 0 0 0 5.273 2.71.682.682 0 0 0 .379.002 19.691 19.691 0 0 0 5.448-2.706c1.654-1.176 2.95-2.528 3.872-4.022H42.76c2.906-.004 5.26-2.371 5.264-5.292v-6.002h1.207c.379 0 .686-.31.686-.69V20.156a.688.688 0 0 0-.686-.69zM31.703 1.682l6.457 6.49H32.41l-3.583-3.601 2.874-2.889zm-7.454.236l6.222 6.255H18.027l6.221-6.255zm-6.44 41.29c-1.204 1.074-1.914 1.689-2.13 1.843a18.951 18.951 0 0 1-4.869 2.468 18.033 18.033 0 0 1-4.69-2.463c-.19-.14-.844-.74-1.961-1.797v.055c-1.85-1.997-2.785-4.338-2.785-6.988v-5.553c3.397-1.5 6.62-3.37 9.611-5.577a50.618 50.618 0 0 0 9.611 5.577v5.553c0 1.734-.93 4.029-2.788 6.882zm28.843-6.321c-.003 2.159-1.743 3.908-3.89 3.91H21.038a11.01 11.01 0 0 0 .929-4.471V30.32a.69.69 0 0 0-.415-.634l-.068-.029a49.251 49.251 0 0 1-10.089-5.873.684.684 0 0 0-.824 0 48.867 48.867 0 0 1-3.739 2.556V13.464c.003-2.16 1.743-3.909 3.89-3.911h5.91l.01.01.01-.01h15.19l.01.01.01-.01H42.76c2.148.002 3.888 1.752 3.89 3.91v6.003h-7.634c-3.126.014-5.653 2.566-5.653 5.71 0 3.142 2.527 5.694 5.653 5.709h7.635v6.002zm1.893-7.383h-9.528c-2.37-.012-4.284-1.946-4.284-4.329 0-2.382 1.915-4.317 4.284-4.329h9.528v8.658z"/>
        <path d="M36.645 25.176a2.565 2.565 0 0 0 2.56 2.572 2.565 2.565 0 0 0 2.557-2.573 2.565 2.565 0 0 0-2.559-2.572 2.568 2.568 0 0 0-2.558 2.573zm2.558-1.193c.655 0 1.186.534 1.186 1.192 0 .658-.53 1.192-1.185 1.192a1.189 1.189 0 0 1-1.186-1.191c0-.658.53-1.192 1.185-1.193zM14.685 34.717a.692.692 0 0 0 0-.976.684.684 0 0 0-.971 0L10.1 37.374l-1.846-1.856a.684.684 0 0 0-.963.009.693.693 0 0 0-.008.967l2.332 2.343c.269.27.703.27.971 0l4.099-4.12z"/>
    </g>
</svg>
