<svg xmlns="http://www.w3.org/2000/svg" width="103" height="78" viewBox="0 0 103 78">
    <defs>
        <linearGradient id="a" x1="79.74%" x2="21.86%" y1="32.755%" y2="67.165%">
            <stop offset="0%" stop-color="#DBE4F4"/>
            <stop offset="100%" stop-color="#ACC0E3"/>
        </linearGradient>
        <linearGradient id="b" x1="76.532%" x2="29.849%" y1="11.962%" y2="74.559%">
            <stop offset="0%" stop-color="#DA4141"/>
            <stop offset="100%" stop-color="#ED6161"/>
        </linearGradient>
        <linearGradient id="c" x1="0%" y1="51.445%" y2="48.555%">
            <stop offset="0%" stop-color="#4A5489"/>
            <stop offset="100%" stop-color="#6673C4"/>
        </linearGradient>
    </defs>
    <g fill="none" fill-rule="nonzero">
        <path fill="url(#a)" d="M0 17.51h103V69.2a8.8 8.8 0 0 1-8.8 8.8H8.8A8.8 8.8 0 0 1 0 69.2V17.51z"/>
        <path fill="url(#b)" d="M51.1 37.727c1.548-3.475 4.965-6.686 9.077-6.686 5.536 0 9.524 4.49 10.025 9.842 0 0 .272 1.33-.324 3.72-.811 3.257-2.716 6.151-5.287 8.359L51.1 64.469 37.61 52.962c-2.57-2.208-4.476-5.102-5.287-8.359-.596-2.39-.324-3.72-.324-3.72.5-5.352 4.487-9.842 10.023-9.842 4.112 0 7.53 3.21 9.077 6.686z"/>
        <path fill="url(#c)" d="M6.4 0h90.2a6.4 6.4 0 0 1 6.4 6.4v11.11H0V6.4A6.4 6.4 0 0 1 6.4 0z"/>
        <ellipse cx="11.178" cy="8.755" fill="#ED7161" rx="4.791" ry="4.776"/>
        <ellipse cx="25.55" cy="8.755" fill="#EFC41A" rx="4.791" ry="4.776"/>
        <ellipse cx="39.922" cy="8.755" fill="#4FBA6E" rx="4.791" ry="4.776"/>
    </g>
</svg>
