<svg xmlns="http://www.w3.org/2000/svg" width="805" height="338" viewBox="0 0 805 338">
    <defs>
        <linearGradient id="a" x1="74.829%" x2="26.506%" y1="0%" y2="99.768%">
            <stop offset="0%" stop-color="#ABBBFF"/>
            <stop offset="100%" stop-color="#6B8BF5"/>
        </linearGradient>
        <linearGradient id="b" x1="79.74%" x2="21.86%" y1="31.728%" y2="68.187%">
            <stop offset="0%" stop-color="#CCD2FF"/>
            <stop offset="100%" stop-color="#6B8BF5"/>
        </linearGradient>
        <linearGradient id="c" x1="50%" x2="35.264%" y1="-13.458%" y2="120.856%">
            <stop offset="0%" stop-color="#F7F8FF"/>
            <stop offset="100%" stop-color="#6B8BF5"/>
        </linearGradient>
        <linearGradient id="d" x1="70.187%" x2="30.899%" y1="0%" y2="99.768%">
            <stop offset="0%" stop-color="#CCD2FF"/>
            <stop offset="100%" stop-color="#6B8BF5"/>
        </linearGradient>
        <linearGradient id="e" x1="50%" x2="35.384%" y1="-13.458%" y2="120.856%">
            <stop offset="0%" stop-color="#F7F8FF"/>
            <stop offset="100%" stop-color="#6B8BF5"/>
        </linearGradient>
    </defs>
    <g fill="none" fill-rule="evenodd" transform="translate(0 -308)">
        <path stroke="#ABBBFF" stroke-dasharray="6,6" stroke-linecap="round" stroke-width="2" d="M762.09 365.381H30.767"/>
        <path fill="#EAEEFF" stroke="#ABBBFF" stroke-dasharray="5,5" stroke-linecap="round" stroke-width="2" d="M161.315 395.01v55.7h57.162v-55.7h-57.162z"/>
        <path fill="url(#a)" d="M174.331 404.52h31.098c.735 0 1.331.596 1.331 1.332v34.285c0 .736-.596 1.332-1.33 1.332H174.33a1.331 1.331 0 0 1-1.331-1.332v-34.285c0-.736.596-1.332 1.331-1.332z"/>
        <g fill="#FFF">
            <path d="M178.937 423.202h22.061a.519.519 0 1 1 0 1.038h-22.06a.519.519 0 1 1 0-1.038zM178.937 427.462h22.061a.519.519 0 1 1 0 1.038h-22.06a.519.519 0 0 1 0-1.038zM178.937 431.613h22.061a.519.519 0 1 1 0 1.038h-22.06a.519.519 0 1 1 0-1.038zM178.937 436.18h22.061a.519.519 0 1 1 0 1.038h-22.06a.519.519 0 1 1 0-1.038z"/>
        </g>
        <path fill="#FFF" d="M179.27 408.672h21.395c.47 0 .852.381.852.852v9.763c0 .47-.382.852-.852.852H179.27a.852.852 0 0 1-.852-.852v-9.763c0-.47.382-.852.852-.852z"/>
        <path fill="#8D94BF" fill-rule="nonzero" stroke="#8D94BF" stroke-width=".5" d="M182.586 412.408h1.4c.284 0 .532.033.746.1.213.066.398.155.555.267.157.111.288.24.391.384.104.144.187.293.247.445a2.482 2.482 0 0 1 .17.88c0 .266-.047.523-.142.771-.094.248-.234.47-.42.663a2.062 2.062 0 0 1-.688.466c-.274.117-.59.176-.95.176h-1.309v-4.152zm.544 3.624h.686c.23 0 .45-.032.655-.097.206-.064.386-.161.541-.29.155-.13.278-.29.369-.484.09-.193.136-.42.136-.677 0-.133-.02-.288-.062-.466a1.417 1.417 0 0 0-.236-.507 1.406 1.406 0 0 0-.479-.408c-.204-.111-.468-.167-.793-.167h-.817v3.096zm5.006-3.624h.493l1.717 4.152h-.634l-.403-1.026h-1.91l-.397 1.026h-.635l1.769-4.152zm.975 2.633l-.749-1.906h-.01l-.76 1.906h1.519zm2.596-2.105h-1.292v-.528h3.129v.528h-1.293v3.624h-.544v-3.624zm3.673-.528h.493l1.718 4.152h-.635l-.402-1.026h-1.91l-.398 1.026h-.634l1.768-4.152zm.975 2.633l-.748-1.906h-.011l-.76 1.906h1.52z"/>
        <path fill="#EAEEFF" stroke="#ABBBFF" stroke-dasharray="5,5" stroke-linecap="round" stroke-width="2" d="M598.315 395.01v55.7h57.162v-55.7h-57.162z"/>
        <path fill="url(#a)" d="M1.331 0H32.43c.735 0 1.331.596 1.331 1.331v34.286c0 .735-.596 1.331-1.33 1.331H1.33A1.331 1.331 0 0 1 0 35.617V1.33C0 .596.596 0 1.331 0z" transform="translate(610 404)"/>
        <g fill-rule="nonzero" transform="translate(621 408)">
            <circle cx="6" cy="6" r="6" fill="#3ABCA7"/>
            <path fill="#FFF" d="M5.285 8.5a.498.498 0 0 1-.3-.1L2.7 6.685a.5.5 0 1 1 .6-.8L5.211 7.32l3.124-3.644a.5.5 0 1 1 .759.65l-3.429 4a.5.5 0 0 1-.38.175z"/>
        </g>
        <path fill="#FFF" d="M615.852 424h21.395c.47 0 .852.381.852.852v9.763c0 .47-.382.852-.852.852h-21.395a.852.852 0 0 1-.852-.852v-9.763c0-.47.381-.852.852-.852z"/>
        <path fill="#8D94BF" fill-rule="nonzero" stroke="#8D94BF" stroke-width=".25" d="M616 428h.87l1.158 3.21 1.194-3.21h.816l-1.716 4.248h-.654L616 428zm4.494 0h2.814v.684h-2.058v1.044h1.95v.684h-1.95v1.152h2.166v.684h-2.922V428zm3.666 0h1.476c.204 0 .401.019.591.057.19.038.359.103.507.195.148.092.266.216.354.372.088.156.132.354.132.594 0 .308-.085.566-.255.774-.17.208-.413.334-.729.378l1.128 1.878h-.912l-.984-1.8h-.552v1.8h-.756V428zm1.344 1.8c.108 0 .216-.005.324-.015a.995.995 0 0 0 .297-.072.507.507 0 0 0 .219-.174.553.553 0 0 0 .084-.327.522.522 0 0 0-.078-.3.485.485 0 0 0-.204-.171.94.94 0 0 0-.279-.075 2.542 2.542 0 0 0-.297-.018h-.654v1.152h.588zm2.418-1.8h.756v4.248h-.756V428zm1.686 0h2.742v.684h-1.986v1.116h1.872v.684h-1.872v1.764h-.756V428zm4.482 2.43l-1.596-2.43h.948l1.044 1.692 1.056-1.692h.9l-1.596 2.43v1.818h-.756v-1.818z"/>
        <path stroke="#ABBBFF" stroke-dasharray="6,6" stroke-linecap="round" stroke-width="2" d="M412.762 393.187v156.03"/>
        <path fill="#FFCA55" d="M411.64 469.84l-8.742 14.709a1 1 0 0 0 .86 1.51h17.484a1 1 0 0 0 .86-1.51l-8.742-14.708a1 1 0 0 0-1.72 0z"/>
        <g transform="translate(0 324)">
            <rect width="96" height="82" fill="#FFF" rx="5"/>
            <path fill="url(#b)" d="M54.549 23.03c-2.31-2.36-3.787-5.962-3.787-9.997 0-7.114 1.507-12.88 10.25-12.88s10.25 5.766 10.25 12.88c0 3.943-1.41 7.472-3.631 9.835 11.643 2.227 13.182 5.804 13.371 17.956.012.788.019.924.022.854v.957s-2.875 5.907-19.524 5.907c-16.648 0-19.522-5.907-19.522-5.907 0-.687-.001-1.08-.002-1.294.003.114.012.062.03-.917.212-11.544 1.77-15.178 12.543-17.393zm-41 0c-2.31-2.36-3.787-5.962-3.787-9.997 0-7.114 1.507-12.88 10.25-12.88s10.25 5.766 10.25 12.88c0 3.943-1.41 7.472-3.631 9.835 11.643 2.227 13.182 5.804 13.371 17.956.012.788.019.924.022.854v.957s-2.875 5.907-19.524 5.907C3.852 48.542.978 42.635.978 42.635c0-.687-.001-1.08-.002-1.294.003.114.012.062.03-.917.212-11.544 1.77-15.178 12.543-17.393z" transform="translate(7 13)"/>
            <path fill="#000" fill-rule="nonzero" d="M7.977 54.71c-.002-.407-.003-.114 0 0zM47.022 54.79c.006-.11.002-.772 0 0z"/>
            <g fill="#000" fill-rule="nonzero">
                <path d="M48.977 54.71c-.002-.407-.003-.114 0 0zM88.022 54.79c.006-.11.002-.772 0 0z"/>
            </g>
            <g>
                <path fill="url(#c)" d="M13.549 23.03c-2.31-2.36-3.787-5.962-3.787-9.997 0-7.114 1.507-12.88 10.25-12.88s10.25 5.766 10.25 12.88c0 3.943-1.41 7.472-3.631 9.835 11.643 2.227 13.182 5.804 13.371 17.956.012.788.019.924.022.854v.957s-2.875 5.907-19.524 5.907C3.852 48.542.978 42.635.978 42.635c0-.687-.001-1.08-.002-1.294.003.114.012.062.03-.917.212-11.544 1.77-15.178 12.543-17.393z" transform="translate(27.5 20.25)"/>
                <path fill="#000" fill-rule="nonzero" d="M28.477 61.96c-.002-.407-.003-.114 0 0zM67.522 62.04c.006-.11.002-.772 0 0z"/>
            </g>
        </g>
        <g transform="translate(287 318)">
            <rect width="248" height="94" fill="#FFF" rx="5"/>
            <path fill="#F8C3BD" d="M13.56 9h59.88A2.56 2.56 0 0 1 76 11.56v70.88A2.56 2.56 0 0 1 73.44 85H13.56A2.56 2.56 0 0 1 11 82.44V11.56A2.56 2.56 0 0 1 13.56 9z"/>
            <g fill="#FFF">
                <path d="M21.997 50h42.478a.997.997 0 0 1 0 1.994H21.997a.997.997 0 0 1 0-1.994zM21.997 58.185h42.478a.997.997 0 1 1 0 1.994H21.997a.997.997 0 1 1 0-1.994zM21.997 66.163h42.478a.997.997 0 0 1 0 1.994H21.997a.997.997 0 1 1 0-1.994zM21.997 74.938h42.478a.997.997 0 0 1 0 1.994H21.997a.997.997 0 1 1 0-1.994z"/>
            </g>
            <g fill-rule="nonzero" transform="translate(31 18)">
                <circle cx="12.5" cy="12" r="12" fill="#ED7161"/>
                <path fill="#FFF" d="M13.914 12l3.536-3.536a.999.999 0 1 0-1.414-1.414L12.5 10.586 8.964 7.05A.999.999 0 1 0 7.55 8.464L11.086 12 7.55 15.536a.999.999 0 1 0 1.414 1.414l3.536-3.536 3.536 3.536a.997.997 0 0 0 1.414 0 .999.999 0 0 0 0-1.414L13.914 12z"/>
            </g>
            <g>
                <path fill="#B5E8DF" d="M94.56 9h59.88a2.56 2.56 0 0 1 2.56 2.56v70.88a2.56 2.56 0 0 1-2.56 2.56H94.56A2.56 2.56 0 0 1 92 82.44V11.56A2.56 2.56 0 0 1 94.56 9z"/>
                <g fill="#FFF">
                    <path d="M102.997 50h42.478a.997.997 0 0 1 0 1.994h-42.478a.997.997 0 0 1 0-1.994zM102.997 58.185h42.478a.997.997 0 1 1 0 1.994h-42.478a.997.997 0 1 1 0-1.994zM102.997 66.163h42.478a.997.997 0 0 1 0 1.994h-42.478a.997.997 0 1 1 0-1.994zM102.997 74.938h42.478a.997.997 0 0 1 0 1.994h-42.478a.997.997 0 1 1 0-1.994z"/>
                </g>
                <g fill-rule="nonzero" transform="translate(113 18)">
                    <circle cx="12" cy="12" r="12" fill="#3ABCA7"/>
                    <path fill="#FFF" d="M10.571 17a.997.997 0 0 1-.6-.2L5.4 13.37a.999.999 0 1 1 1.2-1.599l3.822 2.866L16.67 7.35a.999.999 0 1 1 1.518 1.301l-6.857 8a1 1 0 0 1-.76.35z"/>
                </g>
            </g>
            <g>
                <path fill="#B5E8DF" d="M175.56 9h59.88a2.56 2.56 0 0 1 2.56 2.56v70.88a2.56 2.56 0 0 1-2.56 2.56h-59.88a2.56 2.56 0 0 1-2.56-2.56V11.56A2.56 2.56 0 0 1 175.56 9z"/>
                <g fill="#FFF">
                    <path d="M183.997 50h42.478a.997.997 0 0 1 0 1.994h-42.478a.997.997 0 0 1 0-1.994zM183.997 58.185h42.478a.997.997 0 1 1 0 1.994h-42.478a.997.997 0 1 1 0-1.994zM183.997 66.163h42.478a.997.997 0 0 1 0 1.994h-42.478a.997.997 0 1 1 0-1.994zM183.997 74.938h42.478a.997.997 0 0 1 0 1.994h-42.478a.997.997 0 1 1 0-1.994z"/>
                </g>
                <g fill-rule="nonzero" transform="translate(194 18)">
                    <circle cx="12" cy="12" r="12" fill="#3ABCA7"/>
                    <path fill="#FFF" d="M10.571 17a.997.997 0 0 1-.6-.2L5.4 13.37a.999.999 0 1 1 1.2-1.599l3.822 2.866L16.67 7.35a.999.999 0 1 1 1.518 1.301l-6.857 8a1 1 0 0 1-.76.35z"/>
                </g>
            </g>
        </g>
        <rect width="104" height="115" x="701" y="308" fill="#FFF" rx="5"/>
        <path fill="url(#d)" d="M715.88 317.339h74.24a2.88 2.88 0 0 1 2.88 2.88v91.34a2.88 2.88 0 0 1-2.88 2.88h-74.24a2.88 2.88 0 0 1-2.88-2.88v-91.34a2.88 2.88 0 0 1 2.88-2.88z"/>
        <path fill="#FFF" d="M739.292 381.376h43.074a1.124 1.124 0 1 1 0 2.248h-43.074a1.124 1.124 0 1 1 0-2.248z"/>
        <g fill-rule="nonzero" transform="translate(722.888 376.88)">
            <ellipse cx="5.393" cy="5.394" fill="#FFF" rx="5.393" ry="5.394"/>
            <path fill="#8D94BF" stroke="#8D94BF" stroke-width=".5" d="M4.751 7.642a.448.448 0 0 1-.27-.09L2.427 6.011a.45.45 0 1 1 .54-.72l1.717 1.29 2.808-3.277a.449.449 0 1 1 .682.585L5.093 7.485a.449.449 0 0 1-.342.157z"/>
        </g>
        <path fill="#FFF" d="M739.292 364.091h43.074a1.124 1.124 0 1 1 0 2.248h-43.074a1.124 1.124 0 1 1 0-2.248z"/>
        <g fill-rule="nonzero" transform="translate(722.888 359.596)">
            <ellipse cx="5.393" cy="5.394" fill="#FFF" rx="5.393" ry="5.394"/>
            <path fill="#8D94BF" stroke="#8D94BF" stroke-width=".5" d="M4.751 7.642a.448.448 0 0 1-.27-.09L2.427 6.011a.45.45 0 1 1 .54-.72l1.717 1.29 2.808-3.277a.449.449 0 1 1 .682.585L5.093 7.485a.449.449 0 0 1-.342.157z"/>
        </g>
        <path fill="#FFF" d="M739.292 398.458h43.074a1.124 1.124 0 1 1 0 2.248h-43.074a1.124 1.124 0 1 1 0-2.248z"/>
        <g fill-rule="nonzero" transform="translate(722.888 393.963)">
            <ellipse cx="5.393" cy="5.394" fill="#FFF" rx="5.393" ry="5.394"/>
            <path fill="#8D94BF" stroke="#8D94BF" stroke-width=".5" d="M4.751 7.642a.448.448 0 0 1-.27-.09L2.427 6.011a.45.45 0 1 1 .54-.72l1.717 1.29 2.808-3.277a.449.449 0 1 1 .682.585L5.093 7.485a.449.449 0 0 1-.342.157z"/>
        </g>
        <g>
            <path fill="#FFF" d="M725.602 325.6h57.444c.706 0 1.278.572 1.278 1.278v23.444c0 .706-.572 1.278-1.278 1.278h-57.444a1.278 1.278 0 0 1-1.278-1.278v-23.444c0-.706.572-1.278 1.278-1.278z"/>
            <path fill="#8D94BF" fill-rule="nonzero" stroke="#8D94BF" stroke-width=".75" d="M743.324 335.6h2.1c.425 0 .798.05 1.118.15.32.1.598.233.834.4.235.167.43.359.586.576.156.217.28.44.37.668a3.723 3.723 0 0 1 .255 1.32c0 .398-.07.784-.212 1.156a2.933 2.933 0 0 1-.63.994c-.277.29-.622.523-1.033.7-.41.175-.885.263-1.424.263h-1.964V335.6zm.816 5.436h1.029c.346 0 .673-.049.982-.146.309-.096.58-.241.812-.435.233-.193.417-.435.553-.726a2.37 2.37 0 0 0 .204-1.015c0-.2-.031-.433-.094-.7a2.125 2.125 0 0 0-.353-.76 2.11 2.11 0 0 0-.718-.612c-.306-.167-.703-.25-1.19-.25h-1.225v4.644zm7.508-5.436h.74l2.576 6.227h-.952l-.604-1.539h-2.865l-.595 1.54h-.953l2.653-6.228zm1.463 3.95l-1.123-2.86h-.017l-1.14 2.86h2.28zm3.894-3.158h-1.939v-.792h4.694v.792h-1.939v5.435h-.816v-5.435zm5.51-.792h.74l2.576 6.227h-.953l-.603-1.539h-2.866l-.595 1.54h-.952l2.653-6.228zm1.462 3.95l-1.122-2.86h-.017l-1.14 2.86h2.28z"/>
        </g>
        <path fill="#FFCA55" d="M199.886 364.973l-14.708-8.742a1 1 0 0 0-1.51.86v17.484a1 1 0 0 0 1.51.86l14.708-8.743a1 1 0 0 0 0-1.72zM634.219 364.371l-14.708-8.742a1 1 0 0 0-1.511.86v17.484a1 1 0 0 0 1.511.86l14.708-8.742a1 1 0 0 0 0-1.72z"/>
        <rect width="243" height="110" x="289" y="536" fill="#FFF" rx="5"/>
        <g transform="translate(302 535)">
            <rect width="53" height="53" rx="3"/>
            <g fill-rule="nonzero" transform="translate(12.114 12.114)">
                <ellipse cx="15.143" cy="14.386" fill="#ED7161" rx="14.537" ry="14.386"/>
                <path fill="#FFF" d="M16.856 14.386l4.283-4.24a1.189 1.189 0 0 0 0-1.694 1.22 1.22 0 0 0-1.713 0l-4.283 4.239-4.284-4.24a1.22 1.22 0 0 0-1.713 0 1.189 1.189 0 0 0 0 1.696l4.284 4.239-4.284 4.239a1.189 1.189 0 0 0 0 1.695c.237.234.547.351.857.351.31 0 .62-.117.856-.351l4.284-4.24 4.283 4.24c.237.234.547.351.857.351.31 0 .62-.117.856-.351a1.189 1.189 0 0 0 0-1.695l-4.283-4.24z"/>
            </g>
        </g>
        <g transform="translate(467 535)">
            <rect width="53" height="53" rx="3"/>
            <g fill-rule="nonzero" transform="translate(12.114 12.114)">
                <circle cx="14.386" cy="14.386" r="14.386" fill="#3ABCA7"/>
                <path fill="#FFF" d="M12.673 20.38c-.251 0-.504-.079-.72-.24l-5.48-4.111a1.198 1.198 0 1 1 1.44-1.917l4.58 3.435 7.491-8.736a1.197 1.197 0 1 1 1.82 1.56l-8.22 9.59a1.198 1.198 0 0 1-.911.418z"/>
            </g>
        </g>
        <g transform="translate(385 535)">
            <rect width="53" height="53" rx="3"/>
            <g fill-rule="nonzero" transform="translate(12.114 12.114)">
                <circle cx="14.386" cy="14.386" r="14.386" fill="#3ABCA7"/>
                <path fill="#FFF" d="M12.673 20.38c-.251 0-.504-.079-.72-.24l-5.48-4.111a1.198 1.198 0 1 1 1.44-1.917l4.58 3.435 7.491-8.736a1.197 1.197 0 1 1 1.82 1.56l-8.22 9.59a1.198 1.198 0 0 1-.911.418z"/>
            </g>
        </g>
        <g>
            <path fill="url(#e)" d="M14.87 25.381c-2.535-2.603-4.156-6.572-4.156-11.018 0-7.84 1.654-14.195 11.25-14.195 9.597 0 11.25 6.355 11.25 14.195 0 4.345-1.547 8.235-3.985 10.839 12.78 2.454 14.468 6.396 14.676 19.788.013.868.02 1.018.024.94l-.001 1.056s-3.155 6.509-21.428 6.509c-18.272 0-21.427-6.51-21.427-6.51 0-.756 0-1.19-.002-1.425.004.125.013.068.033-1.01.232-12.723 1.944-16.728 13.767-19.169z" transform="translate(306 584)"/>
            <path fill="#000" fill-rule="nonzero" d="M307.073 629.967c-.002-.449-.004-.127 0 0zM349.927 630.055c.006-.123.002-.852 0 0z"/>
        </g>
        <g>
            <path fill="url(#e)" d="M14.87 25.381c-2.535-2.603-4.156-6.572-4.156-11.018 0-7.84 1.654-14.195 11.25-14.195 9.597 0 11.25 6.355 11.25 14.195 0 4.345-1.547 8.235-3.985 10.839 12.78 2.454 14.468 6.396 14.676 19.788.013.868.02 1.018.024.94l-.001 1.056s-3.155 6.509-21.428 6.509c-18.272 0-21.427-6.51-21.427-6.51 0-.756 0-1.19-.002-1.425.004.125.013.068.033-1.01.232-12.723 1.944-16.728 13.767-19.169z" transform="translate(388 584)"/>
            <path fill="#000" fill-rule="nonzero" d="M389.073 629.967c-.002-.449-.004-.127 0 0zM431.927 630.055c.006-.123.002-.852 0 0z"/>
        </g>
        <g>
            <path fill="url(#e)" d="M14.87 25.381c-2.535-2.603-4.156-6.572-4.156-11.018 0-7.84 1.654-14.195 11.25-14.195 9.597 0 11.25 6.355 11.25 14.195 0 4.345-1.547 8.235-3.985 10.839 12.78 2.454 14.468 6.396 14.676 19.788.013.868.02 1.018.024.94l-.001 1.056s-3.155 6.509-21.428 6.509c-18.272 0-21.427-6.51-21.427-6.51 0-.756 0-1.19-.002-1.425.004.125.013.068.033-1.01.232-12.723 1.944-16.728 13.767-19.169z" transform="translate(471 584)"/>
            <path fill="#000" fill-rule="nonzero" d="M472.073 629.967c-.002-.449-.004-.127 0 0zM514.927 630.055c.006-.123.002-.852 0 0z"/>
        </g>
    </g>
</svg>
