<svg xmlns="http://www.w3.org/2000/svg" width="29" height="25" viewBox="0 0 29 25">
    <g fill="none" fill-rule="evenodd">
        <path fill="#4E3CA9" d="M26.713.152c.991-.398 2.016.494 1.798 1.565l-4.446 21.849c-.208 1.024-1.378 1.486-2.199.866l-6.713-5.065-3.421 3.591c-.601.63-1.638.374-1.896-.466l-2.468-8.056L.75 12.427c-.869-.264-.919-1.507-.076-1.846L26.713.151zM23.449 5c.29-.263-.047-.728-.376-.518L8.791 13.587a.676.676 0 0 0-.278.766l1.948 8.793c.038.134.226.115.242-.024l.436-6.7a.671.671 0 0 1 .214-.428L23.45 5z"/>
        <path fill="#4E3CA9" d="M23.073 4.482c.329-.21.665.255.376.518L11.354 15.994a.67.67 0 0 0-.215.428l-.435 6.7c-.017.14-.205.158-.243.024l-1.948-8.793a.676.676 0 0 1 .278-.766l14.282-9.105z"/>
        <path fill="#7C84A6" d="M10.531 23.237a1.134 1.134 0 0 1-.695-.745l-2.468-8.056-6.617-2.01c-.87-.263-.92-1.506-.077-1.845L26.713.151c.64-.256 1.294.025 1.618.545a1.386 1.386 0 0 0-.213-.26L10.452 15.261v.649l-.097-.072.097 4.087v3.278a.706.706 0 0 0 .08.03v.004z"/>
        <path fill="#7C84A6" d="M28.54 1.35c.005.117-.004.24-.029.367l-4.446 21.849c-.208 1.024-1.378 1.486-2.199.866l-6.713-5.065-4.7-3.457v-.65L28.117.437a1.419 1.419 0 0 1 .248.318l.031.06a1.168 1.168 0 0 1 .056.128c.007.019.015.04.021.062a1.347 1.347 0 0 1 .066.346z"/>
        <path fill="#727BAA" d="M15.153 19.367l-3.421 3.591a1.321 1.321 0 0 1-.18.155l-.002.002a1.18 1.18 0 0 1-.198.109c-.035.013-.069.027-.104.036a1.1 1.1 0 0 1-.556.024l-.015-.003a3.322 3.322 0 0 1-.11-.033.146.146 0 0 1-.036-.014l-.079-3.309V15.91l4.701 3.457z"/>
        <path fill="#4E3CA9" d="M11.643 23.043c-.03.026-.06.05-.092.072v-.002c.032-.022.062-.044.092-.07zM11.551 23.113v.002s0-.002-.001 0l.001-.002zM11.352 23.224zM10.806 23.301a1.11 1.11 0 0 0 .02.003c-.007 0-.013 0-.02-.003zM10.925 23.31zM10.806 23.301a.598.598 0 0 1 0 0zM10.806 23.301a.769.769 0 0 1-.08-.01c-.012-.002-.024-.003-.034-.007.037.007.075.014.114.017zM10.566 23.247c.037.013.074.023.11.034l-.044-.011a.055.055 0 0 1-.019-.007.246.246 0 0 1-.047-.016z"/>
        <path fill="#4E3CA9" d="M10.632 23.27l.045.01a.19.19 0 0 1-.045-.01zM10.566 23.247a.246.246 0 0 0 .047.016.45.45 0 0 1-.075-.024c.01.004.018.007.028.008z"/>
        <path fill="#F8F9FF" d="M23.449 5L11.354 15.994a.667.667 0 0 0-.215.428l-.435 6.7c-.016.14-.204.16-.244.025l-1.947-8.794a.676.676 0 0 1 .278-.766l14.282-9.105c.329-.21.665.255.376.518z"/>
        <path fill="#4E3CA9" d="M10.566 23.247c-.01-.001-.018-.004-.028-.008-.002.002-.005 0-.007-.002v-.003c.012.007.023.01.035.013zM10.452 19.925l.08 3.309a.706.706 0 0 1-.08-.03v-3.28zM10.452 15.91v4.015l-.097-4.087z"/>
    </g>
</svg>
