<svg xmlns="http://www.w3.org/2000/svg" width="84" height="83" viewBox="0 0 84 83">
    <defs>
        <linearGradient id="a" x1="60.939%" x2="32.417%" y1="-19.636%" y2="100%">
            <stop offset="0%" stop-color="#74ABF0"/>
            <stop offset="100%" stop-color="#756BF5"/>
        </linearGradient>
        <linearGradient id="b" x1="27.993%" x2="101.599%" y1="78.253%" y2="21.145%">
            <stop offset="0%" stop-color="#434D7A"/>
            <stop offset="100%" stop-color="#707EDA"/>
        </linearGradient>
    </defs>
    <g fill="none" fill-rule="evenodd">
        <path fill="url(#a)" d="M20.467 37.482c-3.761-3.87-6.165-9.77-6.165-16.38C14.302 9.448 16.756 0 30.99 0s16.686 9.448 16.686 21.102c0 6.46-2.295 12.242-5.91 16.113 18.953 3.648 21.458 9.508 21.766 29.417.02 1.29.03 1.514.036 1.399l-.002 1.568s-4.679 9.676-31.781 9.676C4.681 79.275.003 69.6.003 69.6c0-1.126-.002-1.771-.003-2.12.005.186.019.102.048-1.502.345-18.913 2.883-24.866 20.42-28.495z"/>
        <g fill-rule="nonzero">
            <path fill="url(#b)" d="M37.887 30.718c-1.262 3.351-3.172 6.265-5.676 8.66-2.85 2.725-6.582 4.89-11.092 6.436A3.537 3.537 0 0 1 20.04 46H20a3.515 3.515 0 0 1-1.117-.185c-4.516-1.543-8.252-3.707-11.105-6.433-2.505-2.394-4.414-5.306-5.675-8.657C-.189 24.632-.058 17.92.047 12.527l.002-.083c.02-.445.034-.913.042-1.43C.129 8.479 2.189 6.38 4.779 6.24c5.4-.296 9.578-2.02 13.148-5.428l.031-.028A3.043 3.043 0 0 1 20.041 0c.717.01 1.43.27 2.002.783l.03.028c3.57 3.407 7.749 5.132 13.15 5.428 2.59.14 4.649 2.24 4.687 4.776.008.52.021.987.042 1.43l.001.034c.105 5.404.235 12.13-2.066 18.24z" transform="translate(44 37)"/>
            <path fill="#FFF" d="M70.869 56.167h-1.212v-1.654c0-3.191-2.538-5.788-5.657-5.788-3.12 0-5.657 2.597-5.657 5.788v1.654h-1.212a.409.409 0 0 0-.404.413v10.335c0 .912.725 1.654 1.616 1.654h11.314c.89 0 1.616-.742 1.616-1.654V56.58a.409.409 0 0 0-.404-.413zm-5.66 8.635a.42.42 0 0 1-.1.322.4.4 0 0 1-.3.137h-1.617a.4.4 0 0 1-.301-.137.42.42 0 0 1-.1-.322l.254-2.345a1.648 1.648 0 0 1-.661-1.33c0-.912.725-1.653 1.616-1.653.891 0 1.616.741 1.616 1.653 0 .535-.247 1.022-.661 1.33l.255 2.345zm2.023-8.635h-6.464v-1.654c0-1.823 1.45-3.307 3.232-3.307 1.782 0 3.232 1.484 3.232 3.307v1.654z"/>
        </g>
    </g>
</svg>
