<svg xmlns="http://www.w3.org/2000/svg" width="899" height="137" viewBox="0 0 899 137">
    <path fill="#F1F1F1" fill-rule="nonzero" d="M0 4h24.213l16.095 64.124h.285L61.673 4h20.652l20.937 65.82h.285L120.496 4H143l-29.483 100H93.719L71.5 34.791h-.285L48.996 104H29.91L0 4zm214.767 87.447c-3.373 4.33-7.637 7.67-12.791 10.024-5.154 2.353-10.495 3.529-16.024 3.529-5.248 0-10.19-.847-14.83-2.541-4.638-1.694-8.667-4.118-12.088-7.27-3.42-3.154-6.114-6.942-8.082-11.365C148.984 79.4 148 74.459 148 69s.984-10.4 2.952-14.824c1.968-4.423 4.662-8.211 8.082-11.364 3.42-3.153 7.45-5.577 12.088-7.27 4.64-1.695 9.582-2.542 14.83-2.542 4.873 0 9.3.847 13.283 2.541 3.983 1.694 7.356 4.118 10.12 7.27 2.765 3.154 4.897 6.942 6.396 11.365C217.251 58.6 218 63.541 218 69v6.635h-48.916c.844 4.047 2.671 7.27 5.482 9.67 2.812 2.4 6.279 3.6 10.402 3.6 3.467 0 6.395-.776 8.785-2.329 2.39-1.552 4.475-3.552 6.255-6l14.76 10.871zM196.995 62c.094-3.855-1.084-7.152-3.535-9.891-2.45-2.74-5.608-4.109-9.473-4.109-2.356 0-4.43.406-6.221 1.217-1.79.812-3.323 1.852-4.595 3.12a13.684 13.684 0 0 0-2.97 4.413A15.437 15.437 0 0 0 169 62h27.995zM236 3h17v40h-17V3zm36 31.687h21.053V45.65h.28c2.246-4.217 4.913-7.38 8-9.488 3.088-2.109 6.971-3.163 11.65-3.163 1.216 0 2.432.047 3.649.14 1.216.094 2.339.282 3.368.563V52.96a31.76 31.76 0 0 0-4.421-1.054 28.585 28.585 0 0 0-4.561-.352c-4.024 0-7.205.562-9.544 1.687-2.34 1.124-4.14 2.694-5.404 4.709-1.263 2.015-2.082 4.428-2.456 7.239-.374 2.811-.561 5.903-.561 9.277V103H272V34.687zm123.767 56.76c-3.373 4.33-7.637 7.67-12.791 10.024-5.154 2.353-10.495 3.529-16.024 3.529-5.248 0-10.19-.847-14.83-2.541-4.638-1.694-8.667-4.118-12.088-7.27-3.42-3.154-6.114-6.942-8.082-11.365C329.984 79.4 329 74.459 329 69s.984-10.4 2.952-14.824c1.968-4.423 4.662-8.211 8.082-11.364 3.42-3.153 7.45-5.577 12.088-7.27 4.64-1.695 9.582-2.542 14.83-2.542 4.873 0 9.3.847 13.283 2.541 3.983 1.694 7.356 4.118 10.12 7.27 2.765 3.154 4.897 6.942 6.396 11.365C398.251 58.6 399 63.541 399 69v6.635h-48.916c.844 4.047 2.671 7.27 5.482 9.67 2.812 2.4 6.279 3.6 10.402 3.6 3.467 0 6.395-.776 8.785-2.329 2.39-1.552 4.475-3.552 6.255-6l14.76 10.871zM377.995 62c.094-3.855-1.084-7.152-3.535-9.891-2.45-2.74-5.608-4.109-9.473-4.109-2.356 0-4.43.406-6.221 1.217-1.79.812-3.323 1.852-4.595 3.12a13.684 13.684 0 0 0-2.97 4.413A15.437 15.437 0 0 0 350 62h27.995zM456 4h22.068v37.288h42.864V4H543v100h-22.068V60.78h-42.864V104H456V4zm104 30h21v69h-21V34zm-2-21.5c0-3.448 1.221-6.394 3.664-8.836C564.106 1.22 567.052 0 570.5 0c3.448 0 6.394 1.221 8.836 3.664C581.78 6.106 583 9.052 583 12.5c0 3.448-1.221 6.394-3.664 8.836C576.894 23.78 573.948 25 570.5 25c-3.448 0-6.394-1.221-8.836-3.664C559.22 18.894 558 15.948 558 12.5zm39 22.187h21.053V45.65h.28c2.246-4.217 4.913-7.38 8-9.488 3.088-2.109 6.971-3.163 11.65-3.163 1.216 0 2.432.047 3.649.14 1.216.094 2.339.282 3.368.563V52.96a31.76 31.76 0 0 0-4.421-1.054 28.585 28.585 0 0 0-4.561-.352c-4.024 0-7.205.562-9.544 1.687-2.34 1.124-4.14 2.694-5.404 4.709-1.263 2.015-2.082 4.428-2.456 7.239-.374 2.811-.561 5.903-.561 9.277V103H597V34.687zM655 34h21v69h-21V34zm-2-21.5c0-3.448 1.221-6.394 3.664-8.836C659.106 1.22 662.052 0 665.5 0c3.448 0 6.394 1.221 8.836 3.664C676.78 6.106 678 9.052 678 12.5c0 3.448-1.221 6.394-3.664 8.836C671.894 23.78 668.948 25 665.5 25c-3.448 0-6.394-1.221-8.836-3.664C654.22 18.894 653 15.948 653 12.5zm38 22.187h20.308v9.277h.282c.658-1.312 1.598-2.624 2.82-3.936 1.222-1.312 2.68-2.483 4.372-3.514 1.692-1.03 3.62-1.874 5.782-2.53 2.163-.656 4.513-.984 7.051-.984 5.36 0 9.684.82 12.975 2.46 3.29 1.64 5.852 3.912 7.686 6.817 1.833 2.905 3.079 6.325 3.737 10.261.658 3.936.987 8.2.987 12.791V103h-21.154V69.546c0-1.968-.07-4.006-.211-6.114-.141-2.109-.564-4.053-1.27-5.834-.705-1.78-1.786-3.233-3.243-4.357-1.457-1.125-3.55-1.687-6.276-1.687s-4.936.492-6.628 1.476c-1.692.984-2.985 2.296-3.878 3.936-.893 1.64-1.481 3.49-1.763 5.552a47.691 47.691 0 0 0-.423 6.466V103H691V34.687zM844 97.4c0 12.965-3.247 22.806-9.74 29.523-6.494 6.717-16.375 10.076-29.643 10.076a79.308 79.308 0 0 1-17.939-2.043c-5.886-1.363-11.306-4.017-16.258-7.962l11.633-17.475c3.27 2.725 6.704 4.886 10.301 6.483 3.597 1.597 7.545 2.395 11.843 2.395 6.447 0 11.189-1.573 14.225-4.72 3.037-3.148 4.555-7.164 4.555-12.05v-6.623h-.28c-2.43 3.289-5.443 5.614-9.04 6.976-3.597 1.362-6.984 2.043-10.16 2.043-5.046 0-9.625-.869-13.736-2.607-4.11-1.738-7.638-4.18-10.581-7.328-2.943-3.147-5.209-6.881-6.797-11.203C770.794 78.565 770 73.82 770 68.653c0-4.51.724-8.925 2.172-13.246 1.449-4.322 3.504-8.127 6.167-11.415 2.663-3.288 5.91-5.942 9.74-7.962 3.831-2.02 8.176-3.03 13.035-3.03 2.99 0 5.722.329 8.198.986 2.477.658 4.696 1.504 6.658 2.537 1.962 1.033 3.644 2.184 5.045 3.453 1.402 1.268 2.523 2.513 3.364 3.734h.28v-9.019H844v62.71zM791 69c0 2.267.425 4.415 1.275 6.446a16.617 16.617 0 0 0 3.613 5.383 18.703 18.703 0 0 0 5.383 3.754C803.3 85.528 805.544 86 808 86c2.361 0 4.58-.472 6.658-1.417a18.411 18.411 0 0 0 5.454-3.754 16.617 16.617 0 0 0 3.613-5.383c.85-2.03 1.275-4.18 1.275-6.446 0-2.267-.425-4.415-1.275-6.446a16.617 16.617 0 0 0-3.613-5.383 18.411 18.411 0 0 0-5.454-3.754C812.581 52.472 810.361 52 808 52c-2.456 0-4.699.472-6.73 1.417a18.703 18.703 0 0 0-5.382 3.754 16.617 16.617 0 0 0-3.613 5.383A16.524 16.524 0 0 0 791 69zm105 2h-21V4h21v67zm-24 19.5c0-1.859.342-3.62 1.027-5.283a13.106 13.106 0 0 1 2.862-4.328 13.106 13.106 0 0 1 4.328-2.862A13.738 13.738 0 0 1 885.5 77c1.859 0 3.62.342 5.283 1.027a13.106 13.106 0 0 1 4.328 2.862 13.106 13.106 0 0 1 2.862 4.328A13.738 13.738 0 0 1 899 90.5c0 1.859-.342 3.62-1.027 5.283a13.106 13.106 0 0 1-2.862 4.328 13.106 13.106 0 0 1-4.328 2.862A13.738 13.738 0 0 1 885.5 104c-1.859 0-3.62-.342-5.283-1.027a13.106 13.106 0 0 1-4.328-2.862 13.106 13.106 0 0 1-2.862-4.328A13.738 13.738 0 0 1 872 90.5z"/>
</svg>
