<svg xmlns="http://www.w3.org/2000/svg" xmlns:xlink="http://www.w3.org/1999/xlink" width="788" height="300" viewBox="0 0 788 300">
    <defs>
        <linearGradient id="a" x1="79.74%" x2="21.86%" y1="0%" y2="99.768%">
            <stop offset="0%" stop-color="#CCD2FF"/>
            <stop offset="100%" stop-color="#6B8BF5"/>
        </linearGradient>
        <linearGradient id="b" x1="40.615%" x2="59.918%" y1="99.768%" y2="0%">
            <stop offset="0%" stop-color="#B8C1FF"/>
            <stop offset="100%" stop-color="#6B8BF5"/>
        </linearGradient>
        <linearGradient id="c" x1="46.621%" x2="53.571%" y1="99.768%" y2="0%">
            <stop offset="0%" stop-color="#B8C1FF"/>
            <stop offset="100%" stop-color="#6B8BF5"/>
        </linearGradient>
        <linearGradient id="d" x1="47.208%" x2="52.951%" y1="99.768%" y2="0%">
            <stop offset="0%" stop-color="#B8C1FF"/>
            <stop offset="100%" stop-color="#6B8BF5"/>
        </linearGradient>
        <linearGradient id="e" x1="48.68%" x2="51.395%" y1="99.768%" y2="0%">
            <stop offset="0%" stop-color="#B8C1FF"/>
            <stop offset="100%" stop-color="#6B8BF5"/>
        </linearGradient>
        <linearGradient id="f" x1="21.86%" x2="79.74%" y1="70.255%" y2="29.65%">
            <stop offset="0%" stop-color="#B8C1FF"/>
            <stop offset="100%" stop-color="#6B8BF5"/>
        </linearGradient>
        <linearGradient id="g" x1="21.86%" x2="79.74%" y1="74.745%" y2="25.14%">
            <stop offset="0%" stop-color="#B8C1FF"/>
            <stop offset="100%" stop-color="#6B8BF5"/>
        </linearGradient>
        <linearGradient id="h" x1="49.878%" x2="50.601%" y1="20.944%" y2="125.38%">
            <stop offset="0%" stop-color="#B8C1FF"/>
            <stop offset="100%" stop-color="#6B8BF5"/>
        </linearGradient>
        <linearGradient id="i" x1="21.86%" x2="79.74%" y1="74.724%" y2="25.16%">
            <stop offset="0%" stop-color="#B8C1FF"/>
            <stop offset="100%" stop-color="#6B8BF5"/>
        </linearGradient>
        <linearGradient id="j" x1="6.521%" x2="93.479%" y1="100%" y2="0%">
            <stop offset="0%" stop-color="#ABBBFF" stop-opacity="0"/>
            <stop offset="18.797%" stop-color="#ABBBFF"/>
            <stop offset="93.074%" stop-color="#ABBBFF"/>
            <stop offset="100%" stop-color="#ABBBFF" stop-opacity="0"/>
        </linearGradient>
        <path id="k" d="M0 .098h32.993V30.4H0z"/>
        <linearGradient id="n" x1="21.86%" x2="79.74%" y1="91.978%" y2="7.827%">
            <stop offset="0%" stop-color="#B8C1FF"/>
            <stop offset="100%" stop-color="#6B8BF5"/>
        </linearGradient>
        <path id="m" d="M32.993 3.056l-2.35 1.825L18.05.464c-.854-.486-2.239-.488-3.094-.005L2.28 4.881 0 3.056v18h.002c.01.309.222.617.638.853l14.304 8.125c.854.485 2.239.487 3.094.005l14.314-8.084c.438-.248.65-.574.639-.9h.002V3.057z"/>
        <linearGradient id="p" x1="79.74%" x2="21.86%" y1="33.959%" y2="65.966%">
            <stop offset="0%" stop-color="#F7F8FF"/>
            <stop offset="100%" stop-color="#6B8BF5"/>
        </linearGradient>
        <path id="q" d="M5.764.076L.59 3.033c-.31.177-.56.605-.56.957v5.893c0 .352.25.494.56.317l5.175-2.957c.31-.176.56-.605.56-.957V.394c0-.25-.126-.394-.309-.394a.513.513 0 0 0-.25.076z"/>
        <path id="r" d="M5.529.156l-5.25 2.97c-.313.178-.313.466 0 .644l5.246 2.986c.313.178.821.179 1.135.001l5.25-2.97c.313-.177.313-.466 0-.644L6.664.158a1.178 1.178 0 0 0-.57-.134c-.204 0-.409.044-.565.132z"/>
        <path id="s" d="M0 .098h32.993V30.4H0z"/>
        <path id="u" d="M32.993 3.056l-2.35 1.825L18.05.464c-.854-.486-2.239-.488-3.094-.005L2.28 4.881 0 3.056v18h.002c.01.309.222.617.638.853l14.304 8.125c.854.485 2.239.487 3.094.005l14.314-8.084c.438-.248.65-.574.639-.9h.002V3.057z"/>
        <path id="w" d="M5.764.076L.59 3.033c-.31.177-.56.605-.56.957v5.893c0 .352.25.494.56.317l5.175-2.957c.31-.176.56-.605.56-.957V.394c0-.25-.126-.394-.309-.394a.513.513 0 0 0-.25.076z"/>
        <path id="x" d="M5.529.156l-5.25 2.97c-.313.178-.313.466 0 .644l5.246 2.986c.313.178.821.179 1.135.001l5.25-2.97c.313-.177.313-.466 0-.644L6.664.158a1.178 1.178 0 0 0-.57-.134c-.204 0-.409.044-.565.132z"/>
        <path id="y" d="M0 .098h32.993V30.4H0z"/>
        <path id="A" d="M32.993 3.056l-2.35 1.825L18.05.464c-.854-.486-2.239-.488-3.094-.005L2.28 4.881 0 3.056v18h.002c.01.309.222.617.638.853l14.304 8.125c.854.485 2.239.487 3.094.005l14.314-8.084c.438-.248.65-.574.639-.9h.002V3.057z"/>
        <path id="C" d="M5.764.076L.59 3.033c-.31.177-.56.605-.56.957v5.893c0 .352.25.494.56.317l5.175-2.957c.31-.176.56-.605.56-.957V.394c0-.25-.126-.394-.309-.394a.513.513 0 0 0-.25.076z"/>
        <path id="D" d="M5.529.156l-5.25 2.97c-.313.178-.313.466 0 .644l5.246 2.986c.313.178.821.179 1.135.001l5.25-2.97c.313-.177.313-.466 0-.644L6.664.158a1.178 1.178 0 0 0-.57-.134c-.204 0-.409.044-.565.132z"/>
        <linearGradient id="E" x1="22.059%" x2="79.53%" y1="99.768%" y2="0%">
            <stop offset="0%" stop-color="#B8C1FF"/>
            <stop offset="100%" stop-color="#6B8BF5"/>
        </linearGradient>
        <linearGradient id="F" x1="21.888%" x2="79.71%" y1="99.768%" y2="0%">
            <stop offset="0%" stop-color="#B8C1FF"/>
            <stop offset="100%" stop-color="#6B8BF5"/>
        </linearGradient>
        <linearGradient id="G" x1="22.423%" x2="79.144%" y1="99.768%" y2="0%">
            <stop offset="0%" stop-color="#B8C1FF"/>
            <stop offset="100%" stop-color="#6B8BF5"/>
        </linearGradient>
        <linearGradient id="H" x1="21.86%" x2="79.74%" y1="64.957%" y2="34.973%">
            <stop offset="0%" stop-color="#B8C1FF"/>
            <stop offset="100%" stop-color="#6B8BF5"/>
        </linearGradient>
        <linearGradient id="I" x1="42.123%" x2="58.325%" y1="99.768%" y2="0%">
            <stop offset="0%" stop-color="#B8C1FF"/>
            <stop offset="100%" stop-color="#6B8BF5"/>
        </linearGradient>
        <linearGradient id="J" x1="21.86%" x2="79.74%" y1="64.914%" y2="35.016%">
            <stop offset="0%" stop-color="#B8C1FF"/>
            <stop offset="100%" stop-color="#6B8BF5"/>
        </linearGradient>
        <linearGradient id="K" x1="79.74%" x2="21.86%" y1="30.478%" y2="69.431%">
            <stop offset="0%" stop-color="#F7F8FF"/>
            <stop offset="100%" stop-color="#6B8BF5"/>
        </linearGradient>
        <linearGradient id="L" x1="60.588%" x2="39.982%" y1="0%" y2="99.768%">
            <stop offset="0%" stop-color="#CCD2FF"/>
            <stop offset="100%" stop-color="#6B8BF5"/>
        </linearGradient>
        <linearGradient id="M" x1="79.74%" x2="21.86%" y1="31.728%" y2="68.187%">
            <stop offset="0%" stop-color="#CCD2FF"/>
            <stop offset="100%" stop-color="#6B8BF5"/>
        </linearGradient>
        <linearGradient id="N" x1="50%" x2="35.264%" y1="-13.458%" y2="120.856%">
            <stop offset="0%" stop-color="#F7F8FF"/>
            <stop offset="100%" stop-color="#6B8BF5"/>
        </linearGradient>
        <linearGradient id="O" x1="-22.346%" x2="91.846%" y1="45.098%" y2="52.836%">
            <stop offset="0%" stop-color="#B5C5FF"/>
            <stop offset="100%" stop-color="#798CEE"/>
        </linearGradient>
        <linearGradient id="P" x1="-22.346%" x2="91.846%" y1="45.515%" y2="52.595%">
            <stop offset="0%" stop-color="#BDCBFF"/>
            <stop offset="100%" stop-color="#92A2F5"/>
        </linearGradient>
        <linearGradient id="Q" x1="1.241%" x2="68.26%" y1="55.087%" y2="43.023%">
            <stop offset="0%" stop-color="#D5DDFA"/>
            <stop offset="100%" stop-color="#ABB7F4"/>
        </linearGradient>
        <linearGradient id="R" x1="1.241%" x2="68.26%" y1="55.087%" y2="43.023%">
            <stop offset="0%" stop-color="#EAEFFF"/>
            <stop offset="100%" stop-color="#ABB7F4"/>
        </linearGradient>
        <linearGradient id="S" x1="-22.346%" x2="91.063%" y1="45.515%" y2="52.546%">
            <stop offset="0%" stop-color="#F3F5FF"/>
            <stop offset="100%" stop-color="#C6CFFF"/>
        </linearGradient>
    </defs>
    <g fill="none" fill-rule="evenodd">
        <path fill="url(#a)" fill-rule="nonzero" d="M51.5 0C31.894 0 16 15.894 16 35.5S31.894 71 51.5 71 87 55.106 87 35.5A35.5 35.5 0 0 0 51.5 0zm14.465 50.385l-14.977 8.612V59h-.005v-.003L36 50.385v-29.8l.015.008L50.978 12l9.601 5.33.005-.003v13.455l-4.673-2.668v-8.107l-4.928-2.793-10.313 5.932v24.702l10.314 5.932 10.313-5.912.049-10.151-14.655-8.457 4.709-2.462L66 35.265l-.035 15.12zM54.298 35.027L58 37.048 47 43V31l3.864 2.166v3.602l3.434-1.741z" transform="translate(159 89)"/>
        <g transform="translate(159 172)">
            <rect width="103" height="25" fill="#F8F8FF" rx="2"/>
            <text fill="#252945" font-family="Avenir-Medium, Avenir" font-size="14" font-weight="400">
                <tspan x="6.483" y="17">Band Protocol</tspan>
            </text>
        </g>
        <g fill-rule="nonzero">
            <path fill="url(#b)" d="M6.3 30.175c0-.6-.403-1.084-.9-1.084H.9c-.497 0-.9.485-.9 1.084v7.476C0 40 0 40 2.504 40H5.4c.497 0 .9-.485.9-1.084v-8.741z" transform="translate(3 255)"/>
            <path fill="url(#c)" d="M15.3 21.818h-4.5c-.497 0-.9.507-.9 1.132v15.918c0 .626.403 1.132.9 1.132h4.5c.497 0 .9-.506.9-1.132V22.95c0-.625-.403-1.132-.9-1.132z" transform="translate(3 255)"/>
            <path fill="url(#d)" d="M25.2 20h-4.5c-.497 0-.9.495-.9 1.107v17.786c0 .612.403 1.107.9 1.107h4.5c.497 0 .9-.495.9-1.107V21.107c0-.612-.403-1.107-.9-1.107z" transform="translate(3 255)"/>
            <path fill="url(#e)" d="M35.1 10.91h-4.5c-.497 0-.9.499-.9 1.115v26.859c0 .617.403 1.116.9 1.116h3.516c1.4 0 1.884-.668 1.884-2.48V12.025c0-.616-.403-1.116-.9-1.116z" transform="translate(3 255)"/>
            <path fill="url(#f)" d="M3.11 21.818c1.713 0 3.108-1.335 3.108-2.975 0-.279-.053-.543-.128-.799l4.038-2.727a3.177 3.177 0 0 0 1.79.55c1.573 0 2.863-1.127 3.067-2.579l4.135-.833a3.131 3.131 0 0 0 2.644 1.43c1.714 0 3.109-1.335 3.109-2.976 0-.397-.085-.774-.233-1.12l4.96-4.22c.445.236.948.381 1.49.381 1.715 0 3.11-1.334 3.11-2.975C34.2 1.335 32.805 0 31.09 0c-1.713 0-3.108 1.335-3.108 2.975 0 .397.085.774.233 1.12l-4.96 4.22a3.179 3.179 0 0 0-1.491-.381c-1.573 0-2.863 1.127-3.068 2.58l-4.134.833a3.131 3.131 0 0 0-2.644-1.43c-1.714 0-3.109 1.335-3.109 2.976 0 .278.053.543.128.798L4.9 16.42a3.177 3.177 0 0 0-1.79-.551C1.395 15.868 0 17.202 0 18.843c0 1.64 1.395 2.975 3.11 2.975z" transform="translate(3 255)"/>
        </g>
        <path fill="url(#g)" fill-rule="nonzero" d="M38.078 28.158H28.55V17.426a.924.924 0 0 0-.922-.926H11.372a.924.924 0 0 0-.922.926v6.069H.922A.924.924 0 0 0 0 24.42v18.653c0 .511.413.926.922.926h37.156c.51 0 .922-.415.922-.926v-13.99a.924.924 0 0 0-.922-.926zM9.736 36.395a.99.99 0 0 1-.988.992H7.014v.927h1.734a.99.99 0 0 1 .988.992.99.99 0 0 1-.988.992H6.026a.99.99 0 0 1-.988-.992v-2.911a.99.99 0 0 1 .988-.992H7.76v-.987H6.026a.99.99 0 0 1-.988-.992.99.99 0 0 1 .988-.992h2.722a.99.99 0 0 1 .988.992v2.97zm10.752-9.816a.99.99 0 0 1-.988.992.99.99 0 0 1-.988-.992V23.35h-.222a.99.99 0 0 1-.988-.992.99.99 0 0 1 .988-.992h1.21a.99.99 0 0 1 .988.992v4.221zm13.746 12.727a.99.99 0 0 1-.988.992h-2.722a.99.99 0 0 1-.988-.992.99.99 0 0 1 .988-.992h1.734v-.927h-1.734a.99.99 0 0 1-.988-.992.99.99 0 0 1 .988-.992h1.734v-.987h-1.734a.99.99 0 0 1-.988-.992.99.99 0 0 1 .988-.992h2.722a.99.99 0 0 1 .988.992v5.882z" transform="translate(1 188)"/>
        <path stroke="url(#h)" stroke-width="1.805" d="M18.593 18.792V.59" transform="translate(1 188)"/>
        <path fill="url(#i)" fill-rule="nonzero" d="M17.705 10.612V0l15.056 6.417z" transform="matrix(1 0 0 -1 1 198.612)"/>
        <path stroke="url(#j)" stroke-dasharray="7,7" stroke-linecap="round" stroke-width="2" d="M252.6 41L48 260.406" transform="rotate(-43 120.03 223.824)"/>
        <path stroke="#ABBBFF" stroke-dasharray="7,7" stroke-linecap="round" stroke-width="2" d="M54.243 276.152h39M54.243 210.048h39M53.884 144.674h80.752M54.243 76.152h39M54.243 21.048h39"/>
        <path fill="#FFCA55" d="M146.197 144.226l-13.338-7.919a.9.9 0 0 0-1.359.774v15.838a.9.9 0 0 0 1.36.774l13.337-7.92a.9.9 0 0 0 0-1.547z"/>
        <path stroke="url(#j)" stroke-dasharray="7,7" stroke-linecap="round" stroke-width="2" d="M252.6 41L48 260.406" transform="scale(-1 1) rotate(-43 -268.47 1210.089)"/>
        <path stroke="#ABBBFF" stroke-dasharray="7,7" stroke-linecap="round" stroke-width="2" d="M722.757 228.048h-39"/>
        <g transform="translate(735 239)">
            <rect width="53" height="20" fill="#F8F8FF" rx="2"/>
            <text fill="#252945" font-family="Avenir-Medium, Avenir" font-size="12" font-weight="400">
                <tspan x="10.498" y="14">DApp</tspan>
            </text>
        </g>
        <g transform="translate(745 203.39)">
            <mask id="l" fill="#fff">
                <use xlink:href="#k"/>
            </mask>
            <g mask="url(#l)">
                <g>
                    <mask id="o" fill="#fff">
                        <use xlink:href="#m"/>
                    </mask>
                    <use fill="url(#n)" xlink:href="#m"/>
                    <path fill="#6B8BF5" d="M16.217 10.788v22.645l22.165-11.322-1.493-23.443z" mask="url(#o)"/>
                </g>
            </g>
        </g>
        <path fill="url(#p)" d="M32.352 10.243l-14.314 8.084c-.855.482-2.24.48-3.094-.005L.64 10.197c-.854-.485-.853-1.27.001-1.752L14.955.36c.855-.483 2.24-.481 3.094.004L32.353 8.49c.854.485.853 1.27-.001 1.753" transform="translate(745 197.062)"/>
        <use fill="#F2F5FF" transform="matrix(-1 0 0 1 755.368 215.138)" xlink:href="#q"/>
        <path stroke="#ABBBFF" stroke-dasharray="7,7" stroke-linecap="round" stroke-width="2" d="M723.116 144.674h-80.752"/>
        <g>
            <path stroke="#ABBBFF" stroke-dasharray="7,7" stroke-linecap="round" stroke-width="2" d="M722.757 67.152h-39"/>
            <g transform="translate(735 72)">
                <rect width="53" height="20" fill="#F8F8FF" rx="2"/>
                <text fill="#252945" font-family="Avenir-Medium, Avenir" font-size="12" font-weight="400">
                    <tspan x="10.498" y="14">DApp</tspan>
                </text>
            </g>
            <g transform="translate(745 36.39)">
                <mask id="t" fill="#fff">
                    <use xlink:href="#s"/>
                </mask>
                <g mask="url(#t)">
                    <g>
                        <mask id="v" fill="#fff">
                            <use xlink:href="#u"/>
                        </mask>
                        <use fill="url(#n)" xlink:href="#u"/>
                        <path fill="#6B8BF5" d="M16.217 10.788v22.645l22.165-11.322-1.493-23.443z" mask="url(#v)"/>
                    </g>
                </g>
            </g>
            <path fill="url(#p)" d="M32.352 10.243l-14.314 8.084c-.855.482-2.24.48-3.094-.005L.64 10.197c-.854-.485-.853-1.27.001-1.752L14.955.36c.855-.483 2.24-.481 3.094.004L32.353 8.49c.854.485.853 1.27-.001 1.753" transform="translate(745 30.062)"/>
            <use fill="#F2F5FF" transform="matrix(-1 0 0 1 755.368 48.138)" xlink:href="#w"/>
        </g>
        <path fill="#FFCA55" d="M630.803 144.226l13.338-7.919a.9.9 0 0 1 1.359.774v15.838a.9.9 0 0 1-1.36.774l-13.337-7.92a.9.9 0 0 1 0-1.547z"/>
        <g>
            <g transform="translate(735 155)">
                <rect width="53" height="20" fill="#F8F8FF" rx="2"/>
                <text fill="#252945" font-family="Avenir-Medium, Avenir" font-size="12" font-weight="400">
                    <tspan x="10.498" y="14">DApp</tspan>
                </text>
            </g>
            <g transform="translate(745 119.39)">
                <mask id="z" fill="#fff">
                    <use xlink:href="#y"/>
                </mask>
                <g mask="url(#z)">
                    <g>
                        <mask id="B" fill="#fff">
                            <use xlink:href="#A"/>
                        </mask>
                        <use fill="url(#n)" xlink:href="#A"/>
                        <path fill="#6B8BF5" d="M16.217 10.788v22.645l22.165-11.322-1.493-23.443z" mask="url(#B)"/>
                    </g>
                </g>
            </g>
            <path fill="url(#p)" d="M32.352 10.243l-14.314 8.084c-.855.482-2.24.48-3.094-.005L.64 10.197c-.854-.485-.853-1.27.001-1.752L14.955.36c.855-.483 2.24-.481 3.094.004L32.353 8.49c.854.485.853 1.27-.001 1.753" transform="translate(745 113.062)"/>
            <use fill="#F2F5FF" transform="matrix(-1 0 0 1 755.368 131.138)" xlink:href="#C"/>
        </g>
        <g>
            <path stroke="#ABBBFF" stroke-dasharray="7,7" stroke-linecap="round" stroke-width="2" d="M263.676 144.674L314.3 145"/>
            <path fill="#FFCA55" d="M326.997 144.226l-13.337-7.919a.9.9 0 0 0-1.36.774v15.838a.9.9 0 0 0 1.36.774l13.337-7.92a.9.9 0 0 0 0-1.547z"/>
        </g>
        <g>
            <path stroke="#ABBBFF" stroke-dasharray="7,7" stroke-linecap="round" stroke-width="2" d="M438.676 144.674L489.3 145"/>
            <path fill="#FFCA55" d="M501.997 144.226l-13.337-7.919a.9.9 0 0 0-1.36.774v15.838a.9.9 0 0 0 1.36.774l13.337-7.92a.9.9 0 0 0 0-1.547z"/>
        </g>
        <g fill-rule="nonzero">
            <path fill="url(#E)" d="M.777.71h38.442v38.58H.777z" transform="translate(1 125)"/>
            <path fill="#FFF" d="M15.616 128.64H26.38v10.873H15.616zM15.616 139.513H26.38v10.873H15.616zM4.852 139.513h10.764v10.873H4.852zM26.38 139.513h10.764v10.873H26.38zM4.852 128.64h10.764v10.873H4.852zM26.38 128.64h10.764v10.873H26.38zM15.616 150.386H26.38v10.873H15.616zM4.852 150.386h10.764v10.873H4.852zM26.38 150.386h10.764v10.873H26.38z"/>
            <path fill="#E9686A" d="M13.084 131.197a.763.763 0 0 0-1.086 0l-1.764 1.78-1.763-1.78a.763.763 0 0 0-1.087.001c-.3.303-.3.794 0 1.097l1.763 1.781-1.763 1.781a.783.783 0 0 0-.002 1.098c.3.304.787.305 1.088.002v-.002l1.764-1.78 1.763 1.78c.3.303.787.302 1.087-.001a.783.783 0 0 0 0-1.097l-1.763-1.78 1.763-1.782c.3-.303.3-.794 0-1.097zM23.848 142.07a.763.763 0 0 0-1.087 0l-1.763 1.781-1.763-1.78a.764.764 0 0 0-1.087 0c-.3.304-.3.794 0 1.097l1.763 1.781-1.763 1.781a.782.782 0 0 0-.001 1.098.763.763 0 0 0 1.088 0l1.763-1.78 1.763 1.78c.3.303.787.303 1.087 0 .3-.304.3-.795 0-1.098l-1.763-1.78 1.763-1.781c.3-.304.3-.795 0-1.098zM32.85 155.822l1.762-1.78c.3-.304.3-.795 0-1.099a.763.763 0 0 0-1.087 0l-1.763 1.781-1.763-1.78a.763.763 0 0 0-1.087 0c-.3.303-.3.794 0 1.097l1.763 1.781-1.763 1.781c-.3.303-.3.795 0 1.098.3.304.787.304 1.087 0l1.763-1.78 1.763 1.78c.3.304.786.304 1.087 0 .3-.303.3-.795 0-1.098l-1.763-1.78z"/>
            <g fill="#FFF">
                <path d="M12.54 144.95c0 1.286-1.032 2.33-2.306 2.33s-2.306-1.044-2.306-2.33c0-1.288 1.032-2.33 2.306-2.33s2.307 1.042 2.307 2.33zM34.068 144.95a2.318 2.318 0 0 1-2.306 2.33c-1.274 0-2.307-1.044-2.307-2.33 0-1.288 1.033-2.33 2.307-2.33a2.318 2.318 0 0 1 2.306 2.33zM34.068 134.076c0 1.287-1.032 2.33-2.306 2.33s-2.307-1.043-2.307-2.33c0-1.287 1.033-2.33 2.307-2.33s2.306 1.043 2.306 2.33zM23.304 134.076c0 1.287-1.032 2.33-2.306 2.33s-2.307-1.043-2.307-2.33c0-1.287 1.033-2.33 2.307-2.33s2.306 1.043 2.306 2.33zM12.54 155.822c0 1.287-1.032 2.33-2.306 2.33s-2.306-1.043-2.306-2.33c0-1.286 1.032-2.33 2.306-2.33s2.307 1.044 2.307 2.33zM23.304 155.822c0 1.287-1.032 2.33-2.306 2.33s-2.307-1.043-2.307-2.33c0-1.286 1.033-2.33 2.307-2.33s2.306 1.044 2.306 2.33z"/>
            </g>
            <path fill="url(#F)" d="M.77 40h38.46c.426 0 .77-.298.77-.666V.666C40 .299 39.656 0 39.231 0H.769C.344 0 0 .298 0 .666v38.667c0 .368.344.667.77.667zm.738-38.68h36.884v37.259H1.508V1.319z" transform="translate(1 125)"/>
            <path fill="url(#G)" d="M36.144 2.863H3.852a.773.773 0 0 0-.769.776v32.62c0 .429.344.777.769.777h32.292a.773.773 0 0 0 .768-.777V3.64a.772.772 0 0 0-.768-.776zM4.62 15.289h9.226v9.32H4.621v-9.32zm10.764 0h9.226v9.32h-9.226v-9.32zm10.764 0h9.226v9.32h-9.226v-9.32zm9.226-1.553h-9.226v-9.32h9.226v9.32zm-10.764 0h-9.226v-9.32h9.226v9.32zM4.62 4.416h9.226v9.32H4.621v-9.32zm0 21.746h9.226v9.32H4.621v-9.32zm10.764 0h9.226v9.32h-9.226v-9.32zm19.99 9.32h-9.226v-9.32h9.226v9.32z" transform="translate(1 125)"/>
            <path fill="#ABBBFF" d="M13.084 131.197a.763.763 0 0 0-1.086 0l-1.764 1.78-1.763-1.78a.763.763 0 0 0-1.087.001c-.3.303-.3.794 0 1.097l1.763 1.781-1.763 1.781a.783.783 0 0 0-.002 1.098c.3.304.787.305 1.088.002v-.002l1.764-1.78 1.763 1.78c.3.303.787.302 1.087-.001a.783.783 0 0 0 0-1.097l-1.763-1.78 1.763-1.782c.3-.303.3-.794 0-1.097zM23.848 142.07a.763.763 0 0 0-1.087 0l-1.763 1.781-1.763-1.78a.764.764 0 0 0-1.087 0c-.3.304-.3.794 0 1.097l1.763 1.781-1.763 1.781a.782.782 0 0 0-.001 1.098.763.763 0 0 0 1.088 0l1.763-1.78 1.763 1.78c.3.303.787.303 1.087 0 .3-.304.3-.795 0-1.098l-1.763-1.78 1.763-1.781c.3-.304.3-.795 0-1.098zM28.911 158.701c.3.304.787.304 1.088 0l1.763-1.78 1.763 1.78c.3.304.786.304 1.087 0 .3-.303.3-.795 0-1.098l-1.763-1.78 1.763-1.782c.3-.303.3-.794 0-1.098a.763.763 0 0 0-1.087 0l-1.763 1.781-1.763-1.78a.763.763 0 0 0-1.088 0c-.3.303-.3.794 0 1.097l1.764 1.781-1.764 1.781c-.3.303-.3.794 0 1.098zM10.234 142.62c-1.274 0-2.306 1.042-2.306 2.33 0 1.286 1.032 2.33 2.306 2.33s2.307-1.044 2.307-2.33c-.002-1.287-1.034-2.33-2.307-2.33zm0 3.106a.773.773 0 0 1-.769-.777c0-.429.344-.777.77-.777.423 0 .768.348.768.777a.773.773 0 0 1-.769.777zM31.762 142.62c-1.274 0-2.307 1.042-2.307 2.33 0 1.286 1.033 2.33 2.307 2.33a2.318 2.318 0 0 0 2.306-2.33c-.001-1.287-1.033-2.33-2.306-2.33zm0 3.106a.773.773 0 0 1-.77-.777c0-.429.345-.777.77-.777.424 0 .769.348.769.777a.774.774 0 0 1-.77.777zM31.762 136.406c1.274 0 2.306-1.043 2.306-2.33 0-1.287-1.032-2.33-2.306-2.33s-2.307 1.043-2.307 2.33c.002 1.286 1.033 2.329 2.307 2.33zm0-3.107c.424 0 .769.348.769.777 0 .43-.345.777-.77.777a.773.773 0 0 1-.768-.777c0-.429.344-.776.769-.777zM20.998 136.406c1.274 0 2.306-1.043 2.306-2.33 0-1.287-1.032-2.33-2.306-2.33s-2.307 1.043-2.307 2.33c.002 1.286 1.033 2.329 2.307 2.33zm0-3.107c.424 0 .769.348.769.777 0 .43-.345.777-.769.777a.773.773 0 0 1-.769-.777c0-.429.344-.776.769-.777zM10.234 153.492c-1.274 0-2.306 1.044-2.306 2.33 0 1.287 1.032 2.33 2.306 2.33s2.307-1.043 2.307-2.33a2.321 2.321 0 0 0-2.307-2.33zm0 3.107a.773.773 0 0 1-.769-.777c0-.429.344-.776.77-.776.423 0 .768.347.768.776a.773.773 0 0 1-.769.777zM20.998 153.492c-1.274 0-2.307 1.044-2.307 2.33 0 1.287 1.033 2.33 2.307 2.33s2.306-1.043 2.306-2.33c-.001-1.286-1.033-2.328-2.306-2.33zm0 3.107a.773.773 0 0 1-.769-.777c0-.429.344-.776.769-.776.424 0 .769.347.769.776a.773.773 0 0 1-.769.777z"/>
        </g>
        <g>
            <path fill="url(#H)" d="M13.597 22.444c-3.671-.405-6.953-.607-9.845-.607-1.452-.695-4.631-2.873-2.135-8.162 1.942-2.453 4.012-2.453 5.285-2.453C7.95 6.62 12.705-.5 18.918.902c4.143.936 6.996 2.692 8.56 5.268 4.474-2.023 7.136-.339 7.986 5.052 7.04 3.65 5.048 7.146 2.505 10.886-5.371.224-10.285.336-14.742.336h-9.63z" transform="translate(0 62)"/>
            <path fill="url(#I)" fill-rule="nonzero" stroke="#FFF" stroke-width="1.62" d="M25.58 23.627c.86.019 1.304 1.052.728 1.7L12.645 40.71c-.605.682-1.686-.05-1.292-.876l5.719-12.003h-3.894c-.848 0-1.315-.994-.784-1.66L23.39 12.364c.545-.684 1.624-.096 1.361.74L21.474 23.54l4.105.087z" transform="translate(0 62)"/>
            <path fill="url(#J)" fill-rule="nonzero" d="M36.222 10.659c.31-4.86-4.774-8.01-8.663-5.433C25.379 1.941 21.864 0 18.03 0 12.26 0 7.41 4.446 6.54 10.36 2.918 10.46 0 13.59 0 17.424v.056c.02 2.737 2.25 4.963 4.968 4.963h8.573c.332 0 .6-.272.6-.607a.604.604 0 0 0-.6-.608H4.968c-2.062 0-3.752-1.686-3.767-3.756v-.048c0-3.308 2.62-6.032 5.834-5.843.32.019.599-.22.632-.544.57-5.536 5.005-9.823 10.364-9.823 3.621 0 6.93 1.944 8.85 5.2.191.323.621.395.904.154 3.164-2.695 7.84.163 7.192 4.45a.607.607 0 0 0 .462.684c2.526.573 4.36 2.98 4.36 5.722v.047c-.015 2.071-1.705 3.757-3.767 3.757H23.814c-.332 0-.601.272-.601.608 0 .335.269.607.6.607h12.219c2.719 0 4.948-2.226 4.968-4.965v-.054c0-3.121-1.948-5.866-4.778-6.766z" transform="translate(0 62)"/>
        </g>
        <g fill-rule="nonzero">
            <path fill="url(#K)" d="M20.5 13.99l-5.658 3.536 5.658 3.536 5.658-3.536z"/>
            <path fill="#6B8BF5" d="M26.15 23.466l-5.65 3.543v-5.947l5.65-3.536z"/>
            <path fill="url(#L)" d="M14.842 23.466l5.658 3.543v-5.947l-5.658-3.536z"/>
            <path fill="url(#K)" d="M5.658 0L0 3.536 5.658 7.07l5.659-3.535z"/>
            <path fill="#6B8BF5" d="M11.31 9.475L5.657 13.02V7.071l5.651-3.535z"/>
            <path fill="url(#L)" d="M0 9.475l5.658 3.544V7.071L0 3.536z"/>
            <path fill="url(#K)" d="M35.342 0l-5.659 3.536 5.659 3.535L41 3.536z"/>
            <path fill="#6B8BF5" d="M40.993 9.475l-5.651 3.544V7.071l5.65-3.535z"/>
            <path fill="url(#L)" d="M29.683 9.475l5.659 3.544V7.071l-5.659-3.535z"/>
            <path fill="url(#K)" d="M5.658 27.981L0 31.517l5.658 3.535 5.659-3.535z"/>
            <path fill="#6B8BF5" d="M11.31 37.457L5.657 41v-5.948l5.651-3.535z"/>
            <path fill="url(#L)" d="M0 37.457L5.658 41v-5.948L0 31.517z"/>
            <path fill="url(#K)" d="M35.342 27.981l-5.659 3.536 5.659 3.535L41 31.517z"/>
            <path fill="#6B8BF5" d="M40.993 37.457L35.342 41v-5.948l5.65-3.535z"/>
            <path fill="url(#L)" d="M29.683 37.457L35.342 41v-5.948l-5.659-3.535z"/>
            <g fill="#ABBBFF">
                <path d="M26.007 6.806H14.952a.619.619 0 1 1 0-1.237h11.055a.619.619 0 1 1 0 1.237zM26.048 35.431H14.993a.619.619 0 1 1 0-1.237h11.055a.619.619 0 1 1 0 1.237zM35.308 24.793a.619.619 0 0 1-.619-.619v-7.376a.619.619 0 1 1 1.238 0v7.376a.619.619 0 0 1-.62.619zM5.692 24.82a.619.619 0 0 1-.619-.618v-7.376a.619.619 0 0 1 1.238 0v7.376a.619.619 0 0 1-.619.618zM26.82 15.235a.617.617 0 0 1-.342-1.135l2.788-1.844a.619.619 0 1 1 .683 1.032l-2.788 1.845a.617.617 0 0 1-.341.102zM14.18 15.235a.617.617 0 0 1-.34-.102l-2.789-1.845a.619.619 0 1 1 .683-1.032l2.788 1.844a.619.619 0 0 1-.342 1.135zM11.393 29.26a.619.619 0 0 1-.342-1.135l2.788-1.845a.619.619 0 0 1 .683 1.032l-2.788 1.845a.617.617 0 0 1-.341.102zM29.607 29.26a.617.617 0 0 1-.34-.103l-2.79-1.845a.619.619 0 1 1 .684-1.032l2.788 1.845a.619.619 0 0 1-.342 1.134z"/>
            </g>
        </g>
        <g transform="translate(343 172)">
            <rect width="81" height="25" fill="#F8F8FF" rx="2"/>
            <text fill="#252945" font-family="Avenir-Medium, Avenir" font-size="14" font-weight="400">
                <tspan x="13.511" y="17">Curators</tspan>
            </text>
        </g>
        <g transform="translate(498 217)">
            <rect width="131" height="25" fill="#EAEEFF" rx="2"/>
            <text fill="#252945" font-family="Avenir-Medium, Avenir" font-size="14" font-weight="400">
                <tspan x="37.097" y="17">Available</tspan>
            </text>
        </g>
        <g transform="translate(343 217)">
            <rect width="81" height="25" fill="#EAEEFF" rx="2"/>
            <text fill="#252945" font-family="Avenir-Medium, Avenir" font-size="14" font-weight="400">
                <tspan x="15.489" y="17">Reliable</tspan>
            </text>
        </g>
        <g>
            <path fill="url(#M)" d="M54.549 23.03c-2.31-2.36-3.787-5.962-3.787-9.997 0-7.114 1.507-12.88 10.25-12.88s10.25 5.766 10.25 12.88c0 3.943-1.41 7.472-3.631 9.835 11.643 2.227 13.182 5.804 13.371 17.956.012.788.019.924.022.854v.957s-2.875 5.907-19.524 5.907c-16.648 0-19.522-5.907-19.522-5.907 0-.687-.001-1.08-.002-1.294.003.114.012.062.03-.917.212-11.544 1.77-15.178 12.543-17.393zm-41 0c-2.31-2.36-3.787-5.962-3.787-9.997 0-7.114 1.507-12.88 10.25-12.88s10.25 5.766 10.25 12.88c0 3.943-1.41 7.472-3.631 9.835 11.643 2.227 13.182 5.804 13.371 17.956.012.788.019.924.022.854v.957s-2.875 5.907-19.524 5.907C3.852 48.542.978 42.635.978 42.635c0-.687-.001-1.08-.002-1.294.003.114.012.062.03-.917.212-11.544 1.77-15.178 12.543-17.393z" transform="translate(342 96)"/>
            <path fill="#000" fill-rule="nonzero" d="M342.977 137.71c-.002-.407-.003-.114 0 0zM382.022 137.79c.006-.11.002-.772 0 0z"/>
            <g fill="#000" fill-rule="nonzero">
                <path d="M383.977 137.71c-.002-.407-.003-.114 0 0zM423.022 137.79c.006-.11.002-.772 0 0z"/>
            </g>
            <g>
                <path fill="url(#N)" d="M13.549 23.03c-2.31-2.36-3.787-5.962-3.787-9.997 0-7.114 1.507-12.88 10.25-12.88s10.25 5.766 10.25 12.88c0 3.943-1.41 7.472-3.631 9.835 11.643 2.227 13.182 5.804 13.371 17.956.012.788.019.924.022.854v.957s-2.875 5.907-19.524 5.907C3.852 48.542.978 42.635.978 42.635c0-.687-.001-1.08-.002-1.294.003.114.012.062.03-.917.212-11.544 1.77-15.178 12.543-17.393z" transform="translate(362.5 103.25)"/>
                <path fill="#000" fill-rule="nonzero" d="M363.477 144.96c-.002-.407-.003-.114 0 0zM402.522 145.04c.006-.11.002-.772 0 0z"/>
            </g>
        </g>
        <g>
            <g transform="translate(498 172)">
                <rect width="131" height="25" fill="#F8F8FF" rx="2"/>
                <text fill="#252945" font-family="Avenir-Medium, Avenir" font-size="14" font-weight="400">
                    <tspan x="9.23" y="17">High Quality Data</tspan>
                </text>
            </g>
            <g fill-rule="nonzero" transform="translate(535 96)">
                <ellipse cx="28.91" cy="46.797" fill="url(#O)" rx="28.91" ry="9.824"/>
                <path fill="url(#P)" d="M28.91 46.523c15.967 0 28.91-4.207 28.91-9.397 0-2.356-2.669-4.51-7.077-6.159-5.301-1.983-13.117-3.237-21.833-3.237C12.943 27.73 0 31.937 0 37.126c0 5.19 12.943 9.397 28.91 9.397z"/>
                <ellipse cx="28.91" cy="27.883" fill="url(#Q)" rx="28.91" ry="9.397"/>
                <ellipse cx="28.91" cy="18.64" fill="url(#R)" rx="28.91" ry="9.397"/>
                <ellipse cx="28.91" cy="9.397" fill="url(#S)" rx="28.91" ry="9.397"/>
            </g>
        </g>
    </g>
</svg>
