<svg xmlns="http://www.w3.org/2000/svg" width="272" height="125" viewBox="0 0 272 125">
    <g fill="none" fill-rule="evenodd">
        <path fill="#2D314D" fill-rule="nonzero" d="M5 2h28.954L53.2 79.59h.34L78.749 2h24.696l25.037 79.641h.34L149.09 2H176l-35.256 121H117.07L90.5 39.257h-.34L63.59 123H40.767L5 2zm207.45 47.693h8.375c2.393 0 4.729-.171 7.008-.513 2.279-.341 4.359-.996 6.239-1.963a11.637 11.637 0 0 0 4.53-4.099c1.139-1.764 1.708-4.07 1.708-6.916 0-3.643-1.452-6.66-4.358-9.05-2.906-2.391-6.467-3.586-10.683-3.586-3.988 0-7.293 1.081-9.913 3.244-2.621 2.163-4.33 4.838-5.128 8.026l-28.202-5.806c1.367-5.237 3.418-9.705 6.153-13.405 2.735-3.7 5.982-6.688 9.742-8.965 3.76-2.277 7.948-3.956 12.563-5.038C215.1.541 219.971 0 225.098 0c5.356 0 10.512.655 15.469 1.964 4.957 1.309 9.315 3.358 13.075 6.147 3.76 2.79 6.752 6.29 8.974 10.502 2.222 4.213 3.333 9.222 3.333 15.028 0 6.717-1.766 12.466-5.299 17.247-3.532 4.781-8.66 7.855-15.383 9.221v.513c3.647.455 6.866 1.536 9.657 3.244 2.792 1.708 5.157 3.814 7.094 6.318 1.937 2.505 3.418 5.351 4.444 8.539C267.487 81.91 268 85.269 268 88.798c0 6.034-1.168 11.327-3.504 15.881-2.336 4.554-5.47 8.339-9.4 11.356-3.932 3.017-8.547 5.265-13.846 6.745-5.298 1.48-10.91 2.22-16.835 2.22-10.826 0-20.14-2.505-27.946-7.514-7.806-5.009-12.962-12.92-15.469-23.736l27.006-6.318c.911 4.326 2.763 7.741 5.555 10.246 2.792 2.504 6.922 3.756 12.392 3.756 5.583 0 9.714-1.451 12.392-4.354 2.678-2.903 4.016-6.631 4.016-11.185 0-3.416-.712-6.062-2.136-7.94-1.424-1.88-3.276-3.274-5.555-4.185-2.279-.91-4.843-1.451-7.692-1.622-2.848-.17-5.697-.256-8.546-.256h-5.982v-22.2z"/>
        <text fill="#FFF" font-family="Avenir-Heavy, Avenir" font-size="31" font-weight="600">
            <tspan x=".193" y="72">Web3 Data Source</tspan>
        </text>
    </g>
</svg>
