<?xml version="1.0" encoding="UTF-8"?>
<svg width="21px" height="24px" viewBox="0 0 21 24" version="1.1" xmlns="http://www.w3.org/2000/svg" xmlns:xlink="http://www.w3.org/1999/xlink">
    <!-- Generator: Sketch 57.1 (83088) - https://sketch.com -->
    <title>shield (1)</title>
    <desc>Created with Sketch.</desc>
    <g id="Hi-fi-Mockup" stroke="none" stroke-width="1" fill="none" fill-rule="evenodd">
        <g id="Fore-Developer" transform="translate(-735.000000, -567.000000)" fill-rule="nonzero">
            <g id="Group-20" transform="translate(735.500000, 567.000000)">
                <g id="shield-(1)">
                    <path d="M19.3817138,16.0270386 C18.7366333,17.7753296 17.7610474,19.2954712 16.4816895,20.5447998 C15.0254517,21.9667969 13.1185913,23.0967407 10.8140259,23.902771 C10.7384033,23.9291382 10.6594849,23.9507446 10.5802002,23.9666748 C10.4754638,23.9873657 10.3688965,23.9985352 10.2632446,24 L10.2425537,24 C10.1299439,24 10.0167847,23.9886474 9.90454102,23.9666748 C9.82525636,23.9507446 9.7474365,23.9291382 9.67218019,23.9033203 C7.36486819,23.0985718 5.45562745,21.9691772 3.99792478,20.5471802 C2.71801758,19.2978516 1.74261473,17.7786255 1.09844972,16.0303345 C-0.072876,12.8516235 -0.0062255625,9.34991456 0.0474243281,6.53594972 L0.0483398437,6.49273683 C0.0591430781,6.260376 0.0661010625,6.01629637 0.0699463125,5.74676512 C0.0895385625,4.42346194 1.14166261,3.32867433 2.46514894,3.25488281 C5.22454833,3.10089112 7.35919191,2.20092773 9.18310547,0.42315675 L9.19903566,0.408508312 C9.50189208,0.130737281 9.88348387,-0.0054931875 10.2632446,1.28130749e-05 C10.6294556,0.00494385937 10.9942017,0.140991187 11.2862549,0.408508312 L11.3018189,0.42315675 C13.1260987,2.20092773 15.2607422,3.10089112 18.0201416,3.25488281 C19.3436279,3.32867433 20.395752,4.42346194 20.4153442,5.74676512 C20.4191895,6.01812745 20.4261474,6.26184084 20.4369507,6.49273683 L20.4375,6.51104737 C20.4909668,9.33032227 20.557251,12.8389893 19.3817138,16.0270386 Z" id="Path" fill="#33CF41"></path>
                    <path d="M19.3817138,16.0270386 C18.7366333,17.7753296 17.7610474,19.2954712 16.4816895,20.5447998 C15.0254517,21.9667969 13.1185913,23.0967407 10.8140259,23.902771 C10.7384033,23.9291382 10.6594849,23.9507446 10.5802002,23.9666748 C10.4754638,23.9873657 10.3688965,23.9985352 10.2632446,24 L10.2632446,0.000183105469 C10.6294556,0.00494385937 10.9942017,0.140991187 11.2862549,0.408508312 L11.3018189,0.42315675 C13.1260987,2.20092773 15.2607422,3.10089112 18.0201416,3.25488281 C19.3436279,3.32867433 20.395752,4.42346194 20.4153442,5.74676512 C20.4191895,6.01812745 20.4261474,6.26184084 20.4369507,6.49273683 L20.4375,6.51104737 C20.4909668,9.33032227 20.557251,12.8389893 19.3817138,16.0270386 Z" id="Path" fill="#13B721"></path>
                    <path d="M16.2235107,12 C16.2235107,15.2909546 13.5514526,17.9697876 10.2632446,17.9815064 L10.2421875,17.9815064 C6.94427489,17.9815064 4.26068114,15.2980957 4.26068114,12 C4.26068114,8.70208739 6.94427489,6.01867678 10.2421875,6.01867678 L10.2632446,6.01867678 C13.5514526,6.03039553 16.2235107,8.70922852 16.2235107,12 Z" id="Path" fill="#FFFFFF"></path>
                    <path d="M16.2235107,12 C16.2235107,15.2909546 13.5514526,17.9697876 10.2632446,17.9815064 L10.2632446,6.01867678 C13.5514526,6.03039553 16.2235107,8.70922852 16.2235107,12 Z" id="Path" fill="#E1EBF0"></path>
                    <path d="M12.9570923,11.1386719 L10.2632446,13.8328857 L9.68115234,14.414978 C9.54364012,14.5524902 9.36328125,14.6211548 9.18310547,14.6211548 C9.00274659,14.6211548 8.82257081,14.5524902 8.6848755,14.414978 L7.43334961,13.1629028 C7.15832522,12.8878784 7.15832522,12.4423828 7.43334961,12.1671753 C7.70800781,11.8921509 8.15405273,11.8921509 8.42907712,12.1671753 L9.18310547,12.9212036 L11.9613647,10.1429443 C12.2363892,9.86773683 12.6824341,9.86773683 12.9570923,10.1429443 C13.2321167,10.4179687 13.2321167,10.8640137 12.9570923,11.1386719 Z" id="Path" fill="#54B15C"></path>
                    <path d="M12.9570923,11.1386719 L10.2632446,13.8328857 L10.2632446,11.8408814 L11.9613647,10.1429443 C12.2363892,9.86773683 12.6824341,9.86773683 12.9570923,10.1429443 C13.2321167,10.4179687 13.2321167,10.8640137 12.9570923,11.1386719 Z" id="Path" fill="#278930"></path>
                </g>
            </g>
        </g>
    </g>
</svg>