<?xml version="1.0" encoding="UTF-8"?>
<svg width="2072px" height="167px" viewBox="0 0 2072 167" version="1.1" xmlns="http://www.w3.org/2000/svg" xmlns:xlink="http://www.w3.org/1999/xlink">
    <!-- Generator: Sketch 57.1 (83088) - https://sketch.com -->
    <title>Group 2</title>
    <desc>Created with Sketch.</desc>
    <g id="Hi-fi-Mockup" stroke="none" stroke-width="1" fill="none" fill-rule="evenodd">
        <g id="Group-2" transform="translate(-4.000000, 0.000000)" fill="#CAD6FF">
            <g id="Group">
                <path d="M535.983748,76.1032521 L601.640514,44.6394198 C602.180092,44.3808447 602.770806,44.2466133 603.369142,44.2466133 L687.785663,44.2466133 C688.396008,44.2466133 688.998259,44.3862852 689.546299,44.654934 L757.900407,78.1620248 C759.884037,79.1343973 760.703822,81.5307106 759.73145,83.5143403 C759.336065,84.320921 758.680696,84.970939 757.870901,85.3596976 L689.534056,118.166177 C688.993813,118.425532 688.402199,118.560184 687.802926,118.560184 L603.454835,118.560184 C602.801689,118.560184 602.158478,118.400243 601.581399,118.094337 L535.838939,83.2445985 C533.887081,82.2099282 533.143552,79.7888681 534.178223,77.8370094 C534.57908,77.0808101 535.21192,76.473125 535.983748,76.1032521 Z" id="Path-8-Copy-2" fill-opacity="0.75"></path>
                <path d="M183.375681,76.1032521 L249.032448,44.6394198 C249.572026,44.3808447 250.16274,44.2466133 250.761076,44.2466133 L335.177597,44.2466133 C335.787941,44.2466133 336.390192,44.3862852 336.938233,44.654934 L405.29234,78.1620248 C407.27597,79.1343973 408.095756,81.5307106 407.123383,83.5143403 C406.727999,84.320921 406.072629,84.970939 405.262834,85.3596976 L336.92599,118.166177 C336.385747,118.425532 335.794132,118.560184 335.19486,118.560184 L250.846768,118.560184 C250.193622,118.560184 249.550412,118.400243 248.973332,118.094337 L183.230873,83.2445985 C181.279014,82.2099282 180.535486,79.7888681 181.570156,77.8370094 C181.971014,77.0808101 182.603853,76.473125 183.375681,76.1032521 Z" id="Path-8-Copy-6" fill-opacity="0.75"></path>
                <path d="M358.758479,31.8566388 L424.415245,0.392806504 C424.954824,0.134231447 425.545537,-4.60753653e-14 426.143873,-2.84217094e-14 L510.560394,-2.84217094e-14 C511.170739,-8.00481763e-14 511.77299,0.139671947 512.321031,0.408320749 L580.675138,33.9154115 C582.658768,34.8877841 583.478554,37.2840974 582.506181,39.267727 C582.110796,40.0743077 581.455427,40.7243257 580.645632,41.1130843 L512.308787,73.9195638 C511.768544,74.1789184 511.17693,74.3135703 510.577658,74.3135703 L426.229566,74.3135703 C425.57642,74.3135703 424.93321,74.1536302 424.35613,73.8477232 L358.613671,38.9979852 C356.661812,37.963315 355.918284,35.5422548 356.952954,33.5903961 C357.353811,32.8341968 357.986651,32.2265117 358.758479,31.8566388 Z" id="Path-8-Copy-10"></path>
                <path d="M706.455549,123.856639 L772.112315,92.3928065 C772.651894,92.1342314 773.242607,92 773.840943,92 L858.257464,92 C858.867809,92 859.47006,92.1396719 860.018101,92.4083207 L928.372208,125.915411 C930.355838,126.887784 931.175624,129.284097 930.203251,131.267727 C929.807866,132.074308 929.152497,132.724326 928.342702,133.113084 L860.005857,165.919564 C859.465614,166.178918 858.874,166.31357 858.274728,166.31357 L773.926636,166.31357 C773.27349,166.31357 772.63028,166.15363 772.0532,165.847723 L706.310741,130.997985 C704.358882,129.963315 703.615354,127.542255 704.650024,125.590396 C705.050881,124.834197 705.683721,124.226512 706.455549,123.856639 Z" id="Path-8-Copy-8" fill-opacity="0.5"></path>
                <path d="M7.15151541,118.808804 L72.808282,87.344972 C73.3478603,87.086397 73.9385742,86.9521655 74.5369101,86.9521655 L158.953431,86.9521655 C159.563776,86.9521655 160.166027,87.0918375 160.714067,87.3604863 L229.068175,120.867577 C231.051805,121.83995 231.87159,124.236263 230.899218,126.219893 C230.503833,127.026473 229.848464,127.676491 229.038668,128.06525 L160.701824,160.871729 C160.161581,161.131084 159.569967,161.265736 158.970694,161.265736 L74.6226028,161.265736 C73.9694565,161.265736 73.3262463,161.105796 72.7491666,160.799889 L7.00670731,125.950151 C5.05484855,124.91548 4.31132035,122.49442 5.3459906,120.542562 C5.74684792,119.786362 6.37968773,119.178677 7.15151541,118.808804 Z" id="Path-8-Copy-36" fill-opacity="0.5"></path>
            </g>
            <g id="Group-Copy" transform="translate(1145.000000, 0.000000)">
                <path d="M535.983748,76.1032521 L601.640514,44.6394198 C602.180092,44.3808447 602.770806,44.2466133 603.369142,44.2466133 L687.785663,44.2466133 C688.396008,44.2466133 688.998259,44.3862852 689.546299,44.654934 L757.900407,78.1620248 C759.884037,79.1343973 760.703822,81.5307106 759.73145,83.5143403 C759.336065,84.320921 758.680696,84.970939 757.870901,85.3596976 L689.534056,118.166177 C688.993813,118.425532 688.402199,118.560184 687.802926,118.560184 L603.454835,118.560184 C602.801689,118.560184 602.158478,118.400243 601.581399,118.094337 L535.838939,83.2445985 C533.887081,82.2099282 533.143552,79.7888681 534.178223,77.8370094 C534.57908,77.0808101 535.21192,76.473125 535.983748,76.1032521 Z" id="Path-8-Copy-2" fill-opacity="0.75"></path>
                <path d="M183.375681,76.1032521 L249.032448,44.6394198 C249.572026,44.3808447 250.16274,44.2466133 250.761076,44.2466133 L335.177597,44.2466133 C335.787941,44.2466133 336.390192,44.3862852 336.938233,44.654934 L405.29234,78.1620248 C407.27597,79.1343973 408.095756,81.5307106 407.123383,83.5143403 C406.727999,84.320921 406.072629,84.970939 405.262834,85.3596976 L336.92599,118.166177 C336.385747,118.425532 335.794132,118.560184 335.19486,118.560184 L250.846768,118.560184 C250.193622,118.560184 249.550412,118.400243 248.973332,118.094337 L183.230873,83.2445985 C181.279014,82.2099282 180.535486,79.7888681 181.570156,77.8370094 C181.971014,77.0808101 182.603853,76.473125 183.375681,76.1032521 Z" id="Path-8-Copy-6" fill-opacity="0.75"></path>
                <path d="M358.758479,31.8566388 L424.415245,0.392806504 C424.954824,0.134231447 425.545537,-4.60753653e-14 426.143873,-2.84217094e-14 L510.560394,-2.84217094e-14 C511.170739,-8.00481763e-14 511.77299,0.139671947 512.321031,0.408320749 L580.675138,33.9154115 C582.658768,34.8877841 583.478554,37.2840974 582.506181,39.267727 C582.110796,40.0743077 581.455427,40.7243257 580.645632,41.1130843 L512.308787,73.9195638 C511.768544,74.1789184 511.17693,74.3135703 510.577658,74.3135703 L426.229566,74.3135703 C425.57642,74.3135703 424.93321,74.1536302 424.35613,73.8477232 L358.613671,38.9979852 C356.661812,37.963315 355.918284,35.5422548 356.952954,33.5903961 C357.353811,32.8341968 357.986651,32.2265117 358.758479,31.8566388 Z" id="Path-8-Copy-10"></path>
                <path d="M706.455549,123.856639 L772.112315,92.3928065 C772.651894,92.1342314 773.242607,92 773.840943,92 L858.257464,92 C858.867809,92 859.47006,92.1396719 860.018101,92.4083207 L928.372208,125.915411 C930.355838,126.887784 931.175624,129.284097 930.203251,131.267727 C929.807866,132.074308 929.152497,132.724326 928.342702,133.113084 L860.005857,165.919564 C859.465614,166.178918 858.874,166.31357 858.274728,166.31357 L773.926636,166.31357 C773.27349,166.31357 772.63028,166.15363 772.0532,165.847723 L706.310741,130.997985 C704.358882,129.963315 703.615354,127.542255 704.650024,125.590396 C705.050881,124.834197 705.683721,124.226512 706.455549,123.856639 Z" id="Path-8-Copy-8" fill-opacity="0.5"></path>
                <path d="M7.15151541,118.808804 L72.808282,87.344972 C73.3478603,87.086397 73.9385742,86.9521655 74.5369101,86.9521655 L158.953431,86.9521655 C159.563776,86.9521655 160.166027,87.0918375 160.714067,87.3604863 L229.068175,120.867577 C231.051805,121.83995 231.87159,124.236263 230.899218,126.219893 C230.503833,127.026473 229.848464,127.676491 229.038668,128.06525 L160.701824,160.871729 C160.161581,161.131084 159.569967,161.265736 158.970694,161.265736 L74.6226028,161.265736 C73.9694565,161.265736 73.3262463,161.105796 72.7491666,160.799889 L7.00670731,125.950151 C5.05484855,124.91548 4.31132035,122.49442 5.3459906,120.542562 C5.74684792,119.786362 6.37968773,119.178677 7.15151541,118.808804 Z" id="Path-8-Copy-36" fill-opacity="0.5"></path>
            </g>
        </g>
    </g>
</svg>