<svg xmlns="http://www.w3.org/2000/svg" width="67" height="43" viewBox="0 0 67 43">
    <g fill="none" fill-rule="nonzero">
        <path fill="#E39219" d="M18 10l9 5-9 5z"/>
        <path fill="#FFA41C" d="M18.01 9.942l.045 9.933L9.45 14.87z"/>
        <path fill="#FF9100" d="M9 15l9 5-9 5z"/>
        <path fill="#FFEAA3" d="M44 5l9 5-9 5z"/>
        <path fill="#FFDA85" d="M44.329 5.013l.044 9.934-8.605-5.005z"/>
        <path fill="#FFCB70" d="M35 10l9 5-9 5z"/>
        <path fill="#FFEDB0" d="M52.978.085l.044 9.933-8.604-5.005z"/>
        <path fill="#0CF7CC" d="M49 33l-9-5 9-5z"/>
        <path fill="#85F7EF" d="M49.236 33.058l-.044-9.933 8.605 5.005z"/>
        <path fill="#AAF7F7" d="M58 28l-9-5 9-5z"/>
        <path fill="#09AB8D" d="M23 38l-9-5 9-5z"/>
        <path fill="#099E83" d="M22.918 37.987l-.044-9.934 8.605 5.005z"/>
        <path fill="#088F76" d="M32 33l-9-5 9-5z"/>
        <path fill="#0AB495" d="M14.27 42.915l-.045-9.933 8.605 5.005z"/>
        <path fill="#CF8517" d="M27 25l-9-5 9-5z"/>
        <path fill="#FFAA3B" d="M26.996 24.803l-.045-9.933 8.605 5.005z"/>
        <path fill="#FFC561" d="M36 20l-9-5 9-5z"/>
        <path fill="#0CF7CC" d="M40 18l9 5-9 5z"/>
        <path fill="#067863" d="M40.251 18.197l.045 9.933-8.605-5.005z"/>
        <path fill="#07826B" d="M31 23l9 5-9 5z"/>
        <path fill="#FFEAA3" d="M58 8l9 5-9 5z"/>
        <path fill="#FFDA85" d="M57.92 8.094l.045 9.933-8.605-5.005z"/>
        <path fill="#FFCB70" d="M49 13l9 5-9 5z"/>
        <path fill="#FFEDB0" d="M66.57 3.165l.044 9.933-8.605-5.004z"/>
        <path fill="#09AB8D" d="M10 35l-9-5 9-5z"/>
        <path fill="#099E83" d="M9.327 34.783l-.044-9.933 8.604 5.005z"/>
        <path fill="#088F76" d="M19 30l-9-5 9-5z"/>
        <path fill="#0AB495" d="M.43 39.958l-.044-9.933 8.605 5.005z"/>
    </g>
</svg>
