<svg xmlns="http://www.w3.org/2000/svg" width="116" height="116" viewBox="0 0 116 116">
    <defs>
        <linearGradient id="a" x1="79.74%" x2="22.251%" y1="30.478%" y2="69.168%">
            <stop offset="0%" stop-color="#EFF"/>
            <stop offset="100%" stop-color="#396EFF"/>
        </linearGradient>
        <linearGradient id="b" x1="60.588%" x2="39.982%" y1="0%" y2="99.768%">
            <stop offset="0%" stop-color="#8392FF"/>
            <stop offset="100%" stop-color="#194EFF"/>
        </linearGradient>
        <linearGradient id="c" x1="79.74%" x2="21.86%" y1="30.478%" y2="69.431%">
            <stop offset="0%" stop-color="#EFF"/>
            <stop offset="99.324%" stop-color="#396EFF"/>
        </linearGradient>
    </defs>
    <g fill="none" fill-rule="nonzero">
        <path fill="url(#a)" d="M57.585 39.3L41.69 49.23l15.895 9.932 15.894-9.932z"/>
        <path fill="#2A4BFF" d="M73.458 65.915L57.585 75.87V59.163l15.873-9.932z"/>
        <path fill="url(#b)" d="M41.69 65.915l15.895 9.955V59.163L41.69 49.23z"/>
        <path fill="url(#c)" d="M15.894 0L0 9.932l15.894 9.931L31.79 9.932z"/>
        <path fill="#2A4BFF" d="M31.768 26.616L15.894 36.57V19.863l15.874-9.931z"/>
        <path fill="url(#b)" d="M0 26.616l15.894 9.954V19.863L0 9.932z"/>
        <path fill="url(#a)" d="M99.275 0L83.381 9.932l15.894 9.931 15.894-9.931z"/>
        <path fill="#2A4BFF" d="M115.15 26.616L99.274 36.57V19.863l15.874-9.931z"/>
        <path fill="url(#b)" d="M83.38 26.616l15.895 9.954V19.863L83.381 9.932z"/>
        <path fill="url(#c)" d="M15.894 78.599L0 88.531l15.894 9.931 15.895-9.931z"/>
        <path fill="#2A4BFF" d="M31.768 105.216l-15.874 9.953V98.462l15.874-9.931z"/>
        <path fill="url(#b)" d="M0 105.216l15.894 9.953V98.462L0 88.531z"/>
        <path fill="url(#c)" d="M99.275 78.599l-15.894 9.932 15.894 9.931 15.894-9.931z"/>
        <path fill="#2A4BFF" d="M115.15 105.216l-15.875 9.953V98.462l15.874-9.931z"/>
        <path fill="url(#b)" d="M83.38 105.216l15.895 9.953V98.462l-15.894-9.931z"/>
        <g fill="#ABBBFF">
            <path d="M73.053 19.117H42a1.738 1.738 0 1 1 0-3.475h31.052a1.738 1.738 0 1 1 0 3.475zM73.169 99.527H42.117a1.738 1.738 0 1 1 0-3.475h31.052a1.738 1.738 0 1 1 0 3.475zM99.18 69.644c-.96 0-1.738-.779-1.738-1.738v-20.72a1.738 1.738 0 1 1 3.476 0v20.72c0 .959-.778 1.738-1.738 1.738zM15.99 69.72c-.96 0-1.739-.778-1.739-1.737v-20.72a1.738 1.738 0 0 1 3.476 0v20.72c0 .96-.777 1.738-1.738 1.738zM75.336 42.796a1.738 1.738 0 0 1-.96-3.188l7.833-5.18a1.738 1.738 0 1 1 1.917 2.898l-7.832 5.182a1.732 1.732 0 0 1-.958.288zM39.833 42.796c-.33 0-.663-.093-.958-.288l-7.832-5.182a1.738 1.738 0 1 1 1.918-2.899l7.832 5.18a1.738 1.738 0 0 1-.96 3.189zM32.003 82.19a1.737 1.737 0 0 1-.96-3.188l7.832-5.181a1.738 1.738 0 0 1 1.918 2.898l-7.832 5.182c-.295.195-.629.29-.958.29zM83.166 82.19c-.33 0-.662-.094-.957-.289l-7.833-5.182a1.738 1.738 0 1 1 1.918-2.898l7.833 5.181a1.738 1.738 0 0 1-.96 3.188z"/>
        </g>
    </g>
</svg>
