<svg xmlns="http://www.w3.org/2000/svg" width="100" height="91" viewBox="0 0 100 91">
    <defs>
        <linearGradient id="a" x1="0%" x2="99.393%" y1="32.569%" y2="32.569%">
            <stop offset="0%" stop-color="#4860FF"/>
            <stop offset="100%" stop-color="#378EFF"/>
        </linearGradient>
        <linearGradient id="b" x1="50%" x2="50%" y1="0%" y2="100%">
            <stop offset="0%" stop-color="#F5F7FF"/>
            <stop offset="100%" stop-color="#CCDCFF"/>
        </linearGradient>
    </defs>
    <g fill="none" fill-rule="evenodd">
        <path fill="url(#a)" d="M50 77.615c-24.852 0-45-5.24-45-10.615v12.378C5.014 84.748 25.155 90 50 90s44.986-5.251 45-10.622V67c0 5.375-20.148 10.615-45 10.615" transform="matrix(-1 0 0 1 100 .917)"/>
        <path fill="url(#a)" d="M45 39.615c-24.852 0-45-5.24-45-10.615v12.378C.014 46.748 20.155 52 45 52s44.986-5.251 45-10.622V29c0 5.375-20.148 10.615-45 10.615" transform="matrix(-1 0 0 1 90 .917)"/>
        <path fill="#B8C2FF" fill-rule="nonzero" d="M49 78.917v11.99c.498.005.998.01 1.5.01s1.002-.005 1.5-.01v-11.99c-.498.005-.998.01-1.5.01s-1.002-.005-1.5-.01zm21-2c-.652.1-1.313.195-1.984.286L67 77.335v12.582a94.983 94.983 0 0 0 2.015-.27L70 89.5V76.917zm-40 0V89.5c.652.1 1.313.195 1.984.286l1.016.131V77.333a92.387 92.387 0 0 1-3-.416zm32 1c-.657.052-1.32.1-1.99.141l-1.01.06v11.8c.677-.038 1.347-.08 2.01-.128l.99-.075V77.917zm-24 0v11.798c.657.052 1.32.1 1.99.142l1.01.06v-11.8a126.263 126.263 0 0 1-3-.2zm41-2c-.72.176-1.463.345-2.228.507l-.772.16v12.333c.78-.157 1.537-.321 2.272-.492L79 88.25V75.917zm-58 0V88.25c.72.176 1.463.345 2.228.508l.772.16V76.584c-1.04-.21-2.04-.432-3-.667zm67-2c-.76.317-1.58.624-2.463.921l-.537.177v11.902a40.1 40.1 0 0 0 2.537-.91l.463-.189v-11.9zm-75 0v11.901c.76.318 1.58.626 2.463.923l.537.176V75.015a37.943 37.943 0 0 1-3-1.098zm-6-2v11.901c.76.318 1.58.626 2.463.923l.537.176V73.015a37.943 37.943 0 0 1-3-1.098zm36-31v11.99c.498.005.998.01 1.5.01l.752-.003.748-.007v-11.99c-.498.005-.998.01-1.5.01s-1.002-.005-1.5-.01zm22-2c-.652.1-1.313.195-1.984.286L62 39.335v12.582a94.983 94.983 0 0 0 2.015-.27L65 51.5V38.917zm-41 0V51.5c.652.1 1.313.195 1.984.286l1.016.131V39.333a92.387 92.387 0 0 1-3-.416zm33 1c-.657.052-1.32.1-1.99.141l-1.01.06v11.8c.677-.038 1.347-.08 2.01-.128l.99-.075V39.917zm-24 0v11.798c.657.052 1.32.1 1.99.142l1.01.06v-11.8a126.263 126.263 0 0 1-3-.2zm41-2c-.72.176-1.463.345-2.228.507l-.772.16v12.333c.78-.157 1.537-.321 2.272-.492L74 50.25V37.917zm-58 0V50.25c.72.176 1.463.345 2.228.508l.772.16V38.584c-1.04-.21-2.04-.432-3-.667zm67-2c-.76.317-1.58.624-2.463.921l-.537.177v11.902a39.023 39.023 0 0 0 2.537-.91l.463-.189v-11.9zm-76 0v11.901c.76.318 1.58.626 2.463.923l.537.176V37.015a37.943 37.943 0 0 1-3-1.098z"/>
        <path fill="url(#a)" d="M55 58.615c-24.852 0-45-5.24-45-10.615v12.378C10.014 65.748 30.155 71 55 71s44.986-5.251 45-10.622V48c0 5.375-20.148 10.615-45 10.615" transform="matrix(-1 0 0 1 110 .917)"/>
        <path fill="url(#b)" fill-rule="nonzero" d="M88.444 63C92.603 64.347 95 65.975 95 67.795 95 73.076 74.854 78 50 78 25.148 78 5 73.076 5 67.795c0-.725.393-1.42 1.115-2.078 7.845 3.064 22.233 5.329 38.693 5.329 21.051 0 38.72-3.703 43.636-8.046zM10.776 43c2.87 4.77 21.74 9.106 44.609 9.106C70 52.106 81.746 50.313 90 48c.078.224 0 .652 0 .883C90 54.117 69.852 59 45 59S0 54.117 0 48.883c0-2.35 4.062-4.368 10.776-5.883zm77.097-20C95.39 24.513 100 26.604 100 29.062 100 34.206 79.852 40 55 40s-45-5.794-45-10.938c0-.728.417-1.422 1.18-2.082 8.237 2.12 20.164 3.555 33.435 3.555 20.552 0 37.873-3.438 43.258-7.535zM45 0c24.852 0 45 3.613 45 8.86S69.852 19 45 19 0 14.107 0 8.86C0 3.614 20.148 0 45 0z" transform="matrix(-1 0 0 1 100 .917)"/>
        <path fill="url(#a)" d="M55 18.615c-24.852 0-45-5.24-45-10.615v12.378C10.014 25.748 30.155 31 55 31s44.986-5.251 45-10.622V8c0 5.375-20.148 10.615-45 10.615" transform="matrix(-1 0 0 1 110 .917)"/>
        <path fill="#B8C2FF" fill-rule="nonzero" d="M54 59.917v11.99c.498.005.998.01 1.5.01s1.002-.005 1.5-.01v-11.99c-.498.005-.998.01-1.5.01s-1.002-.005-1.5-.01zm22-2c-.652.1-1.313.195-1.984.286L73 58.335v12.582a94.983 94.983 0 0 0 2.015-.27L76 70.5V57.917zm-41 0V70.5c.652.1 1.313.195 1.984.286l1.016.131V58.333a92.387 92.387 0 0 1-3-.416zm32 1c-.657.052-1.32.1-1.99.141l-1.01.06v11.8c.677-.038 1.347-.08 2.01-.128l.99-.075V58.917zm-24 0v11.798c.657.052 1.32.1 1.99.142l1.01.06v-11.8a126.263 126.263 0 0 1-3-.2zm41-2c-.72.176-1.463.345-2.228.507l-.772.16v12.333c.78-.157 1.537-.321 2.272-.492L84 69.25V56.917zm-58 0V69.25c.72.176 1.463.345 2.228.508l.772.16V57.584c-1.04-.21-2.04-.432-3-.667zm67-2c-.76.317-1.58.624-2.463.921l-.537.177v11.902a40.1 40.1 0 0 0 2.537-.91l.463-.189v-11.9zm-76 0v11.901c.76.318 1.58.626 2.463.923l.537.176V56.015a37.943 37.943 0 0 1-3-1.098zm50-35c-.657.052-1.32.1-1.99.141l-1.01.06v11.8c.677-.038 1.347-.08 2.01-.128l.99-.075V19.917zm-24 0v11.798c.657.052 1.32.1 1.99.142l1.01.06v-11.8a126.263 126.263 0 0 1-3-.2zm11 0v11.99c.498.005.998.01 1.5.01l.752-.003.748-.007v-11.99c-.498.005-.998.01-1.5.01s-1.002-.005-1.5-.01zm22-2c-.652.1-1.313.196-1.984.287l-1.016.13v12.583a94.983 94.983 0 0 0 2.015-.27L76 30.5V17.917zm-41 0V30.5c.652.1 1.313.195 1.984.286l1.016.131v-12.58a92.29 92.29 0 0 1-3-.42zm49-1c-.72.176-1.463.345-2.228.507l-.772.16v12.333c.78-.157 1.537-.321 2.272-.492L84 29.25V16.917zm-58 0V29.25c.72.176 1.463.345 2.228.508l.772.16V17.584c-1.04-.21-2.04-.432-3-.667zm67-2c-.76.317-1.58.624-2.463.921l-.537.177v11.902a39.023 39.023 0 0 0 2.537-.91l.463-.189v-11.9zm-76 0v11.901c.76.318 1.58.626 2.463.923l.537.176V16.015a37.943 37.943 0 0 1-3-1.098z"/>
    </g>
</svg>
