<?xml version="1.0" encoding="UTF-8"?>
<svg width="36px" height="36px" viewBox="0 0 36 36" version="1.1" xmlns="http://www.w3.org/2000/svg" xmlns:xlink="http://www.w3.org/1999/xlink">
    <!-- Generator: Sketch 57.1 (83088) - https://sketch.com -->
    <title>path copy 3</title>
    <desc>Created with Sketch.</desc>
    <g id="Hi-fi-Mockup" stroke="none" stroke-width="1" fill="none" fill-rule="evenodd">
        <g id="Navbar-&gt;-Community" transform="translate(-1128.000000, -171.000000)" fill="#FFFFFF" fill-rule="nonzero" stroke="#FFFFFF">
            <g id="path-copy-3" transform="translate(1129.210526, 172.000000)">
                <path d="M31.7212328,8.67903234 C30.2489364,6.05823387 28.1149043,3.87105812 25.5329691,2.33666255 C22.9294741,0.77841403 20.0849147,0 17.002127,0 C13.9165033,0 11.0705259,0.779834494 8.46561288,2.33666255 C5.88463586,3.87134426 3.75159044,6.05851119 2.28018518,8.67903234 C0.760061726,11.3495038 0,14.2642951 0,17.4262469 C0,21.223146 1.08053551,24.6379404 3.24302457,27.6706301 C5.40409559,30.7033198 8.19760604,32.802765 11.6207199,33.9661246 C12.0191851,34.0428296 12.3155524,33.988852 12.5055678,33.8084532 C12.6949557,33.6332336 12.7998418,33.3848008 12.793427,33.1266307 L12.7820828,31.9021911 C12.7755052,31.2293849 12.7721964,30.5565507 12.7721567,29.8837123 L12.2616674,29.9732016 C11.855867,30.0394797 11.4445995,30.0661201 11.0336573,30.0527475 C10.5172427,30.0432882 10.0025536,29.9900677 9.49509947,29.8936556 C8.9530201,29.7911985 8.44396326,29.5581703 8.01184468,29.214674 C7.55441157,28.8581791 7.21531072,28.371431 7.03907912,27.8183583 L6.81786712,27.2970482 C6.63202587,26.8847741 6.39781964,26.4961435 6.12019852,26.1393704 C5.80256079,25.7160723 5.482087,25.4291386 5.15735914,25.277149 L5.00137632,25.1635119 C4.89527473,25.0844955 4.7990968,24.9929217 4.71493515,24.8907829 C4.63327655,24.7957658 4.56635308,24.688983 4.51641156,24.5740196 C4.47103474,24.4674848 4.50790341,24.3808365 4.62559953,24.3126543 C4.74471368,24.244472 4.95741753,24.2103809 5.26796513,24.2103809 L5.71038912,24.2785631 C6.00533845,24.3396431 6.37118906,24.5200419 6.80652292,24.8226007 C7.24185678,25.1251594 7.60061726,25.5186278 7.8799683,26.0015854 C8.22029445,26.622328 8.62868582,27.0953424 9.10797848,27.422049 C9.58727113,27.7459147 10.0722359,27.909268 10.5586187,27.909268 C11.0450015,27.909268 11.4661551,27.8709155 11.8206615,27.7956309 C12.1737498,27.7203463 12.5055678,27.6067093 12.8161154,27.4547197 C12.9494099,26.4405087 13.3110064,25.6620947 13.900905,25.1180571 C13.1351815,25.0408151 12.3766142,24.9040382 11.6320641,24.7089636 C10.9035061,24.5036453 10.2039983,24.206273 9.55040247,23.8240148 C8.86281751,23.4394972 8.25760962,22.9230276 7.76936231,22.3041188 C7.29715978,21.6990013 6.91003879,20.9049622 6.60658131,19.9205809 C6.30454185,18.9376202 6.15281311,17.8040902 6.15281311,16.5171503 C6.15281311,14.6875932 6.73703966,13.1293447 7.90265671,11.8438252 C7.35671685,10.4659755 7.40634775,8.92477254 8.0572215,7.21453441 C8.48546524,7.07816991 9.12074071,7.18044329 9.96021187,7.52135454 C10.8025191,7.8622658 11.4179422,8.15346083 11.8093173,8.39493963 C12.2006923,8.63641844 12.514076,8.84096519 12.7494682,9.00715943 C14.131631,8.61276372 15.5621489,8.41433677 16.999291,8.41766705 C18.4598574,8.41766705 19.877883,8.61369102 21.2505318,9.00715943 L22.0914209,8.46312188 C22.7366067,8.06554972 23.418516,7.7311441 24.1277057,7.464536 C24.9090378,7.16197726 25.5074446,7.07816991 25.9215081,7.21453441 C26.5851441,8.92477254 26.6447012,10.467396 26.0973433,11.8438252 C27.2629603,13.1293447 27.8471869,14.6875932 27.8471869,16.5171503 C27.8471869,17.8040902 27.6954581,18.9418816 27.3934187,19.9319447 C27.0899612,20.9234282 26.6985861,21.7174673 26.2207115,22.3154825 C25.7400008,22.9120772 25.1430121,23.4163418 24.4269091,23.8240148 C23.7736694,24.2059839 23.074668,24.5033436 22.3466656,24.7089636 C21.6745214,24.8907829 20.9187138,25.0271474 20.0778246,25.1180571 C20.8435584,25.7984592 21.2278433,26.8723296 21.2278433,28.3396685 L21.2278433,33.1266307 C21.2278433,33.3993597 21.320015,33.6266338 21.5043583,33.8084532 C21.6887017,33.988852 21.9808149,34.0414092 22.3792801,33.9647042 C25.803812,32.8013445 28.5959044,30.7033198 30.7569754,27.6692097 C32.9194645,24.63652 34,21.2217256 34,17.4248265 C34,14.2642951 33.2385202,11.3495038 31.7198148,8.67903234 L31.7212328,8.67903234 Z" id="Path"></path>
            </g>
        </g>
    </g>
</svg>