<svg xmlns="http://www.w3.org/2000/svg" width="36" height="36" viewBox="0 0 36 36">
    <path fill="none" fill-rule="nonzero" stroke="#FFF" d="M32.932 9.863a17.145 17.145 0 0 0-6.189-6.342c-2.603-1.558-5.448-2.337-8.53-2.337-3.086 0-5.932.78-8.537 2.337a17.143 17.143 0 0 0-6.185 6.342c-1.52 2.67-2.28 5.586-2.28 8.747 0 3.797 1.08 7.212 3.243 10.245 2.16 3.033 4.954 5.132 8.377 6.295.399.077.695.023.885-.157a.898.898 0 0 0 .288-.682l-.011-1.225c-.007-.672-.01-1.345-.01-2.018l-.51.09a6.34 6.34 0 0 1-1.229.079 9.14 9.14 0 0 1-1.538-.16 3.398 3.398 0 0 1-1.484-.678 2.878 2.878 0 0 1-.972-1.396l-.222-.522c-.185-.412-.42-.8-.697-1.157-.318-.424-.638-.71-.963-.863l-.156-.113a1.642 1.642 0 0 1-.287-.273 1.25 1.25 0 0 1-.198-.317c-.045-.106-.009-.193.11-.261.118-.068.33-.102.641-.102l.443.068c.295.06.66.241 1.096.544.435.302.794.696 1.073 1.179.34.62.75 1.094 1.229 1.42.479.324.964.487 1.45.487.487 0 .908-.038 1.262-.113a4.29 4.29 0 0 0 .996-.341c.133-1.014.495-1.793 1.084-2.337a14.82 14.82 0 0 1-2.268-.409 8.911 8.911 0 0 1-2.082-.885 5.997 5.997 0 0 1-1.781-1.52c-.472-.605-.86-1.399-1.163-2.383-.302-.983-.454-2.117-.454-3.404 0-1.83.585-3.387 1.75-4.673-.546-1.378-.496-2.919.155-4.63.428-.136 1.063-.033 1.903.308.842.34 1.457.632 1.849.873.391.242.705.446.94.612a15.358 15.358 0 0 1 4.25-.59c1.46 0 2.878.197 4.251.59l.84-.544a11.79 11.79 0 0 1 2.037-.998c.782-.303 1.38-.387 1.794-.25.664 1.71.723 3.253.176 4.629 1.165 1.286 1.75 2.844 1.75 4.673 0 1.287-.152 2.425-.454 3.415-.304.992-.695 1.786-1.173 2.384a6.238 6.238 0 0 1-1.794 1.508 8.93 8.93 0 0 1-2.08.885c-.672.182-1.428.318-2.269.41.766.68 1.15 1.754 1.15 3.22v4.788c0 .273.093.5.277.682.184.18.476.233.875.156 3.424-1.163 6.216-3.261 8.378-6.296 2.162-3.032 3.243-6.447 3.243-10.244 0-3.16-.762-6.075-2.28-8.746z"/>
</svg>
