<svg xmlns="http://www.w3.org/2000/svg" xmlns:xlink="http://www.w3.org/1999/xlink" width="461" height="356" viewBox="0 0 461 356">
    <defs>
        <linearGradient id="a" x1="11.094%" x2="92.479%" y1="64.302%" y2="42.954%">
            <stop offset="0%" stop-color="#252C4A"/>
            <stop offset="100%" stop-color="#36406E"/>
        </linearGradient>
        <linearGradient id="b" x1="0%" x2="94.328%" y1="40.768%" y2="59.146%">
            <stop offset="0%" stop-color="#977AFF"/>
            <stop offset="100%" stop-color="#7ADDB7"/>
        </linearGradient>
        <linearGradient id="c" x1="0%" x2="94.766%" y1="46.659%" y2="53.341%">
            <stop offset="0%" stop-color="#7ABEDD"/>
            <stop offset="100%" stop-color="#8EFEEB"/>
        </linearGradient>
        <linearGradient id="d" x1="49.996%" x2="50.004%" y1="0%" y2="98.387%">
            <stop offset="0%" stop-color="#7ABEFF"/>
            <stop offset="100%" stop-color="#7A80DD"/>
        </linearGradient>
        <linearGradient id="g" x1="79.74%" x2="21.725%" y1="43.47%" y2="56.53%">
            <stop offset="0%" stop-color="#434896"/>
            <stop offset="100%" stop-color="#424776"/>
        </linearGradient>
        <ellipse id="f" cx="49.881" cy="69.7" rx="49.881" ry="18.026"/>
        <filter id="e" width="184.2%" height="333%" x="-30.1%" y="-83.2%" filterUnits="objectBoundingBox">
            <feOffset dx="12" dy="12" in="SourceAlpha" result="shadowOffsetOuter1"/>
            <feGaussianBlur in="shadowOffsetOuter1" result="shadowBlurOuter1" stdDeviation="12"/>
            <feColorMatrix in="shadowBlurOuter1" values="0 0 0 0 0.100564579 0 0 0 0 0.0633208873 0 0 0 0 0.252264493 0 0 0 0.508222247 0"/>
        </filter>
        <linearGradient id="h" x1="79.74%" x2="21.725%" y1="43.898%" y2="56.102%">
            <stop offset="0%" stop-color="#585ABF"/>
            <stop offset="100%" stop-color="#494F8C"/>
        </linearGradient>
        <linearGradient id="i" x1="79.74%" x2="21.725%" y1="43.898%" y2="56.102%">
            <stop offset="0%" stop-color="#6E71D7"/>
            <stop offset="100%" stop-color="#535CB9"/>
        </linearGradient>
        <linearGradient id="j" x1="78.343%" x2="21.725%" y1="44.192%" y2="56.102%">
            <stop offset="0%" stop-color="#9098FF"/>
            <stop offset="100%" stop-color="#6A75EA"/>
        </linearGradient>
        <linearGradient id="m" x1="79.74%" x2="22.524%" y1="43.544%" y2="56.278%">
            <stop offset="0%" stop-color="#439680"/>
            <stop offset="100%" stop-color="#38497D"/>
        </linearGradient>
        <ellipse id="l" cx="39.905" cy="55.443" rx="39.905" ry="14.339"/>
        <filter id="k" width="185.2%" height="337.1%" x="-28.8%" y="-80.2%" filterUnits="objectBoundingBox">
            <feOffset dx="11" dy="11" in="SourceAlpha" result="shadowOffsetOuter1"/>
            <feGaussianBlur in="shadowOffsetOuter1" result="shadowBlurOuter1" stdDeviation="9.5"/>
            <feColorMatrix in="shadowBlurOuter1" values="0 0 0 0 0.0141417529 0 0 0 0 0.119151753 0 0 0 0 0.189085145 0 0 0 0.54963396 0"/>
        </filter>
        <linearGradient id="n" x1="79.74%" x2="23.025%" y1="43.967%" y2="55.762%">
            <stop offset="0%" stop-color="#6BC8A9"/>
            <stop offset="100%" stop-color="#49698C"/>
        </linearGradient>
        <linearGradient id="o" x1="22.446%" x2="79.74%" y1="55.883%" y2="43.967%">
            <stop offset="0%" stop-color="#87D6BC"/>
            <stop offset="100%" stop-color="#ACE6D3"/>
        </linearGradient>
        <linearGradient id="p" x1="78.787%" x2="22.566%" y1="44.166%" y2="55.858%">
            <stop offset="0%" stop-color="#ACE6D3"/>
            <stop offset="100%" stop-color="#BDFAF5"/>
        </linearGradient>
        <linearGradient id="s" x1="79.74%" x2="21.725%" y1="43.421%" y2="56.579%">
            <stop offset="0%" stop-color="#437B96"/>
            <stop offset="100%" stop-color="#424E76"/>
        </linearGradient>
        <ellipse id="r" cx="59.857" cy="104.891" rx="59.857" ry="21.713"/>
        <filter id="q" width="184.4%" height="332.6%" x="-30.5%" y="-84.1%" filterUnits="objectBoundingBox">
            <feOffset dx="14" dy="14" in="SourceAlpha" result="shadowOffsetOuter1"/>
            <feGaussianBlur in="shadowOffsetOuter1" result="shadowBlurOuter1" stdDeviation="14.5"/>
            <feColorMatrix in="shadowBlurOuter1" values="0 0 0 0 0.0315714605 0 0 0 0 0.136538037 0 0 0 0 0.200492527 0 0 0 0.508222247 0"/>
        </filter>
        <linearGradient id="t" x1="79.74%" x2="21.725%" y1="43.852%" y2="56.148%">
            <stop offset="0%" stop-color="#49A5AE"/>
            <stop offset="100%" stop-color="#495A8C"/>
        </linearGradient>
        <linearGradient id="u" x1="79.74%" x2="22.316%" y1="43.852%" y2="56.023%">
            <stop offset="0%" stop-color="#67B9D5"/>
            <stop offset="100%" stop-color="#535FB9"/>
        </linearGradient>
        <linearGradient id="v" x1="79.74%" x2="21.725%" y1="43.852%" y2="56.148%">
            <stop offset="0%" stop-color="#75B3F1"/>
            <stop offset="100%" stop-color="#6A75EA"/>
        </linearGradient>
        <linearGradient id="w" x1="79.74%" x2="21.86%" y1="43.852%" y2="56.119%">
            <stop offset="0%" stop-color="#CCD2FF"/>
            <stop offset="100%" stop-color="#6B8BF5"/>
        </linearGradient>
        <filter id="x" width="423.2%" height="370.9%" x="-161.5%" y="-135.3%" filterUnits="objectBoundingBox">
            <feOffset dy="15" in="SourceAlpha" result="shadowOffsetOuter1"/>
            <feGaussianBlur in="shadowOffsetOuter1" result="shadowBlurOuter1" stdDeviation="7.5"/>
            <feColorMatrix in="shadowBlurOuter1" result="shadowMatrixOuter1" values="0 0 0 0 0.131582182 0 0 0 0 0.149171399 0 0 0 0 0.251188859 0 0 0 1 0"/>
            <feMerge>
                <feMergeNode in="shadowMatrixOuter1"/>
                <feMergeNode in="SourceGraphic"/>
            </feMerge>
        </filter>
        <filter id="y" width="417.2%" height="370.6%" x="-158.6%" y="-135.3%" filterUnits="objectBoundingBox">
            <feOffset dy="12" in="SourceAlpha" result="shadowOffsetOuter1"/>
            <feGaussianBlur in="shadowOffsetOuter1" result="shadowBlurOuter1" stdDeviation="6"/>
            <feColorMatrix in="shadowBlurOuter1" result="shadowMatrixOuter1" values="0 0 0 0 0.131582182 0 0 0 0 0.149171399 0 0 0 0 0.251188859 0 0 0 1 0"/>
            <feMerge>
                <feMergeNode in="shadowMatrixOuter1"/>
                <feMergeNode in="SourceGraphic"/>
            </feMerge>
        </filter>
        <filter id="z" width="417.6%" height="363.4%" x="-158.8%" y="-131.7%" filterUnits="objectBoundingBox">
            <feOffset dy="14" in="SourceAlpha" result="shadowOffsetOuter1"/>
            <feGaussianBlur in="shadowOffsetOuter1" result="shadowBlurOuter1" stdDeviation="7"/>
            <feColorMatrix in="shadowBlurOuter1" result="shadowMatrixOuter1" values="0 0 0 0 0.131582182 0 0 0 0 0.149171399 0 0 0 0 0.251188859 0 0 0 1 0"/>
            <feMerge>
                <feMergeNode in="shadowMatrixOuter1"/>
                <feMergeNode in="SourceGraphic"/>
            </feMerge>
        </filter>
        <filter id="A" width="641.5%" height="335.7%" x="-270.6%" y="-117.7%" filterUnits="objectBoundingBox">
            <feOffset dy="30" in="SourceAlpha" result="shadowOffsetOuter1"/>
            <feGaussianBlur in="shadowOffsetOuter1" result="shadowBlurOuter1" stdDeviation="15"/>
            <feColorMatrix in="shadowBlurOuter1" result="shadowMatrixOuter1" values="0 0 0 0 0.080287774 0 0 0 0 0.0970666912 0 0 0 0 0.180961277 0 0 0 0.340280813 0"/>
            <feMerge>
                <feMergeNode in="shadowMatrixOuter1"/>
                <feMergeNode in="SourceGraphic"/>
            </feMerge>
        </filter>
        <path id="D" d="M0 49.843l24.949 14.955L49.88 49.844 24.93 34.891z"/>
        <filter id="B" width="178.2%" height="230.4%" x="-39.1%" y="-55.2%" filterUnits="objectBoundingBox">
            <feGaussianBlur in="SourceGraphic" stdDeviation=".499"/>
        </filter>
        <filter id="C" width="220.3%" height="300.6%" x="-60.1%" y="-90.3%" filterUnits="objectBoundingBox">
            <feOffset dy="3" in="SourceAlpha" result="shadowOffsetOuter1"/>
            <feGaussianBlur in="shadowOffsetOuter1" result="shadowBlurOuter1" stdDeviation="9"/>
            <feColorMatrix in="shadowBlurOuter1" values="0 0 0 0 0.143996451 0 0 0 0 0.49443254 0 0 0 0 0.996037138 0 0 0 1 0"/>
        </filter>
        <path id="E" d="M0 .066h24.887V44.87H0z"/>
        <path id="G" d="M.054.139h24.885v59.737H.054z"/>
        <path id="I" d="M0 .139h24.884v59.737H0z"/>
    </defs>
    <g fill="none" fill-rule="evenodd">
        <path fill="url(#a)" d="M54.434 83.178l-5.867 226.046 331.819-140.177z" transform="translate(18.988)"/>
        <path stroke="url(#b)" stroke-dasharray="3.989999949932098,7.979999899864197" stroke-linecap="round" stroke-width="2.494" d="M60.356 305.047L359.14 176.449" transform="translate(18.988)"/>
        <path stroke="url(#c)" stroke-dasharray="3.989999949932098,7.979999899864197" stroke-linecap="round" stroke-width="2.494" d="M117.279 99.97l241.862 62.522" transform="translate(18.988)"/>
        <path stroke="url(#d)" stroke-dasharray="3.989999949932098,7.979999899864197" stroke-linecap="round" stroke-width="2.494" d="M52.874 112.648l1.56 171.464" transform="matrix(-1 0 0 1 126.296 0)"/>
        <g transform="translate(21.98 232.274)">
            <use fill="#000" filter="url(#e)" xlink:href="#f"/>
            <use fill="url(#g)" xlink:href="#f"/>
            <path fill="url(#h)" d="M49.88 70.902c27.549 0 49.881-7.802 49.881-17.425 0-4.37-4.604-8.364-12.21-11.423-9.146-3.677-22.63-6.002-37.67-6.002C22.332 36.052 0 43.853 0 53.477 0 63.1 22.332 70.902 49.88 70.902z"/>
            <ellipse cx="49.881" cy="35.451" fill="url(#i)" rx="49.881" ry="17.425"/>
            <ellipse cx="49.881" cy="17.425" fill="url(#j)" rx="49.881" ry="17.425"/>
        </g>
        <g transform="translate(352.19 112.648)">
            <use fill="#000" filter="url(#k)" xlink:href="#l"/>
            <use fill="url(#m)" xlink:href="#l"/>
            <path fill="url(#n)" d="M39.905 56.4c22.038 0 39.904-6.207 39.904-13.862 0-3.476-3.683-6.653-9.769-9.086-7.316-2.925-18.104-4.774-30.135-4.774C17.865 28.678 0 34.883 0 42.538 0 50.193 17.866 56.4 39.905 56.4z"/>
            <ellipse cx="39.905" cy="28.2" fill="url(#o)" rx="39.905" ry="13.861"/>
            <ellipse cx="39.905" cy="13.861" fill="url(#p)" rx="39.905" ry="13.861"/>
        </g>
        <g transform="translate(18.988)">
            <use fill="#000" filter="url(#q)" xlink:href="#r"/>
            <use fill="url(#s)" xlink:href="#r"/>
            <path fill="url(#t)" d="M59.857 106.339c33.058 0 59.857-9.397 59.857-20.99 0-5.263-5.526-10.074-14.653-13.758-10.975-4.43-27.157-7.23-45.204-7.23C26.799 64.36 0 73.758 0 85.35s26.799 20.989 59.857 20.989z"/>
            <ellipse cx="59.857" cy="63.637" fill="url(#u)" rx="59.857" ry="20.989"/>
            <ellipse cx="59.857" cy="41.924" fill="url(#v)" rx="59.857" ry="20.989"/>
            <ellipse cx="59.857" cy="20.989" fill="url(#w)" rx="59.857" ry="20.989"/>
        </g>
        <g filter="url(#x)" transform="translate(14 152.523)">
            <path fill="#DBE8FF" d="M17.53 23.287c4.958 0 8.978-4.99 8.978-11.145 0-6.155-1.32-11.145-8.978-11.145-7.659 0-8.979 4.99-8.979 11.145 0 6.155 4.02 11.145 8.979 11.145z"/>
            <path fill="#000" fill-rule="nonzero" d="M.856 36.955c-.002-.352-.003-.099 0 0zM35.058 37.025c.004-.097.001-.67 0 0z"/>
            <path fill="#ACC0E3" d="M35.04 36.189c-.168-10.655-1.55-13.691-12.124-15.613 0 0-1.489 1.91-4.959 1.91-3.47 0-4.958-1.91-4.958-1.91C2.54 22.476 1.074 25.468.881 35.843c-.016.847-.023.891-.026.793 0 .184.002.525.002 1.12 0 0 2.517 5.11 17.1 5.11 14.583 0 17.101-5.11 17.101-5.11l.001-.829c-.003.061-.008-.057-.02-.738z"/>
        </g>
        <g filter="url(#y)" transform="translate(246 73)">
            <path fill="#DBE8FF" d="M14.155 18.47c4.004 0 7.25-3.957 7.25-8.84 0-4.882-1.066-8.84-7.25-8.84s-7.25 3.958-7.25 8.84c0 4.883 3.246 8.84 7.25 8.84z"/>
            <path fill="#000" fill-rule="nonzero" d="M.691 29.312c-.001-.28-.002-.079 0 0zM28.309 29.367c.003-.077 0-.53 0 0z"/>
            <path fill="#ACC0E3" d="M28.294 28.704c-.135-8.452-1.251-10.86-9.79-12.384 0 0-1.202 1.515-4.004 1.515-2.801 0-4.003-1.515-4.003-1.515C2.05 17.828.867 20.2.71 28.43c-.012.671-.018.706-.02.628v.888S2.726 34 14.502 34c11.775 0 13.808-4.054 13.808-4.054v-.656c-.002.048-.006-.046-.015-.586z"/>
        </g>
        <g filter="url(#z)" transform="translate(244 239)">
            <path fill="#DBE8FF" d="M16.595 22.273c4.695 0 8.5-4.772 8.5-10.66 0-5.887-1.25-10.66-8.5-10.66s-8.5 4.773-8.5 10.66c0 5.888 3.806 10.66 8.5 10.66z"/>
            <path fill="#000" fill-rule="nonzero" d="M.81 35.347c-.001-.337-.003-.095 0 0zM33.19 35.413c.004-.092 0-.64 0 0z"/>
            <path fill="#ACC0E3" d="M33.172 34.613c-.158-10.19-1.467-13.095-11.478-14.933 0 0-1.409 1.827-4.694 1.827-3.284 0-4.694-1.827-4.694-1.827C2.404 21.498 1.016 24.359.834 34.282c-.015.81-.022.853-.024.759v1.07S3.195 41 17 41c13.806 0 16.19-4.888 16.19-4.888v-.792c-.002.058-.008-.055-.018-.707z"/>
        </g>
        <g filter="url(#A)" transform="translate(158 90)">
            <path fill="#1D1D26" d="M0 51.837L24.949 66.79 49.88 51.838 24.93 36.885z"/>
            <g filter="url(#B)">
                <use fill="#000" filter="url(#C)" xlink:href="#D"/>
                <use fill="#6B8BF5" xlink:href="#D"/>
            </g>
            <path fill="#454A75" d="M0 45.855L24.949 60.81 49.88 45.857 24.93 30.903z"/>
            <g transform="translate(0 51.322)">
                <mask id="F" fill="#fff">
                    <use xlink:href="#E"/>
                </mask>
                <path fill="#DBE4F4" d="M24.884 14.999L0 .066 24.887 44.87z" mask="url(#F)"/>
            </g>
            <path fill="#ACC0E3" d="M49.727 51.387L24.862 96.19l-.003-29.872z"/>
            <g transform="translate(24.813)">
                <mask id="H" fill="#fff">
                    <use xlink:href="#G"/>
                </mask>
                <path fill="#ACC0E3" d="M-.008 59.904l24.867-14.931L-.026.167z" mask="url(#H)"/>
            </g>
            <mask id="J" fill="#fff">
                <use xlink:href="#I"/>
            </mask>
            <path fill="#DBE4F4" d="M0 44.943L24.867.14l.017 59.737z" mask="url(#J)"/>
        </g>
    </g>
</svg>
