<svg xmlns="http://www.w3.org/2000/svg" xmlns:xlink="http://www.w3.org/1999/xlink" width="1440" height="454" viewBox="0 0 1440 454">
    <defs>
        <linearGradient id="c" x1="39.912%" x2="39.912%" y1="110.773%" y2="-208.158%">
            <stop offset="0%" stop-color="#3050C0"/>
            <stop offset="100%" stop-color="#98AFFF"/>
        </linearGradient>
        <path id="b" d="M701.305 276a10 10 0 0 0 3.852-.772l51.23-21.382a2 2 0 0 0 0-3.692l-51.23-21.382a10 10 0 0 0-3.852-.772H590.311a10 10 0 0 0-3.851.772l-51.23 21.382a2 2 0 0 0 0 3.692l51.23 21.382a10 10 0 0 0 3.851.772h110.994zm178 26a10 10 0 0 0 3.852-.772l51.23-21.382a2 2 0 0 0 0-3.692l-51.23-21.382a10 10 0 0 0-3.852-.772H768.311a10 10 0 0 0-3.851.772l-51.23 21.382a2 2 0 0 0 0 3.692l51.23 21.382a10 10 0 0 0 3.851.772h110.994zm-356 0a10 10 0 0 0 3.852-.772l51.23-21.382a2 2 0 0 0 0-3.692l-51.23-21.382a10 10 0 0 0-3.852-.772H412.311a10 10 0 0 0-3.851.772l-51.23 21.382a2 2 0 0 0 0 3.692l51.23 21.382a10 10 0 0 0 3.851.772h110.994zm-178 25a10 10 0 0 0 3.852-.772l51.23-21.382a2 2 0 0 0 0-3.692l-51.23-21.382a10 10 0 0 0-3.852-.772H234.311a10 10 0 0 0-3.851.772l-51.23 21.382a2 2 0 0 0 0 3.692l51.23 21.382a10 10 0 0 0 3.851.772h110.994zm356 0a10 10 0 0 0 3.852-.772l51.23-21.382a2 2 0 0 0 0-3.692l-51.23-21.382a10 10 0 0 0-3.852-.772H590.311a10 10 0 0 0-3.851.772l-51.23 21.382a2 2 0 0 0 0 3.692l51.23 21.382a10 10 0 0 0 3.851.772h110.994zm-534 26a10 10 0 0 0 3.852-.772l51.23-21.382a2 2 0 0 0 0-3.692l-51.23-21.382a10 10 0 0 0-3.852-.772H56.311a10 10 0 0 0-3.851.772L1.23 327.154a2 2 0 0 0 0 3.692l51.23 21.382a10 10 0 0 0 3.851.772h110.994zm178 26a10 10 0 0 0 3.852-.772l51.23-21.382a2 2 0 0 0 0-3.692l-51.23-21.382a10 10 0 0 0-3.852-.772H234.311a10 10 0 0 0-3.851.772l-51.23 21.382a2 2 0 0 0 0 3.692l51.23 21.382a10 10 0 0 0 3.851.772h110.994zm178 25a10 10 0 0 0 3.852-.772l51.23-21.382a2 2 0 0 0 0-3.692l-51.23-21.382a10 10 0 0 0-3.852-.772H412.311a10 10 0 0 0-3.851.772l-51.23 21.382a2 2 0 0 0 0 3.692l51.23 21.382a10 10 0 0 0 3.851.772h110.994z"/>
        <filter id="a" width="109.6%" height="151.1%" x="-4.4%" y="-17%" filterUnits="objectBoundingBox">
            <feOffset dx="4" dy="15" in="SourceAlpha" result="shadowOffsetOuter1"/>
            <feGaussianBlur in="shadowOffsetOuter1" result="shadowBlurOuter1" stdDeviation="12.5"/>
            <feColorMatrix in="shadowBlurOuter1" values="0 0 0 0 0.0509803922 0 0 0 0 0.0784313725 0 0 0 0 0.247058824 0 0 0 0.8 0"/>
        </filter>
        <linearGradient id="f" x1="39.912%" x2="39.912%" y1="110.773%" y2="-208.158%">
            <stop offset="0%" stop-color="#3050C0"/>
            <stop offset="100%" stop-color="#98AFFF"/>
        </linearGradient>
        <path id="e" d="M1056.284 187a10 10 0 0 1 3.211.53l50.353 17.076a2 2 0 0 1 0 3.788l-50.353 17.076a10 10 0 0 1-3.211.53H944.582a10 10 0 0 1-3.212-.53l-50.353-17.076a2 2 0 0 1 0-3.788l50.353-17.076a10 10 0 0 1 3.212-.53h111.7zm-173-22a10 10 0 0 1 3.211.53l50.353 17.076a2 2 0 0 1 0 3.788l-50.353 17.076a10 10 0 0 1-3.212.53h-111.7a10 10 0 0 1-3.212-.53l-50.353-17.076a2 2 0 0 1 0-3.788l50.353-17.076a10 10 0 0 1 3.212-.53h111.7zm-3-41a10 10 0 0 1 3.211.53l50.353 17.076a2 2 0 0 1 0 3.788l-50.353 17.076a10 10 0 0 1-3.212.53h-111.7a10 10 0 0 1-3.212-.53l-50.353-17.076a2 2 0 0 1 0-3.788l50.353-17.076a10 10 0 0 1 3.212-.53h111.7zm-172-22a10 10 0 0 1 3.211.53l50.353 17.076a2 2 0 0 1 0 3.788l-50.353 17.076a10 10 0 0 1-3.212.53h-111.7a10 10 0 0 1-3.212-.53l-50.353-17.076a2 2 0 0 1 0-3.788l50.353-17.076a10 10 0 0 1 3.212-.53h111.7zm-177-20a10 10 0 0 1 3.211.53l50.353 17.076a2 2 0 0 1 0 3.788l-50.353 17.076a10 10 0 0 1-3.212.53h-111.7a10 10 0 0 1-3.212-.53l-41.975-14.235a5 5 0 0 1 0-9.47L416.37 82.53a10 10 0 0 1 3.212-.53h111.7zm-175-21a10 10 0 0 1 3.211.53l50.353 17.076a2 2 0 0 1 0 3.788L359.495 99.47a10 10 0 0 1-3.212.53h-111.7a10 10 0 0 1-3.212-.53l-41.975-14.235a5 5 0 0 1 0-9.47L241.37 61.53a10 10 0 0 1 3.212-.53h111.7zm350 0a10 10 0 0 1 3.211.53l50.353 17.076a2 2 0 0 1 0 3.788L709.495 99.47a10 10 0 0 1-3.212.53h-111.7a10 10 0 0 1-3.212-.53l-50.353-17.076a2 2 0 0 1 0-3.788l50.353-17.076a10 10 0 0 1 3.212-.53h111.7zm-175-20a10 10 0 0 1 3.211.53l50.353 17.076a2 2 0 0 1 0 3.788L534.495 79.47a10 10 0 0 1-3.212.53h-111.7a10 10 0 0 1-3.212-.53l-41.975-14.235a5 5 0 0 1 0-9.47L416.37 41.53a10 10 0 0 1 3.212-.53h111.7zm-175-21a10 10 0 0 1 3.211.53l50.353 17.076a2 2 0 0 1 0 3.788L359.495 58.47a10 10 0 0 1-3.212.53h-111.7a10 10 0 0 1-3.212-.53l-41.975-14.235a5 5 0 0 1 0-9.47L241.37 20.53a10 10 0 0 1 3.212-.53h111.7zm175-20a10 10 0 0 1 3.211.53l50.353 17.076a2 2 0 0 1 0 3.788L534.495 38.47a10 10 0 0 1-3.212.53h-111.7a10 10 0 0 1-3.212-.53l-41.975-14.235a5 5 0 0 1 0-9.47L416.37.53a10 10 0 0 1 3.212-.53h111.7z"/>
        <filter id="d" width="109.8%" height="139.8%" x="-5.4%" y="-13.3%" filterUnits="objectBoundingBox">
            <feOffset dx="-4" dy="15" in="SourceAlpha" result="shadowOffsetOuter1"/>
            <feGaussianBlur in="shadowOffsetOuter1" result="shadowBlurOuter1" stdDeviation="12.5"/>
            <feColorMatrix in="shadowBlurOuter1" values="0 0 0 0 0.0509803922 0 0 0 0 0.0784313725 0 0 0 0 0.247058824 0 0 0 0.8 0"/>
        </filter>
        <linearGradient id="i" x1="39.912%" x2="39.912%" y1="110.773%" y2="-208.158%">
            <stop offset="0%" stop-color="#3050C0"/>
            <stop offset="100%" stop-color="#98AFFF"/>
        </linearGradient>
        <path id="h" d="M1720.305 354a10 10 0 0 1 3.852.772l51.23 21.382a2 2 0 0 1 0 3.692l-51.23 21.382a10 10 0 0 1-3.852.772h-110.994a10 10 0 0 1-3.851-.772l-51.23-21.382a2 2 0 0 1 0-3.692l51.23-21.382a10 10 0 0 1 3.851-.772h110.994zm178-26a10 10 0 0 1 3.852.772l51.23 21.382a2 2 0 0 1 0 3.692l-51.23 21.382a10 10 0 0 1-3.852.772h-110.994a10 10 0 0 1-3.851-.772l-51.23-21.382a2 2 0 0 1 0-3.692l51.23-21.382a10 10 0 0 1 3.851-.772h110.994zm-357 0a10 10 0 0 1 3.852.772l51.23 21.382a2 2 0 0 1 0 3.692l-51.23 21.382a10 10 0 0 1-3.852.772h-110.994a10 10 0 0 1-3.851-.772l-51.23-21.382a2 2 0 0 1 0-3.692l51.23-21.382a10 10 0 0 1 3.851-.772h110.994zm-178-25a10 10 0 0 1 3.852.772l51.23 21.382a2 2 0 0 1 0 3.692l-51.23 21.382a10 10 0 0 1-3.852.772h-110.994a10 10 0 0 1-3.851-.772l-51.23-21.382a2 2 0 0 1 0-3.692l51.23-21.382a10 10 0 0 1 3.851-.772h110.994zm357 0a10 10 0 0 1 3.852.772l51.23 21.382a2 2 0 0 1 0 3.692l-51.23 21.382a10 10 0 0 1-3.852.772h-110.994a10 10 0 0 1-3.851-.772l-51.23-21.382a2 2 0 0 1 0-3.692l51.23-21.382a10 10 0 0 1 3.851-.772h110.994zm-535-26a10 10 0 0 1 3.852.772l51.23 21.382a2 2 0 0 1 0 3.692l-51.23 21.382a10 10 0 0 1-3.852.772h-110.994a10 10 0 0 1-3.851-.772l-51.23-21.382a2 2 0 0 1 0-3.692l51.23-21.382a10 10 0 0 1 3.851-.772h110.994zm178-26a10 10 0 0 1 3.852.772l51.23 21.382a2 2 0 0 1 0 3.692l-51.23 21.382a10 10 0 0 1-3.852.772h-110.994a10 10 0 0 1-3.851-.772l-51.23-21.382a2 2 0 0 1 0-3.692l51.23-21.382a10 10 0 0 1 3.851-.772h110.994zm179-25a10 10 0 0 1 3.852.772l51.23 21.382a2 2 0 0 1 0 3.692l-51.23 21.382a10 10 0 0 1-3.852.772h-110.994a10 10 0 0 1-3.851-.772l-51.23-21.382a2 2 0 0 1 0-3.692l51.23-21.382a10 10 0 0 1 3.851-.772h110.994z"/>
        <filter id="g" width="109.6%" height="151.1%" x="-5.2%" y="-17%" filterUnits="objectBoundingBox">
            <feOffset dx="-4" dy="15" in="SourceAlpha" result="shadowOffsetOuter1"/>
            <feGaussianBlur in="shadowOffsetOuter1" result="shadowBlurOuter1" stdDeviation="12.5"/>
            <feColorMatrix in="shadowBlurOuter1" values="0 0 0 0 0.0509803922 0 0 0 0 0.0784313725 0 0 0 0 0.247058824 0 0 0 0.8 0"/>
        </filter>
    </defs>
    <g fill="none" fill-rule="evenodd">
        <g transform="translate(-282 10)">
            <use fill="#000" filter="url(#a)" xlink:href="#b"/>
            <use fill="url(#c)" xlink:href="#b"/>
        </g>
        <g transform="translate(-282 10)">
            <use fill="#000" filter="url(#d)" xlink:href="#e"/>
            <use fill="url(#f)" xlink:href="#e"/>
        </g>
        <g transform="translate(-282 10)">
            <use fill="#000" filter="url(#g)" xlink:href="#h"/>
            <use fill="url(#i)" xlink:href="#h"/>
        </g>
    </g>
</svg>
