<svg xmlns="http://www.w3.org/2000/svg" xmlns:xlink="http://www.w3.org/1999/xlink" width="452" height="162" viewBox="0 0 452 162">
    <defs>
        <linearGradient id="a" x1="0%" x2="99.393%" y1="32.569%" y2="32.569%">
            <stop offset="0%" stop-color="#3A54F9"/>
            <stop offset="100%" stop-color="#4890FF"/>
        </linearGradient>
        <linearGradient id="b" x1="50%" x2="50%" y1="0%" y2="100%">
            <stop offset="0%" stop-color="#3BED4C"/>
            <stop offset="100%" stop-color="#32CC43"/>
        </linearGradient>
        <linearGradient id="c" x1="0%" y1="43.507%" y2="56.493%">
            <stop offset="0%" stop-color="#00FFFA"/>
            <stop offset="100%" stop-color="#0004FF"/>
        </linearGradient>
        <linearGradient id="d" x1="0%" y1="43.507%" y2="56.493%">
            <stop offset="0%" stop-color="#0792FF"/>
            <stop offset="100%" stop-color="#3C47FF"/>
        </linearGradient>
        <linearGradient id="e" x1="0%" y1="43.423%" y2="56.577%">
            <stop offset="0%" stop-color="#00FFFA"/>
            <stop offset="100%" stop-color="#0004FF"/>
        </linearGradient>
        <linearGradient id="f" x1="0%" y1="43.423%" y2="56.577%">
            <stop offset="0%" stop-color="#0792FF"/>
            <stop offset="100%" stop-color="#3C47FF"/>
        </linearGradient>
        <linearGradient id="g" x1="0%" y1="43.475%" y2="56.525%">
            <stop offset="0%" stop-color="#00FFFA"/>
            <stop offset="100%" stop-color="#0004FF"/>
        </linearGradient>
        <linearGradient id="h" x1="0%" y1="43.475%" y2="56.525%">
            <stop offset="0%" stop-color="#0792FF"/>
            <stop offset="100%" stop-color="#3C47FF"/>
        </linearGradient>
        <linearGradient id="i" x1="0%" y1="43.53%" y2="56.47%">
            <stop offset="0%" stop-color="#00FFFA"/>
            <stop offset="100%" stop-color="#0004FF"/>
        </linearGradient>
        <linearGradient id="j" x1="0%" y1="43.53%" y2="56.47%">
            <stop offset="0%" stop-color="#0792FF"/>
            <stop offset="100%" stop-color="#3C47FF"/>
        </linearGradient>
        <linearGradient id="k" x1="0%" y1="43.393%" y2="56.607%">
            <stop offset="0%" stop-color="#00FFFA"/>
            <stop offset="100%" stop-color="#0004FF"/>
        </linearGradient>
        <linearGradient id="l" x1="0%" y1="43.393%" y2="56.607%">
            <stop offset="0%" stop-color="#0792FF"/>
            <stop offset="100%" stop-color="#3C47FF"/>
        </linearGradient>
        <filter id="m" width="385.3%" height="198.4%" x="-144.1%" y="-43.5%" filterUnits="objectBoundingBox">
            <feOffset dy="4" in="SourceAlpha" result="shadowOffsetOuter1"/>
            <feGaussianBlur in="shadowOffsetOuter1" result="shadowBlurOuter1" stdDeviation="5"/>
            <feColorMatrix in="shadowBlurOuter1" result="shadowMatrixOuter1" values="0 0 0 0 1 0 0 0 0 1 0 0 0 0 1 0 0 0 0.340280813 0"/>
            <feMerge>
                <feMergeNode in="shadowMatrixOuter1"/>
                <feMergeNode in="SourceGraphic"/>
            </feMerge>
        </filter>
        <path id="p" d="M0 32.55l16.39 9.576 16.38-9.574-16.392-9.574z"/>
        <filter id="n" width="232%" height="325.8%" x="-66%" y="-86.8%" filterUnits="objectBoundingBox">
            <feGaussianBlur in="SourceGraphic" stdDeviation=".541"/>
        </filter>
        <filter id="o" width="308.3%" height="456.4%" x="-104.1%" y="-152.1%" filterUnits="objectBoundingBox">
            <feOffset dy="5" in="SourceAlpha" result="shadowOffsetOuter1"/>
            <feGaussianBlur in="shadowOffsetOuter1" result="shadowBlurOuter1" stdDeviation="10"/>
            <feColorMatrix in="shadowBlurOuter1" values="0 0 0 0 0.143996451 0 0 0 0 0.49443254 0 0 0 0 0.996037138 0 0 0 1 0"/>
        </filter>
        <path id="q" d="M0 .042h16.333V28.72H0z"/>
        <path id="s" d="M.035.089h16.332v38.233H.035z"/>
        <path id="u" d="M0 .089h16.33v38.233H0z"/>
        <path id="w" d="M0 .116h37.845v35.67H0z"/>
        <linearGradient id="y" x1="21.86%" x2="79.74%" y1="94.213%" y2="5.58%">
            <stop offset="0%" stop-color="#B8C1FF"/>
            <stop offset="100%" stop-color="#6B8BF5"/>
        </linearGradient>
        <linearGradient id="A" x1="0%" x2="99.393%" y1="32.569%" y2="32.569%">
            <stop offset="0%" stop-color="#76A4FB"/>
            <stop offset="100%" stop-color="#A3C7FF"/>
        </linearGradient>
        <path id="z" d="M37.845 3.598l-2.696 2.148-14.446-5.2c-.98-.571-2.568-.573-3.549-.006L2.615 5.746 0 3.598v21.19h.002c.012.363.255.725.733 1.003l16.406 9.565c.98.572 2.57.574 3.55.006l16.418-9.517c.503-.291.746-.675.733-1.058h.003V3.597z"/>
        <linearGradient id="B" x1="0%" x2="99.393%" y1="32.569%" y2="32.569%">
            <stop offset="0%" stop-color="#1621FF"/>
            <stop offset="100%" stop-color="#51A4FF"/>
        </linearGradient>
        <linearGradient id="D" x1="0%" x2="99.393%" y1="32.569%" y2="32.569%">
            <stop offset="0%" stop-color="#2731FF"/>
            <stop offset="100%" stop-color="#3182FF"/>
        </linearGradient>
        <path id="E" d="M0 .116h37.845v35.67H0z"/>
        <path id="G" d="M37.845 3.598l-2.696 2.148-14.446-5.2c-.98-.571-2.568-.573-3.549-.006L2.615 5.746 0 3.598v21.19h.002c.012.363.255.725.733 1.003l16.406 9.565c.98.572 2.57.574 3.55.006l16.418-9.517c.503-.291.746-.675.733-1.058h.003V3.597z"/>
        <path id="I" d="M0 .116h37.845v35.67H0z"/>
        <path id="K" d="M37.845 3.598l-2.696 2.148-14.446-5.2c-.98-.571-2.568-.573-3.549-.006L2.615 5.746 0 3.598v21.19h.002c.012.363.255.725.733 1.003l16.406 9.565c.98.572 2.57.574 3.55.006l16.418-9.517c.503-.291.746-.675.733-1.058h.003V3.597z"/>
        <path id="M" d="M0 .116h37.845v35.67H0z"/>
        <path id="O" d="M37.845 3.598l-2.696 2.148-14.446-5.2c-.98-.571-2.568-.573-3.549-.006L2.615 5.746 0 3.598v21.19h.002c.012.363.255.725.733 1.003l16.406 9.565c.98.572 2.57.574 3.55.006l16.418-9.517c.503-.291.746-.675.733-1.058h.003V3.597z"/>
        <path id="Q" d="M0 .116h37.845v35.67H0z"/>
        <path id="S" d="M37.845 3.598l-2.696 2.148-14.446-5.2c-.98-.571-2.568-.573-3.549-.006L2.615 5.746 0 3.598v21.19h.002c.012.363.255.725.733 1.003l16.406 9.565c.98.572 2.57.574 3.55.006l16.418-9.517c.503-.291.746-.675.733-1.058h.003V3.597z"/>
        <path id="U" d="M0 .116h37.845v35.67H0z"/>
        <path id="W" d="M37.845 3.598l-2.696 2.148-14.446-5.2c-.98-.571-2.568-.573-3.549-.006L2.615 5.746 0 3.598v21.19h.002c.012.363.255.725.733 1.003l16.406 9.565c.98.572 2.57.574 3.55.006l16.418-9.517c.503-.291.746-.675.733-1.058h.003V3.597z"/>
        <linearGradient id="Y" x1="0%" y1="50%" y2="50%">
            <stop offset="0%" stop-color="#147BE0"/>
            <stop offset="100%" stop-color="#3851D5"/>
        </linearGradient>
    </defs>
    <g fill="none" fill-rule="evenodd">
        <path stroke="#90B6FF" stroke-dasharray="4.891" stroke-width="1.956" d="M38.755 117.356h80.15"/>
        <g transform="translate(.375 61.889)">
            <circle cx="42.544" cy="42.544" r="42.544" fill="url(#a)"/>
            <path fill="#FFF" fill-rule="nonzero" d="M85.087 42.544a42.342 42.342 0 0 0-6.841-23.146s-2.427 3.545-1.97 5.824c.455 2.28 3.132 2.454 2.857 4.125-.275 1.672-2.25-.478-4.681 3.928-2.432 4.406-1.215 10.486 2.279 10.94 3.494.455 8.356-1.671 8.356-1.671z"/>
            <path fill="#EAEEFF" fill-rule="nonzero" d="M53.716 1.482A42.36 42.36 0 0 1 67.32 7.955s-4.933-.813-6.802.858c-1.869 1.671-4.594 5.622-6.802 0-2.208-5.622 0-7.33 0-7.33z"/>
            <path fill="#FFF" fill-rule="nonzero" d="M10.556 14.495C18.353 5.609 29.793 0 42.544 0c0 0-2.887 1.748 2.583 4.71 5.47 2.963 2.963 4.33 1.823 5.242-1.14.912-3.116-1.823-4.406-3.646-1.292-1.823-6.836-4.634-11.09-3.114-4.255 1.52-7.901 2.642-7.294 4.056.607 1.414 7.9-1.32 10.635-1.17 2.735.152 1.824 1.823-.759 3.799-2.583 1.975-2.887 4.406-.152 5.925 2.735 1.52 6.077 1.672 6.837.76.76-.91-1.367-6.836 3.799-4.254 5.166 2.583 9.42 4.103 5.166 7.902-4.254 3.797-9.116 8.053-9.268 10.483-.153 2.43 1.52 4.407.608 4.559-.912.15-1.749-.988-2.356-1.824-.607-.836-3.419-1.14-4.786-.608-1.368.531-3.951 2.583-2.507 4.558 1.444 1.976 3.417 1.063 5.393 1.975 1.976.912 3.818 4.382 3.44 5.166-.379.784-2.063-.209-3.44-2.887-1.377-2.678-3.96-.911-5.779-1.367-1.817-.456-3.185-.76-5.008-3.95-1.824-3.191-5.599-4.084-7.141-5.926-4.419-5.277-4.103-9.268-5.014-11.092-.912-1.823-3.272-4.802-3.272-4.802zM46.646 43.151s4.558.455 6.837 2.431c2.28 1.976 2.584 2.736 6.078 3.495 3.494.76 5.014 2.734 2.735 6.533-2.279 3.799-6.382 9.877-8.357 11.7-1.975 1.824-4.406 3.343-5.318 6.382-.911 3.038-1.216 4.86.76 6.077 0 0-1.063 2.583-3.494-.76-2.432-3.343-.456-7.293 0-9.572.455-2.279 1.67-9.116.911-10.788-.76-1.672-4.254-2.736-5.166-6.23-.912-3.494.684-10.294 5.014-9.268z"/>
            <path fill="#8D94BF" fill-rule="nonzero" d="M12.46 12.461c16.615-16.615 43.552-16.614 60.166 0 16.615 16.614 16.615 43.551 0 60.165 0 0 19.302-25.524-8.025-52.852-27.328-27.328-52.14-7.313-52.14-7.313z" opacity=".192"/>
            <g fill-rule="nonzero" transform="translate(60.318 53.054)">
                <circle cx="16.918" cy="16.918" r="16.918" fill="url(#b)"/>
                <path fill="#FFF" d="M14.903 23.966c-.295 0-.592-.092-.846-.282L7.613 18.85a1.408 1.408 0 1 1 1.692-2.255l5.388 4.04L23.5 10.362a1.408 1.408 0 0 1 1.988-.152c.59.506.66 1.396.152 1.986l-9.667 11.279c-.279.324-.672.492-1.071.492z"/>
            </g>
        </g>
        <path stroke="#90B6FF" stroke-dasharray="4.891" stroke-width="1.956" d="M324.914 117.356h125.97M261.02 149.844l64.017-32.488M182.922 149.844l-64.017-32.488M182.922 149.844h78.097"/>
        <path fill="url(#c)" d="M.184 7.148l.209-.779c.097-.36.38-.64.743-.733l15.058-3.833c.16-.04.328-.042.49-.005l16.436 3.85c.364.084.653.36.757.72l.227.789c.117.407-.026.844-.361 1.103l-5.326 4.113a1.033 1.033 0 0 1-.496.207l-11.335 1.5a1.033 1.033 0 0 1-.295-.003l-9.61-1.495a1.033 1.033 0 0 1-.45-.188L.57 8.25a1.033 1.033 0 0 1-.387-1.101z" transform="translate(205.192 118.529)"/>
        <path fill="url(#d)" d="M1.156 5.26l5.073-3.648c.134-.097.29-.16.453-.184L16.3.02c.092-.013.185-.014.277-.003l11.344 1.414c.18.022.352.092.497.201l4.804 3.643a1.033 1.033 0 0 1 .008 1.64l-4.813 3.717a1.033 1.033 0 0 1-.496.207l-11.335 1.5a1.033 1.033 0 0 1-.295-.003l-9.61-1.495a1.033 1.033 0 0 1-.45-.188L1.147 6.931a1.033 1.033 0 0 1 .008-1.672z" transform="translate(205.192 118.529)"/>
        <path fill="url(#e)" d="M.244 9.619l.281-1.054c.13-.485.51-.861.996-.986l20.114-5.153c.217-.056.444-.058.662-.006l21.954 5.174c.49.115.878.486 1.016.969l.305 1.068a1.387 1.387 0 0 1-.482 1.476l-7.117 5.532c-.194.15-.424.247-.668.28l-15.14 2.018a1.387 1.387 0 0 1-.399-.005l-12.834-2.01a1.387 1.387 0 0 1-.609-.254L.761 11.093a1.387 1.387 0 0 1-.517-1.474z" transform="translate(198.838 105.82)"/>
        <path fill="url(#f)" d="M1.539 7.077L8.32 2.17c.181-.13.39-.216.611-.248L21.778.028c.124-.019.25-.02.375-.004l15.153 1.9c.243.03.474.125.668.273l6.424 4.901a1.387 1.387 0 0 1 .01 2.198l-6.435 5.002c-.194.15-.424.247-.668.28l-15.14 2.018a1.387 1.387 0 0 1-.399-.005l-12.834-2.01a1.387 1.387 0 0 1-.609-.255L1.53 9.317a1.387 1.387 0 0 1 .01-2.24z" transform="translate(198.838 105.82)"/>
        <path fill="url(#g)" d="M.311 12.033l.347-1.293A1.758 1.758 0 0 1 1.92 9.492L27.21 3.04c.274-.07.56-.072.836-.008l27.604 6.48c.62.146 1.112.615 1.288 1.226l.376 1.311a1.758 1.758 0 0 1-.613 1.875l-8.938 6.919c-.245.19-.537.312-.844.353l-19.04 2.527c-.167.022-.336.02-.503-.005l-16.14-2.519a1.758 1.758 0 0 1-.77-.32L.97 13.905a1.758 1.758 0 0 1-.658-1.872z" transform="translate(193.19 90.993)"/>
        <path fill="url(#h)" d="M1.96 8.848l8.504-6.13c.229-.164.494-.271.773-.312L27.39.035c.156-.023.316-.025.473-.005l19.055 2.38c.308.038.6.157.846.344l8.053 6.12a1.758 1.758 0 0 1 .013 2.79l-8.068 6.245c-.245.19-.537.312-.844.352l-19.04 2.528c-.167.022-.336.02-.503-.005l-16.14-2.519a1.758 1.758 0 0 1-.77-.32L1.948 11.69a1.758 1.758 0 0 1 .013-2.842z" transform="translate(193.19 90.993)"/>
        <g>
            <path fill="url(#i)" d="M.375 14.534l.425-1.58a2.103 2.103 0 0 1 1.513-1.49l30.68-7.797c.327-.083.669-.086.997-.01l33.487 7.829a2.103 2.103 0 0 1 1.543 1.465l.461 1.602c.24.83-.053 1.72-.737 2.248l-10.85 8.365c-.293.226-.64.37-1.008.42L33.79 28.637c-.198.027-.4.024-.598-.006l-19.58-3.043a2.103 2.103 0 0 1-.918-.38l-11.53-8.43a2.103 2.103 0 0 1-.79-2.245z" transform="translate(186.835 74.048)"/>
            <path fill="url(#j)" d="M2.358 10.694l10.333-7.416c.274-.196.59-.324.922-.373L33.21.041c.187-.027.377-.03.564-.006L56.887 2.91c.367.045.715.187 1.01.41l9.785 7.405a2.103 2.103 0 0 1 .015 3.343l-9.802 7.557c-.294.226-.642.37-1.009.42L33.79 25.097c-.198.026-.4.024-.598-.007l-19.58-3.042a2.103 2.103 0 0 1-.918-.38l-10.35-7.57a2.103 2.103 0 0 1 .014-3.405z" transform="translate(186.835 74.048)"/>
        </g>
        <g>
            <path fill="url(#k)" d="M.438 17.38l.509-1.908a2.504 2.504 0 0 1 1.796-1.78l36.25-9.309c.393-.1.805-.105 1.199-.011l39.567 9.346a2.504 2.504 0 0 1 1.832 1.75l.552 1.934a2.504 2.504 0 0 1-.869 2.662l-12.828 9.994c-.35.272-.767.447-1.207.506L39.952 34.21c-.24.032-.482.03-.72-.008L16.101 30.57a2.504 2.504 0 0 1-1.1-.46L1.37 20.04a2.504 2.504 0 0 1-.932-2.659z" transform="translate(180.48 52.161)"/>
            <path fill="url(#l)" d="M2.769 12.788L14.998 3.92a2.504 2.504 0 0 1 1.104-.45L39.253.05c.225-.033.453-.036.678-.007l27.31 3.432c.439.055.856.226 1.208.495l11.58 8.856a2.504 2.504 0 0 1 .019 3.964l-11.602 9.038c-.35.273-.767.448-1.207.506L39.952 29.98c-.24.032-.482.029-.72-.009L16.101 26.34a2.504 2.504 0 0 1-1.1-.46L2.751 16.83a2.504 2.504 0 0 1 .018-4.04z" transform="translate(180.48 52.161)"/>
        </g>
        <g filter="url(#m)" transform="translate(205.158 4)">
            <path fill="#1C2578" d="M0 32.55l16.39 9.576 16.38-9.574-16.392-9.574z"/>
            <g filter="url(#n)">
                <use fill="#000" filter="url(#o)" xlink:href="#p"/>
                <use fill="#6B8BF5" xlink:href="#p"/>
            </g>
            <path fill="#5B6BFF" d="M0 29.815l16.39 9.575 16.38-9.574-16.392-9.574z"/>
            <g transform="translate(0 32.847)">
                <mask id="r" fill="#fff">
                    <use xlink:href="#q"/>
                </mask>
                <path fill="#ECF3FF" d="M16.33 9.6L0 .041 16.333 28.72z" mask="url(#r)"/>
            </g>
            <path fill="#BBD3FF" d="M32.634 32.889L16.316 61.564l-.002-19.12z"/>
            <g transform="translate(16.284)">
                <mask id="t" fill="#fff">
                    <use xlink:href="#s"/>
                </mask>
                <path fill="#BBD3FF" d="M-.005 38.34l16.32-9.557L-.017.107z" mask="url(#t)"/>
            </g>
            <mask id="v" fill="#fff">
                <use xlink:href="#u"/>
            </mask>
            <path fill="#ECF3FF" d="M0 28.765L16.32.089l.01 38.233z" mask="url(#v)"/>
        </g>
        <g>
            <g transform="translate(348.362 98.975)">
                <mask id="x" fill="#fff">
                    <use xlink:href="#w"/>
                </mask>
                <g mask="url(#x)">
                    <path fill="url(#y)" fill-rule="nonzero" d="M37.845 3.598l-2.696 2.148-14.446-5.2c-.98-.571-2.568-.573-3.549-.006L2.615 5.746 0 3.598v21.19h.002c.012.363.255.725.733 1.003l16.406 9.565c.98.572 2.57.574 3.55.006l16.418-9.517c.503-.291.746-.675.733-1.058h.003V3.597z"/>
                    <mask id="C" fill="#fff">
                        <use xlink:href="#z"/>
                    </mask>
                    <use fill="url(#A)" xlink:href="#z"/>
                    <path fill="url(#B)" d="M18.922 14.548l-.32 22.73 19.251-11.352-.008-22.328z" mask="url(#C)"/>
                </g>
            </g>
            <path fill="url(#D)" d="M37.11 12.058l-16.42 9.516c-.98.568-2.569.566-3.548-.005L.735 12.005c-.98-.572-.98-1.495 0-2.063L17.156.424c.98-.568 2.569-.565 3.548.006L37.11 9.995c.98.57.98 1.495 0 2.063" transform="translate(348.362 91.524)"/>
            <path fill="#FFF" fill-rule="nonzero" d="M353.642 112.893l5.937 3.481c.354.208.642.712.642 1.126v6.938c0 .415-.288.582-.642.374l-5.937-3.481c-.355-.208-.642-.712-.642-1.127v-6.938c0-.293.144-.462.355-.462.101.004.2.035.287.09v-.001z"/>
            <g transform="translate(380.625 102.958)">
                <mask id="F" fill="#fff">
                    <use xlink:href="#E"/>
                </mask>
                <g mask="url(#F)">
                    <path fill="url(#y)" fill-rule="nonzero" d="M37.845 3.598l-2.696 2.148-14.446-5.2c-.98-.571-2.568-.573-3.549-.006L2.615 5.746 0 3.598v21.19h.002c.012.363.255.725.733 1.003l16.406 9.565c.98.572 2.57.574 3.55.006l16.418-9.517c.503-.291.746-.675.733-1.058h.003V3.597z"/>
                    <mask id="H" fill="#fff">
                        <use xlink:href="#G"/>
                    </mask>
                    <use fill="url(#A)" xlink:href="#G"/>
                    <path fill="url(#B)" d="M18.922 14.548l-.32 22.73 19.251-11.352-.008-22.328z" mask="url(#H)"/>
                </g>
            </g>
            <path fill="url(#D)" d="M37.11 12.058l-16.42 9.516c-.98.568-2.569.566-3.548-.005L.735 12.005c-.98-.572-.98-1.495 0-2.063L17.156.424c.98-.568 2.569-.565 3.548.006L37.11 9.995c.98.57.98 1.495 0 2.063" transform="translate(380.625 95.507)"/>
            <path fill="#FFF" fill-rule="nonzero" d="M385.905 116.876l5.937 3.482c.354.207.642.712.642 1.126v6.938c0 .414-.288.58-.642.373l-5.937-3.48c-.355-.209-.642-.713-.642-1.127v-6.938c0-.293.144-.463.355-.463.101.004.2.035.287.09z"/>
            <g>
                <g transform="translate(414.087 106.766)">
                    <mask id="J" fill="#fff">
                        <use xlink:href="#I"/>
                    </mask>
                    <g mask="url(#J)">
                        <path fill="url(#y)" fill-rule="nonzero" d="M37.845 3.598l-2.696 2.148-14.446-5.2c-.98-.571-2.568-.573-3.549-.006L2.615 5.746 0 3.598v21.19h.002c.012.363.255.725.733 1.003l16.406 9.565c.98.572 2.57.574 3.55.006l16.418-9.517c.503-.291.746-.675.733-1.058h.003V3.597z"/>
                        <mask id="L" fill="#fff">
                            <use xlink:href="#K"/>
                        </mask>
                        <use fill="url(#A)" xlink:href="#K"/>
                        <path fill="url(#B)" d="M18.922 14.548l-.32 22.73 19.251-11.352-.008-22.328z" mask="url(#L)"/>
                    </g>
                </g>
                <path fill="url(#D)" d="M37.11 12.058l-16.42 9.516c-.98.568-2.569.566-3.548-.005L.735 12.005c-.98-.572-.98-1.495 0-2.063L17.156.424c.98-.568 2.569-.565 3.548.006L37.11 9.995c.98.57.98 1.495 0 2.063" transform="translate(414.087 99.314)"/>
                <path fill="#FFF" fill-rule="nonzero" d="M419.367 120.684l5.937 3.481c.355.208.642.712.642 1.126v6.938c0 .414-.287.581-.642.374l-5.937-3.481c-.354-.209-.642-.713-.642-1.127v-6.938c0-.293.145-.462.355-.462.102.004.2.035.287.09v-.001z"/>
            </g>
            <g>
                <g transform="translate(362.237 71.466)">
                    <mask id="N" fill="#fff">
                        <use xlink:href="#M"/>
                    </mask>
                    <g mask="url(#N)">
                        <path fill="url(#y)" fill-rule="nonzero" d="M37.845 3.598l-2.696 2.148-14.446-5.2c-.98-.571-2.568-.573-3.549-.006L2.615 5.746 0 3.598v21.19h.002c.012.363.255.725.733 1.003l16.406 9.565c.98.572 2.57.574 3.55.006l16.418-9.517c.503-.291.746-.675.733-1.058h.003V3.597z"/>
                        <mask id="P" fill="#fff">
                            <use xlink:href="#O"/>
                        </mask>
                        <use fill="url(#A)" xlink:href="#O"/>
                        <path fill="url(#B)" d="M18.922 14.548l-.32 22.73 19.251-11.352-.008-22.328z" mask="url(#P)"/>
                    </g>
                </g>
                <path fill="url(#D)" d="M37.11 12.058l-16.42 9.516c-.98.568-2.569.566-3.548-.005L.735 12.005c-.98-.572-.98-1.495 0-2.063L17.156.424c.98-.568 2.569-.565 3.548.006L37.11 9.995c.98.57.98 1.495 0 2.063" transform="translate(362.237 64.014)"/>
                <path fill="#FFF" fill-rule="nonzero" d="M367.517 85.384l5.937 3.481c.355.208.643.712.643 1.126v6.938c0 .414-.288.581-.643.374l-5.937-3.481c-.354-.209-.641-.713-.641-1.127v-6.938c0-.293.144-.462.354-.462.102.004.201.034.287.09v-.001z"/>
            </g>
            <g>
                <g transform="translate(394.346 74.48)">
                    <mask id="R" fill="#fff">
                        <use xlink:href="#Q"/>
                    </mask>
                    <g mask="url(#R)">
                        <path fill="url(#y)" fill-rule="nonzero" d="M37.845 3.598l-2.696 2.148-14.446-5.2c-.98-.571-2.568-.573-3.549-.006L2.615 5.746 0 3.598v21.19h.002c.012.363.255.725.733 1.003l16.406 9.565c.98.572 2.57.574 3.55.006l16.418-9.517c.503-.291.746-.675.733-1.058h.003V3.597z"/>
                        <mask id="T" fill="#fff">
                            <use xlink:href="#S"/>
                        </mask>
                        <use fill="url(#A)" xlink:href="#S"/>
                        <path fill="url(#B)" d="M18.922 14.548l-.32 22.73 19.251-11.352-.008-22.328z" mask="url(#T)"/>
                    </g>
                </g>
                <path fill="url(#D)" d="M37.11 12.058l-16.42 9.516c-.98.568-2.569.566-3.548-.005L.735 12.005c-.98-.572-.98-1.495 0-2.063L17.156.424c.98-.568 2.569-.565 3.548.006L37.11 9.995c.98.57.98 1.495 0 2.063" transform="translate(394.346 67.03)"/>
                <path fill="#FFF" fill-rule="nonzero" d="M399.626 88.399l5.937 3.481c.355.208.643.712.643 1.126v6.938c0 .414-.288.581-.643.374l-5.937-3.481c-.354-.209-.641-.713-.641-1.127v-6.938c0-.293.144-.462.354-.462.102.004.201.034.287.09v-.001z"/>
            </g>
            <g>
                <g transform="translate(377.29 40.655)">
                    <mask id="V" fill="#fff">
                        <use xlink:href="#U"/>
                    </mask>
                    <g mask="url(#V)">
                        <path fill="url(#y)" fill-rule="nonzero" d="M37.845 3.598l-2.696 2.148-14.446-5.2c-.98-.571-2.568-.573-3.549-.006L2.615 5.746 0 3.598v21.19h.002c.012.363.255.725.733 1.003l16.406 9.565c.98.572 2.57.574 3.55.006l16.418-9.517c.503-.291.746-.675.733-1.058h.003V3.597z"/>
                        <mask id="X" fill="#fff">
                            <use xlink:href="#W"/>
                        </mask>
                        <use fill="url(#A)" xlink:href="#W"/>
                        <path fill="url(#B)" d="M18.922 14.548l-.32 22.73 19.251-11.352-.008-22.328z" mask="url(#X)"/>
                    </g>
                </g>
                <path fill="url(#D)" d="M37.11 12.058l-16.42 9.516c-.98.568-2.569.566-3.548-.005L.735 12.005c-.98-.572-.98-1.495 0-2.063L17.156.424c.98-.568 2.569-.565 3.548.006L37.11 9.995c.98.57.98 1.495 0 2.063" transform="translate(377.29 33.204)"/>
                <path fill="#FFF" fill-rule="nonzero" d="M382.57 54.573l5.937 3.481c.355.208.643.712.643 1.126v6.938c0 .415-.288.582-.643.374l-5.937-3.481c-.354-.208-.641-.712-.641-1.127v-6.938c0-.293.144-.462.355-.462.101.004.2.035.286.09v-.001z"/>
            </g>
        </g>
        <path fill="url(#Y)" d="M178.69 134.504h81.648l5.936 11.664-5.936 11.016H178.69l5.833-11.016z" transform="translate(0 4)"/>
        <text fill="#FFF" font-family="BioSans-Bold, Bio Sans" font-size="17.69" font-weight="bold" transform="translate(0 4)">
            <tspan x="200.344" y="151.963">BAND</tspan>
        </text>
    </g>
</svg>
