<svg xmlns="http://www.w3.org/2000/svg" xmlns:xlink="http://www.w3.org/1999/xlink" width="1914" height="658" viewBox="0 0 1914 658">
    <defs>
        <linearGradient id="a" x1="0%" y1="44.501%" y2="55.499%">
            <stop offset="0%" stop-color="#4648FF"/>
            <stop offset="100%" stop-color="#FE4DFF"/>
        </linearGradient>
        <linearGradient id="b" x1="0%" y1="44.501%" y2="55.499%">
            <stop offset="0%" stop-color="#16B6FF"/>
            <stop offset="100%" stop-color="#FE88FF"/>
        </linearGradient>
        <linearGradient id="c" x1="0%" y1="43.837%" y2="56.163%">
            <stop offset="0%" stop-color="#4648FF"/>
            <stop offset="100%" stop-color="#FE4DFF"/>
        </linearGradient>
        <linearGradient id="d" x1="0%" y1="43.837%" y2="56.163%">
            <stop offset="0%" stop-color="#16B6FF"/>
            <stop offset="100%" stop-color="#FE88FF"/>
        </linearGradient>
        <linearGradient id="e" x1="0%" y1="44.039%" y2="55.961%">
            <stop offset="0%" stop-color="#4648FF"/>
            <stop offset="100%" stop-color="#FE4DFF"/>
        </linearGradient>
        <linearGradient id="f" x1="0%" y1="44.039%" y2="55.961%">
            <stop offset="0%" stop-color="#16B6FF"/>
            <stop offset="100%" stop-color="#FE88FF"/>
        </linearGradient>
        <linearGradient id="g" x1="0%" y1="43.76%" y2="56.24%">
            <stop offset="0%" stop-color="#4648FF"/>
            <stop offset="100%" stop-color="#FE4DFF"/>
        </linearGradient>
        <linearGradient id="h" x1="0%" y1="43.76%" y2="56.24%">
            <stop offset="0%" stop-color="#16B6FF"/>
            <stop offset="100%" stop-color="#FE88FF"/>
        </linearGradient>
        <linearGradient id="i" x1="0%" y1="43.883%" y2="56.117%">
            <stop offset="0%" stop-color="#4648FF"/>
            <stop offset="100%" stop-color="#FE4DFF"/>
        </linearGradient>
        <linearGradient id="j" x1="0%" y1="43.883%" y2="56.117%">
            <stop offset="0%" stop-color="#16B6FF"/>
            <stop offset="100%" stop-color="#FE88FF"/>
        </linearGradient>
        <linearGradient id="k" x1="0%" y1="43.342%" y2="56.658%">
            <stop offset="0%" stop-color="#00FF6F"/>
            <stop offset="100%" stop-color="#0042FF"/>
        </linearGradient>
        <linearGradient id="l" x1="0%" y1="43.342%" y2="56.658%">
            <stop offset="0%" stop-color="#37FF96"/>
            <stop offset="100%" stop-color="#648CFF"/>
        </linearGradient>
        <linearGradient id="m" x1="0%" y1="43.864%" y2="56.136%">
            <stop offset="0%" stop-color="#00FF6F"/>
            <stop offset="100%" stop-color="#0042FF"/>
        </linearGradient>
        <linearGradient id="n" x1="0%" y1="43.864%" y2="56.136%">
            <stop offset="0%" stop-color="#64FF86"/>
            <stop offset="100%" stop-color="#648CFF"/>
        </linearGradient>
        <linearGradient id="o" x1="0%" y1="43.635%" y2="56.365%">
            <stop offset="0%" stop-color="#00FF6F"/>
            <stop offset="100%" stop-color="#0042FF"/>
        </linearGradient>
        <linearGradient id="p" x1="0%" y1="43.635%" y2="56.365%">
            <stop offset="0%" stop-color="#53FF6B"/>
            <stop offset="100%" stop-color="#648CFF"/>
        </linearGradient>
        <linearGradient id="q" x1="0%" y1="43.801%" y2="56.199%">
            <stop offset="0%" stop-color="#00FF4E"/>
            <stop offset="100%" stop-color="#0059FF"/>
        </linearGradient>
        <linearGradient id="r" x1="0%" y1="43.801%" y2="56.199%">
            <stop offset="0%" stop-color="#43FF85"/>
            <stop offset="100%" stop-color="#4C8BFF"/>
        </linearGradient>
        <linearGradient id="s" x1="0%" y1="43.508%" y2="56.492%">
            <stop offset="0%" stop-color="#0F4"/>
            <stop offset="100%" stop-color="#006FFF"/>
        </linearGradient>
        <linearGradient id="t" x1="0%" y1="43.508%" y2="56.492%">
            <stop offset="0%" stop-color="#A3FF92"/>
            <stop offset="100%" stop-color="#64A7FF"/>
        </linearGradient>
        <filter id="u" width="204%" height="223.8%" x="-52%" y="-61.9%" filterUnits="objectBoundingBox">
            <feOffset dy="5" in="SourceAlpha" result="shadowOffsetOuter1"/>
            <feGaussianBlur in="shadowOffsetOuter1" result="shadowBlurOuter1" stdDeviation="7.5"/>
            <feColorMatrix in="shadowBlurOuter1" result="shadowMatrixOuter1" values="0 0 0 0 0.466666667 0 0 0 0 0.556862745 0 0 0 0 1 0 0 0 0.34965035 0"/>
            <feMerge>
                <feMergeNode in="shadowMatrixOuter1"/>
                <feMergeNode in="SourceGraphic"/>
            </feMerge>
        </filter>
        <linearGradient id="v" x1="0%" y1="44.189%" y2="55.811%">
            <stop offset="0%" stop-color="#00FFFA"/>
            <stop offset="100%" stop-color="#7D00FF"/>
        </linearGradient>
        <linearGradient id="w" x1="0%" y1="44.189%" y2="55.811%">
            <stop offset="0%" stop-color="#37FBFF"/>
            <stop offset="100%" stop-color="#8264FF"/>
        </linearGradient>
        <linearGradient id="x" x1="0%" y1="44.021%" y2="55.979%">
            <stop offset="0%" stop-color="#00FFFA"/>
            <stop offset="100%" stop-color="#7D00FF"/>
        </linearGradient>
        <linearGradient id="y" x1="0%" y1="44.021%" y2="55.979%">
            <stop offset="0%" stop-color="#37FBFF"/>
            <stop offset="100%" stop-color="#8264FF"/>
        </linearGradient>
        <linearGradient id="z" x1="0%" y1="43.598%" y2="56.402%">
            <stop offset="0%" stop-color="#00FFFA"/>
            <stop offset="100%" stop-color="#7D00FF"/>
        </linearGradient>
        <linearGradient id="A" x1="0%" y1="43.598%" y2="56.402%">
            <stop offset="0%" stop-color="#37FBFF"/>
            <stop offset="100%" stop-color="#8264FF"/>
        </linearGradient>
        <linearGradient id="B" x1="0%" y1="43.603%" y2="56.397%">
            <stop offset="0%" stop-color="#00FFFA"/>
            <stop offset="100%" stop-color="#7D00FF"/>
        </linearGradient>
        <linearGradient id="C" x1="0%" y1="43.603%" y2="56.397%">
            <stop offset="0%" stop-color="#37FBFF"/>
            <stop offset="100%" stop-color="#8264FF"/>
        </linearGradient>
        <linearGradient id="D" x1="0%" y1="43.85%" y2="56.15%">
            <stop offset="0%" stop-color="#00FFFA"/>
            <stop offset="100%" stop-color="#7D00FF"/>
        </linearGradient>
        <linearGradient id="E" x1="0%" y1="43.85%" y2="56.15%">
            <stop offset="0%" stop-color="#37FBFF"/>
            <stop offset="100%" stop-color="#8264FF"/>
        </linearGradient>
        <linearGradient id="F" x1="0%" y1="43.4%" y2="56.6%">
            <stop offset="0%" stop-color="#28377A"/>
            <stop offset="100%" stop-color="#182D98"/>
        </linearGradient>
        <linearGradient id="G" x1="0%" x2="99.324%" y1="43.4%" y2="56.511%">
            <stop offset="0%" stop-color="#586BC6"/>
            <stop offset="100%" stop-color="#364BBB"/>
        </linearGradient>
        <filter id="H" width="179.5%" height="172.5%" x="-39.7%" y="-36.2%" filterUnits="objectBoundingBox">
            <feOffset dy="5" in="SourceAlpha" result="shadowOffsetOuter1"/>
            <feGaussianBlur in="shadowOffsetOuter1" result="shadowBlurOuter1" stdDeviation="12.5"/>
            <feColorMatrix in="shadowBlurOuter1" result="shadowMatrixOuter1" values="0 0 0 0 0.166862601 0 0 0 0 0.236687193 0 0 0 0 0.579738451 0 0 0 0.580392264 0"/>
            <feMerge>
                <feMergeNode in="shadowMatrixOuter1"/>
                <feMergeNode in="SourceGraphic"/>
            </feMerge>
        </filter>
        <linearGradient id="I" x1="0%" x2="99.393%" y1="32.569%" y2="32.569%">
            <stop offset="0%" stop-color="#037ABC"/>
            <stop offset="100%" stop-color="#4C00AA"/>
        </linearGradient>
        <linearGradient id="J" x1="49.696%" x2="49.696%" y1="-17.127%" y2="82.265%">
            <stop offset="0%" stop-color="#2A397E"/>
            <stop offset="100%" stop-color="#182256"/>
        </linearGradient>
        <filter id="K" width="329%" height="166.1%" x="-114.5%" y="-33.1%" filterUnits="objectBoundingBox">
            <feOffset dy="5" in="SourceAlpha" result="shadowOffsetOuter1"/>
            <feGaussianBlur in="shadowOffsetOuter1" result="shadowBlurOuter1" stdDeviation="7.5"/>
            <feColorMatrix in="shadowBlurOuter1" result="shadowMatrixOuter1" values="0 0 0 0 0.468292683 0 0 0 0 0.556910569 0 0 0 0 1 0 0 0 0.340280813 0"/>
            <feMerge>
                <feMergeNode in="shadowMatrixOuter1"/>
                <feMergeNode in="SourceGraphic"/>
            </feMerge>
        </filter>
        <path id="N" d="M0 61.586l31.01 18.116L62 61.588 30.987 43.474z"/>
        <filter id="L" width="201.4%" height="273.5%" x="-50.7%" y="-70.2%" filterUnits="objectBoundingBox">
            <feGaussianBlur in="SourceGraphic" stdDeviation=".808"/>
        </filter>
        <filter id="M" width="257.8%" height="370.1%" x="-78.9%" y="-118.5%" filterUnits="objectBoundingBox">
            <feOffset dy="6" in="SourceAlpha" result="shadowOffsetOuter1"/>
            <feGaussianBlur in="shadowOffsetOuter1" result="shadowBlurOuter1" stdDeviation="14.5"/>
            <feColorMatrix in="shadowBlurOuter1" values="0 0 0 0 0.143996451 0 0 0 0 0.49443254 0 0 0 0 0.996037138 0 0 0 1 0"/>
        </filter>
        <path id="O" d="M0 .08h30.902v54.256H0z"/>
        <path id="Q" d="M.067.168h30.9v72.337H.066z"/>
        <path id="S" d="M0 .168h30.898v72.337H0z"/>
        <filter id="U" width="704.3%" height="543.8%" x="-302.1%" y="-221.9%" filterUnits="objectBoundingBox">
            <feOffset dy="37" in="SourceAlpha" result="shadowOffsetOuter1"/>
            <feGaussianBlur in="shadowOffsetOuter1" result="shadowBlurOuter1" stdDeviation="18.5"/>
            <feColorMatrix in="shadowBlurOuter1" result="shadowMatrixOuter1" values="0 0 0 0 0.415686275 0 0 0 0 0.603921569 0 0 0 0 1 0 0 0 0.356643357 0"/>
            <feMerge>
                <feMergeNode in="shadowMatrixOuter1"/>
                <feMergeNode in="SourceGraphic"/>
            </feMerge>
        </filter>
        <linearGradient id="V" x1="0%" y1="50%" y2="50%">
            <stop offset="0%" stop-color="#FFF"/>
            <stop offset="100%" stop-color="#ACC0E3"/>
        </linearGradient>
        <linearGradient id="W" x1="16.311%" x2="99.271%" y1="50%" y2="50%">
            <stop offset="0%" stop-color="#FFF"/>
            <stop offset="100%" stop-color="#ACC0E3"/>
        </linearGradient>
        <filter id="X" width="377.1%" height="294%" x="-138.6%" y="-97%" filterUnits="objectBoundingBox">
            <feOffset dy="7" in="SourceAlpha" result="shadowOffsetOuter1"/>
            <feGaussianBlur in="shadowOffsetOuter1" result="shadowBlurOuter1" stdDeviation="9"/>
            <feColorMatrix in="shadowBlurOuter1" result="shadowMatrixOuter1" values="0 0 0 0 0.415686275 0 0 0 0 0.603921569 0 0 0 0 1 0 0 0 0.356643357 0"/>
            <feMerge>
                <feMergeNode in="shadowMatrixOuter1"/>
                <feMergeNode in="SourceGraphic"/>
            </feMerge>
        </filter>
        <linearGradient id="Y" x1="0%" y1="50%" y2="50%">
            <stop offset="0%" stop-color="#FFF"/>
            <stop offset="100%" stop-color="#ACC0E3"/>
        </linearGradient>
        <linearGradient id="Z" x1="16.311%" x2="99.271%" y1="50%" y2="50%">
            <stop offset="0%" stop-color="#FFF"/>
            <stop offset="100%" stop-color="#ACC0E3"/>
        </linearGradient>
        <filter id="aa" width="369.2%" height="289.2%" x="-134.6%" y="-94.6%" filterUnits="objectBoundingBox">
            <feOffset dy="5" in="SourceAlpha" result="shadowOffsetOuter1"/>
            <feGaussianBlur in="shadowOffsetOuter1" result="shadowBlurOuter1" stdDeviation="6.5"/>
            <feColorMatrix in="shadowBlurOuter1" result="shadowMatrixOuter1" values="0 0 0 0 0.415686275 0 0 0 0 0.603921569 0 0 0 0 1 0 0 0 0.356643357 0"/>
            <feMerge>
                <feMergeNode in="shadowMatrixOuter1"/>
                <feMergeNode in="SourceGraphic"/>
            </feMerge>
        </filter>
        <linearGradient id="ab" x1="0%" y1="50%" y2="50%">
            <stop offset="0%" stop-color="#FFF"/>
            <stop offset="100%" stop-color="#ACC0E3"/>
        </linearGradient>
        <linearGradient id="ac" x1="16.311%" x2="99.271%" y1="50%" y2="50%">
            <stop offset="0%" stop-color="#FFF"/>
            <stop offset="100%" stop-color="#ACC0E3"/>
        </linearGradient>
    </defs>
    <g fill="none" fill-rule="evenodd">
        <g fill="#FFF" opacity=".497">
            <path fill-opacity=".3" d="M1464.19 358.312l-65.656 31.464a4 4 0 0 1-1.729.393h-84.416a4 4 0 0 1-1.76-.409l-68.355-33.507a4 4 0 0 1 .03-7.197l68.336-32.807a4 4 0 0 1 1.731-.394h84.349a4 4 0 0 1 1.873.466l65.742 34.85a4 4 0 0 1-.144 7.141zM1464.411 274.457l-65.656 31.464a4 4 0 0 1-1.729.393h-84.416a4 4 0 0 1-1.761-.409l-68.354-33.507a4 4 0 0 1 .03-7.198l68.336-32.806a4 4 0 0 1 1.731-.394h84.348a4 4 0 0 1 1.874.466l65.742 34.85a4 4 0 0 1-.145 7.14z"/>
            <path fill-opacity=".26" d="M1641.637 486.167l-65.657 31.464a4 4 0 0 1-1.729.393h-84.416a4 4 0 0 1-1.76-.409l-68.355-33.507a4 4 0 0 1 .03-7.197l68.336-32.807a4 4 0 0 1 1.732-.394h84.348a4 4 0 0 1 1.873.466l65.743 34.85a4 4 0 0 1-.145 7.141zM1641.637 403.392l-65.657 31.464a4 4 0 0 1-1.729.393h-84.416a4 4 0 0 1-1.76-.408l-68.355-33.507a4 4 0 0 1 .03-7.198l68.336-32.806a4 4 0 0 1 1.732-.394h84.348a4 4 0 0 1 1.873.465l65.743 34.85a4 4 0 0 1-.145 7.141z"/>
            <path fill-opacity=".1" d="M1286.745 655.959l-65.657 31.463a4 4 0 0 1-1.729.393h-84.416a4 4 0 0 1-1.761-.408l-68.354-33.507a4 4 0 0 1 .03-7.198l68.336-32.806a4 4 0 0 1 1.731-.394h84.348a4 4 0 0 1 1.874.465l65.742 34.85a4 4 0 0 1-.144 7.142zM927.726 649.822l-65.657 31.463a4 4 0 0 1-1.729.393h-84.416a4 4 0 0 1-1.76-.408l-68.355-33.507a4 4 0 0 1 .03-7.198l68.336-32.806a4 4 0 0 1 1.731-.394h84.349a4 4 0 0 1 1.873.465l65.742 34.85a4 4 0 0 1-.144 7.142z"/>
            <path fill-opacity=".22" d="M1464.19 530.158l-65.656 31.464a4 4 0 0 1-1.729.392h-84.416a4 4 0 0 1-1.76-.408l-68.355-33.507a4 4 0 0 1 .03-7.198l68.336-32.806a4 4 0 0 1 1.731-.394h84.349a4 4 0 0 1 1.873.466l65.742 34.85a4 4 0 0 1-.144 7.14z"/>
            <path fill-opacity=".18" d="M1111.583 530.158l-65.657 31.464a4 4 0 0 1-1.729.392h-84.416a4 4 0 0 1-1.761-.408L889.666 528.1a4 4 0 0 1 .03-7.198l68.336-32.806a4 4 0 0 1 1.731-.394h84.348a4 4 0 0 1 1.874.466l65.742 34.85a4 4 0 0 1-.144 7.14z"/>
            <path fill-opacity=".26" d="M1286.965 485.911l-65.656 31.464a4 4 0 0 1-1.729.393h-84.417a4 4 0 0 1-1.76-.408l-68.354-33.508a4 4 0 0 1 .03-7.197l68.336-32.807a4 4 0 0 1 1.731-.394h84.348a4 4 0 0 1 1.874.466l65.742 34.85a4 4 0 0 1-.145 7.141zM1286.965 403.392l-65.656 31.464a4 4 0 0 1-1.729.393h-84.417a4 4 0 0 1-1.76-.408l-68.354-33.507a4 4 0 0 1 .03-7.198l68.336-32.806a4 4 0 0 1 1.731-.394h84.348a4 4 0 0 1 1.874.465l65.742 34.85a4 4 0 0 1-.145 7.141z"/>
            <path fill-opacity=".22" d="M1991.592 402.963l-65.657 31.464a4 4 0 0 1-1.729.393h-84.416a4 4 0 0 1-1.761-.409l-68.354-33.507a4 4 0 0 1 .03-7.197l68.336-32.807a4 4 0 0 1 1.731-.394h84.348a4 4 0 0 1 1.874.466l65.742 34.85a4 4 0 0 1-.144 7.141z"/>
            <path fill-opacity=".26" d="M1817.24 357.958l-65.656 31.464a4 4 0 0 1-1.729.393h-84.416a4 4 0 0 1-1.761-.409l-68.354-33.507a4 4 0 0 1 .03-7.197l68.336-32.807a4 4 0 0 1 1.731-.394h84.348a4 4 0 0 1 1.874.466l65.742 34.85a4 4 0 0 1-.145 7.141z"/>
            <path fill-opacity=".1" d="M1641.637 655.959l-65.657 31.463a4 4 0 0 1-1.729.393h-84.416a4 4 0 0 1-1.76-.408L1419.72 653.9a4 4 0 0 1 .03-7.198l68.336-32.806a4 4 0 0 1 1.732-.394h84.348a4 4 0 0 1 1.873.465l65.743 34.85a4 4 0 0 1-.145 7.142z"/>
            <path fill-opacity=".14" d="M1464.19 613l-65.656 31.463a4 4 0 0 1-1.729.393h-84.416a4 4 0 0 1-1.76-.408l-68.355-33.508a4 4 0 0 1 .03-7.197l68.336-32.807a4 4 0 0 1 1.731-.394h84.349a4 4 0 0 1 1.873.466l65.742 34.85a4 4 0 0 1-.144 7.141z"/>
            <path fill-opacity=".2" d="M763.691 697.895l-65.657 31.464a4 4 0 0 1-1.728.393h-84.417a4 4 0 0 1-1.76-.409l-68.355-33.507a4 4 0 0 1 .03-7.197l68.337-32.807a4 4 0 0 1 1.73-.394h84.349a4 4 0 0 1 1.873.466l65.743 34.85a4 4 0 0 1-.145 7.141z"/>
            <path fill-opacity=".1" d="M586.245 655.959l-65.657 31.463a4 4 0 0 1-1.728.393h-84.417a4 4 0 0 1-1.76-.408L364.327 653.9a4 4 0 0 1 .03-7.198l68.337-32.806a4 4 0 0 1 1.73-.394h84.349a4 4 0 0 1 1.873.465l65.743 34.85a4 4 0 0 1-.145 7.142z"/>
            <path fill-opacity=".18" d="M1817.24 530.265l-65.656 31.464a4 4 0 0 1-1.729.393h-84.416a4 4 0 0 1-1.761-.409l-68.354-33.507a4 4 0 0 1 .03-7.197l68.336-32.807a4 4 0 0 1 1.731-.394h84.348a4 4 0 0 1 1.874.466l65.742 34.85a4 4 0 0 1-.145 7.141z"/>
            <path fill-opacity=".22" d="M1991.592 485.911l-65.657 31.464a4 4 0 0 1-1.729.393h-84.416a4 4 0 0 1-1.761-.408l-68.354-33.508a4 4 0 0 1 .03-7.197l68.336-32.807a4 4 0 0 1 1.731-.394h84.348a4 4 0 0 1 1.874.466l65.742 34.85a4 4 0 0 1-.144 7.141z"/>
            <path fill-opacity=".14" d="M1111.583 612.645l-65.657 31.464a4 4 0 0 1-1.729.393h-84.416a4 4 0 0 1-1.761-.408l-68.354-33.507a4 4 0 0 1 .03-7.198l68.336-32.806a4 4 0 0 1 1.731-.394h84.348a4 4 0 0 1 1.874.465l65.742 34.85a4 4 0 0 1-.144 7.141zM399.514 612.645l-65.657 31.464a4 4 0 0 1-1.728.393h-84.417a4 4 0 0 1-1.76-.408l-68.355-33.507a4 4 0 0 1 .03-7.198l68.337-32.806a4 4 0 0 1 1.73-.394h84.349a4 4 0 0 1 1.873.465l65.743 34.85a4 4 0 0 1-.145 7.141z"/>
            <path fill-opacity=".1" d="M224.131 655.959l-65.657 31.463a4 4 0 0 1-1.728.393H72.329a4 4 0 0 1-1.76-.408L2.214 653.9a4 4 0 0 1 .03-7.198l68.337-32.806a4 4 0 0 1 1.73-.394h84.349a4 4 0 0 1 1.873.465l65.743 34.85a4 4 0 0 1-.145 7.142z"/>
        </g>
        <path fill="url(#a)" d="M.256 9.118l.302-1.034a1.25 1.25 0 0 1 .915-.867l21.05-4.93a1.25 1.25 0 0 1 .549-.006l22.963 4.95c.44.094.796.418.93.848l.328 1.05a1.25 1.25 0 0 1-.469 1.392l-7.462 5.304a1.25 1.25 0 0 1-.574.222l-15.827 1.929a1.25 1.25 0 0 1-.328-.003L9.206 16.049a1.25 1.25 0 0 1-.522-.2L.758 10.504a1.25 1.25 0 0 1-.502-1.387z" transform="translate(1501.19 464.5)"/>
        <path fill="url(#b)" d="M1.562 6.74l7.12-4.712a1.25 1.25 0 0 1 .524-.197L22.642.021a1.25 1.25 0 0 1 .31-.003l15.837 1.816c.206.023.403.098.573.216l6.746 4.707a1.25 1.25 0 0 1 .009 2.045l-6.755 4.801a1.25 1.25 0 0 1-.574.222l-15.827 1.93a1.25 1.25 0 0 1-.328-.004L9.206 13.827a1.25 1.25 0 0 1-.522-.2L1.553 8.818a1.25 1.25 0 0 1 .009-2.08z" transform="translate(1501.19 464.5)"/>
        <path fill="url(#c)" d="M.312 13.054l.449-1.627a1.68 1.68 0 0 1 1.215-1.183l28.2-6.994a1.68 1.68 0 0 1 .778-.007l30.764 7.018a1.68 1.68 0 0 1 1.237 1.162l.486 1.646a1.68 1.68 0 0 1-.6 1.818l-10.06 7.568a1.68 1.68 0 0 1-.795.324l-21.188 2.734a1.68 1.68 0 0 1-.467-.006L12.36 22.782a1.68 1.68 0 0 1-.724-.293L.955 14.868a1.68 1.68 0 0 1-.643-1.814z" transform="translate(1493.937 444.972)"/>
        <path fill="url(#d)" d="M1.946 9.67l9.687-6.786a1.68 1.68 0 0 1 .726-.287L30.345.031a1.68 1.68 0 0 1 .44-.004L51.986 2.6c.288.035.562.144.796.317l9.176 6.777a1.68 1.68 0 0 1 .012 2.693l-9.19 6.914a1.68 1.68 0 0 1-.795.324L30.798 22.36a1.68 1.68 0 0 1-.467-.005L12.36 19.628a1.68 1.68 0 0 1-.724-.293l-9.701-6.923a1.68 1.68 0 0 1 .012-2.743z" transform="translate(1493.937 444.972)"/>
        <path fill="url(#e)" d="M.407 16.133l.545-1.945c.208-.74.798-1.31 1.545-1.493l35.54-8.668c.318-.078.65-.08.97-.009l38.772 8.7c.75.168 1.351.728 1.572 1.464l.591 1.969c.258.86-.05 1.789-.772 2.323l-12.648 9.36a2.128 2.128 0 0 1-.998.4l-26.712 3.39c-.193.024-.389.022-.582-.007l-22.657-3.379a2.128 2.128 0 0 1-.909-.363L1.234 18.45a2.128 2.128 0 0 1-.827-2.317z" transform="translate(1484.613 426.472)"/>
        <path fill="url(#f)" d="M2.52 11.938l12.142-8.363c.272-.188.584-.31.911-.355L38.247.038c.182-.025.366-.027.548-.005l26.73 3.19c.36.044.704.178.998.392l11.501 8.354a2.128 2.128 0 0 1 .015 3.432l-11.517 8.524a2.128 2.128 0 0 1-.998.4l-26.712 3.39c-.193.024-.389.022-.582-.007L15.573 24.33a2.128 2.128 0 0 1-.909-.363L2.505 15.433a2.128 2.128 0 0 1 .016-3.495z" transform="translate(1484.613 426.472)"/>
        <path fill="url(#g)" d="M.468 19.84l.681-2.484a2.547 2.547 0 0 1 1.84-1.797l42.559-10.62c.389-.098.796-.102 1.186-.012l46.43 10.659a2.547 2.547 0 0 1 1.873 1.765l.737 2.511a2.547 2.547 0 0 1-.906 2.748L79.683 34.107c-.354.267-.77.438-1.21.495l-31.977 4.152c-.236.03-.476.028-.712-.008l-27.122-4.139a2.547 2.547 0 0 1-1.101-.449L1.439 22.582a2.547 2.547 0 0 1-.97-2.742z" transform="translate(1477.36 401.806)"/>
        <path fill="url(#h)" d="M2.926 14.696L17.558 4.383a2.547 2.547 0 0 1 1.105-.439L45.805.048c.222-.032.448-.034.67-.007l32 3.908c.438.054.855.22 1.21.484l13.86 10.3a2.547 2.547 0 0 1 .018 4.075l-13.88 10.508c-.354.268-.77.439-1.21.496l-31.977 4.151c-.236.03-.476.028-.712-.008l-27.122-4.138a2.547 2.547 0 0 1-1.101-.45L2.908 18.848a2.547 2.547 0 0 1 .018-4.151z" transform="translate(1477.36 401.806)"/>
        <path fill="url(#i)" d="M.567 23.438l.803-2.9a3.032 3.032 0 0 1 2.195-2.135L54.419 5.838a3.032 3.032 0 0 1 1.4-.013l55.477 12.61a3.032 3.032 0 0 1 2.235 2.095l.87 2.934a3.032 3.032 0 0 1-1.089 3.288l-18.13 13.59c-.42.315-.913.515-1.432.582l-38.213 4.912a3.032 3.032 0 0 1-.839-.01L22.286 40.93a3.032 3.032 0 0 1-1.304-.527L1.732 26.718a3.032 3.032 0 0 1-1.165-3.28z" transform="translate(1467 372)"/>
        <path fill="url(#j)" d="M3.53 17.357L20.978 5.181c.39-.272.838-.448 1.308-.515L54.722.056c.262-.037.528-.04.79-.008l38.24 4.624a3.032 3.032 0 0 1 1.432.568L111.712 17.4a3.032 3.032 0 0 1 .022 4.868L95.182 34.677c-.42.314-.913.514-1.432.581L55.537 40.17a3.032 3.032 0 0 1-.839-.01l-32.412-4.896a3.032 3.032 0 0 1-1.304-.527L3.508 22.314a3.032 3.032 0 0 1 .022-4.957z" transform="translate(1467 372)"/>
        <g>
            <path fill="url(#k)" d="M.378 10.057L.47 9.71a2.171 2.171 0 0 1 1.557-1.546l21.251-5.478c.342-.088.7-.091 1.043-.01l23.243 5.512a2.171 2.171 0 0 1 1.587 1.519l.105.37c.241.848-.055 1.76-.75 2.303l-7.22 5.645c-.304.238-.666.39-1.049.442L24.112 20.63c-.208.027-.419.025-.626-.008L9.84 18.472a2.171 2.171 0 0 1-.956-.401l-7.702-5.713a2.171 2.171 0 0 1-.805-2.3z" transform="translate(1154.172 465.298)"/>
            <path fill="url(#l)" d="M2.389 7.19l6.493-4.728c.284-.207.613-.341.96-.393L23.504.044c.196-.03.394-.031.59-.007l16.144 2.037c.382.048.745.197 1.05.432l6.144 4.716a2.171 2.171 0 0 1 .016 3.433l-6.162 4.818c-.304.238-.666.39-1.049.442l-16.125 2.162c-.208.028-.419.026-.626-.007L9.84 15.92a2.171 2.171 0 0 1-.956-.401l-6.512-4.83a2.171 2.171 0 0 1 .016-3.5z" transform="translate(1154.172 465.298)"/>
            <path fill="url(#m)" d="M.539 12.975l.084-.305a2.916 2.916 0 0 1 2.11-2.054l28.822-7.132c.442-.11.904-.113 1.348-.012l31.52 7.175a2.916 2.916 0 0 1 2.149 2.016l.094.319a2.916 2.916 0 0 1-1.045 3.16l-9.726 7.301a2.916 2.916 0 0 1-1.378.56l-21.885 2.818c-.268.035-.54.032-.808-.009L13.3 24.009a2.916 2.916 0 0 1-1.255-.507L1.648 16.098a2.889 2.889 0 0 1-1.11-3.123z" transform="translate(1145.897 446.667)"/>
            <path fill="url(#n)" d="M3.388 9.239l8.654-6.048a2.916 2.916 0 0 1 1.26-.497L31.847.054c.253-.036.509-.038.762-.008L54.518 2.7c.5.06.974.249 1.38.547l8.187 6.034a2.916 2.916 0 0 1 .021 4.68l-8.211 6.164a2.916 2.916 0 0 1-1.378.56l-21.885 2.818c-.268.035-.54.032-.808-.009L13.3 20.691a2.916 2.916 0 0 1-1.255-.507l-8.679-6.18a2.916 2.916 0 0 1 .021-4.765z" transform="translate(1145.897 446.667)"/>
            <path fill="url(#o)" d="M.668 16.481l.109-.4a3.695 3.695 0 0 1 2.663-2.615L39.293 4.43a3.695 3.695 0 0 1 1.738-.017l39.215 9.092a3.695 3.695 0 0 1 2.713 2.569l.128.44a3.695 3.695 0 0 1-1.304 3.966L69.672 29.74a3.695 3.695 0 0 1-1.764.729l-27.225 3.57a3.695 3.695 0 0 1-1.043-.012l-23.04-3.55a3.695 3.695 0 0 1-1.606-.661L2.064 20.44a3.695 3.695 0 0 1-1.396-3.959z" transform="translate(1137.62 425.965)"/>
            <path fill="url(#p)" d="M4.19 11.75l10.8-7.688a3.695 3.695 0 0 1 1.612-.647L39.67.071c.325-.047.656-.05.982-.01L67.91 3.423c.64.079 1.25.325 1.766.712l10.217 7.67a3.695 3.695 0 0 1 .027 5.89L69.672 25.53a3.695 3.695 0 0 1-1.764.729l-27.225 3.57a3.695 3.695 0 0 1-1.043-.012l-23.04-3.55a3.695 3.695 0 0 1-1.606-.661L4.163 17.75a3.695 3.695 0 0 1 .026-6.001z" transform="translate(1137.62 425.965)"/>
            <g>
                <path fill="url(#q)" d="M.804 19.463l.119-.43a4.421 4.421 0 0 1 3.195-3.119l42.95-10.682a4.421 4.421 0 0 1 2.054-.02L96.1 15.962a4.421 4.421 0 0 1 3.255 3.06l.13.441a4.405 4.405 0 0 1-1.572 4.76l-14.483 10.93a4.421 4.421 0 0 1-2.096.855L48.71 40.23c-.41.053-.824.048-1.232-.014l-27.609-4.199a4.421 4.421 0 0 1-1.908-.775L2.466 24.152a4.349 4.349 0 0 1-1.662-4.689z" transform="translate(1129.345 402.158)"/>
                <path fill="url(#r)" d="M5.102 13.826l12.853-9.03c.57-.4 1.226-.66 1.916-.758L47.514.083c.384-.055.774-.06 1.16-.012l32.661 3.976c.76.092 1.483.38 2.098.836l12.16 9.008a4.421 4.421 0 0 1 .032 7.081l-12.196 9.204a4.421 4.421 0 0 1-2.096.855L48.71 35.253c-.41.053-.824.048-1.232-.014L19.869 31.04a4.421 4.421 0 0 1-1.908-.775L5.07 21.039a4.421 4.421 0 0 1 .031-7.213z" transform="translate(1129.345 402.158)"/>
            </g>
            <g>
                <path fill="url(#s)" d="M.936 23.916l.188-.7a5.263 5.263 0 0 1 3.785-3.735L56.267 6.408a5.263 5.263 0 0 1 2.499-.024l56.17 13.153a5.263 5.263 0 0 1 3.858 3.67l.217.755a5.263 5.263 0 0 1-1.84 5.621L99.773 43.018a5.263 5.263 0 0 1-2.526 1.052l-38.983 5.162a5.263 5.263 0 0 1-1.5-.017l-32.99-5.134a5.263 5.263 0 0 1-2.3-.955L2.909 29.528a5.263 5.263 0 0 1-1.973-5.612z" transform="translate(1119 368)"/>
                <path fill="url(#t)" d="M5.89 17.073l15.578-11.2a5.263 5.263 0 0 1 2.31-.933L56.807.103A5.263 5.263 0 0 1 58.22.088l39.03 4.863c.918.114 1.79.469 2.528 1.028l14.739 11.173a5.263 5.263 0 0 1 .038 8.36L99.774 36.927a5.263 5.263 0 0 1-2.526 1.052l-38.983 5.163a5.263 5.263 0 0 1-1.5-.018l-32.99-5.134a5.263 5.263 0 0 1-2.3-.954L5.852 25.593a5.263 5.263 0 0 1 .037-8.52z" transform="translate(1119 368)"/>
            </g>
        </g>
        <g filter="url(#u)" transform="translate(1142 318)">
            <path fill="#EEF4FF" fill-rule="nonzero" d="M74.21 13.41l-2.507 40.862C71.407 59.092 67.533 63 63.05 63h-51.1c-4.483 0-8.357-3.908-8.653-8.728L.791 13.41h73.418z"/>
            <path fill="#6174BC" fill-rule="nonzero" d="M18.098 28.167l-6.221-5.576c-.383-.34-.981-.34-1.334 0-.353.34-.327.892.056 1.232l4.573 4.088.874.872-.807.87-4.186 4.09c-.345.34-.32.891.057 1.231.188.17.428.255.664.255a.91.91 0 0 0 .641-.255L18.14 29.4c.353-.34.335-.892-.04-1.232z"/>
            <path stroke="#6174BC" stroke-linecap="round" stroke-width="1.7" d="M15.696 35.23h10.66"/>
            <path fill="#CDDFFF" fill-rule="nonzero" d="M6.575.516h61.85c3.631 0 6.4 2.842 6.186 6.348l-.463 7.537H.852L.389 6.864C.174 3.358 2.944.516 6.575.516z"/>
            <path fill="#F96058" fill-rule="nonzero" d="M8.14 9.442c1.398 0 2.482-1.11 2.421-2.48-.06-1.369-1.253-2.479-2.662-2.479-1.41 0-2.493 1.11-2.42 2.48.072 1.37 1.264 2.48 2.662 2.48z"/>
            <path fill="#FCBE2F" fill-rule="nonzero" d="M17.252 9.442c1.398 0 2.498-1.11 2.458-2.48-.04-1.369-1.215-2.479-2.625-2.479-1.409 0-2.51 1.11-2.458 2.48.052 1.37 1.227 2.48 2.625 2.48z"/>
            <path fill="#33CF41" fill-rule="nonzero" d="M25.351 9.442c1.398 0 2.514-1.11 2.492-2.48-.022-1.369-1.182-2.479-2.592-2.479-1.41 0-2.525 1.11-2.491 2.48.033 1.37 1.193 2.48 2.591 2.48z"/>
        </g>
        <g>
            <path fill="url(#v)" d="M.302 14.38l.597-2.105a1.544 1.544 0 0 1 1.124-1.079l31.892-7.68c.229-.055.466-.057.696-.006l34.769 7.702c.544.12.98.525 1.143 1.059l.645 2.121a1.544 1.544 0 0 1-.566 1.696l-11.51 8.409a1.544 1.544 0 0 1-.718.285L34.47 27.777a1.544 1.544 0 0 1-.417-.004l-20.287-2.988a1.544 1.544 0 0 1-.655-.258L.908 16.07a1.544 1.544 0 0 1-.606-1.69z" transform="translate(1316.446 238.156)"/>
            <path fill="url(#w)" d="M1.86 10.744l11.25-7.652c.197-.134.422-.22.657-.253l20.3-2.812c.13-.018.261-.02.392-.004l23.916 2.819c.26.03.507.126.719.279l10.66 7.645a1.544 1.544 0 0 1 .011 2.5l-10.672 7.798a1.544 1.544 0 0 1-.72.286l-23.902 2.994a1.544 1.544 0 0 1-.417-.004l-20.287-2.987a1.544 1.544 0 0 1-.655-.259L1.85 13.29a1.544 1.544 0 0 1 .01-2.546z" transform="translate(1316.446 238.156)"/>
            <path fill="url(#x)" d="M.396 19.098l.778-2.778a2.074 2.074 0 0 1 1.504-1.455l41.716-10.19c.31-.076.635-.079.947-.009l45.482 10.22c.73.165 1.316.71 1.531 1.428l.84 2.802a2.074 2.074 0 0 1-.751 2.262L77.395 32.53c-.285.211-.62.346-.973.39L45.15 36.896c-.189.024-.38.022-.568-.006l-26.539-3.964a2.074 2.074 0 0 1-.886-.354L1.2 21.354a2.074 2.074 0 0 1-.804-2.256z" transform="translate(1306.145 211.344)"/>
            <path fill="url(#y)" d="M2.451 14.26L17.156 4.115c.265-.183.57-.301.889-.346L44.599.038c.178-.025.357-.027.535-.006l31.289 3.74c.352.043.687.174.974.383L91.329 14.29a2.074 2.074 0 0 1 .015 3.343L77.395 27.97c-.285.212-.62.346-.973.391L45.15 32.335c-.189.024-.38.022-.568-.006l-26.539-3.964a2.074 2.074 0 0 1-.886-.354L2.436 17.663a2.074 2.074 0 0 1 .015-3.403z" transform="translate(1306.145 211.344)"/>
            <path fill="url(#z)" d="M.473 25.459l1.049-3.876a2.627 2.627 0 0 1 1.892-1.861l53.48-13.518c.407-.102.832-.106 1.24-.012l58.305 13.558a2.627 2.627 0 0 1 1.929 1.827l1.131 3.904a2.627 2.627 0 0 1-.925 2.817L99.21 43.148c-.365.28-.799.46-1.256.52l-40.069 5.268c-.247.033-.497.03-.743-.008l-34.004-5.255a2.627 2.627 0 0 1-1.144-.472L1.464 28.27a2.627 2.627 0 0 1-.991-2.811z" transform="translate(1292.753 180.406)"/>
            <path fill="url(#A)" d="M2.968 19.039L21.99 5.459c.34-.243.735-.401 1.149-.461L57.163.05c.232-.034.468-.036.7-.008l40.092 4.96c.457.057.89.232 1.258.508l18.023 13.567a2.627 2.627 0 0 1 .019 4.184L99.21 37.099c-.365.28-.799.46-1.256.52l-40.069 5.27c-.247.032-.497.029-.743-.01l-34.004-5.254a2.627 2.627 0 0 1-1.144-.472L2.949 23.303a2.627 2.627 0 0 1 .019-4.264z" transform="translate(1292.753 180.406)"/>
            <g>
                <path fill="url(#B)" d="M.566 30.819l1.28-4.73a3.144 3.144 0 0 1 2.265-2.227l64.743-16.36a3.144 3.144 0 0 1 1.482-.013l70.582 16.406a3.144 3.144 0 0 1 2.307 2.187l1.382 4.764a3.144 3.144 0 0 1-1.107 3.37L120.042 52.2c-.438.336-.956.55-1.503.622l-48.5 6.376a3.144 3.144 0 0 1-.89-.01l-41.16-6.359a3.144 3.144 0 0 1-1.369-.564L1.752 34.184a3.144 3.144 0 0 1-1.186-3.365z" transform="translate(1280.392 147.406)"/>
                <path fill="url(#C)" d="M3.553 23.058l23.063-16.46c.408-.29.879-.48 1.374-.551L69.175.06c.278-.04.56-.044.838-.01l48.527 6.002a3.144 3.144 0 0 1 1.505.608l21.852 16.443a3.144 3.144 0 0 1 .022 5.008l-21.877 16.771c-.438.336-.956.55-1.503.622l-48.5 6.376a3.144 3.144 0 0 1-.89-.01l-41.16-6.36a3.144 3.144 0 0 1-1.369-.563L3.53 28.16a3.144 3.144 0 0 1 .023-5.102z" transform="translate(1280.392 147.406)"/>
            </g>
            <g>
                <path fill="url(#D)" d="M.697 35.474l1.461-5.292a3.743 3.743 0 0 1 2.708-2.637L81.093 8.661a3.743 3.743 0 0 1 1.731-.016l83.105 18.94c1.32.3 2.374 1.29 2.757 2.588l1.577 5.333a3.743 3.743 0 0 1-1.34 4.053L141.37 60.27a3.743 3.743 0 0 1-1.77.72L82.476 68.35c-.345.045-.695.04-1.04-.011L32.96 60.996a3.743 3.743 0 0 1-1.612-.653L2.132 39.518a3.743 3.743 0 0 1-1.435-4.044z" transform="translate(1267 101)"/>
                <path fill="url(#E)" d="M4.342 26.513l27-18.892a3.743 3.743 0 0 1 1.618-.639L81.468.07c.324-.047.653-.05.979-.01l57.155 6.93c.641.077 1.252.32 1.772.703l25.581 18.874a3.743 3.743 0 0 1 .027 6.004l-25.611 19.25a3.743 3.743 0 0 1-1.77.72l-57.124 7.363c-.345.044-.695.04-1.04-.012L32.96 52.55a3.743 3.743 0 0 1-1.612-.653L4.315 32.627a3.743 3.743 0 0 1 .027-6.114z" transform="translate(1267 101)"/>
            </g>
        </g>
        <g>
            <path fill="url(#F)" d="M.603 34.34l1.427-5.355a3.44 3.44 0 0 1 2.468-2.445L75.385 8.348a3.44 3.44 0 0 1 1.645-.016l77.278 18.244a3.44 3.44 0 0 1 2.517 2.404l1.538 5.39a3.44 3.44 0 0 1-1.194 3.658l-25.72 20.026a3.44 3.44 0 0 1-1.657.695L76.7 65.838a3.44 3.44 0 0 1-.988-.011l-45.056-7.07a3.44 3.44 0 0 1-1.51-.632L1.883 37.992a3.44 3.44 0 0 1-1.28-3.652z" transform="translate(1273 405)"/>
            <path fill="url(#G)" d="M3.806 25.706L29.142 7.342a3.44 3.44 0 0 1 1.516-.618L75.74.069a3.44 3.44 0 0 1 .93-.01l53.122 6.672a3.44 3.44 0 0 1 1.66.68l24.005 18.347a3.44 3.44 0 0 1 .025 5.446L131.45 49.917a3.44 3.44 0 0 1-1.658.695L76.7 57.7a3.44 3.44 0 0 1-.988-.011l-45.056-7.07a3.44 3.44 0 0 1-1.51-.632L3.781 31.258a3.44 3.44 0 0 1 .025-5.552z" transform="translate(1273 405)"/>
        </g>
        <g filter="url(#H)" transform="translate(1281.376 278)">
            <path fill="url(#I)" d="M5.388 0H139.86c3.178 0 5.585 2.45 5.374 5.47l-9.482 140.886c-.196 3.02-2.572 5.469-5.301 5.469H14.797c-2.733-.002-5.105-2.45-5.302-5.47L.013 5.466C-.197 2.45 2.209 0 5.388 0z"/>
            <path fill="url(#J)" d="M5.343 7.007h133.391c3.153 0 5.54 2.468 5.33 5.512l-9.442 141.97c-.196 3.043-2.552 5.511-5.257 5.511H14.712c-2.708-.002-5.06-2.47-5.256-5.511L.013 12.515c-.21-3.04 2.177-5.508 5.33-5.508z"/>
            <path fill="#FFF" fill-rule="nonzero" d="M30.077 86.423h87.44c1.135 0 2.013.95 1.959 2.12-.054 1.17-1.014 2.118-2.146 2.118H30.26c-1.132 0-2.092-.948-2.145-2.119-.052-1.17.826-2.119 1.962-2.119zm.746 17.39h85.932c1.116 0 1.978.948 1.925 2.119-.054 1.17-.998 2.119-2.11 2.119H31.004c-1.112 0-2.055-.95-2.108-2.12-.052-1.17.81-2.118 1.927-2.118zm.722 16.952h84.473c1.098 0 1.945.949 1.892 2.119-.053 1.17-.982 2.119-2.075 2.119h-84.11c-1.094 0-2.022-.949-2.073-2.12-.052-1.17.795-2.118 1.893-2.118zm.787 18.647h82.883c1.077 0 1.907.948 1.855 2.119-.053 1.17-.965 2.119-2.037 2.119H32.51c-.694 0-1.352-.404-1.728-1.06-.376-.656-.412-1.463-.093-2.119.32-.656.946-1.06 1.643-1.06zM29.251 25.693h91.436c2.009 0 3.566 1.596 3.473 3.558l-1.914 40.768c-.091 1.963-1.724 3.558-3.643 3.558H31.27c-1.92 0-3.55-1.593-3.638-3.558L25.774 29.25c-.09-1.962 1.464-3.558 3.477-3.558z"/>
            <path fill="#1252A4" fill-rule="nonzero" stroke="#2056A1" stroke-width="1.236" d="M49.988 41.986c1.162 0 2.18.13 3.062.394.878.26 1.641.61 2.292 1.047.65.442 1.19.946 1.625 1.513a8.318 8.318 0 0 1 1.036 1.757 9.571 9.571 0 0 1 .747 3.466 8.15 8.15 0 0 1-.528 3.033 7.426 7.426 0 0 1-1.653 2.611 8.137 8.137 0 0 1-2.74 1.836c-1.094.465-2.362.693-3.811.693h-5.27l-.493-16.35h5.733zm-.34 14.274c.928 0 1.809-.13 2.635-.382a6.26 6.26 0 0 0 2.16-1.142A5.372 5.372 0 0 0 55.9 52.83c.35-.765.521-1.655.503-2.671-.01-.52-.106-1.134-.29-1.835-.191-.721-.529-1.4-.994-1.998a5.843 5.843 0 0 0-1.986-1.603c-.843-.44-1.93-.661-3.258-.661H46.54l.339 12.198h2.768zm17.328-14.274h2.022l6.995 16.35h-2.557l-1.627-4.041h-7.723l-1.558 4.041h-2.556l7.004-16.35zm.947 2.863h-.045l-3.033 7.508h6.158l-3.08-7.508zm8.379-.787l.005-2.076h12.816l-.032 2.076h-5.283l-.144 14.274h-2.19l.111-14.274h-5.283zm20.338-2.076h2.019l6.507 16.35h-2.557l-1.51-4.041h-7.723l-1.679 4.041H89.14l7.5-16.35zm3.71 10.37L97.5 44.85h-.048l-3.26 7.508h6.159z"/>
        </g>
        <g filter="url(#K)" transform="translate(1322 7)">
            <path fill="#1C2578" d="M0 61.586l31.01 18.116L62 61.588 30.987 43.474z"/>
            <g filter="url(#L)">
                <use fill="#000" filter="url(#M)" xlink:href="#N"/>
                <use fill="#6B8BF5" xlink:href="#N"/>
            </g>
            <path fill="#5B6BFF" d="M0 56.41l31.01 18.116L62 56.412 30.987 38.298z"/>
            <g transform="translate(0 62.147)">
                <mask id="P" fill="#fff">
                    <use xlink:href="#O"/>
                </mask>
                <path fill="#DBE4F4" d="M30.898 18.162L0 .08l30.902 54.256z" mask="url(#P)"/>
            </g>
            <path fill="#ACC0E3" d="M61.744 62.225L30.87 116.48l-.004-36.173z"/>
            <g transform="translate(30.81)">
                <mask id="R" fill="#fff">
                    <use xlink:href="#Q"/>
                </mask>
                <path fill="#ACC0E3" d="M-.01 72.539l30.877-18.08L-.033.201z" mask="url(#R)"/>
            </g>
            <mask id="T" fill="#fff">
                <use xlink:href="#S"/>
            </mask>
            <path fill="#DBE4F4" d="M0 54.423L30.876.168l.022 72.337z" mask="url(#T)"/>
        </g>
        <g filter="url(#U)" transform="translate(1499 326)">
            <path fill="url(#V)" d="M46.328 54.256c1.786-15.548.492-19.979-13.8-22.783 0 0-2.15 2.787-6.879 2.787-4.729 0-6.85-2.787-6.85-2.787C4.631 34.247 3.17 38.61 4.734 53.75c.126 1.236.124 1.301.104 1.158l.192 1.633S8.774 64 25.517 64c16.743 0 20.548-7.458 20.548-7.458l.151-1.208c-.014.089 0-.083.112-1.078z"/>
            <path fill="#4870C8" d="M25.115 36.292c6.653 0 12.561-7.282 13.216-16.264.676-8.982-.874-16.264-13.145-16.264-12.272 0-13.857 7.282-13.221 16.264.617 8.982 6.497 16.264 13.15 16.264z"/>
            <path fill="url(#W)" d="M25.12 33.882c6.744 0 12.73-7.281 13.39-16.263.682-8.983-.89-16.264-13.318-16.264-12.429 0-14.037 7.281-13.396 16.264.622 8.982 6.58 16.263 13.324 16.263z"/>
        </g>
        <g filter="url(#X)" transform="translate(1562 447)">
            <path fill="url(#Y)" d="M33.643 41.89c1.886-11.599 1.202-14.904-8.547-16.996 0 0-1.522 2.08-4.764 2.08s-4.718-2.08-4.718-2.08c-9.692 2.07-10.536 5.325-8.966 16.618.123.922.124.97.106.864l.18 1.218s2.612 5.563 13.163 5.563 13.276-5.563 13.276-5.563l.15-.9c-.013.065.004-.063.12-.805z"/>
            <path fill="#4870C8" d="M19.957 28.489c4.537 0 8.762-5.432 9.466-12.132.738-6.7-.201-12.131-9.28-12.131-9.079 0-10.106 5.431-9.471 12.131.603 6.7 4.748 12.132 9.285 12.132z"/>
            <path fill="url(#Z)" d="M19.97 26.692c4.628 0 8.934-5.432 9.647-12.132.748-6.7-.212-12.132-9.46-12.132-9.246 0-10.296 5.432-9.653 12.132.612 6.7 4.838 12.132 9.466 12.132z"/>
        </g>
        <g filter="url(#aa)" transform="translate(1455 450)">
            <path fill="url(#ab)" d="M24.99 30.704c1.536-8.67 1.001-11.14-6.683-12.704 0 0-1.23 1.555-3.795 1.555S10.827 18 10.827 18c-7.712 1.547-8.49 3.98-7.608 12.422.07.69.07.726.058.646l.105.91s1.95 4.159 10.549 4.159 10.836-4.159 10.836-4.159l.125-.673c-.011.05.003-.047.099-.601z"/>
            <path fill="#4870C8" d="M14.188 20.687c3.596 0 6.993-4.06 7.604-9.068.63-5.008-.047-9.068-7.019-9.068-6.971 0-7.913 4.06-7.607 9.068.289 5.008 3.426 9.068 7.022 9.068z"/>
            <path fill="url(#ac)" d="M14.231 19.344c3.66 0 7.112-4.06 7.728-9.068.635-5.008-.057-9.068-7.142-9.068-7.084 0-8.042 4.06-7.732 9.068.294 5.008 3.487 9.068 7.146 9.068z"/>
        </g>
    </g>
</svg>
