<svg xmlns="http://www.w3.org/2000/svg" xmlns:xlink="http://www.w3.org/1999/xlink" width="277" height="300" viewBox="0 0 277 300">
    <defs>
        <path id="a" d="M0 .222h72.662V68.71H0z"/>
        <linearGradient id="c" x1="21.86%" x2="79.74%" y1="94.213%" y2="5.58%">
            <stop offset="0%" stop-color="#B8C1FF"/>
            <stop offset="100%" stop-color="#6B8BF5"/>
        </linearGradient>
        <linearGradient id="e" x1="0%" x2="99.393%" y1="32.569%" y2="32.569%">
            <stop offset="0%" stop-color="#76A4FB"/>
            <stop offset="100%" stop-color="#A3C7FF"/>
        </linearGradient>
        <path id="d" d="M72.662 6.908l-5.175 4.124L39.75 1.048c-1.88-1.096-4.93-1.1-6.813-.011L5.022 11.032 0 6.908v40.684h.005c.022.698.488 1.394 1.405 1.928l31.502 18.364c1.88 1.097 4.932 1.102 6.813.011L71.25 49.623c.965-.56 1.432-1.297 1.408-2.031h.005V6.908z"/>
        <linearGradient id="f" x1="0%" x2="99.393%" y1="32.569%" y2="32.569%">
            <stop offset="0%" stop-color="#1621FF"/>
            <stop offset="100%" stop-color="#51A4FF"/>
        </linearGradient>
        <linearGradient id="h" x1="0%" x2="99.393%" y1="32.569%" y2="32.569%">
            <stop offset="0%" stop-color="#2731FF"/>
            <stop offset="100%" stop-color="#3182FF"/>
        </linearGradient>
        <path id="i" d="M0 .222h72.662V68.71H0z"/>
        <path id="k" d="M72.662 6.908l-5.175 4.124L39.75 1.048c-1.88-1.096-4.93-1.1-6.813-.011L5.022 11.032 0 6.908v40.684h.005c.022.698.488 1.394 1.405 1.928l31.502 18.364c1.88 1.097 4.932 1.102 6.813.011L71.25 49.623c.965-.56 1.432-1.297 1.408-2.031h.005V6.908z"/>
        <path id="m" d="M0 .222h72.662V68.71H0z"/>
        <path id="o" d="M72.662 6.908l-5.175 4.124L39.75 1.048c-1.88-1.096-4.93-1.1-6.813-.011L5.022 11.032 0 6.908v40.684h.005c.022.698.488 1.394 1.405 1.928l31.502 18.364c1.88 1.097 4.932 1.102 6.813.011L71.25 49.623c.965-.56 1.432-1.297 1.408-2.031h.005V6.908z"/>
        <path id="q" d="M0 .222h72.662V68.71H0z"/>
        <path id="s" d="M72.662 6.908l-5.175 4.124L39.75 1.048c-1.88-1.096-4.93-1.1-6.813-.011L5.022 11.032 0 6.908v40.684h.005c.022.698.488 1.394 1.405 1.928l31.502 18.364c1.88 1.097 4.932 1.102 6.813.011L71.25 49.623c.965-.56 1.432-1.297 1.408-2.031h.005V6.908z"/>
        <path id="u" d="M0 .222h72.662V68.71H0z"/>
        <path id="w" d="M72.662 6.908l-5.175 4.124L39.75 1.048c-1.88-1.096-4.93-1.1-6.813-.011L5.022 11.032 0 6.908v40.684h.005c.022.698.488 1.394 1.405 1.928l31.502 18.364c1.88 1.097 4.932 1.102 6.813.011L71.25 49.623c.965-.56 1.432-1.297 1.408-2.031h.005V6.908z"/>
        <path id="y" d="M0 .222h72.662V68.71H0z"/>
        <path id="A" d="M72.662 6.908l-5.175 4.124L39.75 1.048c-1.88-1.096-4.93-1.1-6.813-.011L5.022 11.032 0 6.908v40.684h.005c.022.698.488 1.394 1.405 1.928l31.502 18.364c1.88 1.097 4.932 1.102 6.813.011L71.25 49.623c.965-.56 1.432-1.297 1.408-2.031h.005V6.908z"/>
        <linearGradient id="C" x1="0%" y1="50%" y2="50%">
            <stop offset="0%" stop-color="#50A2FF"/>
            <stop offset="100%" stop-color="#50FFF4"/>
        </linearGradient>
    </defs>
    <g fill="none" fill-rule="evenodd">
        <path stroke="#90B6FF" stroke-dasharray="4.891" stroke-width="1.956" d="M.46 288.45l64.017-32.488M276.276 298.264l-64.018-32.488"/>
        <g transform="translate(36.3 207.73)">
            <mask id="b" fill="#fff">
                <use xlink:href="#a"/>
            </mask>
            <g mask="url(#b)">
                <path fill="url(#c)" fill-rule="nonzero" d="M72.662 6.908l-5.175 4.124L39.75 1.048c-1.88-1.096-4.93-1.1-6.813-.011L5.022 11.032 0 6.908v40.684h.005c.022.698.488 1.394 1.405 1.928l31.502 18.364c1.88 1.097 4.932 1.102 6.813.011L71.25 49.623c.965-.56 1.432-1.297 1.408-2.031h.005V6.908z"/>
                <mask id="g" fill="#fff">
                    <use xlink:href="#d"/>
                </mask>
                <use fill="url(#e)" xlink:href="#d"/>
                <path fill="url(#f)" d="M36.33 27.931l-.613 43.644 36.96-21.797-.015-42.87z" mask="url(#g)"/>
            </g>
        </g>
        <path fill="url(#h)" d="M71.25 23.15L39.725 41.424c-1.881 1.09-4.933 1.086-6.813-.01L1.41 23.05c-1.882-1.098-1.881-2.87.002-3.962L32.937.815C34.82-.275 37.87-.271 39.75.826L71.252 19.19c1.881 1.097 1.88 2.87-.002 3.96" transform="translate(36.3 193.424)"/>
        <path fill="#FFF" fill-rule="nonzero" d="M46.438 234.453l11.399 6.685c.68.398 1.233 1.366 1.233 2.161v13.321c0 .796-.552 1.116-1.233.718l-11.4-6.684c-.68-.4-1.232-1.368-1.232-2.163v-13.32c0-.563.278-.889.682-.889.195.008.385.067.55.172z"/>
        <g transform="translate(106.345 210.879)">
            <mask id="j" fill="#fff">
                <use xlink:href="#i"/>
            </mask>
            <g mask="url(#j)">
                <path fill="url(#c)" fill-rule="nonzero" d="M72.662 6.908l-5.175 4.124L39.75 1.048c-1.88-1.096-4.93-1.1-6.813-.011L5.022 11.032 0 6.908v40.684h.005c.022.698.488 1.394 1.405 1.928l31.502 18.364c1.88 1.097 4.932 1.102 6.813.011L71.25 49.623c.965-.56 1.432-1.297 1.408-2.031h.005V6.908z"/>
                <mask id="l" fill="#fff">
                    <use xlink:href="#k"/>
                </mask>
                <use fill="url(#e)" xlink:href="#k"/>
                <path fill="url(#f)" d="M36.33 27.931l-.613 43.644 36.96-21.797-.015-42.87z" mask="url(#l)"/>
            </g>
        </g>
        <path fill="url(#h)" d="M71.25 23.15L39.725 41.424c-1.881 1.09-4.933 1.086-6.813-.01L1.41 23.05c-1.882-1.098-1.881-2.87.002-3.962L32.937.815C34.82-.275 37.87-.271 39.75.826L71.252 19.19c1.881 1.097 1.88 2.87-.002 3.96" transform="translate(106.345 196.572)"/>
        <path fill="#FFF" fill-rule="nonzero" d="M116.483 237.601l11.399 6.685c.681.398 1.233 1.366 1.233 2.162v13.32c0 .796-.552 1.116-1.233.718l-11.4-6.684c-.68-.4-1.231-1.368-1.231-2.163v-13.32c0-.563.277-.888.68-.888.196.007.386.066.552.171z"/>
        <g>
            <g transform="translate(175.993 213.689)">
                <mask id="n" fill="#fff">
                    <use xlink:href="#m"/>
                </mask>
                <g mask="url(#n)">
                    <path fill="url(#c)" fill-rule="nonzero" d="M72.662 6.908l-5.175 4.124L39.75 1.048c-1.88-1.096-4.93-1.1-6.813-.011L5.022 11.032 0 6.908v40.684h.005c.022.698.488 1.394 1.405 1.928l31.502 18.364c1.88 1.097 4.932 1.102 6.813.011L71.25 49.623c.965-.56 1.432-1.297 1.408-2.031h.005V6.908z"/>
                    <mask id="p" fill="#fff">
                        <use xlink:href="#o"/>
                    </mask>
                    <use fill="url(#e)" xlink:href="#o"/>
                    <path fill="url(#f)" d="M36.33 27.931l-.613 43.644 36.96-21.797-.015-42.87z" mask="url(#p)"/>
                </g>
            </g>
            <path fill="url(#h)" d="M71.25 23.15L39.725 41.424c-1.881 1.09-4.933 1.086-6.813-.01L1.41 23.05c-1.882-1.098-1.881-2.87.002-3.962L32.937.815C34.82-.275 37.87-.271 39.75.826L71.252 19.19c1.881 1.097 1.88 2.87-.002 3.96" transform="translate(175.993 199.382)"/>
            <path fill="#FFF" fill-rule="nonzero" d="M186.13 240.411l11.4 6.685c.681.398 1.233 1.367 1.233 2.162v13.32c0 .796-.552 1.116-1.233.718l-11.4-6.684c-.68-.4-1.231-1.368-1.231-2.163v-13.32c0-.563.277-.888.68-.888.196.007.386.066.552.171z"/>
        </g>
        <g>
            <g transform="translate(71.042 147.713)">
                <mask id="r" fill="#fff">
                    <use xlink:href="#q"/>
                </mask>
                <g mask="url(#r)">
                    <path fill="url(#c)" fill-rule="nonzero" d="M72.662 6.908l-5.175 4.124L39.75 1.048c-1.88-1.096-4.93-1.1-6.813-.011L5.022 11.032 0 6.908v40.684h.005c.022.698.488 1.394 1.405 1.928l31.502 18.364c1.88 1.097 4.932 1.102 6.813.011L71.25 49.623c.965-.56 1.432-1.297 1.408-2.031h.005V6.908z"/>
                    <mask id="t" fill="#fff">
                        <use xlink:href="#s"/>
                    </mask>
                    <use fill="url(#e)" xlink:href="#s"/>
                    <path fill="url(#f)" d="M36.33 27.931l-.613 43.644 36.96-21.797-.015-42.87z" mask="url(#t)"/>
                </g>
            </g>
            <path fill="url(#h)" d="M71.25 23.15L39.725 41.424c-1.881 1.09-4.933 1.086-6.813-.01L1.41 23.05c-1.882-1.098-1.881-2.87.002-3.962L32.937.815C34.82-.275 37.87-.271 39.75.826L71.252 19.19c1.881 1.097 1.88 2.87-.002 3.96" transform="translate(71.041 133.406)"/>
            <path fill="#FFF" fill-rule="nonzero" d="M81.179 174.435l11.4 6.685c.68.398 1.232 1.366 1.232 2.161v13.321c0 .795-.552 1.116-1.233.718l-11.399-6.684c-.68-.4-1.232-1.368-1.232-2.163v-13.32c0-.563.277-.889.681-.889.196.008.385.067.551.172v-.001z"/>
        </g>
        <g>
            <g transform="translate(139.89 151.702)">
                <mask id="v" fill="#fff">
                    <use xlink:href="#u"/>
                </mask>
                <g mask="url(#v)">
                    <path fill="url(#c)" fill-rule="nonzero" d="M72.662 6.908l-5.175 4.124L39.75 1.048c-1.88-1.096-4.93-1.1-6.813-.011L5.022 11.032 0 6.908v40.684h.005c.022.698.488 1.394 1.405 1.928l31.502 18.364c1.88 1.097 4.932 1.102 6.813.011L71.25 49.623c.965-.56 1.432-1.297 1.408-2.031h.005V6.908z"/>
                    <mask id="x" fill="#fff">
                        <use xlink:href="#w"/>
                    </mask>
                    <use fill="url(#e)" xlink:href="#w"/>
                    <path fill="url(#f)" d="M36.33 27.931l-.613 43.644 36.96-21.797-.015-42.87z" mask="url(#x)"/>
                </g>
            </g>
            <path fill="url(#h)" d="M71.25 23.15L39.725 41.424c-1.881 1.09-4.933 1.086-6.813-.01L1.41 23.05c-1.882-1.098-1.881-2.87.002-3.962L32.937.815C34.82-.275 37.87-.271 39.75.826L71.252 19.19c1.881 1.097 1.88 2.87-.002 3.96" transform="translate(139.89 137.395)"/>
            <path fill="#FFF" fill-rule="nonzero" d="M150.028 178.424l11.4 6.684c.68.4 1.233 1.367 1.233 2.162v13.321c0 .795-.552 1.116-1.234.717l-11.399-6.683c-.68-.4-1.232-1.368-1.232-2.163v-13.32c0-.563.277-.889.682-.889.195.008.385.067.55.172v-.001z"/>
        </g>
        <g>
            <g transform="translate(103.8 89.982)">
                <mask id="z" fill="#fff">
                    <use xlink:href="#y"/>
                </mask>
                <g mask="url(#z)">
                    <path fill="url(#c)" fill-rule="nonzero" d="M72.662 6.908l-5.175 4.124L39.75 1.048c-1.88-1.096-4.93-1.1-6.813-.011L5.022 11.032 0 6.908v40.684h.005c.022.698.488 1.394 1.405 1.928l31.502 18.364c1.88 1.097 4.932 1.102 6.813.011L71.25 49.623c.965-.56 1.432-1.297 1.408-2.031h.005V6.908z"/>
                    <mask id="B" fill="#fff">
                        <use xlink:href="#A"/>
                    </mask>
                    <use fill="url(#e)" xlink:href="#A"/>
                    <path fill="url(#f)" d="M36.33 27.931l-.613 43.644 36.96-21.797-.015-42.87z" mask="url(#B)"/>
                </g>
            </g>
            <path fill="url(#h)" d="M71.25 23.15L39.725 41.424c-1.881 1.09-4.933 1.086-6.813-.01L1.41 23.05c-1.882-1.098-1.881-2.87.002-3.962L32.937.815C34.82-.275 37.87-.271 39.75.826L71.252 19.19c1.881 1.097 1.88 2.87-.002 3.96" transform="translate(103.8 75.676)"/>
            <path fill="#FFF" fill-rule="nonzero" d="M113.938 116.705l11.399 6.684c.68.399 1.233 1.367 1.233 2.162v13.32c0 .796-.552 1.117-1.233.718l-11.4-6.683c-.68-.4-1.232-1.368-1.232-2.163v-13.321c0-.563.278-.888.682-.888.195.007.385.067.55.172v-.001z"/>
        </g>
        <g fill-rule="nonzero">
            <path fill="url(#C)" d="M68.49 38.526L2.34 64.514v-56.7z" transform="translate(139.8 .076)"/>
            <path fill="#1742BB" d="M140.97.944c-.646 0-1.17.73-1.17 1.635V97.44c0 .905.524 1.636 1.17 1.636.646 0 1.17-.731 1.17-1.636V2.58c0-.904-.524-1.635-1.17-1.635z"/>
        </g>
    </g>
</svg>
