<svg xmlns="http://www.w3.org/2000/svg" xmlns:xlink="http://www.w3.org/1999/xlink" width="433" height="114" viewBox="0 0 433 114">
    <defs>
        <linearGradient id="a" x1="0%" y1="50%" y2="50%">
            <stop offset="0%" stop-color="#147BE0"/>
            <stop offset="100%" stop-color="#3851D5"/>
        </linearGradient>
        <linearGradient id="b" x1="0%" x2="99.393%" y1="32.569%" y2="32.569%">
            <stop offset="0%" stop-color="#0AA2F6"/>
            <stop offset="100%" stop-color="#0C4BF8"/>
        </linearGradient>
        <linearGradient id="c" x1="0%" x2="99.393%" y1="32.569%" y2="32.569%">
            <stop offset="0%" stop-color="#72C7FF"/>
            <stop offset="100%" stop-color="#2E83FF"/>
        </linearGradient>
        <path id="d" d="M0 .116h37.845v35.67H0z"/>
        <linearGradient id="f" x1="21.86%" x2="79.74%" y1="94.213%" y2="5.58%">
            <stop offset="0%" stop-color="#B8C1FF"/>
            <stop offset="100%" stop-color="#6B8BF5"/>
        </linearGradient>
        <linearGradient id="h" x1="0%" x2="99.393%" y1="32.569%" y2="32.569%">
            <stop offset="0%" stop-color="#76A4FB"/>
            <stop offset="100%" stop-color="#A3C7FF"/>
        </linearGradient>
        <path id="g" d="M37.845 3.598l-2.696 2.148-14.446-5.2c-.98-.571-2.568-.573-3.549-.006L2.615 5.746 0 3.598v21.19h.002c.012.363.255.725.733 1.003l16.406 9.565c.98.572 2.57.574 3.55.006l16.418-9.517c.503-.291.746-.675.733-1.058h.003V3.597z"/>
        <linearGradient id="i" x1="0%" x2="99.393%" y1="32.569%" y2="32.569%">
            <stop offset="0%" stop-color="#1621FF"/>
            <stop offset="100%" stop-color="#51A4FF"/>
        </linearGradient>
        <linearGradient id="k" x1="0%" x2="99.393%" y1="32.569%" y2="32.569%">
            <stop offset="0%" stop-color="#2731FF"/>
            <stop offset="100%" stop-color="#3182FF"/>
        </linearGradient>
        <path id="l" d="M0 .116h37.845v35.67H0z"/>
        <path id="n" d="M37.845 3.598l-2.696 2.148-14.446-5.2c-.98-.571-2.568-.573-3.549-.006L2.615 5.746 0 3.598v21.19h.002c.012.363.255.725.733 1.003l16.406 9.565c.98.572 2.57.574 3.55.006l16.418-9.517c.503-.291.746-.675.733-1.058h.003V3.597z"/>
        <path id="p" d="M0 .116h37.845v35.67H0z"/>
        <path id="r" d="M37.845 3.598l-2.696 2.148-14.446-5.2c-.98-.571-2.568-.573-3.549-.006L2.615 5.746 0 3.598v21.19h.002c.012.363.255.725.733 1.003l16.406 9.565c.98.572 2.57.574 3.55.006l16.418-9.517c.503-.291.746-.675.733-1.058h.003V3.597z"/>
        <path id="t" d="M0 .116h37.845v35.67H0z"/>
        <path id="v" d="M37.845 3.598l-2.696 2.148-14.446-5.2c-.98-.571-2.568-.573-3.549-.006L2.615 5.746 0 3.598v21.19h.002c.012.363.255.725.733 1.003l16.406 9.565c.98.572 2.57.574 3.55.006l16.418-9.517c.503-.291.746-.675.733-1.058h.003V3.597z"/>
        <path id="x" d="M0 .116h37.845v35.67H0z"/>
        <path id="z" d="M37.845 3.598l-2.696 2.148-14.446-5.2c-.98-.571-2.568-.573-3.549-.006L2.615 5.746 0 3.598v21.19h.002c.012.363.255.725.733 1.003l16.406 9.565c.98.572 2.57.574 3.55.006l16.418-9.517c.503-.291.746-.675.733-1.058h.003V3.597z"/>
        <path id="B" d="M0 .116h37.845v35.67H0z"/>
        <path id="D" d="M37.845 3.598l-2.696 2.148-14.446-5.2c-.98-.571-2.568-.573-3.549-.006L2.615 5.746 0 3.598v21.19h.002c.012.363.255.725.733 1.003l16.406 9.565c.98.572 2.57.574 3.55.006l16.418-9.517c.503-.291.746-.675.733-1.058h.003V3.597z"/>
    </defs>
    <g fill="none" fill-rule="evenodd">
        <path stroke="#90B6FF" stroke-dasharray="4.891" stroke-width="1.956" d="M1.384 83.875H88.59M26.24 59.928H91.93M92.19 60.054l42.516-23.283M91.931 83.34l42.775-23.49M92.19 107.538l42.516-24.198M6.69 107.538h85.5"/>
        <g stroke="#90B6FF" stroke-dasharray="4.891" stroke-width="1.956">
            <path d="M399.944 84.8h-87.206M419.594 108.463H309.138M382.288 59.953h-65.69M316.338 60.078l-42.515-23.283M309.397 84.264l-42.774-23.49M309.138 108.463l-42.515-24.199"/>
        </g>
        <path stroke="#90B6FF" stroke-dasharray="4.891" stroke-width="1.956" d="M139.217 36.443l132.973-.528M139.217 59.522L272.19 63.45M134.55 83.34l137.64.853"/>
        <path fill="url(#a)" d="M0 .605h105.489l4.671 9.331-4.671 8.813H0l4.539-8.813z" transform="translate(153.057 26.015)"/>
        <text fill="#FFF" font-family="BioSans-Bold, Bio Sans" font-size="15.725" font-weight="bold" transform="translate(153.057 26.015)">
            <tspan x="15.271" y="15">FINANCIAL</tspan>
        </text>
        <path fill="url(#a)" d="M0 .605h105.489l4.671 9.331-4.671 8.813H0l4.539-8.813z" transform="translate(153.057 50.154)"/>
        <text fill="#FFF" font-family="BioSans-Bold, Bio Sans" font-size="15.725" font-weight="bold" transform="translate(153.057 50.154)">
            <tspan x="26.068" y="15">SPORTS</tspan>
        </text>
        <path fill="url(#a)" d="M0 .605h105.489l4.671 9.331-4.671 8.813H0l4.539-8.813z" transform="translate(152.823 74.293)"/>
        <text fill="#FFF" font-family="BioSans-Bold, Bio Sans" font-size="15.725" font-weight="bold" transform="translate(152.823 74.293)">
            <tspan x="15.508" y="15">LOTTERIES</tspan>
        </text>
        <g>
            <path fill="url(#b)" d="M2.198 0h53.509c1.264 0 2.248 1.014 2.196 2.265L55.48 60.62c-.052 1.251-1.027 2.266-2.177 2.266H4.601c-1.151-.001-2.125-1.015-2.177-2.266L.002 2.264C-.05 1.014.933 0 2.198 0z" transform="translate(18.02 .044)"/>
            <path fill="url(#c)" d="M2.198 3.736h53.509c1.264 0 2.248 1.014 2.196 2.265L55.48 64.356c-.052 1.251-1.027 2.265-2.177 2.265H4.601c-1.151 0-2.125-1.014-2.177-2.265L.002 6C-.05 4.75.933 3.736 2.198 3.736z" transform="translate(18.02 .044)"/>
            <path fill="#FFF" fill-rule="nonzero" d="M28.813 35.534h36.32c.472 0 .844.392.83.876-.014.484-.407.876-.878.876H28.861c-.471 0-.864-.392-.878-.876a.837.837 0 0 1 .83-.876zm.195 7.19h35.927c.467 0 .834.392.82.876-.014.483-.403.876-.868.876H29.056c-.466 0-.854-.393-.868-.876-.014-.484.354-.877.82-.877zm.191 7.008h35.542c.462 0 .825.393.811.876-.014.484-.399.877-.86.877H29.248c-.461 0-.845-.393-.86-.877-.013-.483.35-.876.812-.876zm.21 7.71h35.12c.456 0 .814.392.8.876-.014.484-.394.876-.85.876H29.457a.845.845 0 0 1-.726-.438.924.924 0 0 1-.025-.876.791.791 0 0 1 .704-.438zM28.792 11.251h36.985c.812 0 1.454.643 1.43 1.434l-.482 16.434a1.486 1.486 0 0 1-1.473 1.434H29.309c-.79 0-1.45-.642-1.473-1.434l-.475-16.434c-.023-.79.617-1.434 1.43-1.434z"/>
            <path fill="#3B90FE" fill-rule="nonzero" stroke="#3A8FFD" stroke-width="1.232" d="M37.168 16.855c.473 0 .888.054 1.247.165.356.109.667.256.93.439.264.185.483.396.659.634.176.239.315.483.419.735.186.463.287.955.296 1.452.004.438-.07.862-.223 1.27-.152.412-.38.776-.684 1.095a3.36 3.36 0 0 1-1.128.769c-.45.194-.97.29-1.565.29h-2.162l-.125-6.849h2.336zm-.193 5.98c.38 0 .742-.055 1.08-.16a2.57 2.57 0 0 0 .89-.48c.254-.214.454-.478.602-.798.145-.32.217-.693.213-1.118a3.409 3.409 0 0 0-.113-.77 2.356 2.356 0 0 0-.4-.836c-.215-.28-.49-.51-.806-.671-.343-.185-.786-.277-1.327-.277h-1.36l.086 5.11h1.135zm7.116-5.98h.824l2.857 6.849h-1.049l-.666-1.693h-3.162l-.645 1.693H41.2l2.89-6.849zm.383 1.2h-.018l-1.248 3.144h2.52l-1.254-3.144zm3.418-.33l.001-.87h5.223l-.008.87h-2.154l-.036 5.979h-.898l.027-5.98h-2.155zm8.288-.87h.822l2.735 6.849h-1.049l-.637-1.693h-3.162l-.676 1.693h-1.049l3.016-6.849zm1.556 4.344l-1.195-3.144h-.02l-1.305 3.144h2.52z"/>
            <g>
                <path fill="url(#b)" d="M2.198 0h53.509c1.264 0 2.248 1.014 2.196 2.265L55.48 60.62c-.052 1.251-1.027 2.266-2.177 2.266H4.601c-1.151-.001-2.125-1.015-2.177-2.266L.002 2.264C-.05 1.014.933 0 2.198 0z" transform="translate(9.253 23.42)"/>
                <path fill="url(#c)" d="M2.198 3.736h53.509c1.264 0 2.248 1.014 2.196 2.265L55.48 64.356c-.052 1.251-1.027 2.265-2.177 2.265H4.601c-1.151 0-2.125-1.014-2.177-2.265L.002 6C-.05 4.75.933 3.736 2.198 3.736z" transform="translate(9.253 23.42)"/>
                <path fill="#FFF" fill-rule="nonzero" d="M20.045 58.91h36.321c.472 0 .843.392.83.876-.015.484-.408.876-.878.876H20.093c-.47 0-.863-.392-.878-.876a.837.837 0 0 1 .83-.876zm.196 7.19h35.926c.467 0 .834.392.82.876-.014.484-.402.876-.868.876h-35.83c-.466 0-.855-.392-.869-.876-.013-.484.354-.876.82-.876zm.19 7.008h35.543c.462 0 .825.393.81.877-.013.483-.398.876-.859.876H20.48c-.46 0-.845-.393-.859-.876-.014-.484.35-.877.811-.877zm.21 7.71h35.12c.456 0 .815.392.8.876-.013.484-.393.876-.849.876H20.69a.845.845 0 0 1-.726-.438.924.924 0 0 1-.025-.876.791.791 0 0 1 .703-.438zM20.024 34.627H57.01c.813 0 1.454.643 1.431 1.435l-.482 16.433a1.486 1.486 0 0 1-1.474 1.434H20.541c-.79 0-1.45-.642-1.473-1.434l-.475-16.433c-.023-.792.617-1.435 1.431-1.435z"/>
                <path fill="#3B90FE" fill-rule="nonzero" stroke="#3A8FFD" stroke-width="1.232" d="M28.4 40.231c.474 0 .889.055 1.247.165.357.109.667.256.93.439.265.185.484.396.66.634.175.239.314.483.418.735.187.463.287.955.297 1.452.004.438-.07.862-.223 1.27-.152.412-.38.776-.684 1.095a3.36 3.36 0 0 1-1.129.769c-.45.194-.97.29-1.565.29h-2.162l-.125-6.849H28.4zm-.193 5.98c.38 0 .742-.055 1.081-.16a2.57 2.57 0 0 0 .89-.479c.253-.214.454-.478.601-.799.146-.32.218-.693.213-1.118a3.409 3.409 0 0 0-.113-.77 2.356 2.356 0 0 0-.4-.836c-.215-.28-.49-.51-.806-.671-.342-.185-.785-.277-1.327-.277h-1.36l.087 5.11h1.134zm7.116-5.98h.824l2.858 6.85h-1.05l-.665-1.694h-3.163l-.645 1.693h-1.049l2.89-6.849zm.384 1.2h-.019l-1.248 3.144h2.52l-1.253-3.144zm3.418-.33l.001-.87h5.223l-.008.87h-2.155l-.035 5.98h-.899l.028-5.98h-2.155zm8.287-.87h.823l2.734 6.85h-1.048l-.638-1.694h-3.162l-.676 1.693h-1.049l3.016-6.849zm1.557 4.344l-1.195-3.144h-.02l-1.305 3.144h2.52z"/>
            </g>
            <g>
                <path fill="url(#b)" d="M2.198 0h53.509c1.264 0 2.248 1.014 2.196 2.265L55.48 60.62c-.052 1.251-1.027 2.266-2.177 2.266H4.601c-1.151-.001-2.125-1.015-2.177-2.266L.002 2.264C-.05 1.014.933 0 2.198 0z" transform="translate(0 45.482)"/>
                <path fill="url(#c)" d="M2.198 3.736h53.509c1.264 0 2.248 1.014 2.196 2.265L55.48 64.356c-.052 1.251-1.027 2.265-2.177 2.265H4.601c-1.151 0-2.125-1.014-2.177-2.265L.002 6C-.05 4.75.933 3.736 2.198 3.736z" transform="translate(0 45.482)"/>
                <path fill="#FFF" fill-rule="nonzero" d="M10.792 80.972h36.321c.472 0 .843.392.83.876-.015.484-.408.876-.878.876H10.84c-.47 0-.863-.392-.878-.876a.837.837 0 0 1 .83-.876zm.196 7.19h35.926c.467 0 .834.392.82.876-.014.483-.402.876-.868.876h-35.83c-.466 0-.855-.393-.869-.876-.013-.484.354-.876.82-.876zm.19 7.008h35.543c.462 0 .825.393.81.876-.013.484-.398.877-.859.877H11.226c-.46 0-.845-.393-.859-.877-.014-.483.35-.876.811-.876zm.21 7.71h35.12c.456 0 .815.392.8.876-.013.484-.393.876-.849.876H11.436a.845.845 0 0 1-.726-.438.924.924 0 0 1-.025-.876.791.791 0 0 1 .703-.438zM10.771 56.69h36.985c.813 0 1.454.642 1.431 1.434l-.482 16.433a1.486 1.486 0 0 1-1.474 1.434H11.288c-.79 0-1.45-.642-1.473-1.434L9.34 58.124c-.023-.792.617-1.435 1.431-1.435z"/>
                <path fill="#3B90FE" fill-rule="nonzero" stroke="#3A8FFD" stroke-width="1.232" d="M19.147 62.293c.474 0 .889.055 1.247.165.357.109.667.256.93.439.265.185.484.396.66.634.175.239.314.483.418.735.187.463.287.955.297 1.452.004.438-.07.862-.223 1.27-.152.412-.38.776-.684 1.095a3.36 3.36 0 0 1-1.129.769c-.45.194-.97.29-1.565.29h-2.162l-.125-6.849h2.336zm-.193 5.98c.38 0 .742-.055 1.081-.16a2.57 2.57 0 0 0 .89-.479c.253-.215.454-.479.601-.799.146-.32.218-.693.213-1.118a3.409 3.409 0 0 0-.113-.77 2.356 2.356 0 0 0-.4-.836c-.215-.28-.49-.51-.806-.671-.342-.185-.785-.277-1.327-.277h-1.36l.087 5.11h1.134zm7.116-5.98h.825l2.857 6.849h-1.05l-.665-1.693h-3.163l-.645 1.693H23.18l2.89-6.849zm.384 1.2h-.019l-1.248 3.144h2.52l-1.253-3.144zm3.418-.33l.001-.87h5.223l-.008.87h-2.155l-.035 5.979h-.899l.028-5.98h-2.155zm8.287-.87h.823l2.734 6.849h-1.048l-.638-1.693h-3.162l-.676 1.693h-1.048l3.015-6.849zm1.557 4.344l-1.195-3.144h-.02l-1.305 3.144h2.52z"/>
            </g>
        </g>
        <g>
            <g transform="translate(329.34 70.475)">
                <mask id="e" fill="#fff">
                    <use xlink:href="#d"/>
                </mask>
                <g mask="url(#e)">
                    <path fill="url(#f)" fill-rule="nonzero" d="M37.845 3.598l-2.696 2.148-14.446-5.2c-.98-.571-2.568-.573-3.549-.006L2.615 5.746 0 3.598v21.19h.002c.012.363.255.725.733 1.003l16.406 9.565c.98.572 2.57.574 3.55.006l16.418-9.517c.503-.291.746-.675.733-1.058h.003V3.597z"/>
                    <mask id="j" fill="#fff">
                        <use xlink:href="#g"/>
                    </mask>
                    <use fill="url(#h)" xlink:href="#g"/>
                    <path fill="url(#i)" d="M18.922 14.548l-.32 22.73 19.251-11.352-.008-22.328z" mask="url(#j)"/>
                </g>
            </g>
            <path fill="url(#k)" d="M37.11 12.058l-16.42 9.516c-.98.568-2.569.566-3.548-.005L.735 12.005c-.98-.572-.98-1.495 0-2.063L17.156.424c.98-.568 2.569-.565 3.548.006L37.11 9.995c.98.57.98 1.495 0 2.063" transform="translate(329.34 63.024)"/>
            <path fill="#FFF" fill-rule="nonzero" d="M334.62 84.393l5.937 3.481c.355.208.642.712.642 1.126v6.938c0 .414-.287.582-.642.374l-5.937-3.481c-.354-.208-.642-.712-.642-1.127v-6.938c0-.293.145-.462.355-.462.102.004.2.035.287.09v-.001z"/>
            <g transform="translate(361.603 74.458)">
                <mask id="m" fill="#fff">
                    <use xlink:href="#l"/>
                </mask>
                <g mask="url(#m)">
                    <path fill="url(#f)" fill-rule="nonzero" d="M37.845 3.598l-2.696 2.148-14.446-5.2c-.98-.571-2.568-.573-3.549-.006L2.615 5.746 0 3.598v21.19h.002c.012.363.255.725.733 1.003l16.406 9.565c.98.572 2.57.574 3.55.006l16.418-9.517c.503-.291.746-.675.733-1.058h.003V3.597z"/>
                    <mask id="o" fill="#fff">
                        <use xlink:href="#n"/>
                    </mask>
                    <use fill="url(#h)" xlink:href="#n"/>
                    <path fill="url(#i)" d="M18.922 14.548l-.32 22.73 19.251-11.352-.008-22.328z" mask="url(#o)"/>
                </g>
            </g>
            <path fill="url(#k)" d="M37.11 12.058l-16.42 9.516c-.98.568-2.569.566-3.548-.005L.735 12.005c-.98-.572-.98-1.495 0-2.063L17.156.424c.98-.568 2.569-.565 3.548.006L37.11 9.995c.98.57.98 1.495 0 2.063" transform="translate(361.603 67.007)"/>
            <path fill="#FFF" fill-rule="nonzero" d="M366.883 88.376l5.937 3.482c.355.207.642.712.642 1.126v6.938c0 .414-.287.58-.642.373l-5.937-3.48c-.354-.209-.642-.713-.642-1.127V88.75c0-.293.145-.463.355-.463.102.004.2.035.287.09z"/>
            <g>
                <g transform="translate(395.066 78.266)">
                    <mask id="q" fill="#fff">
                        <use xlink:href="#p"/>
                    </mask>
                    <g mask="url(#q)">
                        <path fill="url(#f)" fill-rule="nonzero" d="M37.845 3.598l-2.696 2.148-14.446-5.2c-.98-.571-2.568-.573-3.549-.006L2.615 5.746 0 3.598v21.19h.002c.012.363.255.725.733 1.003l16.406 9.565c.98.572 2.57.574 3.55.006l16.418-9.517c.503-.291.746-.675.733-1.058h.003V3.597z"/>
                        <mask id="s" fill="#fff">
                            <use xlink:href="#r"/>
                        </mask>
                        <use fill="url(#h)" xlink:href="#r"/>
                        <path fill="url(#i)" d="M18.922 14.548l-.32 22.73 19.251-11.352-.008-22.328z" mask="url(#s)"/>
                    </g>
                </g>
                <path fill="url(#k)" d="M37.11 12.058l-16.42 9.516c-.98.568-2.569.566-3.548-.005L.735 12.005c-.98-.572-.98-1.495 0-2.063L17.156.424c.98-.568 2.569-.565 3.548.006L37.11 9.995c.98.57.98 1.495 0 2.063" transform="translate(395.066 70.814)"/>
                <path fill="#FFF" fill-rule="nonzero" d="M400.346 92.184l5.937 3.481c.354.208.642.712.642 1.126v6.938c0 .414-.288.581-.642.374l-5.937-3.481c-.355-.209-.642-.713-.642-1.127v-6.938c0-.293.144-.462.355-.462.101.004.2.035.287.09v-.001z"/>
            </g>
            <g>
                <g transform="translate(343.216 42.966)">
                    <mask id="u" fill="#fff">
                        <use xlink:href="#t"/>
                    </mask>
                    <g mask="url(#u)">
                        <path fill="url(#f)" fill-rule="nonzero" d="M37.845 3.598l-2.696 2.148-14.446-5.2c-.98-.571-2.568-.573-3.549-.006L2.615 5.746 0 3.598v21.19h.002c.012.363.255.725.733 1.003l16.406 9.565c.98.572 2.57.574 3.55.006l16.418-9.517c.503-.291.746-.675.733-1.058h.003V3.597z"/>
                        <mask id="w" fill="#fff">
                            <use xlink:href="#v"/>
                        </mask>
                        <use fill="url(#h)" xlink:href="#v"/>
                        <path fill="url(#i)" d="M18.922 14.548l-.32 22.73 19.251-11.352-.008-22.328z" mask="url(#w)"/>
                    </g>
                </g>
                <path fill="url(#k)" d="M37.11 12.058l-16.42 9.516c-.98.568-2.569.566-3.548-.005L.735 12.005c-.98-.572-.98-1.495 0-2.063L17.156.424c.98-.568 2.569-.565 3.548.006L37.11 9.995c.98.57.98 1.495 0 2.063" transform="translate(343.216 35.514)"/>
                <path fill="#FFF" fill-rule="nonzero" d="M348.496 56.883l5.937 3.482c.355.208.642.712.642 1.126v6.938c0 .414-.287.581-.642.373l-5.937-3.48c-.355-.209-.642-.713-.642-1.127v-6.938c0-.293.144-.462.355-.462.102.004.2.034.287.09v-.002z"/>
            </g>
            <g>
                <g transform="translate(375.325 45.98)">
                    <mask id="y" fill="#fff">
                        <use xlink:href="#x"/>
                    </mask>
                    <g mask="url(#y)">
                        <path fill="url(#f)" fill-rule="nonzero" d="M37.845 3.598l-2.696 2.148-14.446-5.2c-.98-.571-2.568-.573-3.549-.006L2.615 5.746 0 3.598v21.19h.002c.012.363.255.725.733 1.003l16.406 9.565c.98.572 2.57.574 3.55.006l16.418-9.517c.503-.291.746-.675.733-1.058h.003V3.597z"/>
                        <mask id="A" fill="#fff">
                            <use xlink:href="#z"/>
                        </mask>
                        <use fill="url(#h)" xlink:href="#z"/>
                        <path fill="url(#i)" d="M18.922 14.548l-.32 22.73 19.251-11.352-.008-22.328z" mask="url(#A)"/>
                    </g>
                </g>
                <path fill="url(#k)" d="M37.11 12.058l-16.42 9.516c-.98.568-2.569.566-3.548-.005L.735 12.005c-.98-.572-.98-1.495 0-2.063L17.156.424c.98-.568 2.569-.565 3.548.006L37.11 9.995c.98.57.98 1.495 0 2.063" transform="translate(375.325 38.53)"/>
                <path fill="#FFF" fill-rule="nonzero" d="M380.605 59.898l5.937 3.482c.355.208.642.712.642 1.126v6.938c0 .414-.287.581-.642.373l-5.937-3.48c-.355-.209-.642-.713-.642-1.127v-6.938c0-.293.144-.462.355-.462.102.004.2.034.287.09v-.002z"/>
            </g>
            <g>
                <g transform="translate(358.269 12.155)">
                    <mask id="C" fill="#fff">
                        <use xlink:href="#B"/>
                    </mask>
                    <g mask="url(#C)">
                        <path fill="url(#f)" fill-rule="nonzero" d="M37.845 3.598l-2.696 2.148-14.446-5.2c-.98-.571-2.568-.573-3.549-.006L2.615 5.746 0 3.598v21.19h.002c.012.363.255.725.733 1.003l16.406 9.565c.98.572 2.57.574 3.55.006l16.418-9.517c.503-.291.746-.675.733-1.058h.003V3.597z"/>
                        <mask id="E" fill="#fff">
                            <use xlink:href="#D"/>
                        </mask>
                        <use fill="url(#h)" xlink:href="#D"/>
                        <path fill="url(#i)" d="M18.922 14.548l-.32 22.73 19.251-11.352-.008-22.328z" mask="url(#E)"/>
                    </g>
                </g>
                <path fill="url(#k)" d="M37.11 12.058l-16.42 9.516c-.98.568-2.569.566-3.548-.005L.735 12.005c-.98-.572-.98-1.495 0-2.063L17.156.424c.98-.568 2.569-.565 3.548.006L37.11 9.995c.98.57.98 1.495 0 2.063" transform="translate(358.269 4.704)"/>
                <path fill="#FFF" fill-rule="nonzero" d="M363.549 26.073l5.937 3.481c.355.208.642.712.642 1.126v6.938c0 .414-.287.582-.642.374l-5.937-3.481c-.354-.208-.642-.712-.642-1.127v-6.938c0-.293.144-.462.355-.462.102.004.2.035.287.09v-.001z"/>
            </g>
        </g>
    </g>
</svg>
