<?xml version="1.0" encoding="UTF-8"?>
<svg width="857px" height="719px" viewBox="0 0 857 719" version="1.1" xmlns="http://www.w3.org/2000/svg" xmlns:xlink="http://www.w3.org/1999/xlink">
    <!-- Generator: Sketch 58 (84663) - https://sketch.com -->
    <title>Mask</title>
    <desc>Created with Sketch.</desc>
    <defs>
        <linearGradient x1="94.746485%" y1="26.4660566%" x2="75.7341535%" y2="76.6509412%" id="linearGradient-1">
            <stop stop-color="#D8D8D8" offset="0%"></stop>
            <stop stop-color="#EEEEEE" stop-opacity="0" offset="100%"></stop>
        </linearGradient>
        <rect id="path-2" x="0" y="4.54747351e-13" width="986.152775" height="759.040445"></rect>
    </defs>
    <g id="Page-1" stroke="none" stroke-width="1" fill="none" fill-rule="evenodd">
        <g id="Artboard-Copy-34" transform="translate(-758.000000, -69.000000)">
            <g id="Mask" transform="translate(1226.246762, 526.125663) rotate(-13.000000) translate(-1226.246762, -526.125663) translate(732.746762, 146.125663)">
                <mask id="mask-3" fill="white">
                    <use xlink:href="#path-2"></use>
                </mask>
                <use fill="url(#linearGradient-1)" xlink:href="#path-2"></use>
                <g mask="url(#mask-3)">
                    <g transform="translate(488.061821, 364.598337) rotate(1.000000) translate(-488.061821, -364.598337) translate(6.061821, 12.598337)">
                        <polygon id="Fill-1" fill="#FFFFFF" points="474.762253 218.123717 438.774921 197.097463 613.511963 205.545666"></polygon>
                        <polygon id="Fill-2" fill="#F5EFDB" points="474.762253 218.123717 470.150144 253.441853 486.422909 233.287439 613.511963 205.545666"></polygon>
                        <polygon id="Fill-3" fill="#DCD8C6" points="470.150144 253.442482 493.557854 246.221138 486.422909 233.286497"></polygon>
                        <polygon id="Fill-4" fill="#FFFFFF" points="486.423537 233.287282 496.142583 283.074811 613.512591 205.545509"></polygon>
                        <polygon id="Fill-5" fill="#FFFFFF" points="574.382239 338.512488 532.720881 339.69065 685.511133 254.487589"></polygon>
                        <polygon id="Fill-6" fill="#F5EFDB" points="574.382239 338.512488 589.139103 370.933919 592.298146 345.221725 685.511133 254.487589"></polygon>
                        <polygon id="Fill-7" fill="#DCD8C6" points="589.138317 370.933447 605.191159 352.426888 592.298931 345.222824"></polygon>
                        <polygon id="Fill-8" fill="#FFFFFF" points="592.29846 345.22251 626.868857 382.347161 685.511447 254.488375"></polygon>
                        <polygon id="Fill-9" fill="#FFFFFF" points="583.322755 538.229379 542.523812 546.759267 648.228451 440.489111"></polygon>
                        <polygon id="Fill-10" fill="#F5EFDB" points="583.322755 538.229379 596.524446 569.621882 602.14192 541.661756 648.228451 440.489111"></polygon>
                        <polygon id="Fill-11" fill="#DCD8C6" points="596.524918 569.622353 616.107531 546.472267 602.142391 541.660656"></polygon>
                        <polygon id="Fill-12" fill="#FFFFFF" points="602.141763 541.66097 651.916725 567.343318 648.228294 440.489896"></polygon>
                        <g id="Group-12" stroke-width="1" fill="none" transform="translate(234.351408, 301.385795)">
                            <g id="Group-14" transform="translate(65.303704, 0.000000)">
                                <polygon id="Fill-13" fill="#FFFFFF" points="34.7541899 23.0071355 -5.82645043e-13 6.82121026e-13 149.887262 0.419425452"></polygon>
                                <polygon id="Fill-14" fill="#F5EFDB" points="34.7541899 23.0071355 21.7205833 54.4734697 45.5492899 38.8007815 149.887262 0.419425452"></polygon>
                                <polygon id="Fill-15" fill="#DCD8C6" points="21.7207403 54.473941 51.9492197 52.1129055 45.5478761 38.7996819"></polygon>
                                <polygon id="Fill-16" fill="#FFFFFF" points="45.5486616 38.8004674 62.2958329 92.2497221 149.886634 0.419111276"></polygon>
                            </g>
                            <g id="Group-14" transform="translate(96.726453, 252.581014) rotate(-9.000000) translate(-96.726453, -252.581014) translate(7.726453, 197.581014)">
                                <polygon id="Fill-13" fill="#FFFFFF" points="41.1116637 27.2157578 -5.82645043e-13 6.82121026e-13 177.305664 0.49614962"></polygon>
                                <polygon id="Fill-14" fill="#F5EFDB" points="41.1116637 27.2157578 25.6938607 64.4381288 53.8814771 45.8984855 177.305664 0.49614962"></polygon>
                                <polygon id="Fill-15" fill="#DCD8C6" points="25.6940465 64.4386863 61.4521257 61.6457541 53.8798047 45.8971847"></polygon>
                                <polygon id="Fill-16" fill="#FFFFFF" points="53.8807338 45.8981138 73.6914121 109.124671 177.30492 0.495777973"></polygon>
                            </g>
                        </g>
                        <g id="Group-12" stroke-width="1" fill="none" transform="translate(107.815726, 231.736251) rotate(31.000000) translate(-107.815726, -231.736251) translate(16.315726, 175.236251)">
                            <polygon id="Fill-13" fill="#FFFFFF" points="42.3831584 28.0574823 -5.82645043e-13 6.82121026e-13 182.789344 0.511494454"></polygon>
                            <polygon id="Fill-14" fill="#F5EFDB" points="42.3831584 28.0574823 26.4885162 66.4310606 55.5479146 47.3180263 182.789344 0.511494454"></polygon>
                            <polygon id="Fill-15" fill="#DCD8C6" points="26.4887077 66.4316353 63.3527069 63.5523238 55.5461904 47.3166853"></polygon>
                            <polygon id="Fill-16" fill="#FFFFFF" points="55.5471483 47.3176431 75.970528 112.499661 182.788578 0.511111312"></polygon>
                        </g>
                        <g id="Group-8" stroke-width="1" fill="none" transform="translate(176.166249, 372.237130) rotate(33.000000) translate(-176.166249, -372.237130) translate(106.166249, 313.237130)">
                            <polygon id="Fill-17" fill="#FFFFFF" points="40.7502459 63.0027297 -1.25055521e-12 54.2450635 139.728369 0.000942529083"></polygon>
                            <polygon id="Fill-18" fill="#F5EFDB" points="40.7502459 63.0027297 40.084192 97.0531646 56.5580299 73.7726957 139.728369 0.000942529115"></polygon>
                            <polygon id="Fill-19" fill="#DCD8C6" points="40.0837207 97.0528504 67.3730801 83.8370215 56.5591295 73.7739524"></polygon>
                            <polygon id="Fill-20" fill="#FFFFFF" points="56.5586583 73.773324 91.6348789 117.440698 139.727427 -9.9475983e-13"></polygon>
                        </g>
                        <polygon id="Fill-21" fill="#FFFFFF" points="455.855748 665.822058 414.219524 663.875735 543.14651 587.431912"></polygon>
                        <polygon id="Fill-22" fill="#F5EFDB" points="455.855748 665.822058 460.785175 699.520615 473.213992 673.853976 543.14651 587.431912"></polygon>
                        <polygon id="Fill-24" fill="#FFFFFF" points="473.214934 673.854605 505.944258 703.09657 516.822614 703.09657 543.147452 587.430969"></polygon>
                        <polygon id="Fill-33" fill="#FFFFFF" points="273.906787 199.104108 410.589216 226.082433 245.293174 168.798655"></polygon>
                        <polygon id="Fill-34" fill="#F5EFDB" points="273.907258 199.104422 259.543115 231.697078 280.830135 216.938644 410.589688 226.082747"></polygon>
                        <polygon id="Fill-35" fill="#DCD8C6" points="259.543115 231.697236 284.036304 231.356354 280.830135 216.93723"></polygon>
                        <polygon id="Fill-36" fill="#FFFFFF" points="280.82982 216.937858 276.14388 267.449564 410.589373 226.081961"></polygon>
                        <g id="Group-82" stroke-width="1" fill="none" transform="translate(193.659259, 0.565517)">
                            <path d="M667.997996,93.1264492 C667.84405,93.1264492 667.690104,93.0918898 667.545582,93.0164875 C667.063322,92.7667173 666.877958,92.1744948 667.126157,91.6922341 C668.839989,88.3949531 669.752671,86.4831899 669.762097,86.4659102 C669.994587,85.977366 670.575814,85.7684387 671.070641,86.0009292 C671.560756,86.2349906 671.766542,86.8209295 671.534051,87.3110447 C671.524626,87.3298952 670.599377,89.2667925 668.869836,92.5986329 C668.693897,92.9332308 668.351445,93.1264492 667.997996,93.1264492" id="Fill-44" fill="#FFFDF2"></path>
                            <g id="Group-48" transform="translate(0.142618, 166.009406)" fill="#FFFDF2">
                                <path d="M617.005335,12.3100585 C616.832538,12.3100585 616.658171,12.2645029 616.501082,12.17025 C616.03453,11.890633 615.883726,11.2874144 616.163343,10.8224334 C618.208631,7.42147418 620.205222,3.98438471 622.102847,0.608559626 C622.369897,0.135724191 622.966832,-0.032360166 623.441238,0.234689747 C623.914074,0.500168779 624.082158,1.09867476 623.816679,1.5715102 C621.908058,4.9630441 619.900471,8.41584239 617.847328,11.8340813 C617.663535,12.1404032 617.338362,12.3100585 617.005335,12.3100585 M604.24192,32.2492617 C604.050273,32.2492617 603.860196,32.1958517 603.68897,32.0796065 C603.24284,31.7748554 603.126594,31.1637824 603.431345,30.7145102 C605.622726,27.5004859 607.810964,24.1843543 609.939509,20.8603684 C610.230122,20.4032417 610.836482,20.2681459 611.29518,20.5634717 C611.750736,20.8540848 611.884261,21.4620161 611.593647,21.9191427 C609.455677,25.2588375 607.254872,28.589107 605.055637,31.8219819 C604.86399,32.1000279 604.556097,32.2492617 604.24192,32.2492617 M463.921329,39.5899926 C463.823934,39.5899926 463.72654,39.5742838 463.629145,39.544437 C460.73401,38.6411799 457.783894,38.1824824 454.857341,38.1824824 L454.829065,38.1824824 C454.00121,38.1824824 453.162359,38.2201836 452.339217,38.2955859 C451.812972,38.3521377 451.321286,37.9452793 451.272588,37.4048959 C451.223891,36.8660835 451.624466,36.3885354 452.161707,36.339838 C453.05711,36.2581522 453.977647,36.2283054 454.858912,36.2188801 C457.981825,36.2188801 461.128301,36.7074244 464.213513,37.6719458 C464.731904,37.8321758 465.019375,38.3835553 464.859145,38.9003754 C464.727191,39.3198009 464.339183,39.5899926 463.921329,39.5899926 M431.570588,48.6822567 C431.32396,48.6822567 431.080473,48.5911455 430.888825,48.4073524 C430.497676,48.0319116 430.48668,47.4098424 430.863691,47.0202637 C433.761968,44.012025 437.015265,41.5708746 440.53404,39.7612187 C441.019443,39.5098776 441.608523,39.704667 441.856723,40.1853568 C442.103351,40.6676175 441.914845,41.25984 441.431014,41.5080393 C438.105457,43.2171588 435.024957,45.5310677 432.275914,48.3822183 C432.082696,48.5817202 431.826642,48.6822567 431.570588,48.6822567 M590.305057,51.3810317 C590.094559,51.3810317 589.880919,51.3134838 589.701838,51.1736753 C589.274558,50.8406483 589.199156,50.2232918 589.532183,49.7960119 C591.908927,46.7485011 594.298238,43.5753198 596.63414,40.3675791 C596.949887,39.9308739 597.564102,39.8334793 598.00552,40.1523683 C598.443796,40.4712573 598.539619,41.0854721 598.22073,41.5237481 C595.873833,44.7487686 593.471955,47.9392296 591.079501,51.0040201 C590.887854,51.2522194 590.597241,51.3810317 590.305057,51.3810317 M483.186624,52.7948254 C482.919574,52.7948254 482.652524,52.6864345 482.459306,52.4712237 C479.702408,49.4174294 476.808844,46.8097655 473.857157,44.7173509 C473.415739,44.4047454 473.308919,43.7905306 473.623095,43.3491128 C473.937272,42.9061241 474.548345,42.8024459 474.992904,43.1150514 C478.060836,45.2907228 481.064362,47.9942104 483.915513,51.1563956 C484.279958,51.5569705 484.246969,52.1774688 483.844823,52.5419134 C483.656318,52.7115686 483.422256,52.7948254 483.186624,52.7948254 M420.871312,69.4116135 C420.810048,69.4116135 420.748783,69.4069008 420.685948,69.3943338 C420.153419,69.2937974 419.804683,68.780119 419.903649,68.2460192 C420.652959,64.3031057 421.980355,60.4654414 423.849704,56.841417 C424.097903,56.3607271 424.688555,56.1722213 425.172386,56.4204206 C425.653076,56.66862 425.843153,57.2608424 425.594954,57.7431032 C423.813574,61.1990432 422.547443,64.8544853 421.834263,68.6120346 C421.744722,69.0832992 421.333151,69.4116135 420.871312,69.4116135 M575.061219,69.4823032 C574.824016,69.4823032 574.586813,69.3959047 574.398307,69.2246786 C573.997732,68.860234 573.969456,68.2381648 574.335472,67.8375899 C576.921143,65.0068608 579.535091,62.0221853 582.106624,58.9668201 C582.456931,58.5505364 583.075859,58.5002682 583.490571,58.8474331 C583.905284,59.1961689 583.958694,59.8150963 583.608387,60.2298091 C581.022716,63.3071667 578.389918,66.3106927 575.785396,69.1618433 C575.592177,69.3739123 575.326698,69.4823032 575.061219,69.4823032 M496.278353,72.3994308 C495.921763,72.3994308 495.576169,72.2030705 495.403372,71.8653309 C493.540306,68.2193142 491.57042,64.8089297 489.545554,61.7268595 C489.247086,61.2744455 489.374327,60.6665143 489.825171,60.3680467 C490.282297,60.0695792 490.888658,60.1968206 491.187125,60.6476637 C493.251264,63.7894274 495.25728,67.2626471 497.151763,70.9714992 C497.398392,71.4537599 497.205173,72.0459823 496.724484,72.2926108 C496.581533,72.3648714 496.429158,72.3994308 496.278353,72.3994308 M558.298339,86.1713519 C558.029718,86.1713519 557.761098,86.0598193 557.567879,85.8446085 C557.205005,85.4408918 557.237994,84.8203935 557.643281,84.4575198 C560.486578,81.9032659 563.366004,79.176215 566.19202,76.3564821 C566.575316,75.973187 567.197385,75.9716161 567.58068,76.3564821 C567.962404,76.7413482 567.962404,77.3618465 567.579109,77.7451417 C564.727959,80.5915796 561.824969,83.3406228 558.953397,85.9200108 C558.766462,86.0880951 558.53083,86.1713519 558.298339,86.1713519 M423.838708,92.458021 C423.475834,92.458021 423.127098,92.2553773 422.957443,91.9082124 C421.17135,88.257483 420.007327,84.3601251 419.499932,80.319817 C419.432384,79.7825754 419.814108,79.2908894 420.349779,79.2233415 C420.905871,79.1589353 421.381849,79.535947 421.449396,80.0747594 C421.928515,83.8982859 423.029704,87.5898582 424.719972,91.0457982 C424.957176,91.5312007 424.756103,92.1202814 424.2707,92.3590555 C424.130892,92.4266034 423.9848,92.458021 423.838708,92.458021 M503.232647,94.8473323 C502.742532,94.8473323 502.318394,94.4813168 502.2587,93.9833473 C501.765443,89.9116216 500.976861,86.077099 499.914945,82.5834578 C499.757856,82.0650667 500.051611,81.5183999 500.568431,81.3597408 C501.096248,81.2026526 501.638202,81.4948366 501.793719,82.0132276 C502.887053,85.6168306 503.70077,89.5644567 504.208165,93.7461441 C504.272571,94.2849566 503.889276,94.7735009 503.350463,94.8394779 C503.311191,94.8457614 503.27349,94.8473323 503.232647,94.8473323 M539.747795,100.837105 C539.43519,100.837105 539.128868,100.687871 538.938791,100.409825 C538.630899,99.9605527 538.747144,99.3510506 539.194845,99.0447286 C542.327183,96.9020458 545.50979,94.5520065 548.651554,92.0605879 C549.075692,91.7212774 549.691478,91.793538 550.029217,92.219247 C550.366957,92.6433851 550.296267,93.2607416 549.872129,93.5984812 C546.692664,96.1181757 543.473927,98.4964908 540.302317,100.665879 C540.131091,100.782124 539.939443,100.837105 539.747795,100.837105 M439.756454,109.514656 C439.578944,109.514656 439.396722,109.465959 439.23335,109.363851 C435.681586,107.119061 432.538251,104.56952 429.889745,101.787488 C429.515875,101.393197 429.531584,100.772699 429.924304,100.398829 C430.317025,100.02653 430.937523,100.040668 431.312964,100.433388 C433.849938,103.099175 436.867602,105.546609 440.282699,107.703429 C440.741396,107.992472 440.878063,108.598832 440.58745,109.057529 C440.400515,109.352855 440.083197,109.514656 439.756454,109.514656 M519.191236,112.463201 C518.815795,112.463201 518.459205,112.24642 518.295833,111.881975 C518.072768,111.387147 518.295833,110.805921 518.790661,110.585997 C522.256026,109.038679 525.77166,107.252586 529.243309,105.277988 C529.714573,105.009367 530.311508,105.17431 530.5817,105.647145 C530.850321,106.116839 530.685378,106.716916 530.214114,106.985536 C526.687484,108.989982 523.112157,110.805921 519.591811,112.378374 C519.461427,112.436496 519.324761,112.463201 519.191236,112.463201 M461.550868,118.41056 C461.470753,118.41056 461.390638,118.399564 461.313665,118.380713 C457.273357,117.378491 453.445118,116.159486 449.932626,114.756689 C449.426802,114.557187 449.181745,113.985386 449.382817,113.482704 C449.585461,112.97688 450.158833,112.731822 450.656803,112.934466 C454.089179,114.302704 457.832591,115.495003 461.78493,116.475234 C462.312746,116.605617 462.633206,117.138146 462.502823,117.664391 C462.39129,118.112092 461.990715,118.41056 461.550868,118.41056 M496.708775,119.546308 C496.243794,119.546308 495.830652,119.214851 495.745824,118.740445 C495.646859,118.207916 496.001878,117.695809 496.535978,117.598414 C498.461879,117.248107 500.406631,116.823969 502.356095,116.333854 C502.698547,112.654849 502.88234,109.068526 502.898049,105.658141 C502.901191,105.117758 503.342609,104.682624 503.881421,104.682624 L503.884563,104.682624 C504.428088,104.684194 504.864793,105.125612 504.861652,105.669137 C504.847514,108.914579 504.682571,112.315538 504.376249,115.799754 C505.540272,115.479294 506.702725,115.1337 507.863607,114.764543 C508.383569,114.59803 508.931806,114.887072 509.096749,115.402321 C509.260121,115.920712 508.97422,116.472092 508.4574,116.635463 C507.012189,117.095732 505.560694,117.51987 504.109199,117.907878 C503.931689,118.258184 503.551536,118.479679 503.135252,118.440407 C502.965597,118.423127 502.813222,118.365004 502.681268,118.277035 C500.741228,118.760867 498.805902,119.181863 496.884714,119.530599 C496.826591,119.543166 496.768468,119.546308 496.708775,119.546308 M481.661298,120.925542 C478.805434,120.925542 475.918154,120.773166 473.077999,120.474699 C472.539187,120.418147 472.148037,119.935886 472.204589,119.395503 C472.25957,118.858261 472.729263,118.456116 473.283785,118.523663 C477.134016,118.92738 481.043941,119.05148 484.947582,118.894392 C485.461261,118.83784 485.945092,119.293396 485.967085,119.833779 C485.990648,120.375733 485.569652,120.83286 485.027697,120.854852 C483.906088,120.900408 482.773482,120.925542 481.661298,120.925542 M499.138929,141.727159 C499.061956,141.727159 498.983412,141.717734 498.904868,141.698883 C498.378622,141.570071 498.05502,141.039113 498.183833,140.512868 C499.134216,136.610797 499.952646,132.738573 500.6187,128.999874 C500.712953,128.465775 501.214064,128.104472 501.75916,128.205008 C502.291689,128.300832 502.646708,128.811369 502.552455,129.343898 C501.878547,133.121868 501.052263,137.036506 500.090883,140.976278 C499.982493,141.42555 499.580347,141.727159 499.138929,141.727159 M492.35429,164.385559 C492.245899,164.385559 492.135938,164.366708 492.027547,164.330578 C491.51701,164.149927 491.248389,163.589122 491.429041,163.078585 C492.753294,159.316323 493.984866,155.546207 495.087625,151.875056 C495.243142,151.356665 495.781954,151.061339 496.309771,151.216856 C496.829733,151.373945 497.123488,151.922182 496.96797,152.442144 C495.855786,156.141571 494.61636,159.938392 493.27954,163.730501 C493.13816,164.132647 492.758007,164.385559 492.35429,164.385559 M483.598195,186.362196 C483.46467,186.362196 483.329574,186.335491 483.200762,186.277368 C482.705934,186.057445 482.481298,185.477789 482.701221,184.981391 C484.314517,181.341657 485.857123,177.684645 487.281913,174.11403 C487.482986,173.611348 488.054787,173.364719 488.557469,173.567363 C489.061722,173.768436 489.306779,174.338666 489.104136,174.842919 C487.671491,178.435526 486.121031,182.114531 484.495168,185.777828 C484.334938,186.143843 483.973636,186.362196 483.598195,186.362196 M473.272789,207.649216 C473.117271,207.649216 472.961754,207.613085 472.815662,207.536112 C472.336543,207.2832 472.151179,206.689407 472.404091,206.210288 C474.248306,202.705651 476.040682,199.161741 477.730951,195.680667 C477.968154,195.193694 478.552522,194.989479 479.042638,195.226682 C479.529611,195.463885 479.732255,196.049824 479.496622,196.538368 C477.798499,200.038293 475.995127,203.599482 474.143057,207.124541 C473.965547,207.459139 473.626237,207.649216 473.272789,207.649216 M461.632554,228.243477 C461.458186,228.243477 461.283818,228.197921 461.125159,228.102097 C460.660178,227.82248 460.512515,227.217691 460.792132,226.754281 C462.838991,223.365889 464.845007,219.939795 466.752058,216.567112 C467.019108,216.095847 467.617614,215.930905 468.088878,216.197955 C468.561714,216.463434 468.726656,217.06194 468.459607,217.534775 C466.546272,220.921596 464.530831,224.36654 462.472976,227.770641 C462.287612,228.075392 461.965581,228.243477 461.632554,228.243477 M448.844005,248.141837 C448.653928,248.141837 448.46071,248.086856 448.292625,247.972182 C447.841782,247.667431 447.727108,247.056358 448.03343,246.607085 C450.249944,243.353789 452.441324,240.04237 454.549448,236.765511 C454.840061,236.311526 455.447992,236.17643 455.903548,236.473327 C456.360675,236.76394 456.492629,237.373442 456.198874,237.828998 C454.084467,241.118424 451.883661,244.445552 449.656151,247.714557 C449.466074,247.992603 449.15661,248.141837 448.844005,248.141837 M435.023387,267.344297 C434.81603,267.344297 434.608674,267.27832 434.429593,267.144795 C433.997601,266.81648 433.912773,266.200695 434.241087,265.768702 C436.613119,262.645789 438.975725,259.452186 441.259787,256.277434 C441.577106,255.837587 442.189749,255.737051 442.631167,256.054369 C443.069443,256.371687 443.16998,256.984331 442.854232,257.425749 C440.559174,260.613068 438.188713,263.819238 435.805686,266.956289 C435.612467,267.209201 435.320283,267.344297 435.023387,267.344297 M420.263381,285.827292 C420.040315,285.827292 419.81725,285.75189 419.631886,285.596373 C419.217173,285.249208 419.163763,284.62871 419.510928,284.213997 C422.032194,281.210471 424.548746,278.136255 426.989897,275.082461 C427.329207,274.658323 427.946564,274.589204 428.370702,274.926943 C428.793269,275.266254 428.862388,275.88361 428.526219,276.306178 C426.072502,279.375681 423.546524,282.460893 421.015833,285.475415 C420.821044,285.709476 420.544569,285.827292 420.263381,285.827292 M404.629965,303.575116 C404.38962,303.575116 404.150846,303.488717 403.96234,303.314349 C403.564907,302.945192 403.539773,302.324694 403.907359,301.92569 C406.566862,299.049405 409.226365,296.10086 411.816749,293.163311 C412.173339,292.754881 412.795408,292.715609 413.202267,293.075341 C413.609125,293.433502 413.648397,294.054001 413.288665,294.460859 C410.691998,297.410975 408.019928,300.372087 405.349428,303.257797 C405.15621,303.466725 404.893873,303.575116 404.629965,303.575116 M388.173406,320.564203 C387.918924,320.564203 387.667582,320.466808 387.474364,320.272019 C387.094211,319.885582 387.098923,319.265083 387.48536,318.88493 C390.272105,316.139028 393.066703,313.317725 395.795325,310.501134 C396.173908,310.111555 396.795977,310.1037 397.182414,310.47757 C397.573563,310.856153 397.58456,311.476651 397.207548,311.86623 C394.466359,314.693817 391.660764,317.524546 388.864594,320.281444 C388.671376,320.471521 388.423177,320.564203 388.173406,320.564203 M370.948687,336.76942 C370.678495,336.76942 370.409875,336.659458 370.216656,336.442676 C369.853782,336.040531 369.888342,335.420032 370.290487,335.058729 C373.19819,332.444782 376.123172,329.760145 378.980606,327.070795 C379.374897,326.700067 379.996966,326.717347 380.369265,327.111638 C380.741564,327.5075 380.721143,328.127999 380.326852,328.501869 C377.45685,331.200644 374.522443,333.897848 371.603745,336.518079 C371.415239,336.687734 371.181177,336.76942 370.948687,336.76942 M352.993508,352.157778 C352.707607,352.157778 352.426419,352.03525 352.23163,351.798046 C351.887607,351.37705 351.950442,350.759693 352.369867,350.41567 C355.385961,347.950957 358.43033,345.401415 361.419718,342.839307 C361.83286,342.485859 362.451787,342.536127 362.803665,342.947698 C363.157113,343.357698 363.109987,343.978197 362.696845,344.331645 C359.698031,346.903179 356.641095,349.462145 353.612435,351.936284 C353.430213,352.083947 353.210289,352.157778 352.993508,352.157778 M334.343998,366.699432 C334.045531,366.699432 333.748634,366.562765 333.556986,366.303569 C333.231814,365.868435 333.322925,365.252649 333.758059,364.929048 C336.896681,362.597859 340.055725,360.19441 343.14722,357.781535 C343.5745,357.446937 344.193427,357.52234 344.524883,357.952761 C344.85791,358.37847 344.784079,358.997398 344.355228,359.330425 C341.251166,361.751154 338.079555,364.165599 334.929937,366.506213 C334.753998,366.636596 334.546642,366.699432 334.343998,366.699432 M315.045715,380.361391 C314.729968,380.361391 314.420504,380.210586 314.230427,379.929398 C313.927247,379.478555 314.046634,378.867482 314.495906,378.565873 C317.760199,376.365068 321.027633,374.110852 324.205527,371.859778 C324.648516,371.547173 325.261159,371.650851 325.573765,372.09384 C325.889512,372.536828 325.782692,373.149472 325.341274,373.463649 C322.149243,375.721006 318.870812,377.986218 315.592382,380.193307 C315.425868,380.30641 315.234221,380.361391 315.045715,380.361391 M295.130075,393.109097 C294.798619,393.109097 294.475017,392.941013 294.291224,392.637833 C294.008465,392.172851 294.156128,391.569633 294.617967,391.286874 C297.965517,389.254153 301.335058,387.153884 304.632339,385.04419 C305.087895,384.750435 305.695826,384.88396 305.98801,385.339515 C306.280194,385.796642 306.146669,386.404573 305.691113,386.698328 C302.381265,388.814306 298.999157,390.925571 295.639041,392.966147 C295.480381,393.061971 295.302872,393.109097 295.130075,393.109097 M274.641063,404.911132 C274.292327,404.911132 273.957729,404.725768 273.778649,404.399025 C273.519453,403.923048 273.695392,403.327683 274.171369,403.068488 C277.59275,401.203851 281.056544,399.265383 284.465358,397.30021 C284.933481,397.026876 285.535129,397.190248 285.80532,397.659942 C286.077083,398.129635 285.913711,398.729712 285.444017,398.999904 C282.022637,400.972932 278.546275,402.920825 275.110757,404.791745 C274.961523,404.873431 274.799722,404.911132 274.641063,404.911132 M253.624235,415.734508 C253.25979,415.734508 252.911054,415.531865 252.739828,415.181558 C252.502625,414.694584 252.70684,414.107075 253.195384,413.869872 C256.711018,412.163894 260.25964,410.390368 263.746997,408.593279 C264.227687,408.341938 264.81991,408.533586 265.06968,409.017418 C265.317879,409.498107 265.127802,410.088759 264.645542,410.338529 C261.145617,412.141901 257.581286,413.924852 254.051515,415.637114 C253.913277,415.703091 253.767185,415.734508 253.624235,415.734508 M232.115721,425.550949 C231.735567,425.550949 231.374264,425.327884 231.214034,424.955585 C231.000394,424.457615 231.231314,423.881102 231.730854,423.667462 C235.314036,422.131139 238.944344,420.527269 242.519671,418.895123 C243.012928,418.672057 243.595725,418.888839 243.821932,419.382096 C244.044997,419.873782 243.828216,420.456579 243.334959,420.681215 C239.747065,422.319645 236.102619,423.932941 232.502157,425.472405 C232.378058,425.525815 232.246104,425.550949 232.115721,425.550949 M210.16893,434.341604 C209.771497,434.341604 209.396056,434.096546 209.248394,433.700684 C209.059888,433.193289 209.317512,432.629342 209.826478,432.439266 C213.48192,431.07574 217.182918,429.641525 220.830505,428.183747 C221.333188,427.981103 221.904989,428.226161 222.107632,428.728843 C222.308705,429.233096 222.063648,429.804897 221.560965,430.007541 C217.900811,431.473173 214.182533,432.91053 210.512953,434.278768 C210.398279,434.319611 210.282034,434.341604 210.16893,434.341604 M187.832561,442.076626 C187.416278,442.076626 187.031412,441.811147 186.899458,441.391721 C186.732944,440.874901 187.017274,440.323522 187.534094,440.158579 C191.271222,438.963138 195.035055,437.708003 198.725056,436.429306 C199.237164,436.251796 199.796397,436.521988 199.975478,437.037237 C200.152988,437.549344 199.881225,438.108578 199.369118,438.284517 C195.663407,439.569498 191.883866,440.827775 188.1326,442.027929 C188.032063,442.059346 187.931527,442.076626 187.832561,442.076626 M165.155311,448.74659 C164.721748,448.74659 164.325885,448.457548 164.208069,448.019272 C164.06669,447.496168 164.377725,446.957356 164.900828,446.815976 C168.702362,445.794903 172.522747,444.718849 176.256733,443.622374 C176.779837,443.465285 177.323362,443.765324 177.474166,444.286857 C177.628113,444.806819 177.329645,445.351915 176.811254,445.50429 C173.061559,446.607049 169.227037,447.687816 165.411365,448.712031 C165.324966,448.735594 165.240139,448.74659 165.155311,448.74659 M142.187448,454.3405 C141.736605,454.3405 141.329746,454.027895 141.230781,453.569197 C141.114535,453.03981 141.449133,452.515136 141.97852,452.400461 C145.824039,451.556898 149.69155,450.661495 153.472663,449.739388 C153.994196,449.610575 154.529866,449.934177 154.658679,450.461993 C154.787491,450.988239 154.463889,451.520768 153.937644,451.648009 C150.140822,452.573258 146.259173,453.471803 142.399517,454.316937 C142.327256,454.331075 142.258137,454.3405 142.187448,454.3405 M118.987094,458.858357 C118.515829,458.858357 118.102687,458.519046 118.021001,458.043069 C117.928319,457.507398 118.288051,457.000003 118.822151,456.908892 C122.68495,456.247551 126.590162,455.534371 130.427826,454.786631 C130.955642,454.681382 131.475604,455.030118 131.579283,455.562647 C131.682961,456.095175 131.335796,456.610425 130.803267,456.715674 C126.949894,457.464984 123.030544,458.179736 119.153607,458.842648 C119.097055,458.852073 119.042075,458.858357 118.987094,458.858357 M95.6029466,462.30173 C95.1144023,462.30173 94.6902642,461.935714 94.6289998,461.440886 C94.5630228,460.902074 94.9463179,460.410388 95.4835595,460.344411 C99.3479289,459.865292 103.281417,459.332763 107.172491,458.760962 C107.7223,458.68556 108.207702,459.053146 108.287817,459.588817 C108.366362,460.124487 107.995633,460.624028 107.458392,460.702572 C103.55318,461.277515 99.6055535,461.813185 95.7254753,462.293875 C95.6830615,462.300159 95.6437895,462.30173 95.6029466,462.30173 M72.0868454,464.681616 C71.5810214,464.681616 71.1505998,464.290466 71.1097568,463.776788 C71.067343,463.234833 71.4710597,462.761998 72.011443,462.719584 C75.933935,462.411691 79.8862737,462.056672 83.7616392,461.663952 C84.3130187,461.616825 84.7827124,462.001691 84.8361224,462.543645 C84.8911033,463.082458 84.4983828,463.563148 83.9579994,463.618129 C80.0700669,464.01242 76.1020193,464.36901 72.1653894,464.678474 C72.1386845,464.680045 72.1135503,464.681616 72.0868454,464.681616 M48.4843457,466.016865 C47.9596711,466.016865 47.5245368,465.600582 47.5056863,465.068053 C47.4868357,464.527669 47.9109738,464.072113 48.452928,464.054834 C52.387987,463.918167 56.3528928,463.737516 60.2408254,463.517592 C60.7796378,463.484604 61.2461898,463.899316 61.2744656,464.441271 C61.3058833,464.983225 60.8911705,465.445064 60.3507871,465.478053 C56.4502875,465.699547 52.4696729,465.880198 48.5204759,466.015294 C48.5094798,466.016865 48.4969127,466.016865 48.4843457,466.016865 M13.0232589,466.106405 L12.9934122,466.106405 C9.07406196,465.99016 5.09187649,465.834643 1.15995923,465.638283 C0.618004998,465.611578 0.200150427,465.151309 0.228426301,464.607784 C0.255131292,464.068972 0.716970554,463.630696 1.25735391,463.676251 C5.17670411,463.872611 9.14475164,464.0297 13.0515348,464.141232 C13.593489,464.158512 14.019198,464.610926 14.0050601,465.15288 C13.9877804,465.685409 13.5526461,466.106405 13.0232589,466.106405 M29.6290509,466.34675 C28.0424602,466.356176 26.437019,466.338896 24.8362904,466.326329 C24.2927653,466.321616 23.857631,465.878628 23.8623057,465.336673 C23.8670563,464.797861 24.3053323,464.362727 24.8441448,464.362727 L24.8504283,464.362727 C26.4480152,464.376865 28.0440311,464.375294 29.6290509,464.383148 C31.9790901,464.383148 34.3197041,464.365868 36.6556054,464.334451 L36.6666015,464.334451 C37.2038431,464.334451 37.6421192,464.768014 37.6485078,465.305256 C37.6562571,465.845639 37.2226937,466.29177 36.6791686,466.298053 C34.3385547,466.329471 31.9869445,466.34675 29.6290509,466.34675" id="Fill-46"></path>
                            </g>
                            <polygon id="Fill-49" fill="#FFFFFF" points="261.409476 439.371742 220.475437 431.525188 358.959668 374.183288"></polygon>
                            <polygon id="Fill-51" fill="#F5EFDB" points="261.409476 439.371742 261.500588 473.430032 277.454464 449.789831 358.959668 374.183288"></polygon>
                            <polygon id="Fill-53" fill="#DCD8C6" points="261.499959 473.429403 288.487709 459.610356 277.453835 449.789202"></polygon>
                            <polygon id="Fill-55" fill="#FFFFFF" points="277.454307 449.789517 313.493478 492.666737 358.959511 374.182974"></polygon>
                            <polygon id="Fill-66" fill="#FFFFFF" points="495.546116 401.44657 461.415567 420.339566 551.804108 283.801658"></polygon>
                            <polygon id="Fill-68" fill="#F5EFDB" points="495.546116 401.44657 521.754709 422.053398 513.325357 399.319596 551.804108 283.801658"></polygon>
                            <polygon id="Fill-70" fill="#DCD8C6" points="521.754081 422.053713 527.143776 399.766041 513.3263 399.31834"></polygon>
                            <polygon id="Fill-72" fill="#FFFFFF" points="513.325985 399.318811 558.031712 415.319813 551.803165 283.800873"></polygon>
                            <g id="Group-13" transform="translate(565.016149, 0.126449)">
                                <g id="Group-5" transform="translate(85.782963, 0.195411)" fill="#70EAFF">
                                    <polygon id="Fill-80" points="0.197062797 126.929073 46.1828883 184.40172 117.718423 1.8189894e-12"></polygon>
                                </g>
                                <polygon id="Fill-74" fill="#70EAFF" points="61.9818384 110.705003 0.060913171 97.2810611 203.501183 0.195817167"></polygon>
                                <polygon id="Fill-76" fill="#30B7F2" points="61.9818384 110.705003 65.6593251 162.352089 85.9798226 127.12489 203.501183 0.195817167"></polygon>
                                <polygon id="Fill-78" fill="#2381B5" transform="translate(83.561513, 145.144020) rotate(3.000000) translate(-83.561513, -145.144020) " points="66.5844602 163.265434 100.538566 144.799227 85.0336414 127.022605"></polygon>
                            </g>
                        </g>
                        <g id="Group-11" stroke-width="1" fill="none" transform="translate(715.650671, 460.871545)">
                            <polygon id="Fill-37" fill="#FFFFFF" points="57.6111491 117.154797 81.4587064 143.196876 43.226584 1.5262458e-11"></polygon>
                            <polygon id="Fill-38" fill="#F5EFDB" points="57.6111491 117.154797 29.187613 127.288556 42.9705303 110.208358 43.226584 -1.13686838e-13"></polygon>
                            <polygon id="Fill-39" fill="#DCD8C6" points="29.1879272 127.28887 30.985016 106.611352 42.9692736 110.208672"></polygon>
                            <polygon id="Fill-40" fill="#FFFFFF" points="42.969902 110.208672 -2.55795385e-13 111.06009 43.2259557 0.000314176344"></polygon>
                        </g>
                    </g>
                </g>
            </g>
        </g>
    </g>
</svg>