<svg id="primary_Logo" xmlns="http://www.w3.org/2000/svg" viewBox="0 0 290.7 250.2" width="2500" height="2152"><style>.st0{fill:#d0d2d3}.st1{fill:#a6a8ab}.st2{fill:#808184}.st3{fill:#58595b}</style><g id="XMLID_98_"><g id="XMLID_99_"><path id="XMLID_103_" class="st0" d="M196.5.3c-1.5-.7-2.7 0-2.7 1.7v202.9l88.9 44.4c4.4 2.2 8 0 8-5V49c0-1-.5-1.9-1.4-2.3L196.5.3z"/><path id="XMLID_102_" class="st1" d="M96.9 156.5L192.2 1.6c.9-1.4 2.8-2 4.3-1.2l92.1 46c1.1.6 1.6 2 .9 3.1l-95.7 155.4-96.9-48.4z"/><path id="XMLID_101_" class="st2" d="M10.7 4.4c-5.9-3-7.9-.8-4.4 4.9l90.6 147.2 96.9 48.5L97.5 48.5c-.4-.7-1-1.2-1.7-1.6L10.7 4.4z"/><path id="XMLID_100_" class="st3" d="M96.9 244.4c0 4.9-3.6 7.2-8 5L5.4 207.6c-3-1.5-5.4-5.4-5.4-8.7V5C0 1.7 2.4.2 5.4 1.7l90.3 45.2c.7.4 1.2 1.1 1.2 1.9v195.6z"/></g></g></svg>