<svg xmlns="http://www.w3.org/2000/svg" xmlns:xlink="http://www.w3.org/1999/xlink" width="79" height="60" viewBox="0 0 79 60">
    <defs>
        <path id="a" d="M12.892.167L7.278 3.54c-.511.307-1.15.307-1.66 0L0 .167v7.049c.005.124.088.247.25.342l5.59 3.255c.334.193.875.195 1.208.002l5.594-3.239c.171-.099.254-.23.25-.36h.001V.166z"/>
        <path id="c" d="M12.892.167L7.278 3.54c-.511.307-1.15.307-1.66 0L0 .167v7.049c.005.124.088.247.25.342l5.59 3.255c.334.193.875.195 1.208.002l5.594-3.239c.171-.099.254-.23.25-.36h.001V.166z"/>
        <path id="e" d="M12.892.167L7.278 3.54c-.511.307-1.15.307-1.66 0L0 .167v7.049c.005.124.088.247.25.342l5.59 3.255c.334.193.875.195 1.208.002l5.594-3.239c.171-.099.254-.23.25-.36h.001V.166z"/>
    </defs>
    <g fill="none" fill-rule="evenodd">
        <path stroke="#FFF" stroke-linecap="round" d="M12.077 34.186L27.096 24.5"/>
        <path stroke="#FFF" d="M14.392 35.846L8.778 39.22c-.511.307-1.15.307-1.66 0L1.5 35.846v7.049c.005.124.088.247.25.342l5.59 3.255c.334.193.875.195 1.208.001l5.594-3.238c.171-.1.254-.23.25-.36h.001v-7.05z"/>
        <g transform="translate(1.5 35.679)">
            <mask id="b" fill="#fff">
                <use xlink:href="#a"/>
            </mask>
            <path stroke="#FFF" d="M6.446 3.759v7.284" mask="url(#b)"/>
        </g>
        <path stroke="#FFF" d="M14.142 36.028L8.55 39.266c-.334.194-.875.194-1.209-.001L1.75 36.01c-.334-.194-.333-.509 0-.702l5.594-3.238c.334-.194.875-.193 1.209.001l5.59 3.256c.333.193.333.507 0 .7"/>
        <path fill="#FFF" fill-rule="nonzero" d="M19.466 29.59l3.037-.338a.201.201 0 0 0 .14-.32l-1.88-2.514a.201.201 0 0 0-.348.046l-1.158 2.849a.201.201 0 0 0 .21.276h-.001z"/>
        <path stroke="#FFF" stroke-linecap="round" d="M67.49 34.186L51.463 23.591"/>
        <path stroke="#FFF" d="M65.175 35.846l5.614 3.374c.511.307 1.15.307 1.66 0l5.618-3.374v7.049c-.005.124-.088.247-.25.342l-5.59 3.255c-.334.193-.874.195-1.208.001l-5.593-3.238c-.172-.1-.255-.23-.25-.36h-.002v-7.05z"/>
        <g transform="matrix(-1 0 0 1 78.067 35.679)">
            <mask id="d" fill="#fff">
                <use xlink:href="#c"/>
            </mask>
            <path stroke="#FFF" d="M6.446 3.759v7.284" mask="url(#d)"/>
        </g>
        <path stroke="#FFF" d="M65.425 36.028l5.593 3.238c.335.194.875.194 1.21-.001l5.59-3.255c.333-.194.332-.509 0-.702l-5.595-3.238c-.334-.194-.875-.193-1.209.001l-5.59 3.256c-.333.193-.333.507 0 .7"/>
        <path fill="#FFF" fill-rule="nonzero" d="M59.868 29.59l-3.037-.338a.201.201 0 0 1-.14-.32l1.88-2.514a.201.201 0 0 1 .348.046l1.158 2.849a.201.201 0 0 1-.21.276h.001z"/>
        <g>
            <path stroke="#FFF" d="M45.603 47.817l-5.615 3.375c-.51.307-1.15.307-1.66 0l-5.618-3.375v7.05c.005.124.088.247.25.342l5.59 3.255c.334.193.875.195 1.209.001l5.593-3.238c.172-.1.255-.23.25-.36h.001v-7.05z"/>
            <g transform="translate(32.71 47.65)">
                <mask id="f" fill="#fff">
                    <use xlink:href="#e"/>
                </mask>
                <path stroke="#FFF" d="M6.446 3.759v7.284" mask="url(#f)"/>
            </g>
            <path stroke="#FFF" d="M45.353 48l-5.594 3.239c-.334.193-.875.192-1.209-.002l-5.589-3.254c-.334-.195-.334-.509 0-.702l5.593-3.239c.335-.193.876-.193 1.21.002l5.589 3.254c.334.195.334.509 0 .702"/>
            <path stroke="#FFF" stroke-linecap="round" d="M39.067 43.923V25.357"/>
        </g>
        <g>
            <path stroke="#FFF" d="M29.75.5h19.778c.469 0 .849.38.849.848v22.08c0 .468-.38.848-.849.848H29.75a.848.848 0 0 1-.848-.848V1.348c0-.468.38-.848.848-.848z"/>
            <path fill="#FFF" fill-rule="nonzero" d="M32.756 12.522h13.878c.225 0 .407.182.407.407v.246a.407.407 0 0 1-.407.407H32.756a.407.407 0 0 1-.408-.407v-.246c0-.225.183-.407.408-.407zm0 2.74h13.878c.225 0 .407.183.407.408v.246a.407.407 0 0 1-.407.408H32.756a.407.407 0 0 1-.408-.408v-.246c0-.225.183-.407.408-.407v-.001zm0 2.672h13.878c.225 0 .407.183.407.408v.246a.407.407 0 0 1-.407.407H32.756a.407.407 0 0 1-.408-.407v-.246c0-.225.183-.408.408-.408zm0 2.938h13.878c.225 0 .407.183.407.408v.246a.407.407 0 0 1-.407.408H32.756a.407.407 0 0 1-.408-.408v-.246c0-.225.183-.407.408-.407v-.001z"/>
            <path stroke="#FFF" d="M32.891 3.703a.013.013 0 0 0-.012.01v6.293c0 .008.005.013.012.013h13.606a.013.013 0 0 0 .014-.013V3.714a.013.013 0 0 0-.013-.012H32.891z"/>
        </g>
        <path fill="#FFF" fill-rule="nonzero" d="M39.26 33.703l1.56-2.629a.201.201 0 0 0-.173-.304l-3.138-.011a.201.201 0 0 0-.173.305l1.578 2.64a.201.201 0 0 0 .347-.001z"/>
    </g>
</svg>
