<svg xmlns="http://www.w3.org/2000/svg" width="99" height="31" viewBox="0 0 99 31">
    <g fill="none" fill-rule="evenodd">
        <path stroke="#FFF" stroke-width="1.2" d="M2.529 1H26.3c.568 0 1.029.46 1.029 1.029v27.186c0 .568-.46 1.029-1.029 1.029H2.53c-.568 0-1.029-.46-1.029-1.029V2.029C1.5 1.46 1.96 1 2.529 1z"/>
        <ellipse cx="8.611" cy="8.26" stroke="#FFF" rx="8.267" ry="8.26" transform="translate(6.15 6.788)"/>
        <path stroke="#FFF" stroke-width="1.2" d="M37.886 1h23.771c.568 0 1.03.46 1.03 1.029v27.186c0 .568-.462 1.029-1.03 1.029H37.886c-.568 0-1.029-.46-1.029-1.029V2.029c0-.568.46-1.029 1.029-1.029z"/>
        <g transform="translate(9.507 6.788)">
            <ellipse cx="40.18" cy="8.26" stroke="#FFF" rx="8.18" ry="8.26"/>
            <path fill="#FFF" fill-rule="nonzero" d="M39.206 11.701a.675.675 0 0 1-.409-.137l-3.116-2.36a.692.692 0 0 1-.136-.964.677.677 0 0 1 .954-.137l2.606 1.972 4.26-5.016a.676.676 0 0 1 .96-.075c.286.247.32.682.075.971l-4.675 5.507a.678.678 0 0 1-.519.24zM4.29 11.701a.675.675 0 0 1-.409-.137L.765 9.204A.692.692 0 0 1 .63 8.24a.677.677 0 0 1 .954-.137l2.606 1.972 4.26-5.016a.676.676 0 0 1 .96-.075c.286.247.32.682.075.971l-4.675 5.507a.678.678 0 0 1-.519.24z"/>
        </g>
        <path stroke="#FFF" stroke-width="1.2" d="M73.243 1h23.772c.568 0 1.028.46 1.028 1.029v27.186c0 .568-.46 1.029-1.028 1.029H73.243c-.568 0-1.029-.46-1.029-1.029V2.029c0-.568.461-1.029 1.029-1.029z"/>
        <g transform="translate(76.864 6.788)">
            <ellipse cx="8.18" cy="8.26" stroke="#FFF" rx="8.18" ry="8.26"/>
            <path fill="#FFF" fill-rule="nonzero" d="M7.206 11.701a.675.675 0 0 1-.409-.137l-3.116-2.36a.692.692 0 0 1-.136-.964.677.677 0 0 1 .954-.137l2.606 1.972 4.26-5.016a.676.676 0 0 1 .96-.075c.286.247.32.682.075.971l-4.675 5.507a.678.678 0 0 1-.519.24z"/>
        </g>
    </g>
</svg>
