<svg xmlns="http://www.w3.org/2000/svg" width="53" height="50" viewBox="0 0 53 50">
    <g fill="#FFF" fill-rule="nonzero">
        <path d="M15.062 18.415a2.737 2.737 0 1 0-5.433.455l-2.743 1.408a.608.608 0 0 0 .555 1.081l2.654-1.364a2.711 2.711 0 0 0 2.903 1.068l6.407 7.005a2.735 2.735 0 1 0 4.872-.12l4.315-9.056a.607.607 0 1 0-1.095-.522l-4.101 8.608a2.726 2.726 0 0 0-3.224.13l-6.058-6.623a2.73 2.73 0 0 0 .948-2.07zm6.81 9.31a1.523 1.523 0 1 1 0 3.047 1.523 1.523 0 0 1 0-3.046zm-9.546-7.787a1.523 1.523 0 1 1 0-3.047 1.523 1.523 0 0 1 0 3.047zM52.637 9.111l-6.682-3.204c0-.038.005-.076.005-.115a2.737 2.737 0 1 0-5.2 1.184l-.768.486a.607.607 0 1 0 .649 1.025l.88-.557a2.731 2.731 0 0 0 4.108-.834l6.483 3.107a.607.607 0 0 0 .525-1.094v.002zm-9.413-1.796a1.523 1.523 0 1 1 0-3.048 1.523 1.523 0 0 1 0 3.049v-.001z"/>
        <path d="M38.777 34.838c7.205-9.201 5.759-22.47-3.26-29.902C26.498-2.496 13.198-1.38 5.543 7.45c-7.335 8.463-6.962 21.134.859 29.15 7.82 8.016 20.48 8.7 29.12 1.575a.607.607 0 1 0-.774-.935c-8.153 6.722-20.097 6.076-27.477-1.487-7.38-7.564-7.733-19.52-.812-27.506A20.169 20.169 0 0 1 21.112 1.25a20.324 20.324 0 0 1 16.383 33.246.607.607 0 0 0 .039.815L48.61 46.387a1.394 1.394 0 0 1 0 1.968 1.425 1.425 0 0 1-1.968 0l-9.645-9.644a.607.607 0 0 0-.857.857l9.644 9.645a2.605 2.605 0 0 0 3.685-3.684L38.777 34.838z"/>
        <path d="M17.906 5.69a.605.605 0 0 0 .14-.017l.228-.052a.607.607 0 0 0-.265-1.184l-.243.056a.607.607 0 0 0 .14 1.197z"/>
        <path d="M15.778 5.088c-8.74 3.194-13.474 12.65-10.794 21.56 2.68 8.912 11.845 14.187 20.897 12.03 9.052-2.158 14.85-11 13.223-20.162C37.476 9.353 28.986 3.05 19.744 4.143a.607.607 0 0 0 .144 1.205 16.349 16.349 0 0 1 14.376 5.644l.051.063-2.743 1.736a2.727 2.727 0 1 0 .6 1.057l2.894-1.831a16.324 16.324 0 1 1-18.871-5.789.607.607 0 1 0-.417-1.14zM29.55 16.151a1.523 1.523 0 1 1 0-3.046 1.523 1.523 0 0 1 0 3.046z"/>
    </g>
</svg>
