<svg xmlns="http://www.w3.org/2000/svg" width="39" height="50" viewBox="0 0 39 50">
    <g fill="#FFF" fill-rule="nonzero">
        <path d="M19.599 21.615h-9.333a.705.705 0 0 0 0 1.41h9.333a.705.705 0 0 0 0-1.41zM28.932 17.11H10.266a.705.705 0 0 0 0 1.41h18.666a.705.705 0 0 0 0-1.41zM28.932 26.1H10.266a.705.705 0 0 0 0 1.41h18.666a.705.705 0 0 0 0-1.41z"/>
        <path d="M38.501 10.872L28.53.9a.702.702 0 0 0-.49-.216H4.611A4.018 4.018 0 0 0 .603 4.693v41.125a4.018 4.018 0 0 0 4.009 3.861h29.964a4.018 4.018 0 0 0 4.009-4.008V10.872H38.5zM28.613 2.95l7.58 7.575H30.67a2.063 2.063 0 0 1-2.058-2.059V2.95zm8.572 42.737a2.608 2.608 0 0 1-2.599 2.598H4.621a2.608 2.608 0 0 1-2.598-2.598V4.556a2.608 2.608 0 0 1 2.598-2.6h22.597V8.47a3.473 3.473 0 0 0 3.463 3.463h6.504v33.753z"/>
        <path d="M19.599 30.625h-9.333a.705.705 0 0 0 0 1.41h9.333a.705.705 0 0 0 0-1.41zM28.932 35.13H10.266a.705.705 0 0 0 0 1.409h18.666a.705.705 0 0 0 0-1.41z"/>
    </g>
</svg>
