<svg xmlns="http://www.w3.org/2000/svg" width="49" height="48" viewBox="0 0 49 48">
    <g fill="#FFF" fill-rule="nonzero">
        <path d="M16.717 39.237a4.521 4.521 0 0 0-.008-5.61 3.465 3.465 0 0 0-2.61-1.01 4.047 4.047 0 0 0-1.59.291 2.87 2.87 0 0 0-.953.664 3.48 3.48 0 0 0-.687 1.012 4.694 4.694 0 0 0-.337 1.891 3.811 3.811 0 0 0 .971 2.766 3.473 3.473 0 0 0 2.617 1.004 3.438 3.438 0 0 0 2.597-1.008zm-4.072-.911a3.454 3.454 0 0 1-.015-3.801 2.062 2.062 0 0 1 2.963-.008 2.77 2.77 0 0 1 .556 1.892 2.819 2.819 0 0 1-.571 1.925 1.99 1.99 0 0 1-2.932-.005l-.001-.003zM21.312 37.337a8.505 8.505 0 0 0 1.546-.106c.279-.064.541-.183.773-.35.265-.188.48-.437.627-.726a2.41 2.41 0 0 0 .242-1.143 2.291 2.291 0 0 0-.428-1.436 1.933 1.933 0 0 0-1.062-.723 8.665 8.665 0 0 0-1.77-.11h-2.391v7.377h1.49v-2.783h.973zm-.97-3.347h.719c.358-.01.716.007 1.072.05.231.039.442.154.6.328.16.183.245.42.236.664a.992.992 0 0 1-.17.574.98.98 0 0 1-.465.363c-.384.1-.782.138-1.178.116h-.816l.001-2.095zM31.196 33.99v-1.248h-5.47v7.378h5.61v-1.243h-4.12V36.87h3.702v-1.243h-3.703V33.99zM36.973 40.12h1.495v-7.378h-1.384v4.927l-3.02-4.927h-1.45v7.378H34v-4.81z"/>
        <path d="M47.67 28.941a3.252 3.252 0 0 1-3.249-3.248.805.805 0 0 0-.805-.805h-2.77l-6.928-11.523a.805.805 0 0 0-1.381.83l6.431 10.695H10.032l11.93-19.837a3.135 3.135 0 0 0 5.077 0l2.224 3.698a.805.805 0 1 0 1.381-.83l-3.01-5.003a3.144 3.144 0 0 0-6.268 0L8.152 24.888h-2.77a.805.805 0 0 0 0 1.611h37.495a4.872 4.872 0 0 0 3.987 3.987v11.891a4.872 4.872 0 0 0-3.987 3.987H6.123a4.872 4.872 0 0 0-3.988-3.987V29.75a.805.805 0 1 0-1.61 0v13.37c0 .444.36.805.805.805a3.252 3.252 0 0 1 3.248 3.248c0 .445.361.805.806.805h38.232c.444 0 .805-.36.805-.805a3.252 3.252 0 0 1 3.249-3.248c.444 0 .805-.361.805-.806V29.746a.805.805 0 0 0-.805-.805zM24.5 1.636a1.55 1.55 0 1 1 0 3.102 1.55 1.55 0 0 1 0-3.102z"/>
        <path d="M31.08 11.772a.805.805 0 1 0 1.38-.83l-.141-.235a.805.805 0 1 0-1.38.83l.14.235z"/>
    </g>
</svg>
