<svg xmlns="http://www.w3.org/2000/svg" width="106" height="102" viewBox="0 0 106 102">
    <defs>
        <linearGradient id="a" x1="21.86%" x2="79.74%" y1="96.652%" y2="3.131%">
            <stop offset="0%" stop-color="#0046C9"/>
            <stop offset="100%" stop-color="#B2C6FF"/>
        </linearGradient>
    </defs>
    <path fill="url(#a)" fill-rule="nonzero" d="M52.645.03C23.618.03 0 23.648 0 52.675c0 21.657 13.576 41.379 33.772 49.072a3.24 3.24 0 0 0 2.606-.112 3.301 3.301 0 0 0 1.704-1.981l9.871-31.521a3.285 3.285 0 0 0-1.546-3.863c-4.271-2.356-6.923-6.798-6.923-11.595 0-7.259 5.903-13.162 13.161-13.162 7.259 0 13.161 5.903 13.161 13.162 0 4.797-2.652 9.239-6.922 11.601a3.277 3.277 0 0 0-1.547 3.863l9.871 31.522c.27.868.889 1.579 1.705 1.98a3.269 3.269 0 0 0 2.606.112c20.202-7.7 33.771-27.421 33.771-49.078C105.29 23.648 81.672.03 52.645.03z" transform="translate(.22)"/>
</svg>
