<svg xmlns="http://www.w3.org/2000/svg" width="57" height="57" viewBox="0 0 57 57">
    <g fill="none" fill-rule="nonzero">
        <path fill="#B35C4B" d="M52 35.36L46.361 49l-11.678-.31-13.346-.346L18 34.359c1.502-2.072 3.737-3.28 6.173-3.453C26.075 26.728 30.179 24 34.683 24s8.609 2.728 10.51 6.906c2.836.207 5.406 1.865 6.807 4.454z"/>
        <path fill="#8B432D" d="M53 35.36L47.464 49 36 48.69V24c4.422 0 8.45 2.728 10.318 6.906 2.784.207 5.306 1.865 6.682 4.454z"/>
        <path fill="#FEDBAB" d="M56.334 38.224l-9.748 14.604C44.703 55.435 41.678 57 36.838 57H6.36L3 55.261V37.563l1.68-1.425h2.723c1.076 0 2.342-.417 3.183-1.148 2.185-2.016 4.94-2.99 7.697-2.99 3.866 0 6.151 1.46 8.639 3.72.302.244.773.418 1.109.418h10.487c1.85 0 3.362 1.564 3.362 3.477 0 1.912-1.513 3.477-3.362 3.477H25.073c-.941 0-1.68.765-1.68 1.738 0 .974.739 1.739 1.68 1.739H39.627c.64 0 1.85-.417 2.488-1.113l9.076-11.683a3.27 3.27 0 0 1 4.437-.452c1.512 1.148 1.815 3.373.706 4.903z"/>
        <path fill="#FD3C65" d="M8 57H2c-1.105 0-2-.768-2-1.714V34.714C0 33.768.895 33 2 33h2c2.21 0 4 1.535 4 3.429V57z"/>
        <g fill="#FEC478">
            <path d="M38.48 43.35h-3.368v-6.824h3.367c1.852 0 3.368 1.536 3.368 3.413 0 1.876-1.516 3.412-3.368 3.412z"/>
            <path d="M56.326 38.574l-9.765 14.331C44.675 55.465 41.645 57 36.796 57h-1.684V46.763h4.479c.64 0 1.852-.41 2.492-1.092l9.091-11.465a3.325 3.325 0 0 1 4.445-.444c1.515 1.126 1.818 3.31.707 4.812z"/>
        </g>
        <path fill="#7FBF00" d="M45.333 20h-6.666A1.657 1.657 0 0 1 37 18.352v-3.297c0-6.361 5.234-11.757 11.667-11.757a6.46 6.46 0 0 0 4.511-1.848l.977-.966A1.677 1.677 0 0 1 55.97.127 1.647 1.647 0 0 1 57 1.649v6.813C57 14.823 51.766 20 45.333 20z"/>
        <path fill="#6ECD24" d="M31.333 20h-6.666C18.234 20 13 14.823 13 8.462V1.648c0-.666.405-1.268 1.029-1.522a1.68 1.68 0 0 1 1.816.357l.977.966a6.46 6.46 0 0 0 4.511 1.848C27.766 3.297 33 8.693 33 15.055v3.297c0 .91-.745 1.648-1.667 1.648z"/>
        <path fill="#66BD21" d="M47.44 14.025l-7.99 7.197c-1.787 1.645-2.826 4.01-2.826 6.512v5.552c0 .96-.714 1.714-1.624 1.714-.91 0-1.624-.754-1.624-1.714v-5.552c0-2.502-1.04-4.867-2.826-6.512l-7.99-7.197c-.682-.617-.747-1.714-.162-2.434a1.582 1.582 0 0 1 2.306-.171l7.957 7.197c.942.891 1.722 1.954 2.339 3.085.617-1.132 1.397-2.194 2.338-3.085l7.958-7.197a1.582 1.582 0 0 1 2.306.17c.585.72.52 1.818-.162 2.435z"/>
        <path fill="#5DAD1D" d="M47.44 14.024l-7.99 7.198c-1.787 1.645-2.826 4.01-2.826 6.512v5.552c0 .96-.714 1.714-1.624 1.714V21.702c.617-1.131 1.397-2.194 2.338-3.085l7.958-7.197a1.582 1.582 0 0 1 2.306.17c.585.72.52 1.817-.162 2.434z"/>
        <path fill="#66BD21" d="M39.827 34.91a2.04 2.04 0 0 1-.592.09c-.695 0-1.391-.387-1.634-1.012-.14-.387-.661-1.012-1.6-1.012-.94 0-1.462.625-1.601 1.012-.313.774-1.287 1.19-2.227.923-.904-.268-1.391-1.131-1.078-1.905C31.721 31.518 33.461 30 36 30c2.54 0 4.279 1.518 4.905 3.006.313.774-.174 1.637-1.078 1.905z"/>
        <path fill="#5DAD1D" d="M39.827 34.91a2.04 2.04 0 0 1-.592.09c-.695 0-1.391-.387-1.635-1.012-.139-.387-.66-1.012-1.6-1.012V30c2.54 0 4.279 1.518 4.905 3.006.313.774-.174 1.637-1.078 1.905z"/>
    </g>
</svg>
