<svg xmlns="http://www.w3.org/2000/svg" xmlns:xlink="http://www.w3.org/1999/xlink" width="620" height="511" viewBox="0 0 620 511">
    <defs>
        <linearGradient id="a" x1="-22.346%" x2="91.846%" y1="45.101%" y2="52.835%">
            <stop offset="0%" stop-color="#B5C5FF"/>
            <stop offset="100%" stop-color="#798CEE"/>
        </linearGradient>
        <linearGradient id="b" x1="-22.346%" x2="91.846%" y1="45.517%" y2="52.593%">
            <stop offset="0%" stop-color="#BDCBFF"/>
            <stop offset="100%" stop-color="#92A2F5"/>
        </linearGradient>
        <linearGradient id="c" x1="1.241%" x2="68.26%" y1="55.084%" y2="43.027%">
            <stop offset="0%" stop-color="#D5DDFA"/>
            <stop offset="100%" stop-color="#ABB7F4"/>
        </linearGradient>
        <linearGradient id="d" x1="1.241%" x2="68.26%" y1="55.084%" y2="43.027%">
            <stop offset="0%" stop-color="#EAEFFF"/>
            <stop offset="100%" stop-color="#ABB7F4"/>
        </linearGradient>
        <linearGradient id="e" x1="-22.346%" x2="91.063%" y1="45.517%" y2="52.545%">
            <stop offset="0%" stop-color="#F3F5FF"/>
            <stop offset="100%" stop-color="#C6CFFF"/>
        </linearGradient>
        <path id="f" d="M76.444 37.857C76.444 16.95 59.332 0 38.222 0 17.112 0 0 16.95 0 37.857h76.444z"/>
        <linearGradient id="h" x1="57.885%" x2="92.022%" y1="29.8%" y2="-2.661%">
            <stop offset="0%" stop-color="#B8C1FF"/>
            <stop offset="100%" stop-color="#6B8BF5"/>
        </linearGradient>
        <linearGradient id="i" x1="79.74%" x2="21.86%" y1="12.34%" y2="87.485%">
            <stop offset="0%" stop-color="#B8C1FF"/>
            <stop offset="26.453%" stop-color="#6E8DF5"/>
            <stop offset="100%" stop-color="#6B8BF5"/>
        </linearGradient>
        <linearGradient id="j" x1="50%" x2="141.014%" y1="66.061%" y2="-20.936%">
            <stop offset="0%" stop-color="#B8C1FF"/>
            <stop offset="100%" stop-color="#6B8BF5"/>
        </linearGradient>
        <linearGradient id="k" x1="70.324%" x2="39.652%" y1="30.408%" y2="75.298%">
            <stop offset="0%" stop-color="#B8C1FF"/>
            <stop offset="100%" stop-color="#6B8BF5"/>
        </linearGradient>
        <linearGradient id="l" x1="28.455%" x2="72.77%" y1="99.768%" y2="0%">
            <stop offset="0%" stop-color="#B8C1FF"/>
            <stop offset="100%" stop-color="#6B8BF5"/>
        </linearGradient>
        <linearGradient id="m" x1="21.86%" x2="79.74%" y1="87.466%" y2="12.359%">
            <stop offset="0%" stop-color="#B8C1FF"/>
            <stop offset="100%" stop-color="#6B8BF5"/>
        </linearGradient>
        <linearGradient id="n" x1="21.86%" x2="79.74%" y1="79.097%" y2="20.767%">
            <stop offset="0%" stop-color="#B8C1FF"/>
            <stop offset="100%" stop-color="#6B8BF5"/>
        </linearGradient>
        <path id="o" d="M0 .154h50.99v47.5H0z"/>
        <linearGradient id="r" x1="21.86%" x2="79.74%" y1="93.187%" y2="6.611%">
            <stop offset="0%" stop-color="#B8C1FF"/>
            <stop offset="100%" stop-color="#6B8BF5"/>
        </linearGradient>
        <path id="q" d="M50.99 4.791l-3.632 2.86L27.894.727c-1.32-.76-3.46-.764-4.781-.007L3.523 7.65 0 4.791v28.215h.003c.016.485.343.967.986 1.338l22.106 12.737c1.32.76 3.46.763 4.781.007l22.122-12.672c.677-.388 1.005-.9.988-1.41h.003V4.791z"/>
        <linearGradient id="t" x1="79.74%" x2="21.86%" y1="33.497%" y2="66.426%">
            <stop offset="0%" stop-color="#F7F8FF"/>
            <stop offset="100%" stop-color="#6B8BF5"/>
        </linearGradient>
        <path id="u" d="M8.909.12l-8 4.635c-.477.277-.864.948-.864 1.5v9.237c0 .552.387.775.865.498l7.999-4.636c.477-.277.864-.948.864-1.5V.617C9.773.227 9.58 0 9.296 0a.785.785 0 0 0-.387.12z"/>
        <path id="v" d="M8.545.245L.432 4.9c-.485.278-.485.73-.001 1.01l8.107 4.68c.484.278 1.27.28 1.754.002l8.113-4.657c.485-.278.485-.73 0-1.009L10.299.247c-.242-.14-.561-.21-.88-.21-.316 0-.632.07-.873.208z"/>
        <linearGradient id="w" x1="75.948%" x2="25.447%" y1="0%" y2="99.768%">
            <stop offset="0%" stop-color="#ABBBFF"/>
            <stop offset="100%" stop-color="#6B8BF5"/>
        </linearGradient>
        <linearGradient id="x" x1="45.409%" x2="54.852%" y1="99.768%" y2="0%">
            <stop offset="0%" stop-color="#B8C1FF"/>
            <stop offset="100%" stop-color="#6B8BF5"/>
        </linearGradient>
        <linearGradient id="y" x1="45.334%" x2="54.931%" y1="99.768%" y2="0%">
            <stop offset="0%" stop-color="#B8C1FF"/>
            <stop offset="100%" stop-color="#6B8BF5"/>
        </linearGradient>
        <linearGradient id="z" x1="58.505%" x2="40.3%" y1="-13.635%" y2="66.302%">
            <stop offset="0%" stop-color="#F7F8FF"/>
            <stop offset="100%" stop-color="#6B8BF5"/>
        </linearGradient>
    </defs>
    <g fill="none" fill-rule="evenodd">
        <g transform="translate(0 200)">
            <rect width="620" height="90" fill="#F7F9FF" rx="4"/>
            <g fill-rule="nonzero" transform="translate(153 21)">
                <ellipse cx="22.729" cy="36.781" fill="url(#a)" rx="22.729" ry="7.721"/>
                <path fill="url(#b)" d="M22.729 36.566c12.553 0 22.73-3.307 22.73-7.386 0-1.852-2.099-3.545-5.564-4.84-4.168-1.56-10.313-2.545-17.166-2.545C10.176 21.795 0 25.1 0 29.18s10.176 7.386 22.729 7.386z"/>
                <ellipse cx="22.729" cy="21.915" fill="url(#c)" rx="22.729" ry="7.386"/>
                <ellipse cx="22.729" cy="14.65" fill="url(#d)" rx="22.729" ry="7.386"/>
                <ellipse cx="22.729" cy="7.386" fill="url(#e)" rx="22.729" ry="7.386"/>
            </g>
            <g transform="translate(183.4 44.2)">
                <path fill="#FFCA55" d="M1.2 10.977h15.2V23.58H1.2z"/>
                <rect width="2.8" height="6.505" x="7.398" y="14.099" fill="#EEB200" rx=".4"/>
                <path fill="#EEB200" fill-rule="nonzero" d="M8.8 13.322c-1.323 0-2.4 1.11-2.4 2.472 0 .676.273 1.33.749 1.795v2.231c0 .938.74 1.7 1.651 1.7.91 0 1.651-.762 1.651-1.7V17.59a2.519 2.519 0 0 0 .749-1.795c0-1.363-1.077-2.472-2.4-2.472zm.85 3.4c-.23.222-.361.533-.361.853v2.245c0 .278-.22.504-.489.504a.497.497 0 0 1-.489-.504v-2.245c0-.32-.131-.63-.36-.853a1.282 1.282 0 0 1-.389-.928c0-.703.556-1.275 1.238-1.275.683 0 1.238.572 1.238 1.275 0 .355-.138.685-.389.928z"/>
                <path fill="#8D94BF" fill-rule="nonzero" stroke="#8D94BF" stroke-width=".5" d="M15.853 10.166H4.66V5.428c0-2.336 1.857-4.236 4.14-4.236 2.283 0 4.14 1.9 4.14 4.236v5.345c0 .329.261.596.583.596a.59.59 0 0 0 .582-.596V5.428C14.105 2.435 11.725 0 8.8 0S3.495 2.435 3.495 5.428v4.738H1.747c-.963 0-1.747.802-1.747 1.788v11.058c0 .986.784 1.788 1.747 1.788h14.106c.963 0 1.747-.802 1.747-1.788V11.954c0-.986-.784-1.788-1.747-1.788zm0 13.442H1.747a.59.59 0 0 1-.582-.596V11.954a.59.59 0 0 1 .582-.596h14.106a.59.59 0 0 1 .582.596v11.058a.59.59 0 0 1-.582.596z"/>
            </g>
            <text fill="#252945" font-family="Avenir-Medium, Avenir" font-size="20" font-weight="400" transform="translate(153 21)">
                <tspan x="58.15" y="31">Band Secure Data Exchange</tspan>
            </text>
        </g>
        <g transform="translate(73.302 10)">
            <mask id="g" fill="#fff">
                <use xlink:href="#f"/>
            </mask>
            <use fill="#FFF" xlink:href="#f"/>
            <path fill="#FFF" d="M-4.778 39.729h87.39V-3.786h-87.39z" mask="url(#g)"/>
            <path fill="url(#h)" d="M7.29 13.157l18.8 13.972-3.163 14.362-29.485-3.16z" mask="url(#g)"/>
            <path fill="url(#i)" d="M64.492 13.157l18.8 13.972L80.13 41.49l-29.486-3.16z" mask="url(#g)" transform="matrix(-1 0 0 1 133.937 0)"/>
            <path fill="url(#j)" d="M37.744-7.007v29.431l-7.127 6.645L6.677 11.73z" mask="url(#g)"/>
            <path fill="url(#k)" d="M50-10.044l14.716 25.488-2.85 9.32-29.402-3.047z" mask="url(#g)" transform="scale(-1 1) rotate(30 0 -173.981)"/>
            <ellipse cx="38.7" cy="38.33" fill="#FFF" mask="url(#g)" rx="17.678" ry="17.509"/>
        </g>
        <path fill="#2A304E" d="M134.645 36.288c.394.805-5.798 4.812-18.577 12.02a2.701 2.701 0 0 1-3.753-1.165 2.687 2.687 0 0 1 1.388-3.666c13.567-5.598 20.548-7.994 20.942-7.19z"/>
        <g transform="translate(61.302 67)">
            <rect width="101" height="25" fill="#F8F8FF" rx="2"/>
            <text fill="#252945" font-family="Avenir-Medium, Avenir" font-size="14" font-weight="400">
                <tspan x="11.191" y="17">Credit Score</tspan>
            </text>
        </g>
        <g>
            <path stroke="#ABBBFF" stroke-dasharray="6,6" stroke-linecap="round" stroke-width="2" d="M96.606 110.082v71.99"/>
            <path stroke="#ABBBFF" stroke-linecap="round" stroke-width="2" d="M122.606 110.082v71.99"/>
            <path fill="#FFCA55" d="M97.274 179.697l7.919-13.338a.9.9 0 0 0-.774-1.359H88.58a.9.9 0 0 0-.774 1.36l7.92 13.337a.9.9 0 0 0 1.547 0zM123.274 108.303l7.919 13.338a.9.9 0 0 1-.774 1.359H114.58a.9.9 0 0 1-.774-1.36l7.92-13.337a.9.9 0 0 1 1.547 0z"/>
            <g fill-rule="nonzero">
                <path fill="url(#l)" d="M13.84 25C7.798 25 2.901 19.404 2.901 12.5S7.799 0 13.839 0c6.04 0 10.938 5.596 10.938 12.5S19.88 25 13.839 25" transform="translate(133.302 136)"/>
                <path fill="#6B8BF5" d="M136.204 148.5c0-6.385 4.19-11.648 9.598-12.403a9.631 9.631 0 0 0-1.34-.097c-6.04 0-10.937 5.596-10.937 12.5s4.897 12.5 10.938 12.5a9.7 9.7 0 0 0 1.34-.096c-5.41-.756-9.599-6.02-9.599-12.404"/>
                <path fill="#E2E7FF" d="M136.204 148.947h-2.678c.008.3.026.598.053.893h2.68a13.631 13.631 0 0 1-.055-.893M136.305 146.715h-2.676c-.038.294-.064.592-.083.893h2.679c.018-.3.044-.599.08-.893M136.45 151.179h-2.68c.058.302.125.6.201.893h2.679c-.077-.293-.143-.59-.2-.893M137.074 153.411h-2.68c.113.305.239.602.373.893h2.68c-.135-.29-.26-.588-.373-.893M136.772 144.483h-2.676c-.087.293-.168.59-.236.892h2.682c.067-.3.143-.6.23-.892M137.661 142.25h-2.679c-.147.292-.286.589-.412.894h2.68c.127-.305.264-.603.411-.893M139.483 139.572h-2.682a11.94 11.94 0 0 0-.724.893h2.681c.229-.311.47-.609.725-.893M142.212 137.34h-2.684c-.456.263-.894.561-1.31.893h2.682c.417-.331.855-.63 1.312-.893M138.445 156.09h-2.68c.208.31.426.607.658.893h2.681a12.289 12.289 0 0 1-.66-.893M137.692 158.322c.359.323.734.623 1.127.893h2.685a11.042 11.042 0 0 1-1.134-.893h-2.678z"/>
                <path fill="#FFF" d="M147.146 154.642c-.268 0-.441-.174-.441-.441v-.628c-.916-.126-1.482-.277-2.253-.895v.588c0 .267-.174.44-.441.44-.268 0-.44-.173-.44-.44v-2.754c0-.268.173-.441.44-.441.268 0 .44.173.44.44v1.002c.472.512.824.699 1.615 1 .192.074.407.13.639.17v-4.27c-.855-.237-1.502-.463-1.927-.673-.47-.232-.838-.525-1.095-.872a2.025 2.025 0 0 1-.4-1.235c0-.873.294-1.582.871-2.107.55-.5 1.408-.762 2.55-.781v-.575c0-.268.174-.441.442-.441.267 0 .44.173.44.44v.639c.81.15 1.504.43 2.066.833.146.104.078.196.18.276v-.588c0-.267.172-.44.44-.44s.44.173.44.44v2.754c0 .268-.173.441-.44.441-.268 0-.44-.173-.44-.44v-.93c-.498-.55-.932-.982-1.67-1.284a2.836 2.836 0 0 0-.576-.177v3.99l.68.178a7.923 7.923 0 0 1 1.508.552c.469.233.837.525 1.094.872.265.357.4.787.4 1.278 0 .935-.335 1.69-.993 2.243-.63.53-1.535.806-2.69.82v.575c0 .267-.172.44-.44.44zm-1.738-1.924zm2.178-4.064v4.091c.903-.013 1.603-.213 2.08-.595.484-.39.72-.88.72-1.5 0-.326-.099-.6-.303-.842a2.214 2.214 0 0 0-.79-.592 7.087 7.087 0 0 0-1.005-.366l-.702-.196zm2.562 3.663zm-3.444-8.69c-.857.017-1.498.203-1.907.553-.425.365-.632.797-.632 1.324 0 .325.1.6.303.841.214.254.48.454.79.593.332.15.648.268.942.351l.505.147v-3.81z"/>
            </g>
        </g>
        <g>
            <g transform="translate(261 67)">
                <rect width="101" height="25" fill="#F8F8FF" rx="2"/>
                <text fill="#252945" font-family="Avenir-Medium, Avenir" font-size="14" font-weight="400">
                    <tspan x="26.633" y="17">Identity</tspan>
                </text>
            </g>
            <path stroke="#ABBBFF" stroke-dasharray="6,6" stroke-linecap="round" stroke-width="2" d="M293.606 110.082v71.99"/>
            <path stroke="#ABBBFF" stroke-linecap="round" stroke-width="2" d="M319.606 110.082v71.99"/>
            <path fill="#FFCA55" d="M294.274 179.697l7.919-13.338a.9.9 0 0 0-.774-1.359H285.58a.9.9 0 0 0-.774 1.36l7.92 13.337a.9.9 0 0 0 1.547 0zM320.274 108.303l7.919 13.338a.9.9 0 0 1-.774 1.359H311.58a.9.9 0 0 1-.774-1.36l7.92-13.337a.9.9 0 0 1 1.547 0z"/>
            <g fill-rule="nonzero">
                <path fill="url(#l)" d="M13.84 25C7.798 25 2.901 19.404 2.901 12.5S7.799 0 13.839 0c6.04 0 10.938 5.596 10.938 12.5S19.88 25 13.839 25" transform="translate(330.302 136)"/>
                <path fill="#6B8BF5" d="M333.204 148.5c0-6.385 4.19-11.648 9.598-12.403a9.631 9.631 0 0 0-1.34-.097c-6.04 0-10.937 5.596-10.937 12.5s4.897 12.5 10.938 12.5a9.7 9.7 0 0 0 1.34-.096c-5.41-.756-9.599-6.02-9.599-12.404"/>
                <path fill="#E2E7FF" d="M333.204 148.947h-2.678c.008.3.026.598.053.893h2.68a13.631 13.631 0 0 1-.055-.893M333.305 146.715h-2.676c-.038.294-.064.592-.083.893h2.679c.018-.3.044-.599.08-.893M333.45 151.179h-2.68c.058.302.125.6.201.893h2.679c-.077-.293-.143-.59-.2-.893M334.074 153.411h-2.68c.113.305.239.602.373.893h2.68c-.135-.29-.26-.588-.373-.893M333.772 144.483h-2.676c-.087.293-.168.59-.236.892h2.682c.067-.3.143-.6.23-.892M334.661 142.25h-2.679c-.147.292-.286.589-.412.894h2.68c.127-.305.264-.603.411-.893M336.483 139.572h-2.682a11.94 11.94 0 0 0-.724.893h2.681c.229-.311.47-.609.725-.893M339.212 137.34h-2.684c-.456.263-.894.561-1.31.893h2.682c.417-.331.855-.63 1.312-.893M335.445 156.09h-2.68c.208.31.426.607.658.893h2.681a12.289 12.289 0 0 1-.66-.893M334.692 158.322c.359.323.734.623 1.127.893h2.685a11.042 11.042 0 0 1-1.134-.893h-2.678z"/>
                <path fill="#FFF" d="M344.146 154.642c-.268 0-.441-.174-.441-.441v-.628c-.916-.126-1.482-.277-2.253-.895v.588c0 .267-.174.44-.441.44-.268 0-.44-.173-.44-.44v-2.754c0-.268.173-.441.44-.441.268 0 .44.173.44.44v1.002c.472.512.824.699 1.615 1 .192.074.407.13.639.17v-4.27c-.855-.237-1.502-.463-1.927-.673-.47-.232-.838-.525-1.095-.872a2.025 2.025 0 0 1-.4-1.235c0-.873.294-1.582.871-2.107.55-.5 1.408-.762 2.55-.781v-.575c0-.268.174-.441.442-.441.267 0 .44.173.44.44v.639c.81.15 1.504.43 2.066.833.146.104.078.196.18.276v-.588c0-.267.172-.44.44-.44s.44.173.44.44v2.754c0 .268-.173.441-.44.441-.268 0-.44-.173-.44-.44v-.93c-.498-.55-.932-.982-1.67-1.284a2.836 2.836 0 0 0-.576-.177v3.99l.68.178a7.923 7.923 0 0 1 1.508.552c.469.233.837.525 1.094.872.265.357.4.787.4 1.278 0 .935-.335 1.69-.993 2.243-.63.53-1.535.806-2.69.82v.575c0 .267-.172.44-.44.44zm-1.738-1.924zm2.178-4.064v4.091c.903-.013 1.603-.213 2.08-.595.484-.39.72-.88.72-1.5 0-.326-.099-.6-.303-.842a2.214 2.214 0 0 0-.79-.592 7.087 7.087 0 0 0-1.005-.366l-.702-.196zm2.562 3.663zm-3.444-8.69c-.857.017-1.498.203-1.907.553-.425.365-.632.797-.632 1.324 0 .325.1.6.303.841.214.254.48.454.79.593.332.15.648.268.942.351l.505.147v-3.81z"/>
            </g>
            <g>
                <g fill-rule="nonzero">
                    <path fill="url(#m)" d="M62.698 11.346A5.311 5.311 0 0 1 68 16.654v37.038C68 56.618 65.621 59 62.7 59H5.301A5.311 5.311 0 0 1 0 53.693v-37.04a5.311 5.311 0 0 1 5.302-5.307h20.765V2.624A2.625 2.625 0 0 1 28.687 0h10.625a2.625 2.625 0 0 1 2.621 2.624v8.722h20.765z" transform="translate(277)"/>
                    <g fill="#EAEEFF">
                        <path d="M312.133 31.27h11.334c.626 0 1.133-.508 1.133-1.135 0-.628-.507-1.135-1.133-1.135h-11.334c-.626 0-1.133.507-1.133 1.135 0 .627.507 1.134 1.133 1.134zM337.067 35.808h-24.934c-.626 0-1.133.507-1.133 1.134 0 .628.507 1.135 1.133 1.135h24.934c.626 0 1.133-.507 1.133-1.135 0-.627-.507-1.134-1.133-1.134zM337.067 42.615h-24.934c-.626 0-1.133.508-1.133 1.135s.507 1.135 1.133 1.135h24.934c.626 0 1.133-.508 1.133-1.135s-.507-1.135-1.133-1.135z"/>
                    </g>
                    <path fill="#FFF" d="M311 12.48a4.54 4.54 0 0 0 4.533-4.538A4.54 4.54 0 0 0 311 3.404a4.54 4.54 0 0 0-4.533 4.538A4.54 4.54 0 0 0 311 12.481zm0-6.807a2.27 2.27 0 0 1 0 4.539 2.27 2.27 0 0 1 0-4.539z"/>
                </g>
                <path fill="#FFF" d="M290.584 36.247C289.61 35.06 289 33.373 289 31.5c0-3.59.735-6.5 5-6.5s5 2.91 5 6.5c0 1.777-.548 3.387-1.437 4.56 5.593 1.125 6.335 2.942 6.426 9.046.006.397.01.466.011.43v.483S302.6 49 294.5 49c-8.1 0-9.5-2.98-9.5-2.98v-.654c.002.058.006.032.014-.462.1-5.622.81-7.526 5.57-8.657z"/>
                <path fill="#000" fill-rule="nonzero" d="M281.575 48.676c-.001-.23-.003-.065 0 0zM303.89 48.722c.004-.063 0-.44 0 0z"/>
            </g>
        </g>
        <g>
            <g transform="translate(459 67)">
                <rect width="101" height="25" fill="#F8F8FF" rx="2"/>
                <text fill="#252945" font-family="Avenir-Medium, Avenir" font-size="14" font-weight="400">
                    <tspan x="26.5" y="17">Logistic</tspan>
                </text>
            </g>
            <path stroke="#ABBBFF" stroke-dasharray="6,6" stroke-linecap="round" stroke-width="2" d="M492.606 110.082v71.99"/>
            <path stroke="#ABBBFF" stroke-linecap="round" stroke-width="2" d="M518.606 110.082v71.99"/>
            <path fill="#FFCA55" d="M493.274 179.697l7.919-13.338a.9.9 0 0 0-.774-1.359H484.58a.9.9 0 0 0-.774 1.36l7.92 13.337a.9.9 0 0 0 1.547 0zM519.274 108.303l7.919 13.338a.9.9 0 0 1-.774 1.359H510.58a.9.9 0 0 1-.774-1.36l7.92-13.337a.9.9 0 0 1 1.547 0z"/>
            <g fill-rule="nonzero">
                <path fill="url(#l)" d="M13.84 25C7.798 25 2.901 19.404 2.901 12.5S7.799 0 13.839 0c6.04 0 10.938 5.596 10.938 12.5S19.88 25 13.839 25" transform="translate(529.302 136)"/>
                <path fill="#6B8BF5" d="M532.204 148.5c0-6.385 4.19-11.648 9.598-12.403a9.631 9.631 0 0 0-1.34-.097c-6.04 0-10.937 5.596-10.937 12.5s4.897 12.5 10.938 12.5a9.7 9.7 0 0 0 1.34-.096c-5.41-.756-9.599-6.02-9.599-12.404"/>
                <path fill="#E2E7FF" d="M532.204 148.947h-2.678c.008.3.026.598.053.893h2.68a13.631 13.631 0 0 1-.055-.893M532.305 146.715h-2.676c-.038.294-.064.592-.083.893h2.679c.018-.3.044-.599.08-.893M532.45 151.179h-2.68c.058.302.125.6.201.893h2.679c-.077-.293-.143-.59-.2-.893M533.074 153.411h-2.68c.113.305.239.602.373.893h2.68c-.135-.29-.26-.588-.373-.893M532.772 144.483h-2.676c-.087.293-.168.59-.236.892h2.682c.067-.3.143-.6.23-.892M533.661 142.25h-2.679c-.147.292-.286.589-.412.894h2.68c.127-.305.264-.603.411-.893M535.483 139.572h-2.682a11.94 11.94 0 0 0-.724.893h2.681c.229-.311.47-.609.725-.893M538.212 137.34h-2.684c-.456.263-.894.561-1.31.893h2.682c.417-.331.855-.63 1.312-.893M534.445 156.09h-2.68c.208.31.426.607.658.893h2.681a12.289 12.289 0 0 1-.66-.893M533.692 158.322c.359.323.734.623 1.127.893h2.685a11.042 11.042 0 0 1-1.134-.893h-2.678z"/>
                <path fill="#FFF" d="M543.146 154.642c-.268 0-.441-.174-.441-.441v-.628c-.916-.126-1.482-.277-2.253-.895v.588c0 .267-.174.44-.441.44-.268 0-.44-.173-.44-.44v-2.754c0-.268.173-.441.44-.441.268 0 .44.173.44.44v1.002c.472.512.824.699 1.615 1 .192.074.407.13.639.17v-4.27c-.855-.237-1.502-.463-1.927-.673-.47-.232-.838-.525-1.095-.872a2.025 2.025 0 0 1-.4-1.235c0-.873.294-1.582.871-2.107.55-.5 1.408-.762 2.55-.781v-.575c0-.268.174-.441.442-.441.267 0 .44.173.44.44v.639c.81.15 1.504.43 2.066.833.146.104.078.196.18.276v-.588c0-.267.172-.44.44-.44s.44.173.44.44v2.754c0 .268-.173.441-.44.441-.268 0-.44-.173-.44-.44v-.93c-.498-.55-.932-.982-1.67-1.284a2.836 2.836 0 0 0-.576-.177v3.99l.68.178a7.923 7.923 0 0 1 1.508.552c.469.233.837.525 1.094.872.265.357.4.787.4 1.278 0 .935-.335 1.69-.993 2.243-.63.53-1.535.806-2.69.82v.575c0 .267-.172.44-.44.44zm-1.738-1.924zm2.178-4.064v4.091c.903-.013 1.603-.213 2.08-.595.484-.39.72-.88.72-1.5 0-.326-.099-.6-.303-.842a2.214 2.214 0 0 0-.79-.592 7.087 7.087 0 0 0-1.005-.366l-.702-.196zm2.562 3.663zm-3.444-8.69c-.857.017-1.498.203-1.907.553-.425.365-.632.797-.632 1.324 0 .325.1.6.303.841.214.254.48.454.79.593.332.15.648.268.942.351l.505.147v-3.81z"/>
            </g>
            <g fill="url(#n)" fill-rule="nonzero" transform="translate(471)">
                <path d="M75.886 46.487h-2.402V32.948a8.022 8.022 0 0 0-1.354-4.453l-6.02-8.986a7.895 7.895 0 0 0-6.552-3.507h-9.33a1.984 1.984 0 0 0-1.977 1.993v28.492H32.97a8.201 8.201 0 0 1 2.738 5.022h16.11c.574-3.956 3.954-7.014 8.036-7.014 4.082 0 7.453 3.058 8.026 7.014h8.006a.995.995 0 0 0 .989-.997v-3.028a.996.996 0 0 0-.99-.997zm-9.844-16.199H53.726a.989.989 0 0 1-.988-.996v-6.884c0-.548.445-.996.988-.996h7.502a1 1 0 0 1 .81.418l4.814 6.894c.455.658-.01 1.564-.81 1.564zm-6.188 16.2c-3.4 0-6.148 2.779-6.148 6.206 0 3.417 2.748 6.196 6.148 6.196 3.39 0 6.148-2.78 6.148-6.196 0-3.427-2.758-6.207-6.148-6.207zm0 9.304c-1.7 0-3.074-1.394-3.074-3.098 0-1.714 1.374-3.098 3.074-3.098 1.7 0 3.074 1.384 3.074 3.098 0 1.704-1.374 3.098-3.074 3.098zM8.596 46.487a.995.995 0 0 0-.988.996v3.03c0 .547.444.996.988.996h11.05a8.237 8.237 0 0 1 2.728-5.022H8.596zm19.076 0c-3.39 0-6.148 2.78-6.148 6.207 0 3.417 2.758 6.196 6.148 6.196 3.4 0 6.148-2.78 6.148-6.196 0-3.427-2.748-6.207-6.148-6.207zm0 9.305c-1.7 0-3.074-1.394-3.074-3.098 0-1.714 1.374-3.098 3.074-3.098 1.7 0 3.074 1.384 3.074 3.098 0 1.704-1.374 3.098-3.074 3.098zM42.459 9.826H31.003c.563 1.683.86 3.486.86 5.35 0 9.404-7.59 17.055-16.921 17.055-1.7 0-3.351-.259-4.903-.727v11.008c0 .548.445.997.989.997h33.407a.995.995 0 0 0 .989-.997V12.814a2.973 2.973 0 0 0-2.965-2.988zM14.944.11C6.69.11 0 6.853 0 15.172c0 8.319 6.69 15.063 14.944 15.063 8.253 0 14.944-6.744 14.944-15.063S23.198.11 14.944.11zm0 26.697c-6.375 0-11.543-5.21-11.543-11.635 0-6.426 5.168-11.635 11.543-11.635 6.375 0 11.543 5.21 11.543 11.635 0 6.426-5.168 11.635-11.543 11.635zm4.408-9.178c-.127 0-.257-.016-.387-.051l-4.816-1.309a1.493 1.493 0 0 1-1.096-1.443V7.355c0-.825.664-1.495 1.482-1.495.819 0 1.483.67 1.483 1.495v6.326l3.72 1.011a1.496 1.496 0 0 1 1.045 1.832 1.485 1.485 0 0 1-1.43 1.105z"/>
            </g>
        </g>
        <g>
            <g transform="translate(150 485.203)">
                <rect width="101" height="25" fill="#F8F8FF" rx="2"/>
                <text fill="#252945" font-family="Avenir-Medium, Avenir" font-size="14" font-weight="400">
                    <tspan x="32.331" y="17">DApp</tspan>
                </text>
            </g>
            <g transform="translate(175 424.222)">
                <mask id="p" fill="#fff">
                    <use xlink:href="#o"/>
                </mask>
                <g mask="url(#p)">
                    <g>
                        <mask id="s" fill="#fff">
                            <use xlink:href="#q"/>
                        </mask>
                        <use fill="url(#r)" xlink:href="#q"/>
                        <path fill="#6B8BF5" d="M25.063 16.911V52.41l34.254-17.75L57.01-2.087z" mask="url(#s)"/>
                    </g>
                </g>
            </g>
            <path fill="url(#t)" d="M49.998 16.056L27.876 28.728c-1.32.757-3.461.754-4.781-.007L.989 15.985c-1.32-.76-1.319-1.99.002-2.747L23.113.565c1.32-.756 3.461-.753 4.781.007L50 13.31c1.32.76 1.319 1.99-.002 2.747" transform="translate(175 414.3)"/>
            <use fill="#F2F5FF" transform="matrix(-1 0 0 1 191.023 442.636)" xlink:href="#u"/>
            <path stroke="#ABBBFF" stroke-dasharray="6,6" stroke-linecap="round" stroke-width="2" d="M200.606 379.918v-71.99"/>
            <path fill="#FFCA55" d="M199.726 393.9l-7.919-13.337a.9.9 0 0 1 .774-1.36h15.838a.9.9 0 0 1 .774 1.36l-7.92 13.337a.9.9 0 0 1-1.547 0z"/>
            <g>
                <path fill="url(#w)" d="M1.198 0h28.385c.662 0 1.198.536 1.198 1.198v30.558c0 .661-.536 1.198-1.198 1.198H1.198A1.198 1.198 0 0 1 0 31.756V1.198C0 .536.536 0 1.198 0z" transform="translate(211 323.203)"/>
                <g fill="#FFF">
                    <path d="M216.403 339.865h20.135a.463.463 0 1 1 0 .926h-20.135a.463.463 0 1 1 0-.926zM216.403 343.665h20.135a.463.463 0 0 1 0 .926h-20.135a.463.463 0 1 1 0-.926zM216.403 347.367h20.135a.463.463 0 1 1 0 .926h-20.135a.463.463 0 1 1 0-.926zM216.403 351.44h20.135a.463.463 0 1 1 0 .926h-20.135a.463.463 0 1 1 0-.926z"/>
                </g>
                <path fill="#FFF" d="M216.707 326.906h19.527c.423 0 .767.343.767.767v8.693a.767.767 0 0 1-.767.767h-19.527a.767.767 0 0 1-.767-.767v-8.693c0-.424.344-.767.767-.767z"/>
                <path fill="#8D94BF" fill-rule="nonzero" stroke="#8D94BF" stroke-width=".5" d="M219.74 330.239h1.277c.258 0 .485.03.68.088a1.8 1.8 0 0 1 .506.238c.143.1.262.214.357.343.095.129.17.261.225.397a2.167 2.167 0 0 1 .155.784c0 .238-.043.467-.13.689a1.74 1.74 0 0 1-.382.59 1.882 1.882 0 0 1-.628.416c-.25.105-.538.157-.866.157h-1.194v-3.702zm.497 3.232h.625c.21 0 .41-.03.597-.087a1.44 1.44 0 0 0 .493-.259c.142-.115.254-.258.336-.431.083-.173.124-.374.124-.604 0-.119-.018-.257-.056-.416a1.251 1.251 0 0 0-.215-.452 1.275 1.275 0 0 0-.437-.364c-.186-.1-.427-.149-.723-.149h-.744v2.762zm4.563-3.232h.45l1.566 3.702h-.579l-.367-.915h-1.742l-.361.915h-.58l1.613-3.702zm.89 2.348l-.683-1.7h-.01l-.693 1.7h1.385zm2.366-1.878h-1.178v-.47h2.853v.47h-1.179v3.232h-.496v-3.232zm3.35-.47h.45l1.565 3.702h-.579l-.367-.915h-1.741l-.362.915h-.58l1.613-3.702zm.888 2.348l-.682-1.7h-.01l-.693 1.7h1.385z"/>
            </g>
        </g>
        <g>
            <g transform="translate(369 485.203)">
                <rect width="101" height="25" fill="#F8F8FF" rx="2"/>
                <text fill="#252945" font-family="Avenir-Medium, Avenir" font-size="14" font-weight="400">
                    <tspan x="20.648" y="17">Company</tspan>
                </text>
            </g>
            <path stroke="#ABBBFF" stroke-dasharray="6,6" stroke-linecap="round" stroke-width="2" d="M419.606 379.918v-71.99"/>
            <path fill="#FFCA55" d="M418.726 393.9l-7.919-13.337a.9.9 0 0 1 .774-1.36h15.838a.9.9 0 0 1 .774 1.36l-7.92 13.337a.9.9 0 0 1-1.547 0z"/>
            <path fill="url(#w)" d="M62.198 16.203h28.385c.662 0 1.198.537 1.198 1.199v30.557c0 .662-.536 1.198-1.198 1.198H62.198A1.198 1.198 0 0 1 61 47.96V17.402c0-.662.536-1.199 1.198-1.199z" transform="translate(369 307)"/>
            <path fill="#FFF" d="M435.403 339.865h20.135a.463.463 0 1 1 0 .926h-20.135a.463.463 0 1 1 0-.926zM435.403 343.665h20.135a.463.463 0 0 1 0 .926h-20.135a.463.463 0 0 1 0-.926zM435.403 347.367h20.135a.463.463 0 1 1 0 .926h-20.135a.463.463 0 1 1 0-.926zM435.403 351.44h20.135a.463.463 0 1 1 0 .926h-20.135a.463.463 0 0 1 0-.926z"/>
            <path fill="url(#x)" fill-rule="nonzero" d="M19.153 123.768h17.14v42.435h-17.14z" transform="translate(369 307)"/>
            <path fill="url(#y)" fill-rule="nonzero" d="M62.72 123.768H80v42.435H62.72z" transform="translate(369 307)"/>
            <path fill="url(#z)" fill-rule="nonzero" d="M36.293 106.203h26.428v60H36.293z" transform="translate(369 307)"/>
            <path fill="#FFF" fill-rule="nonzero" d="M436.803 437.676h2.033v15.79h-2.033zM442.901 437.676h2.033v15.79h-2.033zM392.08 437.676h2.033v15.79h-2.033zM398.178 437.676h2.033v15.79h-2.033zM410.376 419.203h16.263v3h-16.263zM410.376 425.203h16.263v3h-16.263zM410.376 431.203h16.263v3h-16.263z"/>
            <g>
                <path fill="#FFF" d="M435.707 326.906h19.527c.423 0 .767.343.767.767v8.693a.767.767 0 0 1-.767.767h-19.527a.767.767 0 0 1-.767-.767v-8.693c0-.424.344-.767.767-.767z"/>
                <path fill="#8D94BF" fill-rule="nonzero" stroke="#8D94BF" stroke-width=".5" d="M438.74 330.239h1.277c.258 0 .485.03.68.088a1.8 1.8 0 0 1 .506.238c.143.1.262.214.357.343.095.129.17.261.225.397a2.167 2.167 0 0 1 .155.784c0 .238-.043.467-.13.689a1.74 1.74 0 0 1-.382.59 1.882 1.882 0 0 1-.628.416c-.25.105-.538.157-.866.157h-1.194v-3.702zm.497 3.232h.625c.21 0 .41-.03.597-.087a1.44 1.44 0 0 0 .493-.259c.142-.115.254-.258.336-.431.083-.173.124-.374.124-.604 0-.119-.018-.257-.056-.416a1.251 1.251 0 0 0-.215-.452 1.275 1.275 0 0 0-.437-.364c-.186-.1-.427-.149-.723-.149h-.744v2.762zm4.563-3.232h.45l1.566 3.702h-.579l-.367-.915h-1.742l-.361.915h-.58l1.613-3.702zm.89 2.348l-.683-1.7h-.01l-.693 1.7h1.385zm2.366-1.878h-1.178v-.47h2.853v.47h-1.179v3.232h-.496v-3.232zm3.35-.47h.45l1.565 3.702h-.579l-.367-.915h-1.741l-.362.915h-.58l1.613-3.702zm.888 2.348l-.682-1.7h-.01l-.693 1.7h1.385z"/>
            </g>
        </g>
    </g>
</svg>
