<svg xmlns="http://www.w3.org/2000/svg" width="43" height="34" viewBox="0 0 43 34">
    <g fill="none" fill-rule="nonzero">
        <path fill="#FAFAFA" d="M16.493 20.076l-1.236-.021v.021h1.236zm11.123 0h1.237l-1.237-.021v.021z"/>
        <path stroke="#FFF" d="M41.842 16.052c0 1.88-1.092 3.557-2.762 4.38.013.19.02.381.02.575 0 6.83-8.044 12.388-17.927 12.388-9.885 0-17.927-5.56-17.927-12.388 0-.226.007-.45.028-.667a4.883 4.883 0 0 1-2.59-4.288c0-2.734 2.298-4.956 5.123-4.956 1.113 0 2.159.334 3.001.94C11.903 9.992 16 8.82 20.3 8.677L23.27 1.94a1.29 1.29 0 0 1 1.473-.722l7.306 1.652a3.866 3.866 0 0 1 3.209-1.684c2.12 0 3.842 1.668 3.842 3.716 0 2.05-1.723 3.717-3.84 3.717-1.953.005-3.595-1.436-3.804-3.338l-6.252-1.412-2.149 4.876c3.983.29 7.728 1.435 10.586 3.355a5.17 5.17 0 0 1 3.078-1.004c2.825 0 5.122 2.222 5.122 4.956h.001zm-6.583-9.91c.338.001.663-.128.903-.36.24-.233.376-.55.378-.88 0-.684-.573-1.238-1.28-1.238a1.286 1.286 0 0 0-.903.359c-.24.232-.376.548-.378.879 0 .685.573 1.24 1.28 1.24zM14.771 22.244c1.414 0 2.56-1.11 2.56-2.478s-1.146-2.477-2.56-2.477c-1.416 0-2.562 1.109-2.562 2.477 0 1.369 1.146 2.478 2.562 2.478zm12.316 5.741a1.21 1.21 0 0 0 .287-1.73 1.307 1.307 0 0 0-1.789-.277 7.717 7.717 0 0 1-8.824 0 1.313 1.313 0 0 0-1.788.278 1.212 1.212 0 0 0 .286 1.73 10.313 10.313 0 0 0 5.914 1.855c2.12 0 4.188-.648 5.914-1.856zm.488-5.741c1.415 0 2.562-1.11 2.562-2.478s-1.147-2.477-2.562-2.477c-1.414 0-2.56 1.109-2.56 2.477 0 1.369 1.146 2.478 2.56 2.478z"/>
    </g>
</svg>
