<svg xmlns="http://www.w3.org/2000/svg" width="101" height="106" viewBox="0 0 101 106">
    <defs>
        <linearGradient id="a" x1="50%" x2="50%" y1="0%" y2="100%">
            <stop offset="0%" stop-color="#3BED4C"/>
            <stop offset="100%" stop-color="#32CC43"/>
        </linearGradient>
        <linearGradient id="b" x1="50%" x2="50%" y1="0%" y2="100%">
            <stop offset="0%" stop-color="#FF8C86"/>
            <stop offset="100%" stop-color="#FF655D"/>
        </linearGradient>
        <linearGradient id="c" x1="64.212%" x2="34.206%" y1="8.99%" y2="94.991%">
            <stop offset="0%" stop-color="#DBE8FF"/>
            <stop offset="100%" stop-color="#EDF0FF"/>
        </linearGradient>
    </defs>
    <g fill="none" fill-rule="evenodd">
        <path stroke="#FFCA55" stroke-dasharray="2,5" stroke-linecap="round" stroke-width="1.9" d="M49.845 47.85V11.019"/>
        <g fill-rule="nonzero" transform="translate(38.77 10.369)">
            <ellipse cx="10.566" cy="10.56" fill="url(#a)" rx="10.566" ry="10.56"/>
            <path fill="#FFF" d="M9.308 14.96a.878.878 0 0 1-.529-.177l-4.024-3.017a.879.879 0 1 1 1.056-1.407l3.365 2.522 5.502-6.414a.88.88 0 1 1 1.336 1.145l-6.037 7.04a.88.88 0 0 1-.67.307z"/>
        </g>
        <path stroke="#FFCA55" stroke-dasharray="2,5" stroke-linecap="round" stroke-width="1.9" d="M77.7 39.339V2.508"/>
        <g fill-rule="nonzero" transform="translate(66.624 1.084)">
            <ellipse cx="10.566" cy="10.56" fill="url(#a)" rx="10.566" ry="10.56"/>
            <path fill="#FFF" d="M9.308 14.96a.878.878 0 0 1-.529-.177l-4.024-3.017a.879.879 0 1 1 1.056-1.407l3.365 2.522 5.502-6.414a.88.88 0 1 1 1.336 1.145l-6.037 7.04a.88.88 0 0 1-.67.307z"/>
        </g>
        <g>
            <path stroke="#FFCA55" stroke-dasharray="2,5" stroke-linecap="round" stroke-width="1.9" d="M21.991 38.565V1.734"/>
            <g fill-rule="nonzero" transform="translate(10.058 1)">
                <ellipse cx="11.122" cy="10.56" fill="url(#b)" rx="10.677" ry="10.56"/>
                <path fill="#FFF" d="M12.38 10.56l3.146-3.112a.872.872 0 0 0 0-1.244.896.896 0 0 0-1.258 0l-3.146 3.111-3.146-3.111a.896.896 0 0 0-1.258 0 .872.872 0 0 0 0 1.244l3.146 3.112-3.146 3.111a.872.872 0 0 0 0 1.245.892.892 0 0 0 1.258 0l3.146-3.112 3.146 3.112a.892.892 0 0 0 1.258 0 .872.872 0 0 0 0-1.245L12.38 10.56z"/>
            </g>
        </g>
        <g>
            <g fill-rule="nonzero">
                <path fill="#3C55F9" d="M21.105 40.108c9.23 0 10.822 6.092 10.822 13.606 0 4.19-1.507 7.938-3.876 10.434 12.083 2.355 13.689 6.166 13.887 18.923.013.832.023 1.446.023 1.912-.128.247-3.387 6.24-20.613 6.24-17.402 0-20.55-6.116-20.61-6.238v-.424c.003-.552.013-1.086.028-1.913.225-12.275 1.891-16.083 13.47-18.42-2.414-2.495-3.953-6.278-3.953-10.514 0-7.514 1.59-13.606 10.822-13.606zm58.047 0c9.232 0 10.822 6.092 10.822 13.606 0 4.166-1.489 7.894-3.834 10.39 12.294 2.352 13.919 6.13 14.118 18.967.013.832.022 1.446.022 1.912 0 0-3.035 6.24-20.612 6.24-17.226 0-20.485-5.993-20.608-6.232-.004-.733.006-1.309.026-2.343.223-12.16 1.86-16.01 13.144-18.353l.099-.02c-2.44-2.495-3.999-6.299-3.999-10.56 0-7.515 1.591-13.607 10.822-13.607z"/>
                <path fill="#000" d="M15.767 84.006c-.002-.43-.003-.12 0 0zM56.991 84.091c.006-.117.002-.816 0 0z"/>
            </g>
            <path fill="url(#c)" d="M24.155.193c11.012 0 12.91 7.31 12.91 16.327 0 4.999-1.776 9.473-4.574 12.468 14.666 2.821 16.604 7.355 16.842 22.76.016.998.024 1.17.028 1.082v1.213S45.74 61.53 24.77 61.53C3.8 61.53.18 54.043.18 54.043l-.002-1.365v-.25.01c.005.08.015-.063.033-1.02l.003-.177C.482 36.608 2.446 32 16.014 29.193c-2.91-2.993-4.77-7.558-4.77-12.673 0-9.017 1.898-16.327 12.911-16.327z" transform="translate(25.753 44.352)"/>
            <path fill="#000" fill-rule="nonzero" d="M25.932 97.223c-.002-.516-.004-.146 0 0zM75.112 97.324c.007-.14.002-.98 0 0z"/>
        </g>
    </g>
</svg>
