<svg xmlns="http://www.w3.org/2000/svg" width="105" height="106" viewBox="0 0 105 106">
    <defs>
        <linearGradient id="a" x1="21.73%" x2="21.73%" y1="0%" y2="117.941%">
            <stop offset="0%" stop-color="#0D62FF"/>
            <stop offset="100%" stop-color="#FFF"/>
        </linearGradient>
        <linearGradient id="b" x1="58.849%" x2="43.6%" y1="0%" y2="72.804%">
            <stop offset="0%" stop-color="#F0F5FF"/>
            <stop offset="100%" stop-color="#0A4BFF"/>
        </linearGradient>
        <linearGradient id="c" x1="57.051%" x2="44.9%" y1="0%" y2="72.804%">
            <stop offset="0%" stop-color="#F0F5FF"/>
            <stop offset="100%" stop-color="#0A4BFF"/>
        </linearGradient>
        <linearGradient id="d" x1="57.06%" x2="44.894%" y1="0%" y2="72.804%">
            <stop offset="0%" stop-color="#F0F5FF"/>
            <stop offset="100%" stop-color="#0A4BFF"/>
        </linearGradient>
    </defs>
    <g fill="none" fill-rule="nonzero" transform="translate(.051 .5)">
        <circle cx="52.602" cy="13.1" r="13.099" fill="url(#a)"/>
        <path fill="url(#b)" d="M72.225 61.804l-2.974-23.16a6.525 6.525 0 0 0-6.51-5.894h-3.59c-.87 0-1.702.347-2.318.956l-4.23 4.23-4.232-4.23a3.298 3.298 0 0 0-2.319-.956H42.47c-3.38 0-6.183 2.534-6.51 5.81l-2.98 23.25c-.119.93.17 1.874.792 2.575a3.266 3.266 0 0 0 2.456 1.113h3.537l2.737 33.404a6.527 6.527 0 0 0 6.517 5.894h7.172c3.38 0 6.183-2.54 6.524-5.953l2.731-33.345h3.53c.944 0 1.834-.406 2.457-1.113.628-.701.917-1.644.792-2.58z"/>
        <circle cx="85.351" cy="13.1" r="13.099" fill="url(#a)"/>
        <path fill="url(#a)" d="M19.854.001c-7.225 0-13.1 5.875-13.1 13.1 0 7.224 5.875 13.099 13.1 13.099 7.217 0 13.099-5.875 13.099-13.1 0-7.224-5.882-13.099-13.1-13.099z"/>
        <path fill="url(#c)" d="M104.974 61.804L102 38.651a6.52 6.52 0 0 0-6.51-5.901H91.9c-.87 0-1.703.347-2.318.956l-4.231 4.23-4.231-4.23a3.295 3.295 0 0 0-2.312-.956h-3.59c-.406 0-.773.144-1.159.216.845 1.493 1.506 3.11 1.703 4.925l2.967 23.081a9.8 9.8 0 0 1-2.397 7.768c-.891 1.022-2.03 1.742-3.249 2.306l2.175 21.306a6.526 6.526 0 0 0 6.517 5.895h7.171c3.38 0 6.183-2.542 6.524-5.954l2.725-26.795c4.602-1.838 6.862-3.07 6.779-3.694z"/>
        <path fill="url(#d)" d="M28.853 68.707a9.81 9.81 0 0 1-2.371-7.722l2.98-23.258c.17-1.742.812-3.314 1.63-4.768-.366-.065-.713-.21-1.1-.21h-3.589c-.87 0-1.703.348-2.318.957l-4.231 4.23-4.232-4.23a3.295 3.295 0 0 0-2.312-.956H9.721c-3.38 0-6.183 2.534-6.51 5.81L.23 61.81c-.08.62 2.183 1.85 6.785 3.688l2.738 26.854a6.527 6.527 0 0 0 6.517 5.895h7.172c3.38 0 6.183-2.542 6.523-5.954l2.175-21.254c-1.225-.57-2.371-1.297-3.288-2.332z"/>
    </g>
</svg>
