<svg xmlns="http://www.w3.org/2000/svg" width="34" height="30" viewBox="0 0 34 30">
    <g fill="none" fill-rule="nonzero" stroke="#FFF">
        <path d="M32.316 1.584a1.548 1.548 0 0 0-.236-.29h-.002l.072.077c.067.077.126.162.177.25.011.025.026.048.037.07.024.047.045.096.063.146.007.021.017.044.024.072.042.127.066.26.074.394l.001-.001c.005.135-.004.276-.032.42l-5.06 24.964c-.235 1.17-1.568 1.698-2.5.99l-7.555-5.726-3.53 3.532a1.49 1.49 0 0 1-.205.17l-.002.002a1.37 1.37 0 0 1-.226.118c-.041.014-.078.03-.118.038-.206.061-.425.07-.636.028l-.017-.004a3.93 3.93 0 0 1-.166-.051v-.017a1.27 1.27 0 0 1-.657-.786l-2.735-9.015-7.332-2.25c-.963-.296-1.019-1.687-.086-2.066L30.523.974a1.452 1.452 0 0 1 1.793.61z"/>
        <path d="M27.273 5.994L13.634 18.546a.766.766 0 0 0-.24.488l-.492 7.65c-.018.16-.23.18-.275.028l-2.195-10.039a.776.776 0 0 1 .313-.875L26.85 5.402c.37-.239.75.292.423.592z"/>
    </g>
</svg>
