<svg xmlns="http://www.w3.org/2000/svg" width="35" height="29" viewBox="0 0 35 29">
    <path fill="none" fill-rule="nonzero" stroke="#FFF" d="M30.296 7.553c.429 9.533-6.695 20.158-19.306 20.158A19.249 19.249 0 0 1 .58 24.666a13.68 13.68 0 0 0 10.056-2.806 6.793 6.793 0 0 1-6.345-4.706 6.827 6.827 0 0 0 3.067-.115c-3.267-.655-5.521-3.591-5.448-6.73a6.765 6.765 0 0 0 3.076.846 6.772 6.772 0 0 1-2.1-9.046 19.297 19.297 0 0 0 13.997 7.083C15.892 4.95 19.116.868 23.5.868c1.954 0 3.719.823 4.957 2.14a13.594 13.594 0 0 0 4.314-1.645 6.792 6.792 0 0 1-2.985 3.749 13.568 13.568 0 0 0 3.9-1.066 13.775 13.775 0 0 1-3.389 3.507z"/>
</svg>
