<svg xmlns="http://www.w3.org/2000/svg" xmlns:xlink="http://www.w3.org/1999/xlink" width="593" height="360" viewBox="0 0 593 360">
    <defs>
        <filter id="a" width="107.5%" height="115.6%" x="-3.8%" y="-7.8%" filterUnits="objectBoundingBox">
            <feGaussianBlur in="SourceGraphic" stdDeviation="7"/>
        </filter>
        <linearGradient id="b" x1="50%" x2="50%" y1="0%" y2="100%">
            <stop offset="0%" stop-color="#D5DFFF"/>
            <stop offset="100%" stop-color="#ABBBFF"/>
        </linearGradient>
        <path id="d" d="M2 9.116h86.804L95.52.39a1 1 0 0 1 1.578-.009l6.882 8.735H190a2 2 0 0 1 2 2v250a2 2 0 0 1-2 2H2a2 2 0 0 1-2-2v-250a2 2 0 0 1 2-2z"/>
        <filter id="c" width="160.9%" height="144.5%" x="-33.6%" y="-17.7%" filterUnits="objectBoundingBox">
            <feOffset dx="-6" dy="12" in="SourceAlpha" result="shadowOffsetOuter1"/>
            <feGaussianBlur in="shadowOffsetOuter1" result="shadowBlurOuter1" stdDeviation="17.5"/>
            <feColorMatrix in="shadowBlurOuter1" values="0 0 0 0 0.599790396 0 0 0 0 0.676020797 0 0 0 0 1 0 0 0 1 0"/>
        </filter>
        <path id="f" d="M4 0h137a4 4 0 0 1 4 4v16a4 4 0 0 1-4 4H4a4 4 0 0 1-4-4V4a4 4 0 0 1 4-4z"/>
        <filter id="e" width="114.5%" height="187.5%" x="-7.2%" y="-31.2%" filterUnits="objectBoundingBox">
            <feOffset dy="3" in="SourceAlpha" result="shadowOffsetOuter1"/>
            <feGaussianBlur in="shadowOffsetOuter1" result="shadowBlurOuter1" stdDeviation="3"/>
            <feColorMatrix in="shadowBlurOuter1" values="0 0 0 0 0.419607843 0 0 0 0 0.545098039 0 0 0 0 0.960784314 0 0 0 0.368689904 0"/>
        </filter>
    </defs>
    <g fill="none" fill-rule="evenodd" transform="translate(3)">
        <rect width="584" height="307" y="19" fill="#788EEE" rx="4"/>
        <path fill="#5F79E8" d="M14 37h559v269H14z" filter="url(#a)"/>
        <g transform="translate(24)">
            <rect width="536" height="340" fill="url(#b)" rx="4"/>
            <path fill="#95A8FB" d="M4 0h528a4 4 0 0 1 4 4v33.454H0V4a4 4 0 0 1 4-4z"/>
            <g fill="#F7F8FF" opacity=".25" transform="translate(20 13)">
                <circle cx="6" cy="6" r="6"/>
                <circle cx="26" cy="6" r="6"/>
                <circle cx="46" cy="6" r="6"/>
            </g>
            <g fill="#FFF" opacity=".248" transform="translate(47 59)">
                <text font-family="Avenir-Black, Avenir" font-size="24" font-weight="700">
                    <tspan x="0" y="24">TCR</tspan>
                </text>
                <path d="M2.5 147h192a2.5 2.5 0 1 1 0 5H2.5a2.5 2.5 0 0 1 0-5zM2.5 172h135a2.5 2.5 0 1 1 0 5H2.5a2.5 2.5 0 1 1 0-5zM2.5 197h192a2.5 2.5 0 1 1 0 5H2.5a2.5 2.5 0 1 1 0-5zM2.5 222h192a2.5 2.5 0 1 1 0 5H2.5a2.5 2.5 0 1 1 0-5zM2.5 247h128a2.5 2.5 0 1 1 0 5H2.5a2.5 2.5 0 1 1 0-5z"/>
                <rect width="148" height="81" y="42" rx="2"/>
            </g>
            <g transform="translate(298 50)">
                <use fill="#000" filter="url(#c)" xlink:href="#d"/>
                <use fill="#FFF" xlink:href="#d"/>
            </g>
            <g transform="translate(322 255)">
                <use fill="#000" filter="url(#e)" xlink:href="#f"/>
                <use fill="#6B8BF5" xlink:href="#f"/>
            </g>
            <text fill="#FFF" font-family="Avenir-Heavy, Avenir" font-size="12" font-weight="600" transform="translate(322 255)">
                <tspan x="53.492" y="16">Sign in</tspan>
            </text>
            <path fill="#6B8BF5" d="M324.5 139h27.798a2.5 2.5 0 1 1 0 5H324.5a2.5 2.5 0 0 1 0-5z"/>
            <path fill="#E7ECFF" stroke="#E7ECFF" d="M322.5 156.994v14.012a2.496 2.496 0 0 0 2.495 2.494h139.01a2.496 2.496 0 0 0 2.495-2.494v-14.012a2.496 2.496 0 0 0-2.495-2.494h-139.01a2.496 2.496 0 0 0-2.495 2.494z"/>
            <g>
                <path fill="#6B8BF5" d="M324.5 194h27.798a2.5 2.5 0 1 1 0 5H324.5a2.5 2.5 0 0 1 0-5z"/>
                <path fill="#E7ECFF" stroke="#E7ECFF" d="M322.5 211.994v14.012a2.496 2.496 0 0 0 2.495 2.494h139.01a2.496 2.496 0 0 0 2.495-2.494v-14.012a2.496 2.496 0 0 0-2.495-2.494h-139.01a2.496 2.496 0 0 0-2.495 2.494z"/>
            </g>
            <g>
                <path fill="#6B8BF5" d="M360.798 95.37c.944 0 1.767.13 2.47.389.701.259 1.243.627 1.623 1.104.38.477.571 1.036.571 1.677 0 .666-.193 1.247-.58 1.744-.386.498-.919.843-1.597 1.038.796.159 1.43.527 1.903 1.103.472.577.708 1.278.708 2.102 0 .712-.2 1.333-.598 1.863-.398.53-.963.936-1.695 1.219-.731.282-1.593.423-2.584.423h-6.221V95.37h6zm-2.788 5.069h2.611c.472 0 .847-.118 1.124-.353.277-.236.416-.56.416-.972 0-.4-.139-.713-.416-.94-.277-.227-.652-.34-1.124-.34h-2.61v2.605zm0 5.112h2.611c.602 0 1.075-.126 1.42-.38.346-.253.518-.6.518-1.041 0-.424-.172-.76-.518-1.007-.345-.247-.818-.37-1.42-.37h-2.61v2.798zm14.116-7.408c1.34 0 2.38.31 3.124.932.744.62 1.121 1.484 1.133 2.591v6.366h-3.062v-1.121a2.958 2.958 0 0 1-1.23.94c-.508.215-1.095.323-1.761.323-1.027 0-1.843-.283-2.448-.848-.604-.565-.907-1.301-.907-2.207 0-.93.323-1.652.97-2.164.645-.512 1.573-.774 2.783-.786h2.575v-.14c0-.484-.16-.86-.478-1.131-.318-.27-.793-.406-1.425-.406-.413 0-.876.069-1.39.207a7.555 7.555 0 0 0-1.53.605l-.885-2.057c.796-.371 1.555-.648 2.274-.83a9.15 9.15 0 0 1 2.257-.274zm-.832 7.92c.496 0 .93-.123 1.306-.37.374-.248.609-.572.703-.972v-.865h-1.973c-.472 0-.826.084-1.062.252-.236.167-.354.434-.354.799 0 .359.12.641.362.847.242.206.582.31 1.018.31zm13.709-7.92c1.08 0 1.946.34 2.598 1.02.651.68.977 1.588.977 2.724v6.145h-3.124v-5.28c0-.565-.153-1.014-.46-1.346-.307-.333-.726-.5-1.257-.5-.554 0-1.01.182-1.367.544-.357.362-.565.837-.624 1.426v5.156h-3.142v-9.748h3.142v1.59c.69-1.136 1.776-1.713 3.257-1.731zm15.638 9.89h-3.133v-1.281c-.714.942-1.693 1.41-2.938 1.404-.909 0-1.707-.21-2.394-.631a4.264 4.264 0 0 1-1.602-1.77c-.38-.76-.57-1.64-.57-2.64 0-.99.187-1.858.561-2.606a4.14 4.14 0 0 1 1.58-1.735c.679-.409 1.463-.613 2.354-.613.643 0 1.219.12 1.726.362.507.241.935.591 1.283 1.05v-4.962h3.133v13.421zm-5.31-2.296c.655 0 1.182-.236 1.58-.707.398-.47.597-1.086.597-1.845 0-.748-.199-1.357-.597-1.828-.398-.47-.925-.706-1.58-.706s-1.18.232-1.575.697c-.396.465-.6 1.077-.61 1.837.01.76.216 1.374.614 1.845.398.471.922.707 1.571.707zm23.063 2.295l-2.354-8.75-2.39 8.75h-3.336l-4.15-12.662h3.442l2.487 9.316 2.425-9.316h3.15l2.488 9.316 2.442-9.316h3.301l-4.186 12.662h-3.319zm13.01-9.889c1.34 0 2.38.31 3.124.932.744.62 1.121 1.484 1.133 2.591v6.366h-3.062v-1.121a2.958 2.958 0 0 1-1.23.94c-.508.215-1.095.323-1.762.323-1.026 0-1.842-.283-2.447-.848-.604-.565-.907-1.301-.907-2.207 0-.93.323-1.652.97-2.164.645-.512 1.573-.774 2.783-.786h2.575v-.14c0-.484-.16-.86-.478-1.131-.318-.27-.793-.406-1.425-.406-.413 0-.876.069-1.39.207a7.555 7.555 0 0 0-1.53.605l-.885-2.057c.796-.371 1.554-.648 2.274-.83a9.15 9.15 0 0 1 2.257-.274zm-.832 7.92c.496 0 .93-.123 1.306-.37.374-.248.609-.572.703-.972v-.865h-1.973c-.472 0-.826.084-1.062.252-.236.167-.354.434-.354.799 0 .359.12.641.362.847.242.206.582.31 1.018.31zm7.408 1.97V94.61h3.133v13.421h-3.133zm5.814 0V94.61h3.133v13.421h-3.133zm10-9.855c1.594 0 2.817.46 3.67 1.382.852.921 1.278 2.203 1.278 3.846 0 .264-.006.462-.018.591h-6.867c.159.577.436 1.023.832 1.338.395.315.885.472 1.469.472.436 0 .852-.084 1.248-.251a3.441 3.441 0 0 0 1.088-.747l1.646 1.616a5.044 5.044 0 0 1-1.85 1.272c-.725.294-1.528.441-2.407.441-1.05 0-1.964-.204-2.743-.613a4.363 4.363 0 0 1-1.806-1.735c-.424-.748-.637-1.616-.637-2.605 0-.99.216-1.863.646-2.623a4.474 4.474 0 0 1 1.797-1.761c.767-.415 1.652-.623 2.655-.623zm1.921 4.141c0-.594-.172-1.07-.517-1.43-.346-.359-.801-.539-1.368-.539-.53 0-.978.177-1.34.53-.363.353-.595.833-.695 1.44h3.92zm11.01 5.192c-.348.2-.752.36-1.213.482a5.49 5.49 0 0 1-1.398.18c-.968 0-1.75-.267-2.345-.803-.596-.536-.894-1.298-.894-2.287v-4.3h-1.363v-2.048h1.363v-2.711h3.115v2.693h2.558v2.066h-2.558v3.815c0 .712.29 1.068.867 1.068.337 0 .753-.109 1.248-.327l.62 2.172zM338.59 102.888v6.642l-6.765 3.88v3.425l9.825-5.652v-9.906zM335.06 91.25v8.088l-2.984 1.712v-5.327l-3.063 1.602v8.795l9.11-5.177V89.495z"/>
                <path fill="#ABBBFF" d="M329.013 97.323l9.612 5.55 3.05-1.61-9.576-5.556z"/>
                <path fill="#537AF9" d="M325.063 109.517V93.314L322 91.632v19.55l9.83 5.652v-3.422z"/>
                <path fill="#ABBBFF" d="M331.823 86l-9.818 5.64 3.056 1.668 6.764-3.888 3.232 1.835 3.065-1.757z"/>
            </g>
        </g>
    </g>
</svg>
