<svg xmlns="http://www.w3.org/2000/svg" width="97" height="91" viewBox="0 0 97 91">
    <defs>
        <linearGradient id="a" x1="86.716%" x2="8.873%" y1="27.114%" y2="64.978%">
            <stop offset="0%" stop-color="#7D79C0"/>
            <stop offset="100%" stop-color="#353580"/>
        </linearGradient>
    </defs>
    <g fill="none" fill-rule="evenodd">
        <path fill="url(#a)" fill-rule="nonzero" d="M82.09 16.08c10.728 6.276 3.573 10.457 3.573 10.457L67.773 37l-7.154-4.188 14.309-8.369s3.58-2.087 0-4.181c-3.465-2.029-6.93-.13-7.142-.007l-14.322 8.376-7.155-4.181 14.31-8.37s3.58-2.093 0-4.187c-3.574-2.094-7.155 0-7.155 0l-14.31 8.369L32 16.081l14.316-8.37s10.729-6.144 21.464.066c3.271 1.892 4.881 3.6 5.538 5.055 2.518.379 5.474 1.318 8.771 3.249zm-49.714.577l7.167 4.162s-3.593 2.074-3.593 6.235V47.82s0 12.47-10.773 6.236c-3.302-1.912-5.59-4.414-7.18-6.962-1.59.707-3.877.558-7.179-1.354C.045 39.505.045 27.028.045 27.028V6.26C.045 2.106 3.638.026 3.638.026l7.18 4.161s-3.593 2.08-3.593 6.235V31.19s0 4.155 3.593 6.235 3.593-2.08 3.593-2.08V14.577c0-4.025 3.367-6.106 3.58-6.229.007-.006.013-.006.013-.006l7.18 4.154s-3.154 1.828-3.548 5.484c-.026.246-.039.499-.039.758v20.767s0 4.154 3.593 6.235c3.593 2.08 3.593-2.08 3.593-2.08V22.892c0-4.155 3.593-6.236 3.593-6.236zM43.15 35.415l7.18 4.154v8.316l-7.18-4.154v-8.316zm17.946-2.126l7.18 4.161s-3.593 2.08-3.593 6.235v20.767s0 12.47-10.773 6.235-10.773-18.712-10.773-18.712l7.18 4.161s0 4.155 3.593 6.235 3.593-2.08 3.593-2.08V39.524c0-4.155 3.593-6.235 3.593-6.235zm21.546 20.786s-3.593-2.08-3.593 2.087c0 4.155 3.593 6.235 3.593 6.235l7.18 4.155S97 70.713 97 83.183 86.227 89.42 86.227 89.42l-14.36-8.316v-8.316l14.367 8.316s3.593 2.08 3.593-2.08c0-4.155-3.593-6.236-3.593-6.236l-3.593-2.08s-10.773-6.398-10.773-18.713c0-12.314 10.773-6.235 10.773-6.235L97 54.075v8.316l-14.36-8.316z"/>
    </g>
</svg>
